<?xml version="1.0" encoding="utf-8"?>
<!-- Generator: Adobe Illustrator 26.2.1, SVG Export Plug-In . SVG Version: 6.00 Build 0)  -->
<svg version="1.1" xmlns="http://www.w3.org/2000/svg" xmlns:xlink="http://www.w3.org/1999/xlink" x="0px" y="0px"
	 viewBox="0 0 60 100" enable-background="new 0 0 60 100" xml:space="preserve">
<g id="BG">
	<rect id="BG_00000082354266892434819460000014407544633745974707_" x="0.02" y="0" fill="#F0EDDA" width="60" height="100"/>
	<rect id="BG_00000037693340041972082810000009059657678697518014_" x="0.02" fill="#F0EDDA" width="60" height="100"/>
</g>
<g id="THINGS">
	<path d="M0.02,0v1.6v96.8v1.6h60v-1.6V1.6V0H0.02z M59.02,98.4h-58V1.6h58V98.4z"/>
	<g>
		<g id="_x32_9_00000162344976970407247420000005006120460011529652_">
			<g>
				<g>
					<path fill="#231F20" d="M18.87,4.3c0.63,0,1.11,0.13,1.43,0.38c0.32,0.25,0.48,0.62,0.48,1.09c0,0.61-0.2,1.05-0.6,1.31
						c0.53,0.26,0.79,0.72,0.79,1.39c0,0.55-0.19,0.95-0.58,1.21c-0.39,0.26-0.89,0.39-1.51,0.39c-0.29,0-0.58-0.01-0.85-0.04
						c-0.27-0.02-0.47-0.05-0.59-0.08l-0.19-0.03V4.45C17.68,4.35,18.22,4.3,18.87,4.3z M18.03,6.74h1c0.34,0,0.58-0.06,0.73-0.19
						c0.15-0.13,0.23-0.33,0.23-0.61c0-0.25-0.09-0.45-0.26-0.58c-0.17-0.13-0.46-0.19-0.86-0.19c-0.26,0-0.53,0.02-0.83,0.06V6.74z
						 M20.17,8.34c0-0.58-0.39-0.87-1.17-0.87h-0.97v1.66c0.23,0.04,0.51,0.06,0.86,0.06c0.46,0,0.78-0.07,0.98-0.21
						C20.08,8.86,20.17,8.64,20.17,8.34z"/>
					<path fill="#231F20" d="M25.79,9.12l-0.16,0.86h-3.44v-5.6l0.8-0.08v4.82H25.79z"/>
					<path fill="#231F20" d="M27.07,9.24C26.63,8.69,26.4,8,26.4,7.18c0-0.82,0.22-1.5,0.67-2.05c0.45-0.55,1.04-0.83,1.76-0.83
						c0.72,0,1.31,0.28,1.76,0.83s0.67,1.24,0.67,2.05c0,0.82-0.22,1.5-0.67,2.05s-1.03,0.83-1.76,0.83
						C28.11,10.06,27.52,9.79,27.07,9.24z M30.03,8.65c0.29-0.37,0.44-0.86,0.44-1.46c0-0.6-0.15-1.09-0.44-1.46
						s-0.69-0.56-1.19-0.56c-0.51,0-0.91,0.19-1.2,0.56C27.35,6.1,27.2,6.58,27.2,7.18c0,0.6,0.15,1.09,0.44,1.46
						c0.29,0.37,0.69,0.56,1.2,0.56C29.34,9.21,29.74,9.02,30.03,8.65z"/>
					<path fill="#231F20" d="M32.94,9.24C32.5,8.69,32.27,8,32.27,7.18c0-0.82,0.22-1.5,0.67-2.05s1.04-0.83,1.76-0.83
						c0.72,0,1.31,0.28,1.76,0.83c0.45,0.55,0.67,1.24,0.67,2.05c0,0.82-0.22,1.5-0.67,2.05c-0.45,0.55-1.03,0.83-1.76,0.83
						C33.98,10.06,33.39,9.79,32.94,9.24z M35.9,8.65c0.29-0.37,0.44-0.86,0.44-1.46c0-0.6-0.15-1.09-0.44-1.46
						c-0.29-0.37-0.69-0.56-1.19-0.56c-0.51,0-0.91,0.19-1.2,0.56c-0.29,0.37-0.44,0.86-0.44,1.46c0,0.6,0.15,1.09,0.44,1.46
						c0.29,0.37,0.69,0.56,1.2,0.56C35.21,9.21,35.61,9.02,35.9,8.65z"/>
					<path fill="#231F20" d="M40.13,10.06c-0.29,0-0.58-0.01-0.88-0.04c-0.29-0.02-0.52-0.05-0.66-0.08l-0.22-0.03V4.45
						c0.52-0.1,1.11-0.15,1.76-0.15c0.94,0,1.65,0.25,2.11,0.74c0.46,0.5,0.69,1.21,0.69,2.14c0,0.93-0.23,1.64-0.69,2.14
						C41.78,9.82,41.07,10.06,40.13,10.06z M40.12,5.16c-0.29,0-0.6,0.02-0.96,0.07v3.9c0.32,0.04,0.63,0.06,0.96,0.06
						c1.34,0,2.01-0.67,2.01-2.02C42.13,5.84,41.46,5.16,40.12,5.16z"/>
					<path fill="#231F20" d="M22.61,11.68l0.85,0.08l-1.98,5.68h-0.07l-1.55-3.94l-1.57,3.94h-0.04l-1.94-5.68l0.86-0.08l1.21,3.71
						l1.46-3.71h0.1l1.41,3.69L22.61,11.68z"/>
					<path fill="#231F20" d="M24.64,16.61c-0.45-0.55-0.67-1.24-0.67-2.05c0-0.82,0.22-1.5,0.67-2.05c0.45-0.55,1.04-0.83,1.76-0.83
						c0.72,0,1.31,0.28,1.76,0.83c0.45,0.55,0.67,1.24,0.67,2.05c0,0.82-0.22,1.5-0.67,2.05c-0.45,0.55-1.03,0.83-1.76,0.83
						C25.67,17.44,25.08,17.17,24.64,16.61z M27.59,16.02c0.29-0.37,0.44-0.86,0.44-1.46c0-0.6-0.15-1.09-0.44-1.46
						s-0.69-0.56-1.19-0.56c-0.51,0-0.91,0.19-1.2,0.56c-0.29,0.37-0.44,0.86-0.44,1.46c0,0.6,0.15,1.09,0.44,1.46
						c0.29,0.37,0.69,0.56,1.2,0.56C26.9,16.58,27.3,16.4,27.59,16.02z"/>
					<path fill="#231F20" d="M33.98,17.36l-0.88,0.08l-1.29-2.21h-0.94v2.13l-0.8,0.08v-5.62c0.44-0.1,0.99-0.15,1.65-0.15
						c0.68,0,1.18,0.15,1.49,0.44c0.31,0.29,0.46,0.74,0.46,1.34c0,0.87-0.34,1.42-1.02,1.63L33.98,17.36z M32.88,13.46
						c0-0.3-0.08-0.52-0.25-0.68c-0.17-0.16-0.46-0.24-0.89-0.24c-0.22,0-0.51,0.02-0.88,0.06v1.77h0.98
						C32.53,14.37,32.88,14.07,32.88,13.46z"/>
					<path fill="#231F20" d="M39.07,17.36l-0.89,0.08l-2.41-2.82v2.74l-0.8,0.08v-5.68l0.8-0.08v2.88l2.32-2.88l0.86,0.08l-2.24,2.8
						L39.07,17.36z"/>
					<path fill="#231F20" d="M39.71,17l0.28-0.8c0.04,0.03,0.11,0.06,0.19,0.11c0.08,0.04,0.27,0.1,0.55,0.17
						c0.28,0.07,0.57,0.11,0.87,0.11c0.32,0,0.57-0.06,0.76-0.19c0.19-0.13,0.28-0.31,0.28-0.55c0-0.15-0.07-0.27-0.21-0.39
						s-0.32-0.2-0.53-0.27s-0.44-0.15-0.69-0.24c-0.25-0.09-0.48-0.18-0.7-0.29c-0.21-0.11-0.39-0.27-0.53-0.48
						s-0.21-0.46-0.21-0.75c0-0.55,0.17-0.98,0.51-1.29s0.79-0.46,1.35-0.46c0.24,0,0.47,0.03,0.72,0.08
						c0.24,0.05,0.42,0.11,0.55,0.16L43.08,12l-0.25,0.8c-0.34-0.18-0.75-0.27-1.21-0.27c-0.32,0-0.58,0.06-0.77,0.19
						c-0.19,0.12-0.29,0.31-0.29,0.57c0,0.15,0.07,0.28,0.21,0.4s0.32,0.21,0.53,0.29c0.21,0.08,0.44,0.16,0.69,0.25
						s0.48,0.19,0.69,0.3s0.39,0.26,0.53,0.47s0.21,0.44,0.21,0.72c0,1.14-0.63,1.71-1.89,1.71c-0.28,0-0.57-0.04-0.87-0.11
						c-0.31-0.08-0.54-0.15-0.71-0.23L39.71,17z"/>
				</g>
			</g>
			<g>
				<g>
					<path fill="#231F20" d="M16.13,89.64c0,0.38-0.11,0.66-0.33,0.85c-0.22,0.19-0.56,0.28-1.03,0.28h-0.61v1.35l-0.56,0.05V88.6
						c0.31-0.06,0.7-0.09,1.16-0.09c0.48,0,0.83,0.09,1.04,0.28C16.02,88.97,16.13,89.26,16.13,89.64z M15.4,90.07
						c0.12-0.1,0.18-0.25,0.18-0.43c0-0.19-0.06-0.33-0.18-0.44c-0.12-0.1-0.32-0.15-0.62-0.15c-0.15,0-0.36,0.01-0.61,0.04v1.12
						h0.61C15.07,90.22,15.28,90.17,15.4,90.07z"/>
					<path fill="#231F20" d="M19.62,92.12l-0.62,0.05l-0.9-1.4h-0.66v1.35l-0.56,0.05V88.6c0.31-0.06,0.7-0.09,1.16-0.09
						c0.48,0,0.83,0.09,1.04,0.28c0.22,0.19,0.33,0.47,0.33,0.85c0,0.55-0.24,0.9-0.71,1.04L19.62,92.12z M18.86,89.64
						c0-0.19-0.06-0.33-0.18-0.44c-0.12-0.1-0.32-0.15-0.62-0.15c-0.15,0-0.36,0.01-0.61,0.04v1.12h0.69
						C18.61,90.22,18.86,90.03,18.86,89.64z"/>
					<path fill="#231F20" d="M20.36,88.56l0.56-0.05v3.62l-0.56,0.05V88.56z"/>
					<path fill="#231F20" d="M22.29,91.69c-0.3-0.32-0.45-0.77-0.45-1.35s0.15-1.03,0.45-1.35s0.73-0.48,1.3-0.48
						c0.2,0,0.39,0.02,0.58,0.04s0.32,0.06,0.41,0.09l0.13,0.04l-0.13,0.52c-0.32-0.1-0.63-0.14-0.92-0.14
						c-0.43,0-0.75,0.11-0.95,0.32c-0.2,0.22-0.3,0.54-0.3,0.96s0.1,0.74,0.3,0.96c0.2,0.22,0.52,0.32,0.95,0.32
						c0.14,0,0.29-0.01,0.45-0.04s0.29-0.05,0.37-0.07l0.13-0.04L24.75,92c-0.29,0.12-0.68,0.18-1.16,0.18
						C23.03,92.17,22.59,92.01,22.29,91.69z"/>
					<path fill="#231F20" d="M28.03,91.57l-0.11,0.55h-2.41v-3.56h2.41l0.11,0.55h-1.96v0.9h1.61v0.55h-1.61v1.02H28.03z"/>
					<path fill="#231F20" d="M30.85,91.79l0.28-0.73c0.32,0.19,0.75,0.31,1.31,0.35v-1.43c-0.23-0.07-0.42-0.14-0.57-0.2
						s-0.31-0.15-0.47-0.27c-0.16-0.11-0.29-0.25-0.37-0.4c-0.08-0.16-0.12-0.35-0.12-0.56c0-0.45,0.14-0.81,0.42-1.08
						c0.28-0.27,0.65-0.43,1.12-0.49v-0.66l0.6-0.07v0.72c0.2,0.01,0.39,0.04,0.59,0.09c0.2,0.05,0.34,0.09,0.44,0.13l0.15,0.06
						l-0.25,0.73c-0.26-0.12-0.57-0.19-0.93-0.23v1.49c0.23,0.07,0.42,0.14,0.57,0.21c0.15,0.07,0.31,0.15,0.48,0.26
						s0.29,0.24,0.37,0.39c0.08,0.15,0.13,0.33,0.13,0.53c0,0.94-0.51,1.45-1.54,1.54v0.65l-0.6,0.07v-0.72
						c-0.25-0.02-0.5-0.06-0.77-0.12c-0.26-0.06-0.47-0.12-0.6-0.18L30.85,91.79z M31.7,88.43c0,0.14,0.06,0.25,0.19,0.35
						c0.13,0.1,0.31,0.19,0.55,0.27v-1.29C31.95,87.83,31.7,88.05,31.7,88.43z M33.78,90.74c0-0.13-0.06-0.24-0.19-0.33
						c-0.13-0.09-0.31-0.17-0.55-0.25v1.24C33.54,91.32,33.78,91.11,33.78,90.74z"/>
					<path fill="#231F20" d="M37.22,87.03v5.09l-0.77,0.07v-4.23l-1.09,0.26l-0.12-0.76l1.9-0.44H37.22z"/>
					<path fill="#231F20" d="M41.36,87.03l-0.07,0.76h-1.69l-0.01,1.42c0.12-0.02,0.3-0.04,0.55-0.04c0.48,0,0.86,0.13,1.14,0.4
						c0.28,0.27,0.42,0.62,0.42,1.08c0,0.48-0.17,0.86-0.5,1.14s-0.79,0.41-1.35,0.41c-0.21,0-0.42-0.02-0.63-0.07
						c-0.21-0.05-0.37-0.09-0.47-0.14l-0.16-0.07l0.21-0.67c0.28,0.13,0.62,0.2,1.04,0.2c0.33,0,0.59-0.07,0.79-0.21
						c0.2-0.14,0.3-0.35,0.3-0.61c0-0.25-0.1-0.45-0.31-0.59s-0.49-0.22-0.85-0.22c-0.18,0-0.34,0.01-0.49,0.02
						s-0.25,0.02-0.31,0.03l-0.08,0.02l-0.05-0.05v-2.79H41.36z"/>
					<path fill="#231F20" d="M43.11,91.43c-0.37-0.51-0.55-1.13-0.55-1.86c0-0.73,0.18-1.35,0.55-1.86c0.37-0.5,0.86-0.76,1.48-0.76
						c0.62,0,1.11,0.25,1.48,0.76c0.37,0.51,0.55,1.12,0.55,1.86c0,0.74-0.18,1.36-0.55,1.87s-0.86,0.76-1.48,0.76
						C43.97,92.2,43.48,91.94,43.11,91.43z M45.85,89.57c0-0.54-0.11-0.98-0.33-1.33s-0.53-0.52-0.93-0.52s-0.71,0.17-0.93,0.52
						c-0.22,0.35-0.33,0.79-0.33,1.33c0,0.55,0.11,0.99,0.33,1.34c0.22,0.35,0.53,0.52,0.93,0.52s0.71-0.17,0.93-0.52
						S45.85,90.12,45.85,89.57z"/>
				</g>
			</g>
			<g id="WATER_00000147207249523364135370000012437411704145906075_">
				<path fill="#9A1C1F" d="M23.74,53.19c1.23-0.03,2.46-0.05,3.69-0.07c0.2,0,0.36-0.07,0.49-0.18c2.36-0.12,4.72-0.26,7.09-0.31
					c0.61-0.02,0.93-0.76,0.5-1.2c-0.82-0.84-1.75-1.57-2.73-2.22c-0.86-0.57-1.92-1.28-2.99-0.97c-0.1,0.03-0.13,0.14-0.09,0.22
					c0.03,0.07,0.08,0.13,0.12,0.2c-0.65-0.18-1.34-0.23-2.11-0.09c-2.01,0.36-3.53,1.83-4.61,3.47
					C22.76,52.52,23.18,53.2,23.74,53.19z"/>
				<path fill="#9A1C1F" d="M48.44,72.84c-1.69-0.5-3.47-0.44-5.21-0.44c-0.1,0-0.19,0.03-0.26,0.07c-0.08-0.1-0.25-0.11-0.36-0.04
					l-0.02,0.01c-0.04,0.02-0.06,0.06-0.08,0.09c0,0-0.06-0.1-0.06-0.1c-0.49,0.92,0.78,2.37,1.53,2.64
					c1.79,0.63,3.85-1.52,5.47-1.9C50.15,72.99,49.54,73.16,48.44,72.84z"/>
				<path fill="#FFFCDF" d="M7,66.09c1.17,1.78,4.52,1.54,5.12-0.64c0.08-0.29,0.15-0.65,0.23-0.99c2.53-0.45,8.86-0.23,9.3-0.24
					c0.27,0.56,0.7,1.06,1.29,1.42c1.12,0.68,2.43,0.69,3.75,0.65c0.11,0.09,4.59,0.38,6.7,0.4c0.8-0.25,1.44-0.99,1.7-1.77
					c0.05-0.15,0.12-0.28,0.21-0.4c0.28,0.12,0.59,0.19,0.93,0.18c1.51-0.06,3.15-0.18,4.6,0.31c1.54,0.52,1.79,1.49,2.22,2.87
					c0.18,0.53-0.25,1.04-0.53,1.45c-0.66,0.98-0.9,2.79,0.47,3.14c0,0,0,0,0.01,0c1.66,0.09,3.32,0.02,4.95,0.4
					c0.06,0.01,0.1,0.04,0.13,0.08c1.26-0.03,3.27-0.14,4.51-0.4c2.08-0.43,1.81-0.88,1.7-2.23c-0.29-1.3-1.11-1.12-1.12-1.99
					c0-0.36,0.09-2.07,0.38-2.96c0.01-0.53,0.02-1.06-0.02-1.59c-0.59-1.93-1.81-3.81-3.25-5.23c-3.09-3.03-7.23-3.28-11.36-3.37
					c-0.4-0.02-0.91-0.72-1.07-1.27c-0.16-0.57-0.2-0.85-0.73-1c-0.2-0.04-0.38-0.12-0.56-0.24c-0.58,0.11-1.18,0.15-1.74,0.19
					c-1.48,0.1-2.96,0.15-4.44,0.13c-2.65-0.04-8.12,0.16-8.19,0.3c-2.36,0.11-4.73,0.28-7.1,0.27c-1.04-0.01-2.4,0.14-3.09-0.5
					c-0.62-0.58-0.96-1.65-1.6-2.3c-0.67-0.69-1.53-0.85-2.3-0.66c-1.26,1.11-2.02,4.78-2.17,4.8C5.65,58.73,4.87,62.87,7,66.09z"/>
				<path fill="#9A1C1F" d="M40.72,44.5c0.32-0.83,0.39-1.68,0.18-2.6c-0.03-0.06-0.05-0.11-0.08-0.17
					c-0.18-0.13-0.36-0.27-0.53-0.41c-0.41-0.18-0.81-0.38-1.2-0.61c-0.31-0.14-0.62-0.28-0.92-0.42c-1.22-0.08-2.34-0.64-3.56-0.73
					c-0.83,0.16-1.56,0.47-2.44,0.36c-0.14-0.02-0.21-0.12-0.23-0.23c-0.61-0.12-1.22-0.32-1.81-0.45c-0.8-0.18-1.58-0.29-2.34-0.35
					c-0.16,0.08-0.32,0.16-0.48,0.23c-0.03,0.07-0.08,0.12-0.16,0.13c-0.02,0-0.05,0-0.07,0.01c0,0,0,0,0,0c-0.01,0-0.01,0-0.02,0
					c-0.08,0.01-0.17,0.02-0.25,0.03c-0.32,0.09-0.64,0.13-1,0.12c-0.06,0-0.11-0.02-0.15-0.05c-0.24,0.02-0.48,0.04-0.73,0.06
					c-0.02,0.01-0.04,0.02-0.06,0.02c0,0,0,0,0,0c0,0,0,0,0,0c-0.03,0.01-0.05,0.02-0.08,0.03c-0.03,0.01-0.07,0.03-0.1,0.04
					c-0.87,0.35-1.78,0.54-2.69,0.78c-0.78,0.39-1.45,0.93-1.9,1.67c-0.17,0.64-0.11,1.32,0.28,1.84c0.78,1.02,1.8,1.46,2.92,1.65
					c0.63-0.31,1.26-0.66,1.95-0.22c0.09,0.06,0.13,0.15,0.12,0.24c0.05,0.04,0.1,0.08,0.15,0.12c0.5,0,1.01-0.01,1.51,0
					c0.36,0.01,0.71,0,1.07,0c0.13-0.17,0.42-0.07,0.45,0.16c0.06,0.54,0.01,1.08,0.02,1.62c0.1,0.47,0.46,0.85,0.99,0.85
					c0.37,0,0.72-0.23,0.89-0.55c-0.06-0.52,0.03-1.08,0.13-1.61c-0.02-0.05-0.03-0.1-0.02-0.16c0.02-0.1,0.05-0.18,0.09-0.25
					c0.01-0.04,0.02-0.09,0.02-0.13c0.03-0.15,0.15-0.2,0.27-0.17c0.36-0.22,0.9-0.19,1.36-0.12c0.71,0.1,1.4,0.12,2.08,0.1
					c0.55-0.04,1.1-0.09,1.65-0.14c0.41-0.13,0.82-0.19,1.24-0.19c0.02-0.01,0.04-0.01,0.06-0.02c0.02,0.01,0.03,0.01,0.05,0.02
					c0.63,0.02,1.27,0.17,1.9,0.36C39.84,45.26,40.34,44.93,40.72,44.5z"/>
				<path fill="#D65327" d="M53.79,51.66c-0.22-0.69-0.91-1.08-1.53-1.35c-0.65-0.28-1.26-0.56-1.87-0.88
					c-1.04-0.42-2.07-0.85-3.03-1.43c-0.42-0.11-0.81-0.27-1.2-0.47c-0.77-0.22-1.51-0.5-2.27-0.74c-0.23-0.07-0.47-0.11-0.71-0.16
					c-1.27,0.14-2.47,0.72-3.29,1.71c-0.12,0.26-0.24,0.52-0.33,0.78c0.04,0.05,0.05,0.12,0.03,0.2c-0.4,1.21-0.46,2.67,0.04,3.87
					c0.25,0.36,0.56,0.69,0.9,1c0.59,0.26,1.17,0.52,1.77,0.75c1.02,0.38,2.08,0.4,3.13,0.63c0.1,0.02,0.16,0.11,0.17,0.2
					c0.42,0.12,0.81,0.29,1.14,0.55c1.1,0.52,2.25,1.35,2.95,1.73c0.62,0.33,1.25,0.01,1.49-0.61
					C51.82,55.8,54.42,53.66,53.79,51.66z M44.31,53.58c0,0.03-0.02,0.05-0.02,0.08c-0.02,0.09-0.11,0.17-0.2,0.18
					c-0.02,0.02-0.03,0.04-0.05,0.06c-0.09-0.03-0.19-0.06-0.29-0.09c-1.29,0.34-3.59-1.1-3.06-2.78c-0.04-0.73,0.31-1.51,0.98-1.64
					c1.08-0.99,3.08-1.05,4.14-0.09c0.17,0.15,0.36,0.23,0.55,0.26C45.99,51.06,45.31,52.39,44.31,53.58z"/>
				<path d="M48.47,73.26c-1.73-0.03-3.7-0.03-5.65-0.38c-1.29-0.23-1.87-1.52-1.17-2.66c0.08-0.13,0.17-0.26,0.26-0.37
					c0.3-0.36,0.73-0.64,0.71-1.21c-0.02-0.81-0.18-1.59-0.73-2.2c-0.61-0.68-1.34-1.21-2.3-1.38c-1.14-0.2-2.27-0.33-3.43-0.17
					c-0.36,0.05-0.64,0.15-0.75,0.54c-0.02,0.08-0.1,0.15-0.13,0.24c-0.36,1-1.04,1.3-2.11,1.26c-1.33-0.05-2.67-0.13-3.98-0.11
					c-2.17,0.04-4.28-0.45-6.42-0.51c-0.38-0.01-0.66-0.2-0.89-0.54c-0.91-1.33-0.92-1.32-2.5-1.16c-0.21,0.02-0.43,0.08-0.63,0.07
					c-1.54-0.14-3.09,0-4.63,0.01c-0.24,0-0.48,0.03-0.73,0.02c-0.46-0.02-0.69,0.19-0.84,0.64c-0.28,0.83-0.84,1.45-1.58,1.93
					c-1.77,1.14-3.32,0.4-4.32-1.03c-1.62-2.32-1.9-4.94-1.6-7.66c0.17-1.56,0.26-3.14,0.71-4.66c0.33-1.1,0.61-2.23,1.29-3.19
					c0.55-0.78,1.27-1.28,2.29-1.18c0.38,0.04,0.72,0.18,0.96,0.46c0.67,0.74,1.46,1.39,1.68,2.44c0.06,0.29,0.27,0.27,0.48,0.31
					c1.11,0.21,2.23,0.24,3.35,0.25c1.94,0.02,3.88-0.06,5.82-0.08c0.32,0,0.5-0.1,0.64-0.38c0.25-0.49,0.53-0.95,0.8-1.43
					c0.49-0.86,1.16-1.56,1.97-2.12c0.3-0.2,0.42-0.36,0.21-0.72c-0.17-0.29-0.21-0.66-0.09-0.97c0.24-0.59-0.06-1.13-0.1-1.68
					c-0.03-0.39-0.28-0.43-0.58-0.37c-0.3,0.06-0.59,0.13-0.88,0.22c-0.99,0.29-1.93,0.11-2.83-0.33c-0.8-0.39-1.22-1.06-1.22-1.97
					c-0.01-2.02,1.33-3.36,3.37-3.33c0.33,0.01,0.59-0.13,0.86-0.25c0.76-0.35,1.55-0.54,2.38-0.25c0.24,0.09,0.39,0,0.58-0.12
					c1.11-0.66,2.23-0.75,3.33,0.02c0.2,0.14,0.37,0.16,0.59,0.11c0.79-0.18,1.57-0.14,2.34,0.09c0.6,0.18,1.18,0.17,1.79,0.06
					c1.44-0.25,2.77,0.01,3.95,0.93c0.26,0.2,0.57,0.33,0.9,0.42c1.77,0.45,2.45,2.78,1.2,4.12c-0.1,0.11-0.21,0.27-0.34,0.29
					c-0.79,0.16-0.86,0.68-0.72,1.33c0.08,0.39-0.42,0.93,0.01,1.15c0.38,0.19,0.67-0.4,1-0.64c1.58-1.13,3.16-0.75,4.75-0.08
					c0.42,0.17,0.81,0.41,1.21,0.62c0.11,0.05,0.21,0.15,0.32,0.15c1.75,0.05,3.11,1.11,4.62,1.78c0.63,0.28,1.3,0.5,1.85,0.95
					c0.14,0.12,0.3,0.21,0.43,0.33c0.53,0.5,0.7,1.04,0.39,1.78c-0.82,1.94-1.77,3.79-3.26,5.32c-0.22,0.23-0.23,0.38-0.04,0.61
					c0.29,0.35,0.53,0.75,0.86,1.06c1.17,1.14,1.6,2.62,1.85,4.15c0.24,1.49,0.05,2.61-0.26,4.06c-0.07,0.32-0.12,0.55,0.21,0.71
					c1.04,0.7,1.17,1.6,1.29,2.53c0.09,0.74-0.27,1.27-0.99,1.53c-0.83,0.31-1.71,0.44-2.58,0.51
					C50.53,73.18,49.62,73.2,48.47,73.26z M43.16,53.83c0.21,0.04,0.38,0.04,0.53-0.18c0.78-1.16,1.4-2.4,2.07-3.61
					c0.15-0.27,0.08-0.43-0.14-0.62c-0.87-0.75-2.51-0.87-3.48-0.23c-0.29,0.19-0.68,0.32-0.61,0.8c0.02,0.14-0.09,0.25-0.19,0.27
					c-0.3,0.07-0.47,0.21-0.51,0.54c-0.04,0.31-0.06,0.61,0.1,0.88c0.28,0.47,0.52,0.95,1,1.27c0.42,0.28,0.81,0.59,1.23,0.88
					c0.02,0.13-0.02,0.23-0.16,0.27c-0.65,0.19-1.17-0.08-1.67-0.46c-0.47-0.36-0.81-0.83-1.22-1.25c0.47,1.43,1.72,1.93,2.95,2.44
					C43.29,54.52,43.36,54.19,43.16,53.83z M42.97,61.37c-0.16,1.13-0.39,2.23-0.52,3.36c-0.06,0.54,0.01,0.84,0.3,1.24
					c1.02,1.38,0.96,2.87-0.1,4.26c-0.18,0.24-0.39,0.48-0.37,0.81c0.03,0.35-0.01,0.78,0.5,0.83c1.06,0.1,2.08,0.41,3.15,0.43
					c1.27,0.01,2.54,0.13,3.81,0.03c1.21-0.09,2.43-0.15,3.61-0.44c0.79-0.2,0.87-0.51,0.87-1.13c0-0.7-0.51-1.44-1.43-2
					c-0.17-0.09-0.13-0.24-0.11-0.39c0.08-0.85,0.14-1.69,0.24-2.54c0.24-1.9-0.28-3.61-1.35-5.16c-0.43-0.62-0.94-1.2-1.46-1.74
					c-1.16-1.2-2.57-2.07-4.15-2.53c-2.16-0.63-4.41-0.79-6.65-0.91c-0.45-0.02-0.78,0.14-1.12,0.47c-0.92,0.87-1.6,1.9-2.17,3.01
					c-0.52,1.01-0.93,2.06-0.86,3.22c0.04,0.69,0.27,1.39-0.5,1.85c-0.1,0.06-0.15,0.22-0.04,0.31c0.08,0.07,0.22,0.13,0.33,0.12
					c0.42-0.04,0.82-0.45,0.88-0.89c0.07-0.51,0.1-1.03,0.2-1.53c0.1-0.53,0.12-1.1,0.52-1.78c-0.13,1.02-0.25,1.83-0.33,2.63
					c-0.11,1.1-0.03,1.18,1.03,1.03c0.19-0.03,0.43,0.06,0.61-0.18c-0.09-1.35,0.03-2.71,0.6-3.99c-0.07,1.03-0.33,2.04-0.25,3.07
					c0.11,1.38-0.19,1.08,1.29,1.24c0.03,0,0.06,0,0.09,0c0.28,0.05,0.39-0.11,0.41-0.36c0.02-0.24,0.03-0.49,0.07-0.73
					c0.11-0.78,0.14-1.58,0.53-2.29c0.08-0.15,0.11-0.37,0.45-0.24c-0.51,0.83-0.46,1.78-0.63,2.68c-0.06,0.29-0.06,0.61-0.03,0.91
					c0.03,0.25,0.26,0.32,0.48,0.3c0.21-0.02,0.18-0.2,0.17-0.35c-0.05-0.4,0-0.8,0.09-1.18c0.16-0.69,0.3-1.41,0.86-1.93
					c-0.12,0.55-0.37,1.06-0.47,1.6c-0.1,0.56,0,1.16-0.1,1.72c-0.09,0.52,0.09,0.72,0.58,0.8C42.31,63.78,42.22,62.46,42.97,61.37z
					 M21.34,53.85c-0.35-0.02-0.5-0.04-0.65-0.04c-2.55-0.09-5.1,0.1-7.64-0.13c-0.3-0.03-0.62-0.17-0.9-0.03
					c-0.41,0.2-0.59,0.01-0.63-0.34c-0.1-0.93-0.64-1.61-1.23-2.28c-0.8-0.91-1.7-0.91-2.44,0.04c-0.47,0.6-0.81,1.28-1.05,2
					c-0.57,1.68-0.74,3.43-0.92,5.18c-0.13,1.31-0.19,2.6,0.04,3.9c0.24,1.36,0.68,2.65,1.54,3.74c1.24,1.59,2.99,1.18,3.9-0.1
					c0.3-0.42,0.59-0.86,0.77-1.33c0.17-0.45,0.4-0.6,0.86-0.61c1.88-0.03,3.75-0.15,5.63-0.07c0.67,0.03,1.38,0.06,2.12-0.2
					c-1.14-1.49-1.15-3.17-1.09-4.89C19.71,56.95,20.37,55.43,21.34,53.85z M35.99,53.17c-0.2-0.02-0.29-0.05-0.38-0.04
					c-2.29,0.28-4.6,0.22-6.89,0.45c-1.96,0.2-3.93,0.25-5.91,0.21c-0.29-0.01-0.52,0.01-0.7,0.29c-0.88,1.37-1.56,2.8-1.64,4.47
					c-0.03,0.63,0.24,1.17,0.34,1.75c0.29,1.66,0.83,3.15,2.18,4.26c0.05,0.04,0.09,0.08,0.13,0.12c0.09,0.1,0.11,0.22,0.01,0.32
					c-0.11,0.11-0.21,0.08-0.31-0.02c-0.26-0.25-0.48-0.56-0.92-0.81c0.37,0.81,0.8,1.29,1.62,1.17c0.03,0,0.06,0,0.09,0.01
					c2.54,0.5,5.11,0.64,7.69,0.73c0.82,0.03,1.64-0.05,2.45-0.1c0.51-0.03,0.72-0.42,0.87-0.82c0.15-0.41-0.28-0.47-0.48-0.66
					c-0.12-0.11-0.21-0.31-0.45-0.2c-0.09,0.36,0.25,0.75-0.05,1.15c-0.44-0.16-0.7-0.51-0.85-0.9c-0.28-0.73-0.56-1.48-0.63-2.27
					c-0.26-2.91,0.59-5.44,2.58-7.59C35.17,54.24,35.72,53.87,35.99,53.17z M50.17,57.73c0.96-0.81,1.65-1.84,2.32-2.87
					c0.49-0.75,0.77-1.64,1.15-2.46c0.15-0.33,0.09-0.58-0.19-0.8c-0.17-0.13-0.34-0.26-0.52-0.36c-1.59-0.87-3.2-1.71-4.88-2.38
					c-0.7-0.28-0.73-0.28-1.04,0.43c-0.59,1.33-1.32,2.59-2.1,3.82c-0.39,0.6-0.85,1.16-1.23,1.91
					C46.14,55.31,48.31,56.12,50.17,57.73z M26.1,49.51c-0.18-0.1-0.27-0.02-0.37,0.04c-1.17,0.69-1.88,1.79-2.56,2.91
					c-0.21,0.35-0.14,0.48,0.33,0.47c1.12-0.02,2.24-0.11,3.37-0.12c1.91-0.01,3.8-0.4,5.72-0.32c0.92,0.04,1.85-0.09,2.79-0.15
					c-0.41-2.27-5.16-4.5-7.25-3.61c0.23,0.03,0.9,0.06,1.19,0.18c0.27,0.11,0.56,0.35,0.56,0.35s-0.48,0.18-0.73,0.31
					c-0.8,0.44-2.16,1.11-2.78,1.84c0.46-0.29,1.31-0.69,1.72-0.87c0.69-0.29,0.81-0.3,1.46-0.17c-1.37,0.51-2.56,1.08-3.52,2.04
					c-0.23,0.23-0.98-0.2-0.84-0.45c0.47-0.9-0.47,0.13-0.29-0.37C24.87,50.86,25.43,50.21,26.1,49.51z M22.17,41.9
					c-0.47-0.08-0.84,0.31-1.29,0.47c-0.52,0.18-0.66,0.43-0.51,0.94c0.12,0.43,0.39,0.74,0.78,0.96c0.9,0.52,1.86,0.6,2.8,0.2
					c0.79-0.33,1.47-0.18,2.16,0.16c0.19,0.09,0.36,0.2,0.57,0.26c1.46,0.42,2.92,0.47,4.36-0.08c0.43-0.16,0.82-0.15,1.23,0.04
					c1.12,0.51,2.25,0.24,3.38,0.01c0.21-0.04,0.55-0.09,0.37-0.46c-0.12-0.25-0.31-0.18-0.54-0.09c-1.22,0.49-2.24,0.21-3.06-0.8
					c-0.51-0.64-0.67-0.74-1.35-0.43c-0.61,0.28-1.08,0.12-1.62-0.15c-1.13-0.55-2.28-0.56-3.36,0.15c-0.8,0.53-1.01,0.54-1.74-0.1
					c-0.39-0.34-0.78-0.66-1.25-0.89C22.82,41.95,22.54,41.89,22.17,41.9z M34.57,57.65c0.31-0.03,0.35,0.25,0.54,0.34
					c0.25,0.11,0.44,0.13,0.61-0.15c0.56-0.93,1.17-1.84,2.02-2.55c0.16-0.13,0.32-0.3,0.21-0.55c-0.15-0.36-0.28-0.74-0.46-1.09
					c-0.19-0.37-0.58-0.4-0.84-0.07c-1.01,1.24-2.12,2.41-2.85,3.86c-0.48,0.95-0.5,1.13,0.15,1.94c0.09,0.12,0.19,0.24,0.29,0.35
					c0.12,0.13,0.25,0.31,0.44,0.13c0.15-0.14,0.14-0.32-0.03-0.47c-0.29-0.26-0.49-0.58-0.68-1.13c0.38,0.41,0.63,0.69,0.89,0.96
					c0.32-0.27,0.39-0.47,0.14-0.74C34.78,58.26,34.51,58.03,34.57,57.65z M35.67,45.76c-1.45,0.28-2.77,0.46-4.1-0.05
					c-0.46-0.17-0.63,0.03-0.66,0.56c-0.02,0.33,0,0.67-0.03,1c-0.03,0.3,0.09,0.44,0.37,0.51c0.64,0.17,1.29,0.36,1.86,0.69
					c0.49,0.28,0.82,0.24,1.14-0.24c0.12-0.19,0.35-0.41,0.56-0.44c0.76-0.09,0.75-0.61,0.76-1.16
					C35.56,46.38,35.61,46.15,35.67,45.76z M40.56,43.2c-0.03-0.13-0.05-0.44-0.15-0.72c-0.24-0.69-0.91-0.93-1.52-0.53
					c-0.49,0.32-1.01,0.53-1.59,0.63c-0.22,0.04-0.47,0.02-0.63,0.29c-0.31,0.53,0.24,1.67,0.86,1.65c0.47-0.01,0.89,0.05,1.27,0.34
					c0.09,0.07,0.22,0.13,0.33,0.12C39.88,44.97,40.57,44.18,40.56,43.2z M40.2,54.5c0.05-0.32-0.18-0.42-0.31-0.57
					c-0.43-0.52-0.73-1.09-0.84-1.77c-0.07-0.39-0.11-0.78-0.08-1.17c0.03-0.4-0.16-0.45-0.5-0.56c-0.93-0.3-1.5,0.47-2.25,0.66
					c-0.06,0.02-0.14,0.15-0.13,0.22c0.06,0.29,0.14,0.59,0.24,0.87c0.09,0.27,0.36,0.2,0.55,0.21c1,0.01,1.46,0.58,1.61,1.5
					c0.02,0.15,0.06,0.3,0.09,0.45c0.04,0.17,0.16,0.26,0.32,0.26C39.34,54.58,39.8,54.7,40.2,54.5z M33.28,41.49
					c-0.47-0.05-0.6,0.06-0.57,0.5c0.06,0.91,0.79,1.58,1.83,1.72c0.37,0.05,0.58,0.03,0.43-0.47c-0.14-0.48-0.01-0.58,0.48-0.59
					c0.45-0.01,0.63-0.18,0.49-0.53c-0.22-0.55-0.67-0.83-1.23-0.98c-0.39-0.1-0.75-0.27-0.95,0.29
					C33.7,41.62,33.46,41.55,33.28,41.49z M36.39,46.62c-0.01,0.74,0.49,1.53,1.01,1.67c0.43,0.12,0.62-0.01,0.7-0.48
					c0.03-0.21,0.05-0.49,0.27-0.51c0.41-0.03,0.59-0.22,0.64-0.61c0.05-0.37,0.02-0.73-0.18-1.04c-0.2-0.32-0.5-0.4-0.86-0.32
					c-0.39,0.08-0.34,0.36-0.34,0.62c0,0.09,0.01,0.18,0.01,0.27c-0.03,0.33-0.22,0.32-0.43,0.17c-0.07-0.05-0.12-0.14-0.17-0.21
					c-0.24-0.31-0.4-0.17-0.52,0.1C36.44,46.42,36.4,46.56,36.39,46.62z M27.98,41.62c0.09,0,0.18,0.01,0.27,0
					c0.78-0.05,0.78-0.05,0.86-0.86c0.02-0.19,0.12-0.34,0.22-0.49c0.16-0.24,0.09-0.38-0.15-0.49c-0.85-0.39-2.19,0.06-2.63,0.85
					c-0.19,0.34-0.12,0.56,0.21,0.74C27.14,41.58,27.55,41.64,27.98,41.62z M21.99,40.87c1.09,0.03,1.95,0.55,2.75,1.24
					c0.11,0.1,0.24,0.18,0.36,0.28c0.17,0.15,0.32,0.08,0.49-0.01c0.22-0.13,0.19-0.27,0.05-0.43c-0.15-0.16-0.09-0.32-0.04-0.5
					c0.08-0.26,0.13-0.53,0.18-0.8c0.06-0.33-0.04-0.54-0.41-0.53c-0.21,0.01-0.45-0.03-0.63,0.05c-0.85,0.4-1.73,0.65-2.68,0.65
					C22.04,40.81,22.01,40.85,21.99,40.87z M46.56,48.6c-0.03-0.17-0.14-0.27-0.27-0.34c-0.97-0.49-1.93-0.99-3.07-0.99
					c-0.79,0-1.5,0.2-2.08,0.72c-0.2,0.18-0.76,0.28-0.45,0.7c0.27,0.36,0.53-0.08,0.75-0.22c1.35-0.85,2.93-0.83,4.25,0.07
					c0.15,0.1,0.28,0.24,0.45,0.3C46.33,48.9,46.49,48.8,46.56,48.6z M28.21,47.01c0.03-0.36,0.12-0.64-0.09-0.81
					c-0.29-0.22-0.39,0.17-0.6,0.25c-0.23,0.09-0.45,0.17-0.68,0.25c-0.33,0.11-0.54,0.23-0.28,0.63c0.19,0.29,0.13,0.54-0.3,0.5
					c-0.18-0.02-0.31,0-0.28,0.21c0.03,0.23,0.18,0.29,0.39,0.21c0.34-0.13,0.66-0.29,1.02-0.38C28.19,47.7,28.19,47.68,28.21,47.01
					z M36.63,49.15c-0.8-1.05-0.96-0.96-1.55-0.61c-0.43,0.25-0.55,0.7-0.35,1.08c0.31,0.58,0.75,0.75,1.41,0.5
					c-0.23-0.23-0.62-0.41-0.41-0.79C35.94,48.94,36.36,49.37,36.63,49.15z M35.65,40.42c0.37,0.34,0.71,0.68,0.92,1.12
					c0.08,0.17,0.22,0.3,0.43,0.25c0.32-0.07,0.66-0.11,0.97-0.21c0.28-0.09,0.29-0.29,0.06-0.47
					C37.36,40.56,36.58,40.3,35.65,40.42z M31.1,40.86c-0.29-0.03-0.53-0.02-0.64,0.33c-0.06,0.19-0.23,0.35-0.35,0.52
					c-0.09,0.12-0.19,0.24-0.08,0.4c0.11,0.15,0.29,0.28,0.47,0.2c0.34-0.15,0.69-0.2,1.05-0.25c0.47-0.06,0.39-0.49,0.44-0.79
					c0.05-0.29-0.25-0.29-0.44-0.35C31.41,40.88,31.25,40.88,31.1,40.86z M28.97,47.57c0.41-0.04,0.77-0.07,1.1-0.1
					c0.15-0.26,0.04-0.51,0.08-0.74c0.01-0.09,0-0.18,0-0.27c-0.01-0.19-0.05-0.35-0.27-0.4c-0.48-0.11-0.84,0.12-0.9,0.6
					C28.95,46.93,28.97,47.2,28.97,47.57z M28.67,49.37c-1.48-0.25-2.6,0.58-3.07,2.05C26.61,50.23,27.76,49.86,28.67,49.37z
					 M37.88,49.34c0.23,0.21,0.45,0.2,0.66,0.23c0.47,0.07,0.65-0.1,0.65-0.59c0-0.3-0.21-0.43-0.47-0.26
					C38.44,48.89,38.19,49.1,37.88,49.34z M33.17,60.21c0.28,0.45,0.49,0.98,1.15,1.27C34.07,60.8,33.62,60.5,33.17,60.21z
					 M21.15,62.93c-0.03,0.05-0.09,0.1-0.08,0.14c0.05,0.21-0.14,0.51,0.21,0.6c0.08,0.02,0.22,0,0.25-0.04
					c0.12-0.23-0.1-0.38-0.16-0.57C21.34,62.97,21.26,62.92,21.15,62.93z M33.98,60.21c-0.16-0.33-0.28-0.69-0.73-0.99
					C33.38,59.76,33.65,60.01,33.98,60.21z M39.94,50.47c0.14-0.07,0.2-0.17,0.2-0.3c0-0.11,0.12-0.28-0.09-0.35
					C39.9,50.03,39.79,50.23,39.94,50.47z M26.31,46.07c0.06-0.03,0.17-0.06,0.2-0.12c0.06-0.18-0.11-0.17-0.21-0.18
					c-0.08,0-0.22,0.03-0.23,0.07C26.05,45.98,26.16,46.04,26.31,46.07z"/>
				<g>
					<g>
						<path d="M52.17,72.51c-0.43,0.07-0.82,0.15-1.26,0.16c-0.57,0.02-1.11,0.12-1.63,0.33c-0.82,0.33-1.55,0.89-2.32,1.32
							c-1.05,0.59-2.65,1.29-3.66,0.21c-0.6-0.65-0.96-1.75-0.97-2.64c0-0.13-0.2-0.13-0.2,0c0,0.9,0.32,1.93,0.88,2.63
							c0.67,0.84,1.88,0.92,2.84,0.56c1.06-0.41,1.96-1.1,2.95-1.64c0.66-0.36,1.36-0.55,2.11-0.58c0.47-0.02,0.85-0.15,1.29-0.27
							C52.26,72.59,52.23,72.5,52.17,72.51L52.17,72.51z"/>
					</g>
				</g>
				<path d="M49.48,66.97c-0.39-0.56-0.59-1.2-0.76-1.87c-0.35-1.4-1-2.64-2.09-3.65c-0.84-0.77-1.84-1.17-2.9-1.43
					c-1.41-0.35-2.84-0.64-4.26-0.96c-0.15-0.03-0.3-0.01-0.43-0.13c-0.1-0.09-0.14-0.2-0.12-0.32c0.02-0.13,0.11-0.23,0.24-0.23
					c0.3,0,0.61-0.02,0.9,0.03c1.55,0.27,3.1,0.56,4.61,0.99c2.22,0.62,3.67,2.08,4.58,4.17c0.43,0.98,0.43,2,0.43,3.03
					C49.7,66.74,49.7,66.91,49.48,66.97z"/>
				<path d="M47.57,70.96c-1.07,0-2.12-0.08-3.13-0.45c-0.17-0.06-0.35-0.13-0.48-0.24c-0.15-0.12-0.16-0.32-0.09-0.5
					c0.07-0.18,0.23-0.15,0.39-0.13c0.21,0.03,0.42,0.05,0.63,0.11c1.85,0.5,3.72,0.43,5.58,0.11c0.32-0.05,0.63-0.2,0.94-0.33
					c0.25-0.11,0.5-0.21,0.78-0.21c0.16,0,0.3,0.05,0.35,0.22c0.04,0.12,0,0.24-0.1,0.33c-0.27,0.25-0.58,0.43-0.93,0.55
					C50.24,70.87,48.91,70.94,47.57,70.96z"/>
				<path d="M45.73,63.66c-0.12,0.9-0.59,1.71-0.66,2.64c0.4-0.55,0.58-1.23,1.12-1.69c-0.36,0.91-0.56,1.85-0.78,2.79
					c-0.08,0.35-0.26,0.22-0.63,0.09c-0.71-0.24-0.45-0.62-0.28-1.02c0.35-0.86,0.54-1.79,0.99-2.62
					C45.54,63.75,45.56,63.63,45.73,63.66z"/>
				<path d="M45.25,62.13c-0.66,1.28-1.09,2.45-1.26,3.71c-0.02,0.15-0.07,0.32-0.27,0.27c-0.19-0.04-0.17-0.23-0.15-0.37
					c0.03-0.24,0.07-0.48,0.14-0.71c0.22-0.69,0.44-1.38,0.71-2.04C44.54,62.68,44.66,62.3,45.25,62.13z"/>
				<path d="M37.55,59.3c-0.06,0.31-0.13,0.62-0.18,0.93c-0.14,0.95-0.43,1.9-0.16,2.87c0.04,0.15,0.01,0.32-0.2,0.32
					c-0.14,0-0.19-0.13-0.22-0.25c-0.1-0.54-0.11-1.09-0.02-1.63C36.9,60.77,37.02,59.98,37.55,59.3z"/>
				<path d="M39.07,63.59c-0.52-1.07-0.32-2.56,0.43-3.55C39.21,61.21,39,62.38,39.07,63.59z"/>
				<path d="M44.01,61.61c-0.37,1.31-0.76,2.62-0.78,4C42.79,64.93,43.23,62.75,44.01,61.61z"/>
				<path d="M46.87,66.33c-0.28,0.67-0.39,1.37-0.57,2.06c-0.03,0.12-0.07,0.23-0.13,0.33c-0.06,0.1-0.15,0.2-0.3,0.14
					c-0.13-0.05-0.17-0.17-0.12-0.29c0.15-0.43,0.29-0.86,0.46-1.28c0.14-0.35,0.31-0.7,0.46-1.04
					C46.73,66.28,46.8,66.31,46.87,66.33z"/>
				<path d="M47.61,68.02c0.06,0.33,0.1,0.66-0.09,0.95c-0.04,0.06-0.15,0.11-0.22,0.1c-0.09-0.01-0.15-0.1-0.12-0.19
					C47.29,68.58,47.28,68.24,47.61,68.02z"/>
				<path d="M11.81,62.51c-0.51-1.3-1.03-2.51-1.38-3.89c0.73,0.52,0.44,1.44,1.13,1.98c-0.12-0.75-0.23-1.39-0.34-2.04
					c0.04-0.01,0.07-0.03,0.11-0.04c0.14,0.39,0.31,0.76,0.41,1.16c0.26,1,0.6,1.97,1.1,2.88c0.12,0.22,0.21,0.51-0.27,0.34
					c-0.25-0.09-0.43,0.06-0.64,0.21c-0.69,0.46-1.25,0.37-1.82-0.23c-0.87-0.93-1.26-2.06-1.37-3.3c-0.09-1.04,0.02-2.05,0.41-3.03
					c0.28-0.7,0.47-1.44,0.71-2.16C9.91,54.2,10,54,10.22,54.03c0.31,0.04,0.25,0.29,0.24,0.5c-0.04,0.61-0.18,1.21-0.41,1.77
					c-0.49,1.2-0.36,2.34,0.11,3.52c0.31,0.76,0.61,1.51,1.03,2.21C11.31,62.22,11.41,62.45,11.81,62.51z"/>
				<path d="M16.15,57.81c-1.43-0.08-2.67-0.13-3.91-0.22c-0.37-0.03-0.85,0.06-1-0.43c-0.09-0.28,0.36-0.44,1.05-0.38
					c1.27,0.11,2.54,0.21,3.82,0.17c0.64-0.02,1.27,0.07,1.87,0.32c0.15,0.06,0.24,0.18,0.19,0.35c-0.04,0.14-0.17,0.16-0.29,0.16
					C17.24,57.73,16.6,57.77,16.15,57.81z"/>
				<path d="M8.55,63.97c0.32,0.21,0.57,0.37,0.81,0.55c0.07,0.05,0.13,0.13,0.06,0.23c-0.07,0.12-0.18,0.17-0.3,0.11
					c-1.02-0.53-1.88-1.24-2.23-2.37c-0.12-0.38,0.03-0.83-0.21-1.23c0.44,0.36,0.67,0.88,1.08,1.24c0.34,0.3,0.6,0.67,0.99,0.92
					C9.25,63.72,8.75,63.78,8.55,63.97z"/>
				<path d="M8.21,62.06C7.4,61.63,7,60.86,6.63,60.08c-0.03-0.07-0.05-0.22-0.01-0.25c0.46-0.34,0.17-0.73,0.07-1.12
					c0.6,0.47,0.75,1.23,1.3,1.75c-0.48-0.05-0.48-0.05-0.86-0.5C7.14,60.4,7.17,60.38,7.56,61C7.78,61.35,8.2,61.56,8.21,62.06z"/>
				<path d="M14.13,59.26c0.4,1.22,0.64,2.31,1.15,3.31C14.56,62.07,13.96,60.37,14.13,59.26z"/>
				<path d="M10,65.23c-0.82,0.54-1.48,0.31-2.14,0.03c-0.41-0.18-0.61-0.47-0.43-0.98c0.46,0.11,0.61,0.61,1.08,0.73
					C8.95,65.12,9.41,64.99,10,65.23z"/>
				<path d="M13.35,62.2c-0.65-0.98-1.09-2.03-1.02-3.24C12.75,60.02,13,61.12,13.35,62.2z"/>
				<path d="M15.19,59.59c0.38,0.84,0.8,1.66,0.87,2.59C15.51,61.41,15.16,60.56,15.19,59.59z"/>
				<path d="M13.99,61.94c-0.5-0.94-0.88-1.92-0.85-3.03c0.34,0.98,0.68,1.97,1.02,2.95C14.1,61.89,14.04,61.92,13.99,61.94z"/>
				<path d="M16.62,60.08c0.19,0.6,0.39,1.2,0.65,1.99C16.72,61.38,16.34,60.85,16.62,60.08z"/>
				<path d="M17.88,60.39c0.12,0.37,0.25,0.74,0.37,1.1c-0.39-0.27-0.54-0.64-0.58-1.04C17.74,60.43,17.81,60.41,17.88,60.39z"/>
				<path d="M6.89,57.34c0.25,0.02,0.31,0.12,0.34,0.24c0.05,0.18,0.22,0.43-0.11,0.49c-0.23,0.04-0.25-0.2-0.27-0.37
					C6.83,57.59,6.87,57.47,6.89,57.34z"/>
				<path d="M7.4,55.9c-0.1-0.03-0.16-0.1-0.14-0.19c0.04-0.15,0.14-0.26,0.3-0.26c0.1,0,0.14,0.09,0.12,0.18
					C7.65,55.79,7.55,55.88,7.4,55.9z"/>
				<path d="M26.86,57.38c-1.06,0-2.12,0-3.18,0c-0.12,0-0.25,0.01-0.36-0.03c-0.11-0.04-0.2-0.13-0.2-0.27
					c0-0.13,0.05-0.26,0.16-0.29c0.29-0.08,0.59-0.18,0.88-0.18c1.99-0.02,3.99-0.12,5.98,0.19c0.21,0.03,0.42,0.06,0.63,0.1
					c0.18,0.03,0.39,0.09,0.35,0.32c-0.03,0.16-0.21,0.18-0.37,0.19c-1,0.07-1.99,0.1-2.99,0.05c-0.3-0.02-0.6,0-0.91,0
					C26.86,57.42,26.86,57.4,26.86,57.38z"/>
				<path d="M23.31,62.34c0.09,0,0.23-0.03,0.25,0.01c0.33,0.64,0.66,1.29,0.97,1.94c0.03,0.07-0.02,0.18-0.03,0.27l0.02-0.02
					c-0.55,0.02-0.87-0.27-1.13-0.74c-0.64-1.16-1.19-2.36-1.55-3.64l0,0c0.22,0.02,0.3,0.19,0.33,0.37
					c0.11,0.77,0.66,1.35,0.83,2.1c0.06,0.27,0.2,0.5,0.57,0.54C23.64,62.82,23.48,62.58,23.31,62.34L23.31,62.34z"/>
				<path d="M24.43,60.3c0.34,1.57,0.9,3.04,1.91,4.33C24.96,63.51,24.58,61.95,24.43,60.3z"/>
				<path d="M28.97,63.21c-0.23,0.03-0.31-0.13-0.38-0.3c-0.3-0.75-0.48-1.52-0.68-2.3c0.06-0.02,0.12-0.04,0.18-0.06
					c0.29,0.89,0.58,1.78,0.86,2.67L28.97,63.21z"/>
				<path d="M28.08,64.07c-0.7-0.67-1.02-1.52-1.19-2.45C27.28,62.44,27.68,63.26,28.08,64.07z"/>
				<path d="M23.32,62.33c-0.11-0.53-0.21-1.06-0.34-1.58c-0.09-0.39-0.09-0.77,0.01-1.17C23.08,60.5,23.6,61.37,23.32,62.33
					C23.31,62.34,23.32,62.33,23.32,62.33z"/>
				<path d="M25.33,61.43c0.15-0.03,0.3-0.04,0.36,0.14c0.11,0.29,0.22,0.59,0.37,1.01C25.5,62.3,25.59,61.75,25.33,61.43
					L25.33,61.43z"/>
				<path d="M29.77,62.43c0.56,0.25,0.5,0.83,0.71,1.26c-0.4-0.34-0.59-0.79-0.69-1.28L29.77,62.43z"/>
				<path d="M28.95,63.23c0.11,0.29,0.39,0.51,0.41,0.87c-0.42-0.32-0.42-0.32-0.39-0.89C28.97,63.21,28.95,63.23,28.95,63.23z"/>
				<path d="M21.85,60.15c0.03-0.41-0.13-0.82,0.05-1.25C21.89,59.34,22.06,59.75,21.85,60.15C21.85,60.16,21.85,60.15,21.85,60.15z
					"/>
				<path d="M24.5,64.56c0.25,0.16,0.67,0.18,0.52,0.71c-0.3-0.17-0.41-0.44-0.49-0.73C24.53,64.53,24.5,64.56,24.5,64.56z"/>
				<path d="M26.54,60.43c0.03,0.01,0.06,0.02,0.08,0.04c0.09,0.14,0.06,0.29,0.05,0.44c-0.01,0.1-0.06,0.11-0.08,0.03
					c-0.04-0.14-0.06-0.29-0.09-0.44C26.49,60.48,26.52,60.45,26.54,60.43z"/>
				<path d="M29.79,62.41c-0.13-0.21-0.22-0.42-0.25-0.85c0.32,0.37,0.25,0.62,0.24,0.87C29.77,62.43,29.79,62.41,29.79,62.41z"/>
				<path d="M26.64,63.77c-0.04,0.05-0.1,0.06-0.14,0c-0.04-0.04-0.08-0.11-0.07-0.14c0.04-0.12,0.13-0.09,0.19-0.02
					C26.64,63.64,26.63,63.71,26.64,63.77z"/>
				<path d="M25.33,61.43c-0.01-0.24-0.03-0.47-0.04-0.75C25.47,60.96,25.37,61.19,25.33,61.43C25.33,61.43,25.33,61.43,25.33,61.43
					z"/>
				<path d="M50.27,54.92c-0.56-0.01-1.03-0.21-1.46-0.49c-0.3-0.2-0.58-0.29-0.92-0.08c-0.33,0.21-0.69,0.29-0.98-0.06
					c-0.33-0.41-0.6-0.85-0.39-1.41c0.1-0.27,0.33-0.43,0.55-0.6c0.46-0.35,0.72-0.34,1.02,0.17c0.51,0.86,1.32,1.26,2.18,1.63
					c0.06,0.02,0.11,0.05,0.17,0.07c0.25,0.12,0.56,0.22,0.45,0.57C50.79,55.03,50.47,54.89,50.27,54.92z"/>
				<path d="M30.04,50.78c-0.61,0.52-1.39,0.79-2,1.32c-0.09,0.08-0.24,0.09-0.33-0.01c-0.13-0.16-0.02-0.29,0.1-0.38
					C28.47,51.22,29.18,50.86,30.04,50.78z"/>
				<path d="M30.75,51.4c-0.42,0.22-0.42,0.26-0.88,0.52c-0.11,0.06-0.25,0.01-0.31-0.11c-0.07-0.13,0.01-0.26,0.11-0.3
					c0.48-0.27,1.24-0.53,1.96-0.66C31.5,50.98,30.91,51.34,30.75,51.4z"/>
				<path d="M35.51,56.58c0.14,0.01,0.23,0.12,0.25,0.27c0.01,0.09-0.06,0.18-0.15,0.19c-0.2,0.03-0.22-0.14-0.25-0.28
					C35.33,56.68,35.37,56.6,35.51,56.58z"/>
				<path d="M35.9,55.42c0.14,0.04,0.22,0.11,0.24,0.23c0.01,0.04-0.02,0.12-0.06,0.14c-0.13,0.05-0.22-0.01-0.23-0.15
					C35.85,55.57,35.88,55.49,35.9,55.42z"/>
			</g>
		</g>
	</g>
	<path d="M0.02,0v1.6v96.8v1.6h60v-1.6V1.6V0H0.02z M59.02,98.4h-58V1.6h58V98.4z"/>
	<g>
	</g>
	<g>
	</g>
	<g>
	</g>
	<g>
	</g>
	<g>
	</g>
	<g>
	</g>
	<g>
	</g>
	<g>
	</g>
	<g>
	</g>
	<g>
	</g>
	<g>
	</g>
	<g>
	</g>
	<g>
	</g>
	<g>
	</g>
	<g>
	</g>
	<g>
	</g>
	<g>
	</g>
</g>
</svg>
