<?xml version="1.0" encoding="utf-8"?>
<!-- Generator: Adobe Illustrator 26.2.1, SVG Export Plug-In . SVG Version: 6.00 Build 0)  -->
<svg version="1.1" xmlns="http://www.w3.org/2000/svg" xmlns:xlink="http://www.w3.org/1999/xlink" x="0px" y="0px"
	 viewBox="0 0 60 100" enable-background="new 0 0 60 100" xml:space="preserve">
<symbol  id="chest" viewBox="-44.85 -55.48 108.74 112.9">
	<g>
		<path fill="#007871" d="M-0.61-18.75c-0.48-1.05-0.29-3.04-0.45-4.21c-0.17-1.21-0.37-2.41-0.59-3.61
			c-0.14-0.77-1.38-0.93-1.71-0.22c-0.96,2.08-1.89,4.14-3.15,6.06c-0.81,1.24-1.64,2.4-2.15,3.77c-1.05,0.05-2.05,0.26-3.1,0.8
			c-1.16-0.43-1.96-1.1-2.12-2.08c-0.85-5.15-1.08-30.92-0.32-31.04c2.56,0.15,13.53-0.13,15.74-0.72c0.33,0.15,1.27-1.39,1.35-1.03
			c0.76,3.29,1.15,11.81,1.24,16.27c0.12,5.5,0.29,10.78,0.65,16.28c0.05,0.71,0.01,1.21-0.1,1.57C2.8-17.55,0.41-16.51-0.61-18.75z
			"/>
		<path fill="#007871" d="M51.97-13.07c0.04,0.28-0.78,6.04-0.74,6.32c0.08,0.59-4.88-1.16-3.07-2.63
			c2.21-1.78,1.13-17.93-0.25-15.13c-0.56,1.14-2.02,3.96-3.93,8.66c-1.17-3.7-3.76-4.11-3.76-4.11s-0.05-5.39-0.3-9.6
			c-0.22-3.72-0.6-17.94-0.65-18.38c-0.07-0.71,4.09,4.26,5.58,5.98c0.3,0.38,6.31,6.14,6.61,6.52c1.11,1.37,0.02,8.99,0,9.11
			C51.14-24.71,52.02-15.86,51.97-13.07z"/>
		<path fill="#007871" d="M30.54-20.04c-0.29,0.48-1.56,1.06-3.29,1.57c0.31-0.47,0.12-1.21-0.51-1.42
			c-3.84-1.3-8.11,0.52-11.54,2.26c-0.7-0.3-1.16-0.74-1.25-1.36c-0.57-3.98-0.61-20.82-0.5-24.87c0.08-2.83-1.14-8.53,0.31-8.26
			c1.61,0.21,4.01-0.2,5.64-0.5c0.85-0.16,1.68-0.27,2.5-0.41c0.31-0.02,0.62-0.05,0.93-0.07c0.07,0.24,0.27,0.43,0.62,0.45
			c0.93,0.04,4.1-0.09,5.08-1.13c2.02,2.04,1.28,23.08,2.48,30.57C31.19-22.16,31.36-20.4,30.54-20.04z"/>
		<path fill="#007871" d="M-22.6-14.76c-0.01,0.05-0.06,0.1-0.1,0.15c-1.39-0.77-4.12-0.31-5.53,0.04c-2.27,0.03-4.54,0.3-6.82,0.65
			c-0.34,0.05-0.53,0.24-0.61,0.47c-0.43-0.02-0.84-0.05-1.2-0.08c-1.71-0.15-0.73-6.14-0.55-10.19c0.19-4.33,0.08-8.58,0.96-12.82
			c0.68-3.24,0.31-7.05,0.03-9.44c1.98,0.04,6.83-0.37,8.8-0.61c1.5-0.18,3.57,0.29,5.66-1.48C-18.9-50.66-22.43-15.92-22.6-14.76z"
			/>
		<path fill="#007871" d="M60.17,26.93c-0.37,0.57-1.45,0.77-1.99,0.98c-1.54,0.6-7.24,2.57-7.26,2.55
			c-0.18-0.03-1.52-2.21-1.53-2.21c-2.13-0.02-15.99,0.92-15.9,0.75c4.12-7.66-4.62-9.54-4.64-9.53c-1.64-1.25,0.26-4.3,0.02-5.33
			c-0.19-0.81-4.07,2.84-0.78,8.16c1.01,1.63-1.15,5.32-2.62,6.81c-0.48,0.49-9.49-0.18-9.49-0.18c-0.51-1.21-0.02-2.04-1.91-5.38
			c-0.25-0.45-2.66-1.08-2.89-1.53c-0.44-0.7-3.16-1.52-3.5-2.3c-0.11-0.25-4.74-3.87-5.97-5.71C4.8,11.49,3.77,2.75,3.97,2.76
			c-0.03-0.18,6.83-1.59,7.06-1.3c0.34,0.42,0.67,0.84,1.01,1.26c3.87,2.79,17.91,10.44,26.21-3.7c1.54-2.62,11.12-3.3,9.14-0.64
			c-2.13,2.86-5.85,2.38-5.2,3.87c0.4,0.92,0.89,2.33,1.43,4.01c3.07-2.51,9.29-5.77,10.02-6.24c0.33-0.21,0.77,0.43,0.77,0.8
			c0.05,2.71,1.14,5.68,2.06,8.22c0.1,0.28-6.01,2.54-6.01,2.54c0,0-3.12,1.61-4.72,2.13c0.89,3.18,1.75,6.39,2.41,8.98
			c0.16-0.14,0.37-0.24,0.64-0.24c3.2-0.02,6.16-0.97,9.16-1.99c0.63-0.21,1.25,0.35,1.27,0.96c0.03,1.58,0.76,2.67,1.07,4.13
			C60.4,26.08,60.48,26.45,60.17,26.93z"/>
		<path fill="#007871" d="M2.31,27.7c-0.05,0.55-0.77,0.64-0.96,0.21c-0.23,0.02-0.47,0-0.68-0.07c-0.2-0.06-0.39-0.26-0.37-0.48
			c0.15-1.85,0.17-3.69,0.04-5.54c-0.03-0.48,0.73-0.71,0.93-0.25C2.13,23.53,2.49,25.57,2.31,27.7z"/>
		<path fill="#007871" d="M-21.16,2.64c-0.1,0.46-0.33,0.89-0.46,1.34c-0.22,0.76-0.27,1.53-0.22,2.31
			c0.04,0.59-0.81,0.64-0.98,0.13c-0.52-1.52-0.99-3.06-1.4-4.62c-0.09-0.34,0.16-0.57,0.43-0.61c0.07-0.28,0.35-0.48,0.71-0.31
			c0.72,0.36,1.6,0.23,1.88,0.85C-20.79,1.92-20.84,2.47-21.16,2.64z"/>
	</g>
	<g>
		<path fill="#FFFCDF" d="M44.04,5.23c-0.4,0.33-0.94-0.07-0.85-0.46c-0.19,0-0.37-0.11-0.45-0.34c-0.33-0.98-0.37-1.77-0.22-2.78
			c0.04-0.27,0.38-0.41,0.62-0.35c0.24,0.06,5.19-3.06,7.62-4.3c0.19-0.1,0.45-0.09,0.61,0.08c0.71,0.79,1.62,1.13,2.66,1.04
			c0.47-0.04,0.74,0.9,0.48,1.2C53.55,0.39,44.7,4.68,44.04,5.23z"/>
		<path fill="#FFFCDF" d="M48.23,22.43c-0.52,0.01-0.79-1.18-0.41-1.42c-0.71-1.73-1.54-5.3-1.55-5.3
			c-0.25,0.02-0.39-0.97-0.28-1.16c-0.54-0.29-0.05-1.13,0.52-0.85c0.14,0.07,5.11-1.9,5.7-2.22c1.16-0.62,3.96-1.92,3.96-1.92
			s1.34-0.71,1.63,0c0.59-0.02,0.7,2.16,0.67,2.24c0.13,0.68,0.49,1.47,0.64,2.14c0.18,0.83,0.53,1.54,0.48,2.4
			c-0.04,0.81,0.89,1.88,0.2,2.4C57.06,20.85,51.54,22.35,48.23,22.43z"/>
		<path fill="#FFFCDF" d="M-22.44,8.4c-0.08,0.98,1.88,6.38,1.29,7.26c-0.27,0.39-1.08,3.51-1.45,3.81
			c-0.79,0.66-2.84-6.09-3.75-5.93c-0.16-2.35-3.29-9.06-2.85-9.41c0.39-0.31,4.46-2.88,4.46-2.88c0.99,1.65,1.8,5.27,2.33,7.02
			C-22.42,8.31-22.44,8.35-22.44,8.4z"/>
		<path fill="#FFFCDF" d="M-2.03,28.21c0.7,0.05,4.72,1.86,8.69,5.22c-0.41,2.53,4.14,4.8-4.73,2.99c-0.68-0.03-1.51,0.24-2.27,0.28
			c0.1-1.55-0.77-2.72-0.76-4.28C-1.09,31.28-2.44,29.33-2.03,28.21z"/>
		<path fill="#FFFCDF" d="M-35.38,17.98c0.45,2.5,0.65,3.89,0.18,6.14c-0.33,1.57-0.91,3.62-1.79,4.79c-2,2.26-9.82,9.75-5.88,14.69
			c0.51,0.64-0.82-4.73,2.93-7.5c3.23-2.38,7.93-4.92,9.57-5.9c2-2.09,2.28-3.44,2.76-6.11c0.07-0.39,0.47-2.08,0.98-3.92
			c0.83-1.42,1.08-2.02,2.35-3.49c0.24-0.01,1.54-1.18,2.67-0.71c-0.05,1.47-1.32,4.36-2.03,5.93c0.04,0.05-2.27,9.61-2.32,9.66
			c-1.6,8.25,3.43,18.01,12.66,18.23c4.51,0.11,8.42-2.26,10.33-6.35c2.17-4.65,0.91-9.46,0.4-14.28c2.61,0.56,5.22,1.46,7.01,3.32
			c1.91,1.99,2.66,4.75,3.32,7.36c1.22,4.76,5.06,14.64,14.66,16.87c2.72,0.63,8.13-1.08,8.26-1.42c0.29-0.74-6.35,0.08-10.12-3.04
			c-9.81-8.11-4.55-15.33-4.65-21.03c-0.07-4.11-1.02-5.48-3.9-8.46c-1.25-1.3-3.97-2.79-5.78-3.93c-1.4-0.35-2.57-1.23-3.42-2.58
			c-0.42-0.67-0.96-1.46-1.12-2.24c-0.22-1.1,0.59-1.98,0.85-2.99c0.04-0.15,0.13-0.24,0.23-0.29C3.06,6.8,3.39,0.08,4.81-2.88
			c0.17,0.18,0.3,0.33,0.42,0.47c0.09-0.43,0.33-0.82,0.76-1.04C7-3.99,7.2-5.21,7.52-6.2c0.13-0.41,0.23-1.09,0.1-1.44
			c-0.3-0.81-1.13-2.58-0.44-2.94C5.77-11.1,9-17.14,9-17.14c-1.45-0.58-5.41,0.12-6.96-0.44c-1.1-0.4-2.31-0.88-2.31-0.89
			l-0.43-2.3c-0.57-3.55-0.93-5.57-0.96-5.81c-0.47-4.3-5.41,5.74-5.48,6.02c-0.58-0.05-1.72,3.64-1.78,3.61
			c-2.36-1.22-1.87,0.14-3.09,0.43c-3.3,0.78-4.78,2.52-5.74,3.54c-1.33,1.41-2.3,2.96-3.17,4.68c-1.52,3.04-1.98,5.1-2.7,8.4
			c-0.75,3.44-3.68,5.6-6.23,7.88c-2.33,2.09-3.84,2.75-4.88,4.99c-0.68,0.38-0.63,2.52-0.88,3.36
			C-35.75,16.8-35.4,17.68-35.38,17.98z"/>
		<path fill="#FFFCDF" d="M23.76,34.28c0.22,1.38,0.81,2.59,1.56,3.73c-4.71,0.24-9.99,0.19-14.66-0.33
			c-1.05-0.94-0.81-3.54-0.61-4.72c0.25-1.48,0.97-3.13,2.11-4.24c2.43,0.01,4.78,0.41,7.24,0.4c1.97,0,3.22,0.26,4.99,0.24
			C23.88,30.95,23.48,32.56,23.76,34.28z"/>
		<path fill="#FFFCDF" d="M34.79,33.75c0.22,0.26,0.27,0.04,0.43-0.21c2.15-3.34,3.31-0.66,4.93-1.38c1.19-0.52,2.37-1.48,3.92-1.56
			c1.45-0.07,1.79,0.81,2.78,1.8c0.92,0.93,1.54,2.18,2.81,2.72c0.84,0.35,1.66,0.22,2.48,0c-0.76,0.91-2.57,1.52-3.67,1.45
			c-1.33-0.08-2.97-1.44-4.26-1.71c-1.98-0.41-3.35,1.09-3.96,2.9c-0.09,0.26,0.1,0.55,0.35,0.62c1.1,0.3,2.23,0.46,3.36,0.54
			c0.66,0.11,1.3,0.24,1.67,0.53c1.46,1.12,2.58,2.81,3.06,4.59c0.17,0.62,0.22,1.24,0.3,1.85c0.6,4.56,7.89,2.36,8.61,7.73
			c-2.07-3.07-6.56-2.11-9.21-3.71c-0.7,1.15-2.23,2.67-3.58,3.32c-3.69,1.78-7.23,0.67-9.29-2.79c-2.21-3.73-2.98-8.1-8.24-11.35
			c-0.1,0.01-0.18,0.01-0.26,0c0.06-0.12,0.06-0.27-0.05-0.42c-1.13-1.51-2.15-3.11-2.32-5.04c-0.16-1.8,0.5-3.51,1.06-5.2
			c1.06-1.4,3.24-3.17,2.58-5.05c-0.44-0.56-3.13-6.07,0-8.91c-1.11,8.12,5.77,4.23,6.5,9.92c0.12,0.92-0.75,3.02-1.35,4.12
			C31.85,30.39,33.27,31.99,34.79,33.75z"/>
		<path fill="#FFFCDF" d="M62.73,32.63c0.03,0.29-0.3,0.36-0.5,0.5c-2.19,1.46-5.91,3.9-9.49,4.59c-0.02,0-0.23-0.52-0.25-0.55
			c-0.02,0.06-0.03,0.15-0.08,0.15c-1.11,0.14-3.15,0.35-5.34,0.55c-0.01,0-0.01,0-0.02,0c-1.92,0.09-4.53,0.16-6.4-0.26
			c1.98-4.94,4.68-1.78,6.73-1.31c0.89,0.21,1.14,0.61,2.04,0.54c1.69-0.13,3.27-0.93,3.81-2.79c0.11-0.39,0.29-0.3-0.07-0.23
			c-1.77,0.37-3.58,1.27-5.05-0.1c-0.65-0.61-1.01-1.79-1.73-2.34c-1.21-0.93-1.32-1.44-2.83-1.16c-0.78,0.15-1.95,0.96-2.62,1.31
			c-1.29,0.67-2.37-0.38-3.67-0.28c-1.02,0.08-1.93,1.76-2.48,2.49c-0.94-1.02-2.69-3.31-1.31-4.75c1.15,0.02,3.45,0.03,4.35-0.06
			c1.86-0.18,3.62-0.18,5.54-0.09c1.72-0.11,4.53-0.54,6.2-0.59c0.53-0.02,0.59,1.09,1.09,2.31c3.22-0.67,7.23-2.12,10.05-3.83
			c0.27-0.16,0.92,0.81,1,1.12c0.21,0.85,0.75,1.99,1.02,2.81c0.12,0.05,0.13,0.22,0.17,0.38C63.11,31.84,62.64,31.82,62.73,32.63z"
			/>
		<path fill="#FFFCDF" d="M48.2-9.01c-0.75,1.26-2.31,1.98-3.74,1.79c-1.11-0.15-2.06-0.67-2.89-1.39c-0.2,1.2-0.47,2.31-0.74,3.21
			C37.75,5,28.8,9.6,18.4,6.21c-4.13-1.35-7.74-3.64-9.21-7.83C8.33-4.08,7.43-5.81,7.11-8.4c-0.13-1.05,0.29-5.64,0.71-5.98
			c-0.25-1.15,0.79-2.23,1.63-2.91c0.04-0.04,5.32-1.04,5.77-1.23c4.53-1.95,11.52-2.37,16.32-1.5c-0.23-0.04,2.99,0.87,3.22,1.28
			c0.44-0.26,1-0.71,1.34-0.8c0.73-0.21,1.46-0.22,2.14-0.04c1.26-0.45,3.33,0.45,6.07,4.12c0-0.01,0.82-3.11,0.82-3.11
			c1.23-4.33,3.13-7.32,3.33-6.07c0.25,1.58,1.34,11.21,1.17,12.81C49.51-10.83,48.73-9.91,48.2-9.01z"/>
	</g>
	<path fill="#FFFCDF" d="M-24.9-31.97c0.14,0.37,0.24,0.75,0.25,1.16c0.02,0.82-0.21,1.71-0.64,2.49c-0.03,0.19-0.06,0.37-0.09,0.55
		c-0.48,2.51-1.32,4.78-4.09,5.3c-1.59,0.3-3.46-1.16-3.52-2.79c-0.01-0.26,0-0.51,0.01-0.75c-0.04-0.02-0.08-0.04-0.13-0.07
		c-0.03-0.02-0.05-0.03-0.08-0.05c-0.01-0.04-0.01-0.08-0.03-0.12c-0.1-0.24-0.21-0.47-0.33-0.7c-0.17-0.47-0.36-0.93-0.54-1.43
		c-0.27-0.76-0.63-2.02-0.29-2.8c0.17-0.39,0.82-0.73,1.1-1.09c0.71-0.88,1.26-2.59,2.07-3.52c0.72-0.27,1.49-0.35,2.24-0.26
		c0.19,0.13,0.39,0.28,0.6,0.49C-27.46-34.68-26.44-31.92-24.9-31.97z M15.2-35.11c0.05-0.9,0.46-1.77,1.32-2.36
		c0.4-0.27,0.84-0.47,1.3-0.61c0.12-0.68,0.31-1.35,0.66-1.95c0.75-1.3,2-2.2,3.57-1.96c0.33,0.05,0.65,0.16,0.95,0.31
		c0.01,0.01,0,0.02,0.01,0.03c0.78,1.48,1.27,3.3,3.03,3.89c0.15,0.05,0.28,0.05,0.41,0.02c0.57,0.94,0.69,2.18,0.25,3.15
		c-0.13,0.3-0.4,0.85-0.72,1.29c0,0.02,0.01,0.04,0.01,0.06c0.03,0.15,0.05,0.31,0.05,0.46c-0.35,1.3-0.55,2.57-1.62,3.57
		c-0.69,0.64-2.45,2.1-3.45,1.6c-0.3-0.15-0.57-0.09-0.77,0.06c-0.23-0.1-0.46-0.22-0.68-0.37c-1.11-0.77-1.83-1.98-1.5-3.36
		c0.01-0.05,0.03-0.09,0.04-0.14c-0.01,0-0.02,0-0.03,0c-0.17-0.03-0.32-0.06-0.48-0.11c0.02-0.13,0.02-0.28-0.06-0.44
		c-0.58-1.17-1.31-2.24-2.27-3.13C15.21-35.1,15.21-35.1,15.2-35.11z M-13.78-29.18c0.37-0.26,1.22-0.21,1.24-0.22
		c3.36-0.26,4.13-2.76,4.93-5.65c0.02-0.06,0.06-0.12,0.07-0.17c0.88-0.54,1.95-0.69,2.94-0.46c0,0.02,0,0.03,0,0.04
		c0,0.15,1.42,1.75,2.01,2.53c0.53,0.7,0.83,1.63,1.6,2.14c1.33,0.88,3.59,0.37,4.84-0.38c0.26-0.15,0.3,5.45,0.21,5.47
		c-2.64,0.52-4.77,1.13-6.56-1.39c-0.57-0.8-1.71,0.03-2.82,0.04c-0.8,0.01-1.46,0.28-1.96,0.9c-0.38,0.48-0.37,0.86-0.69,1.24
		c-1.15,1.38-3.64,1.19-5.33,1.15c-0.13,0-0.25,0.02-0.35,0.07C-14.93-25.05-15.48-27.99-13.78-29.18z"/>
	<path fill="#FFFCDF" d="M30.14-28.58c-0.15-2.98,0.1-5.93-0.28-8.9c-0.11-0.89-0.43-8.04-0.41-8.31c0.11-2.07-0.61-7.72-0.61-7.75
		c0.55-1.02,6.39-1.6,8.58,0.36c-0.04,0.15,1.14,3.42,1.89,4.77c0.15,4.51,0.3,9.65,0.42,14.16c0.11,4.09,0.28,9.15,0.45,13.23
		c-0.78,1.3-1.9,0.74-3.54,1.47c-1.67,0.74-3.72,0.78-5.1-0.48C31.15-21.36,30.15-28.41,30.14-28.58z M-43.61-12.03
		c0.39-2.95,0.67-7.21,0.43-10.24c0.11-3.9-0.35-6.6-0.23-10.5c0.11-3.28,0.74-6.75,0.49-10.04c0.06-0.14,0.11-0.27,0.18-0.41
		c1.09-2.27,4.56-3.9,6.59-2.62c-0.22,4.46-0.82,13.19-1.34,19.48c-0.39,4.74,0.13,9.4,0.05,14.15
		C-37.59-12.07-43.56-11.83-43.61-12.03z M13.97-18.38c-2.36,1.34-6.58,1.43-9.24,1.32c-0.1-2.02-0.41-6.5-0.68-8.53
		c0.07-0.1-0.13-11.16-0.61-16.59c-0.27-3.12,0.14-6.42-0.7-9.41c0.01-0.01,0.01-0.02,0.02-0.04c3.29-0.07,6.38-1.61,9.78-1.66
		c0.07,0.08,0.55,0.98,0.61,1.06c0.43,2.73,0.51,4.51,0.52,7.31c0.02,3.27-0.22,6.53-0.21,9.8c0,2.44,0.31,4.82,0.59,7.22
		c-0.05,1.66-0.14,3.31-0.25,4.94C13.73-21.76,13.96-19.51,13.97-18.38z M-23.36-15.29c0.11-0.18,0.2-0.36,0.28-0.53
		c0.28-0.06,0.53-0.26,0.61-0.63c0.44-1.96,0.26-3.99,0.22-5.99c0.14-0.98,0.18-1.97,0.06-2.96c0.1-2.87,0.22-5.75,0.39-8.62
		c0.29-4.87,0.36-9.68,0.27-14.41c2.15-0.08,4.56-0.56,6.4-1.23c0.11-0.04,0.28,0.09,0.61,0.28c1.6,5.26,0.52,11.86,0.38,17.79
		c-0.12,5.19,1.32,10.72,0.07,15.82c-0.31,0.17-0.62,0.34-0.94,0.51c-1.01,0.14-1.95,0.21-2.44,0.26c-1.92,0.2-3.82,0.19-5.73,0.37
		C-23.25-14.85-23.31-15.07-23.36-15.29z"/>
	<g>
		<g>
			<path d="M19.73-42.48c-1.05,0.26-1.49,0.8-1.54,1.94c-0.05,1.28-0.44,2.15-1.71,2.84c-1.93,1.05-1.9,2.63-0.8,3.63
				c0.93,0.85,1.18,1.9,1.44,3.02c0.1,0.42,0.22,0.84,0.4,1.22c0.81,1.73,2.25,2.65,3.83,2.41c1.55-0.23,4.28-1.92,4.55-4.07
				c0.15-1.2,0.31-2.46,1.47-3.24c0.18-0.12,0.29-0.38,0.39-0.59c0.5-1,0.55-2.3-0.76-2.95c-0.47-0.23-0.9-0.57-1.43-0.63
				c-0.64-0.06-0.91-0.45-1.01-1.03c-0.05-0.33-0.06-0.67-0.14-0.99c-0.34-1.35-1.48-2.17-2.73-1.97
				C21.04-42.75,20.38-42.65,19.73-42.48z M23.39-40.17c0.16,0.55,0.17,1.14,0.48,1.65c0.35,0.57,0.63,1.13,1.54,0.88
				c0.6-0.17,1.08,0.34,1.32,0.87c0.23,0.51,0.09,1.17-0.4,1.41c-1.16,0.56-1.23,1.52-1.33,2.62c-0.22,2.18-1.44,3.56-3.22,3.89
				c-1.39,0.26-2.31-0.17-3.01-1.39c-0.29-0.51-0.46-1.06-0.54-1.63c-0.16-1.12-0.5-2.1-1.42-2.88c-0.71-0.61-0.61-1.01,0.12-1.65
				c0.18-0.16,0.37-0.32,0.59-0.4c1.31-0.43,1.63-1.51,1.79-2.69c0.22-1.57,0.6-1.92,2.23-2.08C22.46-41.66,23.09-41.19,23.39-40.17
				z"/>
			<path d="M-32.23-22.89c1.06,1.2,2.1,1.49,3.59,0.94c2.54-0.93,4.01-3.11,4.01-6.17c0-0.85,0.11-1.49,0.65-2.21
				c0.94-1.25,0.47-2.63-1.02-2.84c-1.42-0.2-1.94-1.08-2.41-2.14c-0.89-2-1.16-2.12-3.24-1.33c-0.09,0.03-0.18,0.08-0.27,0.1
				c-1.08,0.27-1.63,0.99-1.6,2.08c0.03,1.1-0.36,1.72-1.48,2.09c-1.5,0.5-1.94,2.27-0.8,3.37c0.69,0.67,1.04,1.3,0.94,2.07
				C-33.67-24.95-33.34-24.15-32.23-22.89z M-32.64-27.79c0-0.82,0.08-1.58-1-1.95c-0.69-0.24-0.58-1.01,0.12-1.38
				c0.25-0.13,0.52-0.24,0.79-0.34c0.97-0.35,1.42-0.97,1.38-2.07c-0.06-1.48,0.39-1.9,1.72-2.09c0.51-0.07,0.84,0.02,0.98,0.55
				c0.15,0.56,0.45,1.05,0.74,1.55c0.48,0.83,1.08,1.46,2.11,1.5c0.35,0.01,0.69,0.12,0.83,0.46c0.17,0.43-0.11,0.73-0.4,0.99
				c-0.18,0.16-0.39,0.28-0.55,0.45c-0.3,0.33-0.42,0.63-0.22,1.15c0.77,1.93-0.32,4.56-2.2,5.47c-1.5,0.73-2.51,0.47-3.47-0.89
				c-0.54-0.75-0.68-1.15-0.81-2.4C-32.63-26.93-32.64-27.36-32.64-27.79z"/>
			<path d="M-36.13-45.98c0.46,1.25,0.34,2.36,0.31,3.45c-0.17,5.49-0.68,13.61-1.02,19.09c-0.14,2.19-0.1,5.83-0.17,8.02
				c-0.02,0.58,0.15,1.57-0.6,1.54c-0.82-0.02-0.45-0.98-0.44-1.54c0.06-5.58,0.63-12.58,0.87-18.15c0.11-2.68,0.62-7.96,0.62-10.65
				C-36.59-44.72-36.62-45.34-36.13-45.98z"/>
			<path d="M36.19-50.44c0.66,0.43,0.63,1.02,0.72,1.58c0.35,2.32,0.37,4.67,0.42,7c0.11,4.74,0.53,9.46,0.79,14.19
				c0.07,1.19-0.11,2.32-0.34,3.47C36.73-32.9,36.55-41.64,36.19-50.44z"/>
			<path d="M-5.69-30.86c-0.13-0.69-0.59-1.9-0.66-1.99c0.1-0.2,0.46-0.12,0.75-0.16c0.24-0.04,0.71-0.19,0.72-0.01
				c-0.06,0.9-0.18,2-0.16,2.1c0.52,0.12,0.73,1.4-0.17,1.5c-0.53,0.11-0.78-0.27-0.82-0.69C-6.09-30.57-5.81-30.78-5.69-30.86z"/>
			<path d="M19.41-37.03c-0.01-0.38,0.12-0.58,0.5-0.5c0.13,0.03,0.24,0.14,0.36,0.22c0.39,0.27,0.6,0.83,1.1,0.86
				c0.59,0.04,0.57-0.68,0.93-0.95c0.25-0.19,0.49-0.32,0.75-0.09c0.21,0.19,0.18,0.48,0.02,0.64c-0.45,0.46-0.62,1.04-0.84,1.62
				c-0.34,0.88-0.68,0.92-1.3,0.23C20.35-35.64,19.79-36.29,19.41-37.03z"/>
			<path d="M24.03-33.04c-0.1,0.24-0.2,0.01-0.32-0.01c-0.87-0.32-1.18-1.06-0.75-1.34c0.3-0.2,0.73-0.12,0.91,0.19
				C24.1-33.81,24.09-33.51,24.03-33.04z"/>
			<path d="M19.4-32.65c-0.17,0.07-1.01-0.98-0.24-1.57c0.27-0.2,0.71-0.3,0.97,0.01C20.79-33.39,19.3-33,19.4-32.65z"/>
			<path d="M-29.72-31.09c0.46-0.13,0.34-0.57,0.55-0.81c0.17-0.21,0.36-0.3,0.61-0.21c0.25,0.09,0.43,0.29,0.38,0.54
				c-0.15,0.8-0.43,1.57-0.94,2.2c-0.32,0.39-0.8,0.27-1.13-0.08c-0.45-0.49-0.78-1.07-0.94-1.73c-0.06-0.24-0.05-0.49,0.17-0.64
				c0.27-0.17,0.53-0.09,0.76,0.14C-30.06-31.5-30-31.18-29.72-31.09z"/>
			<path d="M-28.52-27.95c0.07-0.4,0.25-0.75,0.69-0.74c0.31,0.01,0.67,0.22,0.66,0.59c-0.01,0.47-0.3,0.8-0.78,0.82
				C-28.39-27.25-28.43-27.64-28.52-27.95z"/>
			<path d="M-30.99-27.1c-0.41,0.03-0.66-0.19-0.68-0.54c-0.02-0.37,0.07-0.76,0.57-0.8c0.39-0.03,0.63,0.18,0.7,0.53
				C-30.32-27.46-30.65-27.26-30.99-27.1z"/>
		</g>
		<g>
			<path d="M-40.33-11.41c0,0.08,0,0.15,0,0.23c0,0.03-0.05,0.03-0.05,0c0-0.08,0-0.15,0-0.23C-40.37-11.43-40.33-11.43-40.33-11.41
				L-40.33-11.41z"/>
		</g>
		<g>
			<path d="M-33.23-4.78c0.03,0,0.03,0.05,0,0.05C-33.26-4.73-33.26-4.78-33.23-4.78L-33.23-4.78z"/>
		</g>
		<path d="M-30.85-2.76c-2.46-1.68-8.49-5.83-10.84-7.48c-1.16-0.56-1.72-0.37-1.97-1.1c-0.11-0.3,0.1-0.75,0.47-0.61
			c1.65,0.65,3.25,1.6,4.65,2.68c0.05,0.04,0.11,0.08,0.17,0.12c0.63,0.33,1.24,0.68,1.84,1.09c1.48,1.03,3.46,2.05,4.57,3.5
			C-31.72-4.22-30.54-2.54-30.85-2.76z"/>
		<g>
			<path d="M45.16-42.03c0.93,0.01,1.23,0.82,1.78,1.44c0.83,0.93,1.94,1.7,2.61,2.77c0.31,0.49-0.31,1.11-0.8,0.8
				c-0.93-0.58-1.65-1.63-2.4-2.43c-0.3-0.32-0.48-0.6-0.67-0.99c-0.15-0.31-0.35-0.93-0.64-1.15
				C44.87-41.72,44.9-42.03,45.16-42.03L45.16-42.03z"/>
		</g>
		<g>
			<path d="M48.93-37.63c0.06-0.05,0.13-0.11,0.19-0.16c0.18-0.15,0.41-0.2,0.63-0.08c1.31,0.7,2.03,2.14,2.2,3.57
				c0.31,2.61,0.26,5.39,0.32,8.02c0.14,6.26,0.65,12.94-0.49,19.13c-0.09,0.48-0.8,0.34-0.82-0.11c-0.23-5.68-0.08-11.42-0.1-17.11
				c-0.01-2.53-0.11-5.06-0.12-7.6c0-0.97,0.17-2.12-0.14-3.06c-0.33-1.01-1.26-1.51-1.68-2.41C48.88-37.51,48.88-37.59,48.93-37.63
				L48.93-37.63z"/>
		</g>
		<g>
			<path d="M51.07-3.53c-0.16-0.28-0.45-0.45-0.61-0.75c-0.17-0.33-0.27-0.73-0.28-1.09c-0.01-0.69,0.33-1.47,0.92-1.86
				c1.16-0.77,2.95-0.4,3.89,0.55c1.01,1.03,1.49,3.08,0.38,4.2c-1.41,1.42-3.09,0.9-4.43-0.3c-0.48-0.42,0.03-1.15,0.59-1.02
				c0.89,0.22,1.65,1.15,2.57,0.52c0.96-0.66,0.61-2.08-0.18-2.74c-0.59-0.49-1.76-0.74-2.4-0.23c-0.92,0.74-0.28,1.74-0.24,2.64
				C51.29-3.48,51.13-3.44,51.07-3.53L51.07-3.53z"/>
		</g>
		<g>
			<path d="M49.91-6.17c-0.48-1.21-0.8-1.51-1.5-2.59c-0.35-0.54-0.02-1.84,0.33-1.3c0.76,1.17,1.62,2.32,2.14,3.63
				C51.12-5.84,50.15-5.58,49.91-6.17L49.91-6.17z"/>
		</g>
		<g>
			<path d="M38.25-0.98c3.36-0.43,6.71-0.91,10.05-1.44c0.63-0.1,0.9,0.86,0.27,0.96c-3.43,0.54-6.87,1.03-10.31,1.48
				C37.61,0.1,37.62-0.9,38.25-0.98L38.25-0.98z"/>
		</g>
		<g>
			<path d="M3.97,1.8c1.62-0.04,5.83-0.5,7.44-0.56c0.64-0.02,0.64,0.98,0,1C9.79,2.31,8.66,2.09,7.07,2.39
				c-3.86,0.72-3.87,0.02-3.23,0L3.97,1.8z"/>
		</g>
		<g>
			<path d="M59.42,19.83c0.54,2.16,1.1,4.31,1.72,6.45c0.18,0.62-0.79,0.88-0.96,0.27c-0.62-2.14-1.19-4.29-1.72-6.45
				C58.3,19.47,59.26,19.2,59.42,19.83L59.42,19.83z"/>
		</g>
		<g>
			<path d="M54.94-0.21c0.74,3.26,1.44,6.53,2.14,9.8c0.14,0.63-0.83,0.9-0.96,0.27c-0.71-3.27-1.41-6.54-2.14-9.8
				C53.84-0.58,54.8-0.84,54.94-0.21L54.94-0.21z"/>
		</g>
		<g>
			<path d="M51.3-3.18c-2.79,2.2-6,3.75-9.11,5.43c-0.57,0.31-1.07-0.56-0.5-0.86c3.03-1.64,6.19-3.13,8.91-5.28
				C51.09-4.28,51.8-3.58,51.3-3.18L51.3-3.18z"/>
		</g>
		<g>
			<path d="M42.53,1.82c1.98,6.13,3.57,12.38,5.49,18.53c1.81,5.77,5.23,17.35,5.23,17.35l-0.96,0.27c0,0-3.42-11.58-5.23-17.35
				c-1.93-6.15-3.51-12.4-5.49-18.53C41.37,1.47,42.33,1.21,42.53,1.82L42.53,1.82z"/>
		</g>
		<g>
			<path d="M-28.45,3.53c0.51-0.39,2.27-1.44,2.85-1.93c0.33-0.28,0.91-0.25,0.58,0.03c-0.26,0.22-1.06,0.97-1.34,1.16
				c-0.25,0.18-2.46,1.53-2.47,1.84c0,0.19-0.96,0.71-0.91,0.1C-29.74,4.73-29.82,4.58-28.45,3.53z"/>
		</g>
		<g>
			<path d="M-28.74,4.73c0.19,0.48,0.15,0.39,0.4,1.06c0.23,0.6-0.42,1.55-0.62,0.94c-0.05-0.15-0.05,0.19-0.74-1.74
				C-29.92,4.39-28.98,4.14-28.74,4.73L-28.74,4.73z"/>
		</g>
		<g>
			<path d="M-23.8,17.52c0.19,0.48,0.15,0.39,0.4,1.06c0.23,0.6-0.42,1.55-0.62,0.94c-0.05-0.15-0.05,0.19-0.74-1.74
				C-24.98,17.18-24.04,16.93-23.8,17.52L-23.8,17.52z"/>
		</g>
		<g>
			<path d="M-1.69-26.24c-0.43-0.21-1.09-0.64-1.09-0.64C-2.83-27-2.88-27.1-2.93-27.2C-2.44-27.56-2.09-27.27-1.69-26.24z"/>
			<path d="M45.7-40.22c-0.01-0.01-0.02-0.02-0.03-0.03c-1.45-1.41-2.66-3.01-3.9-4.6c-0.32-0.42-0.66-0.82-1.01-1.21
				c-0.36-0.39-0.56-0.94-1.21-1.32c0.05,0.76,0.02,1.33,0.13,1.88c0.53,2.64,0.53,5.33,0.66,8c0.18,3.54,0.07,7.09,0.4,10.63
				c0.11,1.24,0.08,3.94,0.13,5.18c0.01,0.36,0.02,0.73-0.41,0.79c-0.45,0.06-0.52-0.33-0.57-0.67c-0.03-0.19-0.02-1.83-0.03-2.02
				c-0.19-3.25-0.34-6.51-0.42-9.76c-0.11-4.58-0.32-9.16-0.49-13.74c-0.02-0.43-0.01-0.91-0.2-1.27c-0.61-1.15-0.87-2.43-1.32-3.63
				c-0.62-1.65-1.55-2.28-3.28-2.13c-0.57,0.05-1.13,0.18-1.72,0.11c-1.34-0.16-2.56,0.12-3.62,1c-0.41,0.34-0.87,0.63-1.43,0.57
				c-3.23-0.32-6.4,0.28-9.59,0.58c-1.32,0.12-2.62,0.48-4.11,0.18c0.23,1.82,0.23,3.54,0.3,5.26c0.06,1.58,0.07,3.16,0.06,4.73
				c-0.01,2.54-0.26,5.08,0.15,7.61c0.08,0.52,0.08,1.05,0.09,1.58c0.04,3.92,0.06,8.88,0.11,12.8c0,0.25,0.04,0.53-0.25,0.58
				c-0.45,0.08-0.38-0.33-0.42-0.58c-0.24-1.47-0.36-3.99-0.37-5.48c-0.03-4.17-0.21-8.33-0.33-12.49
				c-0.07-2.49-0.03-4.99,0.18-7.47c0.18-2.14,0.18-4.27,0.11-6.41c-0.02-0.71-0.39-0.95-0.93-1.04c-0.37-0.07-0.77-0.03-1.14,0.03
				c-2.22,0.36-4.43,0.72-6.64,1.12c-0.64,0.12-1.35,0.19-1.77,0.84c-0.52,0.78-1.37,0.86-2.17,0.89c-4.08,0.13-8.11,0.69-12.15,1.2
				c-0.56,0.07-1.02,0.09-1.48-0.26c-0.61-0.45-1.3-0.58-2.05-0.45c-1.94,0.33-3.88,0.65-5.82,0.97c-0.39,0.07-0.8,0.21-0.96,0.57
				c-0.44,1-1.35,1.16-2.24,1.31c-0.9,0.15-1.8,0.25-2.71,0.33c-2.29,0.2-4.57,0.47-6.83,0.91c-0.54,0.11-1.21,0.35-1.67-0.05
				c-0.64-0.58-1.32-0.45-2.03-0.36c-1.19,0.15-2.37,0.37-3.54,0.6c-0.78,0.15-1.11,0.42-1.24,1.25c-0.35,2.33-0.43,4.67-0.44,7.02
				c-0.01,3.21-0.18,6.41-0.11,9.62c0.07,3.41,0.12,6.8-0.16,10.2c-0.08,1.05-0.07,2.1-0.11,3.16c-0.01,0.38,0.07,0.73,0.52,0.68
				c1.31-0.13,2.72,0.13,3.84-0.86c1.3-1.15,2.91-1.38,4.54-1.51c0.81-0.07,1.63-0.04,2.44-0.12c1.47-0.14,2.96-0.23,4.4-0.53
				c1.44-0.3,2.83-0.87,4.37-0.25c-0.26-2.27-0.1-4.4,0.01-6.54c0.1-1.86,0.23-3.73,0.27-5.59c0.04-1.96,0.03-3.93,0.3-5.88
				c0.17-1.23,0.41-2.47,0.38-3.7c-0.05-2.25,0.12-7.47,0.1-9.72c0-0.28,0.13-0.56,0.21-0.91c0.5,0.64,0.49,1.27,0.5,1.89
				c0.02,0.91,0.02,4.79,0.02,5.69c0,1.53,0.22,3.04,0,4.59c-0.25,1.7-0.47,3.44-0.38,5.15c0.23,4.7-0.5,9.37-0.33,14.06
				c0.01,0.33,0.01,0.65-0.16,0.97c-0.41,0.81-0.28,1.12,0.58,1.08c1.39-0.05,2.67-0.02,4.04-0.31c0.42-0.09,1.27-0.09,1.69-0.14
				c1.31-0.16,1.5-0.5,1.25-1.82c-0.3-1.57-0.3-4.11-0.38-5.68c-0.12-2.3-0.14-4.6-0.19-6.89c-0.05-2.26,0.35-4.49,0.39-6.74
				c0.05-3.25,0.23-9.79-0.04-13.05c-0.01-0.13,0.22,0.52,0.59,0.46c0.54,0.5,0.35,0.47,0.35,1.17c0.01,3.11,0.33,9.51,0.02,12.62
				c-0.14,1.48-0.19,2.96-0.18,4.45c0,0.48,0.11,0.91,0.72,0.81c0.94-0.15,1.87-0.34,2.8-0.55c0.66-0.15,1.04-0.49,1.06-1.29
				c0.02-0.91,0.42-1.76,0.87-2.56c1.04-1.84,3.28-2.09,4.68-0.53c0.74,0.83,1.28,1.78,1.75,2.79c0.44,0.95,1.08,1.54,2.26,1.22
				c0.64-0.17,1.33-0.2,1.99-0.31c1.07-0.17,1.06-0.18,1.05-1.25c-0.01-2.92-0.5-5.82-0.42-8.76c0.07-2.47-0.17-7.69-0.17-10.18
				c0.41,0.07,0.52,0.33,0.56,0.63c0.1,0.76,0.41,4.26,0.46,5.03c0.24,3.44,0.07,6.9,0.46,10.34c0.15,1.33,0.15,2.68,0.16,4.02
				c0.03,3.65,0.27,7.28,0.66,10.9c0.06,0.53,0.52,3.11-0.2,3.18c-0.69,0.06-0.77-2.66-0.83-3.13c-0.16-1.19-0.26-2.38-0.35-3.58
				c-0.04-0.65-0.26-1.01-0.97-0.86c-1.27,0.27-3.92,0.66-4.34-0.57c-0.06-0.18-0.12-0.33-0.18-0.49c0.13,0.06,0.24,0.11,0.31,0.11
				c1.2,0.05,2.38-0.05,3.34-0.1c1.34-0.13,1.55-0.18,1.56-0.57c0.02-1,0.27-1.98,0.1-3c-0.1-0.61-0.37-0.68-0.86-0.6
				C2-30.28,1.24-30.19,0.49-30.05c-2.14,0.39-2.31,0.31-3.37-1.59c-0.19-0.33-0.32-0.7-0.51-1.03c-0.31-0.54-0.56-1.09-1.01-1.55
				c-1.09-1.11-2.47-0.87-3.03,0.59c-0.29,0.76-0.5,1.54-0.56,2.36c-0.05,0.7-0.35,1.13-1.17,1.36c-1.24,0.35-2.49,0.65-3.76,0.9
				c-0.55,0.11-0.74,0.25-0.7,0.8c0.06,0.91,0.11,1.82,0.07,2.72c-0.04,0.72,0.28,0.79,0.86,0.7c0.9-0.13,1.8-0.23,2.71-0.34
				c1.32-0.16,1.32-0.15,1.53-1.48c0.17-1.08,0.37-1.28,1.45-1.39c0.52-0.06,1.07,0.01,1.57-0.12c1.14-0.3,1.98-0.06,2.51,0.92
				c-0.26,0.19-0.55,0.54-0.92,1.09c-0.03,0.04-0.06-0.08-0.08-0.12c-0.26-0.68-0.79-0.71-1.41-0.67c-1.78,0.14-1.81,0.12-1.98,1.95
				c-0.05,0.58-0.28,0.94-0.84,0.96c-1.58,0.06-3.12,0.59-4.71,0.4c-0.53-0.06-0.69,0.17-0.66,0.65c0.09,1.39,0.14,2.78,0.26,4.16
				c0.08,0.96,0.11,0.98,1.05,0.84c1.62-0.23,2.61-0.32,4.24-0.37c-0.07,0.23-0.67,1.6-0.78,2.06c-0.39,0.02,0,0-0.39,0.03
				c-0.22-0.31-0.64-0.48-1.1-0.28c-0.54,0.23-2.32,0.49-2.44,0.49c-0.55,0.01-0.98,1.04-1.4,1.19c-5.97,0.28-6.63,7.67-6.81,7.94
				c-1.04,1.53-2.45,5.86-2.71,6.97c-0.21,0.89-0.45,1.5-0.45,1.5s-0.47,2.67-1.11-0.17c-0.4-0.18-0.84-0.53-0.97-0.77
				c-0.37-0.14-0.62-0.39-0.95-0.68c-0.83-0.72-1.76-1.25-2.62-1.91c-0.83-0.63-1.68-1.27-2.55-1.85c-0.43-0.28-0.81-0.43-1.07-0.88
				c-0.04-0.07-0.01-0.19,0.08-0.21c0.02,0,0.04-0.01,0.07-0.01c-0.27-0.22-0.55-0.43-0.82-0.66c-0.11-0.1-0.15-0.22-0.15-0.34
				c-0.09,0.01-0.18-0.01-0.27-0.05c-0.17,0.12-0.39,0.13-0.58-0.08c-0.56-0.62-1.08-1.26-1.6-1.9c-0.11,0.03-0.24,0.02-0.37-0.05
				c-0.73-0.44-1.34-0.93-1.9-1.49c-0.22-0.16-0.45-0.31-0.67-0.48c-0.05-0.03-0.1-0.06-0.15-0.09C-39.8-9.95-39.9-9.94-40-9.97
				c-0.5-0.16-0.56-0.2-0.94-0.55c-0.03-0.03-0.04-0.05-0.06-0.08c-0.13-0.08-0.26-0.17-0.39-0.25c-0.12-0.07-1.48-0.28-2.19-0.3
				c-0.25-0.36-0.31-0.69-0.22-1.49c-0.55-3.97,0.38-7.92,0.13-11.89c-0.24-3.77-0.06-7.56-0.03-11.34c0.02-2.16,0.02-4.3,0.28-6.44
				c0.11-0.9,0.29-1.79,0.49-2.68c0.14-0.6,0.52-1.08,1.17-1.1c1.64-0.05,3.19-0.65,4.81-0.83c0.59-0.06,1.17-0.1,1.69,0.17
				c0.78,0.41,1.55,0.34,2.38,0.23c2.66-0.35,5.33-0.65,8-0.98c0.91-0.11,1.82-0.24,2.27-1.24c0.17-0.37,0.55-0.54,0.95-0.58
				c2.38-0.26,4.68-1.04,7.08-1.22c0.55-0.04,1.03-0.02,1.51,0.26c0.77,0.45,1.61,0.45,2.5,0.41c3.69-0.17,7.31-1.03,11-1.09
				c0.67-0.01,1.35-0.1,1.74-0.79c0.26-0.47,0.74-0.56,1.22-0.66c2.86-0.56,5.74-1.06,8.63-1.47c0.65-0.09,1.25-0.02,1.79,0.36
				c1.06,0.74,2.19,0.89,3.42,0.5c0.36-0.11,0.76-0.16,1.13-0.14c1.59,0.06,3.15-0.2,4.72-0.38c0.86-0.1,1.74-0.31,2.57-0.19
				c1.57,0.23,2.8-0.3,3.93-1.28c0.29-0.25,0.55-0.55,1-0.43c1.38,0.37,2.77,0.03,4.15-0.02c1.54-0.06,3.43,0.95,3.63,2.4
				c0.39,2.75,2.15,4.61,3.73,6.61c1.33,1.69,2.68,3.36,4.04,5.03C45.96-41.05,45.82-40.64,45.7-40.22z M-32.97-4.66
				c0.01,0,0.01,0,0.02,0C-32.95-4.67-32.96-4.67-32.97-4.66C-32.96-4.67-32.96-4.67-32.97-4.66z"/>
		</g>
		<g>
			<path d="M33.5,28.57c5.77-0.11,10.64-0.37,16.4-0.84c0.64-0.05,0.64,0.95,0,1c-5.75,0.47-10.94,0.74-16.71,0.85
				C32.54,29.59,33.5,28.57,33.5,28.57z"/>
		</g>
		<g>
			<path d="M15.89,28.21c4.38,0.21,4.7,0.37,9.09,0.41c0.64,0.01,0.64,1.01,0,1c-4.39-0.04-4.71-0.21-9.09-0.41
				c-0.64-0.03-1.29-0.59-0.64-0.56L15.89,28.21z"/>
		</g>
		<g>
			<path d="M43.54,5.26c3.2-2.27,6.68-4.26,10.24-5.9c0.58-0.27,1.09,0.59,0.5,0.86c-3.56,1.65-7.04,3.63-10.24,5.9
				C43.52,6.5,43.02,5.63,43.54,5.26L43.54,5.26z"/>
		</g>
		<g>
			<path d="M62.9,33.14c-1.95,1.01-3.49,2.55-5.6,3.36c-1.52,0.58-3.24,1.59-4.88,0.96c-0.34-0.13-0.34-0.57,0-0.7
				c2.01-0.78,4.13-1.24,6.07-2.26c1.21-0.64,2.87-2.46,4.33-1.93C63.06,32.65,63.15,33,62.9,33.14L62.9,33.14z"/>
		</g>
		<g>
			<path d="M8.22,37.96c-1.4-0.18-8.03-1.11-9.43-1.33c-0.63-0.1-0.36-1.06,0.27-0.96c1.3,0.21,7.85,1.13,9.16,1.3
				C8.85,37.04,8.86,38.04,8.22,37.96L8.22,37.96z"/>
		</g>
		<g>
			<path d="M26.82,38.57c-5.69-0.01-6.08,0.13-11.75-0.32c-0.64-0.05-0.64-1.05,0-1c5.67,0.45,6.06,0.31,11.75,0.32
				C27.46,37.58,27.46,38.58,26.82,38.57L26.82,38.57z"/>
		</g>
		<g>
			<path d="M52.9,37.93c-4.05,0.13-7.74,0.18-11.8,0.3c-0.64,0.02-0.43-0.76,0.22-0.78c4.05-0.13,7.53-0.39,11.58-0.53
				C53.55,36.91,53.55,37.91,52.9,37.93L52.9,37.93z"/>
		</g>
		<g>
			<path d="M54.24-0.42c0.04-0.61,0.41-1.02,0.01-1.61c-0.15-0.23,0.06-0.46,0.28-0.49c0.5-0.07,0.79,0.6,0.81,1
				c0.02,0.41-0.23,1.06-0.56,1.32C54.59-0.04,54.21-0.12,54.24-0.42L54.24-0.42z"/>
		</g>
		<g>
			<path d="M60.42,26.16c1.72-1.16,2.56,2.92,2.96,3.8c0.34,0.78,0.72,1.51,0.38,2.36c-0.29,0.74-0.87,1.2-1.67,1.22
				c-0.65,0.02-0.75-0.93-0.15-1.11c1.32-0.39,0.42-1.8,0.09-2.6c-0.16-0.4-0.75-2.95-1.26-2.85
				C60.26,27.08,59.99,26.45,60.42,26.16L60.42,26.16z"/>
		</g>
		<g>
			<path d="M61.05,26.84c-1.43,1.24-3.29,1.8-4.99,2.55c-1.44,0.63-3.06,1.34-4.65,1.37c-0.55,0.01-0.51-0.76,0-0.83
				c3.33-0.42,6.31-2.41,9.49-3.35C61.04,26.54,61.17,26.74,61.05,26.84L61.05,26.84z"/>
		</g>
		<g>
			<path d="M46.35,13.14c0.05,0.05,4.54-1.77,4.94-1.92c1.27-0.48,3-0.99,4.07-1.85c0.24-0.19,0.7-0.1,0.67,0.28
				c-0.1,1.19-1.54,1.41-2.47,1.78c-2.33,0.91-4.7,1.85-7.18,2.29c-0.18,0.03-0.36-0.11-0.3-0.3c0.02-0.07,0.04-0.14,0.06-0.21
				C46.16,13.11,46.28,13.07,46.35,13.14L46.35,13.14z"/>
		</g>
		<g>
			<path d="M48.76,22.26c0.08,0.03,0.61-0.32,0.78-0.38c1.09-0.37,2.32-0.51,3.43-0.83c2.22-0.64,5.18-1.13,6.76-2.91
				c0.35-0.4,0.94,0.11,0.71,0.55c-1.25,2.41-3.92,2.6-6.4,3.28c-1.38,0.37-4.02,1.51-5.34,0.41
				C48.63,22.33,48.69,22.24,48.76,22.26L48.76,22.26z"/>
		</g>
		<g>
			<path d="M59.98,18.08c-0.27,0.14-1.12-3.56-1.18-3.83c-0.18-0.86-0.34-1.72-0.52-2.57c-0.09-0.42-0.3-2.23-0.88-1.65
				c-0.49,0.5-1.24-0.25-0.77-0.77c1.09-1.19,1.97-0.54,2.37,0.8c0.37,1.27,0.53,2.63,0.77,3.93c0.25,1.36,0.65,2.76,0.71,4.14
				c0,0.1-0.09,0.18-0.18,0.18c-0.08,0-0.16,0.01-0.24,0.01C59.92,18.33,59.86,18.14,59.98,18.08L59.98,18.08z"/>
		</g>
		<g>
			<path d="M44.12-12.36c-0.51-2.71,0.14-5.06,1.11-7.61c0.69-1.81,1.22-4.3,3.06-5.3c0.25-0.13,0.59,0.12,0.6,0.41
				c0.01,1.48,0.75,2.95,0.93,4.44c0.18,1.55,0.34,3.06,0.43,4.61c0.13,2.13,0.27,4.41-0.7,6.4c-1,2.05-2.71,2.79-4.79,1.71
				c-2.2-1.15-3.05-3.53-3.72-5.78c-0.18-0.6,0.77-1.03,1.04-0.44c0.63,1.43,1.2,3.4,2.38,4.44c1.97,1.73,3.9,0.41,4.4-1.87
				c0.52-2.33,0.38-5.02,0.17-7.38c-0.12-1.42-0.24-3.02-0.57-3.97c-0.11-0.31,0.08-1.25-0.21-1.3c-0.27-0.05-1.18,1.66-1.28,1.92
				c-0.64,1.55-1.31,3.38-1.77,5c-0.44,1.56-0.47,3.08-0.69,4.67C44.47-12.08,44.18-12.03,44.12-12.36L44.12-12.36z"/>
		</g>
		<g>
			<path d="M21.18,6.65c1.72,0.28,2.95,0.56,4.72,0.21c1.59-0.31,3.18-0.64,4.74-1.07c3.59-0.98,5.66-3.59,7.29-6.85
				c2.68-5.33,3.65-12.37,0.88-17.92c-0.22-0.44,0.38-1,0.73-0.56c1.21,1.54,1.33,3.22,1.66,5.14c0.24,1.43,0.53,2.85,0.44,4.3
				c-0.22,3.69-1.43,7.39-3.3,10.57c-0.89,1.51-1.7,2.95-3.01,4.14c-1.14,1.04-3.33,1.91-4.79,2.28c-3.13,0.8-6.82,2.18-9.53,0.05
				C20.86,6.82,21.03,6.62,21.18,6.65L21.18,6.65z"/>
		</g>
		<g>
			<path d="M23.42,7.68c0.03,0.18-3.2-0.26-3.67-0.39c-1.56-0.44-3.19-1.09-4.61-1.88c-2.39-1.33-4.38-3.46-5.78-5.79
				C7.8-2.98,6.88-5.92,6.71-8.96c-0.13-2.37-0.04-6.28,1.72-8.08c0.47-0.48,1.17,0.23,0.73,0.73c-1.72,1.98-1.57,6.2-1.16,8.59
				c0.51,2.95,1.37,5.59,3.12,8.05c1.43,2.02,3.67,3.74,5.89,4.79c1.5,0.71,3.05,1.25,4.67,1.58c0.74,0.15,1.43,0.18,2.04,0.63
				c0.17,0.13,0.12,0.4-0.11,0.41c-0.04,0-0.07,0-0.11,0.01C23.47,7.75,23.43,7.72,23.42,7.68L23.42,7.68z"/>
		</g>
		<g>
			<path d="M26.72-2.7c-0.03-0.25,0-0.6,0.43-0.6c0.62,0,0.87,0.11,1.17,1.01c0.27,0.81,0.61,2.66,0.96,3.44
				c0.61,1.34,1.94,2.3,3.07,1.64c0.21-0.12,0.56-0.03,0.47,0.2c-0.58,1.6-3.24,0.48-3.83-0.04c-0.75-0.66-1.03-1.53-1.35-2.46
				C27.43-0.16,26.79-2.14,26.72-2.7z"/>
		</g>
		<g>
			<path d="M17.22-7.29c-0.58,0.88-2.13,1.24-2.96,0.94c-0.71-0.26-1.57-0.76-2.08-1.35c-0.41-0.48-0.98-1.34-1.01-2.1
				c-0.03-0.65,0.54-2.09,0.86-1.51c0.22,0.4,0.09,1.07,0.53,2.07c0.32,0.74,0.98,1.19,1.65,1.52c0.91,0.45,1.84,0.89,2.83,0.25
				C17.22-7.59,17.35-7.49,17.22-7.29L17.22-7.29z"/>
		</g>
		<g>
			<path d="M6-17.2c0.34,0.5-0.39,1.29-0.67,1.71c-0.52,0.78-1,1.52-1.59,2.26c-1.02,1.27-2.63,2.26-4.18,1.27
				c-0.51-0.33-0.19-1.28,0.44-1.04c1.62,0.63,2.54-0.62,3.46-1.78c0.59-0.74,1.13-1.41,1.76-2.11c0.14-0.15,0.36-0.09,0.47,0.06
				L6-17.2z"/>
		</g>
		<g>
			<path d="M0.99-15.62c-1.79-1.91-2.02-4.94-2.42-7.43c-0.13-0.8-0.44-3.48-1.2-3.71c-0.33-0.09-2.21,3.49-2.58,4.02
				c-1.63,2.27-5.68,8.68-1.06,9.85c1.11,0.28,2.54-0.09,3.67-0.13c1.31-0.04,2.6,0.06,3.89,0.36c0.43,0.1,0.33,0.76-0.1,0.76
				c-2.07,0.02-4.04-0.04-6.1,0.03c-1.02,0.04-2.17,0.06-3.03-0.58c-3.23-2.42-0.6-7.21,0.89-9.69c0.53-0.88,1.2-1.66,1.74-2.54
				c0.57-0.93,1.02-2.14,1.87-2.88c0.62-0.54,1.04-0.77,1.7-0.11c0.94,0.92,1.23,3.37,1.44,4.57c0.42,2.48,0.89,4.83,1.77,7.19
				C1.58-15.63,1.18-15.42,0.99-15.62L0.99-15.62z"/>
		</g>
		<g>
			<path d="M-13.78-16.16c-2.59,1-4.52,2.67-6.1,4.87c-1.96,2.73-3.11,6.22-3.92,9.46c-1.1,4.41-1.94,6.41-0.39,12.24
				c0.38,1.44,1.48,2.52,1.31,1.95c-1.36-4.7-0.63-9.32,0.58-13.98c0.77-3,1.88-5.81,3.68-8.36c1.6-2.27,3.42-4.61,5.87-6.87
				c0.19-0.17-0.54,0.06-0.77,0.15L-13.78-16.16z"/>
		</g>
		<g>
			<path d="M-24.64,2.22c-3.01,3.14-7.17,5.33-9.75,8.85c-3.13,4.27-0.88,8.58-1.37,13.32c-0.53,5.12-6.07,7.44-8.08,11.89
				c-1.23,2.74-1.85,6.73,1.1,8.58c0.46,0.29,1.1-0.32,0.68-0.75c-3.02-3.05-1.1-7.67,1.39-10.45c2.77-3.09,6.03-5.44,6.14-9.96
				c0.11-4.63-1.78-8.79,1.64-12.78c2.6-3.05,6.58-4.86,8.56-8.43C-24.22,2.31-24.46,2.04-24.64,2.22L-24.64,2.22z"/>
		</g>
		<g>
			<path d="M-9.78,18.47c-0.37-5.13-5.95-9.53-10.32-5.46c-2.24,2.08-3.23,5.23-4.12,8.05c-1,3.18-2.03,6.39-2.52,9.7
				c-0.98,6.54,1.12,12.93,6.41,17.08c4.94,3.87,11.28,3.23,15.55-1.27c3.95-4.16,6.13-11.15,3.66-16.58
				c-0.39-0.85-2.3-2.2-1.97-1.28c2.33,6.4,0.6,13.16-3.55,17.05c-5.83,5.46-13.33,1.89-16.89-4.28c-3.51-6.1-1.31-13.07,0.62-19.3
				c0.89-2.89,1.79-6.46,4.29-8.41c4.02-3.13,6.65,1.95,8.24,4.89C-10.19,19-9.75,18.81-9.78,18.47L-9.78,18.47z"/>
		</g>
		<g>
			<path d="M-7.91,16.96c-1.34,5.13,0.37,9.46,5.17,11.92c3.26,1.67,7.02,2.58,8.86,6.06c1.42,2.66,1.71,5.75,2.39,8.65
				c2.09,8.98,14.63,17.83,23.35,11.93c0.47-0.32,0.01-0.91-0.42-0.88c-5.77,0.39-12.66-3.51-15.22-8.71
				c-2.18-4.42-0.12-9.29,0.27-13.87c0.31-3.71-0.55-7.46-3.49-9.96c-3.11-2.65-9.05-3.97-9.91-8.51c-0.18-0.96-1.65-0.67-1.49,0.29
				c0.74,4.37,5.37,6.03,8.69,8.13c5.55,3.52,4.99,8.83,4.15,14.58c-0.71,4.85-0.54,9.06,2.92,12.86c3.77,4.13,8.81,5.48,14.14,6.2
				c-0.06-0.32-0.12-0.64-0.19-0.96c-4.9,2.86-10.61,1.12-14.96-1.99c-2.21-1.58-4.06-3.7-5.26-6.15c-1.13-2.31-1.38-4.91-1.94-7.4
				c-0.92-4.15-2.63-7.82-6.58-9.83c-2.55-1.3-5.69-2.01-7.66-4.21c-1.92-2.13-2.12-5.22-1.86-7.95
				C-6.91,16.61-7.77,16.41-7.91,16.96L-7.91,16.96z"/>
		</g>
		<g>
			<path d="M-0.77,16.32C4.1,14.99,4.6,7.99,4.38,3.97c-0.11-2-0.27-3.81,0.59-5.7c0.7-1.53,1.92-2.64,2.93-3.96
				c0,0,0.18-3.32-0.28-2.33C7.01-6.67,5.9-5.62,4.83-4.25c-1.44,1.85-2.04,3.93-2,6.26c0.04,2.15,0.32,4.25,0.07,6.4
				c-0.36,3.16-1.64,4.96-3.76,7.22C-1.1,15.89-1.21,16.44-0.77,16.32L-0.77,16.32z"/>
		</g>
		<g>
			<path d="M-21.38,14.47c-3.1,0-4.95,2.54-5.82,5.26c-1.18,3.71-0.69,7.97-4.1,10.6c-2.66,2.05-6.19,2.61-8.75,4.85
				c-2.6,2.28-3.79,6.08-2.54,9.34c0.17,0.43,0.89,0.19,0.77-0.26c-1.19-4.64,1.54-8.18,5.56-10.05c2.39-1.11,4.99-1.79,6.87-3.75
				c1.95-2.03,2.29-4.65,2.94-7.27c0.33-1.33,0.66-2.76,1.2-4.02c0.85-1.97,2.17-2.76,4.09-3.52
				C-20.58,15.44-20.77,14.48-21.38,14.47L-21.38,14.47z"/>
		</g>
		<g>
			<path d="M-17.83,39.44c-0.33,0.05-0.42,0.37-0.61,0.61c-0.24,0.31-0.6,0.69-0.98,0.82c-0.25,0.09-0.94,0.26-1.18,0.11
				c-0.34-0.21-0.74-0.48-0.91-1.2c-0.05-0.21-0.66,0.08-0.59,0.35c0.31,1.22,1.56,1.94,2.42,1.63c0.52-0.19,1.08-0.54,1.47-0.93
				c0.31-0.31,0.87-0.86,0.57-1.32C-17.68,39.46-17.76,39.43-17.83,39.44L-17.83,39.44z"/>
		</g>
		<g>
			<path d="M-16.54,26.13c0.28-0.06,1.43-0.58,2.08-3c0.38-1.41,0.46-2.65,0.09-4.07c-0.6-2.26-2.93-3.11-4.23-2.22
				c-1.25,0.86-1.26,3.75-0.53,6.21C-18.77,24.26-17.91,26.33-16.54,26.13z"/>
		</g>
		<g>
			<path d="M-18.27,34.35c0.06-1.03-0.42-2.26-1.28-2.85c-0.18-0.13-1.07,0.06-1.24,0.22c-1.53,1.46-0.9,5.06,0.98,5.82
				c0.54,0.22,1.17-0.68,1.3-0.96C-18.11,35.7-18.32,35.22-18.27,34.35z"/>
		</g>
		<g>
			<path d="M-8.89,32.29c-0.16-0.92-0.86-1.86-2-1.62c-1.15,0.25-1.09,1.76-0.97,2.65c0.15,1.11,0.63,2.57,1.57,3.28
				c0.36,0.27,0.86,0.25,1.2-0.45C-9.09,36.15-8.51,34.49-8.89,32.29z"/>
		</g>
		<g>
			<path d="M-6.69,37.22c0.02,1.14-0.08,2.23-1.33,2.59c-0.93,0.26-2.16-0.02-2.74-0.21c-0.47-0.15-0.69,0.64-0.2,0.76
				c1.58,0.38,2.55,0.44,3.64-0.11c1.16-0.59,1.4-1.88,1.09-3.05C-6.3,36.96-6.7,36.94-6.69,37.22L-6.69,37.22z"/>
		</g>
		<path d="M17.37-9.69c-0.96,0.28-1.81-0.48-2.02-0.68c-1.03-0.98-0.29-2.75,0.29-3.64c1.01-1.54,1.77-2.33,2.37-2.64
			c1.88-0.93,2.52,0.51,2.74,1.92C21.03-12.94,19.18-10.22,17.37-9.69z"/>
		<path d="M29.54-17.02c-0.76,0.94-1.66,2.32-3,2.41c-1.21,0.08-1.8-1.13-2.03-2.13c-0.12-0.56-0.25-1.22-0.15-1.79
			c0.11-0.57,0.09-1.14,0.61-1.46c0.14-0.08,5.69-0.78,5.76-0.49C31.02-19.27,30.28-17.93,29.54-17.02z"/>
		<path d="M34.41-8.37c-0.03,1.3-0.11,3.11-1.1,4.34c-1.02,1.37-2.71,1-3.4-0.32c-0.74-1.42-1.03-3.32-0.97-4.91
			c0.06-1.67,1.01-3.86,3.02-3.58C33.99-12.57,34.45-10.13,34.41-8.37z"/>
		<g>
			<path d="M28.41,40.18c-2.94-1.29-3.69-3.16-4.5-5.15c-1.04-2.54-0.29-4.9,1.32-7c1.15-1.5,2.94-2.71,2.54-4.84
				c-0.29-1.52-1.31-2.81-1.55-4.38c-0.36-2.34,0.9-4.05,2.87-5.26c0.56-0.35,0.91,0.23,0.32,0.55c-1.32,0.73-3.46,2.51-1.32,6.92
				c0.65,1.33,1.08,2.84,0.52,4.28c-0.78,2.01-2.83,3.44-3.65,5.46c-1.26,3.12,1.36,7.15,4.36,8.34c0.44,0.18,0.13,0.26-0.4,0.27
				L28.41,40.18z"/>
		</g>
		<g>
			<path d="M29.76,13.85c-0.66,1.19-1.56,2.9-1.09,4.32c0.59,1.76,2.74,1.96,4.16,2.59c1.5,0.66,2.7,1.78,2.85,3.5
				c0.16,1.76-0.91,2.85-1.7,4.27c-0.58,1.03-0.97,2.57-0.18,3.49c0.17,0.2,0.55,0.62,0.74,0.82c0.39,0.41,0.52,0.27,0.46,0.86
				c-0.06,0.61-0.34,1.46-0.56,0.91c-0.34-0.84-1.07-1.67-1.57-2.46c-0.44-0.69-0.57-1.8-0.28-2.55c0.44-1.14,0.66-1.92,1.27-2.96
				c1.55-2.66-0.24-4.51-2.7-5.49c-1.65-0.66-3.25-1.34-3.49-3.32c-0.19-1.59,0.5-3.32,1.81-4.24
				C29.66,13.45,29.85,13.68,29.76,13.85L29.76,13.85z"/>
		</g>
		<g>
			<path d="M37.83,41.32c2.78-1.99,1.94-2.23,2.78-4.39c0.51-1.29,0.5-2.19,1.84-2.77c1.11-0.48,1.93-0.11,2.98,0.41
				c1.16,0.57,2.59,1.38,3.96,1.44c1.86,0.09,3.4-1.44,4.58-2.71c0.45-0.49,0.37,0.33-0.03,0.9c-1.09,1.54-2.07,2.61-4.01,2.89
				c-2.06,0.29-3.12-0.76-4.87-1.5c-3.6-1.52-3.65,1.9-4.79,4.23c-0.56,1.14-1.09,1.46-2.16,1.67
				C37.84,41.54,37.83,41.32,37.83,41.32z"/>
		</g>
		<g>
			<path d="M53.96,33.99c-1.13,1.09-2.34,1.62-3.96,1.24c-1.84-0.43-2.65-2.17-3.98-3.31c-2.65-2.29-3.31-0.11-5.67,0.55
				c-0.66,0.18-1.23,0.05-1.88-0.17c-0.58-0.2-1.48-0.6-2.54,0.49c-0.31,0.32-0.44,1.63-0.64,2.06c-0.27,0.59-0.96-0.05-0.83-0.64
				c0.29-1.3,1.03-3,2.58-3.08c0.84-0.04,1.48,0.37,2.37,0.33c1.49-0.06,1.91-0.96,3.19-1.5c1.14-0.49,2.25-0.23,3.25,0.47
				c0.92,0.65,1.51,1.62,2.29,2.42c0.59,0.61,1.18,1.41,2.09,1.54c1.32,0.19,2.65-0.48,3.74-1.09
				C54.21,33.17,53.96,33.99,53.96,33.99L53.96,33.99z"/>
		</g>
		<g>
			<path d="M40.66,37.61c9-1.74,12.58,11.83,4.72,15.81c-3.21,1.62-7,0.4-9.51-1.92c-3.54-3.27-2.89-9.29-7.46-11.32
				c-0.69-0.3-0.2-1.44,0.51-1.21c2.83,0.9,3.88,3.01,4.71,5.69c1.07,3.47,2.9,6.73,6.63,7.82c4.05,1.19,7.92-1.92,8.29-6.05
				c0.42-4.63-3.61-7.75-7.8-8.2C40.42,38.2,40.28,37.68,40.66,37.61L40.66,37.61z"/>
		</g>
		<path d="M42.19,46.42c-0.37,0.49-0.72,0.56-1.13,0.45c-0.35-0.1-0.34-0.45-0.35-0.73c0.01-0.6,0.64-1.59,1.2-1.9
			c0.29-0.16,0.61-0.08,0.69,0.25C42.73,45.07,42.56,45.94,42.19,46.42z"/>
		<path d="M45.79,47.44c-0.18,0.41-0.51,0.76-1.11,0.43c-0.27-0.15-0.34-0.47-0.22-0.74c-0.03-0.11,0.37-1.37,0.94-1.72
			c0.29-0.18,0.52-0.05,0.65,0.25C46.21,46.02,46.07,46.82,45.79,47.44z"/>
		<path d="M44.73,42.45c-0.1,0.21-0.36,0.41-0.57,0.42c-0.3,0.01-0.57-0.22-0.59-0.44c-0.02-0.22-0.17-0.92-0.15-0.93
			c-0.08-0.31-0.33-0.87-0.12-1.18c0.15-0.22,0.51-0.39,0.76-0.2C44.82,40.7,45.12,41.61,44.73,42.45z"/>
		<g>
			<path d="M49.53,46.28c0.96,2.52,4.75,1.35,6.67,2.81c1.69,1.29,2.35,4.15,1.64,6.12c-0.12,0.32-0.65,0.4-0.73,0
				c-0.2-1.03-0.4-2.26-1.23-3c-0.94-0.85-2.32-0.93-3.51-0.98c-1.75-0.08-2.97-0.34-3.97-1.89c-0.32-0.5,0.43-1.09,0.83-0.64
				c1.13,1.3,2.19,1.36,3.78,1.54c0.84,0.09,1.7,0.26,2.45,0.67c1.59,0.87,2.08,2.4,2.38,4.09c-0.24,0.07-0.49,0.13-0.73,0.2
				c-0.3-1.35,0.01-2.79-0.64-4.07c-0.82-1.62-2.34-1.89-3.96-2.11c-1.67-0.23-3.58-0.65-3.67-2.66
				C48.83,45.95,49.4,45.93,49.53,46.28L49.53,46.28z"/>
		</g>
		<g>
			<path d="M39.17,49.41c-0.68,0.06-1.32-0.65-1.58-1.2c-0.28-0.61-0.37-1.49,0.08-2.05c0.21-0.26,0.27-0.28,0.32,0.06
				c0.07,0.47,0.07,1.15,0.25,1.62c0.18,0.48,0.57,0.84,0.89,1.19C39.36,49.29,39.5,49.38,39.17,49.41L39.17,49.41z"/>
		</g>
		<g>
			<path d="M45.09,50.11c0.23-0.12,0.49-0.32,0.65-0.52c0.18-0.22,0.61-0.97,0.64-0.71c0.08,0.68-0.42,1.6-0.92,1.83
				c-0.57,0.27-1.37,0.33-1.94,0c-0.19-0.11-0.2-0.26,0.05-0.32C43.57,50.39,44.6,50.37,45.09,50.11z"/>
		</g>
		<g>
			<path d="M43.08-15.84c-0.65-0.93-1.29-1.86-1.94-2.8c-0.01,1.39,0.6,3.77,1.04,5.1c0.2,0.61-1.17-0.16-1.37-0.77
				c-0.43-1.29-1.12-3.73-1.15-5.07c-1.16,0.53-4.47,0.77-7.77,0.12c-0.04-0.01-3.02-0.59-5.42-0.59c-3.26,0-6.67,0.89-9.66,2.12
				c-0.04,0.02-0.07,0.05-0.11,0.07c-2.59,0.62-5.22,1.01-7.89,1.26c-0.43,0.62-0.88,1.21-1.35,1.8C7.11-12.02,6.86-9.24,7.1-6.56
				c0.72,2.65,2,5.24,3.34,7.62c0.18,0.31-0.04,0.78-0.43,0.75C9.35,1.76,8.7,1.72,8.04,1.68c-0.27-0.02-4.34,0.58-4.33,0.3
				c0.01-0.82,0.72-2.53,0.6-3.33C5.4-2.73,6.22-5.97,7.33-7.18c0.29-0.83-1.24-5.21,1.08-9.33c-1.86-0.24-6.21-0.64-8.11-0.69
				c-0.16,0,0.01,0-0.16,0c-0.2-0.46-0.2-0.8-0.41-1.26c0.98-0.06,1.42-0.25,2.4-0.32c0.79-0.05,1.5-0.18,2.1,0.52
				c0.28,0.32,0.75,0.47,1.18,0.49c2.77,0.08,5.57,0.36,8.06-1.33c0.27-0.18,0.6-0.29,0.92-0.39c2.15-0.67,4.38-1.07,6.6-1.25
				c3.18-0.25,6.31-1.12,9.54-0.78c0.24-0.31,0.07-0.63,0.06-0.96c-0.09-2.06-0.65-4.05-0.69-6.13c-0.06-2.49,0.15-4.99-0.19-7.47
				c-0.17-1.19-0.27-2.38-0.28-3.58c-0.03-4.05,0.16-9.58-0.57-13.6c-0.01-0.04,0.14-0.1,0.22-0.16c1.01,1.68,0.92,5.04,1.09,6.87
				c0.26,2.91,0.03,5.85,0.4,8.76c0.14,1.14,0.24,2.29,0.26,3.44c0.08,4.31,0.28,8.61,0.73,12.89c0.07,0.65,0.24,0.82,0.75,0.92
				c1.9,0.37,3.7,0.17,5.4-0.87c1.49-0.91,1.73-0.81,3,0.32c1.38,1.23,2.33,2.78,3.44,4.22c0.19,0.24,0.19,0.24,0.39,0.47
				c-0.26,0.09-0.09,1.79-0.22,2.07C44.09-14.66,43.33-15.48,43.08-15.84z"/>
			<path d="M50.73-3.63c-0.63,0.85-2.23,1.27-3.21,1.47c-2.06,0.43-4.16,0.75-6.23,1.13c-0.24,0.04-0.42-0.05-0.52-0.2
				c-0.34,0.13-0.68,0.32-1,0.59c-0.41,0.35-1.11-0.1-0.79-0.61c0.84-1.33,1.48-2.78,1.9-4.29c-0.07-0.08-0.11-0.19-0.1-0.31
				c0.11-1,0.32-1.95,0.63-2.88c0.04-0.83,0.01-1.67-0.11-2.5c-0.09-0.63,0.87-0.9,0.96-0.27c0.04,0.31,0.06,0.61,0.09,0.92
				c0.2-0.04,0.44,0.05,0.56,0.22c0.81,1.17,3.66,4.76,5.35,2.17c0.22-0.33,0.64-0.31,0.86,0C49.98-6.95,51.47-4.63,50.73-3.63z"/>
		</g>
	</g>
</symbol>
<g id="Layer_1">
</g>
<g id="BG">
	<rect id="BG_00000082354266892434819460000014407544633745974707_" x="0.02" y="0" fill="#F0EDDA" width="60" height="100"/>
</g>
<g id="THINGS">
	<g>
		<g id="_x32__00000061447584242746283890000018029452483701445005_">
			<g>
				<g>
					<path fill="#231F20" d="M19.51,14.62c-0.29,0-0.58-0.01-0.88-0.04c-0.29-0.02-0.52-0.05-0.66-0.08l-0.22-0.03V9
						c0.52-0.1,1.11-0.15,1.76-0.15c0.94,0,1.65,0.25,2.11,0.74c0.46,0.5,0.69,1.21,0.69,2.14c0,0.93-0.23,1.64-0.69,2.14
						C21.16,14.37,20.45,14.62,19.51,14.62z M19.5,9.72c-0.29,0-0.6,0.02-0.96,0.07v3.9c0.31,0.04,0.63,0.06,0.96,0.06
						c1.34,0,2.01-0.67,2.01-2.02C21.51,10.39,20.84,9.72,19.5,9.72z"/>
					<path fill="#231F20" d="M27.13,13.68l-0.16,0.86h-3.44v-5.6h3.44l0.16,0.86h-2.8v1.42h2.29v0.86h-2.29v1.6H27.13z"/>
					<path fill="#231F20" d="M28.73,14.62l-0.84-0.08l2.49-5.68h0.12l2.56,5.68l-0.77,0.08l-0.58-1.29h-2.42L28.73,14.62z
						 M30.48,10.59l-0.88,2.02h1.79L30.48,10.59z"/>
					<path fill="#231F20" d="M37.12,8.94l0.16,0.86h-1.79v4.74l-0.8,0.08V9.8H32.9l0.16-0.86H37.12z"/>
					<path fill="#231F20" d="M41.39,8.94l0.8-0.08v5.68l-0.8,0.08v-2.57h-2.33v2.49l-0.8,0.08V8.94l0.8-0.08v2.33h2.33V8.94z"/>
					<path fill="#231F20" d="M18.84,21.24c-0.43-0.51-0.64-1.21-0.64-2.12c0-0.91,0.21-1.62,0.64-2.12
						c0.43-0.51,1.04-0.76,1.85-0.76c0.29,0,0.56,0.02,0.83,0.07s0.46,0.09,0.58,0.14l0.19,0.06l-0.19,0.81
						c-0.46-0.15-0.9-0.23-1.31-0.23c-0.62,0-1.07,0.17-1.36,0.51C19.14,17.95,19,18.45,19,19.11c0,0.67,0.14,1.17,0.43,1.51
						c0.29,0.34,0.74,0.51,1.36,0.51c0.2,0,0.42-0.02,0.65-0.06c0.23-0.04,0.41-0.08,0.53-0.11l0.19-0.06l0.19,0.81
						c-0.42,0.18-0.97,0.28-1.66,0.28C19.89,21.99,19.27,21.74,18.84,21.24z"/>
					<path fill="#231F20" d="M26.52,16.31l0.8-0.08v5.68l-0.8,0.08v-2.57h-2.33v2.49l-0.8,0.08v-5.68l0.8-0.08v2.33h2.33V16.31z"/>
					<path fill="#231F20" d="M32.37,21.05l-0.16,0.86h-3.44v-5.6h3.44l0.16,0.86h-2.8v1.42h2.3v0.86h-2.3v1.6H32.37z"/>
					<path fill="#231F20" d="M33.27,21.55l0.28-0.8c0.04,0.03,0.11,0.06,0.19,0.11c0.08,0.04,0.27,0.1,0.55,0.17
						c0.28,0.07,0.57,0.11,0.87,0.11c0.32,0,0.57-0.06,0.76-0.19c0.19-0.13,0.28-0.31,0.28-0.55c0-0.15-0.07-0.27-0.21-0.39
						s-0.32-0.2-0.53-0.27s-0.44-0.15-0.69-0.24c-0.25-0.09-0.48-0.18-0.7-0.29c-0.21-0.11-0.39-0.27-0.53-0.48
						s-0.21-0.46-0.21-0.75c0-0.55,0.17-0.98,0.51-1.29s0.79-0.46,1.35-0.46c0.24,0,0.47,0.03,0.72,0.08
						c0.24,0.05,0.42,0.11,0.55,0.16l0.18,0.08l-0.25,0.8c-0.34-0.18-0.75-0.27-1.21-0.27c-0.32,0-0.58,0.06-0.77,0.19
						c-0.19,0.12-0.29,0.31-0.29,0.57c0,0.15,0.07,0.28,0.21,0.4s0.32,0.21,0.53,0.29c0.21,0.08,0.44,0.16,0.69,0.25
						s0.48,0.19,0.69,0.3s0.39,0.26,0.53,0.47S37,20.01,37,20.28c0,1.14-0.63,1.71-1.89,1.71c-0.28,0-0.57-0.04-0.87-0.11
						c-0.31-0.08-0.54-0.15-0.71-0.23L33.27,21.55z"/>
					<path fill="#231F20" d="M41.83,16.31L42,17.17h-1.79v4.74l-0.8,0.08v-4.82h-1.79l0.16-0.86H41.83z"/>
				</g>
			</g>
			
				<use xlink:href="#chest"  width="108.74" height="112.9" x="-44.85" y="-55.48" transform="matrix(0.4742 0 0 -0.4742 25.7661 60.648)" overflow="visible"/>
		</g>
	</g>
	<path d="M0.02,0v1.6v96.8v1.6h60v-1.6V1.6V0H0.02z M59.02,98.4h-58V1.6h58V98.4z"/>
	<g>
	</g>
	<g>
	</g>
	<g>
	</g>
	<g>
	</g>
	<g>
	</g>
	<g>
	</g>
	<g>
	</g>
	<g>
	</g>
	<g>
	</g>
	<g>
	</g>
	<g>
	</g>
	<g>
	</g>
	<g>
	</g>
	<g>
	</g>
	<g>
	</g>
	<g>
	</g>
	<g>
	</g>
	<g>
	</g>
	<g>
	</g>
</g>
</svg>
