<?xml version="1.0" encoding="utf-8"?>
<!-- Generator: Adobe Illustrator 26.2.1, SVG Export Plug-In . SVG Version: 6.00 Build 0)  -->
<svg version="1.1" xmlns="http://www.w3.org/2000/svg" xmlns:xlink="http://www.w3.org/1999/xlink" x="0px" y="0px"
	 viewBox="0 0 100 100" enable-background="new 0 0 100 100" xml:space="preserve">
<g id="Layer_1">
</g>
<g id="BG">
	<rect id="BG_00000044858667638158791930000016007329722306264735_" x="0" fill="#F0EDDA" width="100" height="100"/>
	<path d="M98.4,1.6v96.8H1.6V1.6H98.4 M100,0H0v100h100V0L100,0z"/>
</g>
<g id="THINGS">
	<g id="GOTO">
		<g>
			<g>
				<path fill="#231F20" d="M31.64,92.53c0.76-0.07,1.55-0.5,2.35-1.31s1.24-1.59,1.3-2.36c0.06-0.77-0.29-1.53-1.04-2.28
					c-0.28-0.28-0.63-0.55-1.06-0.82l-1.49,1.49l1.36,1.36l-0.96,0.96l-2.33-2.33l3.28-3.28c0.75,0.3,1.54,0.87,2.37,1.7
					c0.98,0.98,1.42,2.03,1.33,3.17c-0.09,1.13-0.69,2.25-1.79,3.35s-2.22,1.7-3.35,1.79s-2.19-0.35-3.16-1.32
					c-0.35-0.35-0.65-0.71-0.92-1.09s-0.45-0.68-0.55-0.89l-0.14-0.3l1.21-0.76c0.39,0.76,0.83,1.38,1.33,1.88
					C30.13,92.25,30.88,92.59,31.64,92.53z"/>
				<path fill="#231F20" d="M30.48,82.73c-0.13,1.21-0.68,2.31-1.67,3.3s-2.09,1.55-3.3,1.67c-1.21,0.13-2.26-0.25-3.14-1.13
					c-0.88-0.88-1.25-1.92-1.12-3.13c0.13-1.21,0.69-2.31,1.68-3.3s2.09-1.55,3.3-1.67c1.21-0.13,2.26,0.25,3.13,1.12
					C30.23,80.47,30.61,81.52,30.48,82.73z M26.18,79.87c-0.81,0.1-1.58,0.51-2.3,1.24s-1.14,1.5-1.24,2.3
					c-0.1,0.81,0.16,1.51,0.77,2.12c0.61,0.61,1.32,0.87,2.13,0.77s1.57-0.51,2.3-1.24s1.14-1.5,1.24-2.3
					c0.1-0.81-0.16-1.52-0.77-2.13C27.7,80.02,26.99,79.77,26.18,79.87z"/>
				<path fill="#231F20" d="M10.91,74.92l0.85-1.24l2.17,2.17l5.74-5.75l1.06,0.87l-5.84,5.84l2.17,2.17l-1.24,0.85L10.91,74.92z"/>
				<path fill="#231F20" d="M15.22,67.46c-0.13,1.21-0.68,2.31-1.67,3.3s-2.09,1.55-3.3,1.67c-1.21,0.13-2.26-0.25-3.14-1.13
					c-0.88-0.88-1.25-1.92-1.12-3.13c0.13-1.21,0.69-2.31,1.68-3.3s2.09-1.55,3.3-1.67c1.21-0.13,2.26,0.25,3.13,1.12
					C14.96,65.2,15.34,66.25,15.22,67.46z M10.92,64.6c-0.81,0.1-1.57,0.51-2.3,1.24c-0.73,0.73-1.14,1.5-1.24,2.3
					c-0.1,0.81,0.16,1.51,0.77,2.12c0.61,0.62,1.32,0.87,2.13,0.78c0.81-0.1,1.57-0.51,2.3-1.24s1.14-1.5,1.24-2.3
					c0.1-0.81-0.16-1.52-0.77-2.13C12.43,64.76,11.72,64.5,10.92,64.6z"/>
			</g>
		</g>
		<g>
			<g>
				<path fill="#231F20" d="M89.77,36.42c0.42-0.42,0.85-0.63,1.27-0.62c0.43,0.01,0.88,0.25,1.35,0.73l0.62,0.62l1.5-1.5l0.62,0.51
					l-3.97,3.97c-0.38-0.24-0.8-0.6-1.27-1.07c-0.48-0.48-0.73-0.94-0.74-1.36C89.14,37.27,89.35,36.84,89.77,36.42z M91,36.67
					c-0.23-0.01-0.45,0.09-0.66,0.31c-0.21,0.21-0.31,0.43-0.3,0.66c0.01,0.23,0.16,0.49,0.46,0.79c0.15,0.15,0.38,0.34,0.67,0.57
					l1.25-1.25l-0.62-0.62C91.49,36.84,91.22,36.68,91,36.67z"/>
				<path fill="#231F20" d="M87.44,32.13l-2.17,2.17l-0.62-0.5l2.23-2.23c0.26-0.26,0.52-0.46,0.79-0.62s0.55-0.26,0.84-0.32
					c0.29-0.06,0.6-0.03,0.91,0.09c0.31,0.11,0.61,0.32,0.9,0.6s0.49,0.59,0.6,0.9c0.11,0.31,0.14,0.61,0.08,0.9
					c-0.06,0.29-0.17,0.58-0.32,0.84s-0.36,0.53-0.62,0.79l-2.17,2.17l-0.62-0.51l2.23-2.23c0.82-0.82,0.89-1.57,0.21-2.26
					C89.01,31.24,88.26,31.31,87.44,32.13z"/>
				<path fill="#231F20" d="M84.89,26.02l0.68,0.57l-0.65,2.47l0.67,0.67l1.5-1.5l0.62,0.5l-3.97,3.97c-0.38-0.24-0.8-0.6-1.27-1.06
					c-0.48-0.48-0.73-0.94-0.75-1.36c-0.01-0.43,0.19-0.85,0.62-1.27c0.62-0.62,1.24-0.76,1.88-0.44L84.89,26.02z M82.91,29.56
					c-0.21,0.21-0.31,0.43-0.3,0.66s0.16,0.49,0.46,0.79c0.15,0.15,0.38,0.34,0.67,0.58l1.25-1.25l-0.69-0.69
					C83.8,29.15,83.34,29.12,82.91,29.56z"/>
				<path fill="#231F20" d="M80.49,27.7c0.44-0.04,0.9-0.29,1.37-0.76c0.47-0.47,0.72-0.93,0.76-1.38c0.03-0.45-0.17-0.89-0.61-1.33
					c-0.16-0.16-0.37-0.32-0.62-0.48l-0.87,0.87l0.79,0.79l-0.56,0.56l-1.36-1.36l1.91-1.91c0.44,0.18,0.9,0.51,1.38,0.99
					c0.57,0.57,0.83,1.19,0.78,1.85c-0.05,0.66-0.4,1.31-1.04,1.96c-0.64,0.64-1.29,0.99-1.95,1.05c-0.66,0.05-1.28-0.2-1.85-0.77
					c-0.2-0.2-0.38-0.41-0.54-0.64s-0.26-0.4-0.32-0.52l-0.08-0.18l0.7-0.44c0.23,0.44,0.49,0.81,0.78,1.1
					C79.6,27.54,80.04,27.74,80.49,27.7z"/>
				<path fill="#231F20" d="M80.35,21.36L80.88,22l-5.78,2.26l-0.08-0.08l2.2-5.83l0.6,0.49l-0.5,1.32l1.71,1.71L80.35,21.36z
					 M76.27,22.97l2.05-0.81l-1.27-1.27L76.27,22.97z"/>
				<path fill="#231F20" d="M70.4,19.44l0.49-0.72l1.27,1.27l3.35-3.35l0.62,0.51l-3.41,3.41l1.27,1.27l-0.72,0.49L70.4,19.44z"/>
				<path fill="#231F20" d="M72.79,14.97c-0.07,0.71-0.4,1.35-0.98,1.93c-0.58,0.58-1.22,0.9-1.93,0.98
					c-0.71,0.07-1.32-0.15-1.83-0.66c-0.51-0.51-0.73-1.12-0.66-1.83c0.07-0.71,0.4-1.35,0.98-1.93c0.58-0.58,1.22-0.9,1.93-0.98
					c0.71-0.07,1.32,0.14,1.83,0.66C72.64,13.65,72.86,14.26,72.79,14.97z M70.28,13.3c-0.47,0.06-0.92,0.3-1.34,0.72
					s-0.67,0.87-0.72,1.34c-0.06,0.47,0.09,0.88,0.45,1.24c0.36,0.36,0.77,0.51,1.24,0.45c0.47-0.06,0.92-0.3,1.34-0.72
					c0.42-0.42,0.67-0.87,0.72-1.34c0.06-0.47-0.09-0.89-0.45-1.24C71.16,13.39,70.75,13.24,70.28,13.3z"/>
				<path fill="#231F20" d="M66.71,7.84l0.68,0.57l-0.65,2.47l0.67,0.67l1.5-1.5l0.62,0.51l-3.97,3.97
					c-0.38-0.24-0.81-0.6-1.27-1.06c-0.48-0.48-0.73-0.94-0.74-1.36c-0.01-0.43,0.19-0.85,0.62-1.28c0.62-0.62,1.24-0.76,1.88-0.44
					L66.71,7.84z M64.73,11.37c-0.21,0.21-0.31,0.43-0.3,0.66s0.16,0.49,0.46,0.79c0.15,0.15,0.38,0.34,0.67,0.57l1.25-1.25
					l-0.69-0.69C65.62,10.97,65.16,10.94,64.73,11.37z"/>
				<path fill="#231F20" d="M62.82,7.51l1.79-1.78l0.62,0.51l-1.84,1.84l-0.84,3.51l-0.68-0.57l0.73-2.71l-2.74,0.7l-0.54-0.66
					L62.82,7.51z"/>
			</g>
		</g>
		<g id="PURGATORY">
			<path fill="#9A1C1F" d="M26.45,17.91c1.87,1.58,5.07,5.36,6.9,6.73c0.8,0.6,3.22,1.01,3.56,1.26c0.23,0.17,1.34,1.41,1.48,1.9
				c0.04,0.16,0.88,0.81,0.69,1.21c-0.21,0.16-1.23,0.54-1.52,1.15c-0.2,0.42-1.5,1.27-1.59,1.64c-0.71,1.07,1.05,2.4,2.9,3.3
				c0.31,0.15-1.02,0.86-0.73,0.93c1.03,0.71,2.13,1.41,3.34,0.27c0.27-0.26,0.29-0.25,0.53-0.53c0.34-0.36,0.78-0.39,1.12-0.75
				c0.45-0.26,1.31-0.66,1.73-0.66c0,0,0.04,0.66,0.35,0.94c3.02,2.1,5.31,1.94,5.91,2.16c-0.01,0.02-0.02,0.03-0.03,0.05
				c-1.33,2.69-2.83,6.74-2.43,8.47s1.21,3.05,1.9,3.63c0.09,0.08-0.46,0.52-0.61,0.74c-0.46,0.66-0.92,1.07-1.42,1.71
				c-0.16-0.14-0.42-0.93-0.55-1c-0.57-0.32-1.29,0.51-1.85,0.65c-0.6,0.08-1.3,0.07-1.84,0.37c-0.46,0.25-2.07,0.53-2.58,0.83
				c-0.51,0.3-0.97-0.07-1.59,0.28c-0.85,0.48-0.01,0.67-0.73,1.33c-0.38,0.35-2.03,1.3-2.03,1.67c-1.24,2.06-1.61,3.22-1.51,5.27
				c-1.32,0.4-2.43,1.21-3.4,2.29c-2.71,3.04-0.33,1.03,1.94,1.57c-1.25,2.14-1.44,2.65-0.37,2.05c0.41-0.24,1.64-0.58,2.07-0.79
				c-0.04,0.42,0.78,1.17,0.93,1.7c0.39,1.37,1.65,2.23,2.84,2.97c2.47,1.54,5.32,1.61,7.95,0.49c1.32-0.56,1.99-1.35,2.91-2.44
				c0.49-0.58,1.08-1.19,1.41-1.88c0.3-0.63,0.8-2.03,1.16-2.58c0.35-0.53,0.88-0.28,1.38-0.76c0.42-0.4,0.4-0.15,0.54-0.71
				c0.19-0.77,0.16-2,1.07-2.48c0.6-0.32,1.34-0.53,1.34-0.53s-0.5,2.99-1.01,4.77c-0.86,2.3-5.34,8.37-7.28,10.03
				c-1.66,1.43,2.58,0.08,4.24-1.21c0.32-0.24,3.12-1.56,3.4-1.83c-0.18,0.25-3.06,4.24-4.87,5.55c-1.61,1.16,4.19-1.23,5.51-1.82
				c3.38-1.53,6.64-3.28,9.79-5.25c0.24-0.15,2.19-1.35,2.43-1.49c0.45-0.28,0.9-0.57,1.34-0.86c3.87-2.49,7.26-5.3,10.78-8.28
				c1.97-1.67,3.22-3.27,4.87-5.26c1.3-1.57,2.69-3.14,3.73-5.29c0.56-1.15,1.29-2.84,1.22-3.11c-0.08-0.26-3.57,2.25-5.54,0.71
				c-0.32-0.24-1.25-1.65-1.66-1.72c-0.28-0.05-4.32,3.18-5.42,3.22c-0.96,0.52-1.95,0.97-2.95,1.37c-0.08,0-0.16,0.01-0.25,0.03
				c-0.44,0.08-0.87,0.14-1.3,0.18c-0.58-0.45-1.56-0.83-2.29-0.24c-0.68,0.07-1.02,0.7-1.26,1.17c-0.14,0-0.3,0.02-0.46,0.06
				c-0.06,0.02-0.12,0.03-0.17,0.05c-0.01-0.17-0.01-0.33,0.02-0.5c0.09-0.42,0.03-0.79-0.11-1.1c0.63-0.87,1.11-1.81,1.64-2.8
				c0.28-0.07,0.56-0.22,0.82-0.5c0.6-0.64,1.2-1.28,1.79-1.92c1.16-1.1,2.42-2.08,3.82-2.92c1.39-0.83,0.85-3.7-0.53-3.92
				c-4.79-3.3-3.89-6.1-4.18-6.74c0.24-1.39,0.13,1.24,0.19-0.15c0.03-0.84-0.05-1.65-0.33-2.45c-0.3-0.85-0.84-1.56-0.98-2.47
				c-0.09-0.56-0.65-1.14-1.19-1.19c-3.34-0.33-5.81-2.03-8.78-1.83c-0.65,0.03-1.57,0.2-2.19,0.38c-1.06,0.3-2.15,0.56-3.09,1.36
				c-2.69,1.6-5.02,2.89-7.47,3.93c-0.91,0.59-1.08-0.46-1.69-0.55c-1.61-0.22-1.85,0.97-3.63,0.69c-0.16-0.03-0.81-0.77-0.82-0.8
				c-0.11-0.28,0.5-0.67,0.37-0.94c0.96-0.6-0.02-1.1-1-1.71c-1.29-0.8-1.89-2.45-2.92-3.55c-0.49-0.53-1.23-0.64-1.89-0.93
				c-0.18-0.08-0.47-1.58-0.1-1.76c1.42-0.69,2.26-1.76,1.02-2.21c-2.28-1.17-4.35-2.63-5.17-1.56c-0.26,0.34-3.38,0.79-3.54,1.16
				c-0.06,2.15-0.16,2.89-0.42,2.72C25.15,15.67,24.58,16.33,26.45,17.91z"/>
			<path fill="#9A1C1F" d="M61.8,13.15c-4.89,3.76-11.1,8.55-11.64,8.99c-0.13,0.04-7.23,5.44-10.43,8.47
				c-1.62,1.54-3.55,3.02-5.64,4.25c-1.6,0.94-2.6,1.78-4.14,2.68c-1.61-1.23-4.03-3.18-5.66-3.84c-0.67-0.21-2.75,1.29-4.46,2.66
				c-2.73,2.2-6.09,4.76-8.5,6.36c-0.23-1.71-0.26-3.57-0.91-1.61c-0.76,2.28-2.24,4.85-3.54,6.87c-1.04,1.61-1.1,2.67,0.23,1.37
				c3.25-3.18,8.21-6.19,11.93-8.8c1.21-0.85,4.11-3.18,4.85-3.01c0.74,0.17,1.76,1.53,2.03,2.22c0.22,0.55-0.14,0.81,0.1,1.03
				c-2.65,2.5-4.42,4.3-7.23,6.66c-1.64,1.38-4.79,4.23-6.49,5.65c0.04-0.09,0.3-2.68,0.33-2.77c0.71-1.74-0.01-2.28-0.82-0.57
				c-1,2.1-2.33,4.65-3.58,6.74c-0.92,1.53-1.37,2.16-0.01,1.52c0.84-0.39,2.17-0.93,3.31-1.23c1.54-0.68,5.4-1.76,6.53-2.03
				c1.6-0.38-3.2,0.04-4.54-0.23c0.97-0.85,4.65-3.58,5.61-4.38c1.73-1.45,3.63-2.61,5.36-4.06c1.43-1.21,2.19-1.78,3.72-2.88
				c0.95,1.23,1.79,3.17,1.99,4.44c0.17,1.12-2.37,3.44-3.5,4.46c-3.21,2.88-6.95,6.49-10.34,9.15c-1.53,1.2-0.3,0.58,1.34-0.19
				c2.15-1,5.85-2.36,8.74-3.91c1.36-0.73-1.87,0.28-2.75-0.46c1.84-1.49,8.39-6.58,9.91-8.33c0.58-0.67,1.21-1.04,0.25-3.31
				c-0.66-1.55-1.41-3.4-2.08-4.83c1.24-0.71,2.07-1.12,3.19-2.06c1.71-1.44,3.9-2.63,5.52-4.17c3.37-3.2,4.54-3.9,7.72-6.58
				c0.25-0.22,3.81-3.05,3.93-3.13c3.8-2.91,6.79-5.01,10.53-8.18c0.25-0.24,0.55-0.52,0.88-0.81
				C62.97,14.56,62.39,13.85,61.8,13.15z"/>
			<path d="M73.73,31.94c0.38-1.41,0.58-2.85-0.25-4.19c-0.42-0.67-0.62-1.37-0.56-2.17c0.04-0.62-0.32-1.01-0.85-1.25
				c-0.79-0.36-1.63-0.57-2.5-0.55c-0.58,0.01-1.09-0.15-1.59-0.45c-1.05-0.62-2.2-1.03-3.43-0.99c-1.33,0.04-2.67,0.02-4,0.31
				c-0.82,0.18-1.6,0.41-2.29,0.87c-1.23,0.82-2.54,1.52-3.81,2.29c-1.33,0.82-2.81,1.36-4.2,2.07c-0.59,0.3-1.07,0.36-1.54-0.2
				c0.38-0.62,1.02-0.99,1.52-1.49c0.67-0.67,1.48-1.16,2.2-1.77c0.73-0.63,1.43-1.3,2.2-1.87c1.74-1.3,3.45-2.62,5.15-3.96
				c1.04-0.82,2.09-1.62,3.09-2.5c0.26-0.23,0.52-0.45,0.79-0.67c-0.02-0.02-0.04-0.03-0.06-0.06c-0.06-0.08-0.13-0.16-0.19-0.24
				c-1.49,1.23-2.94,2.5-4.48,3.68c-1.99,1.52-4.03,2.97-5.92,4.62c-1.57,1.37-3.34,2.5-4.81,3.99c-0.15,0.15-0.3,0.25-0.52,0.25
				c-0.49-0.02-0.95,0.09-1.4,0.3c-0.1,0.05-0.23,0.17-0.37,0.06c-0.03-0.1,0.05-0.15,0.1-0.21c0.32-0.43,0.84-0.61,1.25-0.93
				c1.15-0.89,2.31-1.77,3.45-2.68c0.62-0.5,1.19-1.05,1.78-1.57c-0.7,0.37-1.25,0.93-1.88,1.37c-1.09,0.75-2.16,1.53-3.19,2.36
				c-0.64,0.51-1.36,0.92-1.9,1.56c-0.43,0.5-1.07,0.4-1.42-0.18c-0.04-0.07-0.06-0.15-0.1-0.21c-0.08-0.12-0.15-0.26-0.32-0.22
				c-0.23,0.04-0.17,0.24-0.19,0.39c-0.01,0.09,0.02,0.2,0.05,0.29c0.18,0.58,1.05,1.03,1.71,0.89c0.47-0.1,0.93-0.23,1.37-0.43
				c0.41-0.19,0.85-0.28,1.29-0.22c0.38,0.05,0.81,0.08,0.97,0.56c0.01,0.03,0.11,0.04,0.16,0.04c0.21,0,0.31,0.15,0.45,0.27
				c0.12,0.11,0.24,0.21,0.38,0.3c0.08,0.05,0.2,0.06,0.27-0.03c0.06-0.06,0.06-0.14,0.03-0.23c-0.05-0.17-0.24-0.28-0.19-0.5
				c0.67-0.31,1.33-0.64,2.01-0.92c0.8-0.33,1.58-0.71,2.31-1.15c1.16-0.71,2.37-1.35,3.5-2.11c1.04-0.69,2.14-1.16,3.39-1.31
				c0.98-0.12,1.95-0.16,2.93-0.2c1.37-0.05,2.56,0.39,3.69,1.06c0.31,0.18,0.62,0.35,1,0.35c0.28,0.01,0.56,0.08,0.84,0.13
				l-0.01,0.09c-0.31,0.04-0.62,0.09-0.93,0.13c0.02,0.16,0.24,0.07,0.25,0.27c-0.45,0.19-0.99,0.1-1.44,0.34
				c0.13,0.02,0.26,0.01,0.4,0c0.29-0.01,0.16,0.17,0.14,0.3c0,0.01,0.03,0.03,0.04,0.03c0.18,0.09,1.19-0.01,1.21-0.14
				c0.06-0.36,0.31-0.29,0.54-0.32c0.44-0.06,0.93,0.05,1.25-0.39c0.04-0.05,0.19-0.05,0.29-0.04c0.56,0.09,0.99,0.67,0.97,1.26
				c-0.02,0.61,0.07,1.21,0.43,1.72c0.74,1.06,0.82,2.24,0.57,3.45c-0.17,0.8-0.43,1.59-0.6,2.39c-0.18,0.84-0.31,1.69-0.07,2.56
				c0.12,0.43,0.18,0.87,0.06,1.31c-0.3,1.15-0.67,2.26-1.22,3.32c-0.45,0.85-1.1,1.58-1.47,2.48c-0.12,0.3-0.23,0.57-0.24,0.91
				c-0.03,0.75-0.19,1.47-0.7,2.07c-0.31,0.36-0.63,0.73-0.95,1.09c-0.13,0.15-0.27,0.3-0.39,0.46c-0.06,0.08-0.11,0.18-0.01,0.27
				c0.1,0.09,0.22,0.08,0.33-0.01c0.03-0.02,0.05-0.07,0.08-0.09c0.65-0.51,1.15-1.17,1.65-1.82c0.35-0.46,0.53-0.99,0.45-1.57
				c-0.08-0.6,0.15-1.07,0.49-1.55c0.58-0.82,1.2-1.61,1.56-2.56c0.3-0.79,0.58-1.58,0.82-2.39c0.22-0.74,0.26-1.45,0.05-2.17
				c-0.15-0.51-0.16-1.03-0.07-1.55C73.25,33.51,73.52,32.73,73.73,31.94z"/>
			<path d="M91.78,45.93c-0.24-0.12-0.37,0.04-0.53,0.15c-1.05,0.72-2.11,1.37-3.5,1.16c-0.99-0.15-1.88-0.38-2.44-1.3
				c-0.11-0.19-0.26-0.36-0.38-0.54c-0.3-0.44-0.5-0.48-0.91-0.12c-0.45,0.4-0.86,0.85-1.39,1.14c-0.46,0.26-0.87,0.57-1.29,0.89
				c-0.21,0.16-0.42,0.29-0.65,0.42c-0.7,0.39-1.45,0.68-2.17,1.03c-1.03,0.5-2.13,0.69-3.26,0.74c-0.6,0.03-1.15-0.13-1.67-0.42
				c-0.33-0.19-0.57-0.15-0.84,0.13c-0.32,0.33-0.68,0.62-1.05,0.89c-0.36,0.25-0.72,0.51-1.25,0.61c0.21-0.56,0.4-1.04,0.59-1.52
				c0.03-0.07,0.08-0.14,0.13-0.19c0.38-0.39,0.69-0.84,0.97-1.29c1.16-1.83,2.78-3.2,4.4-4.57c0.72-0.61,1.53-1.09,2.18-1.78
				c-1.08,0.48-2.06,1.11-2.99,1.84c-0.09,0.07-0.17,0.2-0.28,0.23c-0.65,0.15-1.21,0.52-1.84,0.71c-0.19,0.06-0.38,0.13-0.56,0.2
				c0.18,0.2-0.13,0.33-0.08,0.56c0.05,0.19-0.17,0.28-0.35,0.17c-0.33-0.2-0.35-0.73,0-0.95c0.56-0.34,1.09-0.72,1.74-0.91
				c0.39-0.12,0.77-0.3,1.19-0.47c-0.69-0.12-1.21,0.15-1.73,0.44c-0.26,0.15-0.53,0.35-0.81,0.37c-0.53,0.04-0.66,0.42-0.84,0.79
				c-0.1,0.2-0.18,0.4-0.24,0.61c-0.32,1.14-0.73,2.25-1.14,3.35c-0.29,0.77-0.49,1.57-0.82,2.32c-0.17,0.38-0.25,0.41-0.62,0.22
				c-0.15-0.07-0.27-0.17-0.36-0.3c-0.16-0.23-0.33-0.18-0.49,0c-0.23,0.25-0.41,0.56-0.68,0.76c-0.47,0.34-0.88,0.95-1.61,0.49
				c-0.15-0.09-0.25,0.02-0.26,0.2c-0.01,0.22,0.12,0.33,0.28,0.43c0.33,0.2,0.65,0.12,0.98-0.01c0.24-0.1,0.41-0.31,0.68-0.37
				c0.03,0.7-0.3,1.54-0.87,2.24c-0.13-0.08-0.25-0.24-0.14-0.33c0.3-0.25,0.12-0.56,0.17-0.86c-0.87,0.64-1.87,1-2.8,1.49
				c0.02,0.04,0.03,0.08,0.05,0.11c0.78-0.35,1.55-0.7,2.33-1.05c0.02,0.04,0.04,0.08,0.05,0.12c-0.94,0.61-1.94,1.13-2.93,1.68
				c0.95-0.2,1.75-0.75,2.61-1.18c-0.19,0.26-0.43,0.45-0.71,0.59c-0.57,0.3-1.13,0.6-1.75,0.78c-0.29,0.09-0.43,0.26-0.43,0.57
				c0,0.32-0.05,0.64-0.12,0.95c-0.07,0.31-0.09,0.64-0.09,0.96c0,0.26,0.14,0.34,0.4,0.28c0.2-0.05,0.36-0.17,0.52-0.29
				c0.52-0.38,1.06-0.74,1.57-1.15c-0.09,0.24-0.2,0.45-0.34,0.64c-0.92,1.19-1.54,2.52-1.98,3.95c-0.41,1.32-0.91,2.61-1.44,3.89
				c-0.1,0.24-0.2,0.48-0.3,0.72c-0.08,0.2-0.14,0.41,0.07,0.54c0.21,0.13,0.31-0.08,0.44-0.2c0.73-0.64,1.34-1.38,2-2.08
				c0.24-0.25,0.49-0.49,0.75-0.75c0.06,0.17-0.05,0.25-0.12,0.33c-0.46,0.56-0.91,1.12-1.37,1.68c-0.85,1.04-1.69,2.11-2.69,2.99
				c-0.57,0.5-0.74,1.11-0.97,1.74c-0.03,0.09-0.05,0.2,0.03,0.28c0.1,0.09,0.22,0.07,0.33,0c0.35-0.2,0.71-0.38,1.04-0.6
				c0.87-0.6,1.71-1.26,2.6-1.83c2.15-1.39,4-3.15,6-4.72c0.96-0.75,1.93-1.51,2.79-2.38c0.13-0.13,0.27-0.27,0.57-0.24
				c-1.22,1.29-2.42,2.5-3.69,3.63c-0.94,0.84-1.92,1.64-2.89,2.45c-1.88,1.57-3.78,3.1-5.81,4.48c-0.11,0.08-0.23,0.17-0.31,0.28
				c-0.17,0.26-0.25,0.56-0.1,0.85c0.16,0.31,0.46,0.15,0.7,0.13c0.39-0.03,0.7-0.3,1.06-0.41c1.07-0.34,2.08-0.85,3.08-1.34
				c2.79-1.37,5.49-2.9,8.11-4.57c0.13-0.08,0.24-0.19,0.44-0.2c-0.02,0.15-0.11,0.19-0.19,0.25c-0.69,0.51-1.43,0.96-2.15,1.42
				c-2.17,1.4-4.36,2.78-6.61,4.05c-0.57,0.33-1.16,0.63-1.7,1.02c-0.38,0.27-0.84,0.36-1.24,0.61c-1.58,0.99-3.25,1.82-4.98,2.52
				c-1.3,0.53-2.6,1.04-3.91,1.55c-0.16,0.06-0.32,0.17-0.52,0.07c0.27-0.44,0.73-0.64,1.07-0.97c1.9-1.81,3.55-3.8,4.81-6.11
				c0.99-1.81,1.8-3.66,2.21-5.68c0.28-1.36,0.41-2.74,0.45-4.12c0.03-0.9-0.04-1.8-0.08-2.7c-0.01-0.14,0.13-0.36-0.11-0.41
				c-0.21-0.04-0.3,0.16-0.37,0.33c-0.03,0.07-0.08,0.14-0.1,0.22c-0.09,0.37-0.35,0.47-0.68,0.42c-0.36-0.06-0.72-0.06-1.08-0.05
				c-0.67,0.02-1.03,0.42-0.99,1.08c0.02,0.46,0.01,0.49-0.42,0.66c-0.2,0.08-0.42,0.15-0.63,0.18c-0.75,0.13-1.21,0.54-1.4,1.29
				c-0.11,0.41-0.16,0.82-0.17,1.25c-0.02,0.63-0.09,0.69-0.64,0.83c-0.17,0.04-0.35,0.08-0.52,0.16c-0.43,0.2-0.91,0.35-0.86,0.98
				c0.01,0.08-0.05,0.25-0.15,0.22c-0.57-0.19-0.19,0.32-0.34,0.44c0.07-0.03,0.14-0.1,0.2-0.1c0.11,0.01,0.1,0.11,0.06,0.19
				c-0.1,0.22-0.19,0.44-0.31,0.65c-0.55,0.9-1.18,1.74-1.89,2.58c0.05-0.37,0.15-0.49,0.55-1.08c0.5-0.73,0.98-1.47,1.39-2.26
				c-0.13,0.12-0.3,0.22-0.39,0.37c-0.27,0.47-0.68,0.84-0.95,1.3c-0.07,0.13-0.16,0.17-0.3,0.09c0.03-0.26,0.26-0.43,0.34-0.75
				c-0.44,0.48-0.62,1.07-1.08,1.46c-0.25-0.21-0.11-0.58-0.45-0.84c0.25,0.97,0.25,1.82-0.44,2.56c0.19-0.02,0.25-0.15,0.35-0.21
				c0.07-0.04,0.14-0.08,0.21,0.01c0.07,0.09,0.01,0.15-0.05,0.21c-1.25,1.38-2.81,2.16-4.63,2.45c-0.79,0.13-1.56,0-2.32-0.16
				c-0.83-0.17-1.62-0.46-2.34-0.9c-1.03-0.64-1.89-1.48-2.71-2.36c-0.35-0.39-0.65-0.81-0.91-1.27c-0.6-1.07-0.69-0.93,0.6-1.11
				c0.33-0.05,0.53,0.05,0.74,0.34c0.48,0.66,1.23,0.79,1.93,0.43c0.12-0.06,0.2-0.13,0.11-0.31c-0.66,0.12-1.3,0.16-1.76-0.49
				c1.19-0.44,1.14-1.24,0.88-2.08c-0.17-0.56-0.56-0.78-1.05-0.66c0.52,0.61,0.67,0.92,0.7,1.4c0.02,0.46-0.17,0.72-0.61,0.84
				c-0.13,0.03-0.28,0.05-0.42,0.06c-0.87,0.04-1.7,0.23-2.53,0.49c-0.21,0.07-0.43,0.2-0.72,0.09c0.54-0.77,1.39-1.01,2.12-1.47
				c-0.17-0.09-0.29-0.07-0.43-0.03c-1.21,0.33-1.96,1.26-2.73,2.13c-0.09-0.05-0.1-0.09-0.07-0.13c1-1.48,2.2-2.73,3.88-3.45
				c0.31-0.13,0.62-0.28,0.93-0.42c0.12-0.06,0.24-0.18,0.15-0.27c-0.27-0.26-0.16-0.49-0.01-0.75c0.07-0.12,0.04-0.26-0.06-0.38
				c-0.28,0.23-0.46,0.54-0.58,0.88c-0.07,0.19-0.18,0.3-0.36,0.37c-0.5,0.2-0.99,0.42-1.42,0.76c-0.2,0.16-0.38,0.08-0.45-0.16
				c-0.05-0.17-0.05-0.36-0.07-0.54c-0.01-0.1,0-0.21-0.14-0.22c-0.09-0.01-0.17,0.05-0.19,0.13c-0.07,0.26-0.22,0.26-0.46,0.22
				c-0.25-0.05-0.52-0.01-0.76,0.1c-0.92,0.4-1.66,1.02-2.25,1.83c-0.07,0.09-0.14,0.13-0.25,0.04c0.12-0.45,0.39-0.82,0.69-1.18
				c0.73-0.88,1.59-1.58,2.61-2.08c0.55-0.27,0.54-0.28,0.8,0.23c0.01,0.01,0.07,0,0.13,0c0.05-0.43,0.1-0.86,0.17-1.29
				c0.06-0.43,0.02-0.88,0.31-1.41c0.08,0.71,0.42,1.08,1,1.45c-0.17-0.4-0.29-0.67-0.39-0.95c-0.25-0.71-0.4-1.43-0.17-2.18
				c0.25-0.81,0.72-1.47,1.38-1.99c0.41-0.32,0.82-0.64,1.23-0.96c0.24-0.19,0.4-0.43,0.48-0.74c0.21-0.85,0.35-0.94,1.22-0.79
				c0.1,0.02,0.2,0.02,0.3,0.04c0.34,0.06,0.7-0.01,0.89-0.25c0.34-0.42,0.82-0.48,1.27-0.62c0.59-0.18,0.63-0.14,0.9,0.42
				c0.46,0.93,0.88,1.88,1.44,2.76c0.08,0.12,0.12,0.26,0.25,0.33c0.14,0.08,0.31,0.15,0.44,0c0.1-0.12-0.04-0.21-0.1-0.31
				c-0.06-0.08-0.11-0.17-0.16-0.25c-0.31-0.49-0.31-0.49,0.05-0.93c0.23-0.28,0.47-0.55,0.68-0.84c0.2-0.29,0.1-0.49-0.25-0.54
				c-0.26-0.04-0.52,0.07-0.77,0.07c-0.27,0-0.48,0.31-0.74,0.15c-0.25-0.16-0.26-0.49-0.37-0.74c-0.2-0.45-0.12-0.64,0.37-0.67
				c0.53-0.03,1.02-0.17,1.49-0.41c0.11-0.05,0.23-0.08,0.34-0.12c0.66-0.21,1.14,0.08,1.27,0.78c0.04,0.2,0.05,0.4,0.09,0.6
				c0.14,0.83,0.23,1.67,0.45,2.48c0.47,1.68,1.16,3.29,1.66,4.95c0.24,0.78,0.21,0.97-0.41,1.51c-0.55,0.47-1.08,0.96-1.47,1.58
				c-0.11,0.17-0.2,0.35-0.27,0.53c-0.03,0.07-0.03,0.17,0.05,0.22c0.09,0.06,0.2,0.04,0.27-0.04c0.1-0.13,0.17-0.27,0.26-0.4
				c0.16-0.21,0.32-0.26,0.54-0.04c0.21,0.22,0.39,0.46,0.5,0.74c0.36,0.95,0.17,1.21-0.58,1.6c-0.91,0.47-1.92,0.69-2.79,1.25
				c-0.99,0.63-2.04,1.2-2.8,2.13c-0.07,0.08-0.13,0.21-0.32,0.16c-0.08-0.59-0.08-1.18,0.1-1.76c0.39-1.25,0.85-2.47,1.91-3.34
				c0.08-0.07,0.14-0.15,0.06-0.26c-0.08-0.09-0.17-0.07-0.27-0.03c-0.36,0.16-0.61,0.44-0.87,0.73c-0.08,0.09-0.1,0.32-0.29,0.22
				c-0.17-0.09-0.04-0.25,0-0.37c0.08-0.25,0.18-0.49,0.26-0.74c0.03-0.1,0.14-0.22-0.02-0.31c-0.14,0.01-0.14,0.12-0.18,0.21
				c-0.42,1.08-0.82,2.17-1.27,3.24c-0.15,0.36,0.06,0.72-0.12,1.05c-0.01,0.02,0.05,0.12,0.09,0.14c0.19,0.08,0.11,0.22,0.11,0.36
				c-0.01,0.5-0.01,1-0.01,1.5c0,0.15-0.03,0.34,0.18,0.4c0.2,0.05,0.28-0.09,0.37-0.23c0.57-0.84,1.31-1.49,2.16-2.06
				c1.03-0.68,2.09-1.26,3.28-1.6c0.32-0.09,0.68-0.14,0.94-0.32c0.77-0.53,0.92-1.28,0.51-2.16c-0.22-0.47-0.48-0.87-1.04-1.05
				c0.27-0.3,0.42-0.62,0.81-0.64c0.12-0.01,0.21-0.07,0.23-0.16c0.05-0.31,0.28-0.47,0.47-0.67c0.27-0.29,0.33-0.64,0.26-1.01
				c-0.05-0.23-0.14-0.46-0.21-0.69c-0.07-0.21-0.1-0.42,0.01-0.64c0.53-1.03,0.92-2.13,1.26-3.24c0.32-1.06,0.57-2.13,0.65-3.23
				c0.01-0.12,0.01-0.19-0.11-0.21c-0.2,0.08-0.09,0.38-0.21,0.4c-0.43,0.04-0.42,0.43-0.58,0.66c-0.37,0.55-0.68,1.13-1.05,1.68
				c-0.3,0.44-0.58,0.91-1.02,1.23c-0.19-0.13-0.2-0.3-0.2-0.47c-0.03-0.03-0.07-0.05-0.08-0.08c-0.51-1.18-0.6-2.44-0.75-3.69
				c-0.01-0.13,0.01-0.24,0.12-0.32c0.4-0.29,0.64-0.72,0.94-1.09c0.82-1,1.46-2.1,1.9-3.32c0.24-0.67,0.38-1.31,0.15-2.04
				c-0.28-0.91-0.01-1.83,0.17-2.73c0.12-0.57,0.34-1.12,0.55-1.72c-0.49,0.29-0.78,0.6-0.94,1.23c-0.27,1.11-0.53,2.22-0.31,3.38
				c0.05,0.25,0.05,0.45-0.26,0.57c-0.3,0.11-0.57,0.3-0.81,0.51c-0.09,0.08-0.19,0.16-0.07,0.33c0.39-0.2,0.74-0.51,1.23-0.51
				c0.01,0.06,0.04,0.12,0.03,0.17c-0.19,0.63-0.39,1.26-0.7,1.85c-0.22,0.41-0.27,0.42-0.57,0.07c-1.14-1.35-1.72-2.88-1.39-4.66
				c0.15-0.8,0.21-1.64,0.9-2.23c0.12-0.1,0.16-0.27,0.18-0.44c0.09-0.7,0.37-1.35,0.59-2.01c0.19-0.58,0.59-1.04,0.8-1.61
				c0.13-0.37,0.13-0.38-0.27-0.44c-1.93-0.27-3.73-0.9-5.33-2.04c-0.24-0.17-0.49-0.33-0.62-0.63c0.21-0.16,0.44-0.15,0.65-0.16
				c0.75-0.01,1.47-0.19,2.18-0.39c0.91-0.25,1.82-0.43,2.76-0.45c1.1-0.03,2.18-0.17,3.28-0.19c1.1-0.02,2.2-0.09,3.29-0.25
				c0.48-0.07,0.49-0.05,0.54,0.46c-0.4-0.11-0.56,0-0.64,0.39c-0.03,0.14,0,0.38-0.28,0.39c-0.04,0-0.13,0.08-0.12,0.11
				c0.1,0.37-0.28,0.4-0.38,0.58c-0.2,0.35-0.76,0.26-0.79,0.73c-0.27,0.09-0.5,0.24-0.57,0.55c-0.01,0.06-0.09,0.1-0.14,0.06
				c-0.3-0.21-0.36,0.08-0.4,0.23c-0.1,0.3-0.14,0.62-0.2,0.93c0,0,0,0,0,0c-0.42-0.07-0.02-0.43-0.2-0.65
				c-0.34,0.5-0.77,0.84-1.18,1.21c-2.07,1.87-2.99,4.25-3.03,7c0,0.15-0.03,0.33,0.2,0.37c0.13-0.12,0.17-0.28,0.19-0.43
				c0.09-0.57,0.19-1.14,0.26-1.72c0.24-1.94,1.27-3.44,2.62-4.73c0.5,0.19,0.03,0.59,0.23,0.85c0.22-0.06,0.27-0.24,0.37-0.39
				c0.27-0.4,0.52-0.81,0.85-1.16c0.1-0.11,0.27-0.33,0.37-0.25c0.33,0.25,0.27-0.03,0.32-0.18c0.05-0.16,0.2-0.34,0.33-0.2
				c0.16,0.17,0.19,0.25,0.24-0.03c0.02-0.14,0-0.29,0.2-0.32c0.22-0.03,0.13,0.24,0.25,0.31c0.14-0.16,0.04-0.34,0.13-0.48
				c0.07-0.1,0.15-0.1,0.24-0.05c0.02-0.05,0.05-0.09,0.07-0.14c0.08-0.23,0.17-0.18,0.28-0.04c0.14-0.41,0.29-0.82,0.43-1.23
				c0.13,0.6,0.04,1.19,0.02,1.76c-0.03,0.82-0.08,1.64-0.11,2.46c-0.01,0.39,0.11,0.75,0.24,1.11c0.06,0.16,0.12,0.38,0.36,0.31
				c0.23-0.07,0.12-0.27,0.09-0.41c-0.18-0.99-0.19-1.99-0.08-2.99c0.18-1.59,0.76-2.97,2-4.03c0.15-0.13,0.34-0.26,0.41-0.43
				c0.11-0.26,0.31-0.29,0.52-0.34c0.6-0.15,1.23-0.2,1.8-0.46c0.12-0.05,0.25-0.15,0.39-0.05c0.12,0.14-0.07,0.31,0.06,0.45
				c0.12-0.02,0.18-0.13,0.17-0.22c-0.04-0.39,0.2-0.49,0.51-0.6c1-0.35,1.93-0.86,2.91-1.27c0.55-0.23,0.97-0.62,1.25-1.16
				c-0.17-0.01-0.29,0.08-0.4,0.15c-0.54,0.39-1.14,0.67-1.76,0.9c-0.47,0.18-0.92,0.4-1.38,0.58c-0.84,0.33-1.66,0.72-2.53,0.95
				c-0.8,0.22-1.64,0.38-2.48,0.45c-1.2,0.1-2.4,0.21-3.59,0.26c-0.74,0.04-1.47,0.18-2.21,0.2c-0.88,0.02-1.76,0.02-2.64,0.13
				c-0.74,0.09-1.47,0.17-2.21,0.25c-0.12,0.01-0.27,0.06-0.31-0.09c-0.04-0.13,0.08-0.21,0.19-0.28c0.39-0.24,0.39-0.24,0.23-0.65
				c-0.38,0.02-0.76,0.02-1.14,0.05c-0.68,0.06-1.37-0.02-2.05,0.16c0.27,0.13,0.57,0.14,0.87,0.14c0.31,0,0.64-0.09,0.94,0.05
				c-0.5,0.17-1.02,0.18-1.53,0.19c-0.3,0.01-0.6,0-1.03,0c0.49,0.27,0.93,0.04,1.31,0.27c-0.2,0.15-0.44,0.04-0.57,0.23
				c0.17,0.09,0.37,0,0.69,0.1c-0.4,0.1-0.66,0.17-0.94,0.19c-0.18,0.01-0.4,0.03-0.51,0.13c-0.21,0.19-0.46,0.24-0.7,0.3
				c-0.66,0.16-1.22,0.5-1.73,0.93c-0.4,0.34-0.81,0.65-1.19,1.02c-0.38,0.38-0.85,0.47-1.39,0.34c-0.55-0.13-1.03-0.41-1.58-0.55
				c0.07-0.3,0.33-0.3,0.51-0.41c0.49-0.3,0.99,0.02,1.53,0.02c-0.37-0.36-0.54-0.5-1.1-0.63c-0.94-0.21-1.75-0.66-2.5-1.25
				c-0.41-0.32-0.54-0.78-0.77-1.2c-0.09-0.16-0.01-0.36,0.09-0.51c0.19-0.28,0.43-0.53,0.73-0.7c0.14-0.08,0.23-0.08,0.35,0.06
				c1.12,1.29,1.17,1.31,2.67,1.8c-0.06-0.14-0.18-0.21-0.28-0.3c-0.52-0.47-1.06-0.91-1.56-1.41c-0.64-0.63-0.59-1.1,0.13-1.64
				c0.19-0.14,0.4-0.26,0.62-0.37c0.16-0.08,0.29-0.1,0.34,0.15c0.19,0.81,0.71,1.39,1.38,1.82c0.47,0.3,0.93,0.68,1.59,0.76
				c-0.4-0.44-0.75-0.8-1.18-1.11c-0.47-0.34-0.87-0.77-1.14-1.3c-0.25-0.51-0.12-0.85,0.44-1.17c0.38-0.22,0.44-0.2,0.8,0.35
				c0.53,0.81,1.18,1.47,2.05,1.89c0.16,0.08,0.31,0.15,0.49,0.02c-0.24-0.24-0.46-0.48-0.7-0.69c-0.49-0.42-0.92-0.9-1.29-1.42
				c-0.14-0.2-0.24-0.39-0.23-0.65c0-0.28,0.03-0.51,0.25-0.69c0.34-0.28,0.62-0.68,1.07-0.72c0.36-0.03,0.78-0.05,1.1,0.2
				c0.27,0.21,0.46,0.13,0.69-0.04c0.55-0.43,1.13-0.82,1.67-1.27c1.89-1.55,3.85-3.01,5.81-4.46c1.22-0.9,2.4-1.87,3.63-2.76
				c1.53-1.11,2.99-2.29,4.41-3.52c0.61-0.53,1.26-1.01,1.9-1.49c-0.09-0.1-0.17-0.21-0.26-0.31c-0.3,0.22-0.59,0.44-0.88,0.67
				c-0.5,0.4-0.98,0.83-1.48,1.23c-1.37,1.1-2.74,2.21-4.16,3.26c-1.16,0.86-2.3,1.74-3.45,2.6c-0.64,0.48-1.31,0.92-1.95,1.41
				c-1.72,1.32-3.42,2.64-5.12,3.98c-0.26,0.21-0.46,0.28-0.8,0.11c-0.45-0.22-1.01-0.35-1.45-0.12c-0.62,0.34-1.24,0.76-1.56,1.45
				c-0.06,0.13-0.12,0.27-0.26,0.3c-0.5,0.12-0.9,0.4-1.27,0.74c-0.09-0.18-0.13-0.35-0.24-0.45c-0.57-0.5-0.88-1.19-1.35-1.76
				c-0.28-0.33-0.59-0.69-1.01-0.83c-0.82-0.28-1.59-0.68-2.43-0.88c-1.17-0.27-2.1-0.86-2.63-1.99c-0.07-0.14-0.16-0.28-0.24-0.42
				c-0.27-0.46-0.64-0.82-1.12-1.06c-0.49-0.25-0.9-0.59-1.24-1.02c-0.42-0.54-0.87-1.05-1.41-1.48c-0.39-0.31-0.75-0.67-1.07-1.05
				c-0.21-0.25-0.49-0.46-0.6-0.87c0.71,0.27,1.27,0.7,1.91,1c0.08,0.04,0.19,0.07,0.22,0.19c-0.08,0.16-0.22-0.03-0.32,0.04
				c-0.07,0.05-0.12,0.12-0.1,0.2c0.04,0.16,0.63,0.3,0.68,0.17c0.06-0.16,0.09-0.28,0.27-0.15c0.11,0.08,0.33,0.15,0.14,0.36
				c-0.11,0.12-0.05,0.22,0.05,0.3c0.09,0.08,0.17,0.03,0.27-0.02c0.28-0.14,0.38-0.08,0.42,0.19c0.01,0.08-0.02,0.17,0.01,0.23
				c0.06,0.14,0.11,0.37,0.3,0.31c0.23-0.07,0.08-0.26,0.03-0.4c-0.02-0.05,0-0.08,0.08-0.1c0.21,0,0.35,0.22,0.57,0.25
				c0.4,0.07,0.26,0.29,0.16,0.5c0.27,0.19,0.27,0.62,0.57,0.73c0.26,0.09,0.35,0.27,0.42,0.46c0.12,0.35,0.34,0.53,0.73,0.56
				c-0.01-0.38-0.12-0.8-0.41-0.94c-0.29-0.14-0.41-0.46-0.73-0.55c-0.14-0.04-0.26-0.24-0.22-0.47c0.47,0.21,0.95,0.48,1.19,0.88
				c0.32,0.53,0.57,1.14,0.56,1.8c0,0.08-0.01,0.16-0.01,0.24c0,0.07,0.07,0.09,0.13,0.1c0.07,0.01,0.12-0.01,0.14-0.08
				c0.05-0.16,0.02-0.32-0.01-0.47c-0.08-0.39-0.21-0.77-0.38-1.15c0.24-0.02,0.45-0.03,0.66-0.05c-0.21,1.13,0.53,2.04,1.6,2.49
				c0.03-0.27-0.09-0.46-0.27-0.64c-0.16-0.16-0.32-0.31-0.46-0.48c-0.26-0.32-0.47-0.68-0.35-1.1c0.08-0.27,0.12-0.55,0.19-0.82
				c0.16-0.62,0.44-1.12,1.19-1.16c0.23-0.01,0.46-0.13,0.69-0.19c0.13-0.03,0.26-0.12,0.39,0c0.06,0.12-0.02,0.19-0.06,0.28
				c-0.17,0.34-0.33,0.69-0.4,1.07c-0.11,0.55,0.03,1.08,0.41,1.44c0.36,0.35,0.82,0.63,1.34,0.77c0.6,0.16,1.22,0.25,1.83,0.36
				c0.44,0.08,0.66,0.34,0.64,0.78c-0.01,0.16-0.06,0.31-0.11,0.47c-0.12,0.34-0.31,0.65-0.53,0.94c-0.12,0.16-0.24,0.32-0.1,0.54
				c0.66-0.4,0.84-1.07,1.08-1.7c0.25-0.66,0.09-1.09-0.5-1.48c-0.1-0.06-0.26-0.1-0.26-0.23c0-0.42-0.31-0.71-0.47-1.11
				c0.9,0.16,1.25,0.77,1.42,1.51c0.14,0.63,0.48,1.09,1.03,1.41c0.33,0.19,0.62,0.43,0.89,0.71c0.36,0.38,0.84,0.62,1.29,0.87
				c0.09,0.05,0.19,0.08,0.28,0.09c0.12,0.02,0.24-0.01,0.31-0.13c0.08-0.14-0.02-0.23-0.11-0.3c-0.08-0.06-0.16-0.12-0.25-0.17
				c-0.5-0.27-0.94-0.61-1.36-0.99c-0.27-0.24-0.55-0.46-0.86-0.66c-0.38-0.24-0.64-0.58-0.73-1.05c-0.16-0.81-0.58-1.45-1.36-1.78
				c-0.26-0.11-0.53-0.17-0.8-0.26c-0.6-0.2-0.79-0.64-0.51-1.21c0.3-0.6,0.68-1.1,1.44-1.09c0.08,0,0.16,0,0.24-0.02
				c0.21-0.05,0.33-0.21,0.25-0.4c-0.15-0.39-0.24-0.82-0.6-1.09c-0.44-0.32-0.88-0.65-1.43-0.74c-0.42-0.07-0.74-0.29-1.07-0.51
				c-0.35-0.24-0.68-0.5-1.04-0.72c-0.38-0.23-0.81-0.38-1.25-0.4c-0.37-0.02-0.58,0.32-0.83,0.55c-0.12,0.11-0.22,0.24-0.41,0.23
				c-0.97-0.08-1.84,0.32-2.74,0.59c-0.68,0.2-0.92,0.61-0.88,1.3c0.03,0.53,0.09,1.07,0.14,1.63c-0.45-0.02-0.77-0.25-1.05-0.48
				c-0.63-0.51-1.35-0.87-2.03-1.29c-0.55-0.34-1.12-0.61-1.79-0.66c-0.22-0.01-0.41-0.01-0.5,0.2c-0.09,0.2,0.05,0.36,0.19,0.47
				c0.17,0.14,0.35,0.25,0.48,0.44c0.29,0.46,0.64,0.87,1.02,1.26c0.69,0.7,1.45,1.33,2.07,2.1c0.37,0.46,0.82,0.83,1.34,1.1
				c0.27,0.14,0.49,0.34,0.7,0.56c0.26,0.28,0.45,0.61,0.65,0.94c0.35,0.56,0.68,1.16,1.33,1.43c1.04,0.42,2.09,0.81,3.14,1.19
				c0.67,0.24,1.3,0.52,1.72,1.14c0.43,0.64,0.78,1.35,1.5,1.77c-0.1,0.06-0.14,0.11-0.19,0.13c-0.77,0.31-1.41,0.76-1.69,1.59
				c-0.06,0.17-0.18,0.27-0.32,0.34c-0.46,0.2-0.73,0.61-1.07,0.95c-0.26,0.26-0.29,0.56-0.19,0.89c0.04,0.15,0.12,0.3,0.19,0.44
				c0.19,0.42,0.2,0.43-0.17,0.68c-0.38,0.26-0.78,0.49-1.16,0.75c-1.22,0.85-2.43,1.7-3.64,2.55c-0.51,0.36-0.52,0.35-1.02-0.03
				c-0.1-0.07-0.18-0.16-0.27-0.24c-0.3-0.27-0.57-0.58-0.9-0.79c-1.36-0.87-2.54-2.02-4.16-2.46c-0.28-0.07-0.52-0.13-0.73-0.01
				c-0.76,0.44-1.54,0.87-2.2,1.46c-0.31,0.28-0.62,0.56-0.98,0.79c-1.85,1.2-3.53,2.64-5.31,3.94c-1,0.73-1.96,1.53-2.93,2.3
				c-0.17,0.14-0.34,0.27-0.62,0.29c-0.16-0.6-0.2-1.22-0.22-1.83c-0.01-0.2,0-0.4-0.08-0.59c-0.1-0.25-0.26-0.29-0.43-0.07
				c-0.17,0.22-0.29,0.47-0.4,0.74c-0.35,0.87-0.73,1.73-1.14,2.58c-1.15,2.41-2.59,4.66-3.83,7.02c-0.13,0.25-0.25,0.5-0.36,0.75
				c-0.04,0.09-0.02,0.2,0.09,0.26c0.08,0.04,0.16,0.03,0.23-0.01c0.2-0.1,0.34-0.27,0.49-0.43c0.63-0.67,1.29-1.32,2.04-1.87
				c1.21-0.9,2.41-1.79,3.62-2.68c2.16-1.59,4.23-3.32,6.48-4.79c0.35-0.23,0.71-0.46,1.05-0.71c1.35-0.97,2.79-1.81,4.17-2.73
				c0.25-0.17,0.43-0.13,0.64,0.05c0.59,0.52,1.15,1.05,1.62,1.69c0.35,0.48,0.4,0.73-0.03,1.12c-0.9,0.83-1.65,1.8-2.59,2.59
				c-0.78,0.66-1.46,1.43-2.21,2.12c-1.41,1.28-2.82,2.56-4.26,3.81c-1.19,1.04-2.43,2.03-3.62,3.08c-0.06,0.05-0.12,0.1-0.24,0.04
				c-0.07-0.15-0.02-0.33,0.01-0.5c0.22-1.18,0.23-2.39,0.42-3.58c0.01-0.08,0.04-0.16,0.04-0.24c0.01-0.13-0.05-0.24-0.18-0.28
				c-0.13-0.04-0.27,0.04-0.3,0.14c-0.07,0.31-0.31,0.51-0.46,0.77c-0.75,1.35-1.51,2.69-2.22,4.05c-0.89,1.73-1.71,3.49-2.64,5.2
				c-0.04,0.07-0.07,0.15-0.11,0.22c-0.06,0.11-0.08,0.24,0,0.34c0.11,0.12,0.26,0.09,0.38,0.01c0.24-0.14,0.49-0.28,0.74-0.39
				c1.21-0.53,2.49-0.88,3.75-1.3c1.94-0.64,3.93-1.12,5.89-1.69c0.37-0.11,0.73-0.22,1.1-0.31c0.22-0.05,0.55,0.02,0.52-0.33
				c-0.03-0.32-0.35-0.28-0.57-0.29c-0.52-0.04-1.04,0.05-1.56,0.08c-0.98,0.06-1.96,0.07-2.94,0.09c-0.14,0-0.32,0.11-0.42-0.1
				c0.04-0.15,0.17-0.22,0.28-0.3c1.1-0.81,2.12-1.7,3.23-2.5c1.17-0.84,2.31-1.72,3.48-2.56c0.77-0.54,1.48-1.16,2.26-1.68
				c0.58-0.39,1.07-0.91,1.67-1.27c0.45-0.27,0.86-0.59,1.27-0.91c0.54-0.41,1.07-0.85,1.61-1.26c0.35-0.26,0.41-0.23,0.6,0.16
				c0.07,0.14,0.16,0.28,0.23,0.42c0.58,1.04,0.94,2.16,1.24,3.31c0.09,0.33,0.02,0.61-0.2,0.9c-0.9,1.16-1.93,2.2-3.02,3.17
				c-1.23,1.09-2.39,2.26-3.66,3.31c-1.03,0.86-1.99,1.8-3,2.68c-1.51,1.32-3.02,2.64-4.63,3.84c-0.1,0.07-0.2,0.14-0.26,0.24
				c-0.07,0.1-0.08,0.23,0,0.34c0.07,0.09,0.18,0.08,0.28,0.06c0.08-0.02,0.16-0.04,0.23-0.07c2.03-0.81,4.07-1.59,6.08-2.45
				c1.49-0.64,2.94-1.37,4.4-2.07c0.49-0.23,0.97-0.49,1.45-0.73c0.15-0.08,0.28-0.18,0.22-0.37c-0.07-0.21-0.22-0.15-0.39-0.13
				c-0.99,0.09-1.99,0.17-2.99,0.25c-0.08,0.01-0.16-0.01-0.19-0.16c0.64-0.56,1.34-1.1,2.01-1.67c1.51-1.32,3.05-2.6,4.58-3.9
				c0.53-0.45,1.03-0.94,1.57-1.39c0.46-0.39,0.95-0.73,1.42-1.1c0.29-0.23,0.5-0.52,0.52-0.91c0.03-0.5-0.02-1-0.1-1.49
				c-0.2-1.18-0.71-2.24-1.24-3.31c-0.3-0.61-0.65-1.2-0.89-1.84c-0.18-0.48-0.19-0.48,0.21-0.76c0.71-0.49,1.43-0.96,2.12-1.48
				c1.02-0.77,2.19-1.34,3.14-2.22c0.15-0.14,0.3-0.16,0.49-0.08c0.46,0.19,0.93,0.37,1.39,0.56c0.87,0.37,1.63,0.22,2.29-0.46
				c0.18-0.19,0.37-0.36,0.57-0.53c0.57-0.48,1.14-0.95,1.88-1.15c0.24-0.07,0.41-0.06,0.53,0.21c0.09,0.2,0.21,0.4,0.38,0.54
				c0.64,0.52,1.32,0.96,2.07,1.31c1.09,0.5,2.23,0.84,3.4,1.06c0,0.24-0.11,0.38-0.21,0.53c-0.42,0.67-0.61,1.43-0.76,2.2
				c-0.06,0.34-0.14,0.68-0.34,0.95c-0.39,0.51-0.56,1.1-0.75,1.69c-0.55,1.69-0.33,3.27,0.6,4.78c0.28,0.45,0.56,0.88,0.96,1.22
				c0.16,0.13,0.2,0.25,0.05,0.45c-0.39,0.51-0.67,1.09-1.08,1.59c-0.3,0.36-0.41,0.38-0.67-0.01c-0.31-0.46-0.75-0.5-1.21-0.45
				c-0.29,0.03-0.59,0.11-0.85,0.27c-0.33,0.21-0.7,0.29-1.08,0.33c-0.36,0.04-0.73,0.04-0.97,0.38c-0.04,0.05-0.14,0.09-0.21,0.08
				c-0.54-0.05-1,0.29-1.52,0.31c-0.21,0.01-0.37,0.15-0.49,0.32c-0.23,0.33-0.54,0.38-0.9,0.3c-0.16-0.04-0.32-0.05-0.48-0.07
				c-0.61-0.06-1.09,0.22-1.23,0.8c-0.14,0.59-0.44,1.02-0.94,1.33c-0.19,0.11-0.34,0.28-0.52,0.41c-1.01,0.74-1.74,1.65-1.87,2.95
				c-0.01,0.06-0.01,0.12-0.04,0.17c-0.45,0.75-0.54,1.59-0.64,2.42c-0.03,0.27-0.11,0.41-0.37,0.53c-1.29,0.59-2.39,1.45-3.29,2.56
				c-0.52,0.64-0.8,1.38-1.05,2.15c-0.04,0.14-0.07,0.28,0.09,0.37c0.15,0.08,0.28,0.04,0.37-0.09c0.15-0.2,0.33-0.35,0.52-0.5
				c0.56-0.44,1.19-0.55,1.87-0.34c0.36,0.11,0.39,0.19,0.19,0.5c-0.16,0.25-0.35,0.49-0.5,0.75c-0.28,0.49-0.54,0.98-0.81,1.48
				c-0.06,0.11-0.11,0.23,0,0.33c0.1,0.1,0.22,0.05,0.33,0c0.24-0.11,0.44-0.29,0.62-0.48c0.53-0.56,1.19-0.88,1.91-1.09
				c0.53-0.16,0.59-0.13,0.84,0.36c0.36,0.72,0.77,1.39,1.3,2.01c0.4,0.47,0.87,0.83,1.32,1.22c0.75,0.65,1.5,1.3,2.5,1.62
				c0.59,0.19,1.19,0.35,1.79,0.48c0.7,0.15,1.42,0.25,2.15,0.13c2.23-0.36,4.03-1.48,5.48-3.2c0.56-0.66,1.08-1.35,1.57-2.05
				c0.52-0.75,1.06-1.52,1.1-2.5c0.01-0.27,0.19-0.38,0.39-0.48c0.29-0.14,0.61-0.19,0.92-0.26c0.6-0.14,0.68-0.23,0.75-0.84
				c0.02-0.2,0.03-0.4,0.03-0.6c0.01-0.28,0.03-0.56,0.09-0.83c0.1-0.47,0.34-0.8,0.83-0.93c0.17-0.04,0.34-0.12,0.51-0.17
				c0.38-0.11,0.46-0.04,0.37,0.32c-0.17,0.66-0.33,1.32-0.54,1.97c-0.84,2.64-2.26,5-3.74,7.31c-0.88,1.37-1.98,2.57-3.09,3.76
				c-0.51,0.54-1.03,1.07-1.65,1.49c-0.22,0.15-0.39,0.34-0.24,0.59c0.14,0.23,0.38,0.06,0.54,0c0.57-0.19,1.15-0.37,1.69-0.62
				c1.9-0.9,3.8-1.81,5.59-2.92c0.17-0.11,0.33-0.29,0.58-0.22c-0.08,0.4-0.39,0.63-0.61,0.9c-0.75,0.97-1.55,1.89-2.51,2.67
				c-0.65,0.53-1.28,1.09-1.85,1.72c-0.09,0.1-0.21,0.2-0.24,0.34c-0.03,0.12-0.07,0.25,0.02,0.35c0.1,0.11,0.22,0.04,0.33-0.01
				c0.41-0.17,0.81-0.36,1.22-0.51c1.81-0.65,3.57-1.44,5.35-2.17c1.56-0.64,3.01-1.5,4.49-2.3c2.15-1.17,4.26-2.4,6.33-3.7
				c1.93-1.22,3.89-2.41,5.7-3.8c1.13-0.87,2.26-1.73,3.37-2.62c1.55-1.24,3.05-2.54,4.53-3.87c1.1-0.99,2.21-1.99,3.13-3.16
				c1.02-1.31,2.09-2.58,3.04-3.95c1.16-1.67,2.23-3.37,2.97-5.27c0.12-0.3,0.22-0.6,0.33-0.9C92.09,46.12,91.96,46.02,91.78,45.93z
				 M74.37,44.3c0.03,0.28-0.2,0.27-0.4,0.46C73.99,44.35,74.18,44.34,74.37,44.3z M45.42,53.79c0.12-0.21,0.44-0.09,0.66-0.12
				c0.15-0.02,0.21,0.12,0.12,0.24c-0.15,0.2-0.29,0.42-0.52,0.54c-0.03-0.02-0.05-0.02-0.07-0.03
				C45.46,54.23,45.3,53.98,45.42,53.79z M52.21,53.67c-0.04,0.3-0.24,0.52-0.42,0.84C51.8,54.16,51.8,54.16,52.21,53.67z
				 M52.16,54.47c-0.11,0.36-0.18,0.59-0.52,0.7C51.71,54.87,51.76,54.64,52.16,54.47z M51.81,55.57c-0.16,0.57-0.57,0.79-0.78,1.14
				C51.09,56.35,51.33,55.98,51.81,55.57z M50.43,57.55c-0.06,0.07-0.13,0.16-0.25,0.11c-0.04-0.02-0.09-0.08-0.1-0.13
				c-0.02-0.14,0.07-0.21,0.2-0.24c0.09-0.02,0.19-0.03,0.37-0.06C50.55,57.39,50.5,57.48,50.43,57.55z M49.91,56.8
				c0.18-0.2,0.38-0.39,0.57-0.58c0.02,0.35-0.2,0.55-0.34,0.8c-0.03,0.06-0.13,0.1-0.21,0.04C49.83,56.99,49.84,56.88,49.91,56.8z
				 M53.85,38.08c-0.01-0.32,0.22-0.37,0.43-0.44C54.1,37.73,54.14,38.04,53.85,38.08z M55.71,36.76c-0.06,0.07-0.15,0.13-0.26,0.07
				c-0.1-0.12-0.01-0.22,0.05-0.31c0.05-0.08,0.13-0.18,0.23-0.08C55.82,36.54,55.78,36.67,55.71,36.76z M56.32,36.05
				c-0.06,0.17,0.07,0.42-0.21,0.5c-0.03,0.01-0.1-0.01-0.11-0.03c-0.07-0.19-0.07-0.39,0-0.58c0.04-0.1,0.12-0.16,0.23-0.17
				C56.33,35.85,56.36,35.95,56.32,36.05z M56.61,36.19c-0.15-0.32-0.13-0.63-0.02-1.06C56.85,35.55,56.68,35.87,56.61,36.19z
				 M59.65,33.09c0.05-0.08,0.13-0.09,0.2-0.06c0.1,0.05,0.06,0.12,0,0.18c-0.06,0.05-0.13,0.12-0.2,0.08
				C59.57,33.23,59.62,33.15,59.65,33.09z M57.84,34.99c-0.1-0.17-0.13-0.33,0.01-0.51c0.17,0.04,0.12,0.17,0.13,0.27
				C57.98,34.83,58.01,34.94,57.84,34.99z M57.88,33.6c0.04-0.06,0.06-0.15,0.16-0.1c0.02,0.01,0.04,0.07,0.03,0.1
				c-0.02,0.14-0.1,0.12-0.2,0.07c-0.01-0.01-0.03,0-0.04,0C57.85,33.65,57.86,33.63,57.88,33.6z M48.41,32.72
				c-0.26,0.1-0.51,0.17-0.79,0.07C47.87,32.61,48.14,32.67,48.41,32.72z M37.12,21.74c-0.01,0.01-0.08-0.02-0.1-0.04
				c-0.07-0.13,0.03-0.22,0.12-0.37C37.24,21.51,37.25,21.64,37.12,21.74z M37.42,21.85c-0.01-0.19,0.01-0.38,0.11-0.63
				c0.16,0.28,0.04,0.51,0.1,0.72C37.53,21.99,37.42,21.97,37.42,21.85z M37.9,22.05c-0.14,0.11-0.2,0.01-0.25-0.09
				c0.09-0.06,0.19-0.15,0.28-0.01C37.94,21.96,37.92,22.03,37.9,22.05z M38.3,16.69c0-0.06,0.02-0.11,0.02-0.17
				c0.7,0.14,1.07,0.42,1.28,0.98c-0.03,0.02-0.06,0.06-0.09,0.07c-0.9,0.11-1.3,0.77-1.65,1.49c-0.2,0.41-0.18,0.42-0.65,0.3
				c-0.26,0.66-0.17,1.39-0.39,2.06c-0.14-0.31-0.06-0.61-0.03-0.92c0.03-0.28,0.18-0.57-0.05-0.85c-0.08-0.1,0.03-0.23,0.09-0.33
				c0.13-0.2,0.25-0.41,0.39-0.6c0.09-0.13,0.21-0.26,0.1-0.43c-0.09-0.13-0.24-0.17-0.37-0.1c-0.26,0.15-0.26-0.14-0.44-0.24
				c-0.16,0.27-0.24,0.58-0.66,0.45c0.09-0.28,0.29-0.49,0.53-0.58c0.45-0.17,0.87-0.39,1.36-0.44C38.3,17.3,38.3,17.28,38.3,16.69z
				 M35.75,15.06c0.59,0.33,1.17,0.69,1.67,1.15c0.14,0.13,0.22,0.28,0.28,0.45c-0.06,0.18-0.23,0.14-0.35,0.18
				c-0.49,0.17-0.99,0.29-1.41,0.62c-0.2,0.15-0.45,0.2-0.68,0.17c-0.34-0.04-0.36,0.11-0.33,0.38c0.02,0.22,0.11,0.46-0.13,0.7
				c-0.2-0.39-0.02-0.77-0.09-1.13c-0.26-0.03-0.1,0.3-0.33,0.31c-0.14-0.21-0.06-0.47-0.1-0.72c0.42-0.14,0.82-0.23,1.24-0.27
				c0.21-0.02,0.36-0.1,0.4-0.3c0.04-0.18-0.11-0.28-0.24-0.37c-0.43-0.28-0.84-0.6-1.2-0.96C34.81,14.66,35.11,14.7,35.75,15.06z
				 M30.88,16.25c0.21-0.12,0.43-0.21,0.67-0.27c0.33-0.08,0.67-0.15,0.98-0.28c0.73-0.31,1.36-0.17,1.95,0.31
				c0.13,0.11,0.33,0.15,0.38,0.35c-0.06,0.11-0.16,0.12-0.26,0.13c-0.76,0.1-1.37,0.51-1.99,0.92c-0.3,0.2-0.4,0.49-0.44,0.81
				c-0.04,0.29-0.22,0.58,0.13,0.86c0.16,0.13,0.15,0.48,0.22,0.72c-0.15,0.13-0.23,0.01-0.32-0.05c-0.38-0.25-0.76-0.51-1.15-0.75
				c-0.15-0.09-0.24-0.19-0.28-0.36c-0.15-0.63-0.12-1.27-0.19-1.91C30.55,16.51,30.7,16.35,30.88,16.25z M34.76,37.96
				c-0.97,0.6-1.93,1.22-2.8,1.97c-0.18,0.16-0.58,0.12-0.53,0.48c0.03,0.23,0.18,0.44,0.28,0.66c0.45,0.96,0.9,1.92,1.37,2.87
				c0.5,1.01,0.71,2.08,0.8,3.19c0.03,0.39-0.06,0.7-0.39,0.95c-1.48,1.11-2.71,2.5-4.19,3.61c-0.59,0.44-1.09,1-1.66,1.48
				c-1.33,1.12-2.68,2.23-4.07,3.28c-0.1,0.07-0.19,0.14-0.29,0.22c-0.13,0.1-0.12,0.24-0.08,0.38c0.04,0.15,0.17,0.16,0.29,0.15
				c0.44-0.03,0.88-0.06,1.31-0.1c0.43-0.03,0.86-0.07,1.3-0.06c-2.88,1.7-5.93,2.97-9.08,4.07c-0.01-0.22,0.13-0.28,0.23-0.36
				c0.96-0.73,1.8-1.59,2.7-2.39c1.78-1.58,3.58-3.15,5.38-4.72c1.57-1.37,3.13-2.76,4.5-4.34c0.03-0.03,0.06-0.06,0.08-0.09
				c0.64-0.65,0.79-1.38,0.45-2.25c-0.29-0.73-0.54-1.47-0.84-2.19c-0.24-0.58-0.58-1.09-0.97-1.58c-0.16-0.2-0.26-0.27-0.52-0.06
				c-0.59,0.48-1.21,0.93-1.76,1.46c-0.28,0.27-0.61,0.45-0.93,0.66c-0.81,0.52-1.52,1.17-2.3,1.73c-0.52,0.37-1.07,0.71-1.56,1.12
				c-1.05,0.9-2.18,1.69-3.31,2.48c-1.35,0.94-2.59,2.02-3.96,2.93c-0.42,0.28-0.72,0.69-1.15,0.97c-0.17,0.11-0.22,0.3-0.13,0.48
				c0.08,0.16,0.24,0.08,0.38,0.06c1.05-0.1,2.1-0.3,3.16-0.2c0.29,0.03,0.56-0.18,0.86,0c-3.02,1.02-6.13,1.76-9.09,2.88
				c-0.06-0.06-0.07-0.08-0.08-0.09c-0.01-0.02-0.02-0.04-0.02-0.05c0.04-0.13,0.07-0.27,0.13-0.39c1.26-2.54,2.44-5.13,3.88-7.58
				c0.04-0.07,0.08-0.13,0.22-0.14c0.05,0.62-0.01,1.23-0.15,1.83c-0.15,0.67-0.15,1.36-0.28,2.02c-0.03,0.13-0.02,0.25,0.1,0.31
				c0.12,0.07,0.24,0,0.33-0.08c0.32-0.3,0.63-0.62,0.96-0.91c0.79-0.71,1.6-1.4,2.4-2.1c1.12-0.98,2.25-1.94,3.34-2.94
				c1.04-0.94,2.04-1.92,3.05-2.88c1.22-1.16,2.41-2.35,3.65-3.49c0.3-0.28,0.3-0.66,0.5-0.96c0.08-0.12-0.11-0.45-0.21-0.66
				c-0.19-0.38-0.39-0.75-0.71-1.03c-0.46-0.41-0.85-0.9-1.35-1.27c-0.21-0.15-0.35-0.2-0.57-0.03c-1.16,0.89-2.43,1.63-3.62,2.47
				c-1.9,1.34-3.84,2.61-5.67,4.06c-2.04,1.62-4.15,3.16-6.28,4.66c-0.4,0.28-0.79,0.6-1.23,0.93c-0.09-0.31,0.08-0.48,0.18-0.66
				c0.58-1.06,1.23-2.07,1.79-3.13c0.69-1.31,1.39-2.62,1.95-3.99c0.07-0.18,0.14-0.37,0.35-0.58c0.06,0.51,0.12,0.93,0.17,1.36
				c0,0.04-0.01,0.08,0,0.12c0.09,0.24-0.01,0.58,0.27,0.7c0.29,0.12,0.38-0.22,0.56-0.36c0.83-0.6,1.61-1.26,2.42-1.88
				c2.26-1.76,4.53-3.51,6.87-5.17c0.63-0.45,1.21-0.99,1.9-1.36c0.12-0.07,0.25-0.13,0.37-0.19c0.55-0.28,1-0.28,1.59,0.11
				c1.06,0.71,2.11,1.46,3.18,2.15c0.27,0.18,0.52,0.38,0.73,0.63c0.23,0.27,0.52,0.43,0.83,0.57c0.34,0.15,0.59,0.16,0.96-0.09
				c1.48-1.03,2.87-2.18,4.42-3.11c0.31-0.18,0.59-0.48,0.92-0.54c0.37-0.07,0.57,0.38,0.88,0.55c0.45,0.25,0.86,0.57,1.46,0.78
				C37.13,36.2,36.02,37.17,34.76,37.96z M59.32,65.24c0.19-0.31,0.39-0.48,0.64-0.6C59.94,65,59.73,65.16,59.32,65.24z
				 M53.01,73.96c-0.83,0.4-1.63,0.85-2.48,1.22c-0.29,0.13-0.57,0.29-1.02,0.35c0.39-0.43,0.7-0.8,1.03-1.14
				c0.75-0.76,1.43-1.57,2.07-2.42c1.52-2.03,2.73-4.25,3.81-6.53c0.63-1.32,1.06-2.72,1.33-4.17c0.06-0.31,0.04-0.63,0.27-0.9
				c0.14-0.17,0.06-0.43,0.06-0.64c0-0.42,0.08-0.56,0.49-0.57c0.3-0.01,0.6-0.08,0.9,0.02c0.24,0.08,0.48,0.02,0.71-0.03
				c0.3-0.07,0.34,0.09,0.35,0.32c0.01,0.33-0.27,0.52-0.37,0.8c0.11,0.07,0.18-0.15,0.29-0.07c0.1,0.07,0.08,0.19,0.03,0.27
				c-0.13,0.22-0.28,0.43-0.43,0.65c0.17,0.02,0.21-0.22,0.41-0.14c0.14,0.31-0.12,0.5-0.26,0.72c-0.05,0.07-0.22,0.11-0.2,0.2
				c0.11,0.5-0.32,0.71-0.49,1.08l0.79-0.79c0.11,0.31,0.01,0.49-0.14,0.65c-0.13,0.13-0.25,0.26-0.29,0.45l0-0.02
				c-0.09,0.42-0.44,0.63-0.71,0.91c0.11,0.06,0.19,0.07,0.3-0.05c0.18-0.2,0.33-0.45,0.61-0.54c0.18,0.19-0.35,0.37,0.01,0.56
				c0,0-0.06,0.1-0.07,0.15c-0.05,0.21-0.36-0.14-0.34,0.15c0.01,0.19-0.1,0.29-0.21,0.41c-0.33,0.37-0.67,0.73-1.06,1.05
				c-0.05,0.04-0.1,0.06-0.15,0.1c-0.04,0.04-0.08,0.11-0.03,0.16c0.04,0.04,0.1,0.06,0.15,0.06c0.37,0.05,0.24-0.36,0.43-0.48
				c0.1,0.15,0.28,0.28,0.04,0.46c-0.17,0.13-0.31,0.31-0.47,0.46c-0.1,0.09-0.25,0.18-0.27,0.31c-0.03,0.27-0.17,0.43-0.38,0.56
				c-0.15,0.09-0.1,0.27-0.15,0.41c0.46-0.2,0.83-0.55,1.31-0.85c-0.64,0.82-1.46,1.34-2.25,2.01c0.56,0.02,0.85-0.33,1.17-0.59
				c0.42-0.35,0.82-0.74,1.33-0.99c-0.28,0.41-0.66,0.72-1.03,1.05c-0.25,0.22-0.55,0.4-0.76,0.67c0,0,0,0,0,0.01
				c-0.32,0.08-0.51,0.34-0.75,0.54c-0.09,0.07-0.13,0.17-0.02,0.25c0.29,0.22,0.08,0.29-0.09,0.42c-0.41,0.32-0.87,0.57-1.21,0.98
				c-0.13,0.16-0.34,0.29-0.31,0.56c1.02-0.49,1.94-1.1,2.85-1.84c-0.04,0.6-0.34,1.08-0.89,1.45
				C55.67,72.48,54.39,73.3,53.01,73.96z M57.29,69.63c-0.02,0.01-0.08-0.02-0.1-0.05c-0.12-0.19,0.04-0.26,0.15-0.34
				C57.36,69.38,57.51,69.53,57.29,69.63z M64.6,56.25c-0.03,0.44-0.36,0.3-0.55,0.43c-0.04-0.02-0.09-0.05-0.13-0.07
				c0.01-0.24,0.02-0.47,0.04-0.71c0.01-0.12,0.08-0.13,0.21,0.01c0.13,0.14,0.26,0.06,0.38,0.04c0.21-0.03,0.38-0.19,0.74-0.2
				C64.98,55.97,64.61,56.1,64.6,56.25z M65.41,55.64c0.46-0.3,0.82-0.53,1.2-0.78c-0.05,0.24-0.05,0.24-0.46,0.48
				C65.94,55.45,65.79,55.66,65.41,55.64z M61.19,69.28c-0.07,0.05-0.14,0.06-0.21,0c-0.02-0.06-0.01-0.12,0.04-0.15
				c0.08-0.04,0.15-0.02,0.2,0.05C61.24,69.2,61.22,69.26,61.19,69.28z M61.68,68.78c-0.07,0.04-0.15,0.05-0.21-0.02
				c-0.01-0.01,0.03-0.06,0.04-0.09c0.07-0.03,0.15-0.07,0.22-0.01C61.79,68.71,61.73,68.76,61.68,68.78z M62.24,68.35
				c-0.1,0.12-0.24,0.13-0.37,0.09c-0.09-0.03-0.07-0.12,0.01-0.23c0.07-0.1,0.2-0.08,0.32,0C62.27,68.24,62.28,68.31,62.24,68.35z
				 M63.07,70.66c-0.07,0.02-0.15,0.05-0.25-0.02c0.02-0.11,0.09-0.16,0.15-0.19c0.1-0.06,0.22-0.13,0.28,0.04
				C63.29,70.63,63.16,70.64,63.07,70.66z M65.21,70.17c-0.03-0.06-0.1-0.13-0.03-0.21c0.06-0.06,0.18-0.1,0.2-0.05
				c0.09,0.22,0.34,0.05,0.45,0.2C65.39,70.44,65.36,70.45,65.21,70.17z M66.5,69.79c-0.14-0.05-0.07-0.15-0.03-0.26
				c0.15-0.06,0.28-0.2,0.47-0.1c0.03,0.01,0.05,0.07,0.04,0.1C66.97,69.64,66.62,69.83,66.5,69.79z M91.3,47.08
				c-0.87,2.22-2.12,4.21-3.56,6.1c-0.91,1.2-1.86,2.36-2.8,3.53c-0.63,0.78-1.36,1.47-2.11,2.14c-0.77,0.7-1.6,1.34-2.35,2.06
				c-0.7,0.67-1.58,1.1-2.31,1.72c-0.62,0.52-1.35,0.87-2.01,1.31c-0.35,0.23-0.67,0.59-1.18,0.48c-0.06-0.01-0.15,0.06-0.22,0.09
				c-0.99,0.47-2.02,0.83-3.05,1.22c0.17,0.14,0.32-0.01,0.48-0.04c0.18-0.03,0.36-0.07,0.52-0.15c0.25-0.12,0.21,0.13,0.31,0.21
				c0.37-0.7,1.15-0.69,1.75-1.05c0.01,0.11,0.02,0.16,0.01,0.17c-0.67,0.47-1.35,0.93-2.02,1.39c-0.21,0.15-0.46,0.16-0.69,0.14
				c-0.11-0.01-0.03-0.09,0.03-0.13c-0.42-0.09-0.81,0.08-0.89,0.4l0,0c0.15,0.34,0.4-0.1,0.59,0.11c0.01,0.02-0.02,0.08-0.06,0.1
				c-1.05,0.61-2.11,1.22-3.16,1.84c-0.25,0.15-0.54,0.07-0.81,0.16c-0.8,0.26-1.61,0.48-2.41,0.72c-0.21,0.06-0.43,0.09-0.64,0.16
				c-0.15,0.05-0.34,0-0.43,0.25c-0.07,0.18-0.59,0.26-0.93,0.23c0.03-0.05,0.04-0.13,0.09-0.15c0.32-0.19,0.63-0.4,0.88-0.68
				c0.16-0.18,0.5-0.09,0.58-0.34c0.08-0.27,0.32-0.34,0.5-0.49c1.51-1.28,3.06-2.52,4.51-3.87c1.1-1.02,2.19-2.05,3.17-3.2
				c0.73-0.85,1.54-1.64,2.19-2.54c0.85-1.19,1.98-2.09,2.91-3.18c0.94-1.1,1.83-2.23,2.75-3.34c1.05-1.27,1.93-2.65,2.65-4.13
				c0.22-0.45,0.3-0.94,0.36-1.43c-0.89,2.1-2.15,3.96-3.58,5.7c-1.15,1.41-2.3,2.83-3.58,4.13c-0.79,0.8-1.58,1.59-2.43,2.32
				c-0.22,0.19-0.39,0.47-0.74,0.46c-0.05,0-0.11,0.05-0.14,0.1c-0.55,0.8-0.76,0.96-1.65,1.37c-0.19,0.09-0.36,0.24-0.54,0.36
				c0.05,0.12,0.17,0.23,0,0.36c-0.42,0.34-0.78,0.75-1.29,0.98c-0.26,0.11-0.45,0.23-0.59,0.55c-0.13,0.29-0.54,0.45-0.83,0.66
				c-0.08,0.06-0.22,0.07-0.26,0.14c-0.49,0.76-1.35,0.76-2.08,1.03c-0.04,0.01-0.07,0.03-0.12,0.05c0.06,0.13,0.15,0.06,0.23,0.05
				c0.08-0.01,0.15-0.01,0.23-0.01c0.03,0.15-0.06,0.19-0.14,0.23c0.12,0.2,0.06,0.35-0.11,0.49c-0.76,0.64-1.59,1.1-2.61,1.14
				c-0.1,0-0.2,0.04-0.29,0.07c-0.16,0.06-0.11,0.22-0.09,0.31c0.02,0.14,0.17,0.09,0.24,0.04c0.16-0.13,0.32-0.25,0.62-0.05
				c-0.67,0.32-1.25,0.71-2.02,0.67c0.02-0.32,0.22-0.48,0.38-0.64c0.77-0.76,1.41-1.63,2.09-2.47c0.99-1.23,1.85-2.57,2.78-3.84
				c0.59-0.81,0.99-1.73,1.47-2.61c0.71-1.32,1.44-2.64,2.22-3.92c0.65-1.07,1.06-2.24,1.39-3.44c0.02-0.07,0.04-0.16-0.07-0.23
				c-0.19,0.09-0.23,0.31-0.28,0.47c-0.49,1.59-1.39,2.97-2.21,4.39c-0.48,0.83-0.9,1.69-1.42,2.5c-0.13,0.2-0.26,0.41-0.38,0.61
				c-0.06,0.1-0.13,0.18-0.27,0.2c-0.47,0.07-0.77,0.45-1.18,0.64c0.37-0.07,0.65-0.36,1.15-0.45c-0.35,0.51-0.59,1.01-0.96,1.36
				c-0.35,0.32-0.87,0.46-1.32,0.86c0.18-0.03,0.25-0.04,0.43-0.07c-0.39,0.34-0.76,0.54-1.12,0.76c0.16,0.04,0.28-0.08,0.43-0.1
				c0.06,0,0.11,0,0.09,0.08c-0.02,0.05-0.07,0.09-0.13,0.07c0.12,0.15,0.22,0.3,0,0.45c-0.15,0.1-0.29,0.22-0.45,0.3
				c-0.27,0.14-0.57,0.17-0.71,0.56c-0.1,0.27-0.52,0.38-0.94,0.41c0.18-0.49,0.18-1.01,0.66-1.31c-0.22-0.03-0.18-0.16-0.13-0.31
				c0.48-1.49,1.03-2.95,1.98-4.23c0.78-1.05,1.24-2.28,1.87-3.42c0.1-0.17,0.15-0.37,0.25-0.54c0.39-0.68,0.53-1.42,0.54-2.19
				c0-0.18,0.01-0.36,0.13-0.51c0.13-0.18,0.27-0.27,0.5-0.13c0.59,0.36,1.17,0.37,1.79-0.01c0.69-0.42,1.38-0.82,1.96-1.38
				c0.3-0.29,0.56-0.32,0.95-0.12c0.45,0.23,0.97,0.33,1.51,0.32c1.02-0.01,1.98-0.28,2.94-0.54c0.08-0.02,0.15-0.05,0.22-0.09
				c1.31-0.65,2.59-1.35,3.8-2.16c0.85-0.57,1.69-1.13,2.39-1.84c0.21,0.05,0.18,0.19,0.21,0.3c0.31,1.02,1,1.63,2.02,1.85
				c0.82,0.18,1.65,0.29,2.49,0.06c0.47-0.13,0.88-0.38,1.29-0.62c0.29-0.17,0.56-0.38,0.88-0.5C91.54,46.8,91.37,46.92,91.3,47.08z
				"/>
			<path d="M37.54,20.66c0.03,0.04,0.07,0.05,0.09,0.01c0.05-0.07,0.07-0.14,0.02-0.22c-0.03-0.04-0.07-0.05-0.09-0.01
				C37.52,20.51,37.5,20.58,37.54,20.66z"/>
			<path d="M65.31,37.83c-0.57,0.57-1.12,1.16-1.85,1.54c-0.04-0.1,0.01-0.13,0.05-0.16c1.12-0.93,2.01-2.05,2.78-3.27
				c0.13-0.2,0.2-0.46,0.49-0.57c0.23-0.09,0.16-0.4,0.12-0.59c-0.09-0.43-0.08-0.87-0.36-1.29c0.38,0,0.48,0.21,0.58,0.44
				c0.44,1.03,0.35,2.08,0.12,3.13c-0.3,1.31-1.05,2.37-1.97,3.32c-0.36,0.37-0.66,0.81-1.1,1.1c-0.15,0.1-0.27,0.23-0.46,0.04
				c-0.14-0.14-0.31-0.05-0.42,0.08c-0.16,0.21-0.43,0.18-0.59,0.35c-0.13-0.14-0.08-0.31-0.22-0.42c0.34-0.22,0.69-0.41,1-0.64
				c0.2-0.15,0.06-0.22-0.21-0.24c0.74-0.6,1.37-1.22,1.95-1.89c0.58-0.67,1.23-1.28,1.51-2.15c-0.66,0.46-0.94,1.23-1.48,1.8
				c-0.55,0.57-1.14,1.09-1.78,1.57C64.11,39.29,64.82,38.66,65.31,37.83z M66.87,35.76c-0.09-0.08-0.14,0-0.19,0.05
				c-0.06,0.06-0.11,0.13-0.06,0.21c0.05,0.07,0.14,0.06,0.21,0.01C66.9,35.96,66.9,35.86,66.87,35.76z"/>
			<path d="M55.53,48.02c0.35,0.56,0.58,1.19,1.03,1.68c0.05,0.06,0.17,0.18,0.03,0.24c-0.23,0.11-0.09,0.22-0.02,0.33
				c0.33,0.5,0.79,0.85,1.29,1.16c1.09,0.66,2.25,1.16,3.55,1.16c0.98,0,1.91-0.18,2.68-0.86c0.21-0.18,0.45-0.31,0.73-0.4
				c0.38-0.12,0.66-0.44,0.92-0.75c0.68-0.83,1.16-1.77,1.45-2.81c0.03-0.12,0-0.29,0.22-0.34c0.05,0.51,0.01,1-0.15,1.47
				c-0.55,1.54-1.55,2.69-3,3.45c-0.19,0.1-0.39,0.2-0.59,0.29c-1.05,0.48-2.15,0.59-3.28,0.34c-1.27-0.28-2.39-0.89-3.45-1.64
				c-0.1-0.07-0.2-0.14-0.27-0.23c-0.74-0.92-1.36-1.93-1.81-3.03c-0.21-0.52-0.25-1.09-0.43-1.62c-0.09-0.28,0.1-0.35,0.25-0.47
				c0.11-0.09,0.24-0.07,0.31,0.05c0.1,0.18,0.26,0.38-0.02,0.55c0,0.03,0,0.06-0.01,0.09c-0.04,0.49,0.14,0.93,0.31,1.37
				C55.36,48.27,55.44,48.04,55.53,48.02z"/>
			<path d="M65.79,46.23c-0.12-0.11-0.05-0.2,0.02-0.31c0.24-0.44,0.56-0.82,0.82-1.25c0.36-0.6,0.68-1.22,0.99-1.85
				c0.08-0.16,0.1-0.36,0.33-0.47c0.24-0.11,0.13-0.37,0.06-0.71c-0.66,1.35-1.28,2.59-2.33,3.55c0.23-0.35,0.44-0.72,0.7-1.06
				c0.53-0.69,0.82-1.51,1.19-2.27c0.05-0.11,0.06-0.27,0.14-0.33c0.39-0.29,0.25-0.63,0.17-1.01c-0.13-0.63-0.22-1.25-0.71-1.86
				c0.58,0.06,0.79,0.43,0.91,0.73c0.33,0.85,0.65,1.72,0.52,2.67c-0.08,0.6-0.13,1.2-0.25,1.78c-0.06,0.28-0.02,0.68-0.56,0.69
				c-0.27,0.01-0.32,0.46-0.47,0.71c-0.08,0.14-0.05,0.26,0.08,0.36c0.22,0.18,0.08,0.38-0.02,0.54c-0.25,0.39-0.51,0.77-0.79,1.13
				c-0.72,0.93-1.52,1.8-2.41,2.58c1.1-1.28,2.34-2.47,2.99-4.08c-0.44,0.35-0.65,0.89-1.02,1.3c-0.37,0.42-0.67,0.9-1.18,1.34
				c0.46-0.75,1.01-1.31,1.4-1.99c0.33-0.57,0.67-1.13,0.98-1.72c0.09-0.18,0.17-0.36,0.28-0.53c0.3-0.44,0.3-0.44,0.27-1.01
				c-0.19-0.07-0.18,0.13-0.22,0.2c-0.51,0.96-1.09,1.87-1.82,2.68C65.8,46.11,65.8,46.18,65.79,46.23L65.79,46.23z"/>
			<path d="M52.14,29.27c0.77-0.38,1.55-0.54,2.34-0.64c0.24-0.03,0.48-0.04,0.71-0.11c0.94-0.28,1.9-0.48,2.85-0.71
				c1.3-0.31,2.62-0.53,3.9-0.95c0.51-0.17,1.05-0.26,1.57-0.39c0.3-0.08,0.6-0.07,0.9-0.04c0.12,0.01,0.26,0.03,0.26,0.19
				c0,0.17-0.12,0.27-0.27,0.25c-0.43-0.06-0.84-0.01-1.24,0.12c-0.99,0.32-2.02,0.5-3,0.86c-0.7,0.26-1.47,0.2-2.17,0.44
				c-0.86,0.28-1.75,0.4-2.61,0.67c-0.92,0.29-1.89,0.32-2.85,0.4C52.4,29.37,52.27,29.3,52.14,29.27z"/>
			<path d="M57.16,37.42c-0.06,0.27-0.24,0.34-0.37,0.44c-1.19,0.89-2.13,2.01-2.86,3.28c-0.81,1.43-0.98,2.95-0.37,4.52
				c0.15,0.38,0.32,0.73,0.59,1.03c0.12,0.13,0.2,0.28,0.06,0.42c-0.17,0.17-0.32,0.07-0.47-0.06c-0.38-0.35-0.64-0.78-0.79-1.26
				c-0.62-1.98-0.22-3.79,0.92-5.48c0.61-0.91,1.36-1.68,2.21-2.35C56.38,37.71,56.72,37.52,57.16,37.42z"/>
			<path d="M55.23,57.65c0.19,0.23-0.25,0.36-0.07,0.61c0.55-0.52,0.82-1.25,1.4-1.8c0.09,0.25-0.21,0.33-0.14,0.51
				c0.02,0.05,0.05,0.06,0.1,0.04c0.18-0.05,0.24-0.26,0.4-0.35c-0.01,0.32-0.01,0.32-0.73,1.2c-0.31,0.39-0.62,0.78-0.9,1.19
				c0.51-0.27,0.81-0.77,1.25-1.12c0.11-0.09,0.19-0.21,0.3-0.29c0.12-0.08,0.27-0.32,0.38,0.03c0.02,0.07,0.09,0.04,0.62-0.18
				c-0.35,0.51-0.73,0.9-1.17,1.2c-1.18,0.81-2.19,1.82-3.28,2.72c-0.04,0.04-0.1,0.06-0.16,0.08c-0.18-0.17-0.13-0.33,0.02-0.47
				c0.21-0.19,0.44-0.36,0.35-0.7c-0.02-0.06,0.05-0.15,0.1-0.21c0.61-0.68,1-1.49,1.39-2.3c0.03-0.07,0.1-0.12,0.15-0.18
				L55.23,57.65z"/>
			<path d="M41.21,61.42c-0.03-0.18,0.07-0.31,0.16-0.43c0.1-0.13,0.16-0.28,0.16-0.45c0-0.23-0.05-0.47-0.26-0.57
				c-0.2-0.09-0.3,0.15-0.43,0.25c-0.39,0.3-0.46,0.66-0.23,1.1c0.1,0.19,0.18,0.4,0.26,0.6c0.07,0.16,0.25,0.36,0.04,0.48
				c-0.25,0.14-0.33-0.14-0.42-0.3c-0.3-0.52-0.51-1.09-0.61-1.68c-0.18-1-0.31-2.02-0.65-2.99c-0.04-0.12-0.09-0.23,0.05-0.31
				c0.11-0.06,0.2,0.01,0.26,0.09c0.6,0.78,1.44,1.34,2,2.15c0.09,0.13,0.19,0.26,0.28,0.39C42.3,60.48,41.92,61.19,41.21,61.42z
				 M40.1,58.64c-0.02,0.28,0.06,0.53,0.1,0.78c0.03,0.17,0.07,0.35,0.1,0.52c0.01,0.08,0.02,0.16,0.12,0.17
				c0.1,0,0.13-0.07,0.17-0.14c0.27-0.61,0.24-0.76-0.24-1.22C40.3,58.7,40.25,58.63,40.1,58.64z"/>
			<path d="M45.8,59.43c0.22-0.07,0.24-0.3,0.36-0.45c0.13-0.15,0.15-0.37,0.33-0.5c0.14,0.18-0.16,0.3-0.04,0.49
				c0.17-0.18,0.35-0.36,0.32-0.61c-0.02-0.18,0.11-0.13,0.17-0.16c0.12-0.05,0.18,0.03,0.22,0.13c0.1,0.3,0.06,0.6-0.04,0.89
				c-0.17,0.49-0.4,0.97-0.82,1.3c-0.22,0.17-0.29,0.35-0.29,0.61c0.01,0.57-0.33,1.01-0.58,1.49c-0.07,0.13-0.19,0.16-0.31,0.11
				c-0.11-0.05-0.07-0.18-0.03-0.27c0.08-0.2,0.17-0.41,0.26-0.6c0.29-0.6,0.37-1.22,0.1-1.85c-0.19-0.44-0.33-0.9-0.47-1.36
				c-0.04-0.11-0.12-0.23,0.04-0.3c0.1-0.04,0.18,0.01,0.23,0.12c0.12,0.26,0.24,0.13,0.33-0.01c0.1-0.15,0.2-0.3,0.34-0.42
				c0.02,0.16-0.1,0.26-0.17,0.37C45.57,58.75,45.48,59.09,45.8,59.43z"/>
			<path d="M52.67,60.28c0.04-0.59,0.25-1.15,0.4-1.71c0.3-1.18,0.66-2.34,0.69-3.57c0.03-0.84,0.22-1.67,0.12-2.51
				c-0.02-0.13,0.03-0.25,0.18-0.26c0.15-0.01,0.21,0.1,0.23,0.22c0.09,0.68,0.03,1.36-0.05,2.03c-0.05,0.36-0.1,0.71-0.09,1.07
				c0.02,0.67-0.17,1.31-0.34,1.94c-0.25,0.9-0.57,1.78-0.92,2.65C52.85,60.22,52.81,60.3,52.67,60.28z"/>
			<path d="M45.76,66.66c-0.19,0.24-0.34,0.44-0.43,0.71c-0.13-0.13,0.05-0.32-0.04-0.37c-0.45-0.23-0.2-0.56-0.09-0.81
				c0.18-0.4,0.39-0.78,0.8-1.02c0.23-0.14,0.43-0.16,0.67-0.03c0.38,0.2,0.47,0.18,0.73-0.16c0.1-0.13,0.17-0.27,0.27-0.4
				c0.09-0.12,0.2-0.12,0.31-0.04c0.11,0.07,0.11,0.18,0.06,0.26c-0.19,0.29-0.35,0.62-0.59,0.86c-0.15,0.14-0.42,0.21-0.6,0.34
				c-0.16,0.11-0.13,0.46-0.45,0.46c-0.03,0.42-0.61,0.42-0.61,0.86C45.65,67.11,45.84,66.94,45.76,66.66z"/>
			<path d="M68.99,38.08c0.34-0.02,0.69,0.15,0.8-0.28c-0.08-0.14-0.22,0.04-0.33-0.08c0.8-0.7,1.35-1.65,2.26-2.42
				c-0.04,0.34-0.13,0.56-0.03,0.81c0.08,0.19-0.18,0.38-0.33,0.54c-0.32,0.33-0.65,0.65-0.98,0.98c-0.07,0.07-0.15,0.13-0.16,0.28
				c0.28,0.01,0.46-0.11,0.62-0.29c0.25-0.26,0.51-0.51,0.72-0.81c0.06-0.08,0.14-0.16,0.25-0.09c0.11,0.07,0.08,0.19,0.01,0.26
				c-0.32,0.32-0.26,0.88-0.74,1.11c-0.36,0.17-0.69,0.41-1.06,0.56C69.61,38.82,69.38,38.68,68.99,38.08z M71.28,36.21
				c-0.42,0.34-0.83,0.7-1.1,1.19C70.66,37.11,70.98,36.67,71.28,36.21z"/>
			<path d="M65.94,42.01c0.41-0.92,1.02-1.7,1.18-2.7c0.13,0.31,0.49,0.49,0.38,0.89c-0.01,0.04-0.01,0.1,0.01,0.12
				c0.47,0.35,0.14,0.72,0,1.05c-0.4,0.93-0.79,1.88-1.44,2.68c-0.07,0.09-0.13,0.21-0.28,0.26c0.23-0.44,0.45-0.85,0.67-1.26
				c-0.12-0.13-0.17,0.07-0.29,0c0.35-0.81,0.8-1.6,0.91-2.51C66.68,40.99,66.52,41.62,65.94,42.01z"/>
			<path d="M54.36,51.63c-0.36-0.38-0.59-0.85-0.81-1.32c-0.29-0.61-0.56-1.23-0.88-1.83c-0.22-0.42-0.24-0.88-0.38-1.32
				c-0.03-0.11-0.02-0.21,0.08-0.26c0.16-0.07,0.2,0.06,0.24,0.17c0.39,1.12,1.03,2.12,1.47,3.21c0.17,0.43,0.45,0.8,0.75,1.15
				c0.1,0.11,0.31,0.21,0.13,0.38c-0.16,0.16-0.33,0.06-0.48-0.07C54.44,51.71,54.4,51.67,54.36,51.63z"/>
			<path d="M62.21,57.28c-0.1,0.12-0.21,0.24-0.31,0.36c0.01-0.35,0.24-0.69,0.02-1.07c-0.38,0.37-0.94,0.43-1.35,0.77
				c0.6-0.81,1.19-1.63,1.8-2.43c0.04-0.05,0.14-0.06,0.21-0.1c0.12,0.15,0,0.27-0.03,0.39c-0.02,0.09-0.1,0.25-0.08,0.27
				c0.38,0.26-0.08,0.63,0.13,0.92c0.08,0.11-0.05,0.22-0.12,0.31c-0.13,0.18-0.24,0.36-0.28,0.59L62.21,57.28z"/>
			<path d="M56.77,18.98c0.63-0.51,1.21-1.09,1.93-1.49c0.39-0.21,0.74-0.47,1.08-0.76c0.62-0.53,1.26-1.04,1.9-1.55
				c0.33-0.27,0.67-0.52,1.04-0.73c-0.36,0.46-0.69,0.95-1.23,1.22c-0.2,0.1-0.36,0.25-0.52,0.39c-0.76,0.67-1.53,1.34-2.43,1.84
				c-0.47,0.26-0.88,0.61-1.32,0.92c-0.12,0.09-0.25,0.18-0.37,0.27C56.81,19.04,56.79,19.01,56.77,18.98z"/>
			<path d="M58.61,72.73c-0.01,0.4-0.11,0.72,0.09,0.98c0.22,0.02,0.18-0.27,0.42-0.29c-0.01,0.52-0.55,0.61-0.72,0.96
				c-0.2,0.41-0.74,0.28-1,0.61c0.4-0.39,0.66-0.86,0.97-1.31c-0.77,0.55-1.23,1.41-2.17,1.96c0.16-0.53,0.54-0.73,0.77-1.04
				c0.23-0.31,0.57-0.55,0.83-0.84C58.06,73.47,58.29,73.13,58.61,72.73z"/>
			<path d="M38.47,61.84c-0.22-0.8-0.57-1.58-0.48-2.44c0.06-0.6,0.11-1.19,0.04-1.79c-0.02-0.13-0.06-0.31,0.15-0.33
				c0.2-0.01,0.19,0.19,0.21,0.31c0.05,0.33,0.14,0.68,0.1,1.01c-0.12,1-0.11,1.99,0.04,2.98c0.02,0.11-0.03,0.19-0.09,0.27
				C38.45,61.85,38.47,61.84,38.47,61.84z"/>
			<path d="M64.48,50.86c0.49-0.59,1.18-1.01,1.55-1.72c-0.56,0.29-0.91,0.85-1.52,1.07c0.8-0.8,1.6-1.59,2.33-2.53
				c0.1,0.36-0.12,0.52-0.26,0.71c-0.19,0.25-0.54,0.44-0.33,0.85c0.02,0.05-0.04,0.15-0.08,0.22c-0.41,0.57-0.9,1.07-1.51,1.43
				C64.62,50.91,64.55,50.93,64.48,50.86z"/>
			<path d="M69.78,32.53c0.24,0.59,0.13,1.17-0.03,1.75c-0.14,0.5-0.28,1-0.42,1.5c-0.06,0.19-0.13,0.38-0.21,0.56
				c-0.06,0.14-0.11,0.36-0.31,0.29c-0.23-0.08-0.08-0.28-0.04-0.4c0.2-0.67,0.41-1.34,0.66-1.99
				C69.62,33.69,69.68,33.13,69.78,32.53z"/>
			<path d="M41.82,70.97c-1.04-0.22-2.02-0.61-2.91-1.2c-0.4-0.26-0.63-0.66-0.85-1.07c-0.05-0.09-0.05-0.2,0.05-0.27
				c0.11-0.08,0.19,0.01,0.25,0.09c0.07,0.07,0.13,0.16,0.18,0.24c0.32,0.54,0.8,0.89,1.33,1.18
				C40.51,70.29,41.16,70.63,41.82,70.97z"/>
			<path d="M56.48,54.78c0.31,0.07,0.4,0.26,0.52,0.4c0.43,0.5,0.95,0.85,1.58,1.04c0.19,0.06,0.52,0.09,0.42,0.38
				c-0.09,0.29-0.36,0.13-0.57,0.09C57.42,56.48,56.83,55.82,56.48,54.78z"/>
			<path d="M62.97,25.75c0.34-0.34,0.79-0.47,1.21-0.63c0.73-0.27,1.42-0.63,2.16-0.9c0.48-0.17,0.6-0.19,1.17,0.07
				c-0.83,0.23-1.6,0.39-2.32,0.7C64.46,25.29,63.71,25.5,62.97,25.75z"/>
			<path d="M52.49,63.71c-0.19,0.05-0.15,0.27-0.29,0.35c-0.05,0.01-0.07-0.02-0.05-0.07c0.07-0.16,0.14-0.33,0.23-0.48
				c0.1-0.15,0.12-0.36,0.03-0.45c-0.31-0.34,0.01-0.67-0.04-1c-0.01-0.06,0.05-0.1,0.11-0.11c0.07-0.01,0.12,0.03,0.13,0.09
				c0.14,0.52,0.28,1.04,0.41,1.56c0.02,0.07-0.01,0.16-0.02,0.24c-0.01,0.08-0.01,0.17-0.09,0.2c-0.11,0.04-0.18-0.03-0.24-0.12
				C52.61,63.84,52.61,63.73,52.49,63.71z"/>
			<path d="M49.64,56.11c0.67-0.43,0.99-1.14,1.37-1.79c0.49-0.84,1.03-1.65,1.5-2.52c0.05,0.24-0.07,0.43-0.18,0.62
				c-0.59,1.02-1.19,2.03-1.78,3.05c-0.16,0.27-0.39,0.45-0.61,0.66c-0.11,0.1-0.21,0.07-0.3-0.04
				C49.64,56.08,49.64,56.11,49.64,56.11z"/>
			<path d="M52.63,50.68c-0.74,1.62-1.5,3.24-2.79,4.52C50.93,53.79,51.69,52.19,52.63,50.68z"/>
			<path d="M63.6,23.61c0,0.04,0.01,0.1-0.01,0.11c-1.41,0.64-2.74,1.46-4.13,2.12C60.73,24.84,62.91,23.68,63.6,23.61z"/>
			<path d="M63.27,38.42c1.48-1.03,2.26-2.53,3.22-3.87C66.33,35.68,64.35,38.06,63.27,38.42z"/>
			<path d="M62.26,25.31c1.01-0.54,1.99-0.98,3.01-1.33c0.11-0.04,0.23-0.1,0.34-0.11c0.21-0.02,0.53-0.22,0.59-0.01
				c0.07,0.27-0.3,0.2-0.49,0.26c-0.98,0.32-1.98,0.62-2.91,1.08C62.65,25.28,62.5,25.34,62.26,25.31z"/>
			<path d="M49.85,54.14c0.47-0.72,0.95-1.42,1.37-2.17c0.41-0.75,0.81-1.51,1.25-2.32C52.34,50.52,50.7,53.34,49.85,54.14z"/>
			<path d="M65.75,34.3c-0.17,0.93-1.45,2.49-2.32,2.85c0.36-0.5,0.89-0.85,1.25-1.36C65.03,35.3,65.39,34.8,65.75,34.3z"/>
			<path d="M55.7,75.75c0.75-1.46,2.16-2.41,2.91-3.87c0,0.49-0.36,0.97-1.33,2.01C56.72,74.48,56.22,75.13,55.7,75.75z"/>
			<path d="M72.05,34.25c-0.59,0.91-1.26,1.75-2.09,2.45C70.5,35.75,71.3,35.02,72.05,34.25z"/>
			<path d="M63.46,35.7c0.8-0.77,1.36-1.73,2.03-2.6C65.09,34.18,64.46,35.09,63.46,35.7z"/>
			<path d="M61.2,42.77c-0.59,0.7-1.71,0.44-2.26,0.08c-0.07-0.05-0.13-0.1-0.08-0.19c0.05-0.09,0.14-0.06,0.21-0.04
				c0.11,0.03,0.22,0.09,0.34,0.12c0.29,0.06,0.57,0.2,0.88,0.17C60.57,42.87,60.85,42.83,61.2,42.77z"/>
			<path d="M40.29,63.5c0.58,0.36,0.89,1.21,0.7,1.67c-0.05,0.14-0.14,0.18-0.28,0.16c-0.12-0.02-0.16-0.11-0.14-0.22
				C40.67,64.59,40.53,64.1,40.29,63.5z"/>
			<path d="M41.2,57.33c0.52,0.17,0.82,0.57,1.13,0.95c0.07,0.08,0.08,0.19-0.01,0.27c-0.1,0.09-0.22,0.1-0.32,0
				C41.66,58.21,41.39,57.8,41.2,57.33z"/>
			<path d="M39.61,56.03c0.61-0.32,1.07-0.14,1.46,0.33c-0.1,0.11-0.15,0-0.22-0.01c-0.21-0.05-0.04,0.39-0.29,0.23
				C40.26,56.39,39.88,56.31,39.61,56.03z"/>
			<path d="M58.87,25.66c0.68-0.62,1.43-1.13,2.26-1.53c0.08-0.04,0.19-0.11,0.25,0.03c0.03,0.08-0.03,0.16-0.1,0.19
				C60.43,24.7,59.68,25.23,58.87,25.66z"/>
			<path d="M71.94,33.74c-0.59,0.9-1.16,1.66-1.94,2.32C70.08,35.68,71.38,34.12,71.94,33.74z"/>
			<path d="M41.83,69.05c0.07,0.16-0.04,0.2-0.12,0.22c-0.69,0.19-1.32-0.09-1.97-0.28c-0.08-0.02-0.11-0.11-0.08-0.2
				c0.03-0.1,0.12-0.1,0.2-0.08c0.1,0.02,0.19,0.05,0.28,0.09C40.69,69.02,41.25,69.13,41.83,69.05z"/>
			<path d="M72.76,43.14c1.05-0.32,2.01-0.86,3.06-1.16c-0.41,0.44-1,0.48-1.5,0.71C73.83,42.92,73.35,43.2,72.76,43.14z"/>
			<path d="M76.61,40.74c-0.93,0.47-1.88,0.92-2.89,1.19C74.65,41.44,75.6,41.03,76.61,40.74z"/>
			<path d="M64.74,32.8c-0.47,0.69-0.93,1.4-1.69,1.85c0.51-0.65,1.03-1.31,1.54-1.96C64.64,32.73,64.69,32.77,64.74,32.8z"/>
			<path d="M71.95,32.96c-0.53,0.79-1.06,1.57-1.78,2.2C70.7,34.38,71.24,33.6,71.95,32.96z"/>
			<path d="M44.98,31.56c0.18-0.64-0.08-1.2,0.09-1.86c0.25,0.47,0.35,0.86,0.38,1.26C45.48,31.17,45.45,31.17,44.98,31.56z"/>
			<path d="M48.1,30.7c0.44-0.25,0.81-0.46,1.19-0.66c0.11-0.06,0.24-0.08,0.32,0.05c0.09,0.15,0,0.27-0.13,0.34
				C49.07,30.64,48.67,30.84,48.1,30.7z"/>
			<path d="M56.82,47.98c-0.55-0.41-0.87-1.23-1.02-2.52C56.1,46.31,56.31,47.2,56.82,47.98z"/>
			<path d="M44.07,31.91c0.29,0.78,0.13,1.02-0.74,1.14C43.6,32.65,43.98,32.38,44.07,31.91z"/>
			<path d="M40.94,54.45c-0.09-0.1-0.2-0.26-0.04-0.42c0.15-0.15,0.27-0.02,0.4,0.08c0.15,0.12,0.34,0.19,0.49,0.32
				c0.11,0.09,0.11,0.22-0.06,0.26C41.46,54.74,41.19,54.72,40.94,54.45z"/>
			<path d="M57.2,42.8c-0.01,0.86,0.11,1.71,0.1,2.57C57.1,44.52,56.99,43.66,57.2,42.8z"/>
			<path d="M41.51,34.11c0.43-0.24,0.51-0.66,0.6-1.11C42.63,33.63,42.43,34,41.51,34.11z"/>
			<path d="M73.84,42.3c0.82-0.53,1.79-0.69,2.7-1.12c-0.03,0.31-0.24,0.29-0.37,0.34c-0.74,0.28-1.49,0.55-2.24,0.81
				c-0.02,0.01-0.06-0.04-0.09-0.06L73.84,42.3z"/>
			<path d="M56.36,44.46c0.12,0.06,0.14,0.18,0.18,0.3c0.19,0.54,0.3,1.12,0.65,1.6c0.04,0.06,0.08,0.15-0.01,0.21
				c-0.08,0.05-0.14,0-0.19-0.08c-0.37-0.63-0.58-1.3-0.61-2.03L56.36,44.46z"/>
			<path d="M40.57,55.51c0.07-0.12,0.22-0.13,0.32-0.21c0.21-0.16,0.61,0.03,0.66,0.28c0.04,0.2-0.24,0.31-0.27,0.29
				C41.04,55.75,40.69,55.85,40.57,55.51z"/>
			<path d="M57.37,26.12c0.51-0.41,0.96-0.92,1.59-1.17c-0.06,0.43-0.47,0.47-0.73,0.67C57.97,25.82,57.74,26.09,57.37,26.12z"/>
			<path d="M63.28,24.32c0.59-0.2,1.12-0.58,1.88-0.66c-0.56,0.43-1.16,0.54-1.7,0.77C63.43,24.45,63.34,24.35,63.28,24.32
				L63.28,24.32z"/>
			<path d="M55.65,46.75c0.27,0.69,0.54,1.39,1.01,2.03c-0.24,0.04-0.28-0.06-0.33-0.13c-0.32-0.49-0.5-1.04-0.71-1.57
				c-0.04-0.11-0.07-0.23,0.05-0.32L55.65,46.75z"/>
			<path d="M51.14,50.73c0.17-0.68,0.61-1.24,0.84-1.9C51.92,49.56,51.51,50.14,51.14,50.73z"/>
			<path d="M77.06,40.03c-0.55,0.36-1.2,0.43-1.81,0.63C75.8,40.31,76.39,40.05,77.06,40.03z"/>
			<path d="M40.71,33.9c0.2,0.27,0.3,0.52,0.17,0.79c-0.13,0.27-0.39,0.28-0.81,0.21C40.61,34.7,40.48,34.24,40.71,33.9z"/>
			<path d="M55.25,57.66c0.19-0.67,0.59-1.23,0.95-1.82c-0.27,0.63-0.42,1.33-0.96,1.81C55.23,57.65,55.25,57.66,55.25,57.66z"/>
			<path d="M43.26,64.64c0.02,0.03,0.07,0.07,0.06,0.1c-0.12,0.62-0.36,1.2-0.66,1.75c0.13-0.64,0.33-1.26,0.62-1.85
				C43.27,64.64,43.26,64.64,43.26,64.64z"/>
			<path d="M69.03,25.87c-0.32,0.43-0.73,0.38-1.14,0.35c-0.01-0.04-0.02-0.08-0.02-0.12C68.25,26.02,68.64,25.94,69.03,25.87z"/>
			<path d="M66.31,52.95c-0.35,0.5-0.9,0.65-1.42,0.86C65.28,53.39,65.86,53.28,66.31,52.95z"/>
			<path d="M63.28,24.31c-0.05,0.08-0.08,0.21-0.15,0.25c-0.48,0.26-0.94,0.57-1.47,0.73c0.47-0.45,1.11-0.59,1.62-0.96
				C63.28,24.32,63.28,24.31,63.28,24.31z"/>
			<path d="M54.84,57.83c-0.04-0.04-0.08-0.1-0.13-0.12c-0.31-0.08-0.19-0.27-0.11-0.44c0.01-0.02,0-0.21,0.09-0.03
				c0.03,0.05,0.03,0.13,0.07,0.15c0.1,0.05,0.14-0.05,0.17-0.11c0.1-0.21,0.19-0.43,0.28-0.64l-0.02,0c0.14,0.09,0.07,0.2,0.03,0.3
				c-0.13,0.3-0.26,0.6-0.39,0.89L54.84,57.83z"/>
			<path d="M55.2,56.63c0.26-0.54,0.52-1.08,0.78-1.63c0.09,0.08,0.09,0.15,0.06,0.19c-0.24,0.5-0.38,1.07-0.86,1.43
				C55.18,56.63,55.2,56.63,55.2,56.63z"/>
			<path d="M42.9,64.4c-0.08,0.48-0.1,0.98-0.48,1.36C42.58,65.31,42.74,64.85,42.9,64.4z"/>
			<path d="M47.09,31.81c0.44,0.17,0.9-0.02,1.34,0.07c0.09,0.02,0.19-0.05,0.27,0.05c-0.04,0.15-0.18,0.17-0.28,0.16
				c-0.32-0.04-0.63-0.02-0.94,0C47.26,32.1,47.15,31.99,47.09,31.81L47.09,31.81z"/>
			<path d="M62.44,58.11c0.04,0.42,0.2,0.82-0.26,1.09c-0.04-0.14,0.04-0.25,0.09-0.37c0.05-0.1,0.07-0.19-0.09-0.19
				c-0.07,0-0.2,0.03-0.11-0.09C62.18,58.42,62.16,58.2,62.44,58.11z"/>
			<path d="M56.28,26.35c0.32-0.24,0.64-0.48,0.96-0.73c-0.18,0.45-0.5,0.68-0.96,0.7C56.28,26.33,56.28,26.35,56.28,26.35z"/>
			<path d="M50.87,65.74c-0.11-0.23,0.02-0.43,0.12-0.61c0.13-0.24,0.28-0.47,0.5-0.83c-0.07,0.65-0.45,1-0.62,1.44L50.87,65.74z"/>
			<path d="M38.76,25.15c0-0.43,0.04-0.85-0.07-1.31C38.95,24.04,38.95,24.04,38.76,25.15z"/>
			<path d="M70.77,33.72c0.06-0.51,0.42-0.79,0.8-1.05c-0.15,0.44-0.58,0.67-0.81,1.05L70.77,33.72z"/>
			<path d="M30.64,19.88c-0.04,0.14,0.11,0.32-0.12,0.44c-0.2-0.21-0.34-0.44-0.37-0.81c0.26,0.09,0.34,0.3,0.5,0.39
				C30.64,19.9,30.64,19.88,30.64,19.88z"/>
			<path d="M51.24,65.83c-0.12-0.09-0.03-0.17,0.02-0.25c0.23-0.38,0.46-0.77,0.74-1.22c-0.09,0.64-0.47,1.03-0.77,1.46
				C51.22,65.83,51.24,65.83,51.24,65.83z"/>
			<path d="M76.85,39.22c0.23-0.15,0.46-0.29,0.73-0.33c0.04-0.01,0.12,0.04,0.13,0.08c0.01,0.04-0.02,0.13-0.06,0.14
				C77.41,39.23,77.14,39.25,76.85,39.22z"/>
			<path d="M64.7,53.12c-0.05-0.09-0.07-0.11-0.07-0.12c0.15-0.26,0.37-0.43,0.67-0.49c0.02,0,0.07,0.06,0.06,0.08
				C65.27,52.96,64.9,52.91,64.7,53.12z"/>
			<path d="M59.47,74.09c0.03-0.24,0.19-0.37,0.15-0.6c-0.02-0.1,0.11-0.15,0.21-0.16c0.05,0,0.13,0.01,0.16,0.05
				c0.07,0.1,0,0.18-0.07,0.25C59.77,73.79,59.62,73.93,59.47,74.09z"/>
			<path d="M55.67,54.34c0.02,0.41-0.14,0.76-0.33,1.1C55.46,55.07,55.54,54.7,55.67,54.34z"/>
			<path d="M50.86,65.74c-0.37,0.39-0.54,0.92-0.95,1.29C50.25,66.61,50.32,66.01,50.86,65.74C50.87,65.74,50.86,65.74,50.86,65.74z
				"/>
			<path d="M42.06,65.22c0.13-0.36,0.26-0.72,0.39-1.07C42.55,64.59,42.32,64.91,42.06,65.22z"/>
			<path d="M44.56,71.17c-0.11,0.32-0.34,0.3-0.58,0.24c-0.08-0.02-0.13-0.13-0.07-0.18C44.11,71.07,44.33,71.02,44.56,71.17z"/>
			<path d="M38.41,24.53c-0.15-0.65-0.15-0.65-0.06-1.02C38.5,23.86,38.52,24.15,38.41,24.53z"/>
			<path d="M70.57,32.93c0.27-0.4,0.35-0.75,0.71-0.93C71.19,32.36,71.19,32.36,70.57,32.93z"/>
			<path d="M45.73,33.47c-0.32,0.17-0.63-0.03-0.95-0.03c0.32-0.01,0.65-0.17,0.95,0.05C45.73,33.49,45.73,33.47,45.73,33.47z"/>
			<path d="M37.98,24.01c-0.1-0.25-0.21-0.5-0.2-0.83C38.1,23.44,38.16,23.7,37.98,24.01z"/>
			<path d="M55.12,54.59c0.04-0.36,0.08-0.71,0.12-1.07c0.17,0.39,0.11,0.74-0.14,1.07L55.12,54.59z"/>
			<path d="M45.3,57.56c-0.03-0.31,0.18-0.5,0.33-0.72C45.63,57.13,45.46,57.34,45.3,57.56z"/>
			<path d="M50.7,66.36c0.14,0.47-0.3,0.68-0.45,1.01C50.31,66.99,50.66,66.74,50.7,66.36L50.7,66.36z"/>
			<path d="M47.41,31.31c0.26-0.11,0.52-0.17,0.85,0.06C47.91,31.5,47.67,31.31,47.41,31.31z"/>
			<path d="M46.54,70.81c-0.09,0.09-0.19,0.18-0.31,0.09c-0.08-0.06-0.08-0.19,0.02-0.25c0.11-0.07,0.24-0.21,0.36-0.12
				C46.76,70.63,46.6,70.72,46.54,70.81z"/>
			<path d="M62.2,57.29c0.13,0.09,0.35,0.14,0.15,0.36c-0.1,0.12-0.22,0.22-0.33,0.33C62.08,57.76,62.14,57.52,62.2,57.29
				C62.21,57.28,62.2,57.29,62.2,57.29z"/>
			<path d="M55.67,46.75c-0.4-0.18-0.16-0.62-0.37-0.88c0.23,0.25,0.23,0.58,0.34,0.88C55.65,46.75,55.67,46.75,55.67,46.75z"/>
			<path d="M63.9,32.62c-0.2,0.22-0.31,0.5-0.61,0.65C63.43,32.86,63.43,32.86,63.9,32.62z"/>
			<path d="M77.28,38.12c0.1-0.08,0.17-0.14,0.25-0.19c0.1-0.08,0.24-0.12,0.29,0.02c0.07,0.17-0.12,0.16-0.21,0.19
				C77.52,38.17,77.43,38.22,77.28,38.12z"/>
			<path d="M35.68,22.43c0.08-0.04,0.17-0.06,0.24,0.05c0.06,0.09,0.06,0.19-0.04,0.26c-0.08,0.06-0.15,0.02-0.21-0.05
				C35.59,22.61,35.56,22.53,35.68,22.43z"/>
			<path d="M57.53,43.2c0.17,0.24,0.04,0.46-0.02,0.68C57.36,43.65,57.56,43.43,57.53,43.2z"/>
			<path d="M57.05,36.61c0.05,0.12,0.02,0.24-0.02,0.35c-0.05,0.15-0.19,0.24-0.32,0.15c-0.1-0.07-0.03-0.22,0.02-0.32
				c0,0-0.02,0-0.02,0c0.2,0.11,0.27-0.06,0.36-0.17L57.05,36.61z"/>
			<path d="M54.79,54.24c-0.1-0.25,0.01-0.49,0.05-0.74c0.15,0.26,0.06,0.5-0.08,0.74L54.79,54.24z"/>
			<path d="M55.22,47.32c-0.06-0.22-0.11-0.45-0.26-0.63c0.01-0.03,0.01-0.06,0.01-0.09C55.3,46.75,55.28,47.03,55.22,47.32z"/>
			<path d="M36.37,23c0.07-0.05,0.15-0.05,0.21,0.01c0.1,0.1,0.11,0.21-0.01,0.31c-0.08,0.06-0.15,0.02-0.2-0.05
				C36.32,23.18,36.29,23.09,36.37,23z"/>
			<path d="M51.1,63.46c0.08-0.15,0.15-0.3,0.23-0.47C51.41,63.21,51.24,63.33,51.1,63.46z"/>
			<path d="M56.28,26.33c-0.12,0.1-0.24,0.2-0.42,0.19c0.18-0.39,0.18-0.39,0.41-0.16C56.28,26.35,56.28,26.33,56.28,26.33z"/>
			<path d="M54.77,54.24c0.07,0.24,0,0.46-0.15,0.79c-0.02-0.37-0.02-0.6,0.17-0.79C54.79,54.24,54.77,54.24,54.77,54.24z"/>
			<path d="M56.38,44.46c-0.14-0.2-0.11-0.43-0.08-0.65c0.11,0.21,0.17,0.42,0.06,0.65C56.36,44.46,56.38,44.46,56.38,44.46z"/>
			<path d="M65.79,46.23c-0.14,0.14-0.28,0.28-0.45,0.45C65.32,46.31,65.61,46.33,65.79,46.23C65.79,46.23,65.79,46.23,65.79,46.23z
				"/>
			<path d="M47.09,31.8c-0.12,0.43-0.36,0.16-0.62,0.14C46.69,31.72,46.93,32.02,47.09,31.8C47.09,31.81,47.09,31.8,47.09,31.8z"/>
			<path d="M62.38,61.02c-0.05-0.17,0-0.28,0.16-0.31c0.13-0.03,0.13,0.11-0.02,0.23C62.48,60.97,62.43,60.99,62.38,61.02z"/>
			<path d="M62.48,59.92c0.01-0.05,0-0.08,0.01-0.09c0.05-0.1,0.03-0.25,0.18-0.28c0.02,0,0.07,0.05,0.07,0.07
				c0,0.11-0.1,0.17-0.17,0.24C62.55,59.87,62.53,59.88,62.48,59.92z"/>
			<path d="M54.82,57.83c-0.08,0.15-0.15,0.31-0.28,0.57c-0.03-0.36,0.06-0.51,0.29-0.57C54.84,57.83,54.82,57.83,54.82,57.83z"/>
			<path d="M60.3,73.64c0.13-0.12,0.23-0.15,0.32-0.11c0.05,0.02,0.06,0.11,0.01,0.15c-0.08,0.08-0.17,0.18-0.3,0.07
				C60.3,73.72,60.3,73.65,60.3,73.64z"/>
			<path d="M45.43,58.11c0.01-0.25,0.04-0.38,0.18-0.47C45.67,57.8,45.56,57.9,45.43,58.11z"/>
			<path d="M37.2,23.29c0.06-0.07,0.12-0.06,0.16-0.02c0.09,0.08,0.07,0.17,0.02,0.26c-0.04,0.06-0.1,0.07-0.14,0.01
				C37.18,23.47,37.16,23.37,37.2,23.29z"/>
			<path d="M52.12,65.46c-0.09-0.19,0.05-0.31,0.14-0.53C52.35,65.2,52.15,65.31,52.12,65.46L52.12,65.46z"/>
			<path d="M51.91,63.45c-0.03,0.18-0.03,0.31-0.13,0.39C51.72,63.72,51.75,63.61,51.91,63.45z"/>
			<path d="M42.02,63.89c0.04-0.01,0.11-0.06,0.14-0.04c0.07,0.05,0.06,0.14,0,0.19c-0.03,0.03-0.11,0.08-0.14,0.06
				C41.93,64.05,41.97,63.97,42.02,63.89z"/>
			<path d="M48.11,69.72c0.04-0.05,0.1-0.07,0.14-0.02c0.06,0.06,0.06,0.13,0,0.19c-0.02,0.02-0.07,0.03-0.1,0.02
				C48.05,69.86,48.08,69.79,48.11,69.72z"/>
			<path d="M55.61,44.37c0.14,0.14,0.08,0.32,0.06,0.48c-0.09-0.15-0.17-0.3-0.04-0.48L55.61,44.37z"/>
			<path d="M54.8,55.12c-0.06,0.14,0.14,0.33-0.06,0.46C54.61,55.39,54.91,55.29,54.8,55.12C54.8,55.12,54.8,55.12,54.8,55.12z"/>
			<path d="M77.09,37.64c0.07-0.03,0.15-0.07,0.22,0c0.05,0.05,0.05,0.11-0.01,0.15c-0.08,0.05-0.16,0.03-0.22-0.01
				C77.01,37.73,77.03,37.68,77.09,37.64z"/>
			<path d="M70.87,31.67c0.03,0.08,0.01,0.15-0.05,0.2c-0.04,0.04-0.1,0.07-0.14,0.01c-0.04-0.07-0.01-0.14,0.05-0.2
				C70.78,31.64,70.83,31.6,70.87,31.67z"/>
			<path d="M52.12,65.47c-0.11,0.17-0.29,0.3-0.3,0.52l0,0C51.74,65.71,51.98,65.62,52.12,65.47
				C52.12,65.46,52.12,65.47,52.12,65.47z"/>
			<path d="M45.73,32.59c-0.14,0.12-0.27,0.1-0.41-0.02c0.16-0.22,0.28-0.04,0.41,0.04C45.73,32.61,45.73,32.59,45.73,32.59z"/>
			<path d="M55.53,48.05c-0.18-0.15-0.21-0.36-0.22-0.58C55.44,47.64,55.56,47.81,55.53,48.05z"/>
			<path d="M55.1,54.58c0,0.24-0.08,0.42-0.3,0.53c0,0,0,0,0,0c0.18-0.13,0.11-0.42,0.32-0.53C55.12,54.59,55.1,54.58,55.1,54.58z"
				/>
			<path d="M55.63,44.37c-0.15-0.1-0.08-0.23-0.09-0.43c0.14,0.18,0.14,0.31,0.07,0.43C55.61,44.37,55.63,44.37,55.63,44.37z"/>
			<path d="M70.76,33.72c-0.1,0.1-0.21,0.21-0.4,0.4c0.13-0.27,0.26-0.35,0.41-0.4C70.77,33.72,70.76,33.72,70.76,33.72z"/>
			<path d="M73.84,42.28c-0.09,0.12-0.24,0.14-0.44,0.21c0.15-0.19,0.3-0.17,0.44-0.19C73.84,42.3,73.84,42.28,73.84,42.28z"/>
			<path d="M51.82,65.99c-0.12,0.12-0.24,0.24-0.39,0.39C51.49,66.14,51.65,66.06,51.82,65.99C51.82,65.99,51.82,65.99,51.82,65.99z
				"/>
			<path d="M50.7,66.36c0.18-0.18,0.36-0.35,0.54-0.53c0,0-0.01,0-0.01,0C51.11,66.06,50.96,66.26,50.7,66.36
				C50.7,66.36,50.7,66.36,50.7,66.36z"/>
			<path d="M43.27,64.64c0.06-0.15,0.13-0.29,0.19-0.44c0.05,0.21,0.01,0.37-0.2,0.44C43.26,64.64,43.27,64.64,43.27,64.64z"/>
			<path d="M77.49,62.52c-0.5,0.77-1.34,0.94-2.09,1.36c0.04-0.3,0.36-0.23,0.44-0.47c-0.7-0.01-1.31,0.42-2,0.32
				C75.09,63.45,76.29,63.04,77.49,62.52z"/>
			<path d="M70.86,59.03c0.12-0.22,0.3-0.19,0.44-0.22c0.96-0.22,1.84-0.61,2.69-1.11c0.22-0.13,0.45-0.26,0.69-0.37
				c0.26-0.12,0.48-0.28,0.64-0.52c0.08-0.12,0.2-0.28,0.32-0.16c0.19,0.17-0.07,0.25-0.15,0.36c-0.06,0.08-0.14,0.14-0.23,0.19
				c-1.04,0.59-2.1,1.16-3.23,1.56C71.67,58.9,71.29,58.96,70.86,59.03z"/>
			<path d="M68.47,67.61c0.72-0.22,1.44-0.44,2.15-0.67c0.21-0.06,0.43-0.09,0.59-0.27c0,0,0.01-0.01,0.01-0.01
				c-0.34,0.44-0.8,0.68-1.32,0.87c-0.49,0.18-0.95,0.15-1.43,0.06L68.47,67.61z"/>
			<path d="M72.47,59.28c0.73-0.31,1.39-0.75,2.03-1.22c-0.2,0.43-0.64,0.58-0.98,0.83c-0.21,0.15-0.44,0.26-0.67,0.38
				c-0.12,0.06-0.26,0.13-0.37-0.01L72.47,59.28z"/>
			<path d="M68.01,62.44c0.61,0.04,1.19-0.1,1.76-0.27C69.22,62.51,68.66,62.74,68.01,62.44z"/>
			<path d="M67.89,58.42c-0.42,0.6-1.13,0.75-1.74,1.07C66.68,59.06,67.33,58.82,67.89,58.42z"/>
			<path d="M76.39,54.4c0.42-0.35,0.96-0.44,1.43-0.7c-0.44,0.29-0.86,0.65-1.43,0.68C76.39,54.39,76.39,54.4,76.39,54.4z"/>
			<path d="M76.82,55.56c-0.42,0.3-0.92,0.42-1.41,0.58c0.45-0.23,0.85-0.59,1.42-0.56L76.82,55.56z"/>
			<path d="M63.93,66.4c0.42-0.08,0.84-0.16,1.26-0.24C64.79,66.33,64.4,66.56,63.93,66.4z"/>
			<path d="M76.83,52.84c0.39-0.02,0.62-0.39,1-0.45C77.72,52.77,77.25,52.98,76.83,52.84L76.83,52.84z"/>
			<path d="M75.79,54.69c-0.4,0.22-0.82,0.37-1.29,0.35c0.36-0.14,0.73-0.27,1.09-0.41c0.08-0.03,0.15,0,0.2,0.08L75.79,54.69z"/>
			<path d="M67.86,63.46c-0.32,0.32-0.68,0.15-1.03,0.06c0.34-0.11,0.69-0.04,1.03-0.04L67.86,63.46z"/>
			<path d="M80.3,57.77c0.29-0.22,0.58-0.45,1.09-0.51C81.03,57.65,80.62,57.61,80.3,57.77z"/>
			<path d="M76.83,55.57c0.12-0.43,0.49-0.4,0.81-0.47c-0.16,0.36-0.52,0.35-0.81,0.45C76.82,55.56,76.83,55.57,76.83,55.57z"/>
			<path d="M70.26,60.22c0.34-0.24,0.76-0.28,1.15-0.37c-0.36,0.19-0.71,0.42-1.15,0.35L70.26,60.22z"/>
			<path d="M71.29,61.32c-0.22,0.39-0.63,0.47-1,0.61c0.28-0.28,0.66-0.4,1-0.59C71.28,61.34,71.29,61.32,71.29,61.32z"/>
			<path d="M68.47,67.59c-0.32,0.28-0.7,0.25-1.09,0.16c0.36-0.05,0.72-0.09,1.09-0.14C68.47,67.61,68.47,67.59,68.47,67.59z"/>
			<path d="M64.91,62.16c-0.31,0.28-0.65,0.5-1.09,0.48C64.18,62.48,64.54,62.32,64.91,62.16z"/>
			<path d="M67,60.11c-0.09,0.22-0.25,0.37-0.6,0.41C66.66,60.34,66.83,60.23,67,60.11z"/>
			<path d="M71.71,65.72c-0.2,0.19-0.45,0.19-0.71,0.2c0.21-0.16,0.45-0.19,0.71-0.18C71.71,65.73,71.71,65.72,71.71,65.72z"/>
			<path d="M79.7,60.09c-0.17,0.25-0.45,0.27-0.7,0.37c0.18-0.23,0.43-0.3,0.71-0.34L79.7,60.09z"/>
			<path d="M76.83,52.84c-0.09,0.29-0.31,0.34-0.59,0.37C76.39,52.97,76.71,53.06,76.83,52.84C76.83,52.84,76.83,52.84,76.83,52.84z
				"/>
			<path d="M65.19,60.45c-0.13,0.04-0.25,0.07-0.38,0.11c-0.01-0.02-0.02-0.05-0.02-0.07c0.13-0.04,0.27-0.08,0.4-0.12
				C65.18,60.39,65.18,60.42,65.19,60.45z"/>
			<path d="M69.55,66.89c0.22-0.11,0.35-0.16,0.53-0.07C69.92,66.9,69.79,66.95,69.55,66.89z"/>
			<path d="M78.41,61.45c0.12-0.06,0.25-0.12,0.39-0.19c0.02,0.14-0.08,0.17-0.15,0.21c-0.07,0.04-0.15,0.05-0.22,0.08
				C78.42,61.51,78.42,61.48,78.41,61.45z"/>
			<path d="M68.75,55.29c0.06-0.07,0.12-0.14,0.18-0.04c0.02,0.03,0,0.11-0.03,0.15c-0.04,0.06-0.11,0.14-0.19,0.08
				C68.62,55.41,68.75,55.35,68.75,55.29z"/>
			<path d="M69.22,56.25c0.02-0.02-0.03,0.02-0.08-0.03c-0.05-0.05,0-0.11,0.04-0.14c0.03-0.02,0.08-0.04,0.1-0.03
				C69.35,56.09,69.33,56.14,69.22,56.25z"/>
			<path d="M66.76,68.76c-0.14,0.16-0.3,0.06-0.33,0.09C66.47,68.86,66.55,68.69,66.76,68.76z"/>
			<path d="M72.12,66.27c0.11-0.25,0.29-0.38,0.63-0.41c-0.2,0.22-0.44,0.27-0.63,0.39C72.12,66.26,72.12,66.27,72.12,66.27z"/>
			<path d="M77.48,61.08c-0.21-0.07-0.43,0.13-0.63-0.03l0,0C77.06,61.09,77.28,60.89,77.48,61.08L77.48,61.08z"/>
			<path d="M67.86,63.48c0.16-0.15,0.36-0.18,0.61-0.17c-0.19,0.22-0.4,0.19-0.61,0.15C67.86,63.46,67.86,63.48,67.86,63.48z"/>
			<path d="M76.85,61.06c-0.14,0.07-0.25,0.24-0.46,0.14C76.54,61.07,76.75,61.23,76.85,61.06C76.85,61.05,76.85,61.06,76.85,61.06z
				"/>
			<path d="M77.22,62.01c-0.05,0.18-0.19,0.16-0.32,0.18C76.94,62.01,77.15,62.14,77.22,62.01z"/>
			<path d="M72.47,59.27c-0.05,0.23-0.2,0.3-0.47,0.31c0.14-0.21,0.34-0.19,0.47-0.29C72.47,59.28,72.47,59.27,72.47,59.27z"/>
			<path d="M77.48,61.09c0.11-0.26,0.29-0.4,0.59-0.32l0-0.02c-0.2,0.11-0.4,0.22-0.59,0.33C77.48,61.08,77.48,61.09,77.48,61.09z"
				/>
			<path d="M75.71,62.5c0.09-0.16,0.21-0.15,0.32-0.15c0.05,0,0.07,0.05,0.04,0.08C75.98,62.53,75.87,62.52,75.71,62.5z"/>
			<path d="M75.79,54.7c0.14-0.23,0.35-0.29,0.6-0.3c0,0,0-0.02,0-0.02c-0.14,0.22-0.36,0.28-0.6,0.3
				C75.79,54.69,75.79,54.7,75.79,54.7z"/>
			<path d="M70.26,60.2c-0.11,0.18-0.28,0.06-0.42,0.05c0.14-0.04,0.26-0.19,0.43-0.04C70.26,60.22,70.26,60.2,70.26,60.2z"/>
			<path d="M68.91,66.95c0.07-0.02,0.15-0.06,0.22-0.01c0.04,0.03,0.04,0.07-0.01,0.08c-0.07,0.01-0.15,0.02-0.22,0.01
				C68.86,67.02,68.87,66.97,68.91,66.95z"/>
			<path d="M79.7,60.11c0.16-0.08,0.31-0.16,0.58-0.29c-0.2,0.29-0.34,0.39-0.58,0.27C79.7,60.09,79.7,60.11,79.7,60.11z"/>
			<path d="M73.37,64.43c0.16-0.04,0.24-0.06,0.33-0.08c0,0.12-0.08,0.1-0.15,0.1C73.52,64.46,73.48,64.45,73.37,64.43z"/>
			<path d="M65.91,65.61c-0.13,0.04-0.25,0.08-0.45,0.15c0.16-0.23,0.3-0.22,0.45-0.13L65.91,65.61z"/>
			<path d="M71.04,60.67c0.01,0.08-0.06,0.07-0.11,0.09c-0.04,0.01-0.11,0.06-0.12-0.04c0-0.02,0.04-0.06,0.07-0.08
				C70.94,60.61,71,60.62,71.04,60.67z"/>
			<path d="M65.91,65.63c0.11-0.21,0.32-0.23,0.52-0.26c0,0,0-0.02,0-0.02c-0.13,0.18-0.31,0.24-0.52,0.26
				C65.91,65.61,65.91,65.63,65.91,65.63z"/>
			<path d="M70.45,65.94c0.07-0.03,0.15-0.05,0.22,0.01c0.04,0.04,0.03,0.07-0.03,0.08c-0.06,0.01-0.12,0.01-0.17,0
				C70.43,66.02,70.42,65.97,70.45,65.94z"/>
			<path d="M70.55,66.62c0.07-0.03,0.14-0.04,0.2,0.01c0,0-0.03,0.07-0.05,0.09c-0.06,0.04-0.13,0.06-0.19-0.01
				C70.5,66.69,70.54,66.65,70.55,66.62z"/>
			<path d="M78.08,60.77c0.1-0.1,0.21-0.16,0.4-0.16c-0.1,0.18-0.27,0.11-0.39,0.14C78.08,60.75,78.08,60.77,78.08,60.77z"/>
			<path d="M74.51,56.44c-0.08,0.13-0.18,0.2-0.34,0.19c0.05-0.18,0.19-0.19,0.34-0.17L74.51,56.44z"/>
			<path d="M74.51,56.46c0.07-0.04,0.13-0.09,0.2-0.12c0.03-0.01,0.09,0,0.1,0.02c0.04,0.08-0.03,0.1-0.09,0.11
				c-0.07,0.01-0.15,0.04-0.22-0.03C74.51,56.44,74.51,56.46,74.51,56.46z"/>
			<path d="M10.7,45.85c-0.06-0.37,0.16-0.49,0.31-0.62c1.08-0.86,2.16-1.72,3.29-2.52c1-0.71,1.93-1.5,2.93-2.21
				c0.96-0.68,1.97-1.29,2.96-1.93c0.17-0.11,0.33-0.23,0.48-0.36c0.35-0.3,0.75-0.53,1.2-0.69c-0.57,0.46-1.13,0.94-1.72,1.38
				c-1.15,0.84-2.32,1.64-3.46,2.48c-1.61,1.19-3.23,2.36-4.79,3.61C11.53,45.29,11.13,45.54,10.7,45.85z"/>
			<path d="M24.14,45.09c-0.59,0.71-1.28,1.3-2.01,1.85c-0.85,0.64-1.6,1.39-2.46,2.01c-1.1,0.79-2.18,1.61-3.26,2.43
				c-0.59,0.45-1.18,0.89-1.74,1.38c-0.43,0.37-0.89,0.67-1.36,0.98c-0.13-0.21,0.05-0.26,0.14-0.34c0.94-0.84,1.95-1.6,2.95-2.37
				c1.23-0.96,2.46-1.92,3.7-2.86c0.85-0.64,1.63-1.36,2.5-1.96C23.12,45.86,23.67,45.54,24.14,45.09z"/>
			<path d="M23.73,55.84c0.59-0.76,1.16-1.37,1.84-1.87c0.76-0.55,1.45-1.19,2.11-1.86c0.45-0.45,0.93-0.87,1.4-1.31
				c0.56-0.52,1.11-1.03,1.67-1.55c0.17-0.16,0.36-0.32,0.56-0.5C31,49.67,24.75,55.56,23.73,55.84z"/>
			<path d="M25.34,35.9c0.11-0.15,0.22-0.19,0.41-0.11c0.41,0.17,0.78,0.4,1.12,0.69c0.69,0.58,1.33,1.22,1.93,1.9
				c0.08,0.09,0.15,0.19,0.22,0.29c0.08,0.11,0.19,0.25,0.04,0.37c-0.16,0.12-0.25-0.06-0.34-0.15c-0.33-0.35-0.69-0.67-0.98-1.06
				c-0.53-0.69-1.21-1.22-1.91-1.73C25.69,36.01,25.55,35.87,25.34,35.9L25.34,35.9z"/>
			<path d="M31.2,39.65c1.33-1.27,2.75-2.41,4.29-3.39c-0.12,0.38-0.12,0.38-0.37,0.57c-0.98,0.75-1.86,1.63-2.91,2.3
				C31.89,39.34,31.58,39.54,31.2,39.65z"/>
			<path d="M31.5,42.47c0.91,1.06,1.34,2.33,1.56,3.69c0.05,0.32,0.11,0.63,0.14,0.95c0.02,0.14,0,0.3-0.2,0.3
				c-0.17,0-0.15-0.15-0.16-0.27c-0.12-1.2-0.42-2.36-0.88-3.48C31.8,43.27,31.53,42.91,31.5,42.47z"/>
			<path d="M10.6,43.6c-0.13,0.64-0.42,1.08-0.65,1.53c-0.19,0.37-0.44,0.71-0.56,1.11c-0.04,0.14-0.12,0.22-0.26,0.16
				c-0.16-0.07-0.08-0.19-0.04-0.3c0.23-0.7,0.61-1.34,0.93-1.99C10.12,43.88,10.33,43.82,10.6,43.6z"/>
			<path d="M12.96,55.58c-0.84,0.52-1.78,0.68-2.72,0.84c-0.09,0.02-0.17-0.03-0.19-0.11c-0.01-0.05,0.02-0.11,0.06-0.16
				c0.06-0.08,0.15-0.13,0.26-0.14C11.24,55.87,12.08,55.6,12.96,55.58z"/>
			<path d="M22.77,58.23c-0.56,0.32-1.12,0.63-1.77,0.74C21.53,58.58,22.12,58.35,22.77,58.23z"/>
			<path d="M25.34,35.9c-0.06-0.21-0.34-0.21-0.42-0.42C25.27,35.6,25.27,35.6,25.34,35.9C25.34,35.9,25.34,35.9,25.34,35.9z"/>
			<path d="M59.15,64.16c0.02,0.12,0.02,0.25-0.08,0.34c-0.38,0.35-0.77,0.68-1.21,0.97C58.3,65.03,58.73,64.6,59.15,64.16
				C59.16,64.16,59.15,64.16,59.15,64.16z"/>
			<path d="M57.94,66.68c-0.03,0.03-0.07,0.08-0.12,0.1c-0.03,0.01-0.02-0.04-0.04-0.08c-0.07-0.12-0.11-0.22,0.04-0.32
				c0.1-0.07,0.17-0.18,0.28-0.03C58.23,66.54,58,66.56,57.94,66.68z"/>
			<path d="M57.56,67.95c-0.12,0.31-0.41,0.36-0.68,0.45c0.21-0.16,0.24-0.61,0.68-0.43C57.57,67.97,57.56,67.95,57.56,67.95z"/>
			<path d="M59.29,64.64c-0.19,0.19-0.38,0.38-0.57,0.57c-0.01-0.01-0.02-0.01-0.02-0.02c0.19-0.19,0.38-0.38,0.57-0.57
				C59.28,64.62,59.28,64.63,59.29,64.64z"/>
			<path d="M58.74,64.2c0.03-0.06,0.03-0.08,0.05-0.09c0.08-0.05,0.17-0.11,0.26-0.15c0.06-0.02,0.08,0.02,0.04,0.06
				c-0.07,0.07-0.15,0.13-0.23,0.19C58.83,64.21,58.81,64.2,58.74,64.2z"/>
			<path d="M59.87,63.25c-0.11,0.14-0.2,0.3-0.46,0.38c0.14-0.21,0.21-0.39,0.46-0.36C59.87,63.26,59.87,63.25,59.87,63.25z"/>
			<path d="M59.99,59.56c0.07-0.04,0.14-0.09,0.2,0c0.04,0.05,0,0.11-0.05,0.14c-0.06,0.04-0.16,0.09-0.21,0.03
				C59.85,59.67,59.95,59.61,59.99,59.56z"/>
			<path d="M59.52,62.31c0.03-0.02,0.08-0.07,0.09-0.06c0.06,0.06-0.02,0.08-0.05,0.11c-0.02,0.03-0.06,0.04-0.09,0.07
				C59.43,62.36,59.51,62.35,59.52,62.31z"/>
			<path d="M65.26,62.22c-0.11,0.14-0.19,0.31-0.4,0.42C64.92,62.4,65.16,62.37,65.26,62.22C65.26,62.22,65.26,62.22,65.26,62.22z"
				/>
		</g>
	</g>
	<g>
	</g>
	<g>
	</g>
	<g>
	</g>
	<g>
	</g>
	<g>
	</g>
	<g>
	</g>
	<g>
	</g>
	<g>
	</g>
	<g>
	</g>
	<g>
	</g>
	<g>
	</g>
	<g>
	</g>
	<g>
	</g>
	<g>
	</g>
	<g>
	</g>
</g>
</svg>
