<?xml version="1.0" encoding="utf-8"?>
<!-- Generator: Adobe Illustrator 26.2.1, SVG Export Plug-In . SVG Version: 6.00 Build 0)  -->
<svg version="1.1" xmlns="http://www.w3.org/2000/svg" xmlns:xlink="http://www.w3.org/1999/xlink" x="0px" y="0px"
	 viewBox="0 0 100 100" enable-background="new 0 0 100 100" xml:space="preserve">
<g id="Layer_1">
</g>
<g id="BG">
	<rect id="BG_00000044858667638158791930000016007329722306264735_" x="0" fill="#F0EDDA" width="100" height="100"/>
	<path d="M98.4,1.6v96.8H1.6V1.6H98.4 M100,0H0v100h100V0L100,0z"/>
</g>
<g id="THINGS">
	<g id="JAIL">
		<g>
			<rect x="17.77" y="0.8" fill="#D65327" width="81.43" height="81.43"/>
			<path fill="#222317" d="M98.4,1.6v39.91v39.91H58.49H18.57V41.51V1.6h39.91H98.4 M100,0H58.49H16.97v41.51v41.51h41.51H100V41.51
				V0L100,0z"/>
		</g>
		<g>
			<g>
				<path fill="#231F20" d="M31.58,85.63l1.44-0.14l3.11,6.9l3.14-6.9l1.43,0.14l-4.5,9.74h-0.13L31.58,85.63z"/>
				<path fill="#231F20" d="M42.03,85.63l1.37-0.14v9.74l-1.37,0.14V85.63z"/>
				<path fill="#231F20" d="M45.07,94.6l0.48-1.38c0.08,0.05,0.19,0.11,0.33,0.18c0.14,0.07,0.46,0.17,0.94,0.3s0.98,0.19,1.49,0.19
					c0.55,0,0.98-0.11,1.3-0.33c0.32-0.22,0.48-0.53,0.48-0.94c0-0.25-0.12-0.47-0.37-0.66c-0.24-0.19-0.55-0.35-0.91-0.47
					c-0.36-0.12-0.76-0.26-1.19-0.4c-0.43-0.15-0.83-0.31-1.19-0.5c-0.36-0.18-0.67-0.46-0.91-0.83c-0.25-0.37-0.37-0.79-0.37-1.29
					c0-0.95,0.29-1.68,0.88-2.21c0.59-0.52,1.36-0.79,2.32-0.79c0.4,0,0.81,0.05,1.23,0.14s0.72,0.19,0.94,0.28l0.32,0.14
					l-0.43,1.38c-0.59-0.31-1.28-0.46-2.07-0.46c-0.55,0-0.99,0.11-1.32,0.32s-0.49,0.54-0.49,0.98c0,0.26,0.12,0.49,0.37,0.68
					c0.25,0.2,0.55,0.36,0.91,0.5c0.36,0.13,0.76,0.28,1.19,0.43c0.43,0.16,0.83,0.33,1.19,0.51c0.36,0.19,0.67,0.45,0.91,0.8
					c0.24,0.35,0.37,0.76,0.37,1.24c0,1.96-1.08,2.93-3.24,2.93c-0.47,0-0.97-0.06-1.49-0.19s-0.93-0.26-1.21-0.39L45.07,94.6z"/>
				<path fill="#231F20" d="M53.18,85.63l1.37-0.14v9.74l-1.37,0.14V85.63z"/>
				<path fill="#231F20" d="M63.2,85.63l0.28,1.47h-3.07v8.12l-1.37,0.14v-8.26h-3.07l0.28-1.47H63.2z"/>
				<path fill="#231F20" d="M64.9,85.63l1.37-0.14v9.74l-1.37,0.14V85.63z"/>
				<path fill="#231F20" d="M75.88,95.37l-6-6.59v6.46l-1.37,0.14v-9.88h0.08l6.04,6.58v-6.45L76,85.49v9.88H75.88z"/>
				<path fill="#231F20" d="M79.96,87.84c-0.49,0.58-0.74,1.45-0.74,2.59c0,1.14,0.25,2,0.75,2.59c0.5,0.58,1.28,0.88,2.35,0.88
					c0.4,0,0.84-0.05,1.33-0.17v-2.1h-1.92v-1.36h3.3v4.63c-0.74,0.32-1.7,0.47-2.88,0.47c-1.38,0-2.44-0.43-3.18-1.3
					c-0.74-0.87-1.11-2.08-1.11-3.64c0-1.56,0.37-2.77,1.1-3.64c0.73-0.87,1.79-1.3,3.17-1.3c0.49,0,0.96,0.04,1.42,0.12
					c0.46,0.08,0.8,0.16,1.02,0.24l0.32,0.11l-0.32,1.39c-0.81-0.26-1.57-0.39-2.28-0.39C81.23,86.97,80.45,87.26,79.96,87.84z"/>
			</g>
		</g>
		<g>
			<g>
				<path fill="#231F20" d="M4.96,28.12c0-0.3,0.03-0.6,0.1-0.89c0.06-0.29,0.13-0.51,0.21-0.65l0.1-0.21l1.39,0.28
					c-0.24,0.4-0.36,0.78-0.36,1.15c0,0.34,0.09,0.58,0.27,0.72c0.18,0.14,0.51,0.21,0.98,0.21h7.05l0.14,1.37H7.78
					c-0.98,0-1.7-0.14-2.15-0.43C5.18,29.38,4.96,28.86,4.96,28.12z"/>
				<path fill="#231F20" d="M9.42,38.52h5.27l0.14,1.37H9.42c-0.62,0-1.19-0.07-1.7-0.2s-0.99-0.35-1.41-0.63
					c-0.43-0.29-0.76-0.69-0.99-1.2c-0.24-0.51-0.35-1.12-0.35-1.82s0.12-1.3,0.35-1.81c0.24-0.51,0.57-0.91,0.99-1.2
					c0.43-0.29,0.9-0.5,1.41-0.63s1.08-0.2,1.7-0.2h5.27l0.14,1.37H9.42c-1.99,0-2.99,0.83-2.99,2.48
					C6.43,37.69,7.43,38.52,9.42,38.52z"/>
				<path fill="#231F20" d="M5.72,41.34l1.38,0.48c-0.05,0.08-0.11,0.19-0.18,0.33c-0.07,0.14-0.17,0.46-0.3,0.94
					c-0.13,0.48-0.19,0.98-0.19,1.49c0,0.55,0.11,0.98,0.33,1.3c0.22,0.32,0.53,0.48,0.94,0.48c0.25,0,0.47-0.12,0.66-0.37
					c0.19-0.24,0.35-0.55,0.47-0.91s0.26-0.76,0.4-1.19s0.31-0.83,0.5-1.19c0.19-0.36,0.46-0.67,0.83-0.91
					c0.37-0.24,0.8-0.37,1.29-0.37c0.95,0,1.68,0.29,2.2,0.88c0.52,0.59,0.79,1.36,0.79,2.32c0,0.4-0.05,0.81-0.14,1.23
					c-0.09,0.41-0.19,0.72-0.28,0.94l-0.14,0.32l-1.38-0.43c0.31-0.59,0.46-1.28,0.46-2.07c0-0.55-0.11-0.99-0.32-1.31
					c-0.21-0.33-0.54-0.49-0.98-0.49c-0.26,0-0.49,0.12-0.68,0.37c-0.2,0.25-0.36,0.55-0.5,0.91c-0.13,0.36-0.28,0.76-0.43,1.19
					s-0.33,0.83-0.51,1.19c-0.19,0.36-0.45,0.66-0.8,0.91c-0.35,0.24-0.76,0.37-1.24,0.37c-1.96,0-2.94-1.08-2.94-3.24
					c0-0.47,0.06-0.97,0.19-1.49s0.26-0.93,0.39-1.21L5.72,41.34z"/>
				<path fill="#231F20" d="M14.69,55.73l-1.47,0.28v-3.07H5.1l-0.14-1.37h8.26V48.5l1.47,0.28V55.73z"/>
			</g>
		</g>
		<g>
			<g>
				<path fill="#231F20" d="M87.9,4.74l1.06,0.87l-6.89,6.89l-1.06-0.87L87.9,4.74z"/>
				<path fill="#231F20" d="M88.78,19.39l0.42-8.9l-4.56,4.56l-1.06-0.87l6.98-6.98l0.06,0.06l-0.39,8.93l4.56-4.56l1.07,0.87
					l-6.98,6.98L88.78,19.39z"/>
			</g>
		</g>
		<g>
			<g>
				<path fill="#231F20" d="M24.95,49.74c-0.42,0.42-0.85,0.63-1.27,0.62c-0.43-0.01-0.88-0.25-1.35-0.73l-0.62-0.62l-1.5,1.5
					l-0.62-0.5l3.97-3.97c0.38,0.24,0.81,0.6,1.27,1.06c0.48,0.48,0.73,0.94,0.74,1.36C25.58,48.89,25.38,49.32,24.95,49.74z
					 M23.73,49.48c0.23,0.01,0.45-0.09,0.66-0.3s0.31-0.43,0.3-0.66c-0.01-0.23-0.16-0.49-0.46-0.79c-0.15-0.15-0.38-0.34-0.67-0.58
					l-1.25,1.25l0.62,0.62C23.24,49.32,23.5,49.48,23.73,49.48z"/>
				<path fill="#231F20" d="M27.29,54.03l2.17-2.17l0.62,0.5l-2.23,2.23c-0.26,0.26-0.52,0.46-0.79,0.62
					c-0.27,0.16-0.55,0.26-0.84,0.32c-0.29,0.06-0.6,0.03-0.91-0.09s-0.61-0.32-0.9-0.6c-0.29-0.29-0.49-0.59-0.6-0.9
					c-0.11-0.31-0.14-0.61-0.08-0.9c0.06-0.29,0.16-0.58,0.32-0.84c0.16-0.27,0.36-0.53,0.62-0.79l2.17-2.17l0.62,0.51l-2.23,2.23
					c-0.82,0.82-0.89,1.57-0.21,2.26C25.71,54.92,26.47,54.85,27.29,54.03z"/>
				<path fill="#231F20" d="M29.83,60.14l-0.68-0.57l0.65-2.47l-0.67-0.67l-1.5,1.5l-0.62-0.5l3.97-3.97
					c0.38,0.24,0.81,0.6,1.27,1.06c0.48,0.48,0.73,0.94,0.74,1.36s-0.19,0.85-0.62,1.28c-0.62,0.62-1.24,0.76-1.88,0.43L29.83,60.14
					z M31.82,56.6c0.21-0.21,0.31-0.43,0.3-0.66c-0.01-0.23-0.16-0.49-0.46-0.79c-0.15-0.15-0.38-0.34-0.67-0.58l-1.25,1.25
					l0.69,0.69C30.92,57.01,31.38,57.04,31.82,56.6z"/>
				<path fill="#231F20" d="M34.24,58.46c-0.44,0.04-0.9,0.29-1.37,0.76c-0.47,0.47-0.72,0.93-0.76,1.38
					c-0.03,0.45,0.17,0.89,0.61,1.33c0.16,0.16,0.37,0.32,0.62,0.48l0.87-0.87l-0.79-0.79l0.56-0.56l1.36,1.36l-1.91,1.91
					c-0.44-0.18-0.9-0.51-1.39-1c-0.57-0.57-0.83-1.19-0.77-1.85c0.05-0.66,0.4-1.31,1.04-1.96s1.29-0.99,1.95-1.05
					c0.66-0.06,1.28,0.2,1.85,0.77c0.2,0.2,0.38,0.41,0.54,0.64c0.16,0.22,0.26,0.4,0.32,0.52l0.08,0.18l-0.7,0.44
					c-0.23-0.44-0.49-0.81-0.78-1.1C35.13,58.62,34.69,58.42,34.24,58.46z"/>
				<path fill="#231F20" d="M34.38,64.8l-0.53-0.65l5.78-2.26l0.08,0.08l-2.2,5.83l-0.6-0.49L37.4,66l-1.71-1.71L34.38,64.8z
					 M38.46,63.19L36.41,64l1.27,1.27L38.46,63.19z"/>
				<path fill="#231F20" d="M44.33,66.72l-0.49,0.72l-1.27-1.27l-3.35,3.35l-0.62-0.51L42,65.61l-1.27-1.27l0.72-0.49L44.33,66.72z"
					/>
				<path fill="#231F20" d="M41.94,71.19c0.07-0.71,0.4-1.35,0.98-1.92c0.58-0.58,1.22-0.9,1.93-0.98c0.71-0.07,1.32,0.15,1.83,0.66
					c0.51,0.51,0.73,1.12,0.66,1.83c-0.07,0.71-0.4,1.35-0.98,1.93c-0.58,0.58-1.22,0.9-1.93,0.98c-0.71,0.07-1.32-0.14-1.83-0.66
					C42.09,72.51,41.87,71.9,41.94,71.19z M44.45,72.86c0.47-0.06,0.92-0.3,1.34-0.72s0.67-0.87,0.72-1.34
					c0.06-0.47-0.09-0.88-0.45-1.24c-0.36-0.36-0.77-0.51-1.24-0.45c-0.47,0.06-0.92,0.3-1.34,0.72s-0.67,0.87-0.72,1.34
					c-0.06,0.47,0.09,0.89,0.45,1.24C43.56,72.77,43.98,72.92,44.45,72.86z"/>
				<path fill="#231F20" d="M48.02,78.32l-0.68-0.57l0.65-2.47l-0.67-0.67l-1.5,1.5l-0.62-0.5l3.97-3.97
					c0.38,0.24,0.81,0.6,1.27,1.06c0.48,0.48,0.73,0.94,0.74,1.36c0.01,0.43-0.19,0.85-0.62,1.28c-0.62,0.62-1.24,0.76-1.88,0.44
					L48.02,78.32z M50,74.79c0.21-0.21,0.31-0.43,0.3-0.66c-0.01-0.23-0.16-0.49-0.46-0.79c-0.15-0.15-0.38-0.34-0.67-0.58
					l-1.25,1.25l0.69,0.69C49.11,75.19,49.57,75.22,50,74.79z"/>
				<path fill="#231F20" d="M51.91,78.65l-1.78,1.78l-0.62-0.51l1.84-1.84l0.84-3.51l0.68,0.57l-0.73,2.71l2.74-0.7l0.54,0.66
					L51.91,78.65z"/>
			</g>
		</g>
		<path fill="#FFFCDF" d="M64.63,14.07c-4.59-0.74-7.71,1.96-8.78,5.74c-0.61,2.16-0.16,4.84,0.53,7.3
			c0.36,1.29,0.54,3.23-0.27,4.71c-0.33,0.6-1.36,0.17-1.46,0.78c-0.6,0.11-0.23-0.48-1.07-1c-0.34-0.29-0.78-1.01-1.15-1.25
			c-0.18-0.15-0.75-0.53-0.85-0.56c0.05-1.23,2.45-1.64,1.03-1.89c-2.44-0.43-8.42-0.79-8.18,3.29c0.07,1.18,0.66,2.25,2.4,2.56
			c0.86,0.15,2.15,0.24,3.12,1.24c0.48,0.5,0.49,0.42,0.88,0.86c-0.8,0.87,0.9,2.26-2.43,3c-1.55,0.34,0.44,4.8,1.97,5.1
			c0.68,0.13,2.2-1.95,2.19-2.66c1.48,0.61,2.01-0.87,2.92-1.62c0.24-0.22,2.74-2.22,2.98-2.43c0.37-0.33,0.15-1.3,0.56-1.59
			c1.27-0.47,1.43-0.53,2.51-1.4c0.01,0.07,1.84-0.95,3.34-2.61c3.74-0.92,7.44-3.91,7.73-8.07C72.92,18.98,69.2,14.8,64.63,14.07z
			 M69.59,50.45c-1.5,1.43-3.29,1.04-3.45-0.74c-0.09-0.55-0.37-0.55-0.14-1.5c-0.09-0.05-0.93-0.81-1.21-1.07
			c-0.16-0.11-0.73-1.46-0.89-1.62c-0.31-0.31-0.44,0.4-1.51,1.24c-0.64,0.5-1.91,1.82-2.62,1.55c-1.25,1.36-2.35,3.2-3.25,4.01
			c-1.48,1.34-3.23-2.33-3.13-4.32c0.06-1.25,1.44-1.87,2.21-2.57c0.21-0.24-0.57-0.73,1.91-2.22c1.65-1.54,3.5-2.1,5.54-3.86
			c0-0.02,1.05-0.79,1.06-0.81c1.66-2.83,3.32,0.11,3.91,2.84c0.16,0.74-0.49,0.55-0.52,1.21c0.93,0.78,1.76,1.05,2.31,1.85
			C71.26,46.6,71.05,49.06,69.59,50.45z M65.96,49.46c0.24,0.4,0.68,2.27,0.71,3.1c-0.02,0.09-0.48,3.95-0.9,4.63
			c0.06,0.56-0.69,1.65-1.02,2.01c-1.21,1.3-3.08,1.88-5.11,1.5c-2.79-0.52-7.14-1.72-2.23-3.54c0.05-0.02,1.86-0.71,1.92-0.72
			c-0.11-0.6,0.32-1.07,0.63-1.57c0.8-1.3,1.5-2.72,3.03-3.06C64.84,51.41,65.42,48.55,65.96,49.46z M54.41,54.16
			c-0.22,1.1-2.2,2.53-2.2,2.53s-2.56-2.74-2.55-2.79c0-0.01-0.11-0.24-0.16-0.29c-0.97-0.9-0.77-2.19-0.77-2.19
			s1.35-1.79,2.25-0.95C52.32,51.74,54.72,54.04,54.41,54.16z M44.5,47.32c-0.25-0.24-1.99,0.48-2.18,0.36
			c0.89,1.93,1.91,3.41,1.52,5.25c-0.61,1.53-2.23,2.64-4.92,1.57c-2.86-2.07-1.91-2.2,0.81-1.12c0.84,0.33,2.4-0.81,2.47-2.39
			c0.03-0.71-2.1-1.92-2.39-2.64c-0.62-1.49-1.33-3.1-0.54-4.51c0.6-1.08,2.4-1.58,3.73-1.47c1.62,0.13,2.93,1.07,4.17,2.29
			C49.34,46.81,46.68,49.47,44.5,47.32z"/>
		<path d="M48.52,57.09c-0.17-0.12-0.3-0.07-0.44-0.08c-0.54-0.04-0.81-0.21-0.98-0.76c-0.09-0.28-0.23-0.37-0.46-0.42
			c-0.3-0.06-0.57-0.17-0.85-0.39c-0.2-0.15-0.21-0.22-0.16-0.36c0.16-0.43,0.49-0.72,0.76-1.06c0.74-0.9,1.52-1.77,2.34-2.61
			c0.4-0.41,0.75-0.87,1.13-1.3c0.74-0.83,1.6-1.52,2.67-1.95c0.36-0.14,0.64-0.38,0.72-0.76c0.21-1,0.93-1.5,1.79-1.86
			c0.24-0.1,0.42-0.25,0.4-0.54c-0.04-0.66,0.27-1.06,0.77-1.33c0.78-0.42,1.46-0.96,2.15-1.48c0.57-0.43,1.1-0.92,1.81-1.21
			c0.48-0.19,0.86-0.57,1.28-0.87c0.89-0.63,1.74-1.31,2.57-1.99c0.14-0.12,0.27-0.25,0.41-0.38c0.53-0.52,1.26-0.77,1.89-1.14
			c0.24-0.14,0.46-0.29,0.43-0.62c-0.03-0.47,0.26-0.67,0.58-0.84c0.31-0.16,0.63-0.31,0.94-0.46c0.39-0.18,0.65-0.46,0.76-0.9
			c0.07-0.29,0.2-0.54,0.45-0.7c0.55-0.38,1.1-0.77,1.65-1.14c0.08-0.05,0.18-0.08,0.27-0.09c0.66-0.06,0.89-0.52,0.92-1.1
			c0.02-0.52,0.21-0.88,0.58-1.15c0.88-0.65,1.53-1.54,2.33-2.27c0.3-0.27,0.68-0.46,0.94-0.77c0.59-0.71,1.31-1.28,2.01-1.87
			c0.48-0.4,0.97-0.78,1.54-1.06c0.44-0.22,0.95-0.13,1.47-0.02c0.18,0.04,0.26,0.13,0.25,0.31c-0.02,0.2-0.05,0.4-0.1,0.58
			c-0.28,0.88-0.69,1.68-1.06,2.51c-0.06,0.14-0.22,0.27-0.07,0.46c0.15,0.18,0.33,0.07,0.5,0.07c0.26,0,0.49-0.08,0.76-0.04
			c0.36,0.06,0.42,0.1,0.39,0.44c-0.03,0.31-0.1,0.62-0.22,0.89c-0.09,0.2-0.07,0.39,0.07,0.59c0.19,0.28,0.12,0.48-0.02,0.66
			c-0.8,1.01-1.57,2.06-2.66,2.79c-0.3,0.2-0.53,0.48-0.78,0.74c-0.19,0.19-0.41,0.29-0.72,0.2c-0.35-0.1-0.58,0.04-0.72,0.27
			c-0.34,0.55-0.86,0.94-1.11,1.56c-0.04,0.1-0.13,0.18-0.21,0.25c-0.25,0.22-0.47,0.44-0.64,0.74c-0.12,0.2-0.25,0.37-0.59,0.3
			c-0.21-0.05-0.41,0.09-0.58,0.21c-0.37,0.27-0.73,0.54-1.09,0.8c-0.18,0.13-0.27,0.34-0.39,0.52c-0.21,0.32-0.46,0.55-0.97,0.31
			c-0.18-0.09-0.31-0.03-0.39,0.11c-0.35,0.6-0.9,1.03-1.31,1.57c-0.51,0.68-1.09,1.31-1.67,1.98c0.88,0.54,1.59,1.23,2.17,2.05
			c0.06,0.08,0.13,0.14,0.2,0.22c0.38,0.4,0.39,0.4,0.58,0.01c0.14-0.28,0.36-0.47,0.63-0.61c0.66-0.33,1.18-0.81,1.68-1.32
			c0.35-0.36,0.76-0.65,1.23-0.85c0.25-0.1,0.47-0.24,0.53-0.49c0.24-0.92,0.99-1.28,1.75-1.65c0.59-0.29,1.1-0.64,1.32-1.32
			c0.19-0.59,0.68-0.92,1.22-1.18c0.53-0.25,1.08-0.48,1.62-0.7c0.35-0.15,0.63-0.32,0.56-0.82c-0.04-0.32,0.15-0.54,0.42-0.69
			c1-0.53,2-1.07,3-1.6c0.18-0.09,0.37-0.29,0.59-0.12c0.22,0.17,0.14,0.44,0.1,0.64c-0.11,0.53-0.11,1.1-0.3,1.61
			c-0.06,0.15-0.04,0.33-0.08,0.49c-0.05,0.25,0.06,0.43,0.29,0.61c0.39,0.32,0.38,0.34,0.22,0.75c-0.18,0.45-0.5,0.79-0.76,1.18
			c-0.35,0.53-0.76,1.02-1.13,1.55c-0.14,0.21-0.32,0.38-0.47,0.58c-0.15,0.18-0.34,0.28-0.61,0.21c-0.28-0.07-0.45,0.03-0.62,0.2
			c-0.73,0.74-1.45,1.5-2.23,2.19c-0.02,0.02-0.05,0.04-0.07,0.07c-0.32,0.51-0.76,0.82-1.42,0.91c-0.41,0.06-0.74,0.35-0.86,0.79
			c-0.24,0.86-0.82,1.45-1.42,2.01c-0.21,0.19-0.49,0.38-0.87,0.05c-0.14-0.12-0.23-0.08-0.32,0c-0.07,0.07-0.14,0.13-0.19,0.21
			c-0.36,0.61-0.85,1.12-1.26,1.69c-0.5,0.7-1.08,1.33-1.9,1.69c-0.63,0.28-1.12,0.73-1.62,1.19c-0.48,0.44-0.91,0.94-1.46,1.31
			c-0.08,0.05-0.14,0.14-0.22,0.17c-0.48,0.15-0.8,0.53-1.22,0.75c-0.1,0.05-0.08,0.16-0.08,0.27c-0.09,1.45-0.6,2.69-1.26,3.84
			c-0.32,0.56-0.84,0.95-1.31,1.38c-0.41,0.36-0.88,0.64-1.38,0.87c-0.87,0.41-1.87,0.55-2.93,0.47c-0.42-0.03-0.84-0.06-1.27-0.19
			c-0.16-0.05-0.32-0.08-0.41,0.07c-0.28,0.45-0.76,0.68-1.15,1.01c-0.49,0.41-0.95,0.85-1.4,1.3c-0.33,0.33-0.66,0.66-1.06,0.91
			c-0.21,0.14-0.36,0.34-0.47,0.58c-0.17,0.38-0.49,0.59-0.79,0.84c-0.18,0.15-0.36,0.11-0.57-0.07c-0.56-0.47-1.16-0.9-1.64-1.48
			c-0.19-0.23-0.23-0.41-0.12-0.63c0.17-0.35,0.46-0.59,0.71-0.87c0.28-0.31,0.52-0.62,0.48-1.12c-0.01-0.17,0.08-0.27,0.18-0.38
			c0.28-0.29,0.55-0.6,0.83-0.88c0.77-0.77,1.48-1.6,2.36-2.25c0.87-0.65,1.65-1.41,2.57-2.02c0.47-0.31,1.05-0.52,1.35-1.06
			c0.34-0.61,0.8-1.12,1.24-1.64c0.72-0.85,1.59-1.52,2.72-1.85c0.46-0.13,0.79-0.38,0.87-0.89c0.1-0.62,0.54-0.98,0.9-1.41
			c0.19-0.22,0.59-0.37,0.51-0.68c-0.07-0.25-0.47-0.49-0.73-0.72c-0.51-0.46-0.91-0.97-1.13-1.59c-0.1-0.27-0.16-0.29-0.36-0.12
			c-0.12,0.1-0.25,0.2-0.33,0.33c-0.3,0.52-0.77,0.85-1.23,1.2c-0.37,0.28-0.75,0.56-1.08,0.89c-0.2,0.19-0.4,0.39-0.8,0.14
			c-0.22-0.14-0.35,0.05-0.45,0.18c-0.47,0.62-0.92,1.26-1.39,1.88c-0.35,0.46-0.68,0.93-1.07,1.36c-0.23,0.26-0.38,0.57-0.61,0.82
			c-0.16,0.18-0.3,0.35-0.64,0.22c-0.25-0.1-0.37,0.09-0.48,0.24c-0.28,0.42-0.56,0.83-0.81,1.26c-0.2,0.35-0.48,0.61-0.76,0.88
			c-0.71,0.69-1.44,1.37-2.09,2.11c-0.1,0.12-0.2,0.26-0.35,0.31c-0.75,0.29-1.37,0.76-2.08,1.1c-0.07,0.03-0.15,0.05-0.23,0.07
			c-0.38,0.09-0.7,0.1-0.68-0.56C48.53,57.94,48.52,57.51,48.52,57.09z M54.94,46.25c0.38,0.63,0.72,1.22,1.1,1.8
			c0.37,0.58,0.87,1.1,1.01,1.77c-1.07-0.98-1.72-2.21-2.37-3.44c-0.48,0.32-0.79,0.71-0.94,1.25c-0.07,0.26-0.07,0.47,0.07,0.74
			c0.39,0.79,0.97,1.49,1.46,2.23c0.29,0.44,0.65,0.83,1.01,1.21c0.14,0.15,0.26,0.18,0.33,0.02c0.12-0.25,0.33-0.41,0.49-0.62
			c0.74-0.98,1.49-1.96,2.24-2.93c0.22-0.28,0.46-0.52,0.93-0.28c0.18,0.09,0.26-0.02,0.34-0.11c0.76-0.75,1.78-1.23,2.36-2.18
			c0.04-0.07,0.1-0.14,0.17-0.16c0.56-0.17,0.58-0.67,0.57-1.2c0-0.05,0.02-0.1,0.03-0.15c0.06-0.33,0.1-0.65-0.15-1.01
			c-0.11-0.15-0.15-0.35-0.18-0.52c-0.19-0.92-0.16-1.78,0.12-2.57c0.07-0.2,0.22-0.3,0.48-0.36c-0.18,1.13-0.49,2.16-0.06,3.37
			c0.07,0,0.09,0.01,0.1,0c0.06-0.05,0.12-0.09,0.18-0.15c0.64-0.63,1.39-1.03,2.48-0.83c0.58,0.11,0.58,0.06,0.96-0.34
			c0.14-0.15,0.16-0.31,0.1-0.55c-0.16-0.66-0.46-1.29-0.75-1.93c-0.17-0.39-0.39-0.74-0.66-1.08c-0.59-0.73-0.78-0.77-1.36-0.27
			c-0.05,0.04-0.08,0.09-0.13,0.13c-0.68,0.57-1.3,1.21-2.05,1.69c-0.94,0.59-1.7,1.39-2.75,1.86c-0.68,0.31-1.23,0.84-1.78,1.34
			c-0.16,0.15-0.33,0.28-0.52,0.4c-0.49,0.3-0.97,0.63-1.45,0.95c-0.22,0.15-0.46,0.33-0.42,0.65c0.08,0.66-0.29,0.93-0.76,1.13
			C55.05,46.17,54.97,46.18,54.94,46.25z M59.49,57.02c-0.13,0.08-0.24,0.11-0.3,0.19c-0.3,0.4-0.79,0.37-1.26,0.16
			c-0.42-0.18-0.66-0.13-0.89,0.11c-0.08,0.09-0.2,0.15-0.3,0.22c-0.46,0.3-0.84,0.69-1.24,1.06c-0.15,0.14-0.1,0.25,0.08,0.37
			c0.08,0.05,0.16,0.11,0.25,0.15c1.27,0.66,2.58,1.06,3.88,1.15c1.59,0.11,2.96-0.29,4.1-1.17c0.96-0.74,1.67-1.64,2.05-2.85
			c0.31-0.99,0.58-1.99,0.5-3.13c-0.07-1.03-0.21-2.07-0.39-3.11c-0.04-0.24-0.11-0.48-0.26-0.71c-0.59,0.48-0.78,0.73-0.96,1.44
			c-0.11,0.42-0.3,0.73-0.75,0.82c-0.13,0.03-0.25,0.08-0.37,0.11c-0.97,0.29-1.7,0.89-2.37,1.56c-0.59,0.59-1.03,1.32-1.51,2.02
			c-0.09,0.14-0.06,0.27,0.01,0.43c0.36,0.9,0.31,1.72-0.03,2.45c-0.16,0.33-0.46,0.5-0.88,0.47c-0.11-0.01-0.21-0.02-0.26-0.16
			c-0.04-0.1,0-0.16,0.08-0.2c0.21-0.09,0.35-0.26,0.51-0.41C59.45,57.79,59.59,57.49,59.49,57.02z M67.45,48.71
			c-0.21,0.14-0.43,0.19-0.68,0.11c-0.22-0.08-0.39-0.16-0.54,0.05c-0.13,0.18-0.1,0.35-0.03,0.57c0.09,0.3,0.15,0.6,0.22,0.9
			c0.11,0.46,0.14,0.48,0.61,0.55c0.05,0.01,0.11,0.01,0.16,0.02c2.02,0.23,3.65-1.23,3.58-3.22c-0.03-0.73-0.15-1.49-0.64-2.18
			c-0.45-0.63-0.95-1.23-1.5-1.8c-0.5-0.51-1.05-0.8-1.66-0.95c-1.11-0.28-1.98-0.03-2.5,0.79c-0.47,0.74-0.5,1.63,0,2.62
			c0.38,0.75,0.93,1.31,1.64,1.76C66.54,48.2,66.96,48.5,67.45,48.71z M50.5,52.27c0.06,0.03,0.08,0.04,0.09,0.05
			c0.08,0.11,0.16,0.22,0.24,0.33c0.63,0.85,1.27,1.67,2.13,2.32c0.23,0.17,0.38,0.22,0.54,0.05c0.18-0.19,0.38-0.37,0.55-0.57
			c0.19-0.22,0.18-0.26-0.13-0.47c-0.67-0.47-1.32-0.98-1.85-1.61c-0.48-0.56-0.93-1.15-1.39-1.73c-0.22-0.27-0.26-0.29-0.44-0.08
			c-0.3,0.35-0.54,0.78-0.9,1.07c-0.48,0.38-0.45,0.77-0.06,1.4c0.72,1.17,1.59,2.2,2.56,3.18c0.13,0.13,0.26,0.19,0.37,0.08
			c0.29-0.3,0.63-0.55,0.88-0.93c-0.58-0.42-1.19-0.74-1.64-1.32C51.02,53.48,50.58,52.96,50.5,52.27z"/>
		<path d="M40.53,41.68c0.29-0.42,0.54-0.83,0.98-1.11c0.6-0.37,1.12-0.85,1.6-1.35c0.29-0.31,0.61-0.57,1-0.75
			c0.98-0.45,1.76-1.13,2.31-2.05c0.27-0.47,0.67-0.82,1.07-1.16c0.32-0.28,0.51-0.66,0.88-0.89c-0.39-0.24-0.9-0.29-1.07-0.06
			c-0.61,0.82-1.46,1.39-2.13,2.15c-0.08,0.09-0.19,0.18-0.22,0.3c-0.11,0.44-0.45,0.59-0.89,0.6c-0.42,0.01-0.72,0.19-0.95,0.48
			c-0.75,0.9-1.62,1.68-2.45,2.49c-0.33,0.31-0.67,0.59-1.13,0.75c-0.42,0.15-0.68,0.51-0.96,0.81c-0.85,0.91-1.75,1.77-2.58,2.7
			c-0.78,0.88-1.63,1.72-2.63,2.37c-0.21,0.14-0.31,0.11-0.43-0.17c-0.15-0.35-0.1-0.7-0.18-1.05c-0.06-0.25-0.08-0.49-0.12-0.74
			c-0.09-0.57-0.28-1.09-0.83-1.49c-0.13-0.09-0.22-0.22-0.32-0.34c-0.41-0.52-0.42-0.53-0.17-0.96c0.09-0.15,0.19-0.29,0.3-0.42
			c0.36-0.43,0.67-0.9,1-1.35c0.33-0.45,0.76-0.83,1.27-1.09c0.39-0.2,0.65-0.53,0.92-0.86c0.5-0.6,1.09-1.1,1.82-1.42
			c0.31-0.14,0.54-0.32,0.67-0.62c0.35-0.8,1.05-1.22,1.79-1.59c0.17-0.09,0.37-0.12,0.53-0.22c0.3-0.17,0.58-0.34,0.67-0.73
			c0.16-0.74,0.69-1.19,1.26-1.58c0.45-0.31,0.83-0.7,1.26-1.03c0.4-0.3,0.81-0.59,1.18-0.91c0.21-0.18,0.37-0.38,0.45-0.64
			c0.09-0.3,0.22-0.57,0.42-0.79c0.04-0.05,0.07-0.1-0.03-0.23c-0.42,0.35-0.84,0.7-1.33,1.12c0.07-0.41,0.24-0.63,0.46-0.81
			c0.2-0.17,0.41-0.34,0.59-0.53c0.74-0.76,1.56-1.42,2.35-2.12c0.84-0.74,1.66-1.5,2.34-2.39c0.43-0.56,0.99-0.92,1.55-1.32
			c0.56-0.39,1.07-0.83,1.54-1.34c0.46-0.51,0.89-1.07,1.46-1.5c0.45-0.33,0.82-0.76,1.22-1.14c0.34-0.32,0.67-0.65,1.01-0.97
			c0.02-0.02,0.04-0.06,0.07-0.06c0.68-0.03,0.76-0.68,1.1-1.05c0.17-0.18,0.32-0.38,0.52-0.53c0.3-0.24,0.56-0.52,0.69-0.91
			c0.08-0.25,0.26-0.42,0.4-0.62c0.75-1.06,1.63-2,2.6-2.85c0.27-0.23,0.61-0.38,0.93-0.55c0.38-0.2,0.74-0.42,1.01-0.75
			c0.22-0.27,0.55-0.41,0.84-0.58c0.12-0.07,0.26-0.11,0.43-0.1c0.53,0.03,1.03-0.02,1.49-0.18c0.12-0.04,0.26-0.06,0.42,0.1
			c-0.2,0.28-0.6,0.19-0.88,0.32c-0.11,0.05-0.26,0.06-0.4,0.05c-0.67-0.01-1.21,0.22-1.63,0.63c-0.55,0.54-1.22,0.92-1.88,1.32
			c-0.64,0.39-1.07,0.99-1.57,1.52c-0.5,0.52-0.98,1.07-1.53,1.68c0.95-0.56,1.85-1.01,2.89-1.23c0.19-0.04,0.3-0.17,0.41-0.3
			c0.43-0.51,0.88-1,1.34-1.49c0.36-0.38,0.77-0.61,1.39-0.51c0.53,0.08,1.05,0.08,1.58,0.32c0.26,0.12,0.48,0,0.67-0.1
			c0.54-0.27,1.14-0.34,1.82-0.22c0.42,0.08,0.69-0.17,1.02-0.29c0.17-0.06,0.31-0.16,0.48-0.21c0.25-0.07,0.42,0.07,0.42,0.35
			c0,0.22-0.02,0.45-0.08,0.65c-0.17,0.57-0.37,1.13-0.56,1.7c-0.15,0.48-0.47,0.8-0.88,1.05c-0.7,0.44-0.69,0.52,0.07,1.14
			c0.52,0.42,0.96,0.92,1.43,1.39c0.3,0.3,0.31,0.3,0.55,0.08c0.52-0.49,1.07-0.95,1.7-1.31c0.25-0.14,0.5-0.27,0.82-0.27
			c0.39,0,0.47,0.07,0.59,0.44c0.06,0.2-0.02,0.43,0.19,0.61c0.19,0.17,0.42,0.16,0.62,0.2c0.59,0.12,1.15,0.41,1.73,0.6
			c0.42,0.14,0.72,0.62,0.64,1c-0.05,0.23-0.09,0.45-0.1,0.69c-0.03,0.36-0.22,0.61-0.49,0.78c-0.55,0.34-1.02,0.76-1.48,1.21
			c-0.24,0.24-0.55,0.42-0.83,0.6c-0.58,0.38-0.93,0.99-1.46,1.42c-0.01,0.01-0.01,0.04-0.02,0.04c-0.54,0.17-0.44,0.73-0.53,1.17
			c-0.05,0.24-0.1,0.47-0.19,0.7c-0.15,0.37-0.27,0.76-0.41,1.12c-0.37,0.97-0.85,1.88-1.7,2.48c-0.47,0.33-0.83,0.8-1.32,1.11
			c-1.04,0.65-2.07,1.3-3.38,1.51c-0.28,0.05-0.49,0.19-0.66,0.42c-0.62,0.81-1.35,1.5-2.38,1.84c-0.46,0.16-0.86,0.4-1.16,0.78
			c-0.24,0.31-0.52,0.57-0.82,0.83c-0.26,0.23-0.55,0.36-0.93,0.33c-0.26-0.02-0.46,0.06-0.45,0.32c0.01,0.79-0.47,1.22-0.97,1.62
			c-0.71,0.58-1.36,1.23-2.1,1.78c-0.57,0.42-0.98,1.03-1.45,1.58c-0.3,0.35-0.66,0.55-1.21,0.46c-0.42-0.07-0.72,0.05-0.85,0.45
			c-0.12,0.4-0.37,0.72-0.66,1.01c-0.69,0.71-1.41,1.41-2.04,2.18c-0.15,0.18-0.31,0.34-0.52,0.46c-0.5,0.29-0.73,0.84-1.14,1.23
			c-0.54,0.52-1.09,1.01-1.74,1.41c-0.11,0.07-0.21,0.15-0.34,0.16c-0.57,0.05-0.82,0.41-1.02,0.87c-0.22,0.51-0.65,0.83-1.1,1.11
			c-0.2,0.12-0.21,0.24-0.15,0.48c0.19,0.81,0.36,1.63,0.07,2.35c-0.61,1.5-2.16,2.27-3.91,1.68c-0.84-0.28-1.66-0.71-2.41-1.3
			c-0.52-0.41-1.05-0.81-1.56-1.23c-0.75-0.61-1.38-1.3-1.66-2.21c-0.06-0.21-0.22-0.4-0.29-0.61c-0.07-0.19-0.24-0.41-0.09-0.63
			c0.26,0.24,0.39,0.53,0.57,0.79c1.35,1.98,3.07,3.11,5.27,3.27c0.78,0.06,1.71-0.5,1.89-1.26c0.07-0.3,0.03-0.36-0.3-0.39
			c-0.18-0.02-0.33,0-0.48,0.09c-0.35,0.22-0.76,0.33-1.17,0.43c-0.5,0.12-0.89-0.1-1.14-0.63c-0.04-0.09-0.08-0.17-0.12-0.26
			c-0.23-0.51-0.3-0.57-0.81-0.57c-0.21,0-0.4,0.04-0.6,0.06c-0.2,0.02-0.39-0.06-0.54-0.24c-0.16-0.19-0.09-0.34-0.01-0.48
			c0.12-0.22,0.25-0.43,0.43-0.61c0.31-0.3,0.61-0.62,0.85-0.99c0.29-0.44,0.65-0.84,1.09-1.15c0.17-0.12,0.19-0.26,0.08-0.48
			c-0.14-0.27-0.21-0.56-0.31-0.84c-0.31-0.98-0.1-1.79,0.35-2.45c0.91-1.33,2.36-1.61,4.14-1.12c0.07,0.02,0.14,0.04,0.21,0.07
			c0.52,0.23,0.89,0.16,1.24-0.17c0.29-0.27,0.71-0.39,1.09-0.57c0.23-0.11,0.4-0.22,0.22-0.58c-0.11-0.22-0.04-0.41,0.12-0.58
			c0.57-0.57,1.22-1.05,1.82-1.6c0.3-0.28,0.71-0.4,1.17-0.42c0.44-0.02,0.8-0.17,1.09-0.45c0.11-0.11,0.17-0.21,0.06-0.4
			c-0.38-0.66-0.16-1.11,0.19-1.53c0.19-0.23,0.19-0.25-0.1-0.5c-0.37-0.32-0.74-0.63-1.18-0.84c-0.28-0.13-0.47-0.13-0.65,0.05
			c-0.89,0.89-1.71,1.84-2.46,2.86c-0.42,0.58-1.01,1-1.68,1.32c-0.19,0.09-0.38,0.17-0.54,0.29c-0.66,0.48-1.29,0.98-1.84,1.57
			c-0.35,0.37-0.76,0.69-1.17,1C40.73,41.73,40.68,41.77,40.53,41.68z M70.28,28.26c0.27-0.24,0.53-0.59,0.76-0.97
			c0.41-0.65,0.63-1.42,0.9-2.15c0.42-1.13,0.47-2.34,0.22-3.66c-0.15-0.77-0.38-1.52-0.73-2.25c-0.08-0.17-0.08-0.36-0.22-0.51
			c-0.78-0.87-1.5-1.79-2.41-2.55c-1.79-1.51-3.71-2.04-5.72-2.05c-0.61,0-1.15,0.17-1.71,0.29c-0.95,0.2-1.75,0.65-2.47,1.2
			c-0.95,0.72-1.68,1.65-2.24,2.73c-0.74,1.43-1.13,3-1.02,4.78c0.06,0.89,0.28,1.8,0.57,2.7c0.41,1.28,0.69,2.54,0.71,3.8
			c0.01,0.57,0.05,1.15-0.34,1.56c-0.09,0.1-0.09,0.24-0.08,0.38c0.03,0.41-0.17,0.6-0.54,0.66c-0.33,0.05-0.64,0.14-0.9,0.32
			c-0.18,0.13-0.21,0.26-0.14,0.51c0.19,0.59,0.25,1.16,0.09,1.7c-0.13,0.47-0.38,0.83-0.72,1.14c-0.69,0.62-1.49,0.93-2.6,0.43
			c-0.17-0.08-0.35-0.14-0.52-0.22c-0.09-0.04-0.16-0.08-0.25-0.04c-0.29,0.15-0.49,0.81-0.34,1.18c0.24,0.62,0.17,0.86-0.27,1.17
			c-0.35,0.25-0.8,0.32-1.22,0.44c-0.09,0.03-0.24,0.03-0.2,0.16c0.13,0.4,0.04,0.78,0.19,1.19c0.29,0.84,0.58,1.69,0.92,2.52
			c0.09,0.22,0.21,0.45,0.34,0.66c0.18,0.31,0.34,0.36,0.48,0.09c0.13-0.25,0.32-0.42,0.51-0.6c0.37-0.34,0.66-0.74,0.83-1.24
			c0.14-0.42,0.45-0.6,0.92-0.52c0.7,0.11,1.09-0.26,1.48-0.65c0.1-0.1,0.14-0.25,0.23-0.35c0.9-1.02,1.99-1.83,3.01-2.71
			c0.46-0.4,0.92-0.78,0.91-1.53c0-0.4,0.3-0.58,0.69-0.58c0.65-0.01,1.08-0.32,1.39-0.79c0.17-0.25,0.39-0.44,0.63-0.62
			c0.35-0.27,0.78-0.41,1.2-0.58c0.62-0.25,1.05-0.73,1.52-1.15c0.09-0.08,0.23-0.18-0.05-0.35c-0.18-0.12-0.15-0.27,0.05-0.32
			c0.13-0.03,0.26-0.04,0.39-0.07c0.96-0.19,1.9-0.42,2.72-0.87C68.36,29.91,69.35,29.18,70.28,28.26z M52.45,28.29
			c-0.12-0.06-0.17-0.1-0.21-0.1c-1.81-0.26-3.57-0.28-5.23,0.06c-1.05,0.21-1.98,0.64-2.05,1.91c-0.34,0.46-0.1,1.07-0.05,1.63
			c0.01,0.16,0.09,0.32,0.17,0.47c0.49,0.91,1.42,1.47,2.4,1.39c0.51-0.04,1.01,0.11,1.51,0.35c0.53,0.26,1.03,0.59,1.5,0.98
			c0.34,0.28,0.72,0.52,1.1,0.73c0.61,0.35,1.23,0.47,1.78,0.21c0.58-0.27,1-0.68,1.21-1.3c0.24-0.7,0.14-1.41-0.36-2.17
			c-0.34-0.51-0.78-0.9-1.22-1.31c-1.19-1.12-2.48-1.77-3.93-1.61c-0.14,0.01-0.28-0.02-0.42-0.08c-0.13-0.07-0.16-0.18-0.07-0.25
			c0.07-0.06,0.17-0.08,0.27-0.1c0.68-0.13,1.39-0.07,2.12,0.18c0.14,0.05,0.29,0.17,0.4,0.06C51.71,29.01,52.17,28.78,52.45,28.29z
			 M44.28,44.03c0.25-0.07,0.46,0.04,0.66,0.15c0.36,0.2,0.66,0.47,0.91,0.81c0.43,0.57,0.9,1.13,1.15,1.8
			c0.04,0.12,0.14,0.3,0.32,0.23c0.18-0.07,0.32-0.33,0.24-0.46c-0.4-0.59-0.68-1.25-1.24-1.75c-0.2-0.18-0.41-0.38-0.57-0.59
			c-0.35-0.48-0.83-0.79-1.33-1.02c-0.4-0.19-0.79-0.4-1.22-0.5c-1.15-0.28-2.21-0.31-3.06,0.32c-0.83,0.61-1.28,1.46-1.02,2.66
			c0.2,0.91,0.66,1.77,1.33,2.53c0.15,0.18,0.32,0.34,0.46,0.52c0.56,0.7,1.08,1.4,1.28,2.27c0.23,1.01-0.48,2.29-1.36,2.49
			c-0.6,0.13-1.21,0.09-1.85-0.06c-0.45-0.1-0.9-0.24-1.42-0.38c0.11,0.12,0.14,0.17,0.18,0.2c0.21,0.15,0.41,0.3,0.62,0.42
			c1.27,0.76,2.54,1.27,3.74,0.69c0.98-0.48,1.59-1.24,1.47-2.51c-0.09-1-0.4-1.97-0.94-2.92c-0.52-0.9-0.89-1.84-1.17-2.79
			c-0.1-0.35-0.11-0.7-0.03-1.02c0.15-0.59,0.69-0.66,1.2-0.77c0.04-0.01,0.11,0.03,0.14,0.06c0.07,0.07,0.03,0.13-0.02,0.17
			c-0.18,0.15-0.33,0.33-0.55,0.43c-0.18,0.08-0.29,0.23-0.34,0.43c-0.14,0.57,0.05,1.15,0.38,1.82c0.07-0.22,0.26-0.23,0.3-0.41
			c0.04-0.2,0.21-0.26,0.39-0.3c0.39-0.1,0.8-0.08,1.23,0.06c0.64,0.2,1.14,0.62,1.56,1.16c0.15,0.2,0.27,0.25,0.44,0.13
			c0.25-0.18,0.52-0.34,0.79-0.51c0.14-0.09,0.11-0.22-0.02-0.35c-0.26-0.23-0.4-0.52-0.58-0.8c-0.43-0.65-0.94-1.23-1.57-1.72
			C44.62,44.37,44.41,44.28,44.28,44.03z M55.67,26.86c0.06,0.28-0.05,0.39-0.2,0.45c-0.16,0.06-0.24,0.18-0.35,0.29
			c-0.3,0.31-0.6,0.62-0.9,0.93c-0.43,0.44-0.87,0.87-1.27,1.33c-0.26,0.31-0.24,0.39,0.12,0.75c0.45,0.44,0.92,0.85,1.27,1.37
			c0.1,0.15,0.22,0.22,0.35,0.12c0.31-0.23,0.66-0.36,1.07-0.41c0.17-0.02,0.37-0.09,0.32-0.34c-0.05-0.29,0.04-0.49,0.21-0.67
			c0.13-0.14,0.17-0.34,0.19-0.54c0.05-0.45,0.05-0.91-0.01-1.39c-0.11-0.98-0.3-1.96-0.76-2.95c-0.24,0.15-0.36,0.36-0.5,0.57
			c-0.18,0.26-0.39,0.51-0.76,0.51c-0.47,0-0.69,0.26-0.85,0.63c-0.25,0.55-0.56,1.06-1.03,1.43c-0.21,0.16-0.38,0.37-0.57,0.55
			c-0.11,0.11-0.1,0.22,0.07,0.35c0.33,0.25,0.43,0.25,0.64-0.04c0.12-0.16,0.21-0.35,0.34-0.5C53.81,28.41,54.8,27.74,55.67,26.86z
			 M45.48,28.26c0.35-0.24,0.75-0.4,1.19-0.49c0.34-0.07,0.59-0.25,0.77-0.51c0.25-0.36,0.54-0.66,0.9-0.92
			c0.99-0.73,1.93-1.53,2.93-2.25c0.29-0.21,0.59-0.36,0.98-0.35c0.39,0.01,0.66-0.17,0.85-0.45c0.1-0.14,0.19-0.29,0.29-0.43
			c0.48-0.69,0.86-1.45,1.46-2.05c0.3-0.3,0.75-0.5,0.78-1.05c0.03-0.43,0.28-0.75,0.4-1.13c0.07-0.21,0.25-0.36,0.21-0.66
			c-0.07,0.05-0.12,0.07-0.17,0.11c-0.59,0.46-1.05,1.05-1.6,1.55c-0.57,0.53-1.18,1.02-1.64,1.64c-0.49,0.66-1.12,1.17-1.81,1.59
			c-0.72,0.44-1.25,1.06-1.81,1.66c-0.39,0.42-0.78,0.84-1.19,1.25c-0.46,0.46-0.91,0.93-1.44,1.32
			C46.15,27.42,45.72,27.75,45.48,28.26z"/>
		<path d="M35.32,46.26c-0.37,0.66-0.9,1.14-1.49,1.57c-0.34,0.25-0.66,0.52-0.85,0.92c-0.13,0.26-0.19,0.23-0.47-0.01
			c-0.61-0.53-0.89-1.16-1.01-1.85c-0.08-0.48-0.22-0.95-0.59-1.37c-0.12-0.13-0.2-0.29-0.23-0.45c-0.06-0.41-0.36-0.7-0.65-0.99
			c-0.37-0.37-0.43-0.48-0.26-0.85c0.09-0.19-0.04-0.29-0.18-0.4c-0.19-0.16-0.54-0.17-0.55-0.43c-0.01-0.19,0.21-0.33,0.34-0.49
			c0.44-0.55,0.98-0.99,1.45-1.51c0.82-0.91,1.87-1.55,2.8-2.32c0.4-0.34,0.89-0.57,1.3-0.91c0.34-0.28,0.56-0.66,0.86-0.97
			c0.62-0.63,1.41-1.04,2.13-1.53c0.43-0.3,0.74-0.69,1.02-1.13c0.36-0.58,0.72-1.17,1.36-1.51c0.33-0.18,0.56-0.49,0.88-0.69
			c0.18-0.11,0.35-0.21,0.6-0.17c-0.24,0.24-0.43,0.51-0.71,0.69c-0.89,0.58-1.58,1.34-2.24,2.16c-0.52,0.65-1.16,1.2-1.89,1.64
			c-0.57,0.34-1.04,0.79-1.39,1.36c-0.23,0.38-0.64,0.58-1,0.83c-1.13,0.76-2.2,1.6-3.2,2.51c-0.61,0.55-1.18,1.14-1.7,1.78
			c-0.22,0.27-0.23,0.27,0.11,0.57c0.31,0.27,0.55,0.52,0.32,0.86c-0.09,0.14,0.03,0.29,0.13,0.38c0.63,0.6,0.87,1.39,1.37,2.06
			c0.21,0.28,0.22,0.59,0.28,0.89c0.1,0.44,0.18,0.87,0.48,1.29c0.18,0.25,0.28,0.23,0.4,0.08c0.32-0.4,0.65-0.79,1.08-1.08
			c0.41-0.28,0.76-0.64,1.21-0.88C35.12,46.23,35.19,46.18,35.32,46.26z"/>
		<path d="M66.19,32.4c-0.35,0.71-1,1.08-1.59,1.52c-0.66,0.49-1.28,1.04-1.91,1.57c-0.27,0.23-0.54,0.46-0.92,0.56
			c-0.28,0.07-0.49,0.23-0.65,0.44c-0.9,1.14-2.09,1.98-3.23,2.86c-0.57,0.44-1,1.03-1.58,1.45c-0.71,0.51-1.19,1.27-1.98,1.69
			c-0.28,0.15-0.57,0.27-0.82,0.46c-0.44,0.35-0.7,0.82-0.91,1.34c-0.17,0.44-0.4,0.81-0.76,1.11c-0.77,0.63-1.5,1.3-2.25,1.96
			c-0.13-0.15-0.03-0.2,0.03-0.26c0.3-0.3,0.45-0.72,0.8-0.97c0.39-0.28,0.71-0.65,1.13-0.89c0.43-0.25,0.72-0.63,0.83-1.15
			c0.09-0.39,0.25-0.73,0.44-1.06c0.1-0.18,0.24-0.34,0.44-0.41c0.46-0.16,0.82-0.45,1.2-0.72c0.23-0.16,0.41-0.37,0.6-0.58
			c0.73-0.83,1.58-1.54,2.42-2.24c0.65-0.54,1.36-1.04,2.07-1.52c0.41-0.28,0.8-0.57,0.99-1.08c0.14-0.38,0.46-0.66,0.85-0.77
			c1.02-0.29,1.7-0.99,2.41-1.65c0.44-0.41,0.87-0.84,1.41-1.14C65.52,32.75,65.74,32.45,66.19,32.4z"/>
		<path d="M81.9,25.93c0.43-0.27,0.87-0.54,1.3-0.82c0.15-0.1,0.32-0.17,0.53-0.03c0.17,0.12,0.23,0.33,0.21,0.5
			c-0.11,0.88-0.02,1.82-0.21,2.68c-0.05,0.22-0.12,0.44-0.26,0.61c-0.31,0.36-0.41,0.81-0.33,1.35c0.02,0.1,0.11,0.29-0.09,0.27
			c-0.16-0.01-0.2-0.15-0.24-0.28c-0.15-0.48-0.13-0.91,0.08-1.29c0.18-0.33,0.4-0.63,0.52-1.01c0.11-0.37,0.19-0.74,0.11-1.19
			c-0.07-0.39-0.01-0.77,0-1.25c-0.27,0.15-0.51,0.25-0.69,0.4c-0.36,0.3-0.82,0.32-1.31,0.3c-0.21-0.01-0.33-0.19-0.23-0.38
			c0.17-0.32,0.36-0.63,0.56-0.93c0.17-0.26,0.33-0.53,0.47-0.82c0.09-0.2,0.17-0.41,0.16-0.66c-0.02-0.49,0.25-0.83,0.44-1.21
			c0.07-0.14,0.18-0.25,0.19-0.48c-0.4,0.05-0.62,0.29-0.89,0.45c-0.32,0.19-0.64,0.31-1.08,0.22c-0.69-0.14-1.18,0.15-1.65,0.47
			c-0.43,0.29-0.81,0.64-1.24,0.92c-0.38,0.24-0.68,0.58-1.12,0.74c0.4-0.45,0.76-0.92,1.27-1.28c0.47-0.32,0.97-0.62,1.45-0.94
			c0.35-0.24,0.78-0.33,1.27-0.26c0.23,0.03,0.42,0.02,0.62-0.07c0.45-0.21,0.88-0.43,1.27-0.72c0.11-0.08,0.25-0.12,0.4-0.19
			c0.19,0.32,0.11,0.58,0.04,0.81c-0.08,0.24-0.16,0.49-0.28,0.71c-0.19,0.33-0.32,0.69-0.31,1.12c0.01,0.46-0.29,0.73-0.45,1.09
			c-0.17,0.37-0.36,0.72-0.6,1.05C81.83,25.86,81.87,25.89,81.9,25.93z"/>
		<path d="M62.28,62.37c0.1-0.25,0.21-0.36,0.34-0.45c0.88-0.66,1.58-1.5,2.37-2.24c0.73-0.69,1.45-1.39,2.4-1.82
			c0.2-0.09,0.24-0.31,0.41-0.43c0.58-0.44,1.16-0.9,1.66-1.42c0.55-0.58,1.1-1.15,1.73-1.63c0.95-0.73,1.83-1.54,2.66-2.4
			c0.73-0.76,1.66-1.28,2.4-2.03c0.03-0.03,0.07-0.06,0.1-0.09c0.05-0.04,0.13-0.06,0.19-0.01c0.1,0.08,0.06,0.16,0.01,0.22
			c-0.24,0.29-0.45,0.6-0.77,0.8c-0.86,0.52-1.53,1.26-2.25,1.95c-0.68,0.66-1.34,1.33-2.11,1.9c-0.63,0.47-1.17,1.06-1.72,1.62
			c-0.18,0.18-0.39,0.3-0.58,0.46c-0.85,0.7-1.7,1.4-2.61,2.04c-0.43,0.3-0.77,0.72-1.14,1.08c-0.67,0.66-1.32,1.35-2.02,1.97
			C63.09,62.13,62.76,62.32,62.28,62.37z"/>
		<path d="M76.03,14.42c-0.51,0.27-0.98,0.51-1.45,0.76c-0.12-0.14-0.01-0.19,0.04-0.25c0.4-0.44,0.9-0.76,1.4-1.08
			c0.21-0.14,0.35-0.05,0.37,0.23c0.02,0.33,0.05,0.66-0.02,0.97c-0.07,0.32-0.1,0.65,0,1.01c0.25,0.07,0.39-0.02,0.55-0.1
			c0.49-0.23,1.02-0.39,1.58-0.47c0.54-0.07,0.75,0.09,0.84,0.67c0.04,0.26,0.08,0.53,0.05,0.78c-0.03,0.23,0.07,0.42,0.33,0.52
			c0.33,0.12,0.32,0.32,0.27,0.56c-0.13,0.6-0.52,1.01-0.85,1.46c-0.99,1.39-2.22,2.55-3.52,3.65c-0.44,0.37-0.96,0.64-1.36,1.06
			c-0.05,0.06-0.13,0.09-0.19,0.14c-0.08,0.06-0.16,0.01-0.23-0.07c-0.07-0.08-0.12-0.17-0.05-0.24c0.08-0.09,0.16-0.19,0.27-0.26
			c0.58-0.37,1.03-0.89,1.65-1.22c0.24-0.13,0.37-0.4,0.57-0.6c0.2-0.2,0.39-0.4,0.61-0.57c0.88-0.71,1.53-1.62,2.2-2.53
			c0.17-0.23,0.37-0.42,0.49-0.69c0.09-0.2,0.12-0.35-0.15-0.54c-0.27-0.18-0.38-0.45-0.32-0.72c0.05-0.22,0-0.45-0.03-0.67
			c-0.05-0.38-0.1-0.43-0.43-0.38c-0.62,0.11-1.27,0.16-1.75,0.54c-0.05,0.04-0.11,0.06-0.17,0.08c-0.42,0.1-0.63-0.04-0.69-0.51
			c-0.05-0.37-0.07-0.74,0-1.08C76.06,14.77,76.13,14.65,76.03,14.42z"/>
		<path d="M80.19,44.32c0.06-0.73,0.58-1.04,1.06-1.39c0.3-0.22,0.5-0.56,0.81-0.76c0.48-0.3,0.88-0.69,1.31-1.05
			c0.85-0.7,1.73-1.38,2.61-2.04c0.06-0.05,0.15-0.1,0.15-0.17c-0.01-0.45,0.36-0.56,0.63-0.75c0.26-0.19,0.54-0.37,0.8-0.56
			c0.07-0.05,0.19-0.09,0.13-0.22c-0.05-0.12-0.18-0.13-0.28-0.17c-0.45-0.17-0.89-0.37-1.29-0.69c-0.32-0.26-0.37-0.37-0.27-0.69
			c0.04-0.12,0.1-0.23,0.16-0.34c0.18-0.31,0.4-0.6,0.52-0.96c0.06-0.17,0.16-0.29,0.42-0.3c-0.03,0.4-0.09,0.75-0.27,1.05
			c-0.05,0.08-0.11,0.15-0.16,0.23c-0.37,0.63-0.32,0.74,0.49,1.16c0.32,0.16,0.66,0.27,0.96,0.49c0.32,0.22,0.37,0.35,0.14,0.57
			c-0.09,0.09-0.2,0.15-0.31,0.21c-0.38,0.25-0.76,0.49-1.14,0.73c-0.1,0.06-0.15,0.15-0.19,0.26c-0.03,0.09-0.07,0.19-0.14,0.24
			c-0.66,0.47-1.15,1.12-1.82,1.58c-1.37,0.95-2.61,2.06-3.89,3.11C80.49,44,80.34,44.16,80.19,44.32z"/>
		<path d="M62.49,61.5c-0.16,0.16-0.3,0.33-0.48,0.47c-0.67,0.56-1.33,1.11-2.05,1.61c-0.45,0.31-0.86,0.67-1.27,1.03
			c-0.53,0.48-1.01,1-1.56,1.46c-1.03,0.88-1.88,1.94-2.93,2.79c-0.46,0.37-0.87,0.8-1.38,1.11c-0.15,0.09-0.31,0.15-0.49,0.18
			c-0.07,0.01-0.14-0.02-0.18-0.1c-0.05-0.08-0.03-0.14,0.02-0.19c0.04-0.04,0.1-0.08,0.15-0.11c0.99-0.53,1.79-1.31,2.6-2.04
			c0.98-0.88,1.93-1.8,2.75-2.83c0.35-0.44,0.82-0.76,1.25-1.12c0.87-0.7,1.84-1.29,2.71-2c0.21-0.18,0.51-0.25,0.77-0.38
			C62.44,61.43,62.47,61.46,62.49,61.5z"/>
		<path d="M56.83,63.84c0,0.03,0.01,0.11-0.02,0.12c-0.86,0.54-1.6,1.22-2.37,1.88c-0.32,0.27-0.76,0.39-0.97,0.78
			c-0.04,0.07-0.12,0.01-0.19-0.01c-0.32-0.1-0.64-0.24-0.91-0.46c-0.3-0.24-0.62-0.38-0.93-0.56c-0.24-0.14-0.4-0.12-0.57-0.01
			c-0.19,0.11-0.38,0.21-0.64,0.2c-0.43-0.03-0.69-0.32-0.57-0.71c0.08-0.26,0.17-0.52,0.29-0.76c0.13-0.26,0.25-0.52,0.12-0.91
			c-0.09-0.28-0.03-0.57,0.16-0.8c0.32-0.38,0.67-0.73,0.92-1.18c0.06-0.11,0.16-0.22,0.4-0.17c-0.28,0.37-0.52,0.73-0.8,1.04
			c-0.24,0.27-0.34,0.6-0.32,0.98c0.03,0.64-0.07,1.21-0.29,1.75c-0.01,0.03-0.03,0.06-0.04,0.09c-0.01,0.08-0.07,0.15,0.02,0.24
			c0.09,0.09,0.16,0.03,0.23-0.01c0.13-0.06,0.22-0.17,0.32-0.26c0.29-0.25,0.45-0.24,0.83,0.05c0.27,0.2,0.56,0.33,0.85,0.48
			c0.12,0.06,0.26,0.09,0.35,0.19c0.36,0.38,0.65,0.27,0.94,0.11c0.1-0.05,0.2-0.11,0.27-0.18c0.51-0.54,1.1-1.01,1.69-1.47
			c0.29-0.23,0.54-0.51,1.02-0.39c0.04,0.01,0.08-0.04,0.13-0.06C56.77,63.78,56.8,63.79,56.83,63.84z"/>
		<path d="M65.47,11.31c0.08-0.2,0.23-0.23,0.38-0.25c0.91-0.17,1.74-0.53,2.67-0.64c0.1-0.01,0.19-0.05,0.27-0.11
			c0.47-0.31,1.01-0.46,1.64-0.41c0.5,0.04,0.87-0.18,1.23-0.39c0.27-0.16,0.58-0.27,0.88-0.37c0.19-0.07,0.3,0.01,0.31,0.21
			c0.01,0.16-0.06,0.29-0.12,0.41c-0.19,0.36-0.38,0.73-0.55,1.1c-0.14,0.32-0.24,0.65-0.27,1.03c-0.05,0.71-0.42,1.25-0.78,1.77
			c-0.2,0.29-0.46,0.54-0.7,0.81c-0.06,0.06-0.15,0.08-0.23,0c-0.08-0.07-0.09-0.17-0.04-0.23c0.15-0.18,0.3-0.36,0.46-0.53
			c0.5-0.53,0.84-1.17,0.96-1.93c0.12-0.75,0.43-1.38,0.72-2.1c-0.34-0.03-0.53,0.14-0.73,0.26c-0.41,0.24-0.87,0.31-1.38,0.29
			c-0.34-0.02-0.63,0.04-0.87,0.25c-0.25,0.21-0.59,0.3-0.94,0.35c-0.76,0.11-1.43,0.42-2.2,0.51
			C65.97,11.36,65.76,11.4,65.47,11.31z"/>
		<path d="M48.94,50.38c-0.24,0.34-0.47,0.65-0.78,0.87c-0.22,0.16-0.38,0.36-0.55,0.56c-0.24,0.28-0.53,0.52-0.78,0.8
			c-0.6,0.7-1.27,1.35-1.54,2.33c-0.09,0.33-0.33,0.61-0.56,0.86c-0.37,0.4-0.47,0.92-0.41,1.56c0.33-0.06,0.6-0.19,0.85-0.36
			c0.45-0.31,1.02-0.17,1.58-0.1c0.04,0.01,0.11,0.06,0.13,0.1c0.04,0.08-0.01,0.12-0.05,0.17c-0.06,0.06-0.13,0.08-0.22,0.06
			c-0.59-0.11-1.05,0.09-1.52,0.31c-0.38,0.18-0.77,0.36-1.22,0.43c-0.08,0.01-0.17,0.03-0.24-0.06c-0.05-0.07-0.03-0.14-0.01-0.2
			c0.03-0.07,0.06-0.15,0.11-0.21c0.23-0.31,0.36-0.63,0.28-1.1c-0.05-0.31,0.15-0.56,0.3-0.8c0.06-0.11,0.15-0.21,0.24-0.28
			c0.3-0.23,0.48-0.53,0.53-0.92c0.02-0.2,0.11-0.35,0.3-0.39c0.28-0.07,0.42-0.28,0.51-0.51c0.43-1.15,1.37-1.85,2.18-2.65
			c0.16-0.15,0.33-0.29,0.49-0.43C48.63,50.33,48.7,50.25,48.94,50.38z"/>
		<path d="M54.31,56.25c-0.13,0.39-0.3,0.74-0.6,0.99c-0.41,0.34-0.8,0.69-1.27,0.95c-0.65,0.35-1.16,0.89-1.84,1.21
			c-0.6,0.28-1.23,0.51-2.01,0.33c-0.36-0.08-0.66-0.01-0.81,0.3c-0.12,0.25-0.33,0.27-0.61,0.27c-0.49,0-0.99-0.14-1.47-0.15
			c-0.08,0-0.18-0.05-0.26-0.09c-0.08-0.05-0.16-0.13-0.16-0.22c-0.01-0.12,0.1-0.1,0.18-0.09c0.43,0.03,0.87,0.01,1.3,0.1
			c0.43,0.09,0.72-0.03,0.91-0.31c0.19-0.29,0.5-0.34,0.83-0.26c0.91,0.24,1.57-0.05,2.2-0.48c0.82-0.57,1.67-1.1,2.49-1.67
			C53.58,56.86,53.94,56.55,54.31,56.25z"/>
		<path d="M78.26,46.23c-0.46,0.51-0.88,1.06-1.39,1.52c-0.82,0.74-1.64,1.48-2.41,2.27c-0.24,0.24-0.54,0.42-0.88,0.53
			c-0.16,0.05-0.28,0.14-0.4,0.24c-0.48,0.44-0.98,0.86-1.45,1.31c-0.27,0.26-0.6,0.46-0.96,0.59c-0.32,0.11-0.55,0.32-0.71,0.59
			c-0.29,0.48-0.82,0.71-1.18,1.12c-0.03,0.03-0.07,0.06-0.13,0.02c-0.08-0.05-0.11-0.13-0.09-0.19c0.1-0.23,0.21-0.47,0.42-0.62
			c0.23-0.17,0.42-0.37,0.59-0.59c0.21-0.26,0.48-0.43,0.8-0.56c0.49-0.2,0.91-0.5,1.27-0.87c0.39-0.4,0.89-0.68,1.19-1.18
			c0.06-0.1,0.19-0.1,0.3-0.14c0.52-0.21,1.01-0.47,1.38-0.87c0.08-0.09,0.16-0.21,0.29-0.23c0.42-0.06,0.61-0.35,0.78-0.69
			c0.11-0.23,0.3-0.39,0.51-0.53c0.26-0.19,0.48-0.44,0.7-0.68C77.28,46.87,77.58,46.35,78.26,46.23z"/>
		<path d="M74.27,4.84c-0.16,0.37-0.48,0.57-0.78,0.79c-0.6,0.43-1.08,0.98-1.68,1.41c-0.44,0.32-0.88,0.67-1.41,0.85
			c-0.53,0.17-1.13,0.23-1.73,0.23c-0.2,0-0.39-0.1-0.54-0.28c-0.18-0.22-0.37-0.24-0.59-0.23c-0.35,0.01-0.65,0.12-0.94,0.25
			c-0.2,0.09-0.41,0.18-0.68,0.12c-0.04-0.01-0.1-0.05-0.13-0.09c-0.03-0.05-0.03-0.11,0.02-0.13c0.67-0.23,1.26-0.62,2.08-0.5
			c0.09,0.01,0.17,0.02,0.22,0.12c0.21,0.41,0.6,0.5,0.89,0.45c0.53-0.09,1.12-0.05,1.53-0.42c0.7-0.65,1.59-1.06,2.3-1.69
			c0.22-0.19,0.47-0.37,0.76-0.47C73.87,5.18,74.04,4.97,74.27,4.84z"/>
		<path d="M86.89,33.86c-0.09-0.32-0.06-0.61,0.14-0.83c0.17-0.2,0.37-0.38,0.54-0.58c0.11-0.12,0.19-0.27,0.34-0.5
			c-1.9,0.56-3.66,1.12-5.44,1.83c0.04-0.3,0.17-0.34,0.28-0.37c0.58-0.13,1-0.52,1.57-0.68c0.53-0.15,1.04-0.35,1.56-0.51
			c0.72-0.23,1.37-0.59,2.15-0.73c0.08-0.01,0.15-0.06,0.23-0.07c0.21-0.01,0.37,0.16,0.29,0.34c-0.08,0.19-0.19,0.37-0.32,0.52
			c-0.43,0.45-0.83,0.93-1.14,1.48C87.04,33.82,87.02,33.89,86.89,33.86z"/>
		<path d="M90.5,31.12c-0.1,0.62-0.56,0.95-0.85,1.41c-0.37,0.6-0.78,1.17-1.17,1.75c-0.08,0.12-0.13,0.25-0.14,0.4
			c-0.02,0.28,0.05,0.52,0.35,0.7c0.36,0.22,0.59,0.58,0.79,0.91c0.29,0.48,0.1,0.89-0.08,1.26c-0.07,0.15-0.19,0.29-0.35,0.37
			c-0.07,0.04-0.16,0.03-0.24-0.06c-0.07-0.08-0.02-0.13,0.02-0.18c0.16-0.21,0.33-0.39,0.35-0.71c0.03-0.58-0.15-0.99-0.69-1.34
			c-0.22-0.14-0.46-0.27-0.49-0.53c-0.04-0.34-0.16-0.69,0.08-0.97c0.66-0.78,1.24-1.63,1.75-2.54
			C89.97,31.35,90.16,31.15,90.5,31.12z"/>
		<path d="M55.3,55.44c0.19-0.44,0.52-0.73,0.76-1.09c0.21-0.3,0.59-0.4,0.9-0.58c0.33-0.19,0.57-0.46,0.67-0.82
			c0.19-0.76,0.62-1.29,1.23-1.72c0.43-0.3,0.89-0.56,1.24-0.96c-0.52,0.54-0.82,1.26-1.47,1.69c-0.35,0.24-0.54,0.63-0.69,1.05
			c-0.19,0.56-0.49,1.01-1.04,1.27c-0.46,0.22-0.79,0.6-1.17,0.92C55.61,55.31,55.53,55.46,55.3,55.44z"/>
		<path d="M77.36,6.09c-0.07,0.54-0.42,0.86-0.71,1.22c-0.38,0.47-0.73,0.97-1.2,1.36c-0.12,0.1-0.19,0.24-0.24,0.4
			c-0.06,0.19-0.15,0.35-0.29,0.48c-0.15,0.14-0.24,0.32-0.25,0.55c-0.03,0.33-0.23,0.56-0.38,0.81c-0.23,0.41-0.43,0.84-0.62,1.27
			c-0.07,0.16-0.15,0.32-0.32,0.43c0.11-0.43,0.16-0.87,0.33-1.24c0.18-0.39,0.34-0.79,0.55-1.16c0.13-0.25,0.23-0.52,0.51-0.65
			c0.1-0.05,0.17-0.19,0.2-0.31c0.16-0.73,0.68-1.2,1.1-1.73c0.28-0.35,0.54-0.72,0.79-1.09C76.95,6.26,77.04,6.05,77.36,6.09z"/>
		<path d="M80.55,35.04c-1.27,1.77-3.13,2.8-4.65,4.22c-0.12-0.23-0.03-0.35,0.08-0.42c0.44-0.26,0.69-0.71,1.06-1.04
			c0.58-0.52,1.25-0.93,1.75-1.53c0.3-0.36,0.69-0.62,1.05-0.91C80.01,35.23,80.19,35.08,80.55,35.04z"/>
		<path d="M66.45,33.8c0.46-0.71,1.12-1.05,1.75-1.41c1.09-0.63,2.15-1.28,3.11-2.07c0.07-0.06,0.14-0.12,0.22-0.17
			c0.07-0.04,0.17-0.06,0.24,0.02c0.11,0.11,0.06,0.21-0.01,0.27c-0.1,0.09-0.23,0.16-0.34,0.25c-0.27,0.2-0.55,0.39-0.81,0.62
			c-0.53,0.47-1.21,0.71-1.81,1.08c-0.63,0.39-1.21,0.83-1.87,1.17C66.79,33.61,66.66,33.69,66.45,33.8z"/>
		<path d="M79.2,34.16c1.19-1.15,2.36-2.34,3.7-3.35c0.01,0.25-0.09,0.43-0.22,0.59c-0.39,0.5-0.85,0.95-1.36,1.33
			c-0.38,0.29-0.72,0.64-1.12,0.91c-0.3,0.21-0.6,0.41-0.91,0.62C79.26,34.23,79.23,34.19,79.2,34.16z"/>
		<path d="M35.78,50.75c-0.2-0.15-0.26-0.3-0.24-0.39c0.09-0.51,0.08-1.07,0.42-1.45c0.2-0.23,0.42-0.45,0.53-0.76
			c0.12-0.35,0.45-0.51,0.69-0.74c0.41-0.38,0.84-0.73,1.27-1.09c0.11,0.16,0.03,0.2-0.02,0.25c-0.42,0.46-0.83,0.92-1.26,1.36
			c-0.33,0.33-0.6,0.71-0.89,1.07c-0.09,0.11-0.16,0.23-0.14,0.4C36.21,49.94,35.83,50.25,35.78,50.75z"/>
		<path d="M58.57,54.35c-1.49,1.56-3.28,2.71-4.91,4.04c0.31-0.56,0.83-0.91,1.3-1.31c0.47-0.4,0.97-0.78,1.4-1.23
			c0.48-0.5,1.05-0.92,1.6-1.36C58.1,54.38,58.26,54.24,58.57,54.35z"/>
		<path d="M59.47,53.19c1.06-1.36,2.36-2.38,3.48-3.59c0.05,0.35,0.04,0.65-0.29,0.77c-0.14,0.05-0.22,0.17-0.33,0.26
			c-0.9,0.71-1.63,1.6-2.44,2.4C59.81,53.11,59.75,53.24,59.47,53.19z"/>
		<path d="M74.15,38.91c-0.06-0.23,0.03-0.37,0.13-0.5c0.82-1,1.6-2.02,2.67-2.77C76.11,36.82,75.28,38,74.15,38.91z"/>
		<path d="M63.3,36.9c0.01-0.3,0.21-0.3,0.32-0.4c0.67-0.58,1.46-0.99,2.25-1.41c0.73-0.39,1.52-0.72,2.09-1.32
			c0.15-0.16,0.39-0.15,0.56-0.26C67.03,34.93,65.07,35.74,63.3,36.9z"/>
		<path d="M59.39,39.83c1.58-1.22,3.28-2.29,5.2-3.05c-0.37,0.37-0.83,0.65-1.32,0.86c-0.65,0.28-1.22,0.65-1.79,1.04
			C60.84,39.13,60.18,39.56,59.39,39.83z"/>
		<path d="M78.93,8.42c-0.44,0.71-1.06,1.17-1.76,1.53c-0.46,0.24-0.89,0.51-1.27,0.86c-0.14,0.13-0.29,0.27-0.49,0.32
			c-0.15-0.17-0.05-0.25,0.02-0.33c0.43-0.5,0.99-0.83,1.57-1.14c0.54-0.29,1.06-0.6,1.46-1.06C78.55,8.5,78.62,8.31,78.93,8.42z"/>
		<path d="M89.59,27.61c-0.42,0.37-0.7,0.74-1.2,0.88c-0.62,0.18-1.13,0.56-1.63,0.92c-0.06,0.05-0.12,0.11-0.2,0.12
			c-0.13,0.01-0.29,0.04-0.38-0.14c-0.09-0.18,0.02-0.23,0.16-0.27c0.78-0.24,1.39-0.72,2.07-1.11
			C88.82,27.77,89.15,27.64,89.59,27.61z"/>
		<path d="M74.01,38.15c-0.79,1.31-1.94,2.58-2.49,2.67C72.16,39.73,72.86,38.79,74.01,38.15z"/>
		<path d="M71.86,39.41c-0.69,0.76-1.09,1.79-1.92,2.44c-0.06,0.05-0.11,0.11-0.17,0.16c-0.06,0.05-0.13,0-0.19-0.06
			c-0.04-0.04-0.08-0.09-0.06-0.14c0.02-0.04,0.05-0.08,0.08-0.12c0.43-0.57,0.83-1.15,1.29-1.69c0.24-0.28,0.57-0.48,0.86-0.71
			C71.8,39.34,71.83,39.38,71.86,39.41z"/>
		<path d="M60.77,49.66c-0.07-0.21-0.07-0.34,0.09-0.42c0.32-0.18,0.51-0.49,0.75-0.74c0.37-0.4,0.83-0.72,1.38-1.03
			c0.04,0.39-0.07,0.6-0.26,0.71C62.04,48.61,61.51,49.24,60.77,49.66z"/>
		<path d="M93.49,25.11c-0.11,0.36-0.4,0.54-0.68,0.72c-0.54,0.35-1.1,0.66-1.65,0.99c-0.07,0.04-0.15,0.06-0.22,0.08
			c-0.07,0.03-0.13,0-0.18-0.07c-0.06-0.08-0.04-0.14,0-0.19c0.02-0.02,0.04-0.05,0.07-0.06c0.5-0.17,0.85-0.54,1.3-0.77
			c0.32-0.16,0.62-0.35,0.92-0.54C93.18,25.19,93.29,25.08,93.49,25.11z"/>
		<path d="M88.45,25.42c0.06,0.39-0.12,0.63-0.25,0.89c-0.35,0.71-0.8,1.35-1.24,1.99c-0.09,0.13-0.21,0.23-0.21,0.44
			c-0.21-0.2-0.11-0.3-0.05-0.42c0.21-0.42,0.43-0.84,0.69-1.23c0.31-0.47,0.57-0.97,0.8-1.49C88.23,25.51,88.26,25.41,88.45,25.42z
			"/>
		<path d="M73.18,28.28c-0.15-0.3,0.02-0.42,0.13-0.52c0.64-0.56,1.11-1.28,1.77-1.83c0.16-0.14,0.23-0.36,0.46-0.43
			C74.85,26.5,74.12,27.47,73.18,28.28z"/>
		<path d="M74.67,5.77c0.36-0.96,1.2-1.44,1.66-2.29c0.17,0.27,0.1,0.4,0.02,0.53C75.92,4.68,75.46,5.33,74.67,5.77z"/>
		<path d="M32.48,35.21c-0.71,0.74-1.16,1.72-2.15,2.13c-0.01-0.03-0.04-0.08-0.03-0.09c0.37-0.38,0.7-0.81,1.06-1.21
			c0.24-0.27,0.48-0.57,0.84-0.72C32.29,35.28,32.39,35.25,32.48,35.21z"/>
		<path d="M46.02,39.03c-0.41,0.41-0.8,0.83-1.23,1.21c-0.17,0.15-0.34,0.31-0.52,0.46c-0.09,0.08-0.2,0.13-0.32,0.01
			c-0.12-0.12-0.06-0.24,0.03-0.31c0.58-0.39,1.09-0.85,1.63-1.28C45.71,39.05,45.82,38.96,46.02,39.03z"/>
		<path d="M91.47,28.9c-0.71,0.48-1.36,1.02-2.28,1.15c-0.14-0.2-0.01-0.28,0.1-0.32c0.65-0.22,1.16-0.63,1.77-0.9
			C91.17,28.79,91.28,28.7,91.47,28.9z"/>
		<path d="M37.17,31.28c-0.61,0.96-1.53,1.49-2.35,2.13c0.31-0.43,0.61-0.91,1.03-1.2C36.26,31.91,36.56,31.47,37.17,31.28z"/>
		<path d="M45.73,61.56c0.52-0.18,1.1-0.12,1.67-0.11c0.09,0,0.18,0.05,0.21,0.16c0.02,0.07-0.02,0.1-0.07,0.11
			C46.96,61.84,46.36,61.84,45.73,61.56z"/>
		<path d="M72.79,28.56c-0.24,0.44-0.65,0.72-1.01,1.05C71.95,29.08,72.28,28.73,72.79,28.56z"/>
		<path d="M28.73,38.4c0.31-0.43,0.91-0.48,1.32-0.97C29.94,37.81,29.34,38.24,28.73,38.4z"/>
		<path d="M37.36,31.01c0.22-0.27,0.51-0.48,0.71-0.77C37.97,30.63,37.77,30.85,37.36,31.01z"/>
		<path d="M62.23,45.33c-0.5-1.27-0.57-2.45-0.03-3.51c0.08-0.15,0.14-0.32,0.2-0.48c0.02-0.07,0.07-0.12,0.14-0.08
			c0.07,0.03,0.12,0.1,0.14,0.18c0.03,0.13,0.02,0.25-0.02,0.35C62.13,42.84,62.23,44.1,62.23,45.33z"/>
		<path d="M60.23,58.93c0.05-0.29,0.18-0.44,0.3-0.59c0.67-0.88,0.73-1.91,0.15-3.12c-0.08-0.16-0.14-0.31-0.1-0.46
			c0.02-0.08,0.06-0.15,0.16-0.14c0.08,0.01,0.12,0.07,0.16,0.14c0.63,1.27,0.86,2.48,0.23,3.54C60.94,58.6,60.66,58.8,60.23,58.93z
			"/>
		<path d="M63.57,56.94c-0.02-0.36-0.06-0.73,0-1.07c0.11-0.56,0.1-1.14,0-1.75c-0.09-0.49-0.03-0.97-0.34-1.46
			c-0.04-0.07-0.02-0.14,0.06-0.16c0.1-0.03,0.16,0.02,0.21,0.13c0.39,0.9,0.6,1.79,0.58,2.68C64.06,55.93,63.85,56.45,63.57,56.94z
			"/>
		<path d="M60.82,18.2c0.34-0.32,0.65-0.55,1.17-0.35c0.25,0.09,0.38,0.23,0.4,0.48c0.05,0.57-0.11,1.06-0.3,1.54
			c-0.09,0.22-0.21,0.42-0.33,0.63c-0.17,0.3-0.42,0.49-0.81,0.51c-0.33,0.02-0.6-0.14-0.75-0.48c-0.1-0.23-0.17-0.46-0.13-0.68
			C60.19,19.18,60.45,18.61,60.82,18.2z"/>
		<path d="M67.57,22.46c0.21-0.19,0.38-0.36,0.67-0.21c0.28,0.15,0.44,0.41,0.43,0.68c-0.01,0.85-0.16,1.64-0.68,2.23
			c-0.16,0.19-0.37,0.41-0.74,0.21c-0.35-0.19-0.46-0.5-0.53-0.83c-0.11-0.49,0.04-0.87,0.24-1.24
			C67.14,22.98,67.46,22.76,67.57,22.46z"/>
		<path d="M61.82,25.35c0.22-0.21,0.55-0.13,0.74,0.16c0.1,0.15,0.16,0.3,0.17,0.46c0.05,0.62-0.04,1.19-0.29,1.69
			c-0.13,0.27-0.39,0.39-0.66,0.47c-0.37,0.11-0.71-0.16-0.78-0.58c-0.07-0.43,0-0.81,0.15-1.17
			C61.32,25.99,61.69,25.74,61.82,25.35z"/>
		<path d="M59.28,28.86c-0.54-0.58-1.01-1.18-1.34-1.86c-0.14-0.3-0.19-0.6-0.3-0.89c-0.4-1.11-0.59-2.21-0.6-3.31
			c-0.02-1.09,0.14-2.13,0.2-3.19c0-0.02,0-0.04,0.01-0.05c0.09-0.16,0.04-0.53,0.26-0.44c0.26,0.11,0.07,0.36,0.02,0.52
			c-0.08,0.24-0.02,0.51-0.04,0.76c-0.1,1.28-0.22,2.56,0.05,3.92c0.23,1.19,0.6,2.37,1.25,3.5C58.96,28.15,59.11,28.51,59.28,28.86
			z"/>
		<path d="M71.02,26.01c-0.9,2.01-3.59,4.06-6.4,3.6c0.35-0.18,0.68-0.31,1.07-0.35c1.33-0.13,2.39-0.7,3.32-1.49
			c0.56-0.47,1.14-0.92,1.53-1.55C70.63,26.07,70.86,26.2,71.02,26.01z"/>
		<path d="M59.83,31.21c-0.4-0.21-0.61-0.47-0.82-0.7c-0.74-0.83-1.26-1.78-1.6-2.76c-0.27-0.76-0.41-1.54-0.6-2.31
			c-0.03-0.13-0.01-0.26,0.01-0.39c0.49,1.04,0.74,2.11,1.18,3.15C58.43,29.24,59.18,30.14,59.83,31.21z"/>
		<path d="M69.55,18.14c-0.17,0.02-0.24-0.08-0.31-0.17c-1.02-1.27-2.3-2.08-3.73-2.64c-0.25-0.1-0.47-0.22-0.66-0.49
			c0.74,0.07,1.43,0.36,2.09,0.74c0.73,0.42,1.43,0.93,2.02,1.57C69.23,17.44,69.46,17.75,69.55,18.14z"/>
		<path d="M68.74,19.62c0.9,0.85,1.35,1.79,1.41,2.84c0.04,0.61-0.01,1.2-0.2,1.73c-0.03,0.08-0.06,0.15-0.1,0.22
			c-0.04,0.07-0.09,0.14-0.19,0.1c-0.13-0.05-0.16-0.16-0.14-0.27c0.06-0.32,0.14-0.64,0.19-0.96c0.16-1.05-0.12-2.1-0.78-3.14
			C68.85,20,68.7,19.87,68.74,19.62z"/>
		<path d="M63.2,16.6c-0.24,0.03-0.44,0.06-0.65,0.07c-0.93,0.04-1.68,0.38-2.32,0.92c-0.09,0.08-0.18,0.17-0.29,0.24
			c-0.07,0.05-0.16,0.03-0.24-0.05c-0.08-0.08-0.09-0.17-0.04-0.24c0.12-0.14,0.23-0.29,0.37-0.42c0.67-0.59,1.49-0.91,2.5-0.84
			C62.82,16.3,62.85,16.32,63.2,16.6z"/>
		<path d="M67.33,27.98c0.35-0.31,0.6-0.56,0.92-0.73c0.56-0.29,0.84-0.85,1.22-1.32c0.05-0.06,0.04-0.18,0.15-0.13
			c0.14,0.06,0.1,0.18,0.11,0.28c0.01,0.17-0.08,0.28-0.13,0.41c-0.28,0.65-0.81,1.06-1.39,1.4C68,28.01,67.75,28.07,67.33,27.98z"
			/>
		<path d="M57.76,29.65c0.33,0.18,0.42,0.52,0.56,0.81c0.26,0.51,0.49,1.02,0.82,1.5c0.05,0.07,0.08,0.14,0.03,0.19
			c-0.05,0.05-0.13,0.02-0.19-0.04c-0.62-0.68-1.01-1.45-1.31-2.27C57.66,29.77,57.66,29.7,57.76,29.65z"/>
		<path d="M66.21,16.57c0.78,0.25,1.45,0.72,2.05,1.33c0.15,0.16,0.27,0.33,0.18,0.56C67.69,17.82,66.95,17.2,66.21,16.57z"/>
		<path d="M58.29,33.75c-0.57-0.14-0.9-0.57-1.19-1.03c-0.06-0.1-0.12-0.22,0-0.27c0.1-0.04,0.15,0.06,0.22,0.13
			C57.68,32.95,57.91,33.4,58.29,33.75z"/>
		<path d="M51.42,40.96c-0.51-0.65-0.36-1.23-0.45-1.8C51.27,39.74,51.32,40.32,51.42,40.96z"/>
		<path d="M58.7,32.93c-0.52-0.34-0.89-0.77-1.05-1.46C58.05,32.02,58.37,32.48,58.7,32.93z"/>
		<path d="M46.27,46.68c-0.24,0.05-0.35-0.09-0.47-0.18c-0.46-0.31-0.89-0.69-1.4-0.92c-0.08-0.04-0.14-0.09-0.13-0.16
			c0.01-0.07,0.07-0.1,0.15-0.09c0.07,0.01,0.14,0,0.21,0.03C45.3,45.61,45.83,46.04,46.27,46.68z"/>
		<path d="M53.56,30.19c0.44-0.49,0.86-1.03,1.47-1.37C54.6,29.33,54.16,29.84,53.56,30.19z"/>
	</g>
	<g>
	</g>
	<g>
	</g>
	<g>
	</g>
	<g>
	</g>
	<g>
	</g>
	<g>
	</g>
	<g>
	</g>
	<g>
	</g>
	<g>
	</g>
	<g>
	</g>
	<g>
	</g>
	<g>
	</g>
	<g>
	</g>
	<g>
	</g>
	<g>
	</g>
</g>
</svg>
