<?xml version="1.0" encoding="utf-8"?>
<!-- Generator: Adobe Illustrator 26.2.1, SVG Export Plug-In . SVG Version: 6.00 Build 0)  -->
<svg version="1.1" xmlns="http://www.w3.org/2000/svg" xmlns:xlink="http://www.w3.org/1999/xlink" x="0px" y="0px"
	 viewBox="0 0 60 100" enable-background="new 0 0 60 100" xml:space="preserve">
<g id="Layer_1">
</g>
<g id="BG">
	<rect id="BG_00000082354266892434819460000014407544633745974707_" x="0.02" y="0" fill="#F0EDDA" width="60" height="100"/>
	<rect id="BG_00000037693340041972082810000009059657678697518014_" x="0.02" fill="#F0EDDA" width="60" height="100"/>
</g>
<g id="THINGS">
	<path d="M0.02,0v1.6v96.8v1.6h60v-1.6V1.6V0H0.02z M59.02,98.4h-58V1.6h58V98.4z"/>
	<g>
		<g id="_x34__00000130628733617324533010000003669431123703292809_">
			<g>
				<g>
					<path d="M43.06,38.81c-0.13,0.35-0.38,0.56-0.77,0.56c-0.03,0-0.05,0.01-0.08,0.02c-0.63,0.26-1.26,0.22-1.9-0.13
						c-0.01,0.35-0.03,0.65-0.02,0.95c0.01,0.3,0.04,0.59-0.32,0.73c0.17,0.3,0.12,0.58,0,0.85c-0.13,0.29-0.12,0.59-0.08,0.9
						c0.03,0.28,0.07,0.55,0.1,0.83c0.02,0.24,0.06,0.49-0.25,0.62c0.29,0.16,0.38,0.39,0.38,0.65c-0.01,0.82,0.22,1.59,0.51,2.35
						c0.17,0.45,0.39,0.89,0.62,1.32c0.21,0.39,0.24,0.77,0,1.19c0.05,0.03,0.1,0.07,0.15,0.09c0.23,0.07,0.35,0.24,0.39,0.46
						c0.09,0.49,0.19,0.99,0.22,1.48c0.06,0.78,0.08,1.55,0,2.33c-0.07,0.75-0.05,1.5-0.09,2.25c-0.02,0.34-0.04,0.69-0.13,1.02
						c-0.07,0.26-0.25,0.48-0.41,0.76c0.01,0.02,0.04,0.09,0.07,0.16c0.16,0.33,0.15,0.69-0.13,0.94c-0.33,0.3-0.54,0.66-0.74,1.05
						c-0.43,0.83-1.21,1.12-2.09,1.2c-0.09,0.01-0.18-0.02-0.27-0.05c-0.8-0.22-1.61-0.25-2.43-0.28c-1.56-0.05-5.7,0.1-7.25,0.24
						c-1.46,0.14-2.92,0.24-4.39,0.18c-0.66-0.03-1.32,0.02-1.98,0.04c-0.73,0.02-1.45-0.07-2.14-0.31
						c-0.54-0.18-0.72-0.51-0.57-1.06c0.01-0.05,0.02-0.1,0.03-0.16c-0.33-0.07-0.65-0.14-0.96-0.22c-0.03-0.01-0.05-0.06-0.09-0.11
						c0.12-0.15,0.23-0.3,0.43-0.55c-0.15-0.03-0.25-0.02-0.33-0.06c-0.25-0.12-0.31-0.25-0.2-0.51c0.23-0.51,0.5-0.99,1.01-1.28
						c0.08-0.04,0.17-0.08,0.26-0.09c0.37-0.02,0.74-0.05,1.1-0.04c0.53,0.01,1.01-0.55,0.84-1.06c-0.12-0.34-0.27-0.71-0.52-0.97
						c-0.34-0.35-0.53-0.75-0.67-1.19c-0.09-0.29,0.19-0.34,0.03-0.45c-0.14-0.09-0.25-0.22-0.36-0.35
						c-0.09-0.09-0.18-0.11-0.3-0.09c-0.33,0.05-0.66,0.11-1,0.12c-0.27,0.01-0.54-0.04-0.81-0.07c-0.1-0.01-0.19-0.03-0.18-0.19
						c0.01-0.09-0.06-0.21-0.21-0.21c-0.34,0-0.58-0.2-0.82-0.4c-0.25-0.2-0.51-0.38-0.8-0.52c-0.15-0.08-0.28-0.17-0.37-0.33
						c-0.18-0.3-0.45-0.51-0.75-0.69c-0.18-0.1-0.34-0.23-0.46-0.41c-0.03-0.05-0.07-0.09-0.11-0.13c-0.27-0.25-0.55-0.49-0.82-0.73
						c-0.08-0.07-0.17-0.14-0.21-0.23c-0.08-0.16-0.21-0.23-0.35-0.3c-0.35-0.18-0.7-0.37-1-0.65c-0.16-0.15-0.35-0.25-0.53-0.37
						c-0.09-0.06-0.17-0.12-0.25-0.19c-0.03-0.03-0.04-0.09-0.08-0.16c0.12-0.01,0.2-0.01,0.31-0.02c-0.34-0.33-0.68-0.61-1.07-0.83
						c-0.13-0.07-0.26-0.16-0.38-0.25c-0.08-0.06-0.07-0.06-0.03-0.22c0.41,0.14,0.76,0.46,1.22,0.44c0-0.02,0.01-0.04,0.01-0.05
						c-0.35-0.34-0.61-0.76-1.04-1.01c-0.2-0.12-0.41-0.21-0.62-0.3c-0.24-0.1-0.5-0.18-0.74-0.27c-0.07-0.03-0.12-0.09-0.2-0.15
						c0.21-0.1,0.37,0,0.52-0.01c0.16-0.01,0.31-0.01,0.47-0.02c0.01-0.02,0.01-0.04,0.02-0.05c-0.18-0.17-0.35-0.34-0.54-0.49
						c-0.11-0.09-0.12-0.16-0.02-0.26c0.03,0.01,0.07,0.01,0.08,0.03c0.29,0.28,0.65,0.42,1.02,0.57c0.23,0.09,0.47,0.17,0.69,0.27
						c0.27,0.13,0.55,0.25,0.8,0.42c0.57,0.37,1.13,0.75,1.74,1.06c0.66,0.35,1.31,0.74,1.91,1.18c0.39,0.29,0.79,0.57,1.12,0.93
						c0.12,0.13,0.28,0.21,0.42,0.32c0.65,0.48,1.26,1,1.93,1.46c0.29,0.19,0.52,0.47,0.78,0.71c0.08,0.08,0.15,0.16,0.25,0.25
						c-0.9-2.62-0.94-2.74-1-4.2c0.01,0.01-0.02-0.03-0.06-0.06c-0.29-0.21-0.38-0.49-0.29-0.83c0.21-0.84,0.38-1.7,0.62-2.54
						c0.33-1.14,0.75-2.25,1.06-3.4c0.13-0.49,0.3-0.87,0.78-1.08c0.07-0.03,0.13-0.09,0.19-0.14c0.02-0.02,0.02-0.04,0.08-0.15
						c-0.08-0.01-0.17-0.01-0.24-0.04c-0.33-0.16-0.41-0.38-0.25-0.71c0.31-0.64,0.78-1.16,1.26-1.67c0.56-0.61,1.14-1.21,1.7-1.82
						c0.11-0.12,0.2-0.27,0.28-0.38c0.35,0.04,0.67,0.09,1,0.12c1.24,0.11,2.48,0.05,3.72,0c1.2-0.05,4.98-0.09,6.18-0.1
						c0.87-0.01,1.74,0.06,2.61,0.08c0.58,0.02,1.16,0.02,1.74,0.05c1.08,0.05,2.16,0.12,3.24,0.19c0.47,0.03,0.94,0.08,1.42,0.13
						c0.43,0.05,0.64,0.38,0.84,0.71c0.07,0.12,0.06,0.27-0.08,0.35c-0.19,0.12-0.22,0.27-0.1,0.43c0.53,0.74-0.01,1.99-0.74,2.4
						C43.44,38.71,43.27,38.74,43.06,38.81z M18.77,52.95c-0.08,0-0.16,0-0.24-0.01c0,0.02,0.01,0.04,0.01,0.06
						C18.61,52.98,18.69,52.96,18.77,52.95c0.11,0.03,0.11,0.03,0.25-0.01C18.9,52.94,18.84,52.94,18.77,52.95z M15.04,47.82
						c-0.06-0.06-0.12-0.13-0.18-0.19c-0.01,0.02-0.03,0.03-0.04,0.05C14.9,47.72,14.97,47.77,15.04,47.82
						c0.13,0.17,0.31,0.28,0.51,0.4C15.44,48.02,15.24,47.86,15.04,47.82z M40.82,56.47c-0.88,0.03-1.69,0.06-2.51,0.07
						c-0.81,0.02-1.61,0.11-2.42-0.02c0.06-0.05,0.12-0.07,0.18-0.07c0.39-0.02,0.79-0.03,1.18-0.05c0.89-0.04,1.79-0.09,2.68-0.12
						c0.53-0.02,1.03-0.15,1.54-0.23c0.02-0.44,0.06-0.83,0.06-1.22c0-1.27-0.01-2.53-0.03-3.8c0-0.24-0.09-0.48-0.13-0.68
						c-0.94,0.16-1.83,0.14-2.72,0.04c0.71-0.07,1.41-0.13,2.12-0.2c-0.19-0.15-0.37-0.29-0.58-0.2c-0.34,0.15-0.69,0.15-1.05,0.15
						c-0.07,0-0.13-0.03-0.2-0.05c0.06-0.09,0.11-0.11,0.17-0.12c0.31-0.05,0.63-0.09,0.94-0.15c0.1-0.02,0.19-0.09,0.28-0.14
						c-0.01-0.03-0.02-0.05-0.02-0.08c-1.79-0.01-3.57,0.25-5.37,0.31c0.09-0.06,0.19-0.1,0.29-0.12c0.77-0.09,1.55-0.2,2.32-0.26
						c0.93-0.07,1.87-0.1,2.8-0.15c0.49-0.03,0.71-0.33,0.55-0.8c-0.07-0.21-0.18-0.41-0.26-0.62c-0.2-0.47-0.4-0.95-0.6-1.42
						c-0.05-0.13-0.09-0.26-0.13-0.38c-0.79,0.04-0.79,0.04-0.93-0.11c0.25-0.17,0.52-0.14,0.81-0.1c-0.06-0.34-0.16-0.65-0.15-0.95
						c0.02-0.45-0.24-0.6-0.6-0.7c-0.08-0.02-0.15-0.04-0.23-0.07c-0.22-0.09-0.24-0.22-0.07-0.38c0.1-0.09,0.22-0.17,0.32-0.25
						c-0.01-0.03-0.02-0.06-0.03-0.08c-0.13,0.01-0.33-0.03-0.36,0.03c-0.14,0.26-0.39,0.16-0.58,0.22
						c-0.01,0.07-0.01,0.13-0.02,0.19c-1.41,0.03-2-0.02-2.25-0.21c0.39-0.01,0.74-0.01,1.09-0.02c0.14,0,0.32,0.04,0.43-0.03
						c0.21-0.13,0.43-0.1,0.64-0.14c0.21-0.04,0.5,0.1,0.62-0.22c0.01-0.03,0.1-0.04,0.14-0.04c0.2,0.04,0.4,0.08,0.64,0.13
						c0.02-0.17,0.04-0.38,0.07-0.59c0.05-0.47,0.1-0.94,0.16-1.41c0.02-0.13,0-0.23-0.09-0.32c-0.06-0.06-0.11-0.14-0.2-0.24
						c0.1-0.1,0.18-0.23,0.29-0.27c0.26-0.1,0.31-0.3,0.3-0.54c0-0.12,0-0.24,0.01-0.36c0.04-0.54,0.04-1.08,0.27-1.58
						c0.16-0.37-0.05-0.67-0.45-0.69c-0.13-0.01-0.25,0.01-0.34-0.2c0.19,0.02,0.32,0.05,0.46,0.05c0.52,0.02,0.95-0.11,1.24-0.6
						c0.31-0.53,0.69-1,1.23-1.31c0.14-0.08,0.28-0.18,0.42-0.27c0-0.03-0.01-0.05-0.01-0.08c-0.19-0.01-0.38-0.04-0.57-0.04
						c-0.58-0.02-1.16-0.02-1.74-0.04c-0.55-0.03-1.1-0.09-1.65-0.12c-1-0.04-2-0.05-3-0.1c-1.57-0.06-5.72-0.01-7.29,0.06
						c-1.16,0.06-2.32,0.14-3.48,0.01c-0.24-0.03-0.47-0.06-0.71-0.07c-0.14,0-0.3,0.02-0.4,0.1c-0.3,0.23-0.6,0.48-0.85,0.76
						c-0.51,0.57-1.01,1.15-1.48,1.75c-0.27,0.34-0.5,0.71-0.64,1.17c0.14,0.06,0.28,0.11,0.4,0.18c0.34,0.2,0.35,0.4,0.04,0.62
						c-0.21,0.15-0.45,0.27-0.67,0.42c-0.1,0.07-0.22,0.16-0.26,0.27c-0.53,1.52-1.13,3.02-1.47,4.6c-0.12,0.56-0.14,1.15-0.19,1.72
						c-0.01,0.1,0.04,0.24,0.11,0.31c0.21,0.2,0.22,0.43,0.18,0.69c-0.02,0.19-0.03,0.39-0.02,0.59c0.01,0.26,0.04,0.52,0.06,0.79
						c0.02,0.22,0.82,2.3,0.83,2.45c0.08-0.05-0.04-0.49,0.08-0.58c-0.04,0.3,0.08,0.76,0.06,0.91c-0.01,0.15,0,0.3,0.06,0.47
						c0.11-0.14,0-0.44,0.43-0.46c-0.05,0.12-0.14,0.19-0.16,0.23c-0.11,0.23-0.07,0.47-0.03,0.7c0.02,0.11,0.14,0.21,0.23,0.29
						c0.33,0.28,0.66,0.55,0.99,0.83c0.33,0.28,1.15,1,1.14,1.02c-0.02,0.02-0.22-0.05-0.29-0.08c-0.18-0.09-0.35-0.2-0.54-0.25
						c-0.32-0.09-0.87-0.1-1.25-0.38c0.1,0.14,0.31,0.67,0.42,0.83c0.2,0.29,0.42,0.58,0.59,0.89c0.3,0.54,0.5,1.11,0.05,1.76
						c0.62,0.04,1.18,0.08,1.73,0.11c0.09-0.26,0.12-0.3,0.35-0.29c0.33,0,0.66,0.03,0.99,0.04c0.11,0.01,0.22,0.01,0.36,0.02
						c-0.06,0.08-0.09,0.12-0.16,0.23c0.63,0,1.21,0.01,1.79,0.01c0.62,0,1.24,0,1.86-0.01c0.8-0.01,4.2,0.01,5-0.03
						c1-0.05,2-0.17,3-0.19c0.72-0.02,1.42-0.04,2.12-0.22c0.41-0.11,0.73-0.03,0.93,0.37c0.01,0.02,0.04,0.03,0,0
						c0.27-0.02,0.48-0.03,0.7-0.05c0.15-0.06,0.31-0.15,0.47-0.17c0.16-0.02,0.34,0.03,0.55,0.06c0.01-0.22,0.03-0.46,0.02-0.71
						c0-0.03-0.1-0.07-0.17-0.11c-0.01,0.21-0.02,0.38-0.02,0.56c-0.27,0.07-0.53,0.13-0.84-0.06c0.16-0.05,0.26-0.09,0.37-0.12
						c-0.04-0.06-0.08-0.11-0.11-0.16C40.71,56.55,40.75,56.52,40.82,56.47z M22.38,60.76c0.26,0.02,0.49,0.03,0.72,0.06
						c0.15,0.02,0.31,0.07,0.46,0.06c1.09-0.05,2.19-0.11,3.28-0.15c0.48-0.02,0.97-0.05,1.44,0.07c-1.27,0.16-2.55,0.14-3.82,0.33
						c0.32,0.04,0.63,0.06,0.94,0.04c0.76-0.04,1.53-0.09,2.29-0.14c0.62-0.04,1.24-0.07,1.85-0.13c1.75-0.19,6.09-0.22,7.84-0.06
						c0.12,0.01,0.25,0.01,0.41,0.02c-0.18-0.3-0.39-0.54-0.47-0.82c-0.09-0.28-0.05-0.6-0.07-0.9c-0.42,0.02-0.87,0.05-1.32,0.06
						c-0.46,0.01-0.92,0.02-1.38,0.03c-0.45,0.01-0.9,0.01-1.35,0.03c-0.46,0.01-3.51,0.03-3.97,0.05c-0.45,0.02-0.9,0.04-1.34,0.06
						c-0.46,0.02-0.92,0.05-1.38,0.06c-0.43,0.01-0.86,0.03-1.28-0.05c1.62-0.12,3.23-0.2,4.84-0.28c1.61-0.08,5.82-0.15,7.33-0.22
						c0.39-0.55,0.72-1.02,1.06-1.51c-0.08,0-0.14,0-0.21,0.01c-0.35,0.03-0.71,0.08-1.06,0.1c-1.12,0.06-2.24,0.1-3.36,0.17
						c-0.86,0.05-4.3,0.11-5.16,0.08c-0.91-0.04-1.82,0.01-2.73,0.01c-0.57,0-1.13-0.02-1.7-0.01c-0.79,0.02-1.58,0.01-2.37-0.1
						c-0.55-0.08-1.1-0.13-1.65-0.13c-0.8,0-1.3,0.43-1.52,1.24c0.08,0.01,0.15,0.02,0.23,0.04c0.08,0.02,0.16,0.03,0.23,0.06
						c0.2,0.08,0.24,0.17,0.14,0.37c-0.05,0.09-0.1,0.17-0.16,0.27c0.28,0.08,0.52,0.16,0.8,0.24c-0.04,0.2-0.07,0.35-0.12,0.5
						c-0.08,0.27-0.06,0.39,0.2,0.51c0.2,0.09,0.43,0.13,0.64,0.19c0.1,0.03,0.25,0.02,0.29,0.08c0.12,0.16,0.28,0.14,0.43,0.15
						c0.41,0.02,0.82,0.04,1.23,0.05c0.08,0,0.17-0.02,0.26-0.04C22.85,60.79,22.5,61.02,22.38,60.76z M11.49,47.77
						c0.17,0.07,0.31,0.1,0.42,0.18c0.12,0.09,0.19,0.24,0.31,0.32c0.41,0.28,0.84,0.5,1.36,0.41c0.04-0.01,0.08,0,0.12,0
						c0.39,0.04,0.78,0.08,1.16,0.12c0.23,0.02,0.45,0.03,0.7,0.04c-0.02-0.06-0.03-0.08-0.04-0.1c-0.29-0.27-0.58-0.54-0.87-0.81
						c-0.07-0.07-0.15-0.07-0.24-0.07c-0.45,0.01-0.91,0.02-1.36,0.01c-0.33-0.01-0.66-0.07-0.99-0.11
						C11.89,47.74,11.72,47.7,11.49,47.77z M18.65,51.63c-0.03-0.05-0.04-0.07-0.06-0.09c-0.27-0.23-0.55-0.46-0.82-0.69
						c-0.03-0.03-0.08-0.05-0.13-0.05c-0.51-0.03-1.01-0.13-1.51-0.22c-0.54-0.09-1.06-0.22-1.55-0.46
						c-0.04-0.02-0.09-0.02-0.17-0.04c0.21,0.19,0.39,0.35,0.58,0.51c0.03,0.03,0.07,0.04,0.1,0.06c0.1,0.06,0.21,0.12,0.3,0.2
						c0.49,0.38,1.03,0.62,1.65,0.71C17.56,51.64,18.08,51.7,18.65,51.63z M13.42,47.03c0-0.01,0.01-0.03,0.01-0.04
						c-0.27-0.2-0.53-0.4-0.8-0.59c-0.58-0.4-1.15-0.8-1.82-1.05c-0.17-0.07-0.33-0.16-0.54-0.14c-0.18,0.02-0.38-0.07-0.57-0.11
						c0.03,0.06,0.06,0.09,0.11,0.1c0.48,0.12,0.79,0.42,0.97,0.88c0.04,0.11,0.12,0.22,0.21,0.28c0.22,0.15,0.45,0.3,0.69,0.42
						c0.34,0.17,0.71,0.16,1.08,0.2C12.99,46.98,13.21,47.01,13.42,47.03z M15.32,48.32c0.04,0.04,0.07,0.08,0.11,0.11
						c0.26,0.25,0.52,0.49,0.78,0.74c0.43,0.4,0.85,0.82,1.29,1.21c0.46,0.41,0.95,0.8,1.42,1.21c0.48,0.42,0.95,0.85,1.32,1.38
						c0.04,0.05,0.08,0.1,0.12,0.14c0.2,0.18,0.41,0.35,0.6,0.55c0.26,0.28,0.59,0.29,0.93,0.33c-0.13-0.12-0.27-0.23-0.4-0.34
						c-0.35-0.29-0.69-0.59-1.03-0.89c-0.26-0.23-0.51-0.49-0.76-0.73c-0.49-0.46-0.98-0.91-1.47-1.37
						c-0.08-0.08-0.15-0.16-0.24-0.23c-0.23-0.18-0.48-0.34-0.7-0.53c-0.52-0.45-1.03-0.9-1.54-1.36
						C15.61,48.46,15.48,48.36,15.32,48.32z M13.78,49.3c0.07,0.04,0.14,0.09,0.22,0.12c0.39,0.12,0.78,0.25,1.17,0.34
						c0.37,0.08,0.76,0.12,1.13,0.18c0.05,0.01,0.1,0.03,0.16,0.05c0,0.02-0.01,0.04-0.01,0.06c-0.47-0.01-0.94-0.09-1.4-0.19
						c-0.46-0.11-0.91-0.27-1.38-0.41c0.63,0.57,2.58,1.01,3.49,0.9c-0.31-0.38-0.68-0.68-1.02-0.98c-0.1,0.02-0.18,0.06-0.25,0.06
						c-0.32-0.02-0.63-0.05-0.95-0.07c-0.1-0.01-0.19-0.02-0.28-0.04c-0.08-0.01-0.17-0.02-0.25-0.03c0,0.02,0,0.03,0,0.05
						c0.31,0.06,0.63,0.11,0.94,0.17c0.31,0.06,0.64,0,0.94,0.14C15.42,49.7,14.61,49.49,13.78,49.3z M14.38,47.72
						c-0.22-0.17-0.4-0.31-0.56-0.45c-0.09-0.08-0.19-0.11-0.3-0.11c-0.48-0.03-0.97-0.07-1.45-0.11c-0.21-0.02-0.42-0.04-0.64-0.07
						c-0.13-0.02-0.25-0.04-0.38-0.06c-0.06-0.01-0.11-0.01-0.17-0.02c0.15,0.18,0.29,0.35,0.47,0.45c0.18,0.1,0.4,0.16,0.61,0.21
						c0.65,0.16,1.33,0.16,1.99,0.17C14.08,47.73,14.2,47.72,14.38,47.72z M16.22,51.6c1.01,0.89,2.51,0.98,3.28,0.76
						c-0.22-0.2-0.42-0.39-0.63-0.57c-0.04-0.03-0.12-0.02-0.18-0.02c-0.36,0.04-0.73,0.07-1.09,0.02
						C17.13,51.73,16.67,51.67,16.22,51.6z M39.68,58.7c-0.1-0.03-0.17-0.03-0.22-0.06c-0.52-0.19-1.08,0.18-1.11,0.72
						c-0.02,0.24,0.13,0.53,0.34,0.57c0.38,0.09,0.79,0.17,1.12-0.15c0.52-0.5,0.73-1.11,0.59-1.83c-0.03-0.17-0.1-0.3-0.3-0.32
						c-0.11,0.09-0.22,0.18-0.32,0.26c-0.26-0.05-0.28-0.27-0.37-0.44c-0.1-0.21-0.24-0.26-0.4-0.11c-0.21,0.19-0.38,0.42-0.59,0.65
						C39.4,58.1,39.61,58.22,39.68,58.7z M44.02,35.45c-0.12-0.12-0.33-0.1-0.51-0.07c-0.44,0.06-0.84,0.22-1.18,0.51
						c-0.41,0.34-0.75,0.73-1.02,1.2c-0.08,0.14-0.2,0.28-0.34,0.37c-0.15,0.11-0.26,0.21-0.26,0.41c0,0.1-0.06,0.2-0.09,0.3
						c-0.08,0.25-0.16,0.5-0.25,0.77c0.4,0.07,0.73,0.3,1.1,0.21c-0.05-0.33-0.14-0.64-0.13-0.95c0.04-1.05,0.66-1.74,1.49-2.28
						c0.34-0.23,0.7-0.29,0.97-0.04C43.86,35.74,43.93,35.61,44.02,35.45z M43.95,36.39c-0.01,0.01-0.03,0.01-0.03,0.02
						c-0.03,0.09-0.06,0.17-0.08,0.26c-0.16,0.63-0.54,1.11-1.04,1.49c-0.26,0.2-0.55,0.31-0.89,0.18
						c-0.08-0.03-0.17-0.02-0.26-0.03c0,0.45,0.09,0.65,0.35,0.67c0.18,0.02,0.37-0.02,0.54-0.06c0.31-0.08,0.1-0.44,0.3-0.59
						c0.62,0.06,0.9-0.1,1.21-0.71C44.24,37.23,44.34,36.73,43.95,36.39z M16.08,49.29c-0.19-0.21-0.33-0.43-0.63-0.31
						c-0.03,0.01-0.06,0-0.09,0c-0.39-0.03-0.78-0.07-1.16-0.1c-0.21-0.02-0.41-0.05-0.66-0.01C13.9,49.05,15.32,49.28,16.08,49.29z
						 M42.52,36.58c0.16,0.09,0.3,0.14,0.4,0.23c0.06,0.06,0.1,0.18,0.1,0.27c0,0.04-0.14,0.08-0.22,0.11
						c-0.02,0.01-0.05-0.02-0.08-0.02c-0.32,0.01-0.64,0.31-0.66,0.63c-0.01,0.23,0.11,0.32,0.32,0.23c0.11-0.04,0.22-0.1,0.31-0.18
						c0.34-0.3,0.64-0.63,0.8-1.07c0.07-0.2,0.16-0.4,0.05-0.61C43.17,36.08,42.95,36.17,42.52,36.58z M15.2,50.24
						c0.46,0.18,2.14,0.5,2.37,0.45c-0.13-0.18-0.25-0.26-0.44-0.26c-0.17,0-0.35,0.01-0.52-0.01C16.13,50.36,15.66,50.3,15.2,50.24
						z M37.97,60.46c0.59,0.73,1.88,0.39,2.25-0.56c-0.11,0.08-0.18,0.13-0.24,0.19c-0.21,0.22-0.47,0.31-0.78,0.3
						C38.82,60.39,38.43,60.43,37.97,60.46z M19.8,51.91c-0.07-0.21-0.19-0.38-0.34-0.54c-0.15-0.16-0.29-0.31-0.44-0.47
						c-0.15-0.17-0.36-0.33-0.49-0.36c0.13,0.17,0.27,0.33,0.38,0.51C19.13,51.41,19.49,51.63,19.8,51.91z M38.28,60.1
						c-0.18-0.3-0.28-0.56-0.24-0.89c0.04-0.32,0.26-0.52,0.41-0.78c-0.14,0.01-0.25,0.01-0.37,0.02c-0.08,0.13-0.15,0.26-0.22,0.38
						c-0.09,0.16-0.18,0.32-0.24,0.5C37.43,59.87,37.69,60.19,38.28,60.1z M19.02,52.78c0.26-0.02,0.5,0.06,0.73-0.09
						c-0.07-0.14-0.16-0.25-0.29-0.18C19.32,52.58,19.07,52.49,19.02,52.78z M17.23,49.73c0.01-0.02,0.03-0.03,0.04-0.05
						c-0.1-0.1-0.18-0.22-0.29-0.31c-0.26-0.23-0.53-0.45-0.8-0.67c-0.01-0.01-0.04-0.01-0.06-0.01c-0.01,0.01-0.01,0.02-0.02,0.03
						C16.48,49.06,16.85,49.39,17.23,49.73z M18.21,50.47c-0.05-0.18-0.2-0.27-0.33-0.37c-0.13-0.1-0.21-0.27-0.4-0.31
						C17.53,49.97,17.59,50.03,18.21,50.47z M40.72,58.98c0.19-0.05,0.36-0.09,0.38-0.3c0.02-0.26-0.11-0.45-0.34-0.62
						C40.74,58.39,40.73,58.67,40.72,58.98z M17.28,52.41c0,0.01,0,0.02-0.01,0.03c0.04,0.01,0.08,0.02,0.13,0.03
						c0-0.01,0.01-0.02,0.01-0.04C17.37,52.43,17.32,52.42,17.28,52.41z"/>
					<path d="M28.75,40.8c-0.15,0-0.31,0-0.46-0.02c-1.43-0.19-2.86-0.26-4.3-0.3c-0.79-0.02-1.58-0.04-2.37-0.07
						c-0.28-0.01-0.57-0.02-0.82-0.16c0.01-0.17,0.1-0.18,0.22-0.17c0.95,0.06,1.89,0.12,2.84,0.18c0.93,0.06,1.87,0.09,2.8,0.17
						c0.7,0.06,1.4,0.19,2.1,0.28C28.76,40.74,28.76,40.77,28.75,40.8z"/>
					<path d="M23.76,35.26c0.04-0.03,0.09-0.08,0.13-0.07c2.27,0.21,4.57,0.08,6.83,0.62c-0.13,0-0.26,0-0.38-0.02
						c-1.57-0.19-3.15-0.26-4.73-0.26c-0.5,0-1-0.01-1.5-0.02C23.94,35.5,23.77,35.5,23.76,35.26z"/>
					<path d="M29.12,56.79c-0.36,0-0.73,0.02-1.09,0.01c-1.29-0.03-2.58,0.04-3.87,0.14c-0.45,0.03-0.89,0.06-1.34,0.07
						c-0.14,0-0.28-0.04-0.41-0.07c-0.01-0.03-0.02-0.06-0.02-0.09c0.06-0.04,0.12-0.11,0.18-0.11c0.22-0.01,0.45,0.03,0.67,0.02
						c1.11-0.04,2.21-0.1,3.32-0.12c0.85-0.02,1.7,0.02,2.56,0.03C29.11,56.71,29.12,56.75,29.12,56.79z"/>
					<path d="M35.71,35.17c0.55,0,1.09-0.03,1.64-0.01c1.26,0.05,2.52,0.14,3.79,0.07c0.23-0.01,0.49-0.05,0.72,0.14
						c-0.14,0.15-0.29,0.12-0.43,0.12c-1.12-0.04-2.24-0.09-3.35-0.14c-0.66-0.03-1.31-0.05-1.97-0.08
						c-0.13-0.01-0.26-0.02-0.39-0.03C35.71,35.21,35.71,35.19,35.71,35.17z"/>
					<path d="M21.76,38.39c0.37-0.16,0.94-0.12,4.43,0.37c-0.12,0-0.25,0.01-0.37,0.01c-0.14,0-0.29,0.01-0.43,0
						c-0.98-0.06-1.97-0.12-2.95-0.18c-0.17-0.01-0.34-0.03-0.51-0.06C21.87,38.52,21.82,38.44,21.76,38.39z"/>
					<path d="M33.19,44.29c1.99-0.24,3.94,0.17,5.91,0.23c0.04,0,0.08,0.05,0.19,0.14c-0.19,0.03-0.3,0.06-0.41,0.05
						c-0.6-0.05-1.21-0.12-1.81-0.17c-0.77-0.07-1.55-0.13-2.32-0.18c-0.46-0.03-0.92-0.02-1.38-0.03
						C33.3,44.33,33.24,44.3,33.19,44.29z"/>
					<path d="M19.36,47.48c1.33,0,2.63-0.07,3.93,0.11c-0.07,0.02-0.14,0.06-0.21,0.06c-1.12,0.04-2.23,0.08-3.35,0.11
						C19.59,47.76,19.37,47.82,19.36,47.48z"/>
					<path d="M23.16,48.08c-0.14,0.02-0.28,0.05-0.42,0.06c-0.96,0.08-1.91,0.16-2.87,0.23c-0.19,0.01-0.39,0.04-0.61-0.14
						c0.09-0.06,0.15-0.14,0.22-0.14c1.22-0.03,2.44-0.05,3.66-0.07C23.15,48.04,23.16,48.06,23.16,48.08z"/>
					<path d="M37.58,35.72c0.13-0.01,0.26-0.04,0.39-0.04c1.04,0.01,2.08,0.02,3.12,0.03c0.14,0,0.29,0,0.39,0.18
						c-0.06,0.03-0.12,0.09-0.17,0.08c-1.21-0.07-2.42-0.15-3.63-0.23C37.65,35.75,37.62,35.73,37.58,35.72
						C37.58,35.71,37.58,35.72,37.58,35.72z"/>
					<path d="M41.14,55.75c-0.91,0.06-1.82,0.14-2.74,0.09c0-0.03-0.01-0.06-0.01-0.08c0.07-0.02,0.13-0.06,0.2-0.06
						c0.81-0.05,1.63-0.09,2.44-0.13c0.04,0,0.08,0.05,0.12,0.07C41.15,55.67,41.15,55.71,41.14,55.75z"/>
					<path d="M41.42,52.83c-0.5,0.22-0.9,0.14-1.3,0.14c-0.01-0.04-0.01-0.07-0.02-0.11c0.21-0.05,0.43-0.11,0.67-0.17
						c-0.21-0.13-0.47,0.08-0.64-0.21c0.39-0.05,0.74-0.17,1.12-0.06c-0.03,0.07-0.03,0.11-0.05,0.12c-0.05,0.04-0.11,0.06-0.18,0.1
						C41.13,52.7,41.23,52.75,41.42,52.83z"/>
					<path d="M26.21,35.98c-0.27,0-0.54,0.01-0.81,0.01c-0.45,0.01-0.89,0.02-1.34,0.03c-0.15,0-0.32,0.03-0.4-0.21
						C24.53,35.76,25.37,35.8,26.21,35.98z"/>
					<path d="M23.97,55.21c-0.1,0.05-0.14,0.08-0.19,0.09c-0.6,0.04-1.2,0.09-1.8,0.13c-0.16,0.01-0.32,0-0.31-0.26
						C22.42,55.17,23.16,55.19,23.97,55.21z"/>
					<path d="M40.9,51.45c0.07,0.07,0.12,0.12,0.22,0.23c-0.4,0.05-0.73,0.19-1.12,0.1c0.12-0.28,0.38-0.15,0.52-0.29
						c0-0.05-0.01-0.12-0.01-0.2c0.25-0.11,0.49-0.17,0.82,0.02C41.16,51.37,41.05,51.41,40.9,51.45z"/>
					<path d="M23.89,55.89c-0.52,0.06-1.03,0.13-1.55,0.19c-0.05,0.01-0.1-0.06-0.15-0.1c0.04-0.06,0.07-0.15,0.12-0.16
						c0.23-0.05,0.47-0.09,0.7-0.1c0.29-0.01,0.58,0.02,0.88,0.03C23.89,55.79,23.89,55.84,23.89,55.89z"/>
					<path d="M19.4,45.17c0.6,0.02,1.19,0.04,1.78,0.06c0,0.03,0,0.07,0,0.1c-0.51,0.05-1.02,0.11-1.53,0.14
						C19.5,45.48,19.35,45.43,19.4,45.17z"/>
					<path d="M40.83,36.39c-0.09,0.03-0.18,0.09-0.27,0.08c-0.57-0.07-1.16-0.06-1.71-0.27c0.66,0.03,1.32-0.1,1.97,0.08
						C40.83,36.33,40.83,36.36,40.83,36.39z"/>
					<path d="M20.69,41.1c0.69-0.13,1.3-0.11,1.94-0.01c-0.22,0.13-0.23,0.13-0.62,0.15c-0.21,0.01-0.42,0.02-0.63,0.03
						C21.16,41.27,20.93,41.35,20.69,41.1z"/>
					<path d="M37.19,40.73c0.57-0.01,1.15-0.03,1.72-0.03c0.09,0,0.17,0.06,0.31,0.11C38.86,40.98,37.88,40.94,37.19,40.73z"/>
					<path d="M23.86,56.29c-0.39,0.07-0.79,0.14-1.18,0.2c-0.11,0.02-0.22-0.01-0.23-0.15c-0.01-0.14,0.12-0.16,0.22-0.16
						c0.39,0,0.78,0,1.16,0C23.84,56.22,23.85,56.25,23.86,56.29z"/>
					<path d="M40.71,55.31c0.07-0.03,0.13-0.06,0.23-0.1c-0.13,0-0.23,0-0.33-0.01c-0.11-0.01-0.21-0.04-0.32-0.06
						c0-0.03,0-0.06,0.01-0.09c0.23-0.06,0.47-0.12,0.71-0.16c0.13-0.02,0.22,0.05,0.2,0.21c-0.01,0.09,0,0.17,0,0.3
						c-0.16,0-0.32,0.01-0.48,0.01C40.72,55.38,40.72,55.35,40.71,55.31z"/>
					<path d="M39.48,39.76c-0.46,0.1-1.16,0.04-1.49-0.11C38.27,39.47,39.04,39.52,39.48,39.76z"/>
					<path d="M39.15,49.17c0.12-0.04,0.21-0.08,0.31-0.1c0.3-0.06,0.6-0.1,0.89-0.16c0.13-0.02,0.13-0.02,0.26,0.13
						C40.28,49.26,39.62,49.32,39.15,49.17z"/>
					<path d="M20.95,48.6c-0.54,0.25-0.93,0.28-1.37,0.07c0.04-0.03,0.08-0.09,0.12-0.09C20.12,48.5,20.54,48.57,20.95,48.6z"/>
					<path d="M23.52,39.2c-0.48,0.2-1.14,0.17-1.38-0.08C22.64,39.02,23.08,39.15,23.52,39.2z"/>
					<path d="M21.81,41.6c-0.42,0.17-1.09,0.16-1.34-0.01C20.7,41.42,21.07,41.42,21.81,41.6z"/>
					<path d="M40.19,53.21c0.35-0.12,0.71-0.17,1.07-0.18c0.05,0,0.11,0.07,0.18,0.12C41.05,53.31,40.57,53.35,40.19,53.21z"/>
					<path d="M19.55,46.44c0.32-0.1,0.99-0.05,1.32,0.1c-0.42,0.06-0.77,0.08-1.11,0.07C19.7,46.6,19.64,46.52,19.55,46.44z"/>
					<path d="M20.87,47.12c-0.3,0.05-0.59,0.12-0.89,0.16c-0.05,0.01-0.12-0.07-0.18-0.11c0.05-0.06,0.1-0.17,0.16-0.18
						c0.3-0.04,0.61-0.04,0.9,0.05C20.86,47.06,20.86,47.09,20.87,47.12z"/>
					<path d="M21.71,39.71c0.2-0.19,0.8-0.2,1.22-0.02C22.6,39.8,21.91,39.81,21.71,39.71z"/>
					<path d="M24.26,36.31c-0.35,0.23-0.8,0.21-1.01-0.04C23.6,36.19,23.93,36.29,24.26,36.31z"/>
					<path d="M40.57,48.61c-0.36,0.07-0.65,0.14-1,0.07c0.13-0.28,0.38-0.19,0.55-0.26C40.28,48.37,40.43,48.41,40.57,48.61z"/>
					<path d="M37.97,41.43c0.32-0.02,0.65-0.15,0.96,0.07C38.61,41.66,38.29,41.59,37.97,41.43z"/>
					<path d="M22.56,37.53c0.37-0.15,0.54-0.15,0.87,0C23.19,37.69,22.85,37.69,22.56,37.53z"/>
					<path d="M22.44,38c0.31-0.16,0.62-0.15,0.92,0.03C23.05,38.08,22.74,38.14,22.44,38z"/>
					<path d="M39.25,44.98c-0.25,0.22-0.51,0.28-0.84,0.19C38.56,45,38.88,44.92,39.25,44.98z"/>
					<path d="M21.07,42.18c-0.26,0.1-0.5,0.2-0.78,0.08C20.47,42.01,20.83,41.98,21.07,42.18z"/>
					<path d="M20.8,42.68c-0.29,0.18-0.53,0.14-0.86,0.01c0.04-0.03,0.08-0.07,0.13-0.09C20.24,42.54,20.5,42.56,20.8,42.68z"/>
					<path d="M40.55,54.51c0.35-0.23,0.5-0.24,0.73-0.03C41.04,54.63,40.82,54.6,40.55,54.51z"/>
					<path d="M20.43,49.14c-0.15,0.02-0.3,0.05-0.44,0.05c-0.05,0-0.11-0.09-0.13-0.15c-0.01-0.03,0.06-0.12,0.1-0.13
						c0.18-0.04,0.35-0.02,0.48,0.11C20.44,49.06,20.43,49.1,20.43,49.14z"/>
					<path d="M20.41,44.28c-0.24,0.15-0.46,0.13-0.78-0.02c0.13-0.07,0.2-0.12,0.27-0.14C20.11,44.09,20.19,44.12,20.41,44.28z"/>
					<path d="M20.62,43.74c-0.4,0.2-0.56,0.19-0.78-0.03C20.1,43.63,20.33,43.64,20.62,43.74z"/>
					<path d="M20.43,49.55c-0.21,0.03-0.38,0.05-0.55,0.06c-0.03,0-0.07-0.09-0.1-0.14C20.12,49.31,20.21,49.31,20.43,49.55z"/>
					<path d="M40.18,47.67c-0.17,0.26-0.26,0.28-0.6,0.16C39.76,47.68,39.91,47.53,40.18,47.67z"/>
					<path d="M39.31,39.25c-0.2-0.02-0.41-0.05-0.65-0.07C38.9,38.93,39.06,38.94,39.31,39.25z"/>
					<path d="M20.19,43.2c0.22-0.11,0.32-0.11,0.7,0.06C20.64,43.4,20.43,43.38,20.19,43.2z"/>
					<path d="M41.37,53.83c-0.2,0.05-0.39,0.11-0.58-0.02C40.99,53.56,41.15,53.57,41.37,53.83z"/>
					<path d="M22.58,37.11c0.29-0.18,0.52-0.14,0.79,0.01C23.09,37.23,22.86,37.22,22.58,37.11z"/>
					<path d="M38.32,42.33c0.23-0.12,0.42-0.09,0.62,0.06C38.66,42.54,38.55,42.53,38.32,42.33z"/>
					<path d="M38.82,45.62c0.28-0.16,0.28-0.16,0.55-0.05C39.16,45.79,39.06,45.8,38.82,45.62z"/>
					<path d="M41.15,50.8c-0.12,0.03-0.24,0.06-0.37,0.08c-0.04,0-0.11-0.06-0.11-0.08c0-0.05,0.05-0.14,0.08-0.15
						c0.13-0.01,0.26,0.01,0.4,0.02C41.14,50.72,41.15,50.76,41.15,50.8z"/>
					<path d="M39.6,46.71c-0.23,0.15-0.42,0.13-0.64,0.08C39.2,46.59,39.23,46.58,39.6,46.71z"/>
					<path d="M19.61,44.73c0.29-0.1,0.48-0.15,0.72,0.05C20.07,44.85,19.88,44.89,19.61,44.73z"/>
					<path d="M21,50.95c-0.16-0.01-0.61,0.05-0.82,0.03C20.42,50.76,20.84,50.69,21,50.95z"/>
					<path d="M39.53,36.88c0.23-0.19,0.44-0.12,0.71-0.06C39.98,36.95,39.78,36.97,39.53,36.88z"/>
					<path d="M41.07,54.16c-0.29,0.15-0.29,0.15-0.41-0.03C40.91,54.02,40.91,54.02,41.07,54.16z"/>
					<path d="M38.55,42.73c0.15,0,0.3,0,0.52-0.01c-0.26,0.16-0.26,0.16-0.51,0.09C38.56,42.79,38.55,42.76,38.55,42.73z"/>
					<path d="M39.73,47.24c-0.15,0.09-0.28,0.12-0.44,0.04C39.47,47.13,39.47,47.13,39.73,47.24z"/>
					<path d="M35.28,35.25c-0.17,0-0.34,0-0.51,0c0-0.03,0-0.05,0-0.08c0.17,0,0.34-0.01,0.51-0.01
						C35.28,35.19,35.28,35.22,35.28,35.25z"/>
					<path d="M39.33,37.76c0.11,0.05,0.23,0.1,0.39,0.16c-0.21,0.1-0.33,0.06-0.43-0.08C39.3,37.82,39.32,37.79,39.33,37.76z"/>
					<path d="M29.7,56.77c0.07-0.01,0.14-0.02,0.2-0.03c0,0.02,0,0.04,0.01,0.06c-0.07,0.01-0.14,0.01-0.2,0.02
						C29.7,56.8,29.7,56.79,29.7,56.77z"/>
					<path d="M37.58,35.71c-0.11,0.01-0.23,0.03-0.34,0.04C37.35,35.63,37.46,35.65,37.58,35.71
						C37.58,35.72,37.58,35.71,37.58,35.71z"/>
					<path d="M25.57,58.03c-0.58,0.03-1.15,0.05-1.73,0.08c-0.88,0.04-1.76,0.1-2.65,0.12c-0.39,0.01-0.79-0.03-1.18-0.07
						c-0.14-0.01-0.32-0.01-0.41-0.22c0.07-0.03,0.13-0.07,0.18-0.07c1.19,0.22,2.39,0.08,3.59,0.04c0.66-0.02,1.32,0,1.97,0
						c0.08,0,0.15,0.02,0.23,0.03C25.57,57.98,25.57,58,25.57,58.03z"/>
					<path d="M36.89,60.03c-0.07,0.04-0.11,0.09-0.15,0.09c-0.4,0-0.79,0-1.19-0.01c-0.17-0.01-0.18-0.12-0.1-0.27
						c-0.78-0.03-1.55-0.05-2.31-0.08c-0.01-0.04-0.02-0.05-0.02-0.06c0-0.01,0.01-0.03,0.02-0.03c0.08-0.02,0.15-0.04,0.23-0.04
						c0.93-0.02,1.86-0.04,2.79-0.06c0.01,0.03,0.02,0.06,0.03,0.09c-0.08,0.07-0.15,0.13-0.22,0.2
						C36.25,59.98,36.6,59.78,36.89,60.03z"/>
					<path d="M22.99,58.58c-0.18,0.02-0.35,0.06-0.53,0.06c-0.73,0-1.46-0.02-2.19-0.03c-0.02,0-0.04-0.06-0.1-0.14
						c0.97-0.04,1.9-0.05,2.82,0.03C22.98,58.53,22.99,58.56,22.99,58.58z"/>
					<path d="M35.85,58.16c0.57-0.07,1.14-0.19,1.77-0.13c-0.15,0.21-0.15,0.21-0.88,0.23c-0.3,0.01-0.6,0-0.89,0
						C35.85,58.23,35.85,58.19,35.85,58.16z"/>
					<path d="M21.41,60.68c0.04-0.09,0.05-0.17,0.08-0.17c0.46-0.08,0.92-0.06,1.37,0.07C22.4,60.64,21.93,60.82,21.41,60.68z"/>
					<path d="M20.37,59.88c0.45,0.02,0.9,0.05,1.35,0.07c0,0.03,0,0.06,0,0.09c-0.37,0.1-0.75,0.15-1.13,0.15
						C20.42,60.18,20.33,60.09,20.37,59.88z"/>
					<path d="M35.31,58.64c0.44-0.05,0.86-0.26,1.39-0.08c-0.04,0.03-0.07,0.09-0.12,0.1C36.16,58.77,35.73,58.76,35.31,58.64z"/>
					<path d="M21.44,59.27c-0.33,0.11-0.66,0.16-1,0.02C20.77,59.12,21.1,59.2,21.44,59.27z"/>
					<path d="M37.28,60.54c-0.31,0.06-0.56,0.15-0.84,0.01C36.65,60.32,37.05,60.31,37.28,60.54z"/>
					<path d="M20.9,58.95c0.13-0.02,0.27-0.04,0.45-0.06c-0.14,0.24-0.3,0.13-0.43,0.16C20.91,59.02,20.91,58.99,20.9,58.95z"/>
					<path d="M20.6,59.53c0.08-0.01,0.17-0.02,0.25-0.03c0,0.03,0.01,0.06,0.01,0.09c-0.08,0.01-0.17,0.02-0.25,0.03
						C20.6,59.59,20.6,59.56,20.6,59.53z"/>
				</g>
			</g>
			<g>
				<g>
					<path fill="#231F20" d="M5.8,14.41c-0.73-0.87-1.1-2.08-1.1-3.64S5.06,8,5.8,7.13c0.73-0.87,1.79-1.3,3.17-1.3
						c0.49,0,0.96,0.04,1.42,0.12c0.46,0.08,0.79,0.16,1,0.24l0.33,0.11L11.38,7.7c-0.79-0.26-1.54-0.39-2.25-0.39
						c-1.06,0-1.84,0.29-2.33,0.88c-0.49,0.58-0.74,1.45-0.74,2.59s0.25,2,0.74,2.59c0.49,0.58,1.27,0.88,2.33,0.88
						c0.35,0,0.71-0.03,1.11-0.1s0.7-0.13,0.92-0.19l0.33-0.1l0.33,1.39c-0.72,0.32-1.67,0.47-2.85,0.47
						C7.59,15.71,6.53,15.27,5.8,14.41z"/>
					<path fill="#231F20" d="M18.67,5.97l1.37-0.14v9.74l-1.37,0.14V11.3h-4v4.27l-1.37,0.14V5.97l1.37-0.14v3.99h4V5.97z"/>
					<path fill="#231F20" d="M28.53,11.24V5.97l1.37-0.14v5.41c0,0.62-0.07,1.19-0.2,1.7s-0.35,0.99-0.63,1.41
						c-0.29,0.43-0.69,0.76-1.2,0.99c-0.51,0.24-1.12,0.35-1.82,0.35s-1.3-0.12-1.81-0.35c-0.51-0.24-0.91-0.57-1.2-0.99
						c-0.29-0.43-0.5-0.9-0.63-1.41s-0.2-1.08-0.2-1.7V5.97l1.37-0.14v5.41c0,1.99,0.83,2.99,2.48,2.99
						C27.7,14.23,28.53,13.24,28.53,11.24z"/>
					<path fill="#231F20" d="M38.74,15.57l-1.51,0.14l-2.2-3.78h-1.62v3.64l-1.37,0.14V6.08c0.76-0.17,1.7-0.25,2.83-0.25
						c1.17,0,2.02,0.25,2.55,0.75c0.53,0.5,0.8,1.27,0.8,2.29c0,1.5-0.58,2.43-1.75,2.8L38.74,15.57z M36.86,8.88
						c0-0.51-0.14-0.9-0.43-1.17c-0.29-0.27-0.79-0.4-1.52-0.4c-0.37,0-0.87,0.04-1.5,0.11v3.03h1.68
						C36.27,10.45,36.86,9.93,36.86,8.88z"/>
					<path fill="#231F20" d="M40.75,14.41c-0.73-0.87-1.1-2.08-1.1-3.64s0.37-2.77,1.1-3.64s1.79-1.3,3.17-1.3
						c0.49,0,0.96,0.04,1.42,0.12c0.46,0.08,0.79,0.16,1,0.24l0.33,0.11L46.34,7.7c-0.79-0.26-1.54-0.39-2.25-0.39
						c-1.06,0-1.84,0.29-2.33,0.88c-0.49,0.58-0.74,1.45-0.74,2.59s0.25,2,0.74,2.59c0.49,0.58,1.27,0.88,2.33,0.88
						c0.34,0,0.71-0.03,1.11-0.1c0.39-0.06,0.7-0.13,0.92-0.19l0.33-0.1l0.33,1.39c-0.72,0.32-1.67,0.47-2.85,0.47
						C42.54,15.71,41.48,15.27,40.75,14.41z"/>
					<path fill="#231F20" d="M53.63,5.97L55,5.83v9.74l-1.37,0.14V11.3h-4v4.27l-1.37,0.14V5.97l1.37-0.14v3.99h4V5.97z"/>
					<path fill="#231F20" d="M24.35,18.62l0.28,1.47h-3.07v8.12l-1.37,0.14v-8.26h-3.07l0.28-1.47H24.35z"/>
					<path fill="#231F20" d="M25.41,28.35l-1.43-0.14l4.27-9.74h0.21l4.39,9.74l-1.32,0.14l-1-2.21h-4.15L25.41,28.35z M28.4,21.46
						l-1.5,3.46h3.07L28.4,21.46z"/>
					<path fill="#231F20" d="M42.53,28.22l-1.67,0.14l-2.69-3.73l-2.77,3.73l-1.58-0.14l3.51-4.75l-3.5-4.85l1.68-0.14l2.72,3.77
						l2.79-3.77l1.62,0.14l-3.56,4.79L42.53,28.22z"/>
				</g>
			</g>
			<g>
				<g>
					<path fill="#231F20" d="M19.14,69.26c0,0.6-0.15,1.04-0.46,1.33c-0.31,0.29-0.8,0.44-1.47,0.44h-0.88v2.13l-0.8,0.08v-5.62
						c0.44-0.1,0.99-0.15,1.65-0.15c0.68,0,1.18,0.15,1.49,0.44C18.99,68.21,19.14,68.66,19.14,69.26z M18.1,69.94
						c0.17-0.16,0.25-0.38,0.25-0.68c0-0.3-0.08-0.52-0.25-0.68c-0.17-0.16-0.46-0.24-0.89-0.24c-0.22,0-0.51,0.02-0.88,0.07v1.77
						h0.88C17.63,70.18,17.93,70.1,18.1,69.94z"/>
					<path fill="#231F20" d="M20.04,73.25l-0.84-0.08l2.49-5.68h0.12l2.56,5.68l-0.77,0.08l-0.58-1.29H20.6L20.04,73.25z
						 M21.79,69.22l-0.88,2.02h1.79L21.79,69.22z"/>
					<path fill="#231F20" d="M26.81,70.64v2.52l-0.8,0.08v-2.6l-1.89-3.08l0.89-0.08l1.4,2.44l1.44-2.44l0.85,0.08L26.81,70.64z"/>
					<path fill="#231F20" d="M33.28,67.56v5.6l-0.77,0.08V68.6l-1.09,0.28l-0.12-0.84l1.9-0.48H33.28z"/>
					<path fill="#231F20" d="M35.14,72.41c-0.37-0.56-0.55-1.24-0.55-2.05s0.18-1.49,0.55-2.04c0.37-0.55,0.86-0.83,1.48-0.83
						c0.62,0,1.11,0.28,1.48,0.83s0.55,1.24,0.55,2.04c0,0.81-0.18,1.5-0.55,2.05c-0.37,0.56-0.86,0.84-1.48,0.84
						C36,73.25,35.51,72.96,35.14,72.41z M37.88,70.36c0-0.59-0.11-1.08-0.33-1.47s-0.53-0.58-0.93-0.58s-0.71,0.19-0.93,0.58
						c-0.22,0.38-0.33,0.87-0.33,1.47c0,0.6,0.11,1.09,0.33,1.48c0.22,0.38,0.53,0.58,0.93,0.58s0.71-0.19,0.93-0.58
						C37.77,71.45,37.88,70.96,37.88,70.36z"/>
					<path fill="#231F20" d="M41.67,68.73c0,0.42-0.1,0.77-0.29,1.06c-0.19,0.29-0.46,0.44-0.79,0.44c-0.33,0-0.59-0.15-0.79-0.44
						c-0.2-0.29-0.3-0.65-0.3-1.06c0-0.41,0.1-0.76,0.3-1.05s0.46-0.44,0.79-0.44c0.32,0,0.58,0.15,0.78,0.44
						C41.57,67.97,41.67,68.32,41.67,68.73z M41.23,68.73c0-0.29-0.06-0.53-0.17-0.73c-0.11-0.2-0.27-0.3-0.47-0.3
						c-0.21,0-0.37,0.1-0.48,0.3c-0.11,0.2-0.17,0.44-0.17,0.73c0,0.29,0.06,0.54,0.17,0.73c0.11,0.2,0.27,0.3,0.48,0.3
						c0.2,0,0.36-0.1,0.47-0.3S41.23,69.03,41.23,68.73z M43.98,67.24l0.36,0.31l-3.92,5.7l-0.37-0.31L43.98,67.24z M44.75,71.74
						c0,0.42-0.1,0.77-0.29,1.06c-0.19,0.29-0.46,0.44-0.79,0.44c-0.33,0-0.59-0.15-0.79-0.44c-0.2-0.29-0.3-0.65-0.3-1.06
						c0-0.41,0.1-0.76,0.3-1.05c0.2-0.29,0.46-0.44,0.79-0.44c0.32,0,0.58,0.15,0.78,0.44C44.65,70.98,44.75,71.33,44.75,71.74z
						 M44.31,71.74c0-0.29-0.06-0.53-0.17-0.73s-0.27-0.3-0.47-0.3c-0.21,0-0.37,0.1-0.48,0.3s-0.17,0.44-0.17,0.73
						c0,0.29,0.06,0.54,0.17,0.73s0.27,0.3,0.48,0.3c0.2,0,0.36-0.1,0.47-0.3S44.31,72.04,44.31,71.74z"/>
					<path fill="#231F20" d="M25.83,79.79c-0.45-0.55-0.67-1.24-0.67-2.05c0-0.82,0.22-1.5,0.67-2.05c0.45-0.55,1.04-0.83,1.76-0.83
						c0.72,0,1.31,0.28,1.76,0.83c0.45,0.55,0.67,1.24,0.67,2.05c0,0.82-0.22,1.5-0.67,2.05c-0.45,0.55-1.03,0.83-1.76,0.83
						C26.87,80.62,26.28,80.35,25.83,79.79z M28.79,79.2c0.29-0.37,0.44-0.86,0.44-1.46s-0.15-1.09-0.44-1.46
						c-0.29-0.37-0.69-0.56-1.19-0.56c-0.51,0-0.91,0.19-1.2,0.56c-0.29,0.37-0.44,0.86-0.44,1.46s0.15,1.09,0.44,1.46
						c0.29,0.37,0.69,0.56,1.2,0.56C28.1,79.76,28.5,79.58,28.79,79.2z"/>
					<path fill="#231F20" d="M35.17,80.54l-0.88,0.08L33,78.42h-0.94v2.13l-0.8,0.08v-5.62c0.44-0.1,0.99-0.15,1.65-0.15
						c0.68,0,1.18,0.15,1.49,0.44c0.31,0.29,0.47,0.74,0.47,1.34c0,0.87-0.34,1.42-1.02,1.63L35.17,80.54z M34.07,76.64
						c0-0.3-0.08-0.52-0.25-0.68c-0.17-0.16-0.46-0.24-0.89-0.24c-0.22,0-0.51,0.02-0.88,0.07v1.77h0.98
						C33.73,77.55,34.07,77.25,34.07,76.64z"/>
					<path fill="#231F20" d="M21.17,87.55l0.28-0.8c0.32,0.21,0.75,0.34,1.31,0.38v-1.57c-0.23-0.08-0.42-0.15-0.57-0.22
						c-0.15-0.07-0.31-0.17-0.47-0.29c-0.16-0.12-0.29-0.27-0.37-0.45c-0.08-0.18-0.13-0.38-0.13-0.61c0-0.49,0.14-0.89,0.42-1.18
						c0.28-0.3,0.65-0.48,1.12-0.54v-0.72l0.6-0.08v0.79c0.2,0.02,0.39,0.05,0.59,0.1c0.2,0.05,0.34,0.1,0.44,0.14l0.15,0.07
						l-0.25,0.8c-0.26-0.13-0.57-0.21-0.93-0.25v1.64c0.23,0.08,0.42,0.16,0.57,0.23s0.31,0.17,0.48,0.29
						c0.16,0.12,0.29,0.26,0.37,0.43c0.08,0.17,0.13,0.36,0.13,0.58c0,1.03-0.51,1.6-1.54,1.7v0.71l-0.6,0.08v-0.8
						c-0.25-0.02-0.5-0.07-0.77-0.14s-0.47-0.14-0.6-0.2L21.17,87.55z M22.02,83.86c0,0.15,0.06,0.28,0.19,0.39
						c0.12,0.11,0.31,0.2,0.55,0.3v-1.42C22.27,83.2,22.02,83.44,22.02,83.86z M24.1,86.4c0-0.15-0.06-0.27-0.19-0.37
						s-0.31-0.19-0.55-0.28v1.36C23.85,87.04,24.1,86.8,24.1,86.4z"/>
					<path fill="#231F20" d="M28.8,87.08l-0.07,0.84H25.5v-0.08c0.96-1.18,1.59-1.96,1.87-2.35c0.23-0.32,0.4-0.6,0.49-0.82
						c0.1-0.22,0.15-0.45,0.15-0.67c0-0.29-0.08-0.51-0.25-0.68c-0.17-0.17-0.38-0.25-0.66-0.25c-0.2,0-0.38,0.03-0.56,0.1
						c-0.18,0.07-0.3,0.14-0.38,0.21l-0.12,0.11l-0.29-0.73c0.04-0.04,0.1-0.08,0.17-0.14c0.08-0.06,0.24-0.13,0.48-0.23
						c0.25-0.1,0.5-0.15,0.77-0.15c0.47,0,0.85,0.14,1.16,0.43c0.3,0.28,0.46,0.68,0.46,1.19c0,0.56-0.21,1.13-0.62,1.73l-1.11,1.5
						H28.8z"/>
					<path fill="#231F20" d="M30.27,87.16c-0.37-0.56-0.55-1.24-0.55-2.05s0.18-1.49,0.55-2.04s0.86-0.83,1.48-0.83
						s1.11,0.28,1.48,0.83c0.37,0.55,0.55,1.24,0.55,2.04c0,0.81-0.18,1.5-0.55,2.05C32.85,87.72,32.36,88,31.74,88
						C31.12,88,30.63,87.72,30.27,87.16z M33,85.11c0-0.59-0.11-1.08-0.33-1.47c-0.22-0.38-0.53-0.58-0.93-0.58
						s-0.71,0.19-0.93,0.58c-0.22,0.38-0.33,0.87-0.33,1.47c0,0.6,0.11,1.09,0.33,1.48c0.22,0.38,0.53,0.58,0.93,0.58
						s0.71-0.19,0.93-0.58C32.89,86.2,33,85.71,33,85.11z"/>
					<path fill="#231F20" d="M35.24,87.16c-0.37-0.56-0.55-1.24-0.55-2.05s0.18-1.49,0.55-2.04c0.37-0.55,0.86-0.83,1.48-0.83
						c0.62,0,1.11,0.28,1.48,0.83s0.55,1.24,0.55,2.04c0,0.81-0.18,1.5-0.55,2.05C37.83,87.72,37.33,88,36.71,88
						C36.1,88,35.61,87.72,35.24,87.16z M37.98,85.11c0-0.59-0.11-1.08-0.33-1.47s-0.53-0.58-0.93-0.58s-0.71,0.19-0.93,0.58
						c-0.22,0.38-0.33,0.87-0.33,1.47c0,0.6,0.11,1.09,0.33,1.48c0.22,0.38,0.53,0.58,0.93,0.58s0.71-0.19,0.93-0.58
						C37.87,86.2,37.98,85.71,37.98,85.11z"/>
				</g>
			</g>
		</g>
	</g>
	<path d="M0.02,0v1.6v96.8v1.6h60v-1.6V1.6V0H0.02z M59.02,98.4h-58V1.6h58V98.4z"/>
	<g>
	</g>
	<g>
	</g>
	<g>
	</g>
	<g>
	</g>
	<g>
	</g>
	<g>
	</g>
	<g>
	</g>
	<g>
	</g>
	<g>
	</g>
	<g>
	</g>
	<g>
	</g>
	<g>
	</g>
	<g>
	</g>
	<g>
	</g>
	<g>
	</g>
	<g>
	</g>
	<g>
	</g>
</g>
</svg>
