<?xml version="1.0" encoding="utf-8"?>
<!-- Generator: Adobe Illustrator 26.2.1, SVG Export Plug-In . SVG Version: 6.00 Build 0)  -->
<svg version="1.1" xmlns="http://www.w3.org/2000/svg" xmlns:xlink="http://www.w3.org/1999/xlink" x="0px" y="0px"
	 viewBox="0 0 60 100" enable-background="new 0 0 60 100" xml:space="preserve">
<g id="BG">
	<rect id="BG_00000082354266892434819460000014407544633745974707_" x="0.02" y="0" fill="#F0EDDA" width="60" height="100"/>
	<rect id="BG_00000037693340041972082810000009059657678697518014_" x="0.02" fill="#F0EDDA" width="60" height="100"/>
</g>
<g id="THINGS">
	<path d="M0.02,0v1.6v96.8v1.6h60v-1.6V1.6V0H0.02z M59.02,98.4h-58V1.6h58V98.4z"/>
	<g>
		<g id="_x32_7_00000120541817421290274890000002122465034264543390_">
			<g>
				<rect x="0.51" y="0.5" fill="#FFE62F" width="59.02" height="27.6"/>
				<path fill="#222317" d="M59.02,1v26.6H1.01V1H59.02 M60.02,0H0.01v28.6h60.01V0L60.02,0z"/>
			</g>
			<g>
				<rect x="0.51" y="0.5" fill="#FFE62F" width="59.02" height="27.6"/>
				<path fill="#222317" d="M59.02,1v26.6H1.01V1H59.02 M60.02,0H0.01v28.6h60.01V0L60.02,0z"/>
			</g>
			<g>
				<rect x="0.51" y="0.5" fill="#FFE62F" width="59.02" height="27.6"/>
				<path fill="#222317" d="M59.02,1v26.6H1.01V1H59.02 M60.02,0H0.01v28.6h60.01V0L60.02,0z"/>
			</g>
			<g>
				<g>
					<path fill="#231F20" d="M17.82,38.93l-0.84-0.08l2.49-5.68h0.12l2.56,5.68l-0.77,0.08l-0.58-1.29h-2.42L17.82,38.93z
						 M19.56,34.9l-0.88,2.02h1.79L19.56,34.9z"/>
					<path fill="#231F20" d="M27.33,38.93l-3.5-3.85v3.77l-0.8,0.08v-5.76h0.05l3.52,3.84v-3.76l0.8-0.08v5.76H27.33z"/>
					<path fill="#231F20" d="M29.88,34.54c-0.29,0.34-0.43,0.84-0.43,1.51c0,0.67,0.15,1.17,0.44,1.51
						c0.29,0.34,0.75,0.51,1.37,0.51c0.23,0,0.49-0.03,0.77-0.1v-1.23h-1.12v-0.8h1.93v2.7c-0.43,0.18-0.99,0.28-1.68,0.28
						c-0.81,0-1.43-0.25-1.86-0.76s-0.65-1.21-0.65-2.12c0-0.91,0.21-1.62,0.64-2.12c0.43-0.51,1.04-0.76,1.85-0.76
						c0.29,0,0.56,0.02,0.83,0.07s0.47,0.09,0.59,0.14l0.19,0.06l-0.19,0.81c-0.47-0.15-0.91-0.23-1.33-0.23
						C30.62,34.03,30.17,34.2,29.88,34.54z"/>
					<path fill="#231F20" d="M37.77,37.99l-0.16,0.86h-3.44v-5.6h3.44l0.16,0.86h-2.8v1.42h2.29v0.86h-2.29v1.6H37.77z"/>
					<path fill="#231F20" d="M42.89,38.85l-0.88,0.08l-1.29-2.21h-0.94v2.13l-0.8,0.08v-5.62c0.44-0.1,0.99-0.15,1.65-0.15
						c0.68,0,1.18,0.15,1.49,0.44c0.31,0.29,0.46,0.74,0.46,1.34c0,0.87-0.34,1.42-1.02,1.63L42.89,38.85z M41.79,34.95
						c0-0.3-0.08-0.52-0.25-0.68c-0.17-0.16-0.46-0.24-0.89-0.24c-0.22,0-0.51,0.02-0.88,0.06v1.77h0.98
						C41.45,35.86,41.79,35.56,41.79,34.95z"/>
					<path fill="#231F20" d="M15.01,46.31l-0.84-0.08l2.49-5.68h0.12l2.56,5.68l-0.77,0.08L18,45.02h-2.42L15.01,46.31z
						 M16.76,42.28l-0.88,2.02h1.79L16.76,42.28z"/>
					<path fill="#231F20" d="M19.02,40.63l0.84-0.08l1.82,4.03l1.83-4.03l0.83,0.08l-2.63,5.68h-0.07L19.02,40.63z"/>
					<path fill="#231F20" d="M28.85,45.37l-0.16,0.86h-3.44v-5.6h3.44l0.16,0.86h-2.8v1.42h2.29v0.86h-2.29v1.6H28.85z"/>
					<path fill="#231F20" d="M34.36,46.31l-3.5-3.85v3.77l-0.8,0.08v-5.76h0.05l3.52,3.84v-3.76l0.8-0.08v5.76H34.36z"/>
					<path fill="#231F20" d="M39.53,43.7v-3.08l0.8-0.08v3.16c0,0.36-0.04,0.69-0.12,0.99c-0.08,0.3-0.2,0.58-0.37,0.82
						c-0.17,0.25-0.4,0.44-0.7,0.58c-0.3,0.14-0.65,0.21-1.06,0.21s-0.76-0.07-1.06-0.21c-0.3-0.14-0.53-0.33-0.7-0.58
						c-0.17-0.25-0.29-0.52-0.37-0.82c-0.08-0.3-0.12-0.63-0.12-0.99v-3.08l0.8-0.08v3.16c0,1.16,0.48,1.75,1.45,1.75
						C39.05,45.45,39.53,44.87,39.53,43.7z"/>
					<path fill="#231F20" d="M45.33,45.37l-0.16,0.86h-3.44v-5.6h3.44l0.16,0.86h-2.8v1.42h2.29v0.86h-2.29v1.6H45.33z"/>
				</g>
			</g>
			<g>
				<g>
					<path fill="#231F20" d="M15.53,89.64c0,0.38-0.11,0.66-0.33,0.85c-0.22,0.19-0.56,0.28-1.03,0.28h-0.61v1.35l-0.56,0.05V88.6
						c0.31-0.06,0.7-0.09,1.16-0.09c0.48,0,0.83,0.09,1.04,0.28C15.42,88.97,15.53,89.26,15.53,89.64z M14.8,90.07
						c0.12-0.1,0.18-0.25,0.18-0.43c0-0.19-0.06-0.33-0.18-0.44c-0.12-0.1-0.32-0.15-0.62-0.15c-0.15,0-0.36,0.01-0.61,0.04v1.12
						h0.61C14.47,90.22,14.68,90.17,14.8,90.07z"/>
					<path fill="#231F20" d="M19.03,92.12l-0.62,0.05l-0.9-1.4h-0.66v1.35l-0.56,0.05V88.6c0.31-0.06,0.7-0.09,1.16-0.09
						c0.48,0,0.83,0.09,1.04,0.28c0.22,0.19,0.33,0.47,0.33,0.85c0,0.55-0.24,0.9-0.71,1.04L19.03,92.12z M18.26,89.64
						c0-0.19-0.06-0.33-0.18-0.44c-0.12-0.1-0.32-0.15-0.62-0.15c-0.15,0-0.36,0.01-0.61,0.04v1.12h0.69
						C18.01,90.22,18.26,90.03,18.26,89.64z"/>
					<path fill="#231F20" d="M19.76,88.56l0.56-0.05v3.62l-0.56,0.05V88.56z"/>
					<path fill="#231F20" d="M21.7,91.69c-0.3-0.32-0.45-0.77-0.45-1.35s0.15-1.03,0.45-1.35s0.73-0.48,1.3-0.48
						c0.2,0,0.39,0.02,0.58,0.04s0.32,0.06,0.41,0.09l0.13,0.04l-0.13,0.52c-0.32-0.1-0.63-0.14-0.92-0.14
						c-0.43,0-0.75,0.11-0.95,0.32c-0.2,0.22-0.3,0.54-0.3,0.96s0.1,0.74,0.3,0.96c0.2,0.22,0.52,0.32,0.95,0.32
						c0.14,0,0.29-0.01,0.45-0.04s0.29-0.05,0.37-0.07l0.13-0.04L24.15,92c-0.29,0.12-0.68,0.18-1.16,0.18
						C22.43,92.17,21.99,92.01,21.7,91.69z"/>
					<path fill="#231F20" d="M27.43,91.57l-0.11,0.55h-2.41v-3.56h2.41l0.11,0.55h-1.96v0.9h1.61v0.55h-1.61v1.02H27.43z"/>
					<path fill="#231F20" d="M30.25,91.79l0.28-0.73c0.32,0.19,0.75,0.31,1.31,0.35v-1.43c-0.23-0.07-0.42-0.14-0.57-0.2
						s-0.31-0.15-0.47-0.27c-0.16-0.11-0.29-0.25-0.37-0.4c-0.08-0.16-0.13-0.35-0.13-0.56c0-0.45,0.14-0.81,0.42-1.08
						c0.28-0.27,0.65-0.43,1.12-0.49v-0.66l0.6-0.07v0.72c0.2,0.01,0.39,0.04,0.59,0.09c0.2,0.05,0.34,0.09,0.44,0.13l0.15,0.06
						l-0.25,0.73c-0.26-0.12-0.57-0.19-0.93-0.23v1.49c0.23,0.07,0.42,0.14,0.57,0.21c0.15,0.07,0.31,0.15,0.48,0.26
						s0.29,0.24,0.37,0.39c0.08,0.15,0.13,0.33,0.13,0.53c0,0.94-0.51,1.45-1.54,1.54v0.65l-0.6,0.07v-0.72
						c-0.25-0.02-0.5-0.06-0.77-0.12c-0.27-0.06-0.47-0.12-0.6-0.18L30.25,91.79z M31.1,88.43c0,0.14,0.06,0.25,0.19,0.35
						c0.13,0.1,0.31,0.19,0.55,0.27v-1.29C31.35,87.83,31.1,88.05,31.1,88.43z M33.18,90.74c0-0.13-0.06-0.24-0.19-0.33
						c-0.13-0.09-0.31-0.17-0.55-0.25v1.24C32.94,91.32,33.18,91.11,33.18,90.74z"/>
					<path fill="#231F20" d="M37.89,91.36l-0.07,0.76h-3.23v-0.07c0.96-1.07,1.59-1.78,1.87-2.13c0.23-0.29,0.4-0.54,0.49-0.75
						c0.1-0.2,0.15-0.4,0.15-0.61c0-0.26-0.08-0.47-0.25-0.62c-0.16-0.15-0.38-0.23-0.66-0.23c-0.2,0-0.38,0.03-0.56,0.09
						c-0.18,0.06-0.3,0.12-0.38,0.19l-0.12,0.1l-0.3-0.66c0.04-0.04,0.1-0.08,0.17-0.13c0.08-0.05,0.24-0.12,0.48-0.21
						c0.25-0.09,0.5-0.13,0.77-0.13c0.47,0,0.85,0.13,1.16,0.39c0.3,0.26,0.46,0.62,0.46,1.08c0,0.51-0.21,1.03-0.62,1.57
						l-1.11,1.37H37.89z"/>
					<path fill="#231F20" d="M38.84,89.61c0-0.75,0.16-1.38,0.49-1.89c0.32-0.51,0.76-0.76,1.3-0.76c0.41,0,0.83,0.08,1.25,0.24
						l-0.19,0.69c-0.32-0.11-0.62-0.17-0.89-0.17c-0.29,0-0.52,0.09-0.7,0.27c-0.18,0.18-0.3,0.41-0.37,0.68
						c-0.07,0.27-0.1,0.58-0.1,0.94c0.3-0.3,0.67-0.45,1.11-0.45c0.48,0,0.85,0.13,1.13,0.39c0.28,0.26,0.41,0.63,0.41,1.1
						c0,0.44-0.15,0.81-0.45,1.1c-0.3,0.29-0.71,0.44-1.24,0.44c-0.56,0-0.99-0.22-1.29-0.67C38.99,91.08,38.84,90.44,38.84,89.61z
						 M41.5,90.65c0-0.28-0.08-0.49-0.24-0.64s-0.37-0.23-0.63-0.23c-0.22,0-0.42,0.05-0.6,0.14c-0.18,0.1-0.31,0.22-0.38,0.37
						c0.05,0.39,0.15,0.68,0.31,0.86c0.16,0.19,0.38,0.28,0.67,0.28c0.27,0,0.48-0.07,0.64-0.2C41.42,91.1,41.5,90.9,41.5,90.65z"/>
					<path fill="#231F20" d="M43.71,91.43c-0.37-0.51-0.55-1.13-0.55-1.86c0-0.73,0.18-1.35,0.55-1.86c0.37-0.5,0.86-0.76,1.48-0.76
						c0.62,0,1.11,0.25,1.48,0.76c0.37,0.51,0.55,1.12,0.55,1.86c0,0.74-0.18,1.36-0.55,1.87s-0.86,0.76-1.48,0.76
						C44.57,92.2,44.08,91.94,43.71,91.43z M46.45,89.57c0-0.54-0.11-0.98-0.33-1.33s-0.53-0.52-0.93-0.52s-0.71,0.17-0.93,0.52
						c-0.22,0.35-0.33,0.79-0.33,1.33c0,0.55,0.11,0.99,0.33,1.34c0.22,0.35,0.53,0.52,0.93,0.52s0.71-0.17,0.93-0.52
						S46.45,90.12,46.45,89.57z"/>
				</g>
			</g>
		</g>
	</g>
	<path d="M0.02,0v1.6v96.8v1.6h60v-1.6V1.6V0H0.02z M59.02,98.4h-58V1.6h58V98.4z"/>
	<g>
	</g>
	<g>
	</g>
	<g>
	</g>
	<g>
	</g>
	<g>
	</g>
	<g>
	</g>
	<g>
	</g>
	<g>
	</g>
	<g>
	</g>
	<g>
	</g>
	<g>
	</g>
	<g>
	</g>
	<g>
	</g>
	<g>
	</g>
	<g>
	</g>
	<g>
	</g>
	<g>
	</g>
</g>
</svg>
