<?xml version="1.0" encoding="utf-8"?>
<!-- Generator: Adobe Illustrator 26.2.1, SVG Export Plug-In . SVG Version: 6.00 Build 0)  -->
<svg version="1.1" xmlns="http://www.w3.org/2000/svg" xmlns:xlink="http://www.w3.org/1999/xlink" x="0px" y="0px"
	 viewBox="0 0 60 100" enable-background="new 0 0 60 100" xml:space="preserve">
<g id="BG">
	<rect id="BG_00000082354266892434819460000014407544633745974707_" x="0.02" y="0" fill="#F0EDDA" width="60" height="100"/>
	<rect id="BG_00000037693340041972082810000009059657678697518014_" x="0.02" fill="#F0EDDA" width="60" height="100"/>
</g>
<g id="THINGS">
	<path d="M0.02,0v1.6v96.8v1.6h60v-1.6V1.6V0H0.02z M59.02,98.4h-58V1.6h58V98.4z"/>
	<g>
		<g id="_x31_5_00000105395966730806548460000008346754854919867552_">
			<g>
				<rect x="0.51" y="0.5" fill="#B23068" width="59.02" height="27.6"/>
				<path fill="#222317" d="M59.02,1v26.6H1.01V1H59.02 M60.02,0H0.01v28.6h60.01V0L60.02,0z"/>
			</g>
			<g>
				<rect x="0.51" y="0.5" fill="#B23068" width="59.02" height="27.6"/>
				<path fill="#222317" d="M59.02,1v26.6H1.01V1H59.02 M60.02,0H0.01v28.6h60.01V0L60.02,0z"/>
			</g>
			<g>
				<rect x="0.51" y="0.5" fill="#B23068" width="59.02" height="27.6"/>
				<path fill="#222317" d="M59.02,1v26.6H1.01V1H59.02 M60.02,0H0.01v28.6h60.01V0L60.02,0z"/>
			</g>
			<g>
				<g>
					<path fill="#231F20" d="M19.83,33.11c0.63,0,1.11,0.13,1.43,0.38c0.32,0.25,0.48,0.62,0.48,1.09c0,0.61-0.2,1.05-0.6,1.31
						c0.53,0.26,0.79,0.72,0.79,1.39c0,0.55-0.19,0.95-0.58,1.21c-0.39,0.26-0.89,0.39-1.51,0.39c-0.29,0-0.58-0.01-0.85-0.04
						c-0.27-0.02-0.47-0.05-0.59-0.08l-0.19-0.03v-5.47C18.64,33.16,19.18,33.11,19.83,33.11z M19,35.55h1
						c0.34,0,0.58-0.06,0.73-0.19c0.15-0.13,0.23-0.33,0.23-0.61c0-0.25-0.09-0.45-0.26-0.58c-0.17-0.13-0.46-0.19-0.86-0.19
						c-0.26,0-0.53,0.02-0.83,0.06V35.55z M21.14,37.16c0-0.58-0.39-0.87-1.17-0.87H19v1.66c0.23,0.04,0.51,0.06,0.86,0.06
						c0.46,0,0.78-0.07,0.98-0.21C21.04,37.67,21.14,37.45,21.14,37.16z"/>
					<path fill="#231F20" d="M26.76,37.93l-0.16,0.86h-3.44v-5.6l0.8-0.08v4.82H26.76z"/>
					<path fill="#231F20" d="M31.29,37.93l-0.16,0.86h-3.44v-5.6h3.44l0.16,0.86h-2.8v1.42h2.29v0.86h-2.29v1.6H31.29z"/>
					<path fill="#231F20" d="M32.89,38.88l-0.84-0.08l2.49-5.68h0.12l2.56,5.68l-0.77,0.08l-0.58-1.29h-2.42L32.89,38.88z
						 M34.64,34.85l-0.88,2.02h1.79L34.64,34.85z"/>
					<path fill="#231F20" d="M42.23,38.79l-0.89,0.08l-2.41-2.82v2.74l-0.8,0.08V33.2l0.8-0.08v2.88l2.32-2.88l0.86,0.08L39.86,36
						L42.23,38.79z"/>
					<path fill="#231F20" d="M15.86,45.81l0.28-0.8c0.04,0.03,0.11,0.06,0.19,0.11c0.08,0.04,0.27,0.1,0.55,0.17
						c0.28,0.07,0.57,0.11,0.87,0.11c0.32,0,0.57-0.06,0.76-0.19c0.19-0.13,0.28-0.31,0.28-0.55c0-0.15-0.07-0.27-0.21-0.39
						s-0.32-0.2-0.53-0.27s-0.44-0.15-0.69-0.24c-0.25-0.09-0.48-0.18-0.7-0.29c-0.21-0.11-0.39-0.27-0.53-0.48
						s-0.21-0.46-0.21-0.75c0-0.55,0.17-0.98,0.51-1.29s0.79-0.46,1.35-0.46c0.24,0,0.47,0.03,0.72,0.08
						c0.24,0.05,0.42,0.11,0.55,0.16l0.18,0.08l-0.25,0.8c-0.34-0.18-0.75-0.27-1.21-0.27c-0.32,0-0.58,0.06-0.77,0.19
						c-0.19,0.12-0.29,0.31-0.29,0.57c0,0.15,0.07,0.28,0.22,0.4s0.32,0.21,0.53,0.29c0.21,0.08,0.44,0.16,0.69,0.25
						s0.48,0.19,0.69,0.3c0.21,0.11,0.39,0.26,0.53,0.47c0.14,0.2,0.21,0.44,0.21,0.72c0,1.14-0.63,1.71-1.89,1.71
						c-0.28,0-0.57-0.04-0.87-0.11c-0.31-0.08-0.54-0.15-0.71-0.23L15.86,45.81z"/>
					<path fill="#231F20" d="M24.42,40.57l0.16,0.86h-1.79v4.74l-0.8,0.08v-4.82H20.2l0.16-0.86H24.42z"/>
					<path fill="#231F20" d="M29.48,46.17l-0.88,0.08l-1.29-2.21h-0.94v2.13l-0.8,0.08v-5.62c0.44-0.1,0.99-0.15,1.65-0.15
						c0.68,0,1.18,0.15,1.49,0.44c0.31,0.29,0.46,0.74,0.46,1.34c0,0.87-0.34,1.42-1.02,1.63L29.48,46.17z M28.38,42.27
						c0-0.3-0.08-0.52-0.25-0.68c-0.17-0.16-0.46-0.24-0.89-0.24c-0.22,0-0.51,0.02-0.88,0.06v1.77h0.98
						C28.03,43.19,28.38,42.88,28.38,42.27z"/>
					<path fill="#231F20" d="M34.05,45.31l-0.16,0.86h-3.44v-5.6h3.44l0.16,0.86h-2.8v1.42h2.29v0.86h-2.29v1.6H34.05z"/>
					<path fill="#231F20" d="M38.85,45.31l-0.16,0.86h-3.44v-5.6h3.44l0.16,0.86h-2.8v1.42h2.29v0.86h-2.29v1.6H38.85z"/>
					<path fill="#231F20" d="M43.98,40.57l0.16,0.86h-1.79v4.74l-0.8,0.08v-4.82h-1.79l0.16-0.86H43.98z"/>
				</g>
			</g>
			<g>
				<g>
					<path fill="#231F20" d="M15.97,89.64c0,0.38-0.11,0.66-0.33,0.85c-0.22,0.19-0.56,0.28-1.03,0.28H14v1.35l-0.56,0.05V88.6
						c0.31-0.06,0.7-0.09,1.16-0.09c0.48,0,0.83,0.09,1.04,0.28C15.86,88.97,15.97,89.26,15.97,89.64z M15.23,90.07
						c0.12-0.1,0.18-0.25,0.18-0.43c0-0.19-0.06-0.33-0.18-0.44c-0.12-0.1-0.32-0.15-0.62-0.15c-0.15,0-0.36,0.01-0.61,0.04v1.12
						h0.61C14.91,90.22,15.12,90.17,15.23,90.07z"/>
					<path fill="#231F20" d="M19.46,92.12l-0.62,0.05l-0.9-1.4h-0.66v1.35l-0.56,0.05V88.6c0.31-0.06,0.7-0.09,1.16-0.09
						c0.48,0,0.83,0.09,1.04,0.28c0.22,0.19,0.33,0.47,0.33,0.85c0,0.55-0.24,0.9-0.71,1.04L19.46,92.12z M18.69,89.64
						c0-0.19-0.06-0.33-0.18-0.44c-0.12-0.1-0.32-0.15-0.62-0.15c-0.15,0-0.36,0.01-0.61,0.04v1.12h0.69
						C18.45,90.22,18.69,90.03,18.69,89.64z"/>
					<path fill="#231F20" d="M20.19,88.56l0.56-0.05v3.62l-0.56,0.05V88.56z"/>
					<path fill="#231F20" d="M22.13,91.69c-0.3-0.32-0.45-0.77-0.45-1.35s0.15-1.03,0.45-1.35s0.73-0.48,1.3-0.48
						c0.2,0,0.39,0.02,0.58,0.04s0.32,0.06,0.41,0.09l0.13,0.04l-0.13,0.52c-0.32-0.1-0.63-0.14-0.92-0.14
						c-0.43,0-0.75,0.11-0.95,0.32c-0.2,0.22-0.3,0.54-0.3,0.96s0.1,0.74,0.3,0.96c0.2,0.22,0.52,0.32,0.95,0.32
						c0.14,0,0.29-0.01,0.45-0.04s0.29-0.05,0.37-0.07l0.13-0.04L24.59,92c-0.29,0.12-0.68,0.18-1.16,0.18
						C22.86,92.17,22.43,92.01,22.13,91.69z"/>
					<path fill="#231F20" d="M27.86,91.57l-0.11,0.55h-2.41v-3.56h2.41l0.11,0.55H25.9v0.9h1.61v0.55H25.9v1.02H27.86z"/>
					<path fill="#231F20" d="M30.69,91.79l0.28-0.73c0.32,0.19,0.75,0.31,1.3,0.35v-1.43c-0.23-0.07-0.42-0.14-0.57-0.2
						s-0.31-0.15-0.47-0.27c-0.16-0.11-0.29-0.25-0.37-0.4c-0.08-0.16-0.13-0.35-0.13-0.56c0-0.45,0.14-0.81,0.42-1.08
						c0.28-0.27,0.65-0.43,1.12-0.49v-0.66l0.6-0.07v0.72c0.2,0.01,0.39,0.04,0.59,0.09c0.2,0.05,0.35,0.09,0.44,0.13l0.15,0.06
						l-0.25,0.73c-0.26-0.12-0.57-0.19-0.93-0.23v1.49c0.23,0.07,0.42,0.14,0.57,0.21s0.31,0.15,0.48,0.26
						c0.16,0.11,0.29,0.24,0.37,0.39c0.08,0.15,0.13,0.33,0.13,0.53c0,0.94-0.52,1.45-1.54,1.54v0.65l-0.6,0.07v-0.72
						c-0.25-0.02-0.5-0.06-0.77-0.12c-0.27-0.06-0.47-0.12-0.6-0.18L30.69,91.79z M31.54,88.43c0,0.14,0.06,0.25,0.19,0.35
						s0.31,0.19,0.55,0.27v-1.29C31.78,87.83,31.54,88.05,31.54,88.43z M33.62,90.74c0-0.13-0.06-0.24-0.19-0.33
						c-0.13-0.09-0.31-0.17-0.55-0.25v1.24C33.37,91.32,33.62,91.11,33.62,90.74z"/>
					<path fill="#231F20" d="M37.06,87.03v5.09l-0.77,0.07v-4.23l-1.09,0.26l-0.12-0.76l1.9-0.44H37.06z"/>
					<path fill="#231F20" d="M38.41,89.61c0-0.75,0.16-1.38,0.49-1.89c0.32-0.51,0.76-0.76,1.3-0.76c0.41,0,0.83,0.08,1.25,0.24
						l-0.19,0.69c-0.32-0.11-0.62-0.17-0.89-0.17c-0.29,0-0.52,0.09-0.7,0.27c-0.18,0.18-0.3,0.41-0.37,0.68
						c-0.07,0.27-0.1,0.58-0.1,0.94c0.3-0.3,0.67-0.45,1.11-0.45c0.48,0,0.85,0.13,1.13,0.39c0.28,0.26,0.41,0.63,0.41,1.1
						c0,0.44-0.15,0.81-0.45,1.1c-0.3,0.29-0.71,0.44-1.24,0.44c-0.56,0-0.99-0.22-1.29-0.67C38.56,91.08,38.41,90.44,38.41,89.61z
						 M41.07,90.65c0-0.28-0.08-0.49-0.24-0.64s-0.37-0.23-0.63-0.23c-0.22,0-0.42,0.05-0.6,0.14c-0.18,0.1-0.31,0.22-0.38,0.37
						c0.05,0.39,0.15,0.68,0.31,0.86c0.16,0.19,0.38,0.28,0.67,0.28c0.27,0,0.48-0.07,0.64-0.2C40.99,91.1,41.07,90.9,41.07,90.65z"
						/>
					<path fill="#231F20" d="M43.28,91.43c-0.37-0.51-0.55-1.13-0.55-1.86c0-0.73,0.18-1.35,0.55-1.86c0.37-0.5,0.86-0.76,1.48-0.76
						c0.62,0,1.11,0.25,1.48,0.76c0.37,0.51,0.55,1.12,0.55,1.86c0,0.74-0.18,1.36-0.55,1.87s-0.86,0.76-1.48,0.76
						C44.14,92.2,43.65,91.94,43.28,91.43z M46.01,89.57c0-0.54-0.11-0.98-0.33-1.33s-0.53-0.52-0.93-0.52s-0.71,0.17-0.93,0.52
						c-0.22,0.35-0.33,0.79-0.33,1.33c0,0.55,0.11,0.99,0.33,1.34c0.22,0.35,0.53,0.52,0.93,0.52s0.71-0.17,0.93-0.52
						S46.01,90.12,46.01,89.57z"/>
				</g>
			</g>
		</g>
	</g>
	<path d="M0.02,0v1.6v96.8v1.6h60v-1.6V1.6V0H0.02z M59.02,98.4h-58V1.6h58V98.4z"/>
	<g>
	</g>
	<g>
	</g>
	<g>
	</g>
	<g>
	</g>
	<g>
	</g>
	<g>
	</g>
	<g>
	</g>
	<g>
	</g>
	<g>
	</g>
	<g>
	</g>
	<g>
	</g>
	<g>
	</g>
	<g>
	</g>
	<g>
	</g>
	<g>
	</g>
	<g>
	</g>
	<g>
	</g>
</g>
</svg>
