<?xml version="1.0" encoding="utf-8"?>
<!-- Generator: Adobe Illustrator 26.2.1, SVG Export Plug-In . SVG Version: 6.00 Build 0)  -->
<svg version="1.1" xmlns="http://www.w3.org/2000/svg" xmlns:xlink="http://www.w3.org/1999/xlink" x="0px" y="0px"
	 viewBox="0 0 60 100" enable-background="new 0 0 60 100" xml:space="preserve">
<g id="BG">
	<rect id="BG_00000082354266892434819460000014407544633745974707_" x="0.02" y="0" fill="#F0EDDA" width="60" height="100"/>
	<rect id="BG_00000037693340041972082810000009059657678697518014_" x="0.02" fill="#F0EDDA" width="60" height="100"/>
</g>
<g id="THINGS">
	<path d="M0.02,0v1.6v96.8v1.6h60v-1.6V1.6V0H0.02z M59.02,98.4h-58V1.6h58V98.4z"/>
	<g>
		<g id="_x31_8_00000120557649011499636110000000644308035321741477_">
			<g>
				<g>
					<path fill="#231F20" d="M19.52,14.78c-0.29,0-0.58-0.01-0.88-0.04c-0.29-0.02-0.52-0.05-0.66-0.08l-0.22-0.03V9.16
						c0.52-0.1,1.11-0.15,1.76-0.15c0.94,0,1.65,0.25,2.11,0.74c0.46,0.5,0.69,1.21,0.69,2.14c0,0.93-0.23,1.64-0.69,2.14
						C21.17,14.53,20.47,14.78,19.52,14.78z M19.52,9.88c-0.29,0-0.6,0.02-0.96,0.07v3.9c0.31,0.04,0.63,0.06,0.96,0.06
						c1.34,0,2.01-0.67,2.01-2.02C21.52,10.55,20.85,9.88,19.52,9.88z"/>
					<path fill="#231F20" d="M27.14,13.84l-0.16,0.86h-3.44V9.1h3.44l0.16,0.86h-2.8v1.42h2.29v0.86h-2.29v1.6H27.14z"/>
					<path fill="#231F20" d="M28.75,14.78l-0.84-0.08l2.49-5.68h0.12l2.56,5.68l-0.77,0.08l-0.58-1.29h-2.42L28.75,14.78z
						 M30.49,10.75l-0.88,2.02h1.79L30.49,10.75z"/>
					<path fill="#231F20" d="M37.13,9.1l0.16,0.86H35.5v4.74l-0.8,0.08V9.96h-1.79l0.16-0.86H37.13z"/>
					<path fill="#231F20" d="M41.41,9.1l0.8-0.08v5.68l-0.8,0.08v-2.57h-2.33v2.49l-0.8,0.08V9.1l0.8-0.08v2.33h2.33V9.1z"/>
					<path fill="#231F20" d="M18.85,21.4c-0.43-0.51-0.64-1.21-0.64-2.12c0-0.91,0.21-1.62,0.64-2.12c0.43-0.51,1.04-0.76,1.85-0.76
						c0.29,0,0.56,0.02,0.83,0.07s0.46,0.09,0.58,0.14l0.19,0.06l-0.19,0.81c-0.46-0.15-0.9-0.23-1.31-0.23
						c-0.62,0-1.07,0.17-1.36,0.51c-0.29,0.34-0.43,0.84-0.43,1.51c0,0.67,0.14,1.17,0.43,1.51c0.29,0.34,0.74,0.51,1.36,0.51
						c0.2,0,0.42-0.02,0.65-0.06c0.23-0.04,0.41-0.08,0.53-0.11l0.19-0.06l0.19,0.81c-0.42,0.18-0.97,0.28-1.66,0.28
						C19.9,22.16,19.28,21.9,18.85,21.4z"/>
					<path fill="#231F20" d="M26.53,16.48l0.8-0.08v5.68l-0.8,0.08v-2.57H24.2v2.49l-0.8,0.08v-5.68l0.8-0.08v2.33h2.33V16.48z"/>
					<path fill="#231F20" d="M32.39,21.22l-0.16,0.86h-3.44v-5.6h3.44l0.16,0.86h-2.8v1.42h2.29v0.86h-2.29v1.6H32.39z"/>
					<path fill="#231F20" d="M33.28,21.71l0.28-0.8c0.04,0.03,0.11,0.06,0.19,0.11c0.08,0.04,0.27,0.1,0.55,0.17
						c0.28,0.07,0.57,0.11,0.87,0.11c0.32,0,0.57-0.06,0.76-0.19c0.19-0.13,0.28-0.31,0.28-0.55c0-0.15-0.07-0.27-0.21-0.39
						s-0.32-0.2-0.53-0.27s-0.44-0.15-0.69-0.24c-0.25-0.09-0.48-0.18-0.7-0.29c-0.21-0.11-0.39-0.27-0.53-0.48
						s-0.21-0.46-0.21-0.75c0-0.55,0.17-0.98,0.51-1.29s0.79-0.46,1.35-0.46c0.24,0,0.47,0.03,0.72,0.08
						c0.24,0.05,0.42,0.11,0.55,0.16l0.18,0.08l-0.25,0.8c-0.34-0.18-0.75-0.27-1.21-0.27c-0.32,0-0.58,0.06-0.77,0.19
						c-0.19,0.12-0.29,0.31-0.29,0.57c0,0.15,0.07,0.28,0.21,0.4s0.32,0.21,0.53,0.29c0.21,0.08,0.44,0.16,0.69,0.25
						s0.48,0.19,0.69,0.3s0.39,0.26,0.53,0.47s0.21,0.44,0.21,0.72c0,1.14-0.63,1.71-1.89,1.71c-0.28,0-0.57-0.04-0.87-0.11
						c-0.31-0.08-0.54-0.15-0.71-0.23L33.28,21.71z"/>
					<path fill="#231F20" d="M41.85,16.48l0.16,0.86h-1.79v4.74l-0.8,0.08v-4.82h-1.79l0.16-0.86H41.85z"/>
				</g>
			</g>
			<g>
				<g>
					<g>
						<path fill="#007871" d="M25.18,69.38c-0.23,0.5-0.14,1.44-0.21,1.99c-0.08,0.57-0.18,1.14-0.28,1.71
							c-0.07,0.36-0.65,0.44-0.81,0.11c-0.46-0.99-0.9-1.96-1.49-2.87c-0.39-0.59-0.78-1.14-1.02-1.79
							c-0.5-0.03-0.97-0.12-1.47-0.38c-0.55,0.21-0.93,0.52-1.01,0.99c-0.4,2.44-0.51,14.66-0.15,14.72
							c1.21-0.07,6.41,0.06,7.46,0.34c0.15-0.07,0.6,0.66,0.64,0.49c0.36-1.56,0.54-5.6,0.59-7.72c0.05-2.61,0.14-5.11,0.31-7.72
							c0.02-0.34,0.01-0.57-0.05-0.75C26.81,68.81,25.67,68.32,25.18,69.38z"/>
						<path fill="#007871" d="M50.12,66.68c0.02-0.13-0.37-2.87-0.35-3c0.04-0.28-2.32,0.55-1.45,1.24c1.05,0.85,0.54,8.5-0.12,7.18
							c-0.27-0.54-0.96-1.88-1.87-4.11c-0.55,1.76-1.78,1.95-1.78,1.95s-0.02,2.56-0.14,4.55c-0.1,1.77-0.29,8.51-0.31,8.72
							c-0.03,0.34,1.94-2.02,2.65-2.84c0.14-0.18,2.99-2.91,3.14-3.09c0.53-0.65,0.01-4.26,0-4.32
							C49.73,72.2,50.14,68.01,50.12,66.68z"/>
						<path fill="#007871" d="M39.96,69.99c-0.14-0.23-0.74-0.5-1.56-0.75c0.15,0.23,0.06,0.57-0.24,0.67
							c-1.82,0.62-3.85-0.25-5.47-1.07c-0.33,0.14-0.55,0.35-0.59,0.64c-0.27,1.89-0.29,9.87-0.24,11.8
							c0.04,1.34-0.54,4.04,0.15,3.92c0.76-0.1,1.9,0.1,2.68,0.24c0.4,0.07,0.8,0.13,1.18,0.2c0.15,0.01,0.3,0.03,0.44,0.03
							c0.03-0.12,0.13-0.21,0.29-0.21c0.44-0.02,1.95,0.04,2.41,0.53c0.96-0.97,0.61-10.95,1.18-14.5
							C40.26,71,40.35,70.16,39.96,69.99z"/>
						<path fill="#007871" d="M14.76,67.48c0-0.03-0.03-0.05-0.05-0.07c-0.66,0.36-1.96,0.15-2.62-0.02
							c-1.08-0.01-2.15-0.14-3.23-0.31c-0.16-0.02-0.25-0.11-0.29-0.22c-0.2,0.01-0.4,0.02-0.57,0.04
							c-0.81,0.07-0.35,2.91-0.26,4.83c0.09,2.05,0.04,4.07,0.46,6.08c0.32,1.54,0.15,3.35,0.02,4.48c0.94-0.02,3.24,0.18,4.17,0.29
							c0.71,0.09,1.69-0.14,2.68,0.7C16.51,84.51,14.84,68.04,14.76,67.48z"/>
						<path fill="#007871" d="M54.01,47.71c-0.17-0.27-0.69-0.36-0.94-0.46c-0.73-0.28-3.43-1.22-3.45-1.21
							c-0.08,0.02-0.72,1.05-0.73,1.05c-1.01,0.01-7.58-0.44-7.54-0.36c1.96,3.63-2.19,4.52-2.2,4.52
							c-0.78,0.59,0.12,2.04,0.01,2.53c-0.09,0.38-1.93-1.35-0.37-3.87c0.48-0.77-0.55-2.52-1.24-3.23c-0.23-0.23-4.5,0.08-4.5,0.08
							c-0.24,0.57-0.01,0.97-0.91,2.55c-0.12,0.21-1.26,0.51-1.37,0.73c-0.21,0.33-1.5,0.72-1.66,1.09
							c-0.05,0.12-2.25,1.83-2.83,2.71c1.47,1.19,0.98,5.34,1.07,5.33c-0.02,0.09,3.24,0.75,3.35,0.62c0.16-0.2,0.32-0.4,0.48-0.6
							c1.83-1.32,8.49-4.95,12.43,1.76c0.73,1.24,5.27,1.57,4.33,0.3c-1.01-1.36-2.78-1.13-2.47-1.84c0.19-0.43,0.42-1.1,0.68-1.9
							c1.46,1.19,4.41,2.74,4.75,2.96c0.16,0.1,0.36-0.21,0.37-0.38c0.02-1.29,0.54-2.69,0.98-3.9c0.05-0.13-2.85-1.2-2.85-1.2
							c0,0-1.48-0.76-2.24-1.01c0.42-1.51,0.83-3.03,1.14-4.26c0.08,0.07,0.18,0.11,0.3,0.12c1.52,0.01,2.92,0.46,4.34,0.94
							c0.3,0.1,0.59-0.17,0.6-0.46c0.02-0.75,0.36-1.27,0.51-1.96C54.12,48.12,54.15,47.94,54.01,47.71z"/>
						<path fill="#007871" d="M26.57,47.35c-0.02-0.26-0.36-0.3-0.45-0.1c-0.11-0.01-0.22,0-0.32,0.03
							c-0.09,0.03-0.18,0.12-0.17,0.23c0.07,0.88,0.08,1.75,0.02,2.63c-0.02,0.23,0.35,0.34,0.44,0.12
							C26.48,49.33,26.66,48.36,26.57,47.35z"/>
						<path fill="#007871" d="M15.44,59.23c-0.05-0.22-0.16-0.42-0.22-0.63c-0.11-0.36-0.13-0.72-0.11-1.1
							c0.02-0.28-0.38-0.3-0.47-0.06c-0.25,0.72-0.47,1.45-0.66,2.19c-0.04,0.16,0.08,0.27,0.2,0.29c0.03,0.13,0.17,0.23,0.34,0.15
							c0.34-0.17,0.76-0.11,0.89-0.41C15.62,59.57,15.59,59.31,15.44,59.23z"/>
					</g>
					<g>
						<path fill="#FFFCDF" d="M46.36,58.01c-0.19-0.16-0.44,0.03-0.4,0.22c-0.09,0-0.18,0.05-0.21,0.16
							c-0.16,0.46-0.18,0.84-0.11,1.32c0.02,0.13,0.18,0.19,0.29,0.17c0.12-0.03,2.46,1.45,3.62,2.04c0.09,0.05,0.21,0.04,0.29-0.04
							c0.34-0.37,0.77-0.54,1.26-0.49c0.22,0.02,0.35-0.43,0.23-0.57C50.87,60.3,46.68,58.27,46.36,58.01z"/>
						<path fill="#FFFCDF" d="M48.35,49.85c-0.25-0.01-0.38,0.56-0.2,0.68c-0.34,0.82-0.73,2.51-0.73,2.51
							c-0.12-0.01-0.19,0.46-0.13,0.55c-0.26,0.14-0.02,0.53,0.25,0.4c0.07-0.03,2.42,0.9,2.7,1.05c0.55,0.29,1.88,0.91,1.88,0.91
							s0.64,0.34,0.77,0c0.28,0.01,0.33-1.02,0.32-1.06c0.06-0.32,0.23-0.7,0.3-1.02c0.08-0.39,0.25-0.73,0.23-1.14
							c-0.02-0.39,0.42-0.89,0.1-1.14C52.53,50.6,49.92,49.89,48.35,49.85z"/>
						<path fill="#FFFCDF" d="M14.83,56.5c-0.04-0.46,0.89-3.02,0.61-3.44c-0.13-0.19-0.51-1.66-0.69-1.81
							c-0.38-0.31-1.35,2.89-1.78,2.81c-0.08,1.11-1.56,4.3-1.35,4.46c0.19,0.14,2.11,1.37,2.11,1.37c0.47-0.78,0.85-2.5,1.11-3.33
							C14.84,56.54,14.83,56.53,14.83,56.5z"/>
						<path fill="#FFFCDF" d="M24.51,47.11c0.33-0.02,2.24-0.88,4.12-2.47c-0.19-1.2,1.96-2.28-2.24-1.42
							c-0.32,0.02-0.72-0.11-1.08-0.13c0.05,0.74-0.37,1.29-0.36,2.03C24.96,45.65,24.32,46.58,24.51,47.11z"/>
						<path fill="#FFFCDF" d="M8.7,51.96c0.21-1.18,0.31-1.84,0.09-2.91c-0.15-0.75-0.43-1.72-0.85-2.27
							c-0.95-1.07-4.66-4.63-2.79-6.97c0.24-0.3-0.39,2.24,1.39,3.56c1.53,1.13,3.76,2.33,4.54,2.8c0.95,0.99,1.08,1.63,1.31,2.9
							c0.03,0.19,0.22,0.99,0.47,1.86c0.39,0.67,0.51,0.96,1.11,1.65c0.11,0.01,0.73,0.56,1.27,0.34c-0.02-0.7-0.63-2.07-0.96-2.81
							c0.02-0.03-1.08-4.56-1.1-4.58c-0.76-3.91,1.63-8.54,6.01-8.65c2.14-0.05,3.99,1.07,4.9,3.01c1.03,2.21,0.43,4.48,0.19,6.77
							c1.24-0.27,2.48-0.69,3.33-1.58c0.91-0.95,1.26-2.25,1.58-3.49c0.58-2.26,2.4-6.94,6.95-8c1.29-0.3,3.86,0.51,3.92,0.67
							c0.14,0.35-3.01-0.04-4.8,1.44c-4.65,3.85-2.16,7.27-2.21,9.98c-0.03,1.95-0.48,2.6-1.85,4.01c-0.59,0.61-1.88,1.32-2.74,1.86
							c-0.66,0.17-1.22,0.58-1.62,1.23c-0.2,0.32-0.45,0.69-0.53,1.06c-0.11,0.52,0.28,0.94,0.4,1.42c0.02,0.07,0.06,0.12,0.11,0.14
							c0.13,1.86,0.29,5.05,0.96,6.45c0.08-0.08,0.14-0.16,0.2-0.22c0.04,0.2,0.16,0.39,0.36,0.5c0.47,0.25,0.57,0.84,0.72,1.3
							c0.06,0.19,0.11,0.52,0.05,0.68c-0.14,0.39-0.54,1.22-0.21,1.39c-0.67,0.25,0.86,3.11,0.86,3.11
							c-0.69,0.28-2.57-0.06-3.3,0.21c-0.52,0.19-1.1,0.42-1.1,0.42l-0.2,1.09c-0.27,1.68-0.44,2.64-0.45,2.75
							c-0.22,2.04-2.56-2.72-2.6-2.86c-0.27,0.02-0.82-1.73-0.85-1.71c-1.12,0.58-0.89-0.07-1.47-0.2
							c-1.57-0.37-2.27-1.19-2.72-1.68c-0.63-0.67-1.09-1.4-1.5-2.22c-0.72-1.44-0.94-2.42-1.28-3.98
							c-0.36-1.63-1.74-2.66-2.95-3.74c-1.11-0.99-1.82-1.3-2.32-2.36c-0.32-0.18-0.3-1.19-0.42-1.6C8.52,52.52,8.69,52.1,8.7,51.96
							z"/>
						<path fill="#FFFCDF" d="M36.74,44.23c0.11-0.65,0.39-1.23,0.74-1.77c-2.23-0.11-4.74-0.09-6.95,0.16
							c-0.5,0.45-0.39,1.68-0.29,2.24c0.12,0.7,0.46,1.48,1,2.01c1.15-0.01,2.26-0.19,3.43-0.19c0.93,0,1.53-0.12,2.37-0.11
							C36.8,45.81,36.61,45.05,36.74,44.23z"/>
						<path fill="#FFFCDF" d="M41.97,44.48c0.11-0.12,0.13-0.02,0.2,0.1c1.02,1.58,1.57,0.31,2.34,0.65
							c0.56,0.25,1.13,0.7,1.86,0.74c0.69,0.03,0.85-0.39,1.32-0.85c0.44-0.44,0.73-1.03,1.33-1.29c0.4-0.17,0.79-0.1,1.18,0
							c-0.36-0.43-1.22-0.72-1.74-0.69c-0.63,0.04-1.41,0.68-2.02,0.81c-0.94,0.2-1.59-0.52-1.88-1.37
							c-0.04-0.12,0.05-0.26,0.17-0.29c0.52-0.14,1.06-0.22,1.59-0.25c0.31-0.05,0.62-0.11,0.79-0.25c0.69-0.53,1.22-1.33,1.45-2.18
							c0.08-0.29,0.11-0.59,0.14-0.88c0.28-2.16,3.74-1.12,4.09-3.66c-0.98,1.45-3.11,1-4.37,1.76c-0.33-0.55-1.06-1.27-1.7-1.57
							c-1.75-0.84-3.43-0.32-4.4,1.32c-1.05,1.77-1.41,3.84-3.91,5.38c-0.05,0-0.09,0-0.12,0c0.03,0.06,0.03,0.13-0.02,0.2
							c-0.54,0.72-1.02,1.48-1.1,2.39c-0.08,0.85,0.24,1.67,0.5,2.46c0.5,0.67,1.54,1.5,1.22,2.4c-0.21,0.27-1.49,2.88,0,4.23
							c-0.52-3.85,2.74-2,3.08-4.7c0.06-0.43-0.35-1.43-0.64-1.96C40.58,46.07,41.25,45.31,41.97,44.48z"/>
						<path fill="#FFFCDF" d="M55.23,45.01c0.02-0.14-0.14-0.17-0.24-0.24c-1.04-0.69-2.8-1.85-4.5-2.18
							c-0.01,0-0.11,0.25-0.12,0.26c-0.01-0.03-0.01-0.07-0.04-0.07c-0.53-0.07-1.49-0.17-2.53-0.26c0,0-0.01,0-0.01,0
							c-0.91-0.04-2.15-0.08-3.04,0.13c0.94,2.34,2.22,0.84,3.19,0.62c0.42-0.1,0.54-0.29,0.97-0.26c0.8,0.06,1.55,0.44,1.81,1.32
							c0.05,0.18,0.14,0.14-0.03,0.11c-0.84-0.17-1.7-0.6-2.4,0.05c-0.31,0.29-0.48,0.85-0.82,1.11c-0.57,0.44-0.63,0.68-1.34,0.55
							c-0.37-0.07-0.92-0.46-1.24-0.62c-0.61-0.32-1.12,0.18-1.74,0.13c-0.48-0.04-0.92-0.84-1.18-1.18
							c-0.45,0.48-1.28,1.57-0.62,2.25c0.55-0.01,1.64-0.01,2.06,0.03c0.88,0.09,1.72,0.09,2.63,0.04c0.81,0.05,2.15,0.26,2.94,0.28
							c0.25,0.01,0.28-0.52,0.52-1.1c1.53,0.32,3.43,1,4.76,1.82c0.13,0.08,0.44-0.39,0.47-0.53c0.1-0.4,0.35-0.94,0.48-1.33
							c0.06-0.03,0.06-0.11,0.08-0.18C55.4,45.39,55.18,45.4,55.23,45.01z"/>
						<path fill="#FFFCDF" d="M48.33,64.76c-0.35-0.6-1.09-0.94-1.77-0.85c-0.53,0.07-0.98,0.32-1.37,0.66
							c-0.1-0.57-0.22-1.09-0.35-1.52c-1.46-4.93-5.71-7.11-10.64-5.5c-1.96,0.64-3.67,1.72-4.37,3.71
							c-0.41,1.17-0.84,1.99-0.99,3.22c-0.06,0.5,0.14,2.67,0.34,2.84c-0.12,0.55,0.38,1.06,0.77,1.38
							c0.02,0.02,2.52,0.49,2.74,0.58c2.15,0.93,5.46,1.12,7.74,0.71c-0.11,0.02,1.42-0.41,1.53-0.61c0.21,0.12,0.47,0.34,0.64,0.38
							c0.34,0.1,0.69,0.1,1.02,0.02c0.6,0.21,1.58-0.21,2.88-1.95c0,0,0.39,1.47,0.39,1.48c0.58,2.05,1.48,3.47,1.58,2.88
							c0.12-0.75,0.64-5.32,0.55-6.08C48.96,65.62,48.59,65.18,48.33,64.76z"/>
					</g>
					<path fill="#FFFCDF" d="M13.67,75.65c0.07-0.17,0.11-0.35,0.12-0.55c0.01-0.39-0.1-0.81-0.3-1.18
						c-0.01-0.09-0.03-0.18-0.04-0.26c-0.23-1.19-0.63-2.27-1.94-2.51c-0.76-0.14-1.64,0.55-1.67,1.32c0,0.12,0,0.24,0,0.36
						c-0.02,0.01-0.04,0.02-0.06,0.03c-0.01,0.01-0.02,0.02-0.04,0.02c0,0.02,0,0.04-0.01,0.06c-0.05,0.11-0.1,0.22-0.15,0.33
						c-0.08,0.22-0.17,0.44-0.26,0.68c-0.13,0.36-0.3,0.96-0.14,1.33c0.08,0.18,0.39,0.35,0.52,0.52c0.34,0.42,0.6,1.23,0.98,1.67
						c0.34,0.13,0.71,0.17,1.06,0.12c0.09-0.06,0.18-0.13,0.28-0.23C12.45,76.93,12.93,75.63,13.67,75.65z M32.68,77.13
						c0.03,0.43,0.22,0.84,0.62,1.12c0.19,0.13,0.4,0.22,0.62,0.29c0.06,0.32,0.15,0.64,0.31,0.93c0.36,0.62,0.95,1.04,1.69,0.93
						c0.16-0.02,0.31-0.08,0.45-0.15c0-0.01,0-0.01,0-0.01c0.37-0.7,0.6-1.57,1.44-1.84c0.07-0.02,0.13-0.02,0.19-0.01
						c0.27-0.44,0.33-1.03,0.12-1.49c-0.06-0.14-0.19-0.4-0.34-0.61c0-0.01,0-0.02,0-0.03c0.02-0.07,0.02-0.15,0.02-0.22
						c-0.16-0.61-0.26-1.22-0.77-1.69c-0.33-0.3-1.16-1-1.64-0.76c-0.14,0.07-0.27,0.04-0.36-0.03c-0.11,0.05-0.22,0.1-0.32,0.18
						c-0.53,0.37-0.87,0.94-0.71,1.6c0,0.02,0.01,0.04,0.02,0.06c0,0-0.01,0-0.01,0c-0.08,0.01-0.15,0.03-0.23,0.05
						c0.01,0.06,0.01,0.13-0.03,0.21c-0.28,0.55-0.62,1.06-1.08,1.48C32.69,77.13,32.69,77.13,32.68,77.13z M18.94,74.32
						c0.17,0.12,0.58,0.1,0.59,0.1c1.59,0.13,1.96,1.31,2.34,2.68c0.01,0.03,0.03,0.06,0.03,0.08c0.42,0.26,0.93,0.33,1.4,0.22
						c0-0.01,0-0.01,0-0.02c0-0.07,0.67-0.83,0.95-1.2c0.25-0.33,0.4-0.77,0.76-1.01c0.63-0.42,1.7-0.18,2.3,0.18
						c0.12,0.07,0.14-2.59,0.1-2.59c-1.25-0.25-2.26-0.53-3.11,0.66c-0.27,0.38-0.81-0.02-1.34-0.02c-0.38,0-0.69-0.13-0.93-0.43
						c-0.18-0.23-0.18-0.41-0.33-0.59c-0.55-0.65-1.73-0.56-2.53-0.55c-0.06,0-0.12-0.01-0.17-0.03
						C18.39,72.37,18.13,73.76,18.94,74.32z"/>
					<path fill="#FFFCDF" d="M39.77,74.04c-0.07,1.41,0.05,2.81-0.13,4.22c-0.05,0.42-0.2,3.81-0.19,3.94
						c0.05,0.98-0.29,3.66-0.29,3.67c0.26,0.49,3.03,0.76,4.07-0.17c-0.02-0.07,0.54-1.62,0.9-2.26c0.07-2.14,0.14-4.58,0.2-6.71
						c0.05-1.94,0.13-4.34,0.21-6.28c-0.37-0.61-0.9-0.35-1.68-0.7c-0.79-0.35-1.76-0.37-2.42,0.23
						C40.25,70.62,39.77,73.96,39.77,74.04z M4.79,66.19c0.18,1.4,0.32,3.42,0.2,4.85c0.05,1.85-0.17,3.13-0.11,4.98
						c0.05,1.56,0.35,3.2,0.23,4.76c0.03,0.06,0.05,0.13,0.08,0.19c0.52,1.08,2.16,1.85,3.13,1.24c-0.1-2.12-0.39-6.25-0.63-9.24
						c-0.18-2.25,0.06-4.46,0.02-6.71C7.65,66.21,4.82,66.1,4.79,66.19z M32.1,69.2c-1.12-0.63-3.12-0.68-4.38-0.63
						c-0.05,0.96-0.2,3.08-0.32,4.04c0.03,0.05-0.06,5.29-0.29,7.87c-0.13,1.48,0.07,3.04-0.33,4.46c0,0.01,0.01,0.01,0.01,0.02
						c1.56,0.03,3.03,0.76,4.64,0.79c0.03-0.04,0.26-0.46,0.29-0.5c0.2-1.29,0.24-2.14,0.25-3.47c0.01-1.55-0.1-3.1-0.1-4.65
						c0-1.16,0.15-2.29,0.28-3.42c-0.02-0.79-0.06-1.57-0.12-2.34C31.99,70.81,32.09,69.74,32.1,69.2z M14.4,67.74
						c0.05,0.09,0.09,0.17,0.13,0.25c0.13,0.03,0.25,0.12,0.29,0.3c0.21,0.93,0.12,1.89,0.1,2.84c0.07,0.47,0.09,0.93,0.03,1.4
						c0.05,1.36,0.1,2.73,0.18,4.09c0.14,2.31,0.17,4.59,0.13,6.84c1.02,0.04,2.16,0.27,3.04,0.58c0.05,0.02,0.13-0.04,0.29-0.13
						c0.76-2.5,0.25-5.62,0.18-8.44c-0.06-2.46,0.63-5.08,0.03-7.5c-0.15-0.08-0.3-0.16-0.45-0.24c-0.48-0.07-0.93-0.1-1.15-0.12
						c-0.91-0.1-1.81-0.09-2.72-0.18C14.45,67.53,14.42,67.63,14.4,67.74z"/>
					<g>
						<g>
							<path d="M34.83,80.63c-0.5-0.12-0.71-0.38-0.73-0.92c-0.02-0.61-0.21-1.02-0.81-1.35c-0.91-0.5-0.9-1.25-0.38-1.72
								c0.44-0.4,0.56-0.9,0.68-1.43c0.05-0.2,0.11-0.4,0.19-0.58c0.38-0.82,1.07-1.25,1.82-1.14c0.73,0.11,2.03,0.91,2.16,1.93
								c0.07,0.57,0.15,1.16,0.7,1.53c0.09,0.06,0.14,0.18,0.19,0.28c0.24,0.48,0.26,1.09-0.36,1.4c-0.22,0.11-0.43,0.27-0.68,0.3
								c-0.3,0.03-0.43,0.21-0.48,0.49c-0.03,0.16-0.03,0.32-0.07,0.47c-0.16,0.64-0.7,1.03-1.29,0.93
								C35.46,80.76,35.14,80.71,34.83,80.63z M36.57,79.53c0.08-0.26,0.08-0.54,0.23-0.78c0.17-0.27,0.3-0.54,0.73-0.42
								c0.28,0.08,0.51-0.16,0.62-0.41c0.11-0.24,0.04-0.56-0.19-0.67c-0.55-0.27-0.58-0.72-0.63-1.24
								c-0.1-1.03-0.68-1.69-1.53-1.85c-0.66-0.12-1.09,0.08-1.43,0.66c-0.14,0.24-0.22,0.5-0.26,0.77
								c-0.08,0.53-0.24,0.99-0.67,1.37c-0.34,0.29-0.29,0.48,0.06,0.78c0.08,0.07,0.18,0.15,0.28,0.19
								c0.62,0.21,0.77,0.72,0.85,1.28c0.11,0.75,0.28,0.91,1.06,0.99C36.13,80.24,36.42,80.02,36.57,79.53z"/>
							<path d="M10.19,71.34c0.5-0.57,1-0.7,1.7-0.45c1.2,0.44,1.9,1.48,1.9,2.93c0,0.4,0.05,0.71,0.31,1.05
								c0.45,0.59,0.22,1.25-0.48,1.35c-0.67,0.09-0.92,0.51-1.14,1.02c-0.42,0.95-0.55,1.01-1.54,0.63
								c-0.04-0.02-0.08-0.04-0.13-0.05c-0.51-0.13-0.77-0.47-0.76-0.98c0.01-0.52-0.17-0.82-0.7-0.99
								c-0.71-0.24-0.92-1.08-0.38-1.6c0.33-0.32,0.49-0.62,0.45-0.98C9.51,72.32,9.67,71.94,10.19,71.34z M10,73.67
								c0,0.39,0.04,0.75-0.47,0.93c-0.33,0.11-0.28,0.48,0.06,0.65c0.12,0.06,0.25,0.11,0.37,0.16c0.46,0.17,0.67,0.46,0.65,0.98
								c-0.03,0.7,0.18,0.9,0.82,0.99c0.24,0.03,0.4-0.01,0.46-0.26c0.07-0.27,0.21-0.5,0.35-0.73c0.23-0.39,0.51-0.69,1-0.71
								c0.17-0.01,0.33-0.05,0.39-0.22c0.08-0.2-0.05-0.34-0.19-0.47c-0.08-0.08-0.19-0.13-0.26-0.22c-0.14-0.16-0.2-0.3-0.1-0.54
								c0.37-0.92-0.15-2.16-1.04-2.6c-0.71-0.34-1.19-0.22-1.65,0.42c-0.25,0.36-0.32,0.55-0.39,1.14C10,73.26,10,73.46,10,73.67z"
								/>
							<path d="M8.34,82.29c0.22-0.59,0.16-1.12,0.15-1.64C8.41,78.05,8.16,74.2,8,71.6c-0.07-1.04-0.05-2.76-0.08-3.8
								c-0.01-0.28,0.07-0.74-0.29-0.73c-0.39,0.01-0.21,0.46-0.21,0.73c0.03,2.65,0.3,5.97,0.41,8.61
								c0.05,1.27,0.29,3.78,0.29,5.05C8.12,81.69,8.11,81.99,8.34,82.29z"/>
							<path d="M42.64,84.41c0.31-0.2,0.3-0.48,0.34-0.75c0.17-1.1,0.17-2.21,0.2-3.32c0.05-2.25,0.25-4.48,0.37-6.73
								c0.03-0.56-0.05-1.1-0.16-1.65C42.89,76.09,42.81,80.23,42.64,84.41z"/>
							<path d="M22.77,75.12c-0.06,0.33-0.28,0.9-0.31,0.94c0.05,0.1,0.22,0.06,0.36,0.08c0.11,0.02,0.34,0.09,0.34,0.01
								c-0.03-0.43-0.08-0.95-0.08-1c0.25-0.06,0.35-0.66-0.08-0.71c-0.25-0.05-0.37,0.13-0.39,0.33
								C22.59,74.98,22.72,75.08,22.77,75.12z"/>
							<path d="M34.68,78.05c-0.01,0.18,0.06,0.28,0.24,0.24c0.06-0.01,0.12-0.06,0.17-0.1c0.18-0.13,0.29-0.39,0.52-0.41
								c0.28-0.02,0.27,0.32,0.44,0.45c0.12,0.09,0.23,0.15,0.36,0.04c0.1-0.09,0.08-0.23,0.01-0.3c-0.21-0.22-0.29-0.5-0.4-0.77
								c-0.16-0.42-0.32-0.44-0.62-0.11C35.13,77.39,34.86,77.7,34.68,78.05z"/>
							<path d="M36.87,76.15c-0.05-0.11-0.1-0.01-0.15,0.01c-0.41,0.15-0.56,0.5-0.36,0.63c0.14,0.09,0.35,0.06,0.43-0.09
								C36.91,76.52,36.9,76.38,36.87,76.15z"/>
							<path d="M34.68,75.97c-0.08-0.03-0.48,0.47-0.11,0.74c0.13,0.1,0.34,0.14,0.46,0C35.33,76.32,34.63,76.13,34.68,75.97z"/>
							<path d="M11.38,75.23c0.22,0.06,0.16,0.27,0.26,0.38c0.08,0.1,0.17,0.14,0.29,0.1c0.12-0.04,0.2-0.14,0.18-0.25
								c-0.07-0.38-0.21-0.74-0.44-1.04c-0.15-0.19-0.38-0.13-0.53,0.04c-0.22,0.23-0.37,0.51-0.44,0.82
								c-0.03,0.11-0.02,0.23,0.08,0.3c0.13,0.08,0.25,0.04,0.36-0.06C11.22,75.42,11.25,75.27,11.38,75.23z"/>
							<path d="M11.95,73.74c0.03,0.19,0.12,0.36,0.33,0.35c0.15-0.01,0.32-0.1,0.31-0.28c0-0.22-0.14-0.38-0.37-0.39
								C12.01,73.41,11.99,73.59,11.95,73.74z"/>
							<path d="M10.78,73.34c-0.19-0.01-0.31,0.09-0.32,0.26c-0.01,0.17,0.03,0.36,0.27,0.38c0.18,0.01,0.3-0.08,0.33-0.25
								C11.1,73.51,10.94,73.41,10.78,73.34z"/>
						</g>
						<g>
							<path d="M6.35,65.9c0-0.04,0-0.07,0-0.11c0-0.01-0.02-0.01-0.02,0c0,0.04,0,0.07,0,0.11C6.33,65.91,6.35,65.91,6.35,65.9
								L6.35,65.9z"/>
						</g>
						<g>
							<path d="M9.71,62.75c0.01,0,0.01-0.02,0-0.02C9.7,62.73,9.7,62.75,9.71,62.75L9.71,62.75z"/>
						</g>
						<path d="M10.84,61.79c-1.17,0.8-4.03,2.77-5.14,3.55c-0.55,0.27-0.81,0.18-0.94,0.52c-0.05,0.14,0.05,0.36,0.22,0.29
							c0.78-0.31,1.54-0.76,2.21-1.27c0.03-0.02,0.05-0.04,0.08-0.06c0.3-0.16,0.59-0.32,0.87-0.52c0.7-0.49,1.64-0.97,2.17-1.66
							C10.43,62.49,10.99,61.69,10.84,61.79z"/>
						<g>
							<path d="M46.89,80.42c0.44-0.01,0.58-0.39,0.84-0.68c0.39-0.44,0.92-0.8,1.24-1.31c0.15-0.23-0.15-0.53-0.38-0.38
								c-0.44,0.28-0.78,0.77-1.14,1.15c-0.14,0.15-0.23,0.29-0.32,0.47c-0.07,0.15-0.17,0.44-0.3,0.54
								C46.75,80.27,46.77,80.42,46.89,80.42L46.89,80.42z"/>
						</g>
						<g>
							<path d="M48.68,78.33c0.03,0.03,0.06,0.05,0.09,0.08c0.09,0.07,0.19,0.09,0.3,0.04c0.62-0.33,0.96-1.01,1.04-1.69
								c0.15-1.24,0.12-2.55,0.15-3.8c0.06-2.97,0.31-6.14-0.23-9.07c-0.04-0.23-0.38-0.16-0.39,0.05
								c-0.11,2.69-0.04,5.42-0.05,8.11c0,1.2-0.05,2.4-0.06,3.6c0,0.46,0.08,1-0.07,1.45c-0.16,0.48-0.6,0.71-0.8,1.14
								C48.66,78.27,48.65,78.31,48.68,78.33L48.68,78.33z"/>
						</g>
						<g>
							<path d="M49.7,62.16c-0.07,0.14-0.22,0.21-0.29,0.35c-0.08,0.15-0.13,0.34-0.13,0.52c0,0.33,0.16,0.7,0.43,0.88
								c0.55,0.36,1.4,0.19,1.84-0.26c0.48-0.49,0.71-1.46,0.18-1.99c-0.67-0.68-1.46-0.43-2.1,0.14c-0.23,0.2,0.02,0.55,0.28,0.48
								c0.42-0.1,0.78-0.55,1.22-0.25c0.45,0.31,0.29,0.99-0.09,1.3c-0.28,0.23-0.83,0.35-1.14,0.11c-0.43-0.35-0.13-0.82-0.11-1.25
								C49.8,62.13,49.72,62.11,49.7,62.16L49.7,62.16z"/>
						</g>
						<g>
							<path d="M49.15,63.41c-0.23,0.57-0.38,0.71-0.71,1.23c-0.17,0.26-0.01,0.87,0.16,0.62c0.36-0.55,0.77-1.1,1.01-1.72
								C49.72,63.25,49.26,63.13,49.15,63.41L49.15,63.41z"/>
						</g>
						<g>
							<path d="M43.61,60.95c1.59,0.2,3.18,0.43,4.77,0.68c0.3,0.05,0.43-0.41,0.13-0.46c-1.63-0.26-3.26-0.49-4.89-0.7
								C43.31,60.44,43.32,60.91,43.61,60.95L43.61,60.95z"/>
						</g>
						<g>
							<path d="M27.36,59.63c0.77,0.02,2.76,0.24,3.53,0.27c0.31,0.01,0.3-0.46,0-0.47c-0.77-0.03-1.31,0.07-2.06-0.07
								c-1.83-0.34-1.84-0.01-1.53,0L27.36,59.63z"/>
						</g>
						<g>
							<path d="M53.65,51.08c0.25-1.02,0.52-2.05,0.82-3.06c0.08-0.29-0.37-0.42-0.46-0.13c-0.29,1.01-0.56,2.03-0.82,3.06
								C53.12,51.25,53.58,51.38,53.65,51.08L53.65,51.08z"/>
						</g>
						<g>
							<path d="M51.53,60.59c0.35-1.55,0.68-3.1,1.02-4.65c0.06-0.3-0.39-0.42-0.46-0.13c-0.33,1.55-0.67,3.1-1.02,4.65
								C51.01,60.76,51.46,60.89,51.53,60.59L51.53,60.59z"/>
						</g>
						<g>
							<path d="M49.8,61.99c-1.32-1.04-2.85-1.78-4.32-2.58c-0.27-0.15-0.51,0.26-0.24,0.41c1.44,0.78,2.94,1.49,4.22,2.5
								C49.7,62.51,50.04,62.18,49.8,61.99L49.8,61.99z"/>
						</g>
						<g>
							<path d="M45.64,59.62c0.94-2.91,1.69-5.87,2.6-8.79c0.86-2.74,2.48-8.23,2.48-8.23l-0.46-0.13c0,0-1.62,5.49-2.48,8.23
								c-0.91,2.92-1.66,5.88-2.6,8.79C45.09,59.79,45.55,59.91,45.64,59.62L45.64,59.62z"/>
						</g>
						<g>
							<path d="M11.98,58.81c0.24,0.19,1.08,0.68,1.35,0.92c0.16,0.13,0.43,0.12,0.27-0.01c-0.12-0.1-0.5-0.46-0.64-0.55
								c-0.12-0.08-1.17-0.73-1.17-0.87c0-0.09-0.46-0.34-0.43-0.05C11.37,58.24,11.33,58.31,11.98,58.81z"/>
						</g>
						<g>
							<path d="M11.84,58.24c0.09-0.23,0.07-0.19,0.19-0.5c0.11-0.29-0.2-0.74-0.3-0.45c-0.02,0.07-0.02-0.09-0.35,0.82
								C11.28,58.4,11.73,58.52,11.84,58.24L11.84,58.24z"/>
						</g>
						<g>
							<path d="M14.19,52.18c0.09-0.23,0.07-0.19,0.19-0.5c0.11-0.29-0.2-0.74-0.3-0.45c-0.02,0.07-0.02-0.09-0.35,0.82
								C13.63,52.34,14.07,52.46,14.19,52.18L14.19,52.18z"/>
						</g>
						<g>
							<path d="M24.67,72.93c-0.2,0.1-0.52,0.31-0.52,0.31c-0.02,0.05-0.05,0.1-0.07,0.15C24.32,73.56,24.48,73.42,24.67,72.93z"/>
							<path d="M47.15,79.56c-0.01,0.01-0.01,0.01-0.01,0.02c-0.69,0.67-1.26,1.43-1.85,2.18c-0.15,0.2-0.31,0.39-0.48,0.58
								c-0.17,0.19-0.27,0.44-0.57,0.62c0.02-0.36,0.01-0.63,0.06-0.89c0.25-1.25,0.25-2.53,0.31-3.79
								c0.09-1.68,0.03-3.36,0.19-5.04c0.05-0.59,0.04-1.87,0.06-2.46c0.01-0.17,0.01-0.35-0.19-0.37
								c-0.21-0.03-0.25,0.16-0.27,0.32c-0.01,0.09-0.01,0.87-0.01,0.96c-0.09,1.54-0.16,3.08-0.2,4.63
								c-0.05,2.17-0.15,4.34-0.23,6.51c-0.01,0.2,0,0.43-0.09,0.6c-0.29,0.55-0.41,1.15-0.62,1.72c-0.29,0.78-0.73,1.08-1.55,1.01
								c-0.27-0.02-0.54-0.09-0.81-0.05c-0.64,0.08-1.21-0.06-1.72-0.47c-0.2-0.16-0.41-0.3-0.68-0.27
								c-1.53,0.15-3.03-0.13-4.55-0.28c-0.63-0.06-1.24-0.23-1.95-0.09c0.11-0.86,0.11-1.68,0.14-2.49
								c0.03-0.75,0.03-1.5,0.03-2.24c-0.01-1.2-0.12-2.41,0.07-3.61c0.04-0.25,0.04-0.5,0.04-0.75c0.02-1.86,0.03-4.21,0.05-6.07
								c0-0.12,0.02-0.25-0.12-0.28c-0.21-0.04-0.18,0.16-0.2,0.27c-0.11,0.7-0.17,1.89-0.18,2.6c-0.01,1.98-0.1,3.95-0.16,5.92
								c-0.03,1.18-0.01,2.37,0.08,3.54c0.08,1.02,0.09,2.03,0.05,3.04c-0.01,0.34-0.19,0.45-0.44,0.49
								c-0.17,0.03-0.36,0.01-0.54-0.02c-1.05-0.17-2.1-0.34-3.15-0.53c-0.31-0.06-0.64-0.09-0.84-0.4
								c-0.25-0.37-0.65-0.41-1.03-0.42c-1.93-0.06-3.85-0.33-5.76-0.57c-0.26-0.03-0.48-0.04-0.7,0.12
								c-0.29,0.22-0.62,0.27-0.97,0.21c-0.92-0.16-1.84-0.31-2.76-0.46c-0.19-0.03-0.38-0.1-0.45-0.27
								c-0.21-0.47-0.64-0.55-1.06-0.62c-0.42-0.07-0.86-0.12-1.28-0.16c-1.09-0.1-2.17-0.22-3.24-0.43
								c-0.26-0.05-0.58-0.17-0.79,0.03c-0.31,0.28-0.63,0.21-0.96,0.17c-0.56-0.07-1.12-0.18-1.68-0.28
								c-0.37-0.07-0.53-0.2-0.59-0.59c-0.17-1.11-0.21-2.21-0.21-3.33c-0.01-1.52-0.08-3.04-0.05-4.56
								c0.03-1.62,0.06-3.23-0.07-4.84c-0.04-0.5-0.04-1-0.05-1.5c-0.01-0.18,0.03-0.35,0.25-0.32c0.62,0.06,1.29-0.06,1.82,0.41
								c0.61,0.54,1.38,0.65,2.15,0.72c0.38,0.03,0.77,0.02,1.16,0.06c0.7,0.07,1.4,0.11,2.09,0.25c0.68,0.14,1.34,0.41,2.07,0.12
								c-0.12,1.08-0.05,2.09,0.01,3.1c0.05,0.88,0.11,1.77,0.13,2.65c0.02,0.93,0.01,1.86,0.14,2.79c0.08,0.58,0.19,1.17,0.18,1.75
								c-0.03,1.07,0.05,3.54,0.05,4.61c0,0.13,0.06,0.26,0.1,0.43c0.24-0.3,0.23-0.6,0.24-0.9c0.01-0.43,0.01-2.27,0.01-2.7
								c0-0.72,0.11-1.44,0-2.17c-0.12-0.81-0.22-1.63-0.18-2.44c0.11-2.23-0.24-4.44-0.16-6.67c0.01-0.15,0-0.31-0.08-0.46
								c-0.2-0.38-0.13-0.53,0.28-0.51c0.66,0.02,1.26,0.01,1.92,0.14c0.2,0.04,0.6,0.04,0.8,0.07c0.62,0.08,0.71,0.24,0.59,0.86
								c-0.14,0.74-0.14,1.95-0.18,2.69c-0.06,1.09-0.07,2.18-0.09,3.27c-0.02,1.07,0.17,2.13,0.19,3.2
								c0.03,1.54,0.11,4.64-0.02,6.19c0,0.06,0.1-0.25,0.28-0.22c0.26-0.24,0.16-0.22,0.17-0.56c0.01-1.48,0.16-4.51,0.01-5.99
								c-0.07-0.7-0.09-1.41-0.09-2.11c0-0.23,0.05-0.43,0.34-0.38c0.44,0.07,0.89,0.16,1.33,0.26c0.31,0.07,0.49,0.23,0.5,0.61
								c0.01,0.43,0.2,0.83,0.41,1.21c0.49,0.87,1.56,0.99,2.22,0.25c0.35-0.39,0.61-0.85,0.83-1.32c0.21-0.45,0.51-0.73,1.07-0.58
								c0.31,0.08,0.63,0.09,0.94,0.14c0.51,0.08,0.5,0.08,0.5,0.59c0,1.39-0.24,2.76-0.2,4.15c0.03,1.17-0.08,3.65-0.08,4.83
								c0.2-0.03,0.25-0.16,0.27-0.3c0.05-0.36,0.19-2.02,0.22-2.38c0.12-1.63,0.04-3.27,0.22-4.91c0.07-0.63,0.07-1.27,0.07-1.91
								c0.01-1.73,0.13-3.45,0.31-5.17c0.03-0.25,0.25-1.48-0.1-1.51c-0.33-0.03-0.36,1.26-0.39,1.48c-0.08,0.56-0.13,1.13-0.16,1.7
								c-0.02,0.31-0.12,0.48-0.46,0.41c-0.6-0.13-1.86-0.31-2.06,0.27c-0.03,0.09-0.06,0.16-0.09,0.23
								c0.06-0.03,0.12-0.05,0.14-0.05c0.57-0.02,1.13,0.03,1.58,0.05c0.63,0.06,0.74,0.08,0.74,0.27c0.01,0.47,0.13,0.94,0.05,1.42
								c-0.05,0.29-0.18,0.32-0.41,0.29c-0.36-0.06-0.72-0.1-1.08-0.17c-1.01-0.18-1.1-0.15-1.6,0.76
								c-0.09,0.16-0.15,0.33-0.24,0.49c-0.15,0.25-0.27,0.52-0.48,0.74c-0.52,0.53-1.17,0.41-1.44-0.28
								c-0.14-0.36-0.24-0.73-0.27-1.12c-0.02-0.33-0.17-0.54-0.56-0.65c-0.59-0.17-1.18-0.31-1.78-0.43
								c-0.26-0.05-0.35-0.12-0.33-0.38c0.03-0.43,0.05-0.86,0.03-1.29c-0.02-0.34,0.13-0.37,0.41-0.33
								c0.43,0.06,0.86,0.11,1.28,0.16c0.62,0.07,0.62,0.07,0.72,0.7c0.08,0.51,0.18,0.61,0.69,0.66c0.25,0.03,0.51,0,0.75,0.06
								c0.54,0.14,0.94,0.03,1.19-0.44c-0.12-0.09-0.26-0.26-0.44-0.52c-0.01-0.02-0.03,0.04-0.04,0.06
								c-0.12,0.32-0.37,0.34-0.67,0.32c-0.84-0.06-0.86-0.06-0.94-0.93c-0.03-0.28-0.13-0.44-0.4-0.45
								c-0.75-0.03-1.48-0.28-2.24-0.19c-0.25,0.03-0.33-0.08-0.31-0.31c0.04-0.66,0.07-1.32,0.12-1.97c0.04-0.46,0.05-0.46,0.5-0.4
								c0.77,0.11,1.24,0.15,2.01,0.18c-0.03-0.11-0.32-0.76-0.37-0.98c-0.18-0.01,0,0-0.18-0.02c-0.1,0.15-0.3,0.23-0.52,0.13
								c-0.25-0.11-1.1-0.23-1.16-0.23c-0.26,0-0.46-0.49-0.67-0.57c-2.83-0.13-3.14-3.64-3.23-3.77c-0.49-0.73-1.16-2.78-1.29-3.3
								c-0.1-0.42-0.21-0.71-0.21-0.71s-0.22-1.27-0.53,0.08c-0.19,0.08-0.4,0.25-0.46,0.37c-0.18,0.06-0.3,0.19-0.45,0.32
								c-0.39,0.34-0.83,0.59-1.24,0.9c-0.4,0.3-0.8,0.6-1.21,0.88c-0.2,0.13-0.39,0.2-0.51,0.42c-0.02,0.03,0,0.09,0.04,0.1
								c0.01,0,0.02,0,0.03,0.01C9.6,62.9,9.47,63,9.34,63.11c-0.05,0.05-0.07,0.1-0.07,0.16c-0.04,0-0.09,0-0.13,0.02
								c-0.08-0.06-0.19-0.06-0.28,0.04c-0.26,0.29-0.51,0.6-0.76,0.9c-0.05-0.02-0.12-0.01-0.18,0.02
								c-0.35,0.21-0.64,0.44-0.9,0.71c-0.11,0.08-0.21,0.15-0.32,0.23c-0.02,0.01-0.05,0.03-0.07,0.04
								C6.6,65.2,6.55,65.2,6.51,65.21c-0.23,0.08-0.27,0.09-0.45,0.26c-0.01,0.01-0.02,0.03-0.03,0.04
								c-0.06,0.04-0.12,0.08-0.19,0.12c-0.06,0.03-0.7,0.13-1.04,0.14c-0.12,0.17-0.15,0.33-0.1,0.71
								c-0.26,1.88,0.18,3.76,0.06,5.64c-0.11,1.79-0.03,3.58-0.01,5.38c0.01,1.02,0.01,2.04,0.13,3.06
								c0.05,0.43,0.14,0.85,0.23,1.27c0.06,0.29,0.24,0.51,0.56,0.52c0.78,0.03,1.51,0.31,2.28,0.39c0.28,0.03,0.56,0.05,0.8-0.08
								c0.37-0.2,0.74-0.16,1.13-0.11c1.26,0.17,2.53,0.31,3.79,0.47c0.43,0.05,0.86,0.11,1.08,0.59c0.08,0.18,0.26,0.25,0.45,0.27
								c1.13,0.13,2.22,0.49,3.36,0.58c0.26,0.02,0.49,0.01,0.72-0.12c0.37-0.21,0.76-0.22,1.18-0.2c1.75,0.08,3.46,0.49,5.22,0.52
								c0.32,0.01,0.64,0.05,0.83,0.38c0.12,0.22,0.35,0.27,0.58,0.31c1.36,0.27,2.72,0.5,4.09,0.7c0.31,0.04,0.59,0.01,0.85-0.17
								c0.5-0.35,1.04-0.42,1.62-0.24c0.17,0.05,0.36,0.08,0.54,0.07c0.75-0.03,1.5,0.09,2.24,0.18c0.41,0.05,0.83,0.15,1.22,0.09
								c0.74-0.11,1.33,0.14,1.86,0.61c0.14,0.12,0.26,0.26,0.47,0.2c0.66-0.18,1.31-0.02,1.97,0.01c0.73,0.03,1.62-0.45,1.72-1.14
								c0.19-1.3,1.02-2.18,1.77-3.14c0.63-0.8,1.27-1.59,1.92-2.38C47.27,79.95,47.2,79.76,47.15,79.56z M9.84,62.7
								C9.84,62.7,9.85,62.7,9.84,62.7C9.85,62.7,9.85,62.7,9.84,62.7C9.84,62.7,9.84,62.7,9.84,62.7z"/>
						</g>
						<g>
							<path d="M41.36,46.93c2.74,0.05,5.05,0.18,7.78,0.4c0.3,0.02,0.3-0.45,0-0.47c-2.73-0.22-5.19-0.35-7.93-0.4
								C40.9,46.45,41.36,46.93,41.36,46.93z"/>
						</g>
						<g>
							<path d="M33.01,47.11c2.08-0.1,2.23-0.18,4.31-0.2c0.3,0,0.31-0.48,0-0.47c-2.08,0.02-2.23,0.1-4.31,0.2
								c-0.3,0.01-0.61,0.28-0.3,0.26L33.01,47.11z"/>
						</g>
						<g>
							<path d="M46.12,57.99c1.52,1.08,3.17,2.02,4.86,2.8c0.28,0.13,0.52-0.28,0.24-0.41c-1.69-0.78-3.34-1.72-4.86-2.8
								C46.11,57.4,45.88,57.82,46.12,57.99L46.12,57.99z"/>
						</g>
						<g>
							<path d="M55.3,44.77c-0.92-0.48-1.66-1.21-2.65-1.59c-0.72-0.28-1.54-0.75-2.31-0.46c-0.16,0.06-0.16,0.27,0,0.33
								c0.95,0.37,1.96,0.59,2.88,1.07c0.58,0.3,1.36,1.17,2.06,0.92C55.38,45,55.42,44.83,55.3,44.77L55.3,44.77z"/>
						</g>
						<g>
							<path d="M29.38,42.48c-0.66,0.09-3.81,0.53-4.47,0.63c-0.3,0.05-0.17,0.5,0.13,0.46c0.62-0.1,3.72-0.53,4.34-0.62
								C29.67,42.92,29.68,42.45,29.38,42.48L29.38,42.48z"/>
						</g>
						<g>
							<path d="M38.19,42.19c-2.7,0.01-2.88-0.06-5.57,0.15c-0.3,0.02-0.3,0.5,0,0.47c2.69-0.21,2.87-0.15,5.57-0.15
								C38.5,42.67,38.5,42.19,38.19,42.19L38.19,42.19z"/>
						</g>
						<g>
							<path d="M50.56,42.5c-1.92-0.06-3.67-0.08-5.59-0.14c-0.31-0.01-0.2,0.36,0.1,0.37c1.92,0.06,3.57,0.19,5.49,0.25
								C50.87,42.98,50.87,42.51,50.56,42.5L50.56,42.5z"/>
						</g>
						<g>
							<path d="M51.2,60.69c0.02,0.29,0.19,0.48,0.01,0.76c-0.07,0.11,0.03,0.22,0.13,0.23c0.24,0.03,0.37-0.28,0.39-0.47
								c0.01-0.19-0.11-0.5-0.26-0.63C51.36,60.51,51.19,60.54,51.2,60.69L51.2,60.69z"/>
						</g>
						<g>
							<path d="M54.13,48.08c0.82,0.55,1.22-1.38,1.4-1.8c0.16-0.37,0.34-0.72,0.18-1.12c-0.14-0.35-0.41-0.57-0.79-0.58
								c-0.31-0.01-0.36,0.44-0.07,0.53c0.62,0.19,0.2,0.85,0.04,1.23c-0.08,0.19-0.36,1.4-0.6,1.35
								C54.05,47.64,53.92,47.94,54.13,48.08L54.13,48.08z"/>
						</g>
						<g>
							<path d="M54.43,47.76c-0.68-0.59-1.56-0.85-2.37-1.21c-0.68-0.3-1.45-0.64-2.2-0.65c-0.26-0.01-0.24,0.36,0,0.39
								c1.58,0.2,2.99,1.14,4.5,1.59C54.42,47.9,54.48,47.8,54.43,47.76L54.43,47.76z"/>
						</g>
						<g>
							<path d="M47.45,54.25c0.02-0.03,2.15,0.84,2.34,0.91c0.6,0.23,1.42,0.47,1.93,0.88c0.11,0.09,0.33,0.05,0.32-0.13
								c-0.05-0.57-0.73-0.67-1.17-0.84c-1.11-0.43-2.23-0.88-3.4-1.09c-0.09-0.02-0.17,0.05-0.14,0.14
								c0.01,0.03,0.02,0.07,0.03,0.1C47.37,54.27,47.42,54.29,47.45,54.25L47.45,54.25z"/>
						</g>
						<g>
							<path d="M48.6,49.93c0.04-0.01,0.29,0.15,0.37,0.18c0.52,0.18,1.1,0.24,1.63,0.39c1.05,0.3,2.46,0.53,3.2,1.38
								c0.17,0.19,0.45-0.05,0.34-0.26c-0.59-1.14-1.86-1.24-3.04-1.55c-0.65-0.18-1.9-0.71-2.53-0.19
								C48.54,49.89,48.57,49.94,48.6,49.93L48.6,49.93z"/>
						</g>
						<g>
							<path d="M53.92,51.91c-0.13-0.06-0.53,1.69-0.56,1.82c-0.09,0.41-0.16,0.82-0.25,1.22c-0.04,0.2-0.14,1.06-0.42,0.78
								c-0.23-0.24-0.59,0.12-0.36,0.36c0.51,0.57,0.94,0.26,1.12-0.38c0.18-0.6,0.25-1.25,0.37-1.86c0.12-0.65,0.31-1.31,0.33-1.97
								c0-0.05-0.04-0.08-0.09-0.09c-0.04,0-0.08,0-0.12,0C53.89,51.79,53.87,51.88,53.92,51.91L53.92,51.91z"/>
						</g>
						<g>
							<path d="M46.4,66.35c-0.24,1.28,0.07,2.4,0.53,3.61c0.33,0.86,0.58,2.04,1.45,2.51c0.12,0.06,0.28-0.06,0.28-0.19
								c0-0.7,0.36-1.4,0.44-2.11c0.09-0.73,0.16-1.45,0.2-2.19c0.06-1.01,0.13-2.09-0.33-3.03c-0.47-0.97-1.29-1.32-2.27-0.81
								c-1.05,0.54-1.45,1.68-1.76,2.74c-0.08,0.28,0.37,0.49,0.49,0.21c0.3-0.68,0.57-1.61,1.13-2.1c0.94-0.82,1.85-0.19,2.09,0.89
								c0.24,1.1,0.18,2.38,0.08,3.5c-0.06,0.68-0.11,1.43-0.27,1.88c-0.05,0.15,0.04,0.59-0.1,0.62c-0.13,0.03-0.56-0.79-0.61-0.91
								c-0.3-0.74-0.62-1.6-0.84-2.37c-0.21-0.74-0.22-1.46-0.33-2.22C46.56,66.21,46.43,66.19,46.4,66.35L46.4,66.35z"/>
						</g>
						<g>
							<path d="M35.52,57.33c0.82-0.13,1.4-0.27,2.24-0.1c0.75,0.15,1.51,0.3,2.25,0.51c1.7,0.46,2.68,1.7,3.46,3.25
								c1.27,2.53,1.73,5.86,0.42,8.5c-0.1,0.21,0.18,0.48,0.35,0.27c0.57-0.73,0.63-1.53,0.79-2.44c0.12-0.68,0.25-1.35,0.21-2.04
								c-0.1-1.75-0.68-3.5-1.57-5.01c-0.42-0.72-0.81-1.4-1.43-1.96c-0.54-0.49-1.58-0.9-2.27-1.08c-1.49-0.38-3.24-1.03-4.52-0.02
								C35.37,57.25,35.45,57.34,35.52,57.33L35.52,57.33z"/>
						</g>
						<g>
							<path d="M36.58,56.84c0.02-0.09-1.52,0.12-1.74,0.19c-0.74,0.21-1.51,0.52-2.18,0.89c-1.14,0.63-2.08,1.64-2.74,2.75
								c-0.74,1.23-1.18,2.63-1.26,4.07c-0.06,1.12-0.02,2.98,0.82,3.83c0.22,0.23,0.55-0.11,0.35-0.35
								c-0.81-0.94-0.75-2.94-0.55-4.08c0.24-1.4,0.65-2.65,1.48-3.82c0.68-0.96,1.74-1.78,2.79-2.27c0.71-0.34,1.45-0.59,2.22-0.75
								c0.35-0.07,0.68-0.08,0.97-0.3c0.08-0.06,0.06-0.19-0.05-0.2c-0.02,0-0.04,0-0.05,0C36.6,56.81,36.59,56.82,36.58,56.84
								L36.58,56.84z"/>
						</g>
						<g>
							<path d="M38.15,61.77c-0.01,0.12,0,0.29,0.2,0.29c0.3,0,0.41-0.05,0.55-0.48c0.13-0.38,0.29-1.26,0.46-1.63
								c0.29-0.64,0.92-1.09,1.46-0.78c0.1,0.06,0.26,0.01,0.22-0.09c-0.28-0.76-1.54-0.23-1.82,0.02
								c-0.36,0.31-0.49,0.73-0.64,1.17C38.48,60.56,38.18,61.5,38.15,61.77z"/>
						</g>
						<g>
							<path d="M33.64,63.94c-0.28-0.42-1.01-0.59-1.4-0.44c-0.34,0.12-0.75,0.36-0.99,0.64c-0.19,0.23-0.46,0.64-0.48,1
								c-0.01,0.31,0.26,0.99,0.41,0.72c0.1-0.19,0.04-0.51,0.25-0.98c0.15-0.35,0.46-0.56,0.78-0.72c0.43-0.21,0.87-0.42,1.34-0.12
								C33.64,64.09,33.7,64.04,33.64,63.94L33.64,63.94z"/>
						</g>
						<g>
							<path d="M28.32,68.64c0.16-0.24-0.19-0.61-0.32-0.81c-0.24-0.37-0.48-0.72-0.76-1.07c-0.48-0.6-1.25-1.07-1.98-0.6
								c-0.24,0.16-0.09,0.61,0.21,0.49c0.77-0.3,1.2,0.3,1.64,0.84c0.28,0.35,0.54,0.67,0.83,1c0.06,0.07,0.17,0.04,0.22-0.03
								L28.32,68.64z"/>
						</g>
						<g>
							<path d="M25.94,67.89c-0.85,0.91-0.96,2.34-1.15,3.52c-0.06,0.38-0.21,1.65-0.57,1.76c-0.15,0.04-1.05-1.66-1.22-1.9
								c-0.77-1.07-2.69-4.12-0.5-4.67c0.53-0.13,1.21,0.04,1.74,0.06c0.62,0.02,1.23-0.03,1.85-0.17c0.2-0.05,0.16-0.36-0.05-0.36
								c-0.98-0.01-1.91,0.02-2.89-0.02c-0.49-0.02-1.03-0.03-1.44,0.28c-1.53,1.15-0.29,3.42,0.42,4.6
								c0.25,0.42,0.57,0.79,0.83,1.21c0.27,0.44,0.48,1.01,0.88,1.37c0.29,0.26,0.49,0.36,0.81,0.05c0.44-0.44,0.58-1.6,0.68-2.17
								c0.2-1.18,0.42-2.29,0.84-3.41C26.22,67.9,26.03,67.8,25.94,67.89L25.94,67.89z"/>
						</g>
						<g>
							<path d="M18.94,68.15c-1.23-0.47-2.14-1.27-2.9-2.31c-0.93-1.29-1.47-2.95-1.86-4.49c-0.52-2.09-0.92-3.04-0.19-5.8
								c0.18-0.68,0.7-1.2,0.62-0.92c-0.65,2.23-0.3,4.42,0.27,6.63c0.37,1.42,0.89,2.76,1.74,3.96c0.76,1.08,1.62,2.19,2.78,3.26
								c0.09,0.08-0.25-0.03-0.36-0.07L18.94,68.15z"/>
						</g>
						<g>
							<path d="M13.79,59.43c-1.43-1.49-3.4-2.53-4.62-4.2c-1.48-2.03-0.42-4.07-0.65-6.32c-0.25-2.43-2.88-3.53-3.83-5.64
								c-0.59-1.3-0.88-3.19,0.52-4.07c0.22-0.14,0.52,0.15,0.32,0.35c-1.43,1.45-0.52,3.64,0.66,4.96
								c1.31,1.47,2.86,2.58,2.91,4.73c0.05,2.2-0.84,4.17,0.78,6.06c1.24,1.45,3.12,2.3,4.06,4
								C13.99,59.39,13.88,59.52,13.79,59.43L13.79,59.43z"/>
						</g>
						<g>
							<path d="M20.84,51.73c-0.17,2.43-2.82,4.52-4.89,2.59c-1.06-0.99-1.53-2.48-1.95-3.82c-0.48-1.51-0.96-3.03-1.2-4.6
								c-0.46-3.1,0.53-6.13,3.04-8.1c2.34-1.84,5.35-1.53,7.38,0.6c1.87,1.97,2.9,5.29,1.74,7.87c-0.18,0.4-1.09,1.04-0.93,0.61
								c1.1-3.03,0.28-6.24-1.69-8.09c-2.76-2.59-6.32-0.9-8.01,2.03c-1.67,2.89-0.62,6.2,0.29,9.15c0.42,1.37,0.85,3.07,2.03,3.99
								c1.91,1.48,3.15-0.92,3.91-2.32C20.64,51.48,20.85,51.56,20.84,51.73L20.84,51.73z"/>
						</g>
						<g>
							<path d="M21.72,52.44c-0.63-2.43,0.17-4.49,2.45-5.65c1.55-0.79,3.33-1.22,4.2-2.87c0.67-1.26,0.81-2.73,1.13-4.1
								c0.99-4.26,6.94-8.46,11.07-5.66c0.22,0.15,0,0.43-0.2,0.42c-2.74-0.18-6,1.66-7.22,4.13c-1.04,2.1-0.06,4.41,0.13,6.58
								c0.15,1.76-0.26,3.54-1.65,4.72c-1.48,1.26-4.29,1.88-4.7,4.04c-0.09,0.46-0.78,0.32-0.71-0.14
								c0.35-2.07,2.55-2.86,4.12-3.85c2.63-1.67,2.37-4.19,1.97-6.91c-0.34-2.3-0.26-4.3,1.38-6.1c1.79-1.96,4.18-2.6,6.71-2.94
								c-0.03,0.15-0.06,0.3-0.09,0.45c-2.33-1.35-5.03-0.53-7.09,0.94c-1.05,0.75-1.93,1.75-2.49,2.92
								c-0.54,1.1-0.66,2.33-0.92,3.51c-0.44,1.97-1.25,3.71-3.12,4.66c-1.21,0.61-2.7,0.95-3.63,2c-0.91,1.01-1,2.48-0.88,3.77
								C22.2,52.61,21.79,52.7,21.72,52.44L21.72,52.44z"/>
						</g>
						<g>
							<path d="M25.11,52.75c2.31,0.63,2.55,3.95,2.44,5.86c-0.05,0.95-0.13,1.81,0.28,2.7c0.33,0.72,0.91,1.25,1.39,1.88
								c0,0,0.08,1.57-0.13,1.1c-0.29-0.64-0.82-1.14-1.32-1.78c-0.68-0.88-0.97-1.86-0.95-2.97c0.02-1.02,0.15-2.01,0.03-3.03
								c-0.17-1.5-0.78-2.35-1.78-3.43C24.96,52.95,24.9,52.69,25.11,52.75L25.11,52.75z"/>
						</g>
						<g>
							<path d="M15.33,53.62c-1.47,0-2.35-1.21-2.76-2.49c-0.56-1.76-0.33-3.78-1.94-5.03c-1.26-0.97-2.94-1.24-4.15-2.3
								c-1.23-1.08-1.8-2.88-1.21-4.43c0.08-0.21,0.42-0.09,0.37,0.12c-0.57,2.2,0.73,3.88,2.64,4.77c1.13,0.53,2.37,0.85,3.26,1.78
								c0.93,0.96,1.09,2.21,1.39,3.45c0.16,0.63,0.31,1.31,0.57,1.91c0.4,0.93,1.03,1.31,1.94,1.67
								C15.72,53.17,15.63,53.62,15.33,53.62L15.33,53.62z"/>
						</g>
						<g>
							<path d="M17.02,41.78c-0.16-0.03-0.2-0.17-0.29-0.29c-0.11-0.15-0.29-0.33-0.46-0.39c-0.12-0.04-0.44-0.12-0.56-0.05
								c-0.16,0.1-0.35,0.23-0.43,0.57c-0.02,0.1-0.31-0.04-0.28-0.16c0.15-0.58,0.74-0.92,1.15-0.77c0.25,0.09,0.51,0.26,0.7,0.44
								c0.15,0.15,0.41,0.41,0.27,0.63C17.09,41.77,17.05,41.79,17.02,41.78L17.02,41.78z"/>
						</g>
						<g>
							<path d="M17.63,48.09c0.13,0.03,0.68,0.27,0.99,1.42c0.18,0.67,0.22,1.26,0.04,1.93c-0.28,1.07-1.39,1.47-2,1.05
								c-0.59-0.41-0.6-1.78-0.25-2.94C16.57,48.98,16.98,48,17.63,48.09z"/>
						</g>
						<g>
							<path d="M16.81,44.19c0.03,0.49-0.2,1.07-0.61,1.35c-0.09,0.06-0.51-0.03-0.59-0.11c-0.73-0.69-0.43-2.4,0.47-2.76
								c0.26-0.1,0.56,0.32,0.62,0.45C16.89,43.56,16.79,43.78,16.81,44.19z"/>
						</g>
						<g>
							<path d="M21.26,45.17c-0.08,0.44-0.41,0.88-0.95,0.77c-0.55-0.12-0.52-0.83-0.46-1.26c0.07-0.52,0.3-1.22,0.75-1.56
								c0.17-0.13,0.41-0.12,0.57,0.21C21.16,43.34,21.44,44.13,21.26,45.17z"/>
						</g>
						<g>
							<path d="M22.3,42.84c0.01-0.54-0.04-1.06-0.63-1.23c-0.44-0.13-1.02,0.01-1.3,0.1c-0.22,0.07-0.33-0.31-0.09-0.36
								c0.75-0.18,1.21-0.21,1.73,0.05c0.55,0.28,0.66,0.89,0.52,1.45C22.49,42.96,22.3,42.97,22.3,42.84L22.3,42.84z"/>
						</g>
						<path d="M33.71,65.08c-0.46-0.13-0.86,0.23-0.96,0.32c-0.49,0.46-0.14,1.31,0.14,1.73c0.48,0.73,0.84,1.11,1.12,1.25
							c0.89,0.44,1.2-0.24,1.3-0.91C35.45,66.62,34.57,65.33,33.71,65.08z"/>
						<path d="M39.48,68.56c-0.36-0.45-0.79-1.1-1.42-1.14c-0.57-0.04-0.86,0.54-0.96,1.01c-0.06,0.27-0.12,0.58-0.07,0.85
							c0.05,0.27,0.04,0.54,0.29,0.69c0.07,0.04,2.7,0.37,2.73,0.23C40.19,69.63,39.83,68.99,39.48,68.56z"/>
						<path d="M41.79,64.46c-0.01-0.62-0.05-1.47-0.52-2.06c-0.48-0.65-1.29-0.48-1.61,0.15c-0.35,0.67-0.49,1.57-0.46,2.33
							c0.03,0.79,0.48,1.83,1.43,1.7C41.6,66.44,41.81,65.29,41.79,64.46z"/>
						<g>
							<path d="M38.95,41.43c-1.4,0.61-1.75,1.5-2.14,2.44c-0.49,1.2-0.14,2.32,0.63,3.32c0.55,0.71,1.39,1.29,1.2,2.3
								c-0.14,0.72-0.62,1.33-0.74,2.08c-0.17,1.11,0.43,1.92,1.36,2.49c0.27,0.16,0.43-0.11,0.15-0.26
								c-0.63-0.34-1.64-1.19-0.63-3.28c0.31-0.63,0.51-1.35,0.24-2.03c-0.37-0.95-1.34-1.63-1.73-2.59
								c-0.6-1.48,0.65-3.39,2.07-3.96c0.21-0.08,0.06-0.12-0.19-0.13L38.95,41.43z"/>
						</g>
						<g>
							<path d="M39.59,53.92c-0.31-0.57-0.74-1.38-0.52-2.05c0.28-0.84,1.3-0.93,1.97-1.23c0.71-0.31,1.28-0.84,1.35-1.66
								c0.08-0.84-0.43-1.35-0.81-2.02c-0.27-0.49-0.46-1.22-0.08-1.66c0.08-0.09,0.26-0.29,0.35-0.39c0.18-0.2,0.25-0.13,0.22-0.41
								c-0.03-0.29-0.16-0.69-0.27-0.43c-0.16,0.4-0.51,0.79-0.74,1.16c-0.21,0.33-0.27,0.85-0.13,1.21
								c0.21,0.54,0.31,0.91,0.6,1.41c0.73,1.26-0.11,2.14-1.28,2.6c-0.78,0.31-1.54,0.64-1.65,1.57c-0.09,0.75,0.24,1.58,0.86,2.01
								C39.54,54.1,39.63,54,39.59,53.92L39.59,53.92z"/>
						</g>
						<g>
							<path d="M43.42,40.89c1.32,0.94,0.92,1.06,1.32,2.08c0.24,0.61,0.24,1.04,0.87,1.31c0.52,0.23,0.92,0.05,1.42-0.19
								c0.55-0.27,1.23-0.65,1.88-0.68c0.88-0.04,1.61,0.68,2.17,1.28c0.22,0.23,0.18-0.16-0.01-0.42c-0.52-0.73-0.98-1.24-1.9-1.37
								c-0.98-0.14-1.48,0.36-2.31,0.71c-1.71,0.72-1.73-0.9-2.27-2.01c-0.27-0.54-0.52-0.69-1.02-0.79
								C43.42,40.78,43.42,40.89,43.42,40.89z"/>
						</g>
						<g>
							<path d="M51.06,44.37c-0.54-0.52-1.11-0.77-1.88-0.59c-0.87,0.2-1.26,1.03-1.89,1.57c-1.26,1.08-1.57,0.05-2.69-0.26
								c-0.31-0.09-0.58-0.03-0.89,0.08c-0.27,0.09-0.7,0.28-1.2-0.23c-0.15-0.15-0.21-0.77-0.3-0.98c-0.13-0.28-0.45,0.02-0.39,0.3
								c0.14,0.61,0.49,1.42,1.23,1.46c0.4,0.02,0.7-0.17,1.12-0.16c0.7,0.03,0.91,0.45,1.51,0.71c0.54,0.23,1.07,0.11,1.54-0.22
								c0.44-0.31,0.72-0.77,1.08-1.15c0.28-0.29,0.56-0.67,0.99-0.73c0.62-0.09,1.26,0.23,1.77,0.52
								C51.18,44.76,51.06,44.37,51.06,44.37L51.06,44.37z"/>
						</g>
						<g>
							<path d="M44.76,42.65c4.27,0.83,5.97-5.61,2.24-7.5c-1.52-0.77-3.32-0.19-4.51,0.91c-1.68,1.55-1.37,4.41-3.54,5.37
								c-0.33,0.14-0.09,0.68,0.24,0.58c1.34-0.43,1.84-1.43,2.23-2.7c0.51-1.65,1.37-3.19,3.14-3.71c1.92-0.57,3.75,0.91,3.93,2.87
								c0.2,2.2-1.71,3.68-3.7,3.89C44.64,42.37,44.58,42.61,44.76,42.65L44.76,42.65z"/>
						</g>
						<path d="M45.48,38.47c-0.17-0.23-0.34-0.27-0.54-0.21c-0.17,0.05-0.16,0.21-0.17,0.35c0,0.29,0.3,0.75,0.57,0.9
							c0.14,0.08,0.29,0.04,0.33-0.12C45.74,39.11,45.66,38.7,45.48,38.47z"/>
						<path d="M47.19,37.99c-0.09-0.2-0.24-0.36-0.53-0.21c-0.13,0.07-0.16,0.22-0.1,0.35c-0.02,0.05,0.18,0.65,0.44,0.82
							c0.14,0.09,0.25,0.02,0.31-0.12C47.39,38.66,47.32,38.28,47.19,37.99z"/>
						<path d="M46.69,40.35c-0.05-0.1-0.17-0.19-0.27-0.2c-0.14-0.01-0.27,0.11-0.28,0.21c-0.01,0.1-0.08,0.44-0.07,0.44
							c-0.04,0.15-0.15,0.41-0.05,0.56c0.07,0.11,0.24,0.19,0.36,0.09C46.73,41.18,46.87,40.75,46.69,40.35z"/>
						<g>
							<path d="M48.96,38.54c0.46-1.2,2.25-0.64,3.16-1.33c0.8-0.61,1.12-1.97,0.78-2.9c-0.05-0.15-0.31-0.19-0.35,0
								c-0.09,0.49-0.19,1.07-0.58,1.42c-0.45,0.4-1.1,0.44-1.66,0.47c-0.83,0.04-1.41,0.16-1.88,0.89c-0.15,0.24,0.2,0.52,0.39,0.3
								c0.54-0.62,1.04-0.64,1.79-0.73c0.4-0.04,0.8-0.13,1.16-0.32c0.75-0.41,0.98-1.14,1.13-1.94c-0.12-0.03-0.23-0.06-0.35-0.1
								c-0.14,0.64,0.01,1.32-0.3,1.93c-0.39,0.77-1.11,0.89-1.88,1c-0.79,0.11-1.7,0.31-1.74,1.26
								C48.63,38.69,48.9,38.7,48.96,38.54L48.96,38.54z"/>
						</g>
						<g>
							<path d="M44.05,37.05c-0.32-0.03-0.63,0.31-0.75,0.57c-0.13,0.29-0.18,0.71,0.04,0.97c0.1,0.13,0.13,0.13,0.15-0.03
								c0.03-0.22,0.03-0.55,0.12-0.77c0.09-0.23,0.27-0.4,0.42-0.57C44.14,37.11,44.21,37.07,44.05,37.05L44.05,37.05z"/>
						</g>
						<g>
							<path d="M46.86,36.72c0.11,0.06,0.23,0.15,0.31,0.24c0.08,0.1,0.29,0.46,0.3,0.34c0.04-0.32-0.2-0.76-0.43-0.87
								c-0.27-0.13-0.65-0.16-0.92,0c-0.09,0.05-0.09,0.12,0.02,0.15C46.14,36.59,46.63,36.6,46.86,36.72z"/>
						</g>
						<g>
							<path d="M45.9,68c-0.31,0.44-0.61,0.88-0.92,1.33c0-0.66,0.28-1.79,0.49-2.42c0.1-0.29-0.56,0.08-0.65,0.37
								c-0.2,0.61-0.53,1.77-0.54,2.4c-0.55-0.25-2.12-0.36-3.68-0.06c-0.02,0-1.43,0.28-2.57,0.28c-1.55,0-3.16-0.42-4.58-1.01
								c-0.02-0.01-0.03-0.02-0.05-0.03c-1.23-0.29-2.48-0.48-3.74-0.6c-0.21-0.29-0.42-0.58-0.64-0.85
								c-0.17-1.22-0.29-2.54-0.18-3.81c0.34-1.26,0.95-2.48,1.58-3.61c0.08-0.15-0.02-0.37-0.2-0.36
								c-0.31,0.02-0.62,0.04-0.93,0.06c-0.13,0.01-2.06-0.28-2.05-0.14c0.01,0.39,0.34,1.2,0.29,1.58c0.51,0.66,0.9,2.19,1.43,2.77
								c0.14,0.39-0.59,2.47,0.51,4.43c-0.88,0.11-2.95,0.3-3.84,0.33c-0.08,0,0,0-0.08,0c-0.1,0.22-0.1,0.38-0.19,0.6
								c0.46,0.03,0.67,0.12,1.14,0.15c0.38,0.03,0.71,0.08,1-0.24c0.13-0.15,0.35-0.22,0.56-0.23c1.31-0.04,2.64-0.17,3.82,0.63
								c0.13,0.09,0.28,0.14,0.43,0.19c1.02,0.32,2.08,0.51,3.13,0.59c1.51,0.12,2.99,0.53,4.53,0.37c0.11,0.15,0.03,0.3,0.03,0.45
								c-0.04,0.98-0.31,1.92-0.33,2.91c-0.03,1.18,0.07,2.37-0.09,3.54c-0.08,0.56-0.13,1.13-0.13,1.7
								c-0.01,1.92,0.07,4.54-0.27,6.45c0,0.02,0.06,0.05,0.11,0.07c0.48-0.8,0.44-2.39,0.51-3.26c0.12-1.38,0.02-2.77,0.19-4.15
								c0.07-0.54,0.11-1.09,0.12-1.63c0.04-2.04,0.13-4.08,0.35-6.12c0.03-0.31,0.11-0.39,0.36-0.44c0.9-0.18,1.75-0.08,2.56,0.41
								c0.71,0.43,0.82,0.39,1.42-0.15c0.65-0.58,1.11-1.32,1.63-2c0.09-0.11,0.09-0.11,0.18-0.22c-0.12-0.04-0.04-0.85-0.1-0.98
								C46.39,67.44,46.02,67.83,45.9,68z"/>
							<path d="M49.53,62.21c-0.3-0.4-1.06-0.6-1.52-0.7c-0.98-0.2-1.97-0.36-2.96-0.53c-0.11-0.02-0.2,0.03-0.25,0.1
								c-0.16-0.06-0.32-0.15-0.47-0.28c-0.19-0.17-0.52,0.05-0.37,0.29c0.4,0.63,0.7,1.32,0.9,2.03c-0.03,0.04-0.05,0.09-0.05,0.15
								c0.05,0.48,0.15,0.92,0.3,1.36c0.02,0.39,0,0.79-0.05,1.19c-0.04,0.3,0.41,0.43,0.46,0.13c0.02-0.15,0.03-0.29,0.04-0.44
								c0.1,0.02,0.21-0.02,0.26-0.1c0.38-0.55,1.74-2.26,2.54-1.03c0.1,0.16,0.31,0.15,0.41,0C49.18,63.78,49.88,62.68,49.53,62.21
								z"/>
						</g>
					</g>
				</g>
			</g>
		</g>
	</g>
	<path d="M0.02,0v1.6v96.8v1.6h60v-1.6V1.6V0H0.02z M59.02,98.4h-58V1.6h58V98.4z"/>
	<g>
	</g>
	<g>
	</g>
	<g>
	</g>
	<g>
	</g>
	<g>
	</g>
	<g>
	</g>
	<g>
	</g>
	<g>
	</g>
	<g>
	</g>
	<g>
	</g>
	<g>
	</g>
	<g>
	</g>
	<g>
	</g>
	<g>
	</g>
	<g>
	</g>
	<g>
	</g>
	<g>
	</g>
</g>
</svg>
