<?xml version="1.0" encoding="utf-8"?>
<!-- Generator: Adobe Illustrator 26.2.1, SVG Export Plug-In . SVG Version: 6.00 Build 0)  -->
<svg version="1.1" xmlns="http://www.w3.org/2000/svg" xmlns:xlink="http://www.w3.org/1999/xlink" x="0px" y="0px"
	 viewBox="0 0 60 100" enable-background="new 0 0 60 100" xml:space="preserve">
<g id="Layer_1">
</g>
<g id="BG">
	<rect id="BG_00000082354266892434819460000014407544633745974707_" x="0.02" y="0" fill="#F0EDDA" width="60" height="100"/>
	<rect id="BG_00000037693340041972082810000009059657678697518014_" x="0.02" fill="#F0EDDA" width="60" height="100"/>
</g>
<g id="THINGS">
	<path d="M0.02,0v1.6v96.8v1.6h60v-1.6V1.6V0H0.02z M59.02,98.4h-58V1.6h58V98.4z"/>
	<g>
		<g id="_x36__00000129893504294723348930000002694600991034902694_">
			<g>
				<rect x="0.51" y="0.5" fill="#00A0E3" width="59.02" height="27.6"/>
				<path fill="#222317" d="M59.02,1v26.6H1.01V1H59.02 M60.02,0H0.01v28.6h60.01V0L60.02,0z"/>
			</g>
			<g>
				<rect x="0.51" y="0.5" fill="#00A0E3" width="59.02" height="27.6"/>
				<path fill="#222317" d="M59.02,1v26.6H1.01V1H59.02 M60.02,0H0.01v28.6h60.01V0L60.02,0z"/>
			</g>
			<g>
				<rect x="0.51" y="0.5" fill="#00A0E3" width="59.02" height="27.6"/>
				<path fill="#222317" d="M59.02,1v26.6H1.01V1H59.02 M60.02,0H0.01v28.6h60.01V0L60.02,0z"/>
			</g>
			<g>
				<g>
					<path fill="#231F20" d="M16.83,33.23l0.16,0.86H15.2v4.74l-0.8,0.08v-4.82h-1.79l0.16-0.86H16.83z"/>
					<path fill="#231F20" d="M21.63,36.3v-3.08l0.8-0.08v3.16c0,0.36-0.04,0.69-0.12,0.99s-0.2,0.58-0.37,0.82
						c-0.17,0.25-0.4,0.44-0.7,0.58c-0.3,0.14-0.65,0.21-1.06,0.21s-0.76-0.07-1.06-0.21c-0.3-0.14-0.53-0.33-0.7-0.58
						c-0.17-0.25-0.29-0.52-0.37-0.82s-0.12-0.63-0.12-0.99v-3.08l0.8-0.08v3.16c0,1.16,0.48,1.75,1.45,1.75
						C21.15,38.05,21.63,37.47,21.63,36.3z"/>
					<path fill="#231F20" d="M27.75,38.83l-0.88,0.08l-1.29-2.21h-0.94v2.13l-0.8,0.08v-5.62c0.44-0.1,0.99-0.15,1.65-0.15
						c0.68,0,1.18,0.15,1.49,0.44c0.31,0.29,0.46,0.74,0.46,1.34c0,0.87-0.34,1.42-1.02,1.63L27.75,38.83z M26.65,34.92
						c0-0.3-0.08-0.52-0.25-0.68c-0.17-0.16-0.46-0.24-0.89-0.24c-0.22,0-0.51,0.02-0.88,0.06v1.77h0.98
						C26.31,35.84,26.65,35.54,26.65,34.92z"/>
					<path fill="#231F20" d="M34.45,38.83l-0.87,0.08l-0.41-3.38l-1.6,2.88l-0.06,0.01l-1.58-2.88l-0.4,3.37l-0.87-0.08l0.68-5.68
						h0.08l2.14,3.92l2.15-3.92h0.07L34.45,38.83z"/>
					<path fill="#231F20" d="M36.13,38.08c-0.45-0.55-0.67-1.24-0.67-2.05c0-0.82,0.22-1.5,0.67-2.05s1.04-0.83,1.76-0.83
						c0.72,0,1.31,0.28,1.76,0.83c0.45,0.55,0.67,1.24,0.67,2.05c0,0.82-0.22,1.5-0.67,2.05c-0.45,0.55-1.03,0.83-1.76,0.83
						C37.16,38.91,36.58,38.63,36.13,38.08z M39.08,37.49c0.29-0.37,0.44-0.86,0.44-1.46c0-0.6-0.15-1.09-0.44-1.46
						c-0.29-0.37-0.69-0.56-1.19-0.56c-0.51,0-0.91,0.19-1.2,0.56c-0.29,0.37-0.44,0.86-0.44,1.46c0,0.6,0.15,1.09,0.44,1.46
						c0.29,0.37,0.69,0.56,1.2,0.56C38.39,38.05,38.79,37.86,39.08,37.49z"/>
					<path fill="#231F20" d="M41.57,33.23l0.8-0.08v5.68l-0.8,0.08V33.23z"/>
					<path fill="#231F20" d="M47.45,37.97l-0.16,0.86h-3.44v-5.6l0.8-0.08v4.82H47.45z"/>
					<path fill="#231F20" d="M17.07,40.6l0.16,0.86h-1.79v4.74l-0.8,0.08v-4.82h-1.79l0.16-0.86H17.07z"/>
					<path fill="#231F20" d="M21.8,45.34l-0.16,0.86H18.2v-5.6h3.44l0.16,0.86H19v1.42h2.29v0.86H19v1.6H21.8z"/>
					<path fill="#231F20" d="M26.93,46.2l-0.88,0.08l-1.29-2.21h-0.94v2.13l-0.8,0.08v-5.62c0.44-0.1,0.99-0.15,1.65-0.15
						c0.68,0,1.18,0.15,1.49,0.44c0.31,0.29,0.46,0.74,0.46,1.34c0,0.87-0.34,1.42-1.02,1.63L26.93,46.2z M25.83,42.3
						c0-0.3-0.08-0.52-0.25-0.68c-0.17-0.16-0.46-0.24-0.89-0.24c-0.22,0-0.51,0.02-0.88,0.06v1.77h0.98
						C25.49,43.22,25.83,42.91,25.83,42.3z"/>
					<path fill="#231F20" d="M31.83,46.2l-0.88,0.08l-1.29-2.21h-0.94v2.13l-0.8,0.08v-5.62c0.44-0.1,0.99-0.15,1.65-0.15
						c0.68,0,1.18,0.15,1.49,0.44c0.31,0.29,0.46,0.74,0.46,1.34c0,0.87-0.34,1.42-1.02,1.63L31.83,46.2z M30.73,42.3
						c0-0.3-0.08-0.52-0.25-0.68c-0.17-0.16-0.46-0.24-0.89-0.24c-0.22,0-0.51,0.02-0.88,0.06v1.77h0.98
						C30.38,43.22,30.73,42.91,30.73,42.3z"/>
					<path fill="#231F20" d="M33.29,46.29l-0.84-0.08l2.49-5.68h0.12l2.56,5.68l-0.77,0.08L36.27,45h-2.42L33.29,46.29z
						 M35.04,42.26l-0.88,2.02h1.79L35.04,42.26z"/>
					<path fill="#231F20" d="M38.7,45.53c-0.43-0.51-0.64-1.21-0.64-2.12c0-0.91,0.21-1.62,0.64-2.12s1.04-0.76,1.85-0.76
						c0.29,0,0.56,0.02,0.83,0.07s0.46,0.09,0.58,0.14l0.19,0.06l-0.19,0.81c-0.46-0.15-0.9-0.23-1.31-0.23
						c-0.62,0-1.07,0.17-1.36,0.51c-0.29,0.34-0.43,0.84-0.43,1.51c0,0.67,0.14,1.17,0.43,1.51c0.29,0.34,0.74,0.51,1.36,0.51
						c0.2,0,0.42-0.02,0.65-0.06c0.23-0.04,0.41-0.08,0.54-0.11l0.19-0.06l0.19,0.81c-0.42,0.18-0.97,0.28-1.66,0.28
						C39.75,46.29,39.13,46.03,38.7,45.53z"/>
					<path fill="#231F20" d="M46.84,45.34l-0.16,0.86h-3.44v-5.6h3.44l0.16,0.86h-2.8v1.42h2.29v0.86h-2.29v1.6H46.84z"/>
				</g>
			</g>
			<g>
				<g>
					<path fill="#231F20" d="M15.61,89.47c0,0.38-0.11,0.66-0.33,0.85c-0.22,0.19-0.56,0.28-1.03,0.28h-0.61v1.35l-0.56,0.05v-3.57
						c0.31-0.06,0.7-0.09,1.16-0.09c0.48,0,0.83,0.09,1.04,0.28C15.5,88.81,15.61,89.09,15.61,89.47z M14.88,89.91
						c0.12-0.1,0.18-0.25,0.18-0.43c0-0.19-0.06-0.33-0.18-0.43c-0.12-0.1-0.32-0.15-0.62-0.15c-0.15,0-0.36,0.01-0.61,0.04v1.13
						h0.61C14.55,90.06,14.76,90.01,14.88,89.91z"/>
					<path fill="#231F20" d="M19.1,91.96l-0.62,0.05l-0.9-1.4h-0.66v1.35l-0.56,0.05v-3.57c0.31-0.06,0.7-0.09,1.16-0.09
						c0.48,0,0.83,0.09,1.04,0.28c0.22,0.19,0.33,0.47,0.33,0.85c0,0.56-0.24,0.9-0.71,1.04L19.1,91.96z M18.33,89.47
						c0-0.19-0.06-0.33-0.18-0.43c-0.12-0.1-0.32-0.15-0.62-0.15c-0.15,0-0.36,0.01-0.61,0.04v1.13h0.69
						C18.09,90.06,18.33,89.86,18.33,89.47z"/>
					<path fill="#231F20" d="M19.84,88.39l0.56-0.05v3.62l-0.56,0.05V88.39z"/>
					<path fill="#231F20" d="M21.77,91.52c-0.3-0.32-0.45-0.77-0.45-1.35c0-0.58,0.15-1.03,0.45-1.35s0.73-0.48,1.3-0.48
						c0.2,0,0.39,0.02,0.58,0.04c0.19,0.03,0.32,0.06,0.41,0.09l0.13,0.04l-0.13,0.52c-0.32-0.1-0.63-0.14-0.92-0.14
						c-0.43,0-0.75,0.11-0.95,0.33c-0.2,0.22-0.3,0.54-0.3,0.96c0,0.42,0.1,0.74,0.3,0.96c0.2,0.22,0.52,0.33,0.95,0.33
						c0.14,0,0.29-0.01,0.45-0.04c0.16-0.02,0.29-0.05,0.37-0.07l0.13-0.04l0.13,0.52c-0.29,0.12-0.68,0.18-1.16,0.18
						C22.5,92.01,22.07,91.85,21.77,91.52z"/>
					<path fill="#231F20" d="M27.51,91.41l-0.11,0.55h-2.41v-3.56h2.41l0.11,0.55h-1.96v0.9h1.61v0.55h-1.61v1.02H27.51z"/>
					<path fill="#231F20" d="M30.33,91.62l0.28-0.73c0.32,0.19,0.75,0.31,1.31,0.35v-1.43c-0.23-0.07-0.42-0.14-0.57-0.2
						s-0.31-0.16-0.47-0.27s-0.29-0.25-0.37-0.41c-0.08-0.16-0.13-0.35-0.13-0.56c0-0.45,0.14-0.81,0.42-1.08s0.65-0.43,1.12-0.49
						v-0.66l0.6-0.07v0.72c0.2,0.01,0.39,0.05,0.59,0.09c0.2,0.05,0.35,0.09,0.44,0.13l0.15,0.06l-0.25,0.73
						c-0.26-0.12-0.57-0.19-0.93-0.23v1.49c0.23,0.07,0.42,0.14,0.57,0.21s0.31,0.15,0.48,0.26c0.16,0.11,0.29,0.24,0.37,0.39
						c0.08,0.16,0.13,0.33,0.13,0.53c0,0.94-0.52,1.45-1.54,1.54v0.65l-0.6,0.07v-0.72c-0.25-0.02-0.5-0.06-0.77-0.12
						c-0.27-0.06-0.47-0.12-0.6-0.18L30.33,91.62z M31.18,88.27c0,0.14,0.06,0.25,0.19,0.35s0.31,0.19,0.55,0.27V87.6
						C31.43,87.67,31.18,87.89,31.18,88.27z M33.26,90.58c0-0.13-0.06-0.24-0.19-0.33c-0.13-0.09-0.31-0.17-0.55-0.25v1.24
						C33.01,91.16,33.26,90.94,33.26,90.58z"/>
					<path fill="#231F20" d="M36.7,86.87v5.09l-0.77,0.07V87.8l-1.09,0.26l-0.12-0.76l1.9-0.43H36.7z"/>
					<path fill="#231F20" d="M38.55,91.27C38.19,90.76,38,90.14,38,89.4c0-0.73,0.18-1.35,0.55-1.86c0.37-0.5,0.86-0.76,1.48-0.76
						c0.62,0,1.11,0.25,1.48,0.76c0.37,0.5,0.55,1.12,0.55,1.86c0,0.74-0.18,1.36-0.55,1.87c-0.37,0.51-0.86,0.76-1.48,0.76
						C39.42,92.03,38.92,91.78,38.55,91.27z M41.29,89.4c0-0.54-0.11-0.99-0.33-1.33s-0.53-0.52-0.93-0.52s-0.71,0.17-0.93,0.52
						c-0.22,0.35-0.33,0.79-0.33,1.33c0,0.55,0.11,0.99,0.33,1.34c0.22,0.35,0.53,0.52,0.93,0.52s0.71-0.17,0.93-0.52
						C41.18,90.4,41.29,89.95,41.29,89.4z"/>
					<path fill="#231F20" d="M43.53,91.27c-0.37-0.51-0.55-1.13-0.55-1.86c0-0.73,0.18-1.35,0.55-1.86c0.37-0.5,0.86-0.76,1.48-0.76
						c0.62,0,1.11,0.25,1.48,0.76c0.37,0.5,0.55,1.12,0.55,1.86c0,0.74-0.18,1.36-0.55,1.87c-0.37,0.51-0.86,0.76-1.48,0.76
						C44.39,92.03,43.9,91.78,43.53,91.27z M46.27,89.4c0-0.54-0.11-0.99-0.33-1.33s-0.53-0.52-0.93-0.52s-0.71,0.17-0.93,0.52
						c-0.22,0.35-0.33,0.79-0.33,1.33c0,0.55,0.11,0.99,0.33,1.34c0.22,0.35,0.53,0.52,0.93,0.52s0.71-0.17,0.93-0.52
						C46.16,90.4,46.27,89.95,46.27,89.4z"/>
				</g>
			</g>
		</g>
	</g>
	<path d="M0.02,0v1.6v96.8v1.6h60v-1.6V1.6V0H0.02z M59.02,98.4h-58V1.6h58V98.4z"/>
	<g>
	</g>
	<g>
	</g>
	<g>
	</g>
	<g>
	</g>
	<g>
	</g>
	<g>
	</g>
	<g>
	</g>
	<g>
	</g>
	<g>
	</g>
	<g>
	</g>
	<g>
	</g>
	<g>
	</g>
	<g>
	</g>
	<g>
	</g>
	<g>
	</g>
	<g>
	</g>
	<g>
	</g>
</g>
</svg>
