<?xml version="1.0" encoding="utf-8"?>
<!-- Generator: Adobe Illustrator 26.2.1, SVG Export Plug-In . SVG Version: 6.00 Build 0)  -->
<svg version="1.1" xmlns="http://www.w3.org/2000/svg" xmlns:xlink="http://www.w3.org/1999/xlink" x="0px" y="0px"
	 viewBox="0 0 60 100" enable-background="new 0 0 60 100" xml:space="preserve">
<g id="BG">
	<rect id="BG_00000082354266892434819460000014407544633745974707_" x="0.02" y="0" fill="#F0EDDA" width="60" height="100"/>
	<rect id="BG_00000037693340041972082810000009059657678697518014_" x="0.02" fill="#F0EDDA" width="60" height="100"/>
</g>
<g id="THINGS">
	<path d="M0.02,0v1.6v96.8v1.6h60v-1.6V1.6V0H0.02z M59.02,98.4h-58V1.6h58V98.4z"/>
	<g>
		<g id="_x31_2_00000171677644381935720250000011575581511961802143_">
			<g>
				<g>
					<path fill="#231F20" d="M23.08,9.86l-0.16,0.86h-3.44v-5.6l0.8-0.08v4.82H23.08z"/>
					<path fill="#231F20" d="M24.04,5.12l0.8-0.08v5.68l-0.8,0.08V5.12z"/>
					<path fill="#231F20" d="M27.34,6.41c-0.29,0.34-0.43,0.84-0.43,1.51c0,0.67,0.15,1.17,0.44,1.51c0.29,0.34,0.75,0.51,1.37,0.51
						c0.23,0,0.49-0.03,0.77-0.1V8.62h-1.12v-0.8h1.93v2.7c-0.43,0.18-0.99,0.28-1.68,0.28c-0.81,0-1.43-0.25-1.86-0.76
						s-0.65-1.21-0.65-2.12c0-0.91,0.21-1.62,0.64-2.12c0.43-0.51,1.04-0.76,1.85-0.76c0.29,0,0.56,0.02,0.83,0.07
						s0.47,0.09,0.59,0.14l0.18,0.06l-0.18,0.81c-0.47-0.15-0.92-0.23-1.33-0.23C28.09,5.9,27.63,6.07,27.34,6.41z"/>
					<path fill="#231F20" d="M34.77,5.12l0.8-0.08v5.68l-0.8,0.08V8.23h-2.33v2.49l-0.8,0.08V5.12l0.8-0.08v2.33h2.33V5.12z"/>
					<path fill="#231F20" d="M40.78,5.12l0.16,0.86h-1.79v4.74l-0.8,0.08V5.98h-1.79l0.16-0.86H40.78z"/>
					<path fill="#231F20" d="M12.08,17.42c-0.43-0.51-0.64-1.21-0.64-2.12c0-0.91,0.21-1.62,0.64-2.12
						c0.43-0.51,1.04-0.76,1.85-0.76c0.29,0,0.56,0.02,0.83,0.07s0.46,0.09,0.58,0.14l0.19,0.06l-0.19,0.81
						c-0.46-0.15-0.9-0.23-1.31-0.23c-0.62,0-1.07,0.17-1.36,0.51c-0.29,0.34-0.43,0.84-0.43,1.51c0,0.67,0.14,1.17,0.43,1.51
						c0.29,0.34,0.74,0.51,1.36,0.51c0.2,0,0.42-0.02,0.65-0.06c0.23-0.04,0.41-0.08,0.53-0.11l0.19-0.06l0.19,0.81
						c-0.42,0.18-0.97,0.28-1.66,0.28C13.12,18.18,12.51,17.92,12.08,17.42z"/>
					<path fill="#231F20" d="M16.96,17.35c-0.45-0.55-0.67-1.24-0.67-2.05c0-0.82,0.22-1.5,0.67-2.05c0.45-0.55,1.04-0.83,1.76-0.83
						c0.72,0,1.31,0.28,1.76,0.83c0.45,0.55,0.67,1.24,0.67,2.05c0,0.82-0.22,1.5-0.67,2.05c-0.45,0.55-1.03,0.83-1.76,0.83
						C18,18.18,17.41,17.9,16.96,17.35z M19.91,16.76c0.29-0.37,0.44-0.86,0.44-1.46c0-0.6-0.15-1.09-0.44-1.46
						s-0.69-0.56-1.19-0.56c-0.51,0-0.91,0.19-1.2,0.56c-0.29,0.37-0.44,0.86-0.44,1.46c0,0.6,0.15,1.09,0.44,1.46
						c0.29,0.37,0.69,0.56,1.2,0.56C19.22,17.32,19.62,17.13,19.91,16.76z"/>
					<path fill="#231F20" d="M27.95,18.09l-0.87,0.08l-0.41-3.38l-1.6,2.88l-0.06,0.01l-1.58-2.88l-0.4,3.37l-0.87-0.08l0.68-5.68
						h0.08l2.13,3.92l2.15-3.92h0.06L27.95,18.09z"/>
					<path fill="#231F20" d="M32.85,14.19c0,0.6-0.16,1.04-0.46,1.33c-0.31,0.29-0.8,0.44-1.47,0.44h-0.88v2.13l-0.8,0.08v-5.62
						c0.44-0.1,0.99-0.15,1.65-0.15c0.68,0,1.18,0.15,1.49,0.44C32.69,13.14,32.85,13.59,32.85,14.19z M31.8,14.87
						c0.17-0.16,0.25-0.38,0.25-0.68c0-0.3-0.08-0.52-0.25-0.68c-0.17-0.16-0.46-0.24-0.89-0.24c-0.22,0-0.51,0.02-0.88,0.06v1.77
						h0.88C31.34,15.11,31.63,15.03,31.8,14.87z"/>
					<path fill="#231F20" d="M33.75,18.18l-0.84-0.08l2.49-5.68h0.12l2.56,5.68l-0.77,0.08l-0.58-1.29H34.3L33.75,18.18z
						 M35.49,14.15l-0.88,2.02h1.79L35.49,14.15z"/>
					<path fill="#231F20" d="M43.26,18.18l-3.5-3.85v3.77l-0.8,0.08v-5.76h0.05l3.52,3.84V12.5l0.8-0.08v5.76H43.26z"/>
					<path fill="#231F20" d="M46.96,15.57v2.52l-0.8,0.08v-2.6l-1.89-3.08l0.89-0.08l1.4,2.44L48,12.41l0.85,0.08L46.96,15.57z"/>
				</g>
			</g>
			<g>
				<g>
					<path fill="#231F20" d="M16.13,89.64c0,0.38-0.11,0.66-0.33,0.85c-0.22,0.19-0.56,0.28-1.03,0.28h-0.61v1.35l-0.56,0.05V88.6
						c0.31-0.06,0.7-0.09,1.16-0.09c0.48,0,0.83,0.09,1.04,0.28C16.02,88.97,16.13,89.26,16.13,89.64z M15.4,90.07
						c0.12-0.1,0.18-0.25,0.18-0.43c0-0.19-0.06-0.33-0.18-0.44c-0.12-0.1-0.32-0.15-0.62-0.15c-0.15,0-0.36,0.01-0.61,0.04v1.12
						h0.61C15.07,90.22,15.28,90.17,15.4,90.07z"/>
					<path fill="#231F20" d="M19.62,92.12l-0.62,0.05l-0.9-1.4h-0.66v1.35l-0.56,0.05V88.6c0.31-0.06,0.7-0.09,1.16-0.09
						c0.48,0,0.83,0.09,1.04,0.28c0.22,0.19,0.33,0.47,0.33,0.85c0,0.55-0.24,0.9-0.71,1.04L19.62,92.12z M18.86,89.64
						c0-0.19-0.06-0.33-0.18-0.44c-0.12-0.1-0.32-0.15-0.62-0.15c-0.15,0-0.36,0.01-0.61,0.04v1.12h0.69
						C18.61,90.22,18.86,90.03,18.86,89.64z"/>
					<path fill="#231F20" d="M20.36,88.56l0.56-0.05v3.62l-0.56,0.05V88.56z"/>
					<path fill="#231F20" d="M22.29,91.69c-0.3-0.32-0.45-0.77-0.45-1.35s0.15-1.03,0.45-1.35s0.73-0.48,1.3-0.48
						c0.2,0,0.39,0.02,0.58,0.04s0.32,0.06,0.41,0.09l0.13,0.04l-0.13,0.52c-0.32-0.1-0.63-0.14-0.92-0.14
						c-0.43,0-0.75,0.11-0.95,0.32c-0.2,0.22-0.3,0.54-0.3,0.96s0.1,0.74,0.3,0.96c0.2,0.22,0.52,0.32,0.95,0.32
						c0.14,0,0.29-0.01,0.45-0.04s0.29-0.05,0.37-0.07l0.13-0.04L24.75,92c-0.29,0.12-0.68,0.18-1.16,0.18
						C23.03,92.17,22.59,92.01,22.29,91.69z"/>
					<path fill="#231F20" d="M28.03,91.57l-0.11,0.55h-2.41v-3.56h2.41l0.11,0.55h-1.96v0.9h1.61v0.55h-1.61v1.02H28.03z"/>
					<path fill="#231F20" d="M30.85,91.79l0.28-0.73c0.32,0.19,0.75,0.31,1.31,0.35v-1.43c-0.23-0.07-0.42-0.14-0.57-0.2
						s-0.31-0.15-0.47-0.27c-0.16-0.11-0.29-0.25-0.37-0.4c-0.08-0.16-0.13-0.35-0.13-0.56c0-0.45,0.14-0.81,0.42-1.08
						c0.28-0.27,0.65-0.43,1.12-0.49v-0.66l0.6-0.07v0.72c0.2,0.01,0.39,0.04,0.59,0.09c0.2,0.05,0.34,0.09,0.44,0.13l0.15,0.06
						l-0.25,0.73c-0.26-0.12-0.57-0.19-0.93-0.23v1.49c0.23,0.07,0.42,0.14,0.57,0.21c0.15,0.07,0.31,0.15,0.48,0.26
						s0.29,0.24,0.37,0.39c0.08,0.15,0.13,0.33,0.13,0.53c0,0.94-0.51,1.45-1.54,1.54v0.65l-0.6,0.07v-0.72
						c-0.25-0.02-0.5-0.06-0.77-0.12c-0.27-0.06-0.47-0.12-0.61-0.18L30.85,91.79z M31.7,88.43c0,0.14,0.06,0.25,0.19,0.35
						c0.12,0.1,0.31,0.19,0.55,0.27v-1.29C31.95,87.83,31.7,88.05,31.7,88.43z M33.78,90.74c0-0.13-0.06-0.24-0.19-0.33
						c-0.13-0.09-0.31-0.17-0.55-0.25v1.24C33.54,91.32,33.78,91.11,33.78,90.74z"/>
					<path fill="#231F20" d="M37.22,87.03v5.09l-0.77,0.07v-4.23l-1.09,0.26l-0.12-0.76l1.9-0.44H37.22z"/>
					<path fill="#231F20" d="M41.36,87.03l-0.07,0.76h-1.69l-0.01,1.42c0.12-0.02,0.3-0.04,0.55-0.04c0.48,0,0.86,0.13,1.14,0.4
						c0.28,0.27,0.42,0.62,0.42,1.08c0,0.48-0.17,0.86-0.5,1.14s-0.79,0.41-1.35,0.41c-0.21,0-0.42-0.02-0.63-0.07
						c-0.21-0.05-0.37-0.09-0.47-0.14l-0.16-0.07l0.21-0.67c0.28,0.13,0.62,0.2,1.04,0.2c0.33,0,0.59-0.07,0.79-0.21
						c0.2-0.14,0.3-0.35,0.3-0.61c0-0.25-0.1-0.45-0.31-0.59s-0.49-0.22-0.85-0.22c-0.18,0-0.34,0.01-0.49,0.02
						s-0.25,0.02-0.31,0.03l-0.08,0.02l-0.05-0.05v-2.79H41.36z"/>
					<path fill="#231F20" d="M43.11,91.43c-0.37-0.51-0.55-1.13-0.55-1.86c0-0.73,0.18-1.35,0.55-1.86c0.37-0.5,0.86-0.76,1.48-0.76
						c0.62,0,1.11,0.25,1.48,0.76c0.37,0.51,0.55,1.12,0.55,1.86c0,0.74-0.18,1.36-0.55,1.87s-0.86,0.76-1.48,0.76
						C43.97,92.2,43.48,91.94,43.11,91.43z M45.85,89.57c0-0.54-0.11-0.98-0.33-1.33s-0.53-0.52-0.93-0.52s-0.71,0.17-0.93,0.52
						c-0.22,0.35-0.33,0.79-0.33,1.33c0,0.55,0.11,0.99,0.33,1.34c0.22,0.35,0.53,0.52,0.93,0.52s0.71-0.17,0.93-0.52
						S45.85,90.12,45.85,89.57z"/>
				</g>
			</g>
			<g>
				
					<radialGradient id="SVGID_1_" cx="-15.3449" cy="151.1637" r="15.2765" gradientTransform="matrix(7.495428e-11 -1.1672 1 6.421980e-11 -121.319 26.6929)" gradientUnits="userSpaceOnUse">
					<stop  offset="0.0912" style="stop-color:#FFE62F"/>
					<stop  offset="0.3214" style="stop-color:#FFED6A;stop-opacity:0.7493"/>
					<stop  offset="0.5458" style="stop-color:#FFF39C;stop-opacity:0.5048"/>
					<stop  offset="0.7407" style="stop-color:#FFF8C0;stop-opacity:0.2924"/>
					<stop  offset="0.8987" style="stop-color:#FFFBD6;stop-opacity:0.1203"/>
					<stop  offset="1" style="stop-color:#FFFCDF;stop-opacity:0.01"/>
				</radialGradient>
				<ellipse fill="url(#SVGID_1_)" cx="29.84" cy="44.6" rx="15.28" ry="17.83"/>
				<path fill="#231F20" d="M30.38,61.08v5.82c0,0.28-0.23,0.51-0.51,0.51l0,0c-0.28,0-0.51-0.23-0.51-0.51v-5.82
					c0-0.28,0.23-0.51,0.51-0.51l0,0C30.15,60.57,30.38,60.8,30.38,61.08z"/>
				<g>
					<path fill="#231F20" d="M30.38,22.31v5.82c0,0.28-0.23,0.51-0.51,0.51l0,0c-0.28,0-0.51-0.23-0.51-0.51v-5.82
						c0-0.28,0.23-0.51,0.51-0.51l0,0C30.15,21.8,30.38,22.03,30.38,22.31z"/>
					<path fill="#231F20" d="M9.63,44.09h5.82c0.28,0,0.51,0.23,0.51,0.51l0,0c0,0.28-0.23,0.51-0.51,0.51H9.63
						c-0.28,0-0.51-0.23-0.51-0.51l0,0C9.12,44.32,9.35,44.09,9.63,44.09z"/>
					<path fill="#231F20" d="M14.68,30.1l4.11,4.11c0.2,0.2,0.2,0.52,0,0.72l0,0c-0.2,0.2-0.52,0.2-0.72,0l-4.11-4.11
						c-0.2-0.2-0.2-0.52,0-0.72v0C14.16,29.9,14.48,29.9,14.68,30.1z"/>
					<path fill="#231F20" d="M12.4,40l3.44,0.57c0.17,0.03,0.28,0.18,0.25,0.35v0c-0.03,0.17-0.18,0.28-0.35,0.25L12.3,40.6
						c-0.17-0.03-0.28-0.18-0.25-0.35l0,0C12.07,40.08,12.23,39.97,12.4,40z"/>
					<path fill="#231F20" d="M14,35.4l3.02,1.75c0.15,0.08,0.2,0.27,0.11,0.42v0c-0.08,0.15-0.27,0.2-0.42,0.11l-3.02-1.75
						c-0.15-0.08-0.2-0.27-0.11-0.42h0C13.66,35.36,13.85,35.31,14,35.4z"/>
					<path fill="#231F20" d="M24.45,25.34l1.03,3.34c0.05,0.16-0.04,0.33-0.2,0.38l0,0c-0.16,0.05-0.33-0.04-0.38-0.2l-1.03-3.34
						c-0.05-0.16,0.04-0.33,0.2-0.38l0,0C24.23,25.09,24.4,25.18,24.45,25.34z"/>
					<path fill="#231F20" d="M19.47,27.87l1.99,2.87c0.1,0.14,0.06,0.33-0.08,0.42l0,0c-0.14,0.1-0.33,0.06-0.42-0.08l-1.99-2.87
						c-0.1-0.14-0.06-0.33,0.08-0.42h0C19.19,27.7,19.38,27.74,19.47,27.87z"/>
				</g>
				<g>
					<path fill="#231F20" d="M50.11,44.09h-5.82c-0.28,0-0.51,0.23-0.51,0.51l0,0c0,0.28,0.23,0.51,0.51,0.51h5.82
						c0.28,0,0.51-0.23,0.51-0.51l0,0C50.61,44.32,50.39,44.09,50.11,44.09z"/>
					<path fill="#231F20" d="M45.06,30.1l-4.11,4.11c-0.2,0.2-0.2,0.52,0,0.72l0,0c0.2,0.2,0.52,0.2,0.72,0l4.11-4.11
						c0.2-0.2,0.2-0.52,0-0.72l0,0C45.58,29.9,45.25,29.9,45.06,30.1z"/>
					<path fill="#231F20" d="M47.34,40l-3.44,0.57c-0.17,0.03-0.28,0.18-0.25,0.35l0,0c0.03,0.17,0.18,0.28,0.35,0.25l3.44-0.57
						c0.17-0.03,0.28-0.18,0.25-0.35l0,0C47.66,40.08,47.51,39.97,47.34,40z"/>
					<path fill="#231F20" d="M45.74,35.4l-3.02,1.75c-0.15,0.08-0.2,0.27-0.11,0.42v0c0.08,0.15,0.27,0.2,0.42,0.11l3.02-1.75
						c0.15-0.08,0.2-0.27,0.11-0.42l0,0C46.07,35.36,45.89,35.31,45.74,35.4z"/>
					<path fill="#231F20" d="M35.29,25.34l-1.03,3.34c-0.05,0.16,0.04,0.33,0.2,0.38l0,0c0.16,0.05,0.33-0.04,0.38-0.2l1.03-3.34
						c0.05-0.16-0.04-0.33-0.2-0.38l0,0C35.51,25.09,35.34,25.18,35.29,25.34z"/>
					<path fill="#231F20" d="M40.26,27.87l-1.99,2.87c-0.1,0.14-0.06,0.33,0.08,0.42l0,0c0.14,0.1,0.33,0.06,0.42-0.08l1.99-2.87
						c0.1-0.14,0.06-0.33-0.08-0.42l0,0C40.55,27.7,40.36,27.74,40.26,27.87z"/>
				</g>
				<g>
					<path fill="#231F20" d="M30.38,66.89v-5.82c0-0.28-0.23-0.51-0.51-0.51l0,0c-0.28,0-0.51,0.23-0.51,0.51v5.82
						c0,0.28,0.23,0.51,0.51,0.51l0,0C30.15,67.4,30.38,67.17,30.38,66.89z"/>
					<path fill="#231F20" d="M14.68,59.1l4.11-4.11c0.2-0.2,0.2-0.52,0-0.72l0,0c-0.2-0.2-0.52-0.2-0.72,0l-4.11,4.11
						c-0.2,0.2-0.2,0.52,0,0.72v0C14.16,59.3,14.48,59.3,14.68,59.1z"/>
					<path fill="#231F20" d="M12.4,49.21l3.44-0.57c0.17-0.03,0.28-0.18,0.25-0.35l0,0c-0.03-0.17-0.18-0.28-0.35-0.25L12.3,48.6
						c-0.17,0.03-0.28,0.18-0.25,0.35l0,0C12.07,49.12,12.23,49.23,12.4,49.21z"/>
					<path fill="#231F20" d="M14,53.81l3.02-1.75c0.15-0.08,0.2-0.27,0.11-0.42l0,0c-0.08-0.15-0.27-0.2-0.42-0.11l-3.02,1.75
						c-0.15,0.08-0.2,0.27-0.11,0.42h0C13.66,53.84,13.85,53.89,14,53.81z"/>
					<path fill="#231F20" d="M24.45,63.86l1.03-3.34c0.05-0.16-0.04-0.33-0.2-0.38l0,0c-0.16-0.05-0.33,0.04-0.38,0.2l-1.03,3.34
						c-0.05,0.16,0.04,0.33,0.2,0.38v0C24.23,64.12,24.4,64.02,24.45,63.86z"/>
					<path fill="#231F20" d="M19.47,61.33l1.99-2.87c0.1-0.14,0.06-0.33-0.08-0.42l0,0c-0.14-0.1-0.33-0.06-0.42,0.08l-1.99,2.87
						c-0.1,0.14-0.06,0.33,0.08,0.42h0C19.19,61.5,19.38,61.47,19.47,61.33z"/>
				</g>
				<g>
					<path fill="#231F20" d="M50.11,45.11h-5.82c-0.28,0-0.51-0.23-0.51-0.51l0,0c0-0.28,0.23-0.51,0.51-0.51h5.82
						c0.28,0,0.51,0.23,0.51,0.51l0,0C50.61,44.88,50.39,45.11,50.11,45.11z"/>
					<path fill="#231F20" d="M45.06,59.1l-4.11-4.11c-0.2-0.2-0.2-0.52,0-0.72l0,0c0.2-0.2,0.52-0.2,0.72,0l4.11,4.11
						c0.2,0.2,0.2,0.52,0,0.72v0C45.58,59.3,45.25,59.3,45.06,59.1z"/>
					<path fill="#231F20" d="M47.34,49.21l-3.44-0.57c-0.17-0.03-0.28-0.18-0.25-0.35l0,0c0.03-0.17,0.18-0.28,0.35-0.25l3.44,0.57
						c0.17,0.03,0.28,0.18,0.25,0.35l0,0C47.66,49.12,47.51,49.23,47.34,49.21z"/>
					<path fill="#231F20" d="M45.74,53.81l-3.02-1.75c-0.15-0.08-0.2-0.27-0.11-0.42l0,0c0.08-0.15,0.27-0.2,0.42-0.11l3.02,1.75
						c0.15,0.08,0.2,0.27,0.11,0.42l0,0C46.07,53.84,45.89,53.89,45.74,53.81z"/>
					<path fill="#231F20" d="M35.29,63.86l-1.03-3.34c-0.05-0.16,0.04-0.33,0.2-0.38l0,0c0.16-0.05,0.33,0.04,0.38,0.2l1.03,3.34
						c0.05,0.16-0.04,0.33-0.2,0.38l0,0C35.51,64.12,35.34,64.02,35.29,63.86z"/>
					<path fill="#231F20" d="M40.26,61.33l-1.99-2.87c-0.1-0.14-0.06-0.33,0.08-0.42l0,0c0.14-0.1,0.33-0.06,0.42,0.08l1.99,2.87
						c0.1,0.14,0.06,0.33-0.08,0.42l0,0C40.55,61.5,40.36,61.47,40.26,61.33z"/>
				</g>
				<g id="candle_00000096769098725339851720000016419170718682503554_">
					<path fill="#FFE62F" d="M32.61,41.19c-0.03-0.06-0.81-1.64-0.83-1.67c-1.08-1.89-1.23-3.89-1.66-6.28
						c-0.03-0.22-0.37-0.69-0.39-0.91c-0.09,0.35-0.2,0.68-0.32,1.02c0.03,0.04,0.06,0.09,0.05,0.16c0,0.03-0.01,0.05-0.01,0.08
						c0,0,0,0,0,0c0,0.01,0,0.01,0,0.02c-0.04,0.43-0.1,0.86-0.17,1.28c-0.03,0.48-0.06,0.96-0.12,1.44c0,0,0,0,0,0c0,0,0,0,0,0
						c0,0.03,0,0.05-0.01,0.08c-0.01,0.07-0.05,0.12-0.09,0.15c-0.12,0.95-0.32,1.88-0.66,2.79c-0.03,0.09-0.84,2.37-0.85,2.39
						c-0.05,1.22-0.13,2.95-0.13,2.95c-1.21,2.31-1.03,2.98-0.2,4.21c2.06,3.1,4.71,3.71,5.88,0.19
						C34.03,46.35,32.7,41.4,32.61,41.19z"/>
					<path fill="#231F20" d="M51.17,75.73c-1.27-0.36-3.85,0.08-4.29,0.15c-1.53,0.5-3.03,1.12-4.56,1.62
						c-0.25,0.35-0.71,0.59-1.23,0.73c-0.31,0.15-0.69,0.23-0.97,0.28c-0.15,0.03-0.78-0.23-0.96-0.29
						c-0.72-0.21-2.3,0.34-2.72,0.32c-0.01,0-0.02,0-0.03-0.01c-0.02,0.08-6.1,0.53-6.81,0.43c0,0-2.8-0.19-4-0.31
						c-0.7-0.07-9.12-0.36-9.2-0.25c-0.1,0.14,0.58,1.66,2.14,1.95c1.97,0.37,3.81,0.68,5.77,0.88c0.3,0.02,6.86,0.39,9.85,0.58
						c0.54,0,5.35-0.36,7.01-0.48c0.1-0.01,1.43,0.99,2.11,1.44c1.16,0.5,2.1,0.79,3.21,0.68c0.83-0.08,2.51-0.49,3.32-0.76
						c0.28-0.16,1.02-0.65,1.39-1c0.67-1.05,1.2-2.28,1.43-3.41C52.37,76.75,51.25,75.8,51.17,75.73z M49.91,80.27
						c-0.16,0.13-0.32,0.25-0.48,0.38c-0.13,0.14-0.33,0.09-0.44-0.03c-0.05,0.01-0.11,0.01-0.17,0.02
						c-0.33,0.29-0.75,0.5-1.27,0.62c-0.13,0.03-0.23-0.02-0.3-0.09c-0.45,0.11-0.92,0.17-1.39,0.12c-0.45-0.04-0.88-0.18-1.31-0.31
						c-0.03,0.02-0.07,0.03-0.12,0.03c-0.53,0.03-0.99-0.03-1.38-0.34c-0.01-0.01-0.03-0.01-0.04-0.01
						c-0.07-0.03-0.11-0.08-0.13-0.14c-0.01-0.01-0.02-0.02-0.03-0.03c-0.2-0.22-0.04-0.51,0.24-0.49c0.02-0.02,0.03-0.03,0.06-0.05
						c0.01-0.01,0.03-0.02,0.04-0.02c0.02-0.04,0.05-0.08,0.1-0.11c0.11-0.06,0.17-0.1,0.23-0.13c0.52-0.35,1.26-0.53,1.79-0.73
						c0.07-0.03,0.14-0.05,0.21-0.07c0.99-0.49,2.7-1.55,3.78-1.13c0.01,0,0.01,0.01,0.02,0.02c0.23,0.01,0.36,0.14,0.43,0.33
						c0.03,0.03,0.06,0.07,0.07,0.12c0.01,0.03,0.01,0.05,0.01,0.08c0,0,0,0,0,0c0,0,0,0,0,0c0.04,0.18,0.05,0.34,0.03,0.49
						c0.13,0.28,0.1,0.63,0,0.97C50.04,79.85,50.13,80.13,49.91,80.27z"/>
					<path fill="#F08022" d="M33.55,49.52c-0.53-0.08-1.47,1.92-2.91,1.97c-1.55-0.13-2.43-2.09-3.37-0.06
						c-0.37,0.8-1.57,2.77-1.43,3.5c-0.2,2.03,1.09,2.36,1.22,2.42c1.03,0.45,1.15,1.86,1.21,2.05c0.09,0.17,0.17,0.35,0.25,0.53
						c0.1,0.08,0.2,0.17,0.29,0.26c0,0,0.01,0.01,0.02,0.01c0.63,0.58,1.02,1,1.29,1.74c0.11,0.22,0.02,0.79,0.11,1.03
						c0.25,0.74,0.53,2.31,1.07,2.18c0.5-0.19,0.65-2.39,0.67-2.45c-0.06-0.43,0.16-1.84,0.3-2.1c0.1-0.33,0.23-0.65,0.37-0.94
						c0.06-0.12,0.86-0.89,1.06-1.08c0.15-1,0.51-1.2,0.74-1.29c1.18-0.42,1.1-3.25,1.21-3.96C35.17,52.29,34.03,50.57,33.55,49.52z
						"/>
					<path fill="#D65327" d="M37.14,76.32c-0.57-0.55-1.55-4.12-1.62-4.3c-0.31-0.91-0.46-2.87-0.46-2.92
						c-0.1-1.47-0.29-8.22-0.26-9.12c0.01-0.1-0.01-2.51,0.02-2.55c-1-0.67-0.82,1.14-2.6,2.67c-0.56,0.48-0.11,4.59-0.68,4.89
						c-1.1,0.19-1.46-4.03-2.44-4.48c-1.24-0.78-1.49-4.38-2.49-3.01c0.01,0.16-0.61,4.33-0.6,4.48c0.02,0.05-0.31,1.53-0.31,1.58
						c0.03,1.49-0.3,2.28-0.45,3.76c-0.02,0.59-0.34,2.2-0.48,2.53c-0.49,1.19-1.04,2.33-1.7,3.44c-0.08,0.13-2.17,2.07-2.26,2.14
						c-0.41,0.33-2.4,1.76-2.85,1.97c-0.18,1.82,1.78,1.09,5.09,1.35c2.36,0.18,7.31,0.37,7.31,0.37s3.27-0.12,5.31-0.42
						c1.46-0.21,3-0.22,3.24-0.83C38.88,77.85,37.26,76.55,37.14,76.32z"/>
					<path d="M33.73,46.55c0.04,0.7-0.15,1.4-0.1,2.06c0.04,0.64,0.8,1.08,1.04,1.74c0.21,0.58,0.43,1.08,1.01,1.48
						c0.54,0.36,0.41,1.16,0.43,1.76c0.05,1.28-0.05,2.56-0.7,3.72c-0.12,0.21-0.21,0.43-0.21,0.69c-0.03,2.84-0.16,5.68-0.07,8.51
						c0.09,3.06,0.72,6.04,1.96,8.86c0.29,0.66,0.78,1.17,1.41,1.47c0.44,0.22,0.86,0.45,1.19,0.79c0.51,0.53,1.01,0.45,1.59,0.13
						c1.8-0.99,3.74-1.61,5.7-2.17c0.83-0.24,1.67-0.44,2.53-0.57c2.42-0.37,3.76,1.54,3.27,3.51c-0.34,1.39-0.66,2.91-2.02,3.74
						c-2.18,1.34-4.49,2-6.98,0.82c-0.56-0.27-1.12-0.53-1.62-0.91c-0.55-0.42-1.12-0.54-1.84-0.38c-1.8,0.4-3.64,0.39-5.47,0.31
						c-1.35-0.05-2.7,0.01-4.05-0.09c-2.72-0.22-5.45-0.3-8.14-0.86c-1.59-0.33-3.2-0.51-4.81-0.74c-0.52-0.07-1.01-0.23-1.49-0.43
						c-0.42-0.18-0.81-0.43-0.78-0.99c0.03-0.5,0.33-0.93,0.77-1.01c0.83-0.15,1.3-0.72,1.78-1.3c0.47-0.56,1.19-0.66,1.77-1.03
						c1.19-0.76,2.37-1.49,3.11-2.78c0.63-1.11,1.17-2.2,1.28-3.51c0.06-0.78,0.39-1.53,0.59-2.29c0.44-1.73,0.48-3.48,0.69-5.23
						c0.16-1.3,0.26-2.6,0.41-3.9c0.05-0.4,0.09-0.74-0.31-1c-0.43-0.28-0.48-0.75-0.41-1.21c0.18-1.35,0.65-2.61,1.11-3.88
						c0.16-0.43,0.51-0.76,0.86-1.03c0.48-0.37,0.43-0.67,0.08-1.09c-0.77-0.94-1.13-2.02-1.07-3.26c0.03-0.52,0.14-0.98,0.49-1.32
						c0.52-0.52,0.6-1.11,0.55-1.8c-0.09-1.15,0.11-2.21,0.6-3.31c0.72-1.63,1.33-3.34,1.09-5.21c-0.1-0.76,0.15-1.51,0.29-2.25
						c0.06-0.33,0.16-0.75,0.58-0.72c0.34,0.02,0.45,0.38,0.51,0.7c0.12,0.75,0.29,1.49,0.39,2.25c0.26,1.83,0.69,3.6,1.8,5.14
						c0.39,0.54,0.55,1.19,0.59,1.86c0.07,1.07,0.14,2.13,0.47,3.17C33.72,45.49,33.68,46.04,33.73,46.55z M28.79,55.31
						c0.49,0.38,0.98,0.53,1.47,0.01c0.2-0.21,0.4-0.16,0.65-0.1c0.86,0.18,1.15,0.08,1.47-0.72c0.3-0.75,0.75-1.17,1.55-1.31
						c0.49-0.08,0.85-0.67,0.62-1c-0.5-0.72-0.65-1.67-1.43-2.2c-0.43,0.26-0.42,0.91-0.97,1.05c-0.2,0.05-0.41,0.2-0.57-0.02
						c-0.16-0.22,0.03-0.37,0.17-0.52c0.75-0.8,1.31-1.69,1.35-2.83c0.03-0.86,0.06-1.73-0.22-2.57c-0.24-0.73-0.34-1.48-0.3-2.25
						c0.05-1.08-0.29-2.03-0.88-2.92c-0.56-0.84-0.88-1.76-1.03-2.78c-0.15-1.04-0.51-2.05-0.82-3.22
						c-0.29,0.59-0.34,1.07-0.27,1.53c0.23,1.72-0.38,3.31-0.94,4.83c-0.42,1.13-0.71,2.21-0.66,3.4c0.03,0.67-0.13,1.29-0.58,1.83
						c-0.37,0.44-0.46,0.99-0.43,1.56c0.06,1.22,0.6,2.18,1.54,2.93c0.24,0.19,0.53,0.33,0.69,0.62c0.05,0.08,0.09,0.21,0.05,0.29
						c-0.06,0.14-0.22,0.18-0.35,0.12c-0.66-0.34-1.05-0.29-0.93,0.59c0.01,0.07-0.1,0.19-0.18,0.24c-0.83,0.61-0.4,1.52-0.54,2.3
						c-0.04,0.26,0.12,0.51,0.47,0.57c0.41,0.07,0.79,0.24,1.06,0.59c-0.73-0.12-1.45-0.25-2.03-0.79
						c-0.28,0.52-0.25,1.01-0.19,1.49c0.05,0.48,0.15,0.93,0.83,0.98c0.48,0.03,0.77,0.43,0.92,0.88c0.18,0.52,0.33,1.06,0.49,1.58
						c0.08,0.26,0.15,0.56,0.45,0.65c0.83,0.25,1.04,0.96,1.24,1.65c0.14,0.5,0.17,1.02,0.31,1.52c0.13,0.47,0.05,1.03,0.48,1.39
						c0.32-0.14,0.32-0.39,0.37-0.62c0.2-0.96,0.18-1.93,0.11-2.89c-0.06-0.76,0.16-1.36,0.73-1.83c0.46-0.37,0.71-0.81,0.79-1.4
						c0.11-0.76,0.49-1.36,1.24-1.64c0.24-0.09,0.47-0.17,0.54-0.43c0.26-0.92,0.29-1.84,0.07-2.94c-0.58,0.62-1.13,1-1.82,1.13
						c-0.21,0.04-0.29,0.27-0.41,0.44c-0.19,0.29-0.42,0.55-0.62,0.82c-0.28,0.36-0.66,0.54-1.09,0.43
						c-0.44-0.12-0.76,0.04-1.15,0.2C29.3,56.24,28.93,56.17,28.79,55.31z M34.29,57.79c-0.23,0.04-0.24,0.2-0.27,0.32
						c-0.15,0.82-0.49,1.5-1.22,1.96c-0.35,0.22-0.42,0.62-0.44,1.01c-0.03,0.66-0.08,1.31-0.06,1.97c0.01,0.56-0.13,1.1-0.18,1.65
						c-0.04,0.45-0.37,0.63-0.78,0.72c-0.45,0.1-0.66-0.22-0.79-0.52c-0.18-0.41-0.26-0.86-0.37-1.29
						c-0.17-0.63-0.16-1.31-0.44-1.91c-0.12-0.25-0.2-0.6-0.48-0.63c-0.88-0.08-0.95-0.78-1.13-1.4c-0.15-0.53-0.24-1.08-0.51-1.57
						c-0.09-0.16-0.22-0.28-0.42-0.25c-0.22,0.04-0.25,0.2-0.22,0.39c0.04,0.28-0.01,0.55-0.05,0.82c-0.39,2.56-0.57,5.14-1.17,7.67
						c-0.35,1.47-0.41,3.01-0.92,4.44c-0.21,0.58-0.51,1.15-0.63,1.75c-0.15,0.8-0.58,1.32-1.27,1.65
						c-0.39,0.18-0.74,0.39-0.92,0.79c-0.22,0.5-0.62,0.7-1.12,0.81c-0.58,0.12-1.11,0.37-1.61,0.7c-0.14,0.1-0.3,0.19-0.24,0.4
						c0.04,0.16,0.19,0.2,0.32,0.22c0.24,0.05,0.48,0.08,0.72,0.11c0.45,0.05,0.97,0.05,1.26,0.36c0.43,0.45,0.9,0.41,1.42,0.43
						c2.49,0.09,4.98,0.18,7.46,0.32c2.35,0.13,4.68-0.13,7.01-0.4c0.34-0.04,0.71-0.14,0.97-0.46c-1.14-0.74-1.42-1.02-1.68-1.57
						c-1.56-3.31-2.07-6.86-2.29-10.46c-0.12-2.03,0.08-4.07,0.12-6.11C34.37,59.06,34.31,58.43,34.29,57.79z M17.21,79.19
						c0.36,0.32,0.64,0.31,0.9,0.39c0.63,0.2,1.31,0.11,1.95,0.26c2.6,0.61,5.27,0.73,7.91,1.03c0.76,0.09,1.52,0.19,2.28,0.19
						c2.08-0.02,4.15,0.08,6.23,0.01c1.39-0.05,2.76-0.21,4.12-0.45c0.59-0.11,0.73-0.53,0.28-0.95c-0.87-0.8-1.79-1.41-3.11-1.03
						c-1.91,0.54-3.9,0.67-5.86,0.69c-3.18,0.04-6.36-0.11-9.54-0.24C20.69,79.02,19.04,79.1,17.21,79.19z M42.54,81.04
						c-0.01,0.07-0.03,0.15-0.04,0.22c1.59,1.02,3.38,1.25,5.23,1.25c0.88,0,1.64-0.29,2.26-0.88c1.01-0.96,1.74-2.07,1.59-3.55
						c-0.09-0.92-0.6-1.63-1.35-1.77c-0.78-0.14-1.58-0.27-2.37-0.07c-2.29,0.56-4.49,1.32-6.45,2.74c0.07,0.13,0.14,0.24,0.2,0.35
						c0.39,0.65,0.39,0.64,1.09,0.3c0.87-0.42,1.74-0.85,2.64-1.2c1.12-0.44,2.25-0.88,3.45-1.11c0.88-0.17,1.65,0.35,1.68,1.22
						c0.03,1.31-0.36,2.28-1.54,2.79c-1.23,0.53-2.48,0.81-3.82,0.39C44.26,81.46,43.4,81.26,42.54,81.04z M42.86,80.39
						c1.25,0.34,2.34,0.58,3.45,0.71c0.78,0.09,1.5-0.13,2.21-0.39c0.67-0.25,1.02-0.78,1.11-1.49c0.11-0.82-0.15-1.14-0.97-0.97
						c-0.98,0.2-1.96,0.43-2.88,0.78C44.83,79.39,43.89,79.78,42.86,80.39z"/>
					<path d="M33.2,62.9c0.14,0.65,0.18,1.24,0.13,1.81c-0.05,0.56-0.03,1.13,0.13,1.64c0.24,0.79,0.22,1.54,0.05,2.33
						c-0.12,0.56-0.23,1.15-0.09,1.74c0.05,0.19-0.01,0.41-0.07,0.61c-0.11,0.41-0.25,0.82-0.78,0.81
						c-0.51-0.01-1.07-0.56-1.07-1.05c0-0.34,0.02-0.69,0.03-1.03c0.01-0.21-0.02-0.47,0.26-0.46c0.25,0.01,0.3,0.27,0.31,0.47
						c0.02,0.27,0.01,0.55,0,0.83c0,0.23,0.07,0.44,0.31,0.46c0.25,0.01,0.33-0.2,0.34-0.42c0-0.17-0.02-0.34-0.03-0.52
						c-0.01-0.14-0.08-0.29-0.04-0.41c0.6-1.93-0.12-3.87,0.11-5.8C32.82,63.59,32.69,63.2,33.2,62.9z"/>
					<path d="M29.34,70.58c0.05,1.13,0.48,2.27-0.14,3.37c-0.25,0.44-0.25,0.93-0.27,1.41c-0.02,0.61-0.2,1.17-0.63,1.6
						c-0.25,0.25-0.55,0.31-0.76-0.08c-0.72-1.3-0.82-2.68-0.48-4.11c0.03-0.14,0.14-0.13,0.24-0.13c0.12,0.01,0.2,0.11,0.2,0.2
						c0,0.27-0.02,0.55-0.04,0.82c-0.06,0.76-0.01,1.49,0.49,2.35c0.44-1.01,0.19-2.01,0.74-2.82
						C29.18,72.44,28.85,71.4,29.34,70.58z"/>
					<path d="M26.88,67.23c0.19,0.07,0.21,0.25,0.28,0.4c0.1,0.24,0.12,0.62,0.49,0.52c0.3-0.09,0.64-0.21,0.67-0.68
						c0.03-0.65,0.15-1.3,0.21-1.95c0.03-0.27,0.01-0.54,0.23-0.75c0.31,0.07,0.25,0.33,0.25,0.49c0.01,0.86,0.02,1.73-0.02,2.59
						c-0.04,0.72-0.62,1.36-1.3,1.51c-0.23,0.05-0.41-0.06-0.57-0.19C26.66,68.81,26.56,67.93,26.88,67.23z"/>
					<path d="M30.77,47.34c0.15,0.13,0.15,0.28,0.08,0.4c-0.43,0.84-0.38,0.83-0.29,1.72c0.12,1.16,0.49,2.3,0.27,3.48
						c-0.04,0.2-0.01,0.41-0.14,0.59c-0.13,0.18-0.27,0.32-0.51,0.25c-0.21-0.07-0.22-0.26-0.19-0.43c0.18-0.97-0.06-1.92-0.19-2.87
						c-0.05-0.37-0.1-0.74,0.02-1.12c0.05-0.17,0.09-0.37-0.06-0.58c-0.46-0.6-0.45-0.63,0.15-0.98
						C30.2,47.64,30.43,47.36,30.77,47.34z"/>
					<path d="M30.74,45.84c0.36,0.34,0.17,0.6-0.02,0.85c-0.21,0.27-0.41,0.56-0.79,0.61c-0.14,0.02-0.26-0.06-0.32-0.2
						c-0.06-0.14-0.05-0.3,0.05-0.38C30,46.41,30.38,46.13,30.74,45.84z"/>
					<path d="M30.17,44.83c0.05,0.01,0.09,0,0.11,0.02c0.05,0.04,0.12,0.1,0.12,0.15c0.03,0.44-0.36,0.54-0.62,0.74
						c-0.13,0.09-0.28,0.03-0.36-0.09c-0.04-0.07-0.03-0.21,0.01-0.28C29.61,45.08,29.92,44.99,30.17,44.83z"/>
				</g>
			</g>
		</g>
	</g>
	<path d="M0.02,0v1.6v96.8v1.6h60v-1.6V1.6V0H0.02z M59.02,98.4h-58V1.6h58V98.4z"/>
	<g>
	</g>
	<g>
	</g>
	<g>
	</g>
	<g>
	</g>
	<g>
	</g>
	<g>
	</g>
	<g>
	</g>
	<g>
	</g>
	<g>
	</g>
	<g>
	</g>
	<g>
	</g>
	<g>
	</g>
	<g>
	</g>
	<g>
	</g>
	<g>
	</g>
	<g>
	</g>
	<g>
	</g>
</g>
</svg>
