<?xml version="1.0" encoding="utf-8"?>
<!-- Generator: Adobe Illustrator 26.2.1, SVG Export Plug-In . SVG Version: 6.00 Build 0)  -->
<svg version="1.1" xmlns="http://www.w3.org/2000/svg" xmlns:xlink="http://www.w3.org/1999/xlink" x="0px" y="0px"
	 viewBox="0 0 60 100" enable-background="new 0 0 60 100" xml:space="preserve">
<symbol  id="train" viewBox="-79.6 -39.79 120.74 79.57">
	<path d="M25.39,28.67c-2.91-0.23-4.38-0.39-5.31-0.48c-3.14-0.29-4.7-0.36-7.4-0.16c-0.69,0.05-1.38,0-2.07,0.16
		c-1.52,0.35-3.04,0.45-4.59,0.28c-1.61-0.17-2.87-0.06-4.27,1.21c-0.47,0.43-1.38,0.64-1.98,0.62c-1.38-0.03-2.48-0.28-3.86-0.26
		c-1.05,0.01-1.52-0.17-2.58,0.77c-0.63,0.55-1.12,1.09-1.39,1.28c-0.39,0.27-1.06,1.18-2.53,1c-1.75-0.21-3.56-1.41-4.53,0.95
		c-0.35,0.85-1.89,1.48-2.86,1.49c-1.54,0.02-1.99,3.5-3.18,3.5c-2.6,0.02-2.77-0.66-4.51-1.41c-1.3-0.56-2.59-1.27-4.09-1.29
		c-0.77-0.01-1.27,0.23-1.51,1.02c-0.41,1.34-1.42,1.98-2.73,2.26c-2.43,0.51-4.65-0.14-6.79-1.2c-1.78-0.88-3.19-2.26-4.71-3.49
		c-0.43-0.35-0.87-0.62-1.4-0.69c-1.66-0.23-2.44-1.42-2.86-2.83c-0.22-0.73-0.48-1.45-0.68-2.19c-0.18-0.66-0.53-1.28-1.26-1.46
		c-0.48-0.12-0.56-0.47-0.68-0.83c-0.52-1.66-0.83-3.32-0.4-5.07c0.25-1.05,0.19-1.15-0.9-1.29c-2.42-0.3-2.06-4.12,0.69-5.95
		c1.49-2.25,0.92-6.77,1.11-7.53c-0.09-0.3-0.71,0.18-1.89,0.18c-1.49,0.35-3.43,0.55-4.08,0.49c-2.42-0.22-4.18-0.48-6.16-1.93
		c-3.12-2.28-5.09-4.82-5.23-8.16c-0.04-0.98,0.14-2.67,0.81-3.48c0.33-0.39,0.54-0.89,0.85-1.3c0.49-0.64,0.46-1.25,0.02-1.9
		c-0.45-0.67-0.85-1.37-1.3-2.04c-0.54-0.8-0.44-1.51,0.24-2.17c0.29-0.28,0.59-0.54,0.91-0.79c1.44-1.11,1.42-1.09,0.61-2.78
		c-0.23-0.48-0.58-0.85-0.87-1.27c-0.44-0.63-0.59-1.52-1.13-2.04c-0.77-0.74-1.76-2.15-1.37-3.08c0.38-0.93,0.77-1.26,1.76-1.15
		c0.84,1.48,1.91,1.31,2.59,1.25c0.61-0.05,1.26-0.58,1.8-0.84c0.81-0.39,1.55,0.55,2.09,1.22c0.53,0.65,1.06,0.85,1.93,0.38
		c1.72-0.92,3.08-0.04,3.12,1.89c0.02,1.1-0.05,2.19-0.01,3.29c0.05,1.05,0.62,1.76,1.43,1.92c0.57,0.12,0.91-0.21,0.72-0.76
		c-0.1-0.3-0.36-0.46-0.26-0.9c0.59-2.56-0.69-9.18-1.11-11.96c-0.25-1.64-0.79-1.24-1.89-0.6c-1.04,0.61-1.48,1.46-2.28-0.13
		c-0.32-0.64-0.89-0.82-1.32-0.17c-0.57,0.87-1.1,0.7-1.68,0.1c-0.76-0.78-1.45-0.77-2.24,0.11c-0.82,0.91-1.5,0.66-2.09-0.54
		c-0.13-0.26-0.2-0.58-0.33-0.83c-0.79-1.57-2.31,3.04-3.28,1.59c-1.65-2.46-5.02-7.32-7.51-8.98c-0.36-0.24-0.72-0.52-0.54-0.96
		c0.2-0.48,0.68-0.59,1.17-0.5c0.22,0.04,0.43,0.15,0.66,0.21c2.87,0.71,5.79,0.77,8.73,0.62c0.81-0.04,1.61-0.08,2.42-0.12
		c2.24-0.11,13.25-0.32,13.75,0.64c0.97,1.85-0.26,3.02-0.3,5.81c0,3.05,1.07,4.11,2.84,5.89c0.33,0.09,0.43,0.53,0.85,0.54
		c-0.06-0.57-0.36-0.75-0.48-0.96c-0.21-0.43-0.22-0.47-0.44-0.88c-1.22-2.22-1.34-4.49-0.24-6.76c1.26-2.57,3.29-4.15,6.24-4.06
		c2.71,0.08,4.87,1.27,6.21,3.74c0.43,0.8,0.35,2.04,1.07,2.4c0.78,0.38,1.87,0.1,2.83,0.12c0.67,0.02,0.68,0.24,1.27,0.03
		c0.64-0.22,0.6-1.11,0.9-1.69c1.3-2.47,3.2-4.03,6.07-4.2c2.75-0.17,4.87,0.92,6.26,3.28c1.38,2.34,1.96,4.79,0.43,7.33
		c-0.09,0.15,0,0.27,0.1,0.43c1.41,0.06,3.57,0.23,4.99,0.16c1.87-0.09,1.03-0.13,0.03-0.15c0.92-0.04,1.01-0.29,0.49-1.24
		c-2.43-4.43,0.82-9.65,5.03-10.12c2.77-0.31,4.99,0.48,6.87,2.42c0.8,0.82,1.06,1.93,1.38,2.98c0.18,0.58,0.47,0.75,1.01,0.77
		c1.05,0.04,0.67,0,1.72,0.16c1.79,0.28,1.82,0.25,2.42-1.44c1.18-3.32,4.77-5.13,7.67-4.6c3.8,0.7,5.79,3,6.26,6.87
		c0.16,1.35-0.33,2.6-0.74,3.92c0.85,0.22,4.45,0.07,5.2,0.06c2.16-0.04,2.49,0.3,2.71,2.36c0.31,2.86-4.94,0.02-4.9,2.46
		c0.05,2.78,4.78,17,5.06,17.76c0.35,0.95-0.1,0.99-0.89,1.14c-0.56,0.1-9.6,0.11-10.19,0.11c-0.48,0,4.84-0.01,4.84-0.01
		c-0.51-0.01,0.87,3.98,0.16,3.98c-7.17,0-8.45,4.41-8.45,6.12c-1.2,0-18.55-0.28-19.95-0.28c-0.41-0.04-2.61-0.05-2.6-0.02
		c0.04,0.19-0.58-5.33-1.33-5.33c-0.5,0-6.37,0.05-7.08,0.05c0,0,2.22,7.88,2.15,8.22C-17.37,9.4-13.08,9.1-12.6,9.1
		c2.91,0,9.95,0.23,10.75,0.23c0.72,0,1.19,2.53,0.7,2.82c-0.31,0.18-1.31,0.09-1.64,0.08c-4.7-0.15-6.5-0.38-11.21-0.04
		c-4.16,0.3-3.3,0.24-7.48,0.34c-0.48,0.01-0.97,0.03-1.44-0.06c-0.57-0.1-0.66-0.45-0.31-0.92c0.45-0.59,1.13-0.88,1.69-1.33
		c0.88-0.7,1.06-1.25,0.6-2.24c-0.64-1.39-1.78-5.03-2.21-6.48c-0.15-0.49-0.11,0.22-2.38-0.07c-0.55-0.07,2.7,7.58,2.09,7.51
		C-25.8,8.7-27.88,9.1-29.84,9c0,0-2.25-7.63-2.87-7.63c-0.36,0.03-2.78,0.14-2.87,0.48c-0.2,0.79-0.61,1.5-1.15,2.11
		c-1.49,1.69-3.97,1.39-4.7-0.76c-0.14-0.41-0.32-0.79-0.32-1.25c0-0.37-0.18-0.59-0.64-0.58c-0.1,0-0.18-0.05-0.8-0.06
		c0,0-0.43,2.62-2.32,3.87c-0.37,1.95-0.67,5.31-0.37,7.11c0.14,0.82,1.27,0.57,2.04,1.05c1.16,0.66,2.81,0.96,1.82,3.42
		c-0.25,0.39-0.49,0.78-0.7,1.19c0.52-0.04,1.05-0.31,1.52,0.23c0.12,0.15,0.45,0.17,0.68,0.16c0.82-0.05,1.46,0.25,2.08,0.79
		c0.96,0.85,2.11,1.13,3.37,0.76c1.1-0.32,1.9-0.01,2.64,0.87c1.75,2.08,1.68,1.56,4.99,1.82c2.28,0.18,3.45,0.64,4.68,2.93
		c0.93,1.73,1.79,1.9,3.74,1.45c1.48-0.34,2.61,0.33,2.88,0.5c0.56,0.35,0.86,0.26,0.1-0.31c-0.15-0.11-0.53-0.56-0.98-0.83
		c-1.51-0.91-1.58-4.09,0.07-5.94c0.48-0.54,1.18,0.1,1.67-0.37c0.82-0.8,2.46-1.26,3.5-1.16c2.59,0.25,5.52,1.12,7.84,2.65
		c1.11,0.74,2.27,1.7,3.6,1.74c1.06,0.03,1.83,0.46,2.78,0.99c1.05,0.59,2.07,0.49,3.12,0.12c2.67-0.93,5.3-0.76,7.92,0.33
		c0.87,0.36,1.76,0.66,2.7,0.68c2.23,0.06,4.42,0.54,6.58,1.23c0.9,0.29,2.3,1.29,3.42,1.09c0.22-0.04,0.48-0.04,0.53,0.38
		C26.37,28.54,25.92,28.71,25.39,28.67z M-56.92-6.68c-0.04-0.41-0.48-0.48-0.83-0.45c-1.03,0.08-2.06,0.17-3.08,0.33
		c-0.65,0.1-0.54,0.56-0.19,0.86c1.44,1.19,2.84,4.62,4.82,5.41C-55.9-2.13-56.79-5.38-56.92-6.68z M5.05-27.94
		C4.82-28.8,4.6-29.6,4.4-30.41c-0.09-0.35-0.34-0.43-0.64-0.45c-1.48-0.1-1.5-0.3-2.99-0.28c-0.63,0.01-0.96,0.24-1.07,0.88
		c-0.15,0.84-0.37,1.67-0.58,2.61c1.35,0.25,2.54,0.15,3.71-0.07C4-27.95,3.76-27.76,5.05-27.94z M-51.79,17.68
		c-0.35,0.17-0.6,0.41-0.49,0.85c0.05,0.2,0.22,0.38,0.39,0.32c0.34-0.13,0.43-0.47,0.44-0.81C-51.44,17.86-51.51,17.67-51.79,17.68
		z M-32.42-29.35c-0.23-0.49,0.1-1.28-0.61-1.48c-0.49-0.14-0.33-0.02-0.86-0.03c-0.91-0.03-1.82-0.04-2.73-0.12
		c-0.39-0.03-0.64-0.04-0.75,0.41c-0.25,1.07-0.64,2.09-1.12,3.21c2.54,0.23,4.25,0.11,6.75,0.05
		C-31.62-28.17-32.14-28.74-32.42-29.35z M-43.43-2.33l24.88-0.18l-0.41-0.63h-24.46V-2.33z M-36.42-5.06l17.19,0.14l-0.41-0.63
		l-16.78,0.14V-5.06z M12.38-6.98l11,0.14l-0.23-0.63L12.38-7.33V-6.98z M12.75-9.68l8.85,0.11l-0.18-0.49l-8.67,0.11V-9.68z
		 M13.13-12.36l6.73,0.08l-0.13-0.35l-6.6,0.08V-12.36z M-41.9-7.01c-0.76-0.02-1.52-0.18-2.32,0.42
		C-43.25-6.33-42.55-6.6-41.9-7.01z M-43.85-14.2c0.03,0.58-0.05,1.15-0.07,1.72c-0.04,1.43,0.33,1.9,1.72,2.2
		c0.14,0.03,0.29,0.03,0.43,0.06c1.82,0.39,2.24,1.35,1.21,3.07C-39.85-7.2-39.27-7.38-39-8c0.3-0.66-0.03-1.19-0.5-1.67
		c-0.54-0.54-1.09-0.98-1.89-1.18c-1.49-0.37-1.95-1.13-1.94-2.71c0-0.48,0.01-0.96,0-1.44c-0.02-1.27-0.15-1.43-1.42-1.77
		c-1.71-0.45-2.5-0.27-3.65,1.39c-0.12,0.17-0.5,0.55-0.32,0.87c0.59-0.26,0.84-0.83,1.28-1.19C-46.1-16.82-43.95-16.2-43.85-14.2z
		 M21.48,27.03c-1.28-0.28-2.55-0.62-3.87-0.69c-2.07-0.12-4.09-0.68-6.1-1.33c-1.8-0.58-3.63-0.63-5.43,0.23
		c-1.78,0.84-3.47,0.14-5.13-0.7c-0.54-0.28-1.09-0.48-1.67-0.47c-0.95,0-1.82-0.36-2.62-0.98c-1.81-1.42-3.8-2.26-5.84-2.96
		c-0.94-0.33-1.91-0.27-2.86-0.41c-0.11-0.02-0.49-0.08-1,0.12c-0.96,0.39-1.9,1.34-2.85,1.16c-1.47-0.29-2.02,3.96-0.37,4.88
		c0.18,0.1,0.35,0.27,0.56,0.44c-0.06-0.9,0.54-1.3,0.76-1.63c0.46-0.69,0.55-0.76,1-1.16c0.63-0.56,1.16-0.46,1.74,0.23
		c0.38,0.46,1.19,1.49,1.51,1.97c0.54,0.82,2.04,1.02,2.84,0.67c0.47-0.21,1.19-0.59,1.7-0.67C-5.08,25.55-3.1,25.86-2,27
		c-0.14,0.36-0.35,0.25-0.57,0.15c-1.33-0.57-3.45-0.75-4.75,0.04c-1.47,0.89-3.77,0.27-4.64-1.48c-0.97-1.94-1.62-1.57-2.63-0.02
		c-0.28,0.43-0.82,1.21-0.17,1.58c0.93,0.54,0.18,1.93-1.45,1.13c-0.15-0.07-1.29-0.88-2.23-0.59c-0.78,0.24-1.6,0.26-2.42,0.28
		c-0.87,0.02-1.89-0.56-2.21-1.26c-0.59-1.3-1.32-1.96-2.39-2.77c-0.63-0.48-1.07-0.77-3.24-0.75c-2.95,0.02-3.47-0.53-4.02-1.32
		c-1.06-1.54-2.39-1.71-3.89-1.12c-0.94,0.37-1.58,0.11-2.22-0.45c-0.67-0.58-1.43-0.98-2.31-1.11c-0.62-0.09-0.8,0.16-0.56,0.72
		c0.56,1.28,1.64,1.93,2.95,2.43c-0.35,0.57-0.86,0.43-1.23,0.23c-1.05-0.57-2.09-1.17-2.77-2.22c-0.13-0.2-0.35-0.54-0.17-0.63
		c1.1-0.56,0.25-1.24,0.18-1.86c-0.41-0.35-0.99-0.38-1.35-0.92c-0.35-0.53-1.05-0.09-1.7-0.17c0.38,1.8,1.03,3.38,1.9,4.85
		c0.42,0.71,1.12,1.17,1.88,1.51c0.22,0.1,0.44,0.3,0.3,0.56c-0.12,0.23-0.38,0.25-0.63,0.13c-0.97-0.45-1.95-0.95-2.46-1.91
		c-0.63-1.17-1.35-2.29-1.69-3.62c-0.45-1.77-0.69-1.73-2.16-1.53c-2.45,0.35-2.46,0.36-2.71,2.84c-0.04,0.34-0.13,0.65-0.23,0.97
		c-0.43,1.4-0.56,2.81-0.13,4.25c0.22,0.75,0.38,1.47,1.22,1.8c0.49,0.19,0.91,1,1.06,1.47c0.33,1,0.35,1.71,0.75,2.68
		c0.46,1.1,1.14,1.95,2.5,2.05c0.79,0.06,1.33,0.71,1.87,1.25c2.12,2.13,4.67,3.49,7.59,4.11c0.74,0.16,1.51,0.14,2.29,0.02
		c1.2-0.2,1.64-0.52,2.08-1.73c0.52-1.46,1.6-1.89,3.16-1.69c1.23,0.16,2.97,0.61,4.05,1.1c2.01,0.9,1.68,1.73,3.44,1.62
		c1.16-0.07,1.63-3.43,3.07-3.25c0.28,0.03,1.28,0.21,1.83-0.16c0.82-0.55,1.24-1.5,1.73-1.93c1.07-0.96,1.78-0.59,2.5-0.49
		c1.02,0.13,1.72,0.17,2.29,0.32c0.89,0.23,2.26-1.15,3.13-1.98c0.74-0.71,1.98-0.97,2.88-0.91c1.37,0.1,2.1,0.05,3.47,0.15
		c0.75,0.05,1.86-0.14,2.5-0.69c0.98-0.84,2.09-1.19,3.29-1.02c2.34,0.33,4.66-0.05,6.99-0.33c1.99-0.24,3.99-0.11,5.99-0.04
		c1.53,0.06,5.67,0.9,5.67,0.49C22.88,27.51,21.84,27.11,21.48,27.03z"/>
	<path d="M-14.16-27.38c-0.11,0-0.22,0.01-0.35,0.01C-16.62-27.38-15.29-27.39-14.16-27.38z"/>
	<g>
		<g>
			<g>
				<path d="M41.11,17.25c0.33-0.47-2.3-1.96-4.1-2.93c-1.89-1-3.88-1.53-5.86-0.15c-0.83,0.57-1.51,1.36-2.07,2.26
					c-1.08,0.82-1.9,0.44-2.72,0.17c-0.94-0.37,1.68-0.6,0.37-1.45c-1.97-1.28-3.1-1.68-5.25-2.45c-2.9-1.05-5.82-1.28-8.71,0.07
					c-0.75,0.35-1.45,0.87-2.17,1.32c-0.82,0.51-1.62,0.8-2.49,0.1c-0.88-0.72-1.82-0.56-2.56,0.26C3.23,17.03,0.43,17-2.39,16.9
					c-0.96-0.03-1.91-0.27-2.86-0.43c-0.7-0.12-1.35-0.38-1.9-0.95c-0.34-0.35-0.71-0.53-1.16-0.51c-0.22,0.01-0.48-0.15-0.6,0.2
					c-0.11,0.33,0.09,0.56,0.27,0.72c0.98,0.84,1.86,1.9,2.97,2.46c2.38,1.2,4.77,2.41,7.33,2.86c1.35,0.24,2.68,0.2,3.81-1.06
					c0.69-0.77,1.51-0.84,2.35-0.23c0.97,0.7,2.06,0.79,2.98,0.1c0.81-0.61,1.69-1.32,2.47-0.96c1.76,0.82,2.55,0.01,3.4,0.26
					c3.44,2.01,4.28,0.76,7.2,1.29c2.29,0.42,4.42-0.05,5.75-0.45c0.7,0,1.41-0.8,1.71-1.34c0.66-1.18,1.61-1.57,2.71-1.52
					c3.79,0.15,2.48-0.21,5.17,0.18C39.72,17.63,40.7,18.13,41.11,17.25z M13.77,17.78c0.9-1.23,2.06-1.63,3.19-0.99
					c1.03,0.59,2.1,0.9,3.22,0.88c0.36,0,0.79,0.12,1-0.48c-0.56-0.23-1.14-0.14-1.71-0.28c-0.62-0.15-1.17-0.46-1.72-0.78
					c-1.66-0.97-3.3-0.83-4.54,0.76c-0.74,0.94-1.61,1.42-2.49,1.99c-0.81,0.52-1.64,0.55-2.44,0.03C7.1,18.11,6,18.22,4.97,19.28
					c-0.98,1-2.07,1.06-3.26,0.77c-1.66-0.41-3.27-1.04-4.86-1.75c-0.1-0.04-0.18-0.16-0.09-0.37c0.17,0,0.35,0,0.54,0
					c0.15,0,0.31-0.02,0.46,0c2.98,0.37,5.81-0.03,8.22-2.54c0.46-0.48,0.96-0.56,1.5-0.22c0.56,0.35,1.15,0.45,1.78,0.48
					c1.07,0.04,1.91-0.63,2.78-1.21c2.12-1.4,4.32-1.7,6.7-1.32c2.47,0.39,3.81,0.68,5.97,2.04c1.37,0.86-1.63,1.54-0.11,1.94
					c1.76,0.47,4.26,1.73,5.53-0.59c0.61-1.12,1.6-1.92,2.82-2c1.34-0.08,2.57,0.46,3.81,0.97c0.4,0.17,0.89,0.24,1.18,0.69
					c-0.08,0.32-0.25,0.31-0.39,0.31c-1-0.06-1.99-0.13-2.99-0.21c-1.44-0.11-2.78,0.21-3.72,1.73c-0.58,0.93-1.34,1.43-2.24,1.61
					c-0.22,0.05-3.65,0.4-5.77,0.1c-2.94-0.37-3.62,0.48-6.31-1.32C15.81,18.24,14.33,19.12,13.77,17.78z"/>
				<path d="M-33.8,31.31c-1.54,0.23-2.9-0.1-4.26-0.84c-2.5-1.37-4.39-3.21-5.47-5.85c-0.09-0.22-0.22-0.43-0.35-0.63
					c-0.12-0.18-0.29-0.24-0.5-0.14c-0.18,0.09-0.33,0.23-0.32,0.44c0,0.18,0.08,0.36,0.12,0.55c0.56,2.22,1.73,4.04,3.6,5.38
					c0.22,0.16,0.55,0.22,0.5,0.75c-1.2-0.22-2.29-0.58-3.23-1.38c-1.96-1.67-2.91-3.89-3.44-6.33c-0.07-0.33-0.13-0.66-0.23-0.98
					c-0.08-0.27-0.31-0.35-0.57-0.32c-0.3,0.04-0.38,0.29-0.35,0.53c0.05,0.52,0.15,1.03,0.22,1.53c-0.41,0.23-0.57-0.08-0.68-0.31
					c-0.41-0.86-0.73-1.76-0.88-2.72c-0.07-0.47-0.13-0.95-0.23-1.42c-0.05-0.25-0.23-0.4-0.51-0.42c-0.36-0.03-0.36-0.08-0.47,0.2
					c-0.05,0.13-0.12,1.06-0.08,1.18c-0.01,1.88,0.4,2.25,1.11,3.48c0.23,0.4,0.5,0.7,0.95,0.82c0.84,0.23,1.26,0.91,1.46,1.64
					c0.39,1.4,1.32,2.43,2.21,3.49c1.22,1.44,2.84,1.93,4.66,1.7c0.93-0.12,1.75-0.02,2.62,0.35c1.61,0.68,3.28,0.54,4.89-0.05
					c0.44-0.16,0.74-0.24,1.19-0.03c2.02,0.94,4.12,0.8,6.19,0.21c0.73-0.21,1.54-0.28,2.19-0.71c-0.03-0.1-0.05-0.2-0.08-0.3
					c-0.96,0.07-1.94,0.06-2.89,0.22c-1.56,0.26-3.04,0.07-4.53-0.4c-2.82-0.9-5.24-2.36-7.02-4.77c-0.25-0.34-0.58-0.64-0.89-0.94
					c-0.21-0.2-0.47-0.42-0.76-0.21c-0.27,0.2-0.22,0.51-0.05,0.78c1.33,2.07,2.72,4.09,5.09,5.13
					C-34.3,31.05-34.05,31.18-33.8,31.31z"/>
				<path d="M-32.09,26.45c0.18,0.82,0.85,1.18,1.52,1.53c2.89,1.52,2.34,2.97,4.03,2.58c1.62-0.37,3.09-0.38,4.5,0.7
					c1.07,0.81,2.29,1.03,3.68,0.67c1.47-0.39,3.01-0.51,4.55-0.4c0.5,0.03,1.06,0.16,1.46-0.55c-1.58-0.45-3.09-0.97-4.73-0.6
					c-0.09,0.02-0.19,0.03-0.28,0.06c-1.75,0.6-3.33,0.3-4.89-0.72c-1.88-1.23-2.48-0.58-3.62-0.52c-1.41,0.12-1.05-0.96-2.41-1.59
					c-0.95-0.44-1.95-0.79-2.93-1.18C-31.5,26.32-31.76,26.21-32.09,26.45z"/>
				<path d="M6.86,26.88c-0.9,0.38-1.64,0.31-2.37,0.16c-1.06-0.22-2.06-0.12-2.9,0.83c-0.17,0.19-0.39,0.42-0.58,0.1
					c-0.17-0.3,0.06-0.53,0.21-0.73c0.66-0.85,1.52-1.19,2.4-1.1C4.64,26.23,5.69,26.4,6.86,26.88z"/>
			</g>
		</g>
	</g>
</symbol>
<g id="Layer_1">
</g>
<g id="BG">
	<rect id="BG_00000082354266892434819460000014407544633745974707_" x="0.02" y="0" fill="#F0EDDA" width="60" height="100"/>
</g>
<g id="THINGS">
	<g>
		<g id="_x35__00000023992444098012691510000015211268419781498531_">
			
				<use xlink:href="#train"  width="120.74" height="79.57" x="-79.6" y="-39.79" transform="matrix(0.4215 0 0 -0.4215 37.9317 59.8232)" overflow="visible"/>
			<g>
				<g>
					<path fill="#231F20" d="M14.74,10.66l-0.88,0.08l-1.29-2.21h-0.94v2.13l-0.8,0.08V5.13c0.44-0.1,0.99-0.15,1.65-0.15
						c0.68,0,1.18,0.15,1.49,0.44c0.31,0.29,0.46,0.74,0.46,1.34c0,0.87-0.34,1.42-1.02,1.63L14.74,10.66z M13.64,6.76
						c0-0.3-0.08-0.52-0.25-0.68c-0.17-0.16-0.46-0.24-0.89-0.24c-0.22,0-0.51,0.02-0.88,0.06v1.77h0.98
						C13.3,7.67,13.64,7.37,13.64,6.76z"/>
					<path fill="#231F20" d="M16.2,10.74l-0.84-0.08l2.49-5.68h0.12l2.56,5.68l-0.77,0.08l-0.58-1.29h-2.42L16.2,10.74z M17.95,6.72
						l-0.88,2.02h1.79L17.95,6.72z"/>
					<path fill="#231F20" d="M21.45,5.06l0.8-0.08v5.68l-0.8,0.08V5.06z"/>
					<path fill="#231F20" d="M27.33,9.8l-0.16,0.86h-3.44v-5.6l0.8-0.08V9.8H27.33z"/>
					<path fill="#231F20" d="M32.19,10.66l-0.88,0.08l-1.29-2.21h-0.94v2.13l-0.8,0.08V5.13c0.44-0.1,0.99-0.15,1.65-0.15
						c0.68,0,1.18,0.15,1.49,0.44c0.31,0.29,0.46,0.74,0.46,1.34c0,0.87-0.34,1.42-1.02,1.63L32.19,10.66z M31.09,6.76
						c0-0.3-0.08-0.52-0.25-0.68c-0.17-0.16-0.46-0.24-0.89-0.24c-0.22,0-0.51,0.02-0.88,0.06v1.77h0.98
						C30.75,7.67,31.09,7.37,31.09,6.76z"/>
					<path fill="#231F20" d="M33.54,9.91c-0.45-0.55-0.67-1.24-0.67-2.05c0-0.82,0.22-1.5,0.67-2.05s1.04-0.83,1.76-0.83
						c0.72,0,1.31,0.28,1.76,0.83c0.45,0.55,0.67,1.24,0.67,2.05c0,0.82-0.22,1.5-0.67,2.05c-0.45,0.55-1.03,0.83-1.76,0.83
						C34.58,10.74,33.99,10.47,33.54,9.91z M36.5,9.32c0.29-0.37,0.44-0.86,0.44-1.46c0-0.6-0.15-1.09-0.44-1.46
						c-0.29-0.37-0.69-0.56-1.19-0.56c-0.51,0-0.91,0.19-1.2,0.56c-0.29,0.37-0.44,0.86-0.44,1.46c0,0.6,0.15,1.09,0.44,1.46
						c0.29,0.37,0.69,0.56,1.2,0.56C35.81,9.88,36.21,9.7,36.5,9.32z"/>
					<path fill="#231F20" d="M38.98,10.74l-0.84-0.08l2.49-5.68h0.12l2.56,5.68l-0.77,0.08l-0.58-1.29h-2.42L38.98,10.74z
						 M40.73,6.72l-0.88,2.02h1.79L40.73,6.72z"/>
					<path fill="#231F20" d="M45.97,10.74c-0.29,0-0.58-0.01-0.88-0.04c-0.29-0.02-0.52-0.05-0.66-0.08l-0.22-0.03V5.13
						c0.52-0.1,1.11-0.15,1.76-0.15c0.94,0,1.65,0.25,2.11,0.74c0.46,0.5,0.69,1.21,0.69,2.14c0,0.93-0.23,1.64-0.69,2.14
						C47.62,10.49,46.91,10.74,45.97,10.74z M45.96,5.84c-0.29,0-0.6,0.02-0.96,0.07v3.9c0.32,0.04,0.63,0.06,0.96,0.06
						c1.34,0,2.01-0.67,2.01-2.02C47.97,6.51,47.3,5.84,45.96,5.84z"/>
					<path fill="#231F20" d="M28.85,12.44l0.16,0.86h-1.79v4.74l-0.8,0.08V13.3h-1.79l0.16-0.86H28.85z"/>
					<path fill="#231F20" d="M30.33,17.29c-0.45-0.55-0.67-1.24-0.67-2.05c0-0.82,0.22-1.5,0.67-2.05c0.45-0.55,1.04-0.83,1.76-0.83
						c0.72,0,1.31,0.28,1.76,0.83c0.45,0.55,0.67,1.24,0.67,2.05c0,0.82-0.22,1.5-0.67,2.05c-0.45,0.55-1.03,0.83-1.76,0.83
						C31.37,18.12,30.78,17.84,30.33,17.29z M33.29,16.7c0.29-0.37,0.44-0.86,0.44-1.46c0-0.6-0.15-1.09-0.44-1.46
						c-0.29-0.37-0.69-0.56-1.19-0.56c-0.51,0-0.91,0.19-1.2,0.56s-0.44,0.86-0.44,1.46c0,0.6,0.15,1.09,0.44,1.46
						c0.29,0.37,0.69,0.56,1.2,0.56C32.6,17.26,32.99,17.07,33.29,16.7z"/>
					<path fill="#231F20" d="M13.06,25.42l-0.88,0.08l-1.29-2.21H9.94v2.13l-0.8,0.08v-5.62c0.44-0.1,0.99-0.15,1.65-0.15
						c0.68,0,1.18,0.15,1.49,0.44c0.31,0.29,0.46,0.74,0.46,1.34c0,0.87-0.34,1.42-1.02,1.63L13.06,25.42z M11.96,21.51
						c0-0.3-0.08-0.52-0.25-0.68c-0.17-0.16-0.46-0.24-0.89-0.24c-0.22,0-0.51,0.02-0.88,0.06v1.77h0.98
						C11.61,22.43,11.96,22.12,11.96,21.51z"/>
					<path fill="#231F20" d="M17.62,22.89v-3.08l0.8-0.08v3.16c0,0.36-0.04,0.69-0.12,0.99s-0.2,0.58-0.37,0.82
						c-0.17,0.25-0.4,0.44-0.7,0.58c-0.3,0.14-0.65,0.21-1.06,0.21s-0.76-0.07-1.06-0.21c-0.3-0.14-0.53-0.33-0.7-0.58
						c-0.17-0.25-0.29-0.52-0.37-0.82s-0.12-0.63-0.12-0.99v-3.08l0.8-0.08v3.16c0,1.16,0.48,1.75,1.45,1.75
						C17.14,24.64,17.62,24.06,17.62,22.89z"/>
					<path fill="#231F20" d="M19.85,19.82l0.8-0.08v5.68l-0.8,0.08V19.82z"/>
					<path fill="#231F20" d="M26.42,25.5l-3.5-3.85v3.77l-0.8,0.08v-5.76h0.05l3.52,3.84v-3.76l0.8-0.08v5.76H26.42z"/>
					<path fill="#231F20" d="M28.21,25.5l-0.84-0.08l2.49-5.68h0.12l2.56,5.68l-0.77,0.08l-0.58-1.29h-2.42L28.21,25.5z
						 M29.96,21.47l-0.88,2.02h1.79L29.96,21.47z"/>
					<path fill="#231F20" d="M36.6,19.82l0.16,0.86h-1.79v4.74l-0.8,0.08v-4.82h-1.79l0.16-0.86H36.6z"/>
					<path fill="#231F20" d="M37.76,19.82l0.8-0.08v5.68l-0.8,0.08V19.82z"/>
					<path fill="#231F20" d="M40.48,24.67c-0.45-0.55-0.67-1.24-0.67-2.05c0-0.82,0.22-1.5,0.67-2.05s1.04-0.83,1.76-0.83
						c0.72,0,1.31,0.28,1.76,0.83c0.45,0.55,0.67,1.24,0.67,2.05c0,0.82-0.22,1.5-0.67,2.05c-0.45,0.55-1.03,0.83-1.76,0.83
						C41.51,25.5,40.93,25.22,40.48,24.67z M43.43,24.08c0.29-0.37,0.44-0.86,0.44-1.46c0-0.6-0.15-1.09-0.44-1.46
						c-0.29-0.37-0.69-0.56-1.19-0.56c-0.51,0-0.91,0.19-1.2,0.56c-0.29,0.37-0.44,0.86-0.44,1.46c0,0.6,0.15,1.09,0.44,1.46
						c0.29,0.37,0.69,0.56,1.2,0.56C42.74,24.64,43.14,24.45,43.43,24.08z"/>
					<path fill="#231F20" d="M50.19,25.5l-3.5-3.85v3.77l-0.8,0.08v-5.76h0.05l3.52,3.84v-3.76l0.8-0.08v5.76H50.19z"/>
				</g>
			</g>
			<g>
				<g>
					<path fill="#231F20" d="M14.87,85.7c0,0.38-0.11,0.66-0.33,0.85c-0.22,0.19-0.56,0.28-1.03,0.28h-0.61v1.35l-0.56,0.05v-3.57
						c0.31-0.06,0.7-0.09,1.16-0.09c0.48,0,0.83,0.09,1.04,0.28C14.76,85.03,14.87,85.32,14.87,85.7z M14.14,86.13
						c0.12-0.1,0.18-0.25,0.18-0.43c0-0.19-0.06-0.33-0.18-0.43c-0.12-0.1-0.32-0.15-0.62-0.15c-0.15,0-0.36,0.01-0.61,0.04v1.13
						h0.61C13.82,86.28,14.02,86.23,14.14,86.13z"/>
					<path fill="#231F20" d="M18.37,88.18l-0.62,0.05l-0.9-1.4h-0.66v1.35l-0.56,0.05v-3.57c0.31-0.06,0.7-0.09,1.16-0.09
						c0.48,0,0.83,0.09,1.04,0.28c0.22,0.19,0.33,0.47,0.33,0.85c0,0.56-0.24,0.9-0.71,1.04L18.37,88.18z M17.6,85.7
						c0-0.19-0.06-0.33-0.18-0.43c-0.12-0.1-0.32-0.15-0.62-0.15c-0.15,0-0.36,0.01-0.61,0.04v1.13h0.69
						C17.36,86.28,17.6,86.09,17.6,85.7z"/>
					<path fill="#231F20" d="M19.1,84.62l0.56-0.05v3.62l-0.56,0.05V84.62z"/>
					<path fill="#231F20" d="M21.04,87.75c-0.3-0.32-0.45-0.77-0.45-1.35c0-0.58,0.15-1.03,0.45-1.35s0.73-0.48,1.3-0.48
						c0.2,0,0.39,0.02,0.58,0.04c0.19,0.03,0.32,0.06,0.41,0.09l0.13,0.04l-0.13,0.52c-0.32-0.1-0.63-0.14-0.92-0.14
						c-0.43,0-0.75,0.11-0.95,0.33c-0.2,0.22-0.3,0.54-0.3,0.96c0,0.42,0.1,0.74,0.3,0.96c0.2,0.22,0.52,0.33,0.95,0.33
						c0.14,0,0.29-0.01,0.45-0.04c0.16-0.02,0.29-0.05,0.37-0.07l0.13-0.04l0.13,0.52c-0.29,0.12-0.68,0.18-1.16,0.18
						C21.77,88.24,21.34,88.07,21.04,87.75z"/>
					<path fill="#231F20" d="M26.77,87.64l-0.11,0.55h-2.41v-3.56h2.41l0.11,0.55h-1.96v0.9h1.61v0.55h-1.61v1.02H26.77z"/>
					<path fill="#231F20" d="M29.6,87.85l0.28-0.73c0.32,0.19,0.75,0.31,1.31,0.35v-1.43c-0.23-0.07-0.42-0.14-0.57-0.2
						s-0.31-0.16-0.47-0.27s-0.29-0.25-0.37-0.41c-0.08-0.16-0.13-0.35-0.13-0.56c0-0.45,0.14-0.81,0.42-1.08s0.65-0.43,1.12-0.49
						v-0.66l0.6-0.07v0.72c0.2,0.01,0.39,0.05,0.59,0.09c0.2,0.05,0.34,0.09,0.44,0.13l0.15,0.06l-0.25,0.73
						c-0.26-0.12-0.57-0.19-0.93-0.23v1.49c0.23,0.07,0.42,0.14,0.57,0.21c0.15,0.07,0.31,0.15,0.48,0.26
						c0.17,0.11,0.29,0.24,0.37,0.39c0.08,0.16,0.13,0.33,0.13,0.53c0,0.94-0.51,1.45-1.54,1.54v0.65l-0.6,0.07v-0.72
						c-0.25-0.02-0.5-0.06-0.77-0.12c-0.27-0.06-0.47-0.12-0.6-0.18L29.6,87.85z M30.44,84.5c0,0.14,0.06,0.25,0.19,0.35
						c0.12,0.1,0.31,0.19,0.55,0.27v-1.29C30.69,83.89,30.44,84.12,30.44,84.5z M32.52,86.8c0-0.13-0.06-0.24-0.19-0.33
						c-0.13-0.09-0.31-0.17-0.55-0.25v1.24C32.28,87.39,32.52,87.17,32.52,86.8z"/>
					<path fill="#231F20" d="M37.23,87.42l-0.07,0.76h-3.23v-0.07c0.96-1.07,1.59-1.78,1.87-2.13c0.23-0.29,0.4-0.54,0.49-0.75
						c0.1-0.2,0.15-0.41,0.15-0.61c0-0.26-0.08-0.47-0.25-0.62c-0.16-0.15-0.38-0.23-0.66-0.23c-0.2,0-0.38,0.03-0.56,0.09
						c-0.18,0.06-0.3,0.12-0.38,0.19l-0.12,0.1l-0.3-0.66c0.04-0.04,0.1-0.08,0.17-0.13s0.24-0.12,0.48-0.21
						c0.25-0.09,0.5-0.13,0.77-0.13c0.47,0,0.85,0.13,1.16,0.39c0.3,0.26,0.46,0.62,0.46,1.08c0,0.51-0.21,1.03-0.62,1.57
						l-1.11,1.37H37.23z"/>
					<path fill="#231F20" d="M38.69,87.49c-0.37-0.51-0.55-1.13-0.55-1.86c0-0.73,0.18-1.35,0.55-1.86c0.37-0.5,0.86-0.76,1.48-0.76
						c0.62,0,1.11,0.25,1.48,0.76c0.37,0.5,0.55,1.12,0.55,1.86c0,0.74-0.18,1.36-0.55,1.87c-0.37,0.51-0.86,0.76-1.48,0.76
						C39.55,88.26,39.06,88,38.69,87.49z M41.43,85.63c0-0.54-0.11-0.99-0.33-1.33s-0.53-0.52-0.93-0.52s-0.71,0.17-0.93,0.52
						c-0.22,0.35-0.33,0.79-0.33,1.33c0,0.55,0.11,0.99,0.33,1.34c0.22,0.35,0.53,0.52,0.93,0.52s0.71-0.17,0.93-0.52
						C41.32,86.62,41.43,86.18,41.43,85.63z"/>
					<path fill="#231F20" d="M43.66,87.49c-0.37-0.51-0.55-1.13-0.55-1.86c0-0.73,0.18-1.35,0.55-1.86c0.37-0.5,0.86-0.76,1.48-0.76
						c0.62,0,1.11,0.25,1.48,0.76c0.37,0.5,0.55,1.12,0.55,1.86c0,0.74-0.18,1.36-0.55,1.87c-0.37,0.51-0.86,0.76-1.48,0.76
						C44.52,88.26,44.03,88,43.66,87.49z M46.4,85.63c0-0.54-0.11-0.99-0.33-1.33s-0.53-0.52-0.93-0.52s-0.71,0.17-0.93,0.52
						c-0.22,0.35-0.33,0.79-0.33,1.33c0,0.55,0.11,0.99,0.33,1.34c0.22,0.35,0.53,0.52,0.93,0.52s0.71-0.17,0.93-0.52
						C46.29,86.62,46.4,86.18,46.4,85.63z"/>
				</g>
			</g>
		</g>
	</g>
	<path d="M0.02,0v1.6v96.8v1.6h60v-1.6V1.6V0H0.02z M59.02,98.4h-58V1.6h58V98.4z"/>
	<g>
	</g>
	<g>
	</g>
	<g>
	</g>
	<g>
	</g>
	<g>
	</g>
	<g>
	</g>
	<g>
	</g>
	<g>
	</g>
	<g>
	</g>
	<g>
	</g>
	<g>
	</g>
	<g>
	</g>
	<g>
	</g>
	<g>
	</g>
	<g>
	</g>
	<g>
	</g>
	<g>
	</g>
	<g>
	</g>
	<g>
	</g>
</g>
</svg>
