<?xml version="1.0" encoding="utf-8"?>
<!-- Generator: Adobe Illustrator 26.2.1, SVG Export Plug-In . SVG Version: 6.00 Build 0)  -->
<svg version="1.1" xmlns="http://www.w3.org/2000/svg" xmlns:xlink="http://www.w3.org/1999/xlink" x="0px" y="0px"
	 viewBox="0 0 60 100" enable-background="new 0 0 60 100" xml:space="preserve">
<g id="BG">
	<rect id="BG_00000082354266892434819460000014407544633745974707_" x="0.02" y="0" fill="#F0EDDA" width="60" height="100"/>
	<rect id="BG_00000037693340041972082810000009059657678697518014_" x="0.02" fill="#F0EDDA" width="60" height="100"/>
</g>
<g id="THINGS">
	<path d="M0.02,0v1.6v96.8v1.6h60v-1.6V1.6V0H0.02z M59.02,98.4h-58V1.6h58V98.4z"/>
	<g>
		<g id="_x31_9_00000119089901189383970200000004445820325941781634_">
			<g>
				<rect x="0.51" y="0.5" fill="#F08022" width="59.02" height="27.6"/>
				<path fill="#222317" d="M59.02,1v26.6H1.01V1H59.02 M60.02,0H0.01v28.6h60.01V0L60.02,0z"/>
			</g>
			<g>
				<rect x="0.51" y="0.5" fill="#F08022" width="59.02" height="27.6"/>
				<path fill="#222317" d="M59.02,1v26.6H1.01V1H59.02 M60.02,0H0.01v28.6h60.01V0L60.02,0z"/>
			</g>
			<g>
				<rect x="0.51" y="0.5" fill="#F08022" width="59.02" height="27.6"/>
				<path fill="#222317" d="M59.02,1v26.6H1.01V1H59.02 M60.02,0H0.01v28.6h60.01V0L60.02,0z"/>
			</g>
			<g>
				<g>
					<path fill="#231F20" d="M9.91,38.88l-0.84-0.08l2.49-5.68h0.12l2.56,5.68l-0.77,0.08l-0.58-1.29h-2.42L9.91,38.88z
						 M11.65,34.85l-0.88,2.02h1.79L11.65,34.85z"/>
					<path fill="#231F20" d="M18.74,34.89c0,0.6-0.15,1.04-0.46,1.33c-0.31,0.29-0.8,0.44-1.47,0.44h-0.88v2.13l-0.8,0.08v-5.62
						c0.44-0.1,0.99-0.15,1.65-0.15c0.68,0,1.18,0.15,1.49,0.44C18.59,33.84,18.74,34.29,18.74,34.89z M17.7,35.57
						c0.17-0.16,0.25-0.38,0.25-0.68c0-0.3-0.08-0.52-0.25-0.68c-0.17-0.16-0.46-0.24-0.89-0.24c-0.22,0-0.51,0.02-0.88,0.06v1.77
						h0.88C17.23,35.81,17.53,35.73,17.7,35.57z"/>
					<path fill="#231F20" d="M19.64,38.88l-0.84-0.08l2.49-5.68h0.12l2.56,5.68l-0.77,0.08l-0.58-1.29H20.2L19.64,38.88z
						 M21.39,34.85l-0.88,2.02h1.79L21.39,34.85z"/>
					<path fill="#231F20" d="M28.03,33.2l0.16,0.86H26.4v4.74l-0.8,0.08v-4.82h-1.79l0.16-0.86H28.03z"/>
					<path fill="#231F20" d="M32.3,33.2l0.8-0.08v5.68l-0.8,0.08V36.3h-2.33v2.49l-0.8,0.08V33.2l0.8-0.08v2.33h2.33V33.2z"/>
					<path fill="#231F20" d="M38.16,37.93L38,38.79h-3.44v-5.6H38l0.16,0.86h-2.8v1.42h2.29v0.86h-2.29v1.6H38.16z"/>
					<path fill="#231F20" d="M43.29,33.2l0.16,0.86h-1.79v4.74l-0.8,0.08v-4.82h-1.79l0.16-0.86H43.29z"/>
					<path fill="#231F20" d="M44.44,33.2l0.8-0.08v5.68l-0.8,0.08V33.2z"/>
					<path fill="#231F20" d="M47.16,38.12c-0.43-0.51-0.64-1.21-0.64-2.12c0-0.91,0.21-1.62,0.64-2.12s1.04-0.76,1.85-0.76
						c0.29,0,0.56,0.02,0.83,0.07s0.46,0.09,0.58,0.14l0.19,0.06l-0.19,0.81c-0.46-0.15-0.9-0.23-1.31-0.23
						c-0.62,0-1.07,0.17-1.36,0.51c-0.29,0.34-0.43,0.84-0.43,1.51c0,0.67,0.14,1.17,0.43,1.51c0.29,0.34,0.74,0.51,1.36,0.51
						c0.2,0,0.42-0.02,0.65-0.06c0.23-0.04,0.41-0.08,0.54-0.11l0.19-0.06l0.19,0.81c-0.42,0.18-0.97,0.28-1.66,0.28
						C48.21,38.88,47.59,38.62,47.16,38.12z"/>
					<path fill="#231F20" d="M24.46,42.27c0,0.6-0.15,1.04-0.46,1.33c-0.31,0.29-0.8,0.44-1.47,0.44h-0.88v2.13l-0.8,0.08v-5.62
						c0.44-0.1,0.99-0.15,1.65-0.15c0.68,0,1.18,0.15,1.49,0.44C24.31,41.22,24.46,41.67,24.46,42.27z M23.42,42.95
						c0.17-0.16,0.25-0.38,0.25-0.68c0-0.3-0.08-0.52-0.25-0.68c-0.17-0.16-0.46-0.24-0.89-0.24c-0.22,0-0.51,0.02-0.88,0.06v1.77
						h0.88C22.95,43.19,23.25,43.11,23.42,42.95z"/>
					<path fill="#231F20" d="M25.36,46.25l-0.84-0.08l2.49-5.68h0.12l2.56,5.68l-0.77,0.08l-0.58-1.29h-2.42L25.36,46.25z
						 M27.11,42.23l-0.88,2.02h1.79L27.11,42.23z"/>
					<path fill="#231F20" d="M34.5,46.17l-0.88,0.08l-1.29-2.21h-0.94v2.13l-0.8,0.08v-5.62c0.44-0.1,0.99-0.15,1.65-0.15
						c0.68,0,1.18,0.15,1.49,0.44c0.31,0.29,0.46,0.74,0.46,1.34c0,0.87-0.34,1.42-1.02,1.63L34.5,46.17z M33.41,42.27
						c0-0.3-0.08-0.52-0.25-0.68c-0.17-0.16-0.46-0.24-0.89-0.24c-0.22,0-0.51,0.02-0.88,0.06v1.77h0.98
						C33.06,43.19,33.41,42.88,33.41,42.27z"/>
					<path fill="#231F20" d="M39.59,46.17l-0.89,0.08l-2.41-2.82v2.74l-0.8,0.08v-5.68l0.8-0.08v2.88l2.32-2.88l0.86,0.08l-2.24,2.8
						L39.59,46.17z"/>
				</g>
			</g>
			<g>
				<g>
					<path fill="#231F20" d="M15.91,89.64c0,0.38-0.11,0.66-0.33,0.85c-0.22,0.19-0.56,0.28-1.03,0.28h-0.61v1.35l-0.56,0.05V88.6
						c0.31-0.06,0.7-0.09,1.16-0.09c0.48,0,0.83,0.09,1.04,0.28C15.81,88.97,15.91,89.26,15.91,89.64z M15.18,90.07
						c0.12-0.1,0.18-0.25,0.18-0.43c0-0.19-0.06-0.33-0.18-0.44c-0.12-0.1-0.32-0.15-0.62-0.15c-0.15,0-0.36,0.01-0.61,0.04v1.12
						h0.61C14.86,90.22,15.06,90.17,15.18,90.07z"/>
					<path fill="#231F20" d="M19.41,92.12l-0.62,0.05l-0.9-1.4h-0.66v1.35l-0.56,0.05V88.6c0.31-0.06,0.7-0.09,1.16-0.09
						c0.48,0,0.83,0.09,1.04,0.28c0.22,0.19,0.33,0.47,0.33,0.85c0,0.55-0.24,0.9-0.71,1.04L19.41,92.12z M18.64,89.64
						c0-0.19-0.06-0.33-0.18-0.44c-0.12-0.1-0.32-0.15-0.62-0.15c-0.15,0-0.36,0.01-0.61,0.04v1.12h0.69
						C18.4,90.22,18.64,90.03,18.64,89.64z"/>
					<path fill="#231F20" d="M20.14,88.56l0.56-0.05v3.62l-0.56,0.05V88.56z"/>
					<path fill="#231F20" d="M22.08,91.69c-0.3-0.32-0.45-0.77-0.45-1.35s0.15-1.03,0.45-1.35s0.73-0.48,1.3-0.48
						c0.2,0,0.39,0.02,0.58,0.04s0.32,0.06,0.41,0.09l0.13,0.04l-0.13,0.52c-0.32-0.1-0.63-0.14-0.92-0.14
						c-0.43,0-0.75,0.11-0.95,0.32c-0.2,0.22-0.3,0.54-0.3,0.96s0.1,0.74,0.3,0.96c0.2,0.22,0.52,0.32,0.95,0.32
						c0.14,0,0.29-0.01,0.45-0.04s0.29-0.05,0.37-0.07l0.13-0.04L24.54,92c-0.29,0.12-0.68,0.18-1.16,0.18
						C22.81,92.17,22.38,92.01,22.08,91.69z"/>
					<path fill="#231F20" d="M27.81,91.57l-0.11,0.55h-2.41v-3.56h2.41l0.11,0.55h-1.96v0.9h1.61v0.55h-1.61v1.02H27.81z"/>
					<path fill="#231F20" d="M30.64,91.79l0.28-0.73c0.32,0.19,0.75,0.31,1.31,0.35v-1.43c-0.23-0.07-0.42-0.14-0.57-0.2
						s-0.31-0.15-0.47-0.27c-0.16-0.11-0.29-0.25-0.37-0.4c-0.08-0.16-0.12-0.35-0.12-0.56c0-0.45,0.14-0.81,0.42-1.08
						c0.28-0.27,0.65-0.43,1.12-0.49v-0.66l0.6-0.07v0.72c0.2,0.01,0.39,0.04,0.59,0.09c0.2,0.05,0.34,0.09,0.44,0.13L34,87.25
						l-0.25,0.73c-0.26-0.12-0.57-0.19-0.93-0.23v1.49c0.23,0.07,0.42,0.14,0.57,0.21c0.15,0.07,0.31,0.15,0.48,0.26
						s0.29,0.24,0.37,0.39c0.08,0.15,0.13,0.33,0.13,0.53c0,0.94-0.51,1.45-1.54,1.54v0.65l-0.6,0.07v-0.72
						c-0.25-0.02-0.5-0.06-0.77-0.12c-0.26-0.06-0.47-0.12-0.6-0.18L30.64,91.79z M31.49,88.43c0,0.14,0.06,0.25,0.19,0.35
						c0.13,0.1,0.31,0.19,0.55,0.27v-1.29C31.73,87.83,31.49,88.05,31.49,88.43z M33.57,90.74c0-0.13-0.06-0.24-0.19-0.33
						c-0.13-0.09-0.31-0.17-0.55-0.25v1.24C33.32,91.32,33.57,91.11,33.57,90.74z"/>
					<path fill="#231F20" d="M37,87.03v5.09l-0.77,0.07v-4.23l-1.09,0.26l-0.12-0.76l1.9-0.44H37z"/>
					<path fill="#231F20" d="M38.34,90.86c0-0.31,0.08-0.56,0.25-0.74c0.17-0.19,0.41-0.35,0.71-0.5c-0.27-0.14-0.47-0.31-0.62-0.51
						s-0.22-0.46-0.22-0.76c0-0.41,0.15-0.74,0.44-1s0.69-0.38,1.19-0.38s0.9,0.13,1.19,0.38s0.44,0.59,0.44,1
						c0,0.31-0.07,0.56-0.22,0.76c-0.15,0.2-0.35,0.37-0.62,0.51c0.31,0.15,0.54,0.32,0.71,0.51c0.17,0.19,0.25,0.44,0.25,0.74
						c0,0.39-0.16,0.71-0.47,0.96s-0.74,0.37-1.29,0.37s-0.97-0.12-1.28-0.37C38.5,91.57,38.34,91.25,38.34,90.86z M41.07,90.74
						c0-0.09-0.02-0.17-0.06-0.24c-0.04-0.07-0.08-0.13-0.13-0.18c-0.05-0.05-0.13-0.1-0.23-0.15c-0.11-0.05-0.19-0.09-0.26-0.12
						c-0.07-0.03-0.17-0.06-0.32-0.12c-0.32,0.11-0.56,0.23-0.71,0.34c-0.16,0.11-0.24,0.27-0.24,0.47c0,0.22,0.08,0.39,0.25,0.52
						c0.17,0.13,0.41,0.19,0.73,0.19c0.33,0,0.57-0.06,0.73-0.19C40.99,91.13,41.07,90.96,41.07,90.74z M39.24,88.42
						c0,0.21,0.08,0.37,0.22,0.5c0.15,0.12,0.37,0.25,0.65,0.37c0.27-0.11,0.48-0.23,0.62-0.37s0.21-0.3,0.21-0.51
						s-0.07-0.38-0.22-0.51c-0.15-0.14-0.36-0.2-0.64-0.2c-0.28,0-0.49,0.07-0.63,0.2C39.31,88.04,39.24,88.21,39.24,88.42z"/>
					<path fill="#231F20" d="M43.33,91.43c-0.37-0.51-0.55-1.13-0.55-1.86c0-0.73,0.18-1.35,0.55-1.86c0.37-0.5,0.86-0.76,1.48-0.76
						c0.62,0,1.11,0.25,1.48,0.76c0.37,0.51,0.55,1.12,0.55,1.86c0,0.74-0.18,1.36-0.55,1.87s-0.86,0.76-1.48,0.76
						C44.19,92.2,43.7,91.94,43.33,91.43z M46.07,89.57c0-0.54-0.11-0.98-0.33-1.33s-0.53-0.52-0.93-0.52s-0.71,0.17-0.93,0.52
						c-0.22,0.35-0.33,0.79-0.33,1.33c0,0.55,0.11,0.99,0.33,1.34c0.22,0.35,0.53,0.52,0.93,0.52s0.71-0.17,0.93-0.52
						S46.07,90.12,46.07,89.57z"/>
				</g>
			</g>
		</g>
	</g>
	<path d="M0.02,0v1.6v96.8v1.6h60v-1.6V1.6V0H0.02z M59.02,98.4h-58V1.6h58V98.4z"/>
	<g>
	</g>
	<g>
	</g>
	<g>
	</g>
	<g>
	</g>
	<g>
	</g>
	<g>
	</g>
	<g>
	</g>
	<g>
	</g>
	<g>
	</g>
	<g>
	</g>
	<g>
	</g>
	<g>
	</g>
	<g>
	</g>
	<g>
	</g>
	<g>
	</g>
	<g>
	</g>
	<g>
	</g>
</g>
</svg>
