<?xml version="1.0" encoding="utf-8"?>
<!-- Generator: Adobe Illustrator 26.2.1, SVG Export Plug-In . SVG Version: 6.00 Build 0)  -->
<svg version="1.1" xmlns="http://www.w3.org/2000/svg" xmlns:xlink="http://www.w3.org/1999/xlink" x="0px" y="0px"
	 viewBox="0 0 60 100" enable-background="new 0 0 60 100" xml:space="preserve">
<g id="BG">
	<rect id="BG_00000082354266892434819460000014407544633745974707_" x="0.02" y="0" fill="#F0EDDA" width="60" height="100"/>
	<rect id="BG_00000037693340041972082810000009059657678697518014_" x="0.02" fill="#F0EDDA" width="60" height="100"/>
</g>
<g id="THINGS">
	<path d="M0.02,0v1.6v96.8v1.6h60v-1.6V1.6V0H0.02z M59.02,98.4h-58V1.6h58V98.4z"/>
	<g>
		<g id="_x34_0_00000180330152142673484240000002930106785229630360_">
			<g>
				<rect x="0.51" y="0.5" fill="#006AA3" width="59.02" height="27.6"/>
				<path fill="#222317" d="M59.02,1v26.6H1.01V1H59.02 M60.02,0H0.01v28.6h60.01V0L60.02,0z"/>
			</g>
			<g>
				<rect x="0.51" y="0.5" fill="#006AA3" width="59.02" height="27.6"/>
				<path fill="#222317" d="M59.02,1v26.6H1.01V1H59.02 M60.02,0H0.01v28.6h60.01V0L60.02,0z"/>
			</g>
			<g>
				<rect x="0.51" y="0.5" fill="#006AA3" width="59.02" height="27.6"/>
				<path fill="#222317" d="M59.02,1v26.6H1.01V1H59.02 M60.02,0H0.01v28.6h60.01V0L60.02,0z"/>
			</g>
			<g>
				<g>
					<path fill="#231F20" d="M8.63,38.76c-0.29,0-0.58-0.01-0.88-0.04c-0.29-0.02-0.52-0.05-0.66-0.08l-0.22-0.03v-5.47
						c0.52-0.1,1.11-0.15,1.76-0.15c0.94,0,1.65,0.25,2.11,0.74c0.46,0.5,0.69,1.21,0.69,2.14c0,0.93-0.23,1.64-0.69,2.14
						C10.28,38.51,9.58,38.76,8.63,38.76z M8.62,33.85c-0.29,0-0.6,0.02-0.96,0.07v3.9c0.31,0.04,0.63,0.06,0.96,0.06
						c1.34,0,2.01-0.67,2.01-2.02C10.63,34.53,9.96,33.85,8.62,33.85z"/>
					<path fill="#231F20" d="M12.7,38.76l-0.84-0.08l2.49-5.68h0.12l2.56,5.68l-0.77,0.08l-0.58-1.29h-2.42L12.7,38.76z
						 M14.44,34.73l-0.88,2.02h1.79L14.44,34.73z"/>
					<path fill="#231F20" d="M23.67,38.67l-0.87,0.08l-0.41-3.38l-1.6,2.88l-0.06,0.01l-1.58-2.88l-0.4,3.37l-0.87-0.08l0.68-5.68
						h0.08l2.13,3.92l2.15-3.92h0.06L23.67,38.67z"/>
					<path fill="#231F20" d="M29.26,38.76l-3.5-3.85v3.77l-0.8,0.08v-5.76h0.05l3.52,3.84v-3.76l0.8-0.08v5.76H29.26z"/>
					<path fill="#231F20" d="M31.06,38.76l-0.84-0.08l2.49-5.68h0.12l2.56,5.68l-0.77,0.08l-0.58-1.29h-2.42L31.06,38.76z
						 M32.8,34.73l-0.88,2.02h1.79L32.8,34.73z"/>
					<path fill="#231F20" d="M39.44,33.08l0.16,0.86h-1.79v4.74l-0.8,0.08v-4.82h-1.79l0.16-0.86H39.44z"/>
					<path fill="#231F20" d="M40.6,33.08l0.8-0.08v5.68l-0.8,0.08V33.08z"/>
					<path fill="#231F20" d="M43.32,37.93c-0.45-0.55-0.67-1.24-0.67-2.05c0-0.82,0.22-1.5,0.67-2.05s1.04-0.83,1.76-0.83
						c0.72,0,1.31,0.28,1.76,0.83c0.45,0.55,0.67,1.24,0.67,2.05c0,0.82-0.22,1.5-0.67,2.05c-0.45,0.55-1.03,0.83-1.76,0.83
						C44.36,38.76,43.77,38.48,43.32,37.93z M46.27,37.34c0.29-0.37,0.44-0.86,0.44-1.46c0-0.6-0.15-1.09-0.44-1.46
						c-0.29-0.37-0.69-0.56-1.19-0.56c-0.51,0-0.91,0.19-1.2,0.56c-0.29,0.37-0.44,0.86-0.44,1.46c0,0.6,0.15,1.09,0.44,1.46
						c0.29,0.37,0.69,0.56,1.2,0.56C45.58,37.9,45.98,37.71,46.27,37.34z"/>
					<path fill="#231F20" d="M53.04,38.76l-3.5-3.85v3.77l-0.8,0.08v-5.76h0.05l3.52,3.84v-3.76l0.8-0.08v5.76H53.04z"/>
				</g>
			</g>
			<g>
				<g>
					<path fill="#231F20" d="M14.93,89.64c0,0.38-0.11,0.66-0.33,0.85c-0.22,0.19-0.56,0.28-1.03,0.28h-0.61v1.35l-0.56,0.05V88.6
						c0.31-0.06,0.7-0.09,1.16-0.09c0.48,0,0.83,0.09,1.04,0.28C14.83,88.97,14.93,89.26,14.93,89.64z M14.2,90.07
						c0.12-0.1,0.18-0.25,0.18-0.43c0-0.19-0.06-0.33-0.18-0.44c-0.12-0.1-0.32-0.15-0.62-0.15c-0.15,0-0.36,0.01-0.61,0.04v1.12
						h0.61C13.88,90.22,14.08,90.17,14.2,90.07z"/>
					<path fill="#231F20" d="M18.43,92.12l-0.62,0.05l-0.9-1.4h-0.66v1.35l-0.56,0.05V88.6c0.31-0.06,0.7-0.09,1.16-0.09
						c0.48,0,0.83,0.09,1.04,0.28c0.22,0.19,0.33,0.47,0.33,0.85c0,0.55-0.24,0.9-0.71,1.04L18.43,92.12z M17.66,89.64
						c0-0.19-0.06-0.33-0.18-0.44c-0.12-0.1-0.32-0.15-0.62-0.15c-0.15,0-0.36,0.01-0.61,0.04v1.12h0.69
						C17.42,90.22,17.66,90.03,17.66,89.64z"/>
					<path fill="#231F20" d="M19.16,88.56l0.56-0.05v3.62l-0.56,0.05V88.56z"/>
					<path fill="#231F20" d="M21.1,91.69c-0.3-0.32-0.45-0.77-0.45-1.35s0.15-1.03,0.45-1.35s0.73-0.48,1.3-0.48
						c0.2,0,0.39,0.02,0.58,0.04s0.32,0.06,0.41,0.09l0.13,0.04l-0.13,0.52c-0.32-0.1-0.63-0.14-0.92-0.14
						c-0.43,0-0.75,0.11-0.95,0.32c-0.2,0.22-0.3,0.54-0.3,0.96s0.1,0.74,0.3,0.96c0.2,0.22,0.52,0.32,0.95,0.32
						c0.14,0,0.29-0.01,0.45-0.04s0.29-0.05,0.37-0.07l0.13-0.04L23.56,92c-0.29,0.12-0.68,0.18-1.16,0.18
						C21.83,92.17,21.4,92.01,21.1,91.69z"/>
					<path fill="#231F20" d="M26.83,91.57l-0.11,0.55h-2.41v-3.56h2.41l0.11,0.55h-1.96v0.9h1.61v0.55h-1.61v1.02H26.83z"/>
					<path fill="#231F20" d="M29.66,91.79l0.28-0.73c0.32,0.19,0.75,0.31,1.31,0.35v-1.43c-0.23-0.07-0.42-0.14-0.57-0.2
						s-0.31-0.15-0.47-0.27c-0.16-0.11-0.29-0.25-0.37-0.4c-0.08-0.16-0.13-0.35-0.13-0.56c0-0.45,0.14-0.81,0.42-1.08
						c0.28-0.27,0.65-0.43,1.12-0.49v-0.66l0.6-0.07v0.72c0.2,0.01,0.39,0.04,0.59,0.09c0.2,0.05,0.35,0.09,0.44,0.13l0.15,0.06
						l-0.25,0.73c-0.26-0.12-0.57-0.19-0.93-0.23v1.49c0.23,0.07,0.42,0.14,0.57,0.21s0.31,0.15,0.48,0.26
						c0.16,0.11,0.29,0.24,0.37,0.39c0.08,0.15,0.13,0.33,0.13,0.53c0,0.94-0.52,1.45-1.54,1.54v0.65l-0.6,0.07v-0.72
						c-0.25-0.02-0.5-0.06-0.77-0.12c-0.27-0.06-0.47-0.12-0.6-0.18L29.66,91.79z M30.5,88.43c0,0.14,0.06,0.25,0.19,0.35
						c0.12,0.1,0.31,0.19,0.55,0.27v-1.29C30.75,87.83,30.5,88.05,30.5,88.43z M32.59,90.74c0-0.13-0.06-0.24-0.19-0.33
						c-0.13-0.09-0.31-0.17-0.55-0.25v1.24C32.34,91.32,32.59,91.11,32.59,90.74z"/>
					<path fill="#231F20" d="M37.06,92.12l-0.77,0.07v-1.37h-2.1v-0.07l1.7-3.73l0.83-0.07l-1.42,3.11h0.99v-1.08l0.77-0.1v1.19
						h0.91l-0.07,0.76h-0.85V92.12z"/>
					<path fill="#231F20" d="M39.34,91.43c-0.37-0.51-0.55-1.13-0.55-1.86c0-0.73,0.18-1.35,0.55-1.86c0.37-0.5,0.86-0.76,1.48-0.76
						c0.62,0,1.11,0.25,1.48,0.76c0.37,0.51,0.55,1.12,0.55,1.86c0,0.74-0.18,1.36-0.55,1.87s-0.86,0.76-1.48,0.76
						C40.2,92.2,39.71,91.94,39.34,91.43z M42.07,89.57c0-0.54-0.11-0.98-0.33-1.33s-0.53-0.52-0.93-0.52s-0.71,0.17-0.93,0.52
						c-0.22,0.35-0.33,0.79-0.33,1.33c0,0.55,0.11,0.99,0.33,1.34c0.22,0.35,0.53,0.52,0.93,0.52s0.71-0.17,0.93-0.52
						S42.07,90.12,42.07,89.57z"/>
					<path fill="#231F20" d="M44.31,91.43c-0.37-0.51-0.55-1.13-0.55-1.86c0-0.73,0.18-1.35,0.55-1.86c0.37-0.5,0.86-0.76,1.48-0.76
						c0.62,0,1.11,0.25,1.48,0.76c0.37,0.51,0.55,1.12,0.55,1.86c0,0.74-0.18,1.36-0.55,1.87s-0.86,0.76-1.48,0.76
						C45.17,92.2,44.68,91.94,44.31,91.43z M47.05,89.57c0-0.54-0.11-0.98-0.33-1.33s-0.53-0.52-0.93-0.52s-0.71,0.17-0.93,0.52
						c-0.22,0.35-0.33,0.79-0.33,1.33c0,0.55,0.11,0.99,0.33,1.34c0.22,0.35,0.53,0.52,0.93,0.52s0.71-0.17,0.93-0.52
						S47.05,90.12,47.05,89.57z"/>
				</g>
			</g>
		</g>
	</g>
	<path d="M0.02,0v1.6v96.8v1.6h60v-1.6V1.6V0H0.02z M59.02,98.4h-58V1.6h58V98.4z"/>
	<g>
	</g>
	<g>
	</g>
	<g>
	</g>
	<g>
	</g>
	<g>
	</g>
	<g>
	</g>
	<g>
	</g>
	<g>
	</g>
	<g>
	</g>
	<g>
	</g>
	<g>
	</g>
	<g>
	</g>
	<g>
	</g>
	<g>
	</g>
	<g>
	</g>
	<g>
	</g>
	<g>
	</g>
</g>
</svg>
