<?xml version="1.0" encoding="utf-8"?>
<!-- Generator: Adobe Illustrator 26.2.1, SVG Export Plug-In . SVG Version: 6.00 Build 0)  -->
<svg version="1.1" xmlns="http://www.w3.org/2000/svg" xmlns:xlink="http://www.w3.org/1999/xlink" x="0px" y="0px"
	 viewBox="0 0 60 100" enable-background="new 0 0 60 100" xml:space="preserve">
<g id="BG">
	<rect id="BG_00000082354266892434819460000014407544633745974707_" x="0.02" y="0" fill="#F0EDDA" width="60" height="100"/>
	<rect id="BG_00000037693340041972082810000009059657678697518014_" x="0.02" fill="#F0EDDA" width="60" height="100"/>
</g>
<g id="THINGS">
	<path d="M0.02,0v1.6v96.8v1.6h60v-1.6V1.6V0H0.02z M59.02,98.4h-58V1.6h58V98.4z"/>
	<g>
		<g id="_x31_6_00000027570530063268788920000005786490673437884607_">
			<g>
				<g>
					<path d="M48.8,47.86c-1.23,0.1-1.85,0.17-2.24,0.2c-1.32,0.12-1.98,0.15-3.12,0.07c-0.29-0.02-0.58,0-0.87-0.07
						c-0.64-0.15-1.28-0.19-1.93-0.12c-0.68,0.07-1.21,0.02-1.8-0.51c-0.2-0.18-0.58-0.27-0.84-0.26c-0.58,0.01-1.05,0.12-1.63,0.11
						c-0.44,0-0.64,0.07-1.09-0.32c-0.26-0.23-0.47-0.46-0.59-0.54c-0.16-0.11-0.45-0.5-1.06-0.42c-0.74,0.09-1.5,0.59-1.91-0.4
						c-0.15-0.36-0.8-0.62-1.2-0.63c-0.65-0.01-0.84-1.47-1.34-1.48c-1.1-0.01-1.17,0.28-1.9,0.6c-0.55,0.24-1.09,0.54-1.72,0.54
						c-0.32,0-0.54-0.1-0.64-0.43c-0.17-0.56-0.6-0.83-1.15-0.95c-1.02-0.22-1.96,0.06-2.86,0.51c-0.75,0.37-1.35,0.95-1.99,1.47
						c-0.18,0.15-0.37,0.26-0.59,0.29c-0.7,0.1-1.03,0.6-1.21,1.19c-0.09,0.31-0.2,0.61-0.29,0.92c-0.07,0.28-0.22,0.54-0.53,0.62
						c-0.2,0.05-0.24,0.2-0.28,0.35c-0.22,0.7-0.35,1.4-0.17,2.14c0.11,0.44,0.08,0.49-0.38,0.54c-1.02,0.13-0.87,1.74,0.29,2.51
						c0.63,0.95,0.39,2.85,0.47,3.17c-0.04,0.12-0.3-0.08-0.8-0.08c-0.63-0.15-1.44-0.23-1.72-0.21c-1.02,0.09-1.76,0.2-2.6,0.81
						c-1.31,0.96-2.15,2.03-2.21,3.44c-0.02,0.41,0.06,1.13,0.34,1.47c0.14,0.17,0.23,0.37,0.36,0.55c0.21,0.27,0.2,0.53,0.01,0.8
						c-0.19,0.28-0.36,0.58-0.55,0.86c-0.23,0.34-0.18,0.64,0.1,0.91c0.12,0.12,0.25,0.23,0.38,0.33c0.61,0.47,0.6,0.46,0.26,1.17
						c-0.1,0.2-0.24,0.36-0.37,0.54c-0.19,0.26-0.25,0.64-0.48,0.86c-0.32,0.31-0.74,0.9-0.58,1.3c0.16,0.39,0.33,0.53,0.74,0.48
						c0.35-0.62,0.81-0.55,1.09-0.53c0.26,0.02,0.53,0.25,0.76,0.35c0.34,0.16,0.65-0.23,0.88-0.52c0.22-0.27,0.45-0.36,0.81-0.16
						c0.72,0.39,1.3,0.02,1.32-0.8c0.01-0.46-0.02-0.92,0-1.39c0.02-0.44,0.26-0.74,0.6-0.81c0.24-0.05,0.38,0.09,0.3,0.32
						c-0.04,0.12-0.15,0.19-0.11,0.38c0.25,1.08-0.29,3.87-0.47,5.04c-0.1,0.69-0.33,0.52-0.8,0.25c-0.44-0.26-0.62-0.62-0.96,0.05
						c-0.14,0.27-0.38,0.34-0.56,0.07c-0.24-0.37-0.46-0.3-0.71-0.04c-0.32,0.33-0.61,0.33-0.94-0.04
						c-0.34-0.39-0.63-0.28-0.88,0.23c-0.05,0.11-0.08,0.24-0.14,0.35C9,73.64,8.36,71.7,7.95,72.31c-0.7,1.04-2.12,3.09-3.17,3.79
						c-0.15,0.1-0.3,0.22-0.23,0.41c0.08,0.2,0.29,0.25,0.5,0.21c0.09-0.02,0.18-0.07,0.28-0.09c1.21-0.3,2.44-0.32,3.68-0.26
						c0.34,0.02,0.68,0.03,1.02,0.05c0.94,0.05,5.58,0.14,5.8-0.27c0.41-0.78-0.11-1.27-0.13-2.45c0-1.28,0.45-1.73,1.2-2.48
						c0.14-0.04,0.18-0.22,0.36-0.23c-0.03,0.24-0.15,0.32-0.2,0.4c-0.09,0.18-0.09,0.2-0.19,0.37c-0.51,0.93-0.57,1.89-0.1,2.85
						c0.53,1.08,1.39,1.75,2.63,1.71c1.14-0.03,2.05-0.54,2.62-1.58c0.18-0.34,0.15-0.86,0.45-1.01c0.33-0.16,0.79-0.04,1.19-0.05
						c0.28-0.01,0.29-0.1,0.54-0.01c0.27,0.09,0.25,0.47,0.38,0.71c0.55,1.04,1.35,1.7,2.56,1.77c1.16,0.07,2.05-0.39,2.64-1.38
						c0.58-0.99,0.82-2.02,0.18-3.09c-0.04-0.06,0-0.11,0.04-0.18c0.59-0.02,1.5-0.1,2.11-0.07c0.79,0.04,0.43,0.06,0.01,0.06
						c0.39,0.02,0.43,0.12,0.21,0.52c-1.02,1.87,0.35,4.07,2.12,4.27c1.17,0.13,2.1-0.2,2.9-1.02c0.34-0.35,0.45-0.81,0.58-1.26
						c0.07-0.25,0.2-0.32,0.43-0.33c0.44-0.02,0.28,0,0.73-0.07c0.75-0.12,0.77-0.11,1.02,0.61c0.5,1.4,2.01,2.16,3.23,1.94
						c1.6-0.29,2.44-1.26,2.64-2.89c0.07-0.57-0.14-1.1-0.31-1.65c0.36-0.09,1.87-0.03,2.19-0.02c0.91,0.02,1.05-0.13,1.14-0.99
						c0.13-1.21-2.08-0.01-2.07-1.04c0.02-1.17,2.02-7.17,2.13-7.49c0.15-0.4-0.04-0.42-0.38-0.48c-0.24-0.04-4.05-0.05-4.3-0.05
						c-0.2,0,2.04,0.01,2.04,0.01c-0.22,0.01,0.37-1.68,0.07-1.68c-3.02,0-3.56-1.86-3.56-2.58c-0.51,0-7.82,0.12-8.41,0.12
						c-0.17,0.02-1.1,0.02-1.1,0.01c0.02-0.08-0.25,2.25-0.56,2.25c-0.21,0-2.68-0.02-2.98-0.02c0,0,0.94-3.32,0.91-3.46
						c-0.03-0.18,1.77-0.05,1.97-0.05c1.22,0,4.19-0.1,4.53-0.1c0.3,0,0.5-1.06,0.3-1.19c-0.13-0.08-0.55-0.04-0.69-0.04
						c-1.98,0.06-2.74,0.16-4.72,0.02c-1.76-0.13-1.39-0.1-3.15-0.14c-0.2,0-0.41-0.01-0.61,0.02c-0.24,0.04-0.28,0.19-0.13,0.39
						c0.19,0.25,0.48,0.37,0.71,0.56c0.37,0.3,0.45,0.53,0.25,0.94c-0.27,0.59-0.75,2.12-0.93,2.73c-0.06,0.21-0.05-0.09-1,0.03
						c-0.23,0.03,1.14-3.19,0.88-3.17c-1,0.1-1.87-0.07-2.7-0.03c0,0-0.95,3.22-1.21,3.22c-0.15-0.01-1.17-0.06-1.21-0.2
						c-0.09-0.33-0.26-0.63-0.48-0.89c-0.63-0.71-1.67-0.58-1.98,0.32c-0.06,0.17-0.13,0.33-0.13,0.53c0,0.16-0.08,0.25-0.27,0.25
						c-0.04,0-0.07,0.02-0.34,0.02c0,0-0.18-1.11-0.98-1.63c-0.15-0.82-0.28-2.24-0.15-3c0.06-0.35,0.54-0.24,0.86-0.44
						c0.49-0.28,1.19-0.41,0.77-1.44c-0.11-0.16-0.21-0.33-0.29-0.5c0.22,0.02,0.44,0.13,0.64-0.1c0.05-0.06,0.19-0.07,0.29-0.07
						c0.35,0.02,0.61-0.1,0.88-0.33c0.4-0.36,0.89-0.47,1.42-0.32c0.46,0.14,0.8,0,1.11-0.37c0.74-0.88,0.71-0.66,2.1-0.77
						c0.96-0.08,1.45-0.27,1.97-1.23c0.39-0.73,0.75-0.8,1.58-0.61c0.63,0.14,1.1-0.14,1.21-0.21c0.23-0.15,0.36-0.11,0.04,0.13
						c-0.06,0.05-0.22,0.24-0.41,0.35c-0.64,0.39-0.66,1.72,0.03,2.5c0.2,0.23,0.5-0.04,0.7,0.16c0.35,0.34,1.04,0.53,1.48,0.49
						c1.09-0.11,2.33-0.47,3.3-1.12c0.47-0.31,0.96-0.72,1.52-0.73c0.45-0.01,0.77-0.19,1.17-0.42c0.44-0.25,0.87-0.2,1.32-0.05
						c1.12,0.39,2.23,0.32,3.34-0.14c0.37-0.15,0.74-0.28,1.14-0.29c0.94-0.03,1.87-0.23,2.78-0.52c0.38-0.12,0.97-0.54,1.44-0.46
						c0.09,0.02,0.2,0.02,0.22-0.16C49.21,47.92,49.02,47.84,48.8,47.86z M14.1,62.77c-0.02,0.17-0.2,0.2-0.35,0.19
						c-0.43-0.04-0.87-0.07-1.3-0.14c-0.27-0.04-0.23-0.24-0.08-0.36c0.61-0.5,1.2-1.95,2.03-2.28
						C14.53,60.85,14.15,62.22,14.1,62.77z M40.22,71.73c-0.1,0.36-0.19,0.7-0.27,1.04c-0.04,0.15-0.14,0.18-0.27,0.19
						c-0.62,0.04-0.63,0.13-1.26,0.12c-0.27,0-0.41-0.1-0.45-0.37c-0.06-0.35-0.16-0.7-0.25-1.1c0.57-0.1,1.07-0.06,1.56,0.03
						C39.78,71.73,39.68,71.65,40.22,71.73z M16.26,52.5c-0.15-0.07-0.25-0.17-0.21-0.36c0.02-0.08,0.09-0.16,0.16-0.13
						c0.14,0.06,0.18,0.2,0.19,0.34C16.41,52.42,16.38,52.5,16.26,52.5z M24.43,72.32c-0.1,0.21,0.04,0.54-0.26,0.62
						c-0.21,0.06-0.14,0.01-0.36,0.01c-0.38,0.01-0.77,0.02-1.15,0.05c-0.16,0.01-0.27,0.02-0.31-0.17
						c-0.1-0.45-0.27-0.88-0.47-1.36c1.07-0.1,1.79-0.05,2.84-0.02C24.77,71.82,24.55,72.06,24.43,72.32z M19.79,60.93l10.49,0.07
						l-0.17,0.27H19.79V60.93z M22.74,62.08l7.25-0.06l-0.17,0.27l-7.07-0.06V62.08z M43.31,62.89l4.64-0.06l-0.1,0.27l-4.54-0.06
						V62.89z M43.47,64.03l3.73-0.05l-0.08,0.21l-3.66-0.05V64.03z M43.63,65.16l2.84-0.03l-0.05,0.15l-2.78-0.03V65.16z
						 M20.43,62.9c-0.32,0.01-0.64,0.08-0.98-0.18C19.86,62.62,20.16,62.73,20.43,62.9z M19.61,65.93c0.01-0.25-0.02-0.48-0.03-0.72
						c-0.02-0.6,0.14-0.8,0.72-0.93c0.06-0.01,0.12-0.01,0.18-0.02c0.77-0.16,0.94-0.57,0.51-1.29c0.3,0.02,0.54,0.09,0.66,0.36
						c0.13,0.28-0.01,0.5-0.21,0.7c-0.23,0.23-0.46,0.41-0.8,0.5c-0.63,0.16-0.82,0.48-0.82,1.14c0,0.2,0.01,0.41,0,0.61
						c-0.01,0.53-0.06,0.6-0.6,0.75c-0.72,0.19-1.05,0.11-1.54-0.59c-0.05-0.07-0.21-0.23-0.14-0.37c0.25,0.11,0.35,0.35,0.54,0.5
						C18.66,67.04,19.57,66.78,19.61,65.93z M47.15,48.56c-0.54,0.12-1.07,0.26-1.63,0.29c-0.87,0.05-1.72,0.29-2.57,0.56
						c-0.76,0.24-1.53,0.26-2.29-0.1c-0.75-0.35-1.46-0.06-2.16,0.3c-0.23,0.12-0.46,0.2-0.71,0.2c-0.4,0-0.77,0.15-1.1,0.41
						c-0.76,0.6-1.6,0.95-2.46,1.25c-0.4,0.14-0.8,0.11-1.21,0.17c-0.05,0.01-0.21,0.04-0.42-0.05c-0.4-0.17-0.8-0.57-1.2-0.49
						c-0.62,0.12-0.85-1.67-0.16-2.06c0.07-0.04,0.15-0.11,0.23-0.19c-0.03,0.38,0.23,0.55,0.32,0.69c0.2,0.29,0.23,0.32,0.42,0.49
						c0.26,0.23,0.49,0.2,0.73-0.1c0.16-0.19,0.5-0.63,0.63-0.83c0.23-0.35,0.86-0.43,1.2-0.28c0.2,0.09,0.5,0.25,0.71,0.28
						c0.46,0.07,1.29-0.06,1.76-0.54c-0.06-0.15-0.15-0.11-0.24-0.07c-0.56,0.24-1.46,0.31-2-0.02c-0.62-0.38-1.59-0.11-1.96,0.63
						c-0.41,0.82-0.68,0.66-1.11,0.01c-0.12-0.18-0.34-0.51-0.07-0.67c0.39-0.23,0.08-0.81-0.61-0.48
						c-0.06,0.03-0.54,0.37-0.94,0.25c-0.33-0.1-0.68-0.11-1.02-0.12c-0.37-0.01-0.8,0.24-0.93,0.53c-0.25,0.55-0.56,0.83-1.01,1.17
						c-0.27,0.2-0.45,0.33-1.37,0.32c-1.24-0.01-1.46,0.22-1.69,0.56c-0.45,0.65-1.01,0.72-1.64,0.47c-0.4-0.16-0.67-0.05-0.94,0.19
						c-0.28,0.25-0.6,0.41-0.97,0.47c-0.26,0.04-0.34-0.07-0.24-0.3c0.24-0.54,0.69-0.81,1.24-1.02c-0.15-0.24-0.36-0.18-0.52-0.1
						c-0.44,0.24-0.88,0.49-1.17,0.94c-0.06,0.09-0.15,0.23-0.07,0.27c0.46,0.23,0.11,0.52,0.07,0.79
						c-0.17,0.15-0.42,0.16-0.57,0.39c-0.15,0.22-0.44,0.04-0.72,0.07c0.16-0.76,0.43-1.42,0.8-2.05c0.18-0.3,0.47-0.49,0.79-0.64
						c0.09-0.04,0.19-0.13,0.13-0.24c-0.05-0.1-0.16-0.1-0.27-0.05c-0.41,0.19-0.82,0.4-1.04,0.81c-0.26,0.49-0.57,0.97-0.71,1.53
						c-0.19,0.74-0.29,0.73-0.91,0.64c-1.03-0.15-1.04-0.15-1.14-1.2c-0.01-0.14-0.05-0.27-0.1-0.41c-0.18-0.59-0.23-1.18-0.06-1.79
						c0.09-0.32,0.16-0.62,0.52-0.76c0.21-0.08,0.38-0.42,0.45-0.62c0.14-0.42,0.15-0.72,0.32-1.13c0.19-0.46,0.48-0.82,1.05-0.87
						c0.33-0.02,0.56-0.3,0.79-0.53c0.89-0.9,1.97-1.47,3.2-1.73c0.31-0.07,0.64-0.06,0.97-0.01c0.5,0.08,0.69,0.22,0.88,0.73
						c0.22,0.61,0.67,0.8,1.33,0.71c0.52-0.07,1.25-0.26,1.71-0.46c0.85-0.38,0.71-0.73,1.45-0.68c0.49,0.03,0.69,1.45,1.29,1.37
						c0.12-0.01,0.54-0.09,0.77,0.07c0.34,0.23,0.52,0.63,0.73,0.82c0.45,0.4,0.75,0.25,1.05,0.21c0.43-0.06,0.73-0.07,0.97-0.13
						c0.37-0.1,0.95,0.48,1.32,0.84c0.31,0.3,0.84,0.41,1.21,0.38c0.58-0.04,0.89-0.02,1.46-0.06c0.32-0.02,0.79,0.06,1.06,0.29
						c0.41,0.35,0.88,0.5,1.39,0.43c0.99-0.14,1.96,0.02,2.94,0.14c0.84,0.1,1.68,0.05,2.52,0.01c0.64-0.02,2.39-0.38,2.39-0.21
						C47.74,48.35,47.3,48.52,47.15,48.56z"/>
					<path d="M32.13,71.49c-0.05,0-0.09,0-0.15,0C31.09,71.49,31.65,71.5,32.13,71.49z"/>
					<g>
						<g>
							<g>
								<path d="M55.43,52.68c0.14,0.2-0.97,0.83-1.73,1.23c-0.8,0.42-1.64,0.64-2.47,0.06c-0.35-0.24-0.64-0.57-0.87-0.95
									c-0.45-0.35-0.8-0.19-1.15-0.07c-0.4,0.16,0.71,0.25,0.16,0.61c-0.83,0.54-1.31,0.71-2.21,1.03
									c-1.22,0.44-2.45,0.54-3.67-0.03c-0.32-0.15-0.61-0.37-0.91-0.56c-0.35-0.22-0.68-0.34-1.05-0.04
									c-0.37,0.3-0.77,0.24-1.08-0.11c-0.97-1.09-2.16-1.08-3.34-1.03c-0.4,0.01-0.8,0.11-1.21,0.18c-0.29,0.05-0.57,0.16-0.8,0.4
									c-0.14,0.15-0.3,0.22-0.49,0.22c-0.09,0-0.2,0.06-0.25-0.09c-0.05-0.14,0.04-0.24,0.11-0.3c0.41-0.35,0.79-0.8,1.25-1.04
									c1-0.51,2.01-1.01,3.09-1.21c0.57-0.1,1.13-0.09,1.6,0.45c0.29,0.33,0.64,0.35,0.99,0.1c0.41-0.3,0.87-0.33,1.26-0.04
									c0.34,0.26,0.71,0.56,1.04,0.4c0.74-0.35,1.08,0,1.43-0.11c1.45-0.85,1.8-0.32,3.04-0.54c0.96-0.18,1.86,0.02,2.42,0.19
									c0.29,0,0.6,0.34,0.72,0.57c0.28,0.5,0.68,0.66,1.14,0.64c1.6-0.06,1.05,0.09,2.18-0.08
									C54.84,52.52,55.25,52.31,55.43,52.68z M43.9,52.45c0.38,0.52,0.87,0.69,1.34,0.42c0.44-0.25,0.88-0.38,1.36-0.37
									c0.15,0,0.33-0.05,0.42,0.2c-0.24,0.1-0.48,0.06-0.72,0.12c-0.26,0.06-0.49,0.19-0.73,0.33c-0.7,0.41-1.39,0.35-1.91-0.32
									c-0.31-0.39-0.68-0.6-1.05-0.84c-0.34-0.22-0.69-0.23-1.03-0.01c-0.5,0.33-0.96,0.28-1.4-0.16
									c-0.41-0.42-0.87-0.45-1.38-0.32c-0.7,0.17-1.38,0.44-2.05,0.74c-0.04,0.02-0.07,0.07-0.04,0.16c0.07,0,0.15,0,0.23,0
									c0.06,0,0.13,0.01,0.19,0c1.26-0.16,2.45,0.01,3.47,1.07c0.2,0.2,0.4,0.24,0.63,0.09c0.24-0.15,0.48-0.19,0.75-0.2
									c0.45-0.02,0.81,0.27,1.17,0.51c0.89,0.59,1.82,0.72,2.82,0.56c1.04-0.16,1.61-0.29,2.52-0.86
									c0.58-0.36-0.69-0.65-0.05-0.82c0.74-0.2,1.8-0.73,2.33,0.25c0.26,0.47,0.68,0.81,1.19,0.84c0.56,0.03,1.08-0.2,1.6-0.41
									c0.17-0.07,0.38-0.1,0.5-0.29C54.05,53,53.98,53,53.92,53.01c-0.42,0.03-0.84,0.06-1.26,0.09
									c-0.61,0.04-1.17-0.09-1.57-0.73c-0.24-0.39-0.57-0.6-0.94-0.68c-0.09-0.02-1.54-0.17-2.43-0.04
									c-1.24,0.16-1.53-0.2-2.66,0.56C44.76,52.26,44.14,51.89,43.9,52.45z"/>
								<path d="M23.85,46.75c-0.65-0.1-1.22,0.04-1.8,0.36c-1.05,0.58-1.85,1.35-2.31,2.47c-0.04,0.09-0.09,0.18-0.15,0.26
									c-0.05,0.07-0.12,0.1-0.21,0.06c-0.08-0.04-0.14-0.1-0.14-0.18c0-0.08,0.03-0.15,0.05-0.23c0.24-0.94,0.73-1.7,1.52-2.27
									c0.09-0.07,0.23-0.09,0.21-0.32c-0.51,0.09-0.97,0.24-1.36,0.58c-0.83,0.71-1.23,1.64-1.45,2.67
									c-0.03,0.14-0.06,0.28-0.1,0.41c-0.03,0.11-0.13,0.15-0.24,0.13c-0.13-0.02-0.16-0.12-0.15-0.22
									c0.02-0.22,0.06-0.43,0.09-0.65c-0.17-0.1-0.24,0.03-0.29,0.13c-0.17,0.36-0.31,0.74-0.37,1.15c-0.03,0.2-0.06,0.4-0.1,0.6
									c-0.02,0.11-0.1,0.17-0.21,0.18c-0.15,0.01-0.15,0.03-0.2-0.08c-0.02-0.05-0.05-0.45-0.04-0.5c0-0.79,0.17-0.95,0.47-1.47
									c0.1-0.17,0.21-0.29,0.4-0.35c0.35-0.1,0.53-0.38,0.62-0.69c0.17-0.59,0.55-1.03,0.93-1.47c0.51-0.61,1.2-0.82,1.96-0.72
									c0.39,0.05,0.74,0.01,1.11-0.15c0.68-0.28,1.38-0.23,2.06,0.02c0.19,0.07,0.31,0.1,0.5,0.01c0.85-0.39,1.74-0.34,2.61-0.09
									c0.31,0.09,0.65,0.12,0.93,0.3c-0.01,0.04-0.02,0.08-0.03,0.12c-0.41-0.03-0.82-0.02-1.22-0.09
									c-0.66-0.11-1.28-0.03-1.91,0.17c-1.19,0.38-2.21,0.99-2.96,2.01c-0.11,0.15-0.24,0.27-0.38,0.4
									c-0.09,0.09-0.2,0.18-0.32,0.09c-0.11-0.08-0.09-0.22-0.02-0.33c0.56-0.87,1.15-1.72,2.15-2.16
									C23.64,46.86,23.74,46.8,23.85,46.75z"/>
								<path d="M24.57,48.8c0.08-0.35,0.36-0.5,0.64-0.64c1.22-0.64,0.99-1.25,1.7-1.09c0.68,0.16,1.3,0.16,1.9-0.29
									c0.45-0.34,0.97-0.43,1.55-0.28c0.62,0.16,1.27,0.21,1.92,0.17c0.21-0.01,0.45-0.07,0.62,0.23
									c-0.67,0.19-1.3,0.41-1.99,0.25c-0.04-0.01-0.08-0.01-0.12-0.03c-0.74-0.25-1.4-0.13-2.06,0.3
									c-0.79,0.52-1.05,0.25-1.52,0.22c-0.59-0.05-0.44,0.4-1.02,0.67c-0.4,0.19-0.82,0.33-1.24,0.5
									C24.82,48.85,24.7,48.9,24.57,48.8z"/>
								<path d="M40.98,48.62c-0.38-0.16-0.69-0.13-1-0.07c-0.45,0.09-0.87,0.05-1.22-0.35c-0.07-0.08-0.16-0.18-0.24-0.04
									c-0.07,0.12,0.02,0.22,0.09,0.31c0.28,0.36,0.64,0.5,1.01,0.47C40.05,48.89,40.49,48.82,40.98,48.62z"/>
							</g>
						</g>
					</g>
				</g>
			</g>
			<g>
				<g>
					<path fill="#231F20" d="M15.03,10.72l-0.88,0.08l-1.29-2.21h-0.94v2.13l-0.8,0.08V5.18c0.44-0.1,0.99-0.15,1.65-0.15
						c0.68,0,1.18,0.15,1.49,0.44c0.31,0.29,0.46,0.74,0.46,1.34c0,0.87-0.34,1.42-1.02,1.63L15.03,10.72z M13.93,6.81
						c0-0.3-0.08-0.52-0.25-0.68C13.52,5.98,13.22,5.9,12.8,5.9c-0.22,0-0.51,0.02-0.88,0.06v1.77h0.98
						C13.59,7.73,13.93,7.43,13.93,6.81z"/>
					<path fill="#231F20" d="M16.49,10.8l-0.84-0.08l2.49-5.68h0.12l2.56,5.68l-0.77,0.08l-0.58-1.29h-2.42L16.49,10.8z M18.24,6.77
						l-0.88,2.02h1.79L18.24,6.77z"/>
					<path fill="#231F20" d="M21.74,5.12l0.8-0.08v5.68l-0.8,0.08V5.12z"/>
					<path fill="#231F20" d="M27.62,9.86l-0.16,0.86h-3.44v-5.6l0.8-0.08v4.82H27.62z"/>
					<path fill="#231F20" d="M32.48,10.72L31.6,10.8l-1.29-2.21h-0.94v2.13l-0.8,0.08V5.18c0.44-0.1,0.99-0.15,1.65-0.15
						c0.68,0,1.18,0.15,1.49,0.44c0.31,0.29,0.46,0.74,0.46,1.34c0,0.87-0.34,1.42-1.02,1.63L32.48,10.72z M31.38,6.81
						c0-0.3-0.08-0.52-0.25-0.68c-0.17-0.16-0.46-0.24-0.89-0.24c-0.22,0-0.51,0.02-0.88,0.06v1.77h0.98
						C31.04,7.73,31.38,7.43,31.38,6.81z"/>
					<path fill="#231F20" d="M33.83,9.97c-0.45-0.55-0.67-1.24-0.67-2.05c0-0.82,0.22-1.5,0.67-2.05s1.04-0.83,1.76-0.83
						c0.72,0,1.31,0.28,1.76,0.83c0.45,0.55,0.67,1.24,0.67,2.05c0,0.82-0.22,1.5-0.67,2.05c-0.45,0.55-1.03,0.83-1.76,0.83
						C34.87,10.8,34.28,10.52,33.83,9.97z M36.79,9.38c0.29-0.37,0.44-0.86,0.44-1.46c0-0.6-0.15-1.09-0.44-1.46
						C36.49,6.08,36.1,5.9,35.59,5.9c-0.51,0-0.91,0.19-1.2,0.56c-0.29,0.37-0.44,0.86-0.44,1.46c0,0.6,0.15,1.09,0.44,1.46
						c0.29,0.37,0.69,0.56,1.2,0.56C36.1,9.94,36.49,9.75,36.79,9.38z"/>
					<path fill="#231F20" d="M39.27,10.8l-0.84-0.08l2.49-5.68h0.12l2.56,5.68l-0.77,0.08l-0.58-1.29h-2.42L39.27,10.8z M41.02,6.77
						l-0.88,2.02h1.79L41.02,6.77z"/>
					<path fill="#231F20" d="M46.26,10.8c-0.29,0-0.58-0.01-0.88-0.04c-0.29-0.02-0.52-0.05-0.66-0.08l-0.22-0.03V5.18
						c0.52-0.1,1.11-0.15,1.76-0.15c0.94,0,1.65,0.25,2.11,0.74c0.46,0.5,0.69,1.21,0.69,2.14c0,0.93-0.23,1.64-0.69,2.14
						C47.9,10.55,47.2,10.8,46.26,10.8z M46.25,5.9c-0.29,0-0.6,0.02-0.96,0.07v3.9c0.32,0.04,0.63,0.06,0.96,0.06
						c1.34,0,2.01-0.67,2.01-2.02C48.26,6.57,47.59,5.9,46.25,5.9z"/>
					<path fill="#231F20" d="M29.14,12.5l0.16,0.86h-1.79v4.74l-0.8,0.08v-4.82h-1.79l0.16-0.86H29.14z"/>
					<path fill="#231F20" d="M30.62,17.35c-0.45-0.55-0.67-1.24-0.67-2.05c0-0.82,0.22-1.5,0.67-2.05c0.45-0.55,1.04-0.83,1.76-0.83
						c0.72,0,1.31,0.28,1.76,0.83c0.45,0.55,0.67,1.24,0.67,2.05c0,0.82-0.22,1.5-0.67,2.05c-0.45,0.55-1.03,0.83-1.76,0.83
						C31.66,18.18,31.07,17.9,30.62,17.35z M33.57,16.76c0.29-0.37,0.44-0.86,0.44-1.46c0-0.6-0.15-1.09-0.44-1.46
						c-0.29-0.37-0.69-0.56-1.19-0.56c-0.51,0-0.91,0.19-1.2,0.56c-0.29,0.37-0.44,0.86-0.44,1.46c0,0.6,0.15,1.09,0.44,1.46
						c0.29,0.37,0.69,0.56,1.2,0.56C32.88,17.32,33.28,17.13,33.57,16.76z"/>
					<path fill="#231F20" d="M13.69,21.57c0,0.6-0.15,1.04-0.46,1.33c-0.31,0.29-0.8,0.44-1.47,0.44h-0.88v2.13l-0.8,0.08v-5.62
						c0.44-0.1,0.99-0.15,1.65-0.15c0.68,0,1.18,0.15,1.49,0.44C13.53,20.52,13.69,20.97,13.69,21.57z M12.64,22.25
						c0.17-0.16,0.25-0.38,0.25-0.68c0-0.3-0.08-0.52-0.25-0.68c-0.17-0.16-0.46-0.24-0.89-0.24c-0.22,0-0.51,0.02-0.88,0.06v1.77
						h0.88C12.18,22.49,12.47,22.41,12.64,22.25z"/>
					<path fill="#231F20" d="M18.31,24.61l-0.16,0.86h-3.44v-5.6h3.44l0.16,0.86h-2.8v1.42h2.29v0.86h-2.29v1.6H18.31z"/>
					<path fill="#231F20" d="M23.44,25.47l-0.88,0.08l-1.29-2.21h-0.94v2.13l-0.8,0.08v-5.62c0.44-0.1,0.99-0.15,1.65-0.15
						c0.68,0,1.18,0.15,1.49,0.44c0.31,0.29,0.46,0.74,0.46,1.34c0,0.87-0.34,1.42-1.02,1.63L23.44,25.47z M22.34,21.57
						c0-0.3-0.08-0.52-0.25-0.68c-0.17-0.16-0.46-0.24-0.89-0.24c-0.22,0-0.51,0.02-0.88,0.06v1.77h0.98
						C22,22.49,22.34,22.18,22.34,21.57z"/>
					<path fill="#231F20" d="M26.17,25.55c-0.29,0-0.58-0.01-0.88-0.04c-0.29-0.02-0.52-0.05-0.66-0.08l-0.22-0.03v-5.47
						c0.52-0.1,1.11-0.15,1.76-0.15c0.94,0,1.65,0.25,2.11,0.74c0.46,0.5,0.69,1.21,0.69,2.14c0,0.93-0.23,1.64-0.69,2.14
						C27.81,25.31,27.11,25.55,26.17,25.55z M26.16,20.65c-0.29,0-0.6,0.02-0.96,0.07v3.9c0.31,0.04,0.63,0.06,0.96,0.06
						c1.34,0,2.01-0.67,2.01-2.02C28.17,21.33,27.5,20.65,26.16,20.65z"/>
					<path fill="#231F20" d="M30.23,19.87l0.8-0.08v5.68l-0.8,0.08V19.87z"/>
					<path fill="#231F20" d="M36.24,19.87l0.16,0.86h-1.79v4.74l-0.8,0.08v-4.82h-1.79l0.16-0.86H36.24z"/>
					<path fill="#231F20" d="M37.4,19.87l0.8-0.08v5.68l-0.8,0.08V19.87z"/>
					<path fill="#231F20" d="M40.12,24.73c-0.45-0.55-0.67-1.24-0.67-2.05c0-0.82,0.22-1.5,0.67-2.05s1.04-0.83,1.76-0.83
						c0.72,0,1.31,0.28,1.76,0.83c0.45,0.55,0.67,1.24,0.67,2.05c0,0.82-0.22,1.5-0.67,2.05c-0.45,0.55-1.03,0.83-1.76,0.83
						C41.16,25.55,40.57,25.28,40.12,24.73z M43.08,24.13c0.29-0.37,0.44-0.86,0.44-1.46c0-0.6-0.15-1.09-0.44-1.46
						c-0.29-0.37-0.69-0.56-1.19-0.56c-0.51,0-0.91,0.19-1.2,0.56c-0.29,0.37-0.44,0.86-0.44,1.46c0,0.6,0.15,1.09,0.44,1.46
						c0.29,0.37,0.69,0.56,1.2,0.56C42.39,24.69,42.79,24.51,43.08,24.13z"/>
					<path fill="#231F20" d="M49.84,25.55l-3.5-3.85v3.77l-0.8,0.08v-5.76h0.05l3.52,3.84v-3.76l0.8-0.08v5.76H49.84z"/>
				</g>
			</g>
			<g>
				<g>
					<path fill="#231F20" d="M15.23,89.64c0,0.38-0.11,0.66-0.33,0.85c-0.22,0.19-0.56,0.28-1.03,0.28h-0.61v1.35l-0.56,0.05V88.6
						c0.31-0.06,0.7-0.09,1.16-0.09c0.48,0,0.83,0.09,1.04,0.28C15.12,88.97,15.23,89.26,15.23,89.64z M14.49,90.07
						c0.12-0.1,0.18-0.25,0.18-0.43c0-0.19-0.06-0.33-0.18-0.44c-0.12-0.1-0.32-0.15-0.62-0.15c-0.15,0-0.36,0.01-0.61,0.04v1.12
						h0.61C14.17,90.22,14.38,90.17,14.49,90.07z"/>
					<path fill="#231F20" d="M18.72,92.12l-0.62,0.05l-0.9-1.4h-0.66v1.35l-0.56,0.05V88.6c0.31-0.06,0.7-0.09,1.16-0.09
						c0.48,0,0.83,0.09,1.04,0.28c0.22,0.19,0.33,0.47,0.33,0.85c0,0.55-0.24,0.9-0.71,1.04L18.72,92.12z M17.95,89.64
						c0-0.19-0.06-0.33-0.18-0.44c-0.12-0.1-0.32-0.15-0.62-0.15c-0.15,0-0.36,0.01-0.61,0.04v1.12h0.69
						C17.71,90.22,17.95,90.03,17.95,89.64z"/>
					<path fill="#231F20" d="M19.45,88.56l0.56-0.05v3.62l-0.56,0.05V88.56z"/>
					<path fill="#231F20" d="M21.39,91.69c-0.3-0.32-0.45-0.77-0.45-1.35s0.15-1.03,0.45-1.35s0.73-0.48,1.3-0.48
						c0.2,0,0.39,0.02,0.58,0.04s0.32,0.06,0.41,0.09l0.13,0.04l-0.13,0.52c-0.32-0.1-0.63-0.14-0.92-0.14
						c-0.43,0-0.75,0.11-0.95,0.32c-0.2,0.22-0.3,0.54-0.3,0.96s0.1,0.74,0.3,0.96c0.2,0.22,0.52,0.32,0.95,0.32
						c0.14,0,0.29-0.01,0.45-0.04s0.29-0.05,0.37-0.07l0.13-0.04L23.85,92c-0.29,0.12-0.68,0.18-1.16,0.18
						C22.12,92.17,21.69,92.01,21.39,91.69z"/>
					<path fill="#231F20" d="M27.12,91.57l-0.11,0.55H24.6v-3.56h2.41l0.11,0.55h-1.96v0.9h1.61v0.55h-1.61v1.02H27.12z"/>
					<path fill="#231F20" d="M29.95,91.79l0.28-0.73c0.32,0.19,0.75,0.31,1.31,0.35v-1.43c-0.23-0.07-0.42-0.14-0.57-0.2
						s-0.31-0.15-0.47-0.27c-0.16-0.11-0.29-0.25-0.37-0.4C30.04,88.94,30,88.76,30,88.54c0-0.45,0.14-0.81,0.42-1.08
						c0.28-0.27,0.65-0.43,1.12-0.49v-0.66l0.6-0.07v0.72c0.2,0.01,0.39,0.04,0.59,0.09c0.2,0.05,0.34,0.09,0.44,0.13l0.15,0.06
						l-0.25,0.73c-0.26-0.12-0.57-0.19-0.93-0.23v1.49c0.23,0.07,0.42,0.14,0.57,0.21c0.15,0.07,0.31,0.15,0.48,0.26
						s0.29,0.24,0.37,0.39c0.08,0.15,0.13,0.33,0.13,0.53c0,0.94-0.51,1.45-1.54,1.54v0.65l-0.6,0.07v-0.72
						c-0.25-0.02-0.5-0.06-0.77-0.12c-0.27-0.06-0.47-0.12-0.6-0.18L29.95,91.79z M30.8,88.43c0,0.14,0.06,0.25,0.19,0.35
						c0.13,0.1,0.31,0.19,0.55,0.27v-1.29C31.04,87.83,30.8,88.05,30.8,88.43z M32.88,90.74c0-0.13-0.06-0.24-0.19-0.33
						c-0.13-0.09-0.31-0.17-0.55-0.25v1.24C32.63,91.32,32.88,91.11,32.88,90.74z"/>
					<path fill="#231F20" d="M37.58,91.36l-0.07,0.76h-3.23v-0.07c0.96-1.07,1.59-1.78,1.87-2.13c0.23-0.29,0.4-0.54,0.49-0.75
						c0.1-0.2,0.15-0.4,0.15-0.61c0-0.26-0.08-0.47-0.25-0.62c-0.16-0.15-0.38-0.23-0.66-0.23c-0.2,0-0.38,0.03-0.56,0.09
						c-0.18,0.06-0.3,0.12-0.38,0.19l-0.12,0.1l-0.3-0.66c0.04-0.04,0.1-0.08,0.17-0.13c0.08-0.05,0.24-0.12,0.48-0.21
						c0.25-0.09,0.5-0.13,0.77-0.13c0.47,0,0.85,0.13,1.16,0.39c0.3,0.26,0.46,0.62,0.46,1.08c0,0.51-0.21,1.03-0.62,1.57
						l-1.11,1.37H37.58z"/>
					<path fill="#231F20" d="M39.04,91.43c-0.37-0.51-0.55-1.13-0.55-1.86c0-0.73,0.18-1.35,0.55-1.86c0.37-0.5,0.86-0.76,1.48-0.76
						c0.62,0,1.11,0.25,1.48,0.76c0.37,0.51,0.55,1.12,0.55,1.86c0,0.74-0.18,1.36-0.55,1.87s-0.86,0.76-1.48,0.76
						C39.91,92.2,39.41,91.94,39.04,91.43z M41.78,89.57c0-0.54-0.11-0.98-0.33-1.33s-0.53-0.52-0.93-0.52s-0.71,0.17-0.93,0.52
						c-0.22,0.35-0.33,0.79-0.33,1.33c0,0.55,0.11,0.99,0.33,1.34c0.22,0.35,0.53,0.52,0.93,0.52s0.71-0.17,0.93-0.52
						S41.78,90.12,41.78,89.57z"/>
					<path fill="#231F20" d="M44.02,91.43c-0.37-0.51-0.55-1.13-0.55-1.86c0-0.73,0.18-1.35,0.55-1.86c0.37-0.5,0.86-0.76,1.48-0.76
						c0.62,0,1.11,0.25,1.48,0.76c0.37,0.51,0.55,1.12,0.55,1.86c0,0.74-0.18,1.36-0.55,1.87s-0.86,0.76-1.48,0.76
						C44.88,92.2,44.39,91.94,44.02,91.43z M46.75,89.57c0-0.54-0.11-0.98-0.33-1.33s-0.53-0.52-0.93-0.52s-0.71,0.17-0.93,0.52
						c-0.22,0.35-0.33,0.79-0.33,1.33c0,0.55,0.11,0.99,0.33,1.34c0.22,0.35,0.53,0.52,0.93,0.52s0.71-0.17,0.93-0.52
						S46.75,90.12,46.75,89.57z"/>
				</g>
			</g>
		</g>
	</g>
	<path d="M0.02,0v1.6v96.8v1.6h60v-1.6V1.6V0H0.02z M59.02,98.4h-58V1.6h58V98.4z"/>
	<g>
	</g>
	<g>
	</g>
	<g>
	</g>
	<g>
	</g>
	<g>
	</g>
	<g>
	</g>
	<g>
	</g>
	<g>
	</g>
	<g>
	</g>
	<g>
	</g>
	<g>
	</g>
	<g>
	</g>
	<g>
	</g>
	<g>
	</g>
	<g>
	</g>
	<g>
	</g>
	<g>
	</g>
</g>
</svg>
