<?xml version="1.0" encoding="utf-8"?>
<!-- Generator: Adobe Illustrator 26.2.1, SVG Export Plug-In . SVG Version: 6.00 Build 0)  -->
<svg version="1.1" xmlns="http://www.w3.org/2000/svg" xmlns:xlink="http://www.w3.org/1999/xlink" x="0px" y="0px"
	 viewBox="0 0 60 100" enable-background="new 0 0 60 100" xml:space="preserve">
<g id="BG">
	<rect id="BG_00000082354266892434819460000014407544633745974707_" x="0.02" y="0" fill="#F0EDDA" width="60" height="100"/>
	<rect id="BG_00000037693340041972082810000009059657678697518014_" x="0.02" fill="#F0EDDA" width="60" height="100"/>
</g>
<g id="THINGS">
	<path d="M0.02,0v1.6v96.8v1.6h60v-1.6V1.6V0H0.02z M59.02,98.4h-58V1.6h58V98.4z"/>
	<g>
		<g id="_x33_5_00000003791063376233790710000013114247911415266722_">
			<g>
				<rect x="0.51" y="0.5" fill="#415033" width="59.02" height="27.6"/>
				<path fill="#222317" d="M59.02,1v26.6H1.01V1H59.02 M60.02,0H0.01v28.6h60.01V0L60.02,0z"/>
			</g>
			<g>
				<rect x="0.51" y="0.5" fill="#415033" width="59.02" height="27.6"/>
				<path fill="#222317" d="M59.02,1v26.6H1.01V1H59.02 M60.02,0H0.01v28.6h60.01V0L60.02,0z"/>
			</g>
			<g>
				<rect x="0.51" y="0.5" fill="#415033" width="59.02" height="27.6"/>
				<path fill="#222317" d="M59.02,1v26.6H1.01V1H59.02 M60.02,0H0.01v28.6h60.01V0L60.02,0z"/>
			</g>
			<g>
				<g>
					<path fill="#231F20" d="M18.93,34.46c-0.29,0.34-0.43,0.84-0.43,1.51c0,0.67,0.15,1.17,0.44,1.51
						c0.29,0.34,0.75,0.51,1.37,0.51c0.23,0,0.49-0.03,0.77-0.1v-1.23h-1.12v-0.8h1.93v2.7c-0.43,0.18-0.99,0.28-1.68,0.28
						c-0.81,0-1.43-0.25-1.86-0.76s-0.65-1.21-0.65-2.12c0-0.91,0.21-1.62,0.64-2.12c0.43-0.51,1.04-0.76,1.85-0.76
						c0.29,0,0.56,0.02,0.83,0.07s0.47,0.09,0.59,0.14l0.18,0.06l-0.18,0.81c-0.47-0.15-0.92-0.23-1.33-0.23
						C19.67,33.94,19.21,34.12,18.93,34.46z"/>
					<path fill="#231F20" d="M27.14,38.77l-0.88,0.08l-1.29-2.21h-0.94v2.13l-0.8,0.08v-5.62c0.44-0.1,0.99-0.15,1.65-0.15
						c0.68,0,1.18,0.15,1.49,0.44c0.31,0.29,0.46,0.74,0.46,1.34c0,0.87-0.34,1.42-1.02,1.63L27.14,38.77z M26.04,34.86
						c0-0.3-0.08-0.52-0.25-0.68c-0.17-0.16-0.46-0.24-0.89-0.24c-0.22,0-0.51,0.02-0.88,0.06v1.77h0.98
						C25.69,35.78,26.04,35.47,26.04,34.86z"/>
					<path fill="#231F20" d="M31.71,37.9l-0.16,0.86h-3.44v-5.6h3.44l0.16,0.86h-2.8v1.42h2.29v0.86h-2.29v1.6H31.71z"/>
					<path fill="#231F20" d="M36.51,37.9l-0.16,0.86h-3.44v-5.6h3.44l0.16,0.86h-2.8v1.42H36v0.86h-2.29v1.6H36.51z"/>
					<path fill="#231F20" d="M39.48,38.85c-0.29,0-0.58-0.01-0.88-0.04c-0.29-0.02-0.52-0.05-0.66-0.08l-0.22-0.03v-5.47
						c0.52-0.1,1.11-0.15,1.76-0.15c0.94,0,1.65,0.25,2.11,0.74c0.46,0.5,0.69,1.21,0.69,2.14c0,0.93-0.23,1.64-0.69,2.14
						C41.13,38.6,40.43,38.85,39.48,38.85z M39.48,33.94c-0.29,0-0.6,0.02-0.96,0.07v3.9c0.32,0.04,0.63,0.06,0.96,0.06
						c1.34,0,2.01-0.67,2.01-2.02C41.48,34.62,40.81,33.94,39.48,33.94z"/>
					<path fill="#231F20" d="M15.86,45.78l0.28-0.8c0.04,0.03,0.11,0.06,0.19,0.11c0.08,0.04,0.27,0.1,0.55,0.17
						c0.28,0.07,0.57,0.11,0.87,0.11c0.32,0,0.57-0.06,0.76-0.19c0.19-0.13,0.28-0.31,0.28-0.55c0-0.15-0.07-0.27-0.21-0.39
						s-0.32-0.2-0.53-0.27s-0.44-0.15-0.69-0.24c-0.25-0.09-0.48-0.18-0.7-0.29c-0.21-0.11-0.39-0.27-0.53-0.48
						s-0.21-0.46-0.21-0.75c0-0.55,0.17-0.98,0.51-1.29s0.79-0.46,1.35-0.46c0.24,0,0.47,0.03,0.72,0.08
						c0.24,0.05,0.42,0.11,0.55,0.16l0.18,0.08l-0.25,0.8c-0.34-0.18-0.75-0.27-1.21-0.27c-0.32,0-0.58,0.06-0.77,0.19
						c-0.19,0.12-0.29,0.31-0.29,0.57c0,0.15,0.07,0.28,0.22,0.4s0.32,0.21,0.53,0.29c0.21,0.08,0.44,0.16,0.69,0.25
						s0.48,0.19,0.69,0.3c0.21,0.11,0.39,0.26,0.53,0.47c0.14,0.2,0.21,0.44,0.21,0.72c0,1.14-0.63,1.71-1.89,1.71
						c-0.28,0-0.57-0.04-0.87-0.11c-0.31-0.08-0.54-0.15-0.71-0.23L15.86,45.78z"/>
					<path fill="#231F20" d="M24.42,40.54l0.16,0.86h-1.79v4.74l-0.8,0.08V41.4H20.2l0.16-0.86H24.42z"/>
					<path fill="#231F20" d="M29.48,46.14l-0.88,0.08l-1.29-2.21h-0.94v2.13l-0.8,0.08v-5.62c0.44-0.1,0.99-0.15,1.65-0.15
						c0.68,0,1.18,0.15,1.49,0.44c0.31,0.29,0.46,0.74,0.46,1.34c0,0.87-0.34,1.42-1.02,1.63L29.48,46.14z M28.38,42.24
						c0-0.3-0.08-0.52-0.25-0.68c-0.17-0.16-0.46-0.24-0.89-0.24c-0.22,0-0.51,0.02-0.88,0.06v1.77h0.98
						C28.03,43.16,28.38,42.85,28.38,42.24z"/>
					<path fill="#231F20" d="M34.05,45.28l-0.16,0.86h-3.44v-5.6h3.44l0.16,0.86h-2.8v1.42h2.29v0.86h-2.29v1.6H34.05z"/>
					<path fill="#231F20" d="M38.85,45.28l-0.16,0.86h-3.44v-5.6h3.44l0.16,0.86h-2.8v1.42h2.29v0.86h-2.29v1.6H38.85z"/>
					<path fill="#231F20" d="M43.98,40.54l0.16,0.86h-1.79v4.74l-0.8,0.08V41.4h-1.79l0.16-0.86H43.98z"/>
				</g>
			</g>
			<g>
				<g>
					<path fill="#231F20" d="M15.7,89.64c0,0.38-0.11,0.66-0.33,0.85c-0.22,0.19-0.56,0.28-1.03,0.28h-0.61v1.35l-0.56,0.05V88.6
						c0.31-0.06,0.7-0.09,1.16-0.09c0.48,0,0.83,0.09,1.04,0.28C15.59,88.97,15.7,89.26,15.7,89.64z M14.96,90.07
						c0.12-0.1,0.18-0.25,0.18-0.43c0-0.19-0.06-0.33-0.18-0.44c-0.12-0.1-0.32-0.15-0.62-0.15c-0.15,0-0.36,0.01-0.61,0.04v1.12
						h0.61C14.64,90.22,14.84,90.17,14.96,90.07z"/>
					<path fill="#231F20" d="M19.19,92.12l-0.62,0.05l-0.9-1.4h-0.66v1.35l-0.56,0.05V88.6c0.31-0.06,0.7-0.09,1.16-0.09
						c0.48,0,0.83,0.09,1.04,0.28c0.22,0.19,0.33,0.47,0.33,0.85c0,0.55-0.24,0.9-0.71,1.04L19.19,92.12z M18.42,89.64
						c0-0.19-0.06-0.33-0.18-0.44c-0.12-0.1-0.32-0.15-0.62-0.15c-0.15,0-0.36,0.01-0.61,0.04v1.12h0.69
						C18.18,90.22,18.42,90.03,18.42,89.64z"/>
					<path fill="#231F20" d="M19.92,88.56l0.56-0.05v3.62l-0.56,0.05V88.56z"/>
					<path fill="#231F20" d="M21.86,91.69c-0.3-0.32-0.45-0.77-0.45-1.35s0.15-1.03,0.45-1.35s0.73-0.48,1.3-0.48
						c0.2,0,0.39,0.02,0.58,0.04s0.32,0.06,0.41,0.09l0.13,0.04l-0.13,0.52c-0.32-0.1-0.63-0.14-0.92-0.14
						c-0.43,0-0.75,0.11-0.95,0.32c-0.2,0.22-0.3,0.54-0.3,0.96s0.1,0.74,0.3,0.96c0.2,0.22,0.52,0.32,0.95,0.32
						c0.14,0,0.29-0.01,0.45-0.04s0.29-0.05,0.37-0.07l0.13-0.04L24.32,92c-0.29,0.12-0.68,0.18-1.16,0.18
						C22.59,92.17,22.16,92.01,21.86,91.69z"/>
					<path fill="#231F20" d="M27.59,91.57l-0.11,0.55h-2.41v-3.56h2.41l0.11,0.55h-1.96v0.9h1.61v0.55h-1.61v1.02H27.59z"/>
					<path fill="#231F20" d="M30.42,91.79l0.28-0.73c0.32,0.19,0.75,0.31,1.31,0.35v-1.43c-0.23-0.07-0.42-0.14-0.57-0.2
						s-0.31-0.15-0.47-0.27c-0.16-0.11-0.29-0.25-0.37-0.4c-0.08-0.16-0.13-0.35-0.13-0.56c0-0.45,0.14-0.81,0.42-1.08
						c0.28-0.27,0.65-0.43,1.12-0.49v-0.66l0.6-0.07v0.72c0.2,0.01,0.39,0.04,0.59,0.09c0.2,0.05,0.35,0.09,0.44,0.13l0.15,0.06
						l-0.25,0.73c-0.26-0.12-0.57-0.19-0.93-0.23v1.49c0.23,0.07,0.42,0.14,0.57,0.21s0.31,0.15,0.48,0.26
						c0.16,0.11,0.29,0.24,0.37,0.39c0.08,0.15,0.13,0.33,0.13,0.53c0,0.94-0.52,1.45-1.54,1.54v0.65L32,92.9v-0.72
						c-0.25-0.02-0.5-0.06-0.77-0.12c-0.26-0.06-0.47-0.12-0.6-0.18L30.42,91.79z M31.27,88.43c0,0.14,0.06,0.25,0.19,0.35
						s0.31,0.19,0.55,0.27v-1.29C31.51,87.83,31.27,88.05,31.27,88.43z M33.35,90.74c0-0.13-0.06-0.24-0.19-0.33
						c-0.13-0.09-0.31-0.17-0.55-0.25v1.24C33.1,91.32,33.35,91.11,33.35,90.74z"/>
					<path fill="#231F20" d="M38.18,90.71c0,0.48-0.16,0.85-0.47,1.11c-0.31,0.26-0.74,0.38-1.27,0.38c-0.28,0-0.55-0.04-0.8-0.1
						s-0.44-0.14-0.55-0.21l-0.17-0.1l0.24-0.63c0.34,0.19,0.77,0.29,1.28,0.29c0.65,0,0.97-0.26,0.97-0.77c0-0.54-0.3-0.8-0.9-0.8
						h-0.77v-0.57h0.77c0.3,0,0.52-0.07,0.66-0.21c0.14-0.14,0.21-0.34,0.21-0.58c0-0.52-0.35-0.78-1.04-0.78
						c-0.19,0-0.37,0.02-0.55,0.06c-0.18,0.04-0.32,0.09-0.41,0.13l-0.13,0.07l-0.18-0.68c0.04-0.03,0.1-0.05,0.17-0.09
						c0.07-0.04,0.23-0.09,0.47-0.15c0.24-0.06,0.49-0.1,0.74-0.1c0.54,0,0.95,0.13,1.25,0.38c0.3,0.25,0.45,0.62,0.45,1.1
						c0,0.53-0.18,0.91-0.54,1.14C37.99,89.8,38.18,90.18,38.18,90.71z"/>
					<path fill="#231F20" d="M42.09,91.36l-0.07,0.76h-3.23v-0.07c0.96-1.07,1.59-1.78,1.87-2.13c0.23-0.29,0.4-0.54,0.49-0.75
						c0.1-0.2,0.15-0.4,0.15-0.61c0-0.26-0.08-0.47-0.25-0.62c-0.16-0.15-0.38-0.23-0.66-0.23c-0.2,0-0.38,0.03-0.56,0.09
						c-0.18,0.06-0.3,0.12-0.38,0.19l-0.12,0.1l-0.3-0.66c0.04-0.04,0.1-0.08,0.17-0.13c0.08-0.05,0.24-0.12,0.48-0.21
						c0.25-0.09,0.5-0.13,0.77-0.13c0.47,0,0.85,0.13,1.16,0.39c0.3,0.26,0.46,0.62,0.46,1.08c0,0.51-0.21,1.03-0.62,1.57
						l-1.11,1.37H42.09z"/>
					<path fill="#231F20" d="M43.55,91.43C43.18,90.92,43,90.3,43,89.57c0-0.73,0.18-1.35,0.55-1.86c0.37-0.5,0.86-0.76,1.48-0.76
						c0.62,0,1.11,0.25,1.48,0.76c0.37,0.51,0.55,1.12,0.55,1.86c0,0.74-0.18,1.36-0.55,1.87s-0.86,0.76-1.48,0.76
						C44.41,92.2,43.92,91.94,43.55,91.43z M46.29,89.57c0-0.54-0.11-0.98-0.33-1.33s-0.53-0.52-0.93-0.52s-0.71,0.17-0.93,0.52
						c-0.22,0.35-0.33,0.79-0.33,1.33c0,0.55,0.11,0.99,0.33,1.34c0.22,0.35,0.53,0.52,0.93,0.52s0.71-0.17,0.93-0.52
						S46.29,90.12,46.29,89.57z"/>
				</g>
			</g>
		</g>
	</g>
	<path d="M0.02,0v1.6v96.8v1.6h60v-1.6V1.6V0H0.02z M59.02,98.4h-58V1.6h58V98.4z"/>
	<g>
	</g>
	<g>
	</g>
	<g>
	</g>
	<g>
	</g>
	<g>
	</g>
	<g>
	</g>
	<g>
	</g>
	<g>
	</g>
	<g>
	</g>
	<g>
	</g>
	<g>
	</g>
	<g>
	</g>
	<g>
	</g>
	<g>
	</g>
	<g>
	</g>
	<g>
	</g>
	<g>
	</g>
</g>
</svg>
