<?xml version="1.0" encoding="utf-8"?>
<!-- Generator: Adobe Illustrator 26.2.1, SVG Export Plug-In . SVG Version: 6.00 Build 0)  -->
<svg version="1.1" xmlns="http://www.w3.org/2000/svg" xmlns:xlink="http://www.w3.org/1999/xlink" x="0px" y="0px"
	 viewBox="0 0 60 100" enable-background="new 0 0 60 100" xml:space="preserve">
<g id="BG">
	<rect id="BG_00000082354266892434819460000014407544633745974707_" x="0.02" y="0" fill="#F0EDDA" width="60" height="100"/>
	<rect id="BG_00000037693340041972082810000009059657678697518014_" x="0.02" fill="#F0EDDA" width="60" height="100"/>
</g>
<g id="THINGS">
	<path d="M0.02,0v1.6v96.8v1.6h60v-1.6V1.6V0H0.02z M59.02,98.4h-58V1.6h58V98.4z"/>
	<g>
		<g id="_x31_3_00000000200416878503354480000016289598801935894150_">
			<g>
				<rect x="0.51" y="0.5" fill="#B23068" width="59.02" height="27.6"/>
				<path fill="#222317" d="M59.02,1v26.6H1.01V1H59.02 M60.02,0H0.01v28.6h60.01V0L60.02,0z"/>
			</g>
			<g>
				<rect x="0.51" y="0.5" fill="#B23068" width="59.02" height="27.6"/>
				<path fill="#222317" d="M59.02,1v26.6H1.01V1H59.02 M60.02,0H0.01v28.6h60.01V0L60.02,0z"/>
			</g>
			<g>
				<rect x="0.51" y="0.5" fill="#B23068" width="59.02" height="27.6"/>
				<path fill="#222317" d="M59.02,1v26.6H1.01V1H59.02 M60.02,0H0.01v28.6h60.01V0L60.02,0z"/>
			</g>
			<g>
				<g>
					<path fill="#231F20" d="M18.93,38.88l-0.84-0.08l2.49-5.68h0.12l2.56,5.68l-0.77,0.08l-0.58-1.29h-2.42L18.93,38.88z
						 M20.68,34.85l-0.88,2.02h1.79L20.68,34.85z"/>
					<path fill="#231F20" d="M25.79,33.11c0.63,0,1.11,0.13,1.43,0.38c0.32,0.25,0.48,0.62,0.48,1.09c0,0.61-0.2,1.05-0.6,1.31
						c0.53,0.26,0.79,0.72,0.79,1.39c0,0.55-0.19,0.95-0.58,1.21c-0.39,0.26-0.89,0.39-1.51,0.39c-0.29,0-0.58-0.01-0.85-0.04
						c-0.27-0.02-0.47-0.05-0.59-0.08l-0.19-0.03v-5.47C24.59,33.16,25.14,33.11,25.79,33.11z M24.95,35.55h1
						c0.34,0,0.58-0.06,0.73-0.19c0.15-0.13,0.23-0.33,0.23-0.61c0-0.25-0.09-0.45-0.26-0.58c-0.17-0.13-0.46-0.19-0.86-0.19
						c-0.26,0-0.53,0.02-0.83,0.06V35.55z M27.09,37.16c0-0.58-0.39-0.87-1.17-0.87h-0.97v1.66c0.23,0.04,0.51,0.06,0.86,0.06
						c0.46,0,0.78-0.07,0.98-0.21C26.99,37.67,27.09,37.45,27.09,37.16z"/>
					<path fill="#231F20" d="M31.07,36.27v2.52l-0.8,0.08v-2.6l-1.89-3.08l0.89-0.08l1.4,2.44l1.44-2.44l0.85,0.08L31.07,36.27z"/>
					<path fill="#231F20" d="M33.39,38.43l0.28-0.8c0.04,0.03,0.11,0.06,0.19,0.11c0.08,0.04,0.27,0.1,0.55,0.17
						c0.28,0.07,0.57,0.11,0.87,0.11c0.32,0,0.57-0.06,0.76-0.19c0.19-0.13,0.28-0.31,0.28-0.55c0-0.15-0.07-0.27-0.21-0.39
						s-0.32-0.2-0.53-0.27s-0.44-0.15-0.69-0.24c-0.25-0.09-0.48-0.18-0.7-0.29c-0.21-0.11-0.39-0.27-0.53-0.48
						s-0.21-0.46-0.21-0.75c0-0.55,0.17-0.98,0.51-1.29s0.79-0.46,1.35-0.46c0.24,0,0.47,0.03,0.72,0.08
						c0.24,0.05,0.42,0.11,0.55,0.16l0.18,0.08l-0.25,0.8c-0.34-0.18-0.75-0.27-1.21-0.27c-0.32,0-0.58,0.06-0.77,0.19
						c-0.19,0.12-0.29,0.31-0.29,0.57c0,0.15,0.07,0.28,0.21,0.4s0.32,0.21,0.53,0.29c0.21,0.08,0.44,0.16,0.69,0.25
						s0.48,0.19,0.69,0.3s0.39,0.26,0.53,0.47s0.21,0.44,0.21,0.72c0,1.14-0.63,1.71-1.89,1.71c-0.28,0-0.57-0.04-0.87-0.11
						c-0.31-0.08-0.54-0.15-0.71-0.23L33.39,38.43z"/>
					<path fill="#231F20" d="M37.85,38.43l0.28-0.8c0.04,0.03,0.11,0.06,0.19,0.11c0.08,0.04,0.27,0.1,0.55,0.17
						c0.28,0.07,0.57,0.11,0.87,0.11c0.32,0,0.57-0.06,0.76-0.19c0.19-0.13,0.28-0.31,0.28-0.55c0-0.15-0.07-0.27-0.21-0.39
						s-0.32-0.2-0.53-0.27s-0.44-0.15-0.69-0.24c-0.25-0.09-0.48-0.18-0.7-0.29c-0.21-0.11-0.39-0.27-0.53-0.48
						s-0.21-0.46-0.21-0.75c0-0.55,0.17-0.98,0.51-1.29s0.79-0.46,1.35-0.46c0.24,0,0.47,0.03,0.72,0.08
						c0.24,0.05,0.42,0.11,0.55,0.16l0.18,0.08l-0.25,0.8c-0.34-0.18-0.75-0.27-1.21-0.27c-0.32,0-0.58,0.06-0.77,0.19
						c-0.19,0.12-0.29,0.31-0.29,0.57c0,0.15,0.07,0.28,0.21,0.4s0.32,0.21,0.53,0.29c0.21,0.08,0.44,0.16,0.69,0.25
						s0.48,0.19,0.69,0.3s0.39,0.26,0.53,0.47s0.21,0.44,0.21,0.72c0,1.14-0.63,1.71-1.89,1.71c-0.28,0-0.57-0.04-0.87-0.11
						c-0.31-0.08-0.54-0.15-0.71-0.23L37.85,38.43z"/>
					<path fill="#231F20" d="M15.02,46.25l-0.84-0.08l2.49-5.68h0.12l2.56,5.68l-0.77,0.08L18,44.96h-2.42L15.02,46.25z
						 M16.76,42.23l-0.88,2.02h1.79L16.76,42.23z"/>
					<path fill="#231F20" d="M19.02,40.57l0.84-0.08l1.82,4.03l1.83-4.03l0.83,0.08l-2.63,5.68h-0.07L19.02,40.57z"/>
					<path fill="#231F20" d="M28.85,45.31l-0.16,0.86h-3.44v-5.6h3.44l0.16,0.86h-2.8v1.42h2.29v0.86h-2.29v1.6H28.85z"/>
					<path fill="#231F20" d="M34.36,46.25l-3.5-3.85v3.77l-0.8,0.08v-5.76h0.05l3.52,3.84v-3.76l0.8-0.08v5.76H34.36z"/>
					<path fill="#231F20" d="M39.53,43.65v-3.08l0.8-0.08v3.16c0,0.36-0.04,0.69-0.12,0.99c-0.08,0.3-0.2,0.58-0.37,0.82
						c-0.17,0.25-0.4,0.44-0.7,0.58c-0.3,0.14-0.65,0.21-1.06,0.21s-0.76-0.07-1.06-0.21c-0.3-0.14-0.53-0.33-0.7-0.58
						c-0.17-0.25-0.29-0.52-0.37-0.82c-0.08-0.3-0.12-0.63-0.12-0.99v-3.08l0.8-0.08v3.16c0,1.16,0.48,1.75,1.45,1.75
						C39.05,45.39,39.53,44.81,39.53,43.65z"/>
					<path fill="#231F20" d="M45.33,45.31l-0.16,0.86h-3.44v-5.6h3.44l0.16,0.86h-2.8v1.42h2.29v0.86h-2.29v1.6H45.33z"/>
				</g>
			</g>
			<g>
				<g>
					<path fill="#231F20" d="M15.97,89.64c0,0.38-0.11,0.66-0.33,0.85c-0.22,0.19-0.56,0.28-1.03,0.28h-0.61v1.35l-0.56,0.05V88.6
						c0.31-0.06,0.7-0.09,1.16-0.09c0.48,0,0.83,0.09,1.04,0.28C15.86,88.97,15.97,89.26,15.97,89.64z M15.24,90.07
						c0.12-0.1,0.18-0.25,0.18-0.43c0-0.19-0.06-0.33-0.18-0.44c-0.12-0.1-0.32-0.15-0.62-0.15c-0.15,0-0.36,0.01-0.61,0.04v1.12
						h0.61C14.92,90.22,15.12,90.17,15.24,90.07z"/>
					<path fill="#231F20" d="M19.47,92.12l-0.62,0.05l-0.9-1.4h-0.66v1.35l-0.56,0.05V88.6c0.31-0.06,0.7-0.09,1.16-0.09
						c0.48,0,0.83,0.09,1.04,0.28c0.22,0.19,0.33,0.47,0.33,0.85c0,0.55-0.24,0.9-0.71,1.04L19.47,92.12z M18.7,89.64
						c0-0.19-0.06-0.33-0.18-0.44c-0.12-0.1-0.32-0.15-0.62-0.15c-0.15,0-0.36,0.01-0.61,0.04v1.12h0.69
						C18.46,90.22,18.7,90.03,18.7,89.64z"/>
					<path fill="#231F20" d="M20.2,88.56l0.56-0.05v3.62l-0.56,0.05V88.56z"/>
					<path fill="#231F20" d="M22.14,91.69c-0.3-0.32-0.45-0.77-0.45-1.35s0.15-1.03,0.45-1.35s0.73-0.48,1.3-0.48
						c0.2,0,0.39,0.02,0.58,0.04s0.32,0.06,0.41,0.09l0.13,0.04l-0.13,0.52c-0.32-0.1-0.63-0.14-0.92-0.14
						c-0.43,0-0.75,0.11-0.95,0.32c-0.2,0.22-0.3,0.54-0.3,0.96s0.1,0.74,0.3,0.96c0.2,0.22,0.52,0.32,0.95,0.32
						c0.14,0,0.29-0.01,0.45-0.04s0.29-0.05,0.37-0.07l0.13-0.04L24.59,92c-0.29,0.12-0.68,0.18-1.16,0.18
						C22.87,92.17,22.44,92.01,22.14,91.69z"/>
					<path fill="#231F20" d="M27.87,91.57l-0.11,0.55h-2.41v-3.56h2.41l0.11,0.55h-1.96v0.9h1.61v0.55h-1.61v1.02H27.87z"/>
					<path fill="#231F20" d="M30.7,91.79l0.28-0.73c0.32,0.19,0.75,0.31,1.31,0.35v-1.43c-0.23-0.07-0.42-0.14-0.57-0.2
						s-0.31-0.15-0.47-0.27c-0.16-0.11-0.29-0.25-0.37-0.4c-0.08-0.16-0.13-0.35-0.13-0.56c0-0.45,0.14-0.81,0.42-1.08
						c0.28-0.27,0.65-0.43,1.12-0.49v-0.66l0.6-0.07v0.72c0.2,0.01,0.39,0.04,0.59,0.09c0.2,0.05,0.34,0.09,0.44,0.13l0.15,0.06
						l-0.25,0.73c-0.26-0.12-0.57-0.19-0.93-0.23v1.49c0.23,0.07,0.42,0.14,0.57,0.21c0.15,0.07,0.31,0.15,0.48,0.26
						s0.29,0.24,0.37,0.39c0.08,0.15,0.13,0.33,0.13,0.53c0,0.94-0.51,1.45-1.54,1.54v0.65l-0.6,0.07v-0.72
						c-0.25-0.02-0.5-0.06-0.77-0.12c-0.27-0.06-0.47-0.12-0.61-0.18L30.7,91.79z M31.54,88.43c0,0.14,0.06,0.25,0.19,0.35
						c0.12,0.1,0.31,0.19,0.55,0.27v-1.29C31.79,87.83,31.54,88.05,31.54,88.43z M33.62,90.74c0-0.13-0.06-0.24-0.19-0.33
						c-0.13-0.09-0.31-0.17-0.55-0.25v1.24C33.38,91.32,33.62,91.11,33.62,90.74z"/>
					<path fill="#231F20" d="M37.06,87.03v5.09l-0.77,0.07v-4.23l-1.09,0.26l-0.12-0.76l1.9-0.44H37.06z"/>
					<path fill="#231F20" d="M40.99,92.12l-0.77,0.07v-1.37h-2.1v-0.07l1.7-3.73l0.83-0.07l-1.42,3.11h0.99v-1.08l0.77-0.1v1.19
						h0.91l-0.07,0.76h-0.85V92.12z"/>
					<path fill="#231F20" d="M43.27,91.43c-0.37-0.51-0.55-1.13-0.55-1.86c0-0.73,0.18-1.35,0.55-1.86c0.37-0.5,0.86-0.76,1.48-0.76
						c0.62,0,1.11,0.25,1.48,0.76c0.37,0.51,0.55,1.12,0.55,1.86c0,0.74-0.18,1.36-0.55,1.87s-0.86,0.76-1.48,0.76
						C44.13,92.2,43.64,91.94,43.27,91.43z M46.01,89.57c0-0.54-0.11-0.98-0.33-1.33s-0.53-0.52-0.93-0.52s-0.71,0.17-0.93,0.52
						c-0.22,0.35-0.33,0.79-0.33,1.33c0,0.55,0.11,0.99,0.33,1.34c0.22,0.35,0.53,0.52,0.93,0.52s0.71-0.17,0.93-0.52
						S46.01,90.12,46.01,89.57z"/>
				</g>
			</g>
		</g>
	</g>
	<path d="M0.02,0v1.6v96.8v1.6h60v-1.6V1.6V0H0.02z M59.02,98.4h-58V1.6h58V98.4z"/>
	<g>
	</g>
	<g>
	</g>
	<g>
	</g>
	<g>
	</g>
	<g>
	</g>
	<g>
	</g>
	<g>
	</g>
	<g>
	</g>
	<g>
	</g>
	<g>
	</g>
	<g>
	</g>
	<g>
	</g>
	<g>
	</g>
	<g>
	</g>
	<g>
	</g>
	<g>
	</g>
	<g>
	</g>
</g>
</svg>
