<?xml version="1.0" encoding="utf-8"?>
<!-- Generator: Adobe Illustrator 26.2.1, SVG Export Plug-In . SVG Version: 6.00 Build 0)  -->
<svg version="1.1" xmlns="http://www.w3.org/2000/svg" xmlns:xlink="http://www.w3.org/1999/xlink" x="0px" y="0px"
	 viewBox="0 0 60 100" enable-background="new 0 0 60 100" xml:space="preserve">
<g id="Layer_1">
</g>
<g id="BG">
	<rect id="BG_00000082354266892434819460000014407544633745974707_" x="0.02" y="0" fill="#F0EDDA" width="60" height="100"/>
	<rect id="BG_00000037693340041972082810000009059657678697518014_" x="0.02" fill="#F0EDDA" width="60" height="100"/>
</g>
<g id="THINGS">
	<path d="M0.02,0v1.6v96.8v1.6h60v-1.6V1.6V0H0.02z M59.02,98.4h-58V1.6h58V98.4z"/>
	<g>
		<g id="_x38__00000095319985187859770060000015628463817359440778_">
			<g>
				<rect x="0.51" y="0.5" fill="#00A0E3" width="59.02" height="27.6"/>
				<path fill="#222317" d="M59.02,1v26.6H1.01V1H59.02 M60.02,0H0.01v28.6h60.01V0L60.02,0z"/>
			</g>
			<g>
				<rect x="0.51" y="0.5" fill="#00A0E3" width="59.02" height="27.6"/>
				<path fill="#222317" d="M59.02,1v26.6H1.01V1H59.02 M60.02,0H0.01v28.6h60.01V0L60.02,0z"/>
			</g>
			<g>
				<rect x="0.51" y="0.5" fill="#00A0E3" width="59.02" height="27.6"/>
				<path fill="#222317" d="M59.02,1v26.6H1.01V1H59.02 M60.02,0H0.01v28.6h60.01V0L60.02,0z"/>
			</g>
			<g>
				<g>
					<path fill="#231F20" d="M17.3,38.89l-0.84-0.08l2.49-5.68h0.12l2.56,5.68l-0.77,0.08l-0.58-1.29h-2.42L17.3,38.89z
						 M19.05,34.87l-0.88,2.02h1.79L19.05,34.87z"/>
					<path fill="#231F20" d="M23.3,34.5c-0.29,0.34-0.43,0.84-0.43,1.51c0,0.67,0.15,1.17,0.44,1.51c0.29,0.34,0.75,0.51,1.37,0.51
						c0.23,0,0.49-0.03,0.77-0.1v-1.23h-1.12v-0.8h1.93v2.7c-0.43,0.18-0.99,0.28-1.68,0.28c-0.81,0-1.43-0.25-1.86-0.76
						s-0.65-1.21-0.65-2.12c0-0.91,0.21-1.62,0.64-2.12c0.43-0.51,1.04-0.76,1.85-0.76c0.29,0,0.56,0.02,0.83,0.07
						s0.47,0.09,0.59,0.14l0.18,0.06l-0.18,0.81c-0.47-0.15-0.92-0.23-1.33-0.23C24.04,33.99,23.59,34.16,23.3,34.5z"/>
					<path fill="#231F20" d="M27.99,38.06c-0.45-0.55-0.67-1.24-0.67-2.05c0-0.82,0.22-1.5,0.67-2.05c0.45-0.55,1.04-0.83,1.76-0.83
						c0.72,0,1.31,0.28,1.76,0.83s0.67,1.24,0.67,2.05c0,0.82-0.22,1.5-0.67,2.05s-1.03,0.83-1.76,0.83
						C29.03,38.89,28.44,38.61,27.99,38.06z M30.94,37.47c0.29-0.37,0.44-0.86,0.44-1.46c0-0.6-0.15-1.09-0.44-1.46
						s-0.69-0.56-1.19-0.56c-0.51,0-0.91,0.19-1.2,0.56c-0.29,0.37-0.44,0.86-0.44,1.46c0,0.6,0.15,1.09,0.44,1.46
						c0.29,0.37,0.69,0.56,1.2,0.56C30.25,38.03,30.65,37.84,30.94,37.47z"/>
					<path fill="#231F20" d="M37.71,38.89l-3.5-3.85v3.77l-0.8,0.08v-5.76h0.05l3.52,3.84v-3.76l0.8-0.08v5.76H37.71z"/>
					<path fill="#231F20" d="M41.4,36.29v2.52l-0.8,0.08v-2.6l-1.89-3.08l0.89-0.08l1.4,2.44l1.44-2.44l0.85,0.08L41.4,36.29z"/>
					<path fill="#231F20" d="M14.95,46.27l-0.84-0.08l2.49-5.68h0.12l2.56,5.68l-0.77,0.08l-0.58-1.29h-2.42L14.95,46.27z
						 M16.7,42.24l-0.88,2.02h1.79L16.7,42.24z"/>
					<path fill="#231F20" d="M18.96,40.59l0.84-0.08l1.82,4.03l1.83-4.03l0.83,0.08l-2.63,5.68h-0.07L18.96,40.59z"/>
					<path fill="#231F20" d="M28.79,45.33l-0.16,0.86h-3.44v-5.6h3.44l0.16,0.86h-2.8v1.42h2.29v0.86h-2.29v1.6H28.79z"/>
					<path fill="#231F20" d="M34.3,46.27l-3.5-3.85v3.77L30,46.27v-5.76h0.05l3.52,3.84v-3.76l0.8-0.08v5.76H34.3z"/>
					<path fill="#231F20" d="M39.47,43.66v-3.08l0.8-0.08v3.16c0,0.36-0.04,0.69-0.12,0.99c-0.08,0.3-0.2,0.58-0.37,0.82
						c-0.17,0.25-0.4,0.44-0.7,0.58c-0.3,0.14-0.65,0.21-1.06,0.21s-0.76-0.07-1.06-0.21c-0.3-0.14-0.53-0.33-0.7-0.58
						c-0.17-0.25-0.29-0.52-0.37-0.82c-0.08-0.3-0.12-0.63-0.12-0.99v-3.08l0.8-0.08v3.16c0,1.16,0.48,1.75,1.45,1.75
						C38.99,45.41,39.47,44.83,39.47,43.66z"/>
					<path fill="#231F20" d="M45.26,45.33l-0.16,0.86h-3.44v-5.6h3.44l0.16,0.86h-2.8v1.42h2.29v0.86h-2.29v1.6H45.26z"/>
				</g>
			</g>
			<g>
				<g>
					<path fill="#231F20" d="M15.54,89.45c0,0.38-0.11,0.66-0.33,0.85c-0.22,0.19-0.56,0.28-1.03,0.28h-0.61v1.35l-0.56,0.05v-3.57
						c0.31-0.06,0.7-0.09,1.16-0.09c0.48,0,0.83,0.09,1.04,0.28C15.43,88.79,15.54,89.07,15.54,89.45z M14.8,89.89
						c0.12-0.1,0.18-0.25,0.18-0.43c0-0.19-0.06-0.33-0.18-0.43c-0.12-0.1-0.32-0.15-0.62-0.15c-0.15,0-0.36,0.01-0.61,0.04v1.13
						h0.61C14.48,90.04,14.69,89.99,14.8,89.89z"/>
					<path fill="#231F20" d="M19.03,91.94l-0.62,0.05l-0.9-1.4h-0.66v1.35l-0.56,0.05v-3.57c0.31-0.06,0.7-0.09,1.16-0.09
						c0.48,0,0.83,0.09,1.04,0.28c0.22,0.19,0.33,0.47,0.33,0.85c0,0.56-0.24,0.9-0.71,1.04L19.03,91.94z M18.26,89.45
						c0-0.19-0.06-0.33-0.18-0.43c-0.12-0.1-0.32-0.15-0.62-0.15c-0.15,0-0.36,0.01-0.61,0.04v1.13h0.69
						C18.02,90.04,18.26,89.84,18.26,89.45z"/>
					<path fill="#231F20" d="M19.76,88.37l0.56-0.05v3.62l-0.56,0.05V88.37z"/>
					<path fill="#231F20" d="M21.7,91.51c-0.3-0.32-0.45-0.77-0.45-1.35c0-0.58,0.15-1.03,0.45-1.35s0.73-0.48,1.3-0.48
						c0.2,0,0.39,0.02,0.58,0.04c0.19,0.03,0.32,0.06,0.41,0.09l0.13,0.04l-0.13,0.52c-0.32-0.1-0.63-0.14-0.92-0.14
						c-0.43,0-0.75,0.11-0.95,0.33c-0.2,0.22-0.3,0.54-0.3,0.96c0,0.42,0.1,0.74,0.3,0.96c0.2,0.22,0.52,0.33,0.95,0.33
						c0.14,0,0.29-0.01,0.45-0.04c0.16-0.02,0.29-0.05,0.37-0.07l0.13-0.04l0.13,0.52c-0.29,0.12-0.68,0.18-1.16,0.18
						C22.43,91.99,22,91.83,21.7,91.51z"/>
					<path fill="#231F20" d="M27.43,91.39l-0.11,0.55h-2.41v-3.56h2.41l0.11,0.55h-1.96v0.9h1.61v0.55h-1.61v1.02H27.43z"/>
					<path fill="#231F20" d="M30.26,91.61l0.28-0.73c0.32,0.19,0.75,0.31,1.3,0.35v-1.43c-0.23-0.07-0.42-0.14-0.57-0.2
						s-0.31-0.16-0.47-0.27c-0.16-0.11-0.29-0.25-0.37-0.41c-0.08-0.16-0.13-0.35-0.13-0.56c0-0.45,0.14-0.81,0.42-1.08
						c0.28-0.27,0.65-0.43,1.12-0.49v-0.66l0.6-0.07v0.72c0.2,0.01,0.39,0.05,0.59,0.09c0.2,0.05,0.35,0.09,0.44,0.13l0.15,0.06
						l-0.25,0.73c-0.26-0.12-0.57-0.19-0.93-0.23v1.49c0.23,0.07,0.42,0.14,0.57,0.21s0.31,0.15,0.48,0.26
						c0.16,0.11,0.29,0.24,0.37,0.39c0.08,0.16,0.13,0.33,0.13,0.53c0,0.94-0.52,1.45-1.54,1.54v0.65l-0.6,0.07V92
						c-0.25-0.02-0.5-0.06-0.77-0.12c-0.26-0.06-0.47-0.12-0.6-0.18L30.26,91.61z M31.11,88.25c0,0.14,0.06,0.25,0.19,0.35
						s0.31,0.19,0.55,0.27v-1.29C31.35,87.65,31.11,87.87,31.11,88.25z M33.19,90.56c0-0.13-0.06-0.24-0.19-0.33
						c-0.13-0.09-0.31-0.17-0.55-0.25v1.24C32.94,91.14,33.19,90.92,33.19,90.56z"/>
					<path fill="#231F20" d="M36.62,86.85v5.09l-0.77,0.07v-4.23l-1.09,0.26l-0.12-0.76l1.9-0.43H36.62z"/>
					<path fill="#231F20" d="M38.48,91.25c-0.37-0.51-0.55-1.13-0.55-1.86c0-0.73,0.18-1.35,0.55-1.86c0.37-0.5,0.86-0.76,1.48-0.76
						c0.62,0,1.11,0.25,1.48,0.76c0.37,0.5,0.55,1.12,0.55,1.86c0,0.74-0.18,1.36-0.55,1.87c-0.37,0.51-0.86,0.76-1.48,0.76
						C39.34,92.01,38.85,91.76,38.48,91.25z M41.22,89.38c0-0.54-0.11-0.99-0.33-1.33s-0.53-0.52-0.93-0.52s-0.71,0.17-0.93,0.52
						c-0.22,0.35-0.33,0.79-0.33,1.33c0,0.55,0.11,0.99,0.33,1.34c0.22,0.35,0.53,0.52,0.93,0.52s0.71-0.17,0.93-0.52
						C41.11,90.38,41.22,89.93,41.22,89.38z"/>
					<path fill="#231F20" d="M43.46,91.25c-0.37-0.51-0.55-1.13-0.55-1.86c0-0.73,0.18-1.35,0.55-1.86c0.37-0.5,0.86-0.76,1.48-0.76
						c0.62,0,1.11,0.25,1.48,0.76c0.37,0.5,0.55,1.12,0.55,1.86c0,0.74-0.18,1.36-0.55,1.87c-0.37,0.51-0.86,0.76-1.48,0.76
						C44.32,92.01,43.83,91.76,43.46,91.25z M46.19,89.38c0-0.54-0.11-0.99-0.33-1.33s-0.53-0.52-0.93-0.52S44.22,87.7,44,88.05
						c-0.22,0.35-0.33,0.79-0.33,1.33c0,0.55,0.11,0.99,0.33,1.34c0.22,0.35,0.53,0.52,0.93,0.52s0.71-0.17,0.93-0.52
						C46.08,90.38,46.19,89.93,46.19,89.38z"/>
				</g>
			</g>
		</g>
	</g>
	<path d="M0.02,0v1.6v96.8v1.6h60v-1.6V1.6V0H0.02z M59.02,98.4h-58V1.6h58V98.4z"/>
	<g>
	</g>
	<g>
	</g>
	<g>
	</g>
	<g>
	</g>
	<g>
	</g>
	<g>
	</g>
	<g>
	</g>
	<g>
	</g>
	<g>
	</g>
	<g>
	</g>
	<g>
	</g>
	<g>
	</g>
	<g>
	</g>
	<g>
	</g>
	<g>
	</g>
	<g>
	</g>
	<g>
	</g>
</g>
</svg>
