<?xml version="1.0" encoding="utf-8"?>
<!-- Generator: Adobe Illustrator 26.2.1, SVG Export Plug-In . SVG Version: 6.00 Build 0)  -->
<svg version="1.1" xmlns="http://www.w3.org/2000/svg" xmlns:xlink="http://www.w3.org/1999/xlink" x="0px" y="0px"
	 viewBox="0 0 60 100" enable-background="new 0 0 60 100" xml:space="preserve">
<g id="Layer_1">
</g>
<g id="BG">
	<rect id="BG_00000082354266892434819460000014407544633745974707_" x="0.02" y="0" fill="#F0EDDA" width="60" height="100"/>
	<rect id="BG_00000037693340041972082810000009059657678697518014_" x="0.02" fill="#F0EDDA" width="60" height="100"/>
</g>
<g id="THINGS">
	<path d="M0.02,0v1.6v96.8v1.6h60v-1.6V1.6V0H0.02z M59.02,98.4h-58V1.6h58V98.4z"/>
	<g>
		<g id="_x33__00000023962928801856750690000010444753748168770983_">
			<g>
				<rect x="0.51" y="0.5" fill="#570D30" width="59.02" height="27.6"/>
				<path fill="#222317" d="M59.02,1v26.6H1.01V1H59.02 M60.02,0H0.01v28.6h60.01V0L60.02,0z"/>
			</g>
			<g>
				<rect x="0.51" y="0.5" fill="#570D30" width="59.02" height="27.6"/>
				<path fill="#222317" d="M59.02,1v26.6H1.01V1H59.02 M60.02,0H0.01v28.6h60.01V0L60.02,0z"/>
			</g>
			<g>
				<rect x="0.51" y="0.5" fill="#570D30" width="59.02" height="27.6"/>
				<path fill="#222317" d="M59.02,1v26.6H1.01V1H59.02 M60.02,0H0.01v28.6h60.01V0L60.02,0z"/>
			</g>
			<g>
				<g>
					<path fill="#231F20" d="M21.67,33.13c0.63,0,1.11,0.13,1.43,0.38c0.32,0.25,0.48,0.62,0.48,1.09c0,0.61-0.2,1.05-0.6,1.31
						c0.53,0.26,0.79,0.72,0.79,1.39c0,0.55-0.19,0.95-0.58,1.21c-0.39,0.26-0.89,0.39-1.51,0.39c-0.29,0-0.58-0.01-0.85-0.04
						c-0.27-0.02-0.47-0.05-0.59-0.08l-0.19-0.03v-5.47C20.48,33.18,21.02,33.13,21.67,33.13z M20.84,35.56h1
						c0.34,0,0.58-0.06,0.73-0.19c0.15-0.13,0.23-0.33,0.23-0.61c0-0.25-0.09-0.45-0.26-0.58c-0.17-0.13-0.46-0.19-0.86-0.19
						c-0.26,0-0.53,0.02-0.83,0.06V35.56z M22.98,37.17c0-0.58-0.39-0.87-1.17-0.87h-0.97v1.66c0.23,0.04,0.51,0.06,0.86,0.06
						c0.46,0,0.78-0.07,0.98-0.21C22.88,37.69,22.98,37.47,22.98,37.17z"/>
					<path fill="#231F20" d="M25.16,38.89l-0.84-0.08l2.49-5.68h0.12l2.56,5.68l-0.77,0.08l-0.58-1.29h-2.42L25.16,38.89z
						 M26.91,34.87l-0.88,2.02h1.79L26.91,34.87z"/>
					<path fill="#231F20" d="M34.68,38.89l-3.5-3.85v3.77l-0.8,0.08v-5.76h0.05l3.52,3.84v-3.76l0.8-0.08v5.76H34.68z"/>
					<path fill="#231F20" d="M39.8,37.95l-0.16,0.86H36.2v-5.6h3.44l0.16,0.86H37v1.42h2.29v0.86H37v1.6H39.8z"/>
					<path fill="#231F20" d="M14.89,46.27l-0.84-0.08l2.49-5.68h0.12l2.56,5.68l-0.77,0.08l-0.58-1.29h-2.42L14.89,46.27z
						 M16.63,42.24l-0.88,2.02h1.79L16.63,42.24z"/>
					<path fill="#231F20" d="M18.9,40.59l0.84-0.08l1.82,4.03l1.83-4.03l0.83,0.08l-2.63,5.68h-0.07L18.9,40.59z"/>
					<path fill="#231F20" d="M28.73,45.33l-0.16,0.86h-3.44v-5.6h3.44l0.16,0.86h-2.8v1.42h2.29v0.86h-2.29v1.6H28.73z"/>
					<path fill="#231F20" d="M34.23,46.27l-3.5-3.85v3.77l-0.8,0.08v-5.76h0.05l3.52,3.84v-3.76l0.8-0.08v5.76H34.23z"/>
					<path fill="#231F20" d="M39.41,43.66v-3.08l0.8-0.08v3.16c0,0.36-0.04,0.69-0.12,0.99c-0.08,0.3-0.2,0.58-0.37,0.82
						c-0.17,0.25-0.4,0.44-0.7,0.58c-0.3,0.14-0.65,0.21-1.06,0.21s-0.76-0.07-1.06-0.21c-0.3-0.14-0.53-0.33-0.7-0.58
						c-0.17-0.25-0.29-0.52-0.37-0.82c-0.08-0.3-0.12-0.63-0.12-0.99v-3.08l0.8-0.08v3.16c0,1.16,0.48,1.75,1.45,1.75
						C38.92,45.41,39.41,44.83,39.41,43.66z"/>
					<path fill="#231F20" d="M45.2,45.33l-0.16,0.86H41.6v-5.6h3.44l0.16,0.86h-2.8v1.42h2.29v0.86H42.4v1.6H45.2z"/>
				</g>
			</g>
			<g>
				<g>
					<path fill="#231F20" d="M17.32,89.45c0,0.38-0.11,0.66-0.33,0.85c-0.22,0.19-0.56,0.28-1.03,0.28h-0.61v1.35l-0.56,0.05v-3.57
						c0.31-0.06,0.7-0.09,1.16-0.09c0.48,0,0.83,0.09,1.04,0.28C17.21,88.79,17.32,89.07,17.32,89.45z M16.59,89.89
						c0.12-0.1,0.18-0.25,0.18-0.43c0-0.19-0.06-0.33-0.18-0.43c-0.12-0.1-0.32-0.15-0.62-0.15c-0.15,0-0.36,0.01-0.61,0.04v1.13
						h0.61C16.26,90.04,16.47,89.99,16.59,89.89z"/>
					<path fill="#231F20" d="M20.82,91.94l-0.62,0.05l-0.9-1.4h-0.66v1.35l-0.56,0.05v-3.57c0.31-0.06,0.7-0.09,1.16-0.09
						c0.48,0,0.83,0.09,1.04,0.28c0.22,0.19,0.33,0.47,0.33,0.85c0,0.56-0.24,0.9-0.71,1.04L20.82,91.94z M20.05,89.45
						c0-0.19-0.06-0.33-0.18-0.43c-0.12-0.1-0.32-0.15-0.62-0.15c-0.15,0-0.36,0.01-0.61,0.04v1.13h0.69
						C19.8,90.04,20.05,89.84,20.05,89.45z"/>
					<path fill="#231F20" d="M21.55,88.37l0.56-0.05v3.62l-0.56,0.05V88.37z"/>
					<path fill="#231F20" d="M23.49,91.51c-0.3-0.32-0.45-0.77-0.45-1.35c0-0.58,0.15-1.03,0.45-1.35s0.73-0.48,1.3-0.48
						c0.2,0,0.39,0.02,0.58,0.04c0.19,0.03,0.32,0.06,0.41,0.09l0.13,0.04l-0.13,0.52c-0.32-0.1-0.63-0.14-0.92-0.14
						c-0.43,0-0.75,0.11-0.95,0.33c-0.2,0.22-0.3,0.54-0.3,0.96c0,0.42,0.1,0.74,0.3,0.96c0.2,0.22,0.52,0.33,0.95,0.33
						c0.14,0,0.29-0.01,0.45-0.04c0.16-0.02,0.29-0.05,0.37-0.07l0.13-0.04l0.13,0.52c-0.29,0.12-0.68,0.18-1.16,0.18
						C24.22,91.99,23.78,91.83,23.49,91.51z"/>
					<path fill="#231F20" d="M29.22,91.39l-0.11,0.55H26.7v-3.56h2.41l0.11,0.55h-1.96v0.9h1.61v0.55h-1.61v1.02H29.22z"/>
					<path fill="#231F20" d="M32.04,91.61l0.28-0.73c0.32,0.19,0.75,0.31,1.31,0.35v-1.43c-0.23-0.07-0.42-0.14-0.57-0.2
						s-0.31-0.16-0.47-0.27s-0.29-0.25-0.37-0.41c-0.08-0.16-0.12-0.35-0.12-0.56c0-0.45,0.14-0.81,0.42-1.08
						c0.28-0.27,0.65-0.43,1.12-0.49v-0.66l0.6-0.07v0.72c0.2,0.01,0.39,0.05,0.59,0.09c0.2,0.05,0.34,0.09,0.44,0.13l0.15,0.06
						l-0.25,0.73c-0.26-0.12-0.57-0.19-0.93-0.23v1.49c0.23,0.07,0.42,0.14,0.57,0.21c0.15,0.07,0.31,0.15,0.48,0.26
						c0.17,0.11,0.29,0.24,0.37,0.39c0.08,0.16,0.13,0.33,0.13,0.53c0,0.94-0.51,1.45-1.54,1.54v0.65l-0.6,0.07V92
						c-0.25-0.02-0.5-0.06-0.77-0.12c-0.26-0.06-0.47-0.12-0.6-0.18L32.04,91.61z M32.89,88.25c0,0.14,0.06,0.25,0.19,0.35
						c0.13,0.1,0.31,0.19,0.55,0.27v-1.29C33.14,87.65,32.89,87.87,32.89,88.25z M34.97,90.56c0-0.13-0.06-0.24-0.19-0.33
						c-0.13-0.09-0.31-0.17-0.55-0.25v1.24C34.73,91.14,34.97,90.92,34.97,90.56z"/>
					<path fill="#231F20" d="M36.67,89.42c0-0.75,0.16-1.38,0.49-1.89c0.32-0.51,0.76-0.76,1.3-0.76c0.41,0,0.83,0.08,1.25,0.24
						l-0.19,0.69c-0.32-0.11-0.62-0.17-0.89-0.17c-0.29,0-0.52,0.09-0.7,0.27c-0.18,0.18-0.3,0.41-0.37,0.68
						c-0.07,0.27-0.1,0.58-0.1,0.94c0.3-0.3,0.67-0.45,1.11-0.45c0.48,0,0.85,0.13,1.13,0.39s0.41,0.63,0.41,1.1
						c0,0.44-0.15,0.81-0.45,1.1c-0.3,0.29-0.71,0.44-1.24,0.44c-0.56,0-0.99-0.22-1.29-0.67C36.82,90.89,36.67,90.25,36.67,89.42z
						 M39.33,90.47c0-0.28-0.08-0.49-0.24-0.64c-0.16-0.15-0.37-0.23-0.63-0.23c-0.22,0-0.42,0.05-0.6,0.14
						c-0.18,0.1-0.31,0.22-0.38,0.37c0.05,0.39,0.15,0.67,0.31,0.86c0.16,0.18,0.38,0.28,0.67,0.28c0.27,0,0.48-0.07,0.64-0.2
						C39.25,90.91,39.33,90.72,39.33,90.47z"/>
					<path fill="#231F20" d="M41.54,91.25c-0.37-0.51-0.55-1.13-0.55-1.86c0-0.73,0.18-1.35,0.55-1.86c0.37-0.5,0.86-0.76,1.48-0.76
						c0.62,0,1.11,0.25,1.48,0.76c0.37,0.5,0.55,1.12,0.55,1.86c0,0.74-0.18,1.36-0.55,1.87c-0.37,0.51-0.86,0.76-1.48,0.76
						C42.4,92.01,41.91,91.76,41.54,91.25z M44.28,89.38c0-0.54-0.11-0.99-0.33-1.33s-0.53-0.52-0.93-0.52s-0.71,0.17-0.93,0.52
						c-0.22,0.35-0.33,0.79-0.33,1.33c0,0.55,0.11,0.99,0.33,1.34c0.22,0.35,0.53,0.52,0.93,0.52s0.71-0.17,0.93-0.52
						C44.17,90.38,44.28,89.93,44.28,89.38z"/>
				</g>
			</g>
		</g>
	</g>
	<path d="M0.02,0v1.6v96.8v1.6h60v-1.6V1.6V0H0.02z M59.02,98.4h-58V1.6h58V98.4z"/>
	<g>
	</g>
	<g>
	</g>
	<g>
	</g>
	<g>
	</g>
	<g>
	</g>
	<g>
	</g>
	<g>
	</g>
	<g>
	</g>
	<g>
	</g>
	<g>
	</g>
	<g>
	</g>
	<g>
	</g>
	<g>
	</g>
	<g>
	</g>
	<g>
	</g>
	<g>
	</g>
	<g>
	</g>
</g>
</svg>
