<?xml version="1.0" encoding="utf-8"?>
<!-- Generator: Adobe Illustrator 26.2.1, SVG Export Plug-In . SVG Version: 6.00 Build 0)  -->
<svg version="1.1" xmlns="http://www.w3.org/2000/svg" xmlns:xlink="http://www.w3.org/1999/xlink" x="0px" y="0px"
	 viewBox="0 0 100 100" enable-background="new 0 0 100 100" xml:space="preserve">
<g id="Layer_1">
</g>
<g id="BG">
	<rect id="BG_00000044858667638158791930000016007329722306264735_" x="0" fill="#F0EDDA" width="100" height="100"/>
	<path d="M98.4,1.6v96.8H1.6V1.6H98.4 M100,0H0v100h100V0L100,0z"/>
</g>
<g id="THINGS">
	<g id="PARK">
		<g>
			<g>
				<path fill="#231F20" d="M88.26,74.61l-1.04-1.04L90,70.79l-2.98-2.98l0.87-1.06l6.88,6.88l-4.11,4.11l-1.29-0.79l3.4-3.4
					l-1.72-1.72L88.26,74.61z"/>
				<path fill="#231F20" d="M77.85,76.98l0.97-1.17l4.23,1.12l1.14-1.14l-2.58-2.58l0.87-1.06l6.81,6.81
					c-0.42,0.65-1.03,1.38-1.83,2.18c-0.83,0.83-1.61,1.25-2.34,1.28c-0.73,0.02-1.46-0.33-2.19-1.06
					c-1.06-1.06-1.31-2.13-0.75-3.22L77.85,76.98z M83.91,80.38c0.36,0.36,0.74,0.53,1.13,0.52c0.39-0.01,0.85-0.27,1.36-0.79
					c0.26-0.26,0.59-0.64,0.99-1.14l-2.14-2.14l-1.19,1.19C83.22,78.85,83.17,79.64,83.91,80.38z"/>
				<path fill="#231F20" d="M73.54,83.37l-0.85-1.24l4.17-4.17l6.79,6.79l-4.17,4.17l-1.24-0.85l3.4-3.4l-1.72-1.72l-2.78,2.78
					l-1.04-1.04l2.78-2.78l-1.94-1.94L73.54,83.37z"/>
				<path fill="#231F20" d="M67.93,88.98l-0.85-1.24l4.17-4.17l6.79,6.79l-4.17,4.17l-1.24-0.85l3.4-3.4l-1.72-1.72l-2.78,2.78
					l-1.04-1.04l2.78-2.78l-1.94-1.94L67.93,88.98z"/>
			</g>
		</g>
		<g>
			<g>
				<path fill="#231F20" d="M45.11,16.58c-0.72-0.72-1.07-1.45-1.05-2.18c0.02-0.73,0.43-1.51,1.24-2.32l1.06-1.06l-2.58-2.58
					l0.87-1.06l6.81,6.81c-0.42,0.65-1.03,1.38-1.83,2.18c-0.83,0.83-1.61,1.25-2.34,1.28S45.84,17.3,45.11,16.58z M45.55,14.48
					c-0.01,0.39,0.16,0.77,0.52,1.13c0.36,0.36,0.74,0.53,1.13,0.52c0.39-0.01,0.85-0.27,1.36-0.79c0.26-0.26,0.59-0.64,0.99-1.14
					l-2.14-2.15l-1.06,1.06C45.83,13.63,45.56,14.09,45.55,14.48z"/>
				<path fill="#231F20" d="M39.43,12.59l1.11-0.91l3.87,9.9l-0.15,0.15l-9.99-3.78l0.83-1.03l2.27,0.86l2.94-2.94L39.43,12.59z
					 M42.19,19.59l-1.39-3.51l-2.17,2.17L42.19,19.59z"/>
				<path fill="#231F20" d="M28.64,23.58l0.97-1.17l4.23,1.12l1.14-1.14l-2.58-2.58l0.87-1.06l6.81,6.81
					c-0.42,0.65-1.03,1.38-1.83,2.18c-0.83,0.83-1.61,1.25-2.34,1.28c-0.73,0.02-1.46-0.33-2.19-1.06
					c-1.06-1.06-1.31-2.13-0.75-3.22L28.64,23.58z M34.71,26.98c0.36,0.36,0.74,0.53,1.13,0.52c0.39-0.01,0.85-0.27,1.36-0.79
					c0.26-0.26,0.59-0.64,0.99-1.14l-2.14-2.15l-1.19,1.19C34.01,25.45,33.97,26.24,34.71,26.98z"/>
				<path fill="#231F20" d="M22.67,29.55l0.98-1.18l6.35,0.5l-3.32-3.32l0.87-1.06l6.88,6.89l-0.87,1.06l-3.49-3.49l0.68,6.3
					l-1.14,0.95l-0.68-6.12L22.67,29.55z"/>
				<path fill="#231F20" d="M28.47,37.33l-0.87,1.06l-6.89-6.89l0.87-1.06L28.47,37.33z"/>
				<path fill="#231F20" d="M13.82,38.21l8.9,0.42l-4.56-4.56L19.02,33l6.98,6.98l-0.06,0.06l-8.93-0.39l4.56,4.56l-0.87,1.06
					l-6.98-6.98L13.82,38.21z"/>
				<path fill="#231F20" d="M16.25,46.41c-0.06-0.76-0.5-1.55-1.31-2.35c-0.81-0.81-1.59-1.24-2.36-1.3
					c-0.77-0.06-1.53,0.29-2.28,1.04c-0.28,0.28-0.55,0.63-0.82,1.06l1.49,1.49l1.36-1.36l0.96,0.96l-2.33,2.33l-3.27-3.27
					c0.3-0.75,0.87-1.54,1.7-2.37c0.98-0.98,2.03-1.42,3.17-1.33c1.13,0.09,2.25,0.69,3.36,1.79c1.1,1.1,1.7,2.22,1.79,3.35
					c0.09,1.13-0.35,2.19-1.33,3.16c-0.35,0.35-0.71,0.65-1.09,0.92c-0.38,0.27-0.68,0.45-0.89,0.55l-0.3,0.15l-0.76-1.21
					c0.76-0.39,1.38-0.83,1.89-1.33C15.97,47.93,16.32,47.18,16.25,46.41z"/>
			</g>
		</g>
		<g id="free_parking">
			<g>
				<path fill="#9A1C1F" d="M36.99,73.77c0.18,0.09,2.25,1.1,3.01,1.43c1.16,0.62,2.22,0.99,3.35,1.65
					c0.26,0.02,1.04,0.41,1.21,0.47c0.33,0.11-0.26-1.07-0.35-1.24c-0.81-1.66-1.59-3.28-2.41-4.95c-0.1-0.25-0.24-0.66-0.32-0.84
					c-0.3-0.74-1.39-2.51-1.42-2.54c-0.53-0.74-1.31-0.94-2.19-1.34c-1.36-0.62-2.73-1.2-4.09-1.8c-0.23-0.1-0.88-0.46-1.02-0.28
					c0.43,1.37,1.11,2.68,1.4,3.79C34.74,69.61,36.42,73.5,36.99,73.77z"/>
				<path fill="#9A1C1F" d="M71.66,37.41c1.01,0.84,9.26,5.52,8.94,5.09c-0.15-0.21-1.91-5.41-2.72-6.97
					c-0.15-0.28-0.8-1.84-0.99-1.73c-0.76-0.54-8.44-3.89-9.06-4.18C67.66,29.76,70.62,36.54,71.66,37.41z"/>
				<path fill="#9A1C1F" d="M75.67,34.46c-0.01,0.01-0.02,0.03-0.03,0.04c-0.07-0.07-0.14-0.14-0.21-0.21
					C75.51,34.34,75.59,34.4,75.67,34.46z"/>
			</g>
			<path fill="#9A1C1F" d="M49.25,78.36c3.63,0.56,6.52,1.19,9.62,1.54c1.49,0.17,3.1-1.25,4.61-2.99
				c3.18-3.24,19.24-17.33,19.17-18.57c-0.26-4.78-0.45-8.47-0.69-13.25c-0.07-1.4-1.82-2.29-2.87-1.19
				c-1.46,1.53-2.98,3.17-3.69,5.2c-0.76,2.18-1.14,3.49-1.27,4.88c-0.14,0.12-0.22,3.68-0.08,4.08c-0.12,0.66-0.29,1.28-0.2,2.01
				c-0.64,0.53-0.85,1.53-0.9,2.37c-0.03,0.48,0.28,2.63,0.24,2.69c-1.57,1.79-3.34,3.36-5.21,4.83c-0.2,0.16-0.4,0.31-0.6,0.46
				c-1.1-1.02-2.67,0.7-3.08,0.62c-0.01,0-1.69-0.8-1.98-0.51c-0.1,0.01-0.22-0.03-0.31,0.02c-1.51,0.79-2.54-0.63-3.68,1.17
				c-0.41-0.16-1.52-0.38-1.59-0.38c-0.56,0-1.3,0.16-1.8,0.41c-0.2,0.1-0.53,0.24-0.71,0.34c-0.3-0.16-1.03-0.41-1.19-0.42
				c-2.71-0.19-5.86,3.94-7.66,5.6C45.3,77.33,47.36,78.07,49.25,78.36z"/>
			<path fill="#FFFCDF" d="M30.45,67.58c0.45,0.22,2.97,0.81,3.36,0.67c0.35-0.13-1.19-3.63-1.3-3.82
				c-0.63-1.93,0.93-2.96,1.86-3.86c0.14-0.14,10.99-10.76,16.16-15.89c3.19-3.17,6.35-6.37,9.56-9.52c1.59-1.56,3.19-3.1,4.86-4.58
				c0.69-0.61,2.06-1.79,2.09-1.78c0.05-0.04,4.7,2.29,4.74,2.25c0.37-0.44,0.2-2.93,0.18-3.08c-1.24-2.28-6.07-7.75-6.93-6.98
				c-4.52,4.04-10.26,9.85-14.46,14.23c-8.28,8.63-26.1,26.24-26.2,26.43C24.13,62.11,28.57,66.66,30.45,67.58z"/>
			<path fill="#415033" d="M55.09,70.15c0.07,0.39,0.34,0.73,0.82,0.84c0.55,0.13,1.11,0.26,1.66,0.39
				c0.54,0.13,1.02-0.16,1.28-0.58c2.82,0.51,2.53-1.09,5.39-0.02c1.45,0.54,3.33-2.33,4.44-3.37c0.94-0.88,1.67-1.77,2.24-2.68
				c0.95,0.15,1.37-0.62,1.51-1.44c0.09-0.5,0.15-1,0.07-1.49c0.23-0.14,0.42-0.34,0.53-0.63c0.5-1.3,0.52-2.48,0.14-3.81
				c-0.09-0.31-0.3-0.53-0.56-0.68c-0.2-0.86-0.47-1.71-0.81-2.56c-0.21-0.53-0.76-1.05-1.4-0.82c-3.07,1.14-4.74,4.11-7.05,6.28
				c-3.19,2.99-6.21,6.04-9.01,9.4C53.83,69.6,54.47,70.4,55.09,70.15z"/>
			<path fill="#39383A" d="M44.92,77.15c0.05,0.09,0.09,0.15,0.13,0.22c0.12-0.09,0.23-0.15,0.36-0.18
				c0.82-0.89,1.57-1.85,2.36-2.76c0.25-0.29,0.55-0.39,0.83-0.35c0.04-0.05,0.08-0.09,0.13-0.14c2.48-2.48,4.65-4.48,7.08-6.76
				c3.05-2.86,4.35-4.35,7.44-7.26c4.95-4.65,11.23-10.84,16.96-16.51c1.01-1,0.29-1.19-1.71-2.06c-1.55-0.67-5.09-2.72-7.2-4.2
				c-1.29-2.32-2.49-5.7-4.21-8.29c-0.17,0.26-0.59,0.72-1.52,1.43c-1.87,1.43-3.76,3.5-5.61,5.21c-0.96,1.5-2.21,2.83-3.55,4.03
				c0.21,0.24,0.41,0.49,0.62,0.73c0.19,0.07,0.37,0.15,0.56,0.27c0.95,0.61,1.55,1.78,2.28,2.6c0.6,0.66,1.26,1.22,1.68,2.02
				c0.28,0.53,0.11,1.19-0.41,1.5c-0.2,0.12-0.39,0.25-0.58,0.37c-0.04,0.16-0.1,0.33-0.22,0.48c-0.21,0.3-0.46,0.58-0.72,0.83
				c0,0-0.01,0.01-0.01,0.01c-0.68,0.72-1.41,1.38-2.15,2.05c-0.47,0.53-0.95,1.06-1.46,1.56c-0.13,0.13-0.29,0.21-0.45,0.25
				c-0.55,0.56-1.1,1.12-1.66,1.66c-1.54,1.8-3.17,3.5-5.26,4.67c-0.42,0.23-0.98,0.17-1.32-0.18c-1.56-1.58-3.04-3.23-4.55-4.86
				c-0.19-0.2-0.27-0.42-0.29-0.64c-3.32,3.23-6.74,6.44-9.54,9.11c-2.43,2.31,0.18,2.38,3.57,3.84c1.44,0.62,3.85,1.99,4.39,3.25
				C42.01,71.69,42.82,73.32,44.92,77.15z M55.03,58.51c0.26-0.91,1-1.5,1.72-2.04c1.03-0.77,1.9-1.71,2.94-2.45
				c0.4-0.29,0.84,0.2,0.77,0.59c-0.2,1.21-1.35,1.9-2.14,2.73c-0.19,0.2-0.42,0.19-0.6,0.09c-0.41,0.38-0.83,0.74-1.3,1.06
				c-0.18,0.17-0.35,0.34-0.51,0.53C55.57,59.41,54.9,59,55.03,58.51z"/>
			<path fill="#FFFCDF" d="M43.86,54.81c0.95,0.8,2.93,3.02,3.79,3.83c1.01,0.95,0.83,0.25,1.87-0.67
				c3.66-3.21,6.77-7.08,10.44-10.34c0.17-0.15,1.81-1.54,1.91-1.71c0.38-0.25,0.62-0.19-0.42-1.29c-1.41-1.48-2.67-2.98-4.14-4.4
				c-0.83-0.8-0.8-1.21-1.54-0.4c-3.39,3.75-8.48,8.44-12.16,11.98c-0.02,0.02-0.04,0.05-0.06,0.08c-0.38,0.09-0.72,0.31-0.88,0.67
				c-0.01,0.02-0.41,0.78-0.41,0.8c-0.24,0.55,0.34,0.28,0.71,0.78C43.22,54.47,43.45,54.25,43.86,54.81z"/>
			<path fill="#FFFCDF" d="M55.6,59.41c0.09-0.03,0.18-0.06,0.28-0.09c0.09-0.03,0.18-0.02,0.26,0.01l4.84-4.84l-1.2-1.2l-5.28,5.28
				l0.87,0.87C55.45,59.43,55.52,59.42,55.6,59.41z"/>
			<path d="M23.67,61.57c0.44-0.44,0.82-0.82,1.2-1.2c0.26-0.27,0.31-0.52-0.01-0.8c-0.56-0.51-4.76-4.78-5.2-5.18
				c-0.55-0.56-0.37-1.06-0.05-1.4c1.55-1.61,5.25-5.24,5.69-5.65c0.27-0.25,0.53-0.25,0.86-0.11c1.04,0.46,4.57,4.33,5.63,5.35
				c0.37,0.36,0.63,0.29,0.95-0.03c1.33-1.34,2.67-2.67,4.01-4.01c2.07-2.07,4.1-4.18,6.22-6.2c1.36-1.3,2.64-2.68,3.97-4
				c1.14-1.13,2.27-2.27,3.44-3.37c2.06-1.94,3.93-4.07,5.98-6.01c0.35-0.33,0.25-0.31-0.08-0.68c-1-1.03-3.98-4.1-4.75-4.85
				c-0.44-0.43-0.62-1.23-0.34-1.55c0.24-0.39,1.56-1.44,1.89-1.77c1.28-1.27,2.54-2.56,3.81-3.82c0.59-0.59,0.57-0.51,1.29-0.14
				c1.2,1.25,4.1,4.19,5.11,5.12c0.16,0.24,0.38,0.31,0.63,0.06c0.19-0.21,0.39-0.41,0.62-0.59c0.61-0.49,0.84-0.46,1.41,0.09
				c1.12,1.07,2.26,2.11,3.32,3.24c0.82,0.87,1.61,1.78,2.33,2.74c0.72,0.95,1,2.02,0.78,3.21c-0.03,0.19-0.02,0.38-0.07,0.56
				c-0.12,0.43,0.08,0.62,0.47,0.76c1.5,0.58,2.9,1.39,4.42,1.91c0.31,0.11,0.32,0.37,0.41,0.59c0.97,2.23,1.97,4.44,2.87,6.7
				c0.86,2.14,1.9,4.19,2.91,6.26c1.1,2.27,2.45,4.42,3.29,6.81c0.6,1.7,1.4,3.31,2,5.01c0.27,0.77,0.16,1.38-0.38,1.99
				c-1.42,1.62-3.08,2.99-4.6,4.5c-2.87,2.84-5.78,5.66-8.7,8.45c-2.03,1.94-4.03,3.91-6.05,5.86c-2.18,2.1-4.32,4.25-6.47,6.39
				c-0.41,0.41-0.81,0.59-1.42,0.46c-1.11-0.22-2.08-0.64-3.01-1.28c-1.38-0.95-2.88-1.7-4.38-2.43c-2.16-1.05-4.3-2.13-6.46-3.17
				c-3.53-1.69-6.96-3.56-10.49-5.25c-0.48-0.23-0.72-0.51-0.89-1.07c-0.39-1.29-1-2.51-1.48-3.77c-0.29-0.75-0.88-0.98-1.57-0.92
				c-1.63,0.13-2.94-0.49-4.13-1.52C26.82,65.27,25.25,63.42,23.67,61.57z M43.51,75.55c-0.18,0.27-0.37,0.54-0.59,0.86
				c0.49,0.15,0.79,0.59,1.36,0.53c-0.2-0.54-0.39-1.03-0.8-1.39c-0.08-0.71-0.39-1.32-0.77-1.93c-0.27,0.27-0.31,0.54-0.29,0.83
				c0.02,0.37,0.56,0.09,0.59,0.5c-0.1,0.14-0.23,0.25-0.42,0.31c-0.17,0.05-0.28,0.15-0.2,0.34c0.09,0.2,0.27,0.13,0.41,0.09
				C43.02,75.61,43.25,75.5,43.51,75.55z M39.64,73.57c-0.13-0.39-0.37-0.7-0.26-1.21c0.16-0.79-0.15-0.97-1.03-0.81
				c-0.15,0.03-0.33-0.03-0.4,0.16c-0.07,0.19,0.08,0.28,0.19,0.38c0.37,0.34,0.72,0.69,0.97,1.14c0.1,0.19,0.28,0.34,0.54,0.31
				c0.2,0.27,0.4,0.66,0.78,0.5c0.46-0.19,0.08-0.6,0.1-0.9c0.01-0.08-0.06-0.17-0.09-0.25C39.86,72.77,39.76,73.18,39.64,73.57z
				 M45.13,76.95c0.29-0.58,0.63-0.93,0.99-1.28c0.7-0.69,1.48-1.29,2.18-1.96c2.67-2.55,5.3-5.13,7.96-7.7
				c2.33-2.26,4.67-4.51,7.01-6.76c2.84-2.73,5.68-5.46,8.52-8.2c1.38-1.34,2.71-2.74,4.12-4.04c1.3-1.2,2.44-2.55,3.78-3.71
				c0.42-0.36,0.39-0.45-0.1-0.77c-1.6-1.01-3.21-2.01-4.82-3c-0.89-0.55-1.77-1.09-2.67-1.62c-0.58-0.34-0.59-0.27-1.11,0.15
				c-0.66,0.54-1.16,1.22-1.77,1.8c-3.98,3.82-7.95,7.66-11.92,11.48c-0.99,0.95-2.07,1.83-2.99,2.84c-1.11,1.21-2.33,2.3-3.51,3.43
				c-0.98,0.93-2.05,1.79-2.97,2.78c-1.72,1.85-3.55,3.59-5.39,5.31c-0.51,0.47-0.99,0.98-1.48,1.46c-0.19,0.19-0.29,0.37-0.14,0.66
				c0.36,0.7,0.57,1.47,0.89,2.18C42.73,72.31,43.75,74.61,45.13,76.95z M33.71,67.97c-0.61-1.42-0.99-2.78-1.78-3.97
				c-0.09-0.13-0.1-0.25-0.11-0.42c-0.02-0.85,0.41-1.46,0.97-2.01c1.96-1.91,3.91-3.83,5.88-5.73c0.9-0.87,1.87-1.69,2.75-2.59
				c2.36-2.39,4.79-4.71,7.18-7.06c1.1-1.08,2.19-2.17,3.27-3.27c0.86-0.87,1.8-1.68,2.68-2.53c2.06-2,4.07-4.05,6.11-6.08
				c1.84-1.82,3.68-3.64,5.53-5.45c0.24-0.23,0.46-0.57,0.83-0.57c0.32,0,0.42,0.35,0.58,0.57c0.04,0.05,0.09,0.09,0.15,0.12
				c1.14,0.54,2.28,1.07,3.42,1.62c0.27,0.13,0.45,0.04,0.48-0.23c0.12-1.11,0.18-2.18-0.53-3.18c-1.35-1.89-2.93-3.56-4.65-5.1
				c-1.32-1.18-1.04-1.18-2.28,0.06c-2.17,2.16-4.36,4.29-6.48,6.5c-0.97,1.01-2.03,1.97-3.05,2.95c-1.6,1.54-3.2,3.09-4.78,4.65
				c-1.1,1.09-2.14,2.22-3.23,3.31c-2.46,2.44-4.92,4.88-7.4,7.31c-1.33,1.3-2.63,2.62-3.99,3.9c-1.72,1.62-3.29,3.39-4.98,5.05
				c-1.95,1.91-3.78,3.93-5.78,5.75c1.26,1.76,2.78,3.23,4.29,4.71C30.13,67.6,31.76,67.95,33.71,67.97z M62.27,45.12
				c2.28-2.17,4.5-4.26,6.7-6.36c0.5-0.48,1.04-0.92,1.45-1.48c0.25-0.34,0.3-0.63,0.09-1.03c-0.44-0.84-0.9-1.65-1.24-2.54
				c-0.49-1.3-1.26-2.46-1.89-3.69c-0.25-0.49-0.36-0.49-0.78-0.15c-0.36,0.3-0.72,0.62-1.06,0.94c-1.65,1.6-3.3,3.2-4.94,4.81
				c-1.1,1.08-2.19,2.17-3.3,3.24c-0.35,0.34-0.32,0.56,0.02,0.92c0.82,0.87,1.72,1.66,2.47,2.6
				C60.56,43.33,61.28,44.34,62.27,45.12z M56.48,70.58c0.89,0.82,0.94,0.85,1.87,0.27c0.7-0.43,1.39-0.73,2.21-0.32
				c0.27,0.14,0.52,0.09,0.79-0.1c0.74-0.53,1.5-0.41,2.21,0.05c0.36,0.24,0.59,0.19,0.93-0.02c0.59-0.37,1.1-0.85,1.69-1.2
				c2.09-1.25,3.53-3.12,4.95-5.01c0.89-1.17,1.32-2.57,1.83-3.92c0.28-0.76,0.35-1.55,0.12-2.39c-0.2-0.73-0.67-1.34-0.77-2.11
				c-0.04-0.29-0.35-0.34-0.6-0.12c-0.26,0.23-0.5,0.48-0.75,0.72c-2.22,2.05-4.6,3.93-6.7,6.11c-1.31,1.36-2.68,2.67-3.93,4.1
				c-0.79,0.9-1.49,1.88-2.36,2.71C57.52,69.77,56.92,70.01,56.48,70.58z M34.68,60.93c-0.58,0.58-1.15,1.17-1.74,1.74
				c-0.55,0.53-0.53,0.8,0.13,1.22c0.29,0.19,0.59,0.35,0.9,0.5c1.62,0.77,3.39,1.17,4.92,2.16c0.51,0.32,1.09,0.38,1.64-0.25
				c0.57-0.66,1.19-1.31,1.87-1.86c1.73-1.38,3.12-3.11,4.78-4.56c0.53-0.46,0.54-0.62,0.06-1.07c-0.55-0.52-1.05-1.08-1.52-1.66
				c-0.93-1.13-2.17-1.93-3.18-2.97c-0.45-0.47-0.51-0.47-0.96,0.04c-0.52,0.59-1.05,1.17-1.64,1.69
				C38.11,57.5,36.51,59.33,34.68,60.93z M71.89,54.95c-0.22-0.32-0.41-0.57-0.58-0.83c-0.68-1.03-0.7-1.03-1.57-0.18
				c-2.37,2.31-4.74,4.63-7.13,6.93c-2.57,2.47-5.15,4.93-7.72,7.4c-0.52,0.5-0.52,0.51-0.03,1.05c0.17,0.19,0.35,0.37,0.53,0.54
				c0.18,0.17,0.37,0.2,0.59,0.04c0.74-0.54,1.52-1.03,2.11-1.75c1.12-1.37,2.28-2.69,3.52-3.95
				C64.86,60.94,68.08,57.67,71.89,54.95z M80.65,43.86c-0.4,0.16-0.59,0.47-0.85,0.68c-0.68,0.56-1.08,1.21-0.97,2.13
				c0.03,0.25-0.03,0.52-0.22,0.7c-0.65,0.59-0.6,1.28-0.26,1.98c0.19,0.39,0.08,0.66-0.18,0.93c-0.17,0.18-0.33,0.38-0.52,0.54
				c-0.41,0.36-0.6,0.78-0.5,1.34c0.08,0.43,0.14,0.85,0.36,1.25c0.48,0.89,0.46,0.9-0.3,1.54c-1.04,0.86-1.23,1.91-0.56,3.06
				c0.06,0.11,0.1,0.23,0.15,0.34c0.35,0.73,0.38,0.77-0.3,1.17c-0.55,0.32-0.7,0.79-0.69,1.35c0.01,0.74,0.4,1.31,0.89,1.82
				c0.13,0.14,0.29,0.16,0.41,0.03c0.79-0.81,1.71-1.49,2.43-2.37c0.18-0.22,0.15-0.39-0.03-0.57c-0.13-0.14-0.27-0.27-0.39-0.41
				c-0.84-0.99-1.01-2.68-0.04-3.62c0.45-0.43,0.54-0.88,0.23-1.43c-0.12-0.22-0.18-0.47-0.26-0.71c-0.21-0.65-0.14-1.29,0.33-1.77
				c0.41-0.43,0.42-0.84,0.31-1.37c-0.24-1.17-0.08-2.27,0.92-3.08c0.32-0.26,0.37-0.53,0.32-0.91
				C80.83,45.63,80.75,44.78,80.65,43.86z M45.84,77.23c1.03,0.18,1.84,0.28,2.62,0.47c0.48,0.12,0.8,0.02,1.03-0.39
				c0.27-0.49,0.72-0.68,1.24-0.72c0.28-0.02,0.57-0.01,0.85,0c0.59,0.02,1.14,0.03,1.69-0.34c0.63-0.43,1.38-0.37,2.11-0.18
				c0.33,0.09,0.68,0.17,0.99,0.32c0.37,0.17,0.62,0.11,0.93-0.16c0.55-0.48,1.21-0.6,1.94-0.54c0.88,0.07,1.66,0.36,2.37,0.85
				c0.28,0.19,0.5,0.22,0.75-0.01c0.77-0.7,1.54-1.39,2.31-2.1c0.21-0.19,0.23-0.38,0.01-0.64c-0.57-0.69-1.61-0.86-2.34-0.2
				c-0.66,0.6-1.2,0.57-1.94,0.15c-1.22-0.7-2.2-0.5-3.1,0.58c-0.23,0.28-0.43,0.33-0.72,0.23c-0.27-0.09-0.53-0.19-0.79-0.31
				c-0.32-0.14-0.66-0.15-0.88,0.12c-0.36,0.45-0.79,0.35-1.21,0.21c-0.91-0.31-1.67-0.13-2.29,0.62c-0.35,0.43-0.78,0.57-1.34,0.41
				c-0.6-0.17-1.23-0.34-1.83,0.06c-0.07,0.05-0.2,0.09-0.26,0.05c-0.46-0.26-0.69,0.08-0.96,0.34
				C46.68,76.39,46.35,76.72,45.84,77.23z M48.29,74.83c0.64,0.08,1.15-0.19,1.63,0.01c0.42,0.17,0.74,0.05,1.02-0.25
				c0.75-0.8,1.66-0.97,2.68-0.69c0.31,0.09,0.57,0.11,0.87-0.12c0.36-0.27,0.86-0.42,1.25-0.21c0.59,0.31,1,0.09,1.45-0.23
				c1.07-0.75,2.19-0.91,3.36-0.23c0.4,0.23,0.79,0.23,1.13-0.08c0.71-0.64,1.46-0.59,2.28-0.23c0.38,0.17,0.74,0.33,1.05,0.61
				c0.26,0.23,0.53,0.21,0.76-0.01c0.6-0.56,1.19-1.13,1.77-1.7c0.28-0.28,0.15-0.48-0.12-0.69c-0.97-0.7-1.64-0.72-2.55,0.06
				c-0.35,0.3-0.65,0.32-1.03,0.18c-0.26-0.1-0.55-0.19-0.77-0.35c-0.39-0.29-0.83-0.28-1.14-0.02c-0.61,0.5-1.17,0.42-1.84,0.17
				c-0.62-0.23-1.03,0.01-1.34,0.65c-0.07,0.15-0.12,0.36-0.26,0.36c-0.53,0.03-1.01,0.53-1.59,0.17c-0.83-0.51-1.62-0.4-2.31,0.27
				c-0.24,0.23-0.56,0.27-0.79,0.16c-0.93-0.44-1.86-0.41-2.84-0.23c-0.17,0.03-0.34,0.01-0.48,0.14
				C49.77,73.24,48.98,73.87,48.29,74.83z M80.96,48.12c-0.43,0.16-0.46,0.54-0.58,0.85c-0.26,0.68-0.08,1.37,0.02,2.05
				c0.06,0.43,0.03,0.76-0.35,1.08c-0.56,0.47-0.49,1.12-0.28,1.75c0.1,0.3,0.25,0.58,0.35,0.88c0.13,0.41,0.15,0.78-0.27,1.09
				c-1.36,1.01-0.85,2.75,0.02,3.55c0.31,0.29,0.52,0.26,0.79-0.01c0.37-0.38,0.74-0.78,1.14-1.14c0.34-0.3,0.44-0.6,0.4-1.07
				c-0.27-2.73-0.57-5.46-0.94-8.18C81.21,48.7,81.22,48.4,80.96,48.12z M50.1,77.84c0.41,0.23,0.76,0.27,1.1,0.33
				c2.02,0.31,4.05,0.63,6.07,0.94c2.37,0.37,1.74,0.54,3.44-1.09c0.89-0.85,1.22-0.84-0.33-1.44c-0.89-0.34-1.86-0.43-2.58,0.28
				c-0.49,0.49-0.91,0.42-1.43,0.23c-0.29-0.11-0.58-0.24-0.88-0.34c-0.72-0.24-1.45-0.26-2.08,0.2c-0.45,0.33-0.9,0.36-1.42,0.31
				C51.32,77.2,50.67,77.26,50.1,77.84z M75.78,55.63c-0.66,0.19-0.95,0.54-1.29,0.78c-0.42,0.3-0.53,0.67-0.36,1.15
				c0.11,0.3,0.14,0.57-0.02,0.9c-0.21,0.44-0.07,0.93,0.05,1.39c0.05,0.21,0.16,0.42,0.19,0.63c0.09,0.62,0.19,1.23-0.53,1.63
				c-0.4,0.22-0.49,0.66-0.52,1.15c-0.05,0.76,0.43,1.29,0.7,1.91c0.14,0.3,0.36,0.17,0.53,0.02c0.51-0.47,1.01-0.95,1.5-1.44
				c0.46-0.46,0.45-0.47,0.02-1c-0.08-0.1-0.18-0.18-0.25-0.28c-0.97-1.27-0.94-2.36,0.14-3.44c0.31-0.31,0.33-0.58,0.09-0.9
				C75.49,57.42,75.37,56.64,75.78,55.63z M34.56,65.6c1.68,0.9,2.71,2.32,4.01,3.44c1.31,1.12,2.49,2.38,3.69,3.64
				c-0.73-1.6-1.28-3.27-2.23-4.75c-0.23-0.36-0.62-0.53-0.97-0.74c-1.4-0.86-2.97-1.37-4.46-2.02c-0.36-0.16-0.77-0.25-1.25-0.22
				c0.1,0.65,0.32,1.22,0.62,1.77c0.1,0.19,0.28,0.24,0.48,0.22c0.25-0.03,0.25-0.23,0.29-0.42C34.82,66.24,34.78,65.97,34.56,65.6z
				 M75.94,55.09c0.43-0.08,0.52-0.36,0.72-0.5c0.47-0.31,0.57-0.68,0.31-1.2c-0.22-0.45-0.26-0.97-0.34-1.46
				c-0.11-0.67-0.03-1.25,0.6-1.65c0.46-0.3,0.6-0.67,0.34-1.2c-0.37-0.73-0.22-1.4,0.34-1.99c0.23-0.24,0.32-0.52,0.21-0.84
				c-0.11,0-0.18-0.03-0.23,0c-0.42,0.19-0.64,0.59-1,0.86c-1.13,0.87-1.56,2.2-1.14,3.59c0.15,0.48,0.14,0.85-0.26,1.19
				c-0.55,0.47-0.53,1.05-0.19,1.62C75.61,54.01,75.89,54.48,75.94,55.09z M43.43,52.43c-0.13,0.14-0.23,0.31-0.38,0.42
				c-0.42,0.33-0.32,0.54,0.04,0.88c0.86,0.84,1.88,1.48,2.64,2.44c0.56,0.72,1.25,1.34,1.88,1.99c0.16,0.16,0.34,0.34,0.63,0.14
				c-0.3-0.3-0.6-0.54-0.82-0.83c-0.4-0.52-0.19-1.23,0.46-1.72c0.47-0.35,0.99-0.27,1.42,0.22c0.24,0.27,0.32,0.63,0.5,1.06
				c3.4-3.16,6.57-6.38,9.89-9.63c-0.82-0.16-1.26-0.91-1.15-1.58l0.44-0.71c0.54-0.65,1.1-0.63,1.61,0.05
				c0.12,0.16,0.25,0.53,0.15,0.92c-0.92,0.03-0.26-0.28-0.51-0.54c-0.31-0.36-0.57-0.17-0.76,0.11c-0.13,0.19-0.32,0.39-0.17,0.7
				c0.76,0.52,0.77-0.61,1.1-0.67c0.29,0.09,0.51,0.36,0.18,0.77c1.15-0.84,1.18-1.09,0.28-2.1c-1.32-1.49-2.87-2.75-4.07-4.35
				c-0.12-0.16-0.3-0.27-0.48-0.1L43.43,52.43z M78.26,37.9c0.06-0.04,0.12-0.08,0.19-0.13c-0.47-1.12-0.95-2.24-1.42-3.37
				c-0.15-0.35-0.48-0.5-0.79-0.64c-0.77-0.37-1.54-0.72-2.32-1.07c-0.17-0.08-0.37-0.26-0.59-0.01
				C74.98,34.43,76.62,36.17,78.26,37.9z M75.44,39.21C73.79,37.15,72,35.22,70,33.48c0.39,1.16,0.85,2.28,1.56,3.28
				c0.07,0.1,0.16,0.19,0.26,0.27C72.95,37.87,74.17,38.58,75.44,39.21z M40.01,74.85c0.03-0.05,0.06-0.09,0.1-0.14
				c-0.46-0.5-0.92-1.02-1.39-1.51c-0.5-0.52-0.99-1.06-1.53-1.54c-0.49-0.44-0.84-1.05-1.66-1.39c0.45,1.02,0.82,1.88,1.21,2.73
				c0.12,0.26,0.29,0.51,0.55,0.63C38.19,74.05,39.1,74.45,40.01,74.85z M73.53,34.61c-0.78,0.39-0.9,0.98-0.29,1.46
				c0.38,0.29,0.64,0.2,0.71-0.27c0.05-0.34-0.05-0.74,0.1-1.01c0.26-0.47,0-0.69-0.28-0.94c-0.15-0.13-0.31-0.43-0.52-0.16
				c-0.18,0.23-0.35,0.57,0.1,0.76C73.42,34.49,73.52,34.49,73.53,34.61z M39.06,70.05c-0.24-0.09-0.35-0.55-0.72-0.41
				c-0.34,0.13-0.29,0.51-0.35,0.81c-0.02,0.12,0.01,0.25-0.01,0.37c-0.06,0.33,0.17,0.38,0.39,0.37c0.18-0.01,0.35-0.11,0.53-0.18
				C39.51,70.75,39.55,70.56,39.06,70.05z M77.97,40.73c0.29-0.35,0.33-0.7,0.38-1.04c0.07-0.46-0.17-0.69-0.61-0.68
				c-0.35,0.01-0.46,0.26-0.58,0.52c-0.11,0.25-0.15,0.49,0.1,0.67C77.47,40.38,77.7,40.53,77.97,40.73z M68.36,30.23
				c0.04,0.56,0.31,0.88,0.52,1.22c0.15,0.24,0.33,0.57,0.63,0.48c0.38-0.11,0.22-0.53,0.3-0.82c0.06-0.23-0.15-0.32-0.3-0.42
				C69.18,30.49,68.83,30.36,68.36,30.23z M34.85,68.62c0.15,0.27,0.24,0.46,0.36,0.65c0.05,0.08,0.13,0.14,0.21,0.18
				c0.22,0.11,0.44,0.31,0.7,0.17c0.23-0.13,0.14-0.4,0.15-0.61c0.02-0.57-0.1-0.66-0.67-0.58C35.38,68.47,35.18,68.54,34.85,68.62z
				 M71.5,34.3c0.01,0.01,0.1,0.15,0.23,0.22c0.28,0.15,0.56,0.12,0.73-0.16c0.13-0.21,0.17-0.47,0.01-0.7
				c-0.07-0.11-1.12-0.2-1.26-0.13c-0.13,0.07-0.16,0.21-0.11,0.31C71.18,33.98,71.3,34.08,71.5,34.3z M78.92,39.39
				c-0.21,0.47-0.18,0.97-0.48,1.35c-0.06,0.08-0.02,0.25,0.13,0.3c0.31,0.09,0.53-0.14,0.78-0.25c0.22-0.09,0.11-0.32,0.07-0.5
				C79.34,39.96,79.23,39.64,78.92,39.39z M75.36,36.55c-0.24-0.19-0.93-0.12-1.08,0.09c-0.2,0.27-0.03,0.45,0.18,0.62
				c0.28,0.24,0.58,0.31,0.82,0.02C75.45,37.09,75.54,36.79,75.36,36.55z M41.1,73.8c0.3,0.1,0.55-0.06,0.75-0.25
				c0.21-0.19,0.09-0.65-0.18-0.82c-0.21-0.13-0.42-0.12-0.59,0.07C40.92,73,40.93,73.68,41.1,73.8z M76.82,37.99
				c-0.22-0.19-0.93-0.15-1.08,0.05c-0.19,0.25-0.1,0.47,0.13,0.65c0.18,0.15,0.77,0.07,0.94-0.14
				C76.96,38.36,76.98,38.15,76.82,37.99z M72.69,32.93c-0.47-0.64-0.63-0.73-1.04-0.65c-0.27,0.05-0.36,0.23-0.37,0.46
				c-0.01,0.22,0.14,0.35,0.36,0.33C71.96,33.03,72.31,33.22,72.69,32.93z M37.44,71.17c0.09-0.39,0.14-0.7,0.05-1.05
				c-0.03-0.14-0.08-0.25-0.22-0.24c-0.28,0.01-0.58,0.06-0.73,0.34c-0.15,0.27,0.12,0.38,0.25,0.53
				C36.94,70.9,37.09,71.07,37.44,71.17z M36.93,68.23c-0.25,0.33-0.24,0.64-0.25,0.95c0,0.13,0.01,0.28,0.14,0.31
				c0.22,0.04,0.43-0.04,0.61-0.17c0.17-0.13,0.21-0.31,0.13-0.5C37.44,68.55,37.25,68.35,36.93,68.23z M74.8,35.04
				c-0.51,0.88-0.48,1,0.31,1.09c0.16,0.02,0.33,0.03,0.42-0.12c0.12-0.2-0.02-0.36-0.16-0.48C75.18,35.36,74.99,35.2,74.8,35.04z
				 M72.96,66.64c-1.09,0.23-1.53,1.19-2.15,1.96C71.53,67.95,72.25,67.3,72.96,66.64z M76.85,37.28c0.01-0.33-0.22-0.42-0.37-0.57
				c-0.11-0.12-0.25-0.2-0.41-0.08c-0.14,0.1-0.17,0.27-0.17,0.42c-0.01,0.17,0.08,0.31,0.27,0.32
				C76.38,37.37,76.61,37.43,76.85,37.28z M39.99,71.39c-0.04,0.15-0.11,0.32-0.14,0.5c-0.03,0.17-0.1,0.39,0.15,0.46
				c0.23,0.06,0.43-0.03,0.53-0.26c0.13-0.29,0.07-0.54-0.2-0.73C40.22,71.29,40.12,71.28,39.99,71.39z M70.18,33.01
				c0.17,0.12,0.35,0.35,0.55,0.11c0.19-0.22,0.25-0.53,0-0.75c-0.23-0.2-0.55-0.23-0.75,0.01C69.75,32.64,70.05,32.82,70.18,33.01z
				 M48.26,56.54c-0.08,0.09-0.15,0.16-0.21,0.23c-0.17,0.21-0.16,0.41,0.08,0.54c0.21,0.12,0.34-0.01,0.42-0.21
				c0.03-0.09,0.09-0.17,0.14-0.24c0.11-0.16,0.21-0.33,0.01-0.48C48.49,56.24,48.37,56.44,48.26,56.54z M41.8,74.38
				c-0.3-0.2-0.59,0.02-0.87,0.09c-0.12,0.03-0.1,0.21,0,0.31c0.25,0.24,0.53,0.34,0.84,0.11C41.95,74.76,41.92,74.57,41.8,74.38z
				 M70.35,31.27c-0.08,0.22-0.24,0.41-0.09,0.63c0.11,0.17,0.61,0.11,0.75-0.09c0.1-0.13,0.13-0.3-0.01-0.42
				C70.8,31.24,70.59,31.11,70.35,31.27z M35.42,67.4c-0.14,0.13-0.19,0.32-0.08,0.41c0.23,0.19,0.46,0,0.67-0.11
				c0.16-0.08,0.2-0.28,0.07-0.38C35.85,67.14,35.62,67.3,35.42,67.4z M80.12,42c-0.02-0.25-0.05-0.48-0.24-0.67
				c-0.13-0.13-0.27-0.12-0.4,0c-0.12,0.12-0.18,0.27-0.04,0.39C79.63,41.88,79.82,42.04,80.12,42z M69.35,69.84
				c-0.42,0.31-0.85,0.61-1.27,0.92C68.72,70.76,69.13,70.44,69.35,69.84z M34.42,67.49c-0.04,0.15-0.02,0.31,0.13,0.44
				c0.07,0.06,0.17,0.05,0.22-0.05c0.07-0.15,0.03-0.29-0.08-0.42C34.62,67.39,34.54,67.38,34.42,67.49z M77.93,38.26
				c-0.12-0.04-0.24-0.13-0.33,0.02c-0.05,0.08-0.09,0.16-0.01,0.25c0.14,0.15,0.29,0.08,0.4-0.02
				C78.02,38.48,77.95,38.35,77.93,38.26z"/>
			<g>
				<path d="M57.33,42.56c-0.26-0.27-0.52-0.41-0.77-0.42c-0.26-0.01-0.52,0.12-0.8,0.39c-0.08,0.08-0.18,0.19-0.29,0.33l0.36,0.38
					l0.48-0.46l0.48,0.5l-1.03,1l-1.27-1.3c0.12-0.29,0.39-0.63,0.8-1.03c0.41-0.4,0.85-0.59,1.3-0.58c0.45,0.02,0.89,0.24,1.3,0.66
					c0.41,0.43,0.62,0.86,0.62,1.32c0,0.45-0.2,0.88-0.61,1.28c-0.17,0.16-0.33,0.3-0.5,0.42c-0.17,0.12-0.29,0.2-0.38,0.24
					l-0.13,0.06l-0.37-0.64c0.31-0.16,0.57-0.35,0.8-0.57c0.28-0.27,0.42-0.53,0.41-0.78C57.72,43.09,57.59,42.83,57.33,42.56z"/>
				<path d="M51.75,45.43l0.58-0.64l1.52,0.35l0.32-0.31l-0.87-0.9l0.52-0.58l2.53,2.61c-0.19,0.29-0.48,0.62-0.85,0.98
					c-0.34,0.33-0.66,0.5-0.96,0.52c-0.3,0.02-0.6-0.12-0.89-0.42c-0.39-0.41-0.49-0.82-0.29-1.25L51.75,45.43z M54.06,46.16
					c-0.01,0.12,0.03,0.23,0.14,0.35c0.11,0.11,0.22,0.16,0.34,0.15c0.12-0.01,0.26-0.1,0.43-0.26c0.12-0.12,0.23-0.25,0.35-0.39
					l-0.61-0.63l-0.39,0.38C54.16,45.91,54.07,46.04,54.06,46.16z"/>
				<path d="M53.92,48.4l-0.52,0.58l-2.57-2.65l0.52-0.58L53.92,48.4z"/>
				<path d="M47.13,49.91l0.57-0.63l1.42,1.13l-0.33-1.82l0.05-0.05l1.82,0.38l-1.08-1.46l0.65-0.55l2.22,2.99l-0.03,0.03
					l-2.81-0.56l0.47,2.82l-0.04,0.04L47.13,49.91z"/>
				<path d="M43.5,53.43l0.57-0.63l1.42,1.13l-0.33-1.82l0.05-0.05l1.82,0.38l-1.08-1.46l0.65-0.55l2.22,2.99l-0.03,0.03l-2.8-0.56
					l0.47,2.82l-0.04,0.04L43.5,53.43z"/>
			</g>
			<path d="M55.18,57.35c0.18-0.12,0.35-0.36,0.52-0.58c0.47-0.59,1-1.11,1.68-1.5c0.85-0.49,1.48-1.27,2.22-1.9
				c0.49-0.42,0.53-0.42,0.93,0.1c0.76,0.99,0.76,0.99-0.09,1.89c-0.5,0.52-0.98,1.06-1.43,1.64c-0.78,1.01-1.83,1.72-2.85,2.45
				c-0.25,0.18-0.56,0.4-0.86,0.17c-0.37-0.28-0.8-0.52-1.01-0.96c-0.09-0.19,0.01-0.38,0.13-0.52
				C54.63,57.87,54.89,57.64,55.18,57.35z M55.76,57.83c-0.12,0.09-0.19,0.15-0.27,0.21c-0.22,0.19-0.45,0.38-0.17,0.7
				c0.26,0.28,0.58,0.32,0.81,0.02c0.37-0.49,0.9-0.79,1.34-1.17c1-0.87,1.77-1.95,2.72-2.87c0.24-0.23,0.2-0.45-0.06-0.62
				c-0.25-0.17-0.42,0.04-0.56,0.19C58.33,55.53,56.69,56.34,55.76,57.83z"/>
			<path d="M57.82,31.06c0.25,0.29,0.12,0.59,0.02,0.87c-0.49,1.31-1.2,2.5-2.04,3.6c-0.42,0.56-1.02,0.79-1.68,0.56
				c-0.57-0.19-0.9,0.06-1.23,0.43c-0.1,0.12-0.23,0.24-0.28,0.38c-0.48,1.25-1.46,2.19-2.09,3.36c-0.3,0.56-0.71,1-1.37,1.22
				c-1,0.33-1.53,1.26-2.22,1.97c-0.48,0.49-0.83,1.1-1.25,1.65c-0.94,1.24-2.29,1.96-3.56,2.77c-0.24,0.15-0.48,0.28-0.77,0.45
				c0.48-0.65,1.11-1.04,1.68-1.5c1.03-0.84,1.95-1.76,2.72-2.84c0.67-0.95,1.61-1.67,2.3-2.62c0.19-0.26,0.52-0.36,0.83-0.43
				c0.64-0.15,1.03-0.52,1.28-1.13c0.2-0.49,0.52-0.94,0.85-1.36c0.47-0.6,0.85-1.25,1.17-1.94c0.28-0.61,0.79-0.87,1.31-1.16
				c0.26-0.14,0.49-0.01,0.72,0.07c0.75,0.26,0.8,0.27,1.25-0.35c0.79-1.09,1.63-2.15,2.02-3.48c0.04-0.15,0.11-0.29,0.18-0.43
				C57.67,31.12,57.75,31.1,57.82,31.06z"/>
			<path d="M44.39,48.13c-1.03,1.93-2.64,3.04-3.95,4.42c-0.66,0.7-1.52,1.22-2.15,1.97c-1.42,1.72-3.15,3.16-4.53,4.92
				c-0.23,0.29-0.53,0.54-0.83,0.77c-1.09,0.82-2.33,1.38-3.55,1.97c-1.06,0.51-2.1,0.06-3.13-0.21c-0.12-0.03-0.23-0.13-0.19-0.29
				c0.05-0.19,0.19-0.21,0.36-0.18c0.5,0.08,1,0.11,1.5,0.22c0.52,0.11,1.01,0.02,1.46-0.22c1.87-0.99,3.6-2.1,5.06-3.73
				c1.42-1.59,2.84-3.22,4.47-4.61c0.98-0.83,1.9-1.74,2.93-2.52C42.73,49.95,43.46,49.05,44.39,48.13z"/>
			<path d="M57.1,35.5c1.28-1.21,2.52-2.47,3.75-3.72c1.68-1.71,3.49-3.37,4.24-5.81c0.31-0.99,0.42-1.89-0.15-2.79
				c-0.07-0.11-0.14-0.23-0.04-0.34c0.12-0.14,0.27-0.09,0.43-0.02c0.34,0.15,0.54,0.42,0.67,0.76c0.32,0.84,0.27,1.67-0.08,2.48
				c-0.67,1.51-1.51,2.91-2.65,4.1c-1.13,1.18-2.4,2.24-3.56,3.39C58.92,34.31,58.09,35,57.1,35.5z"/>
			<path d="M28.82,65.16c2.09,0.48,2.09,0.48,3.4,0.15c-0.18,0.52-0.57,0.68-1.01,0.7C30.35,66.04,29.55,65.84,28.82,65.16z"/>
			<path d="M68.68,28.22c0.45-0.74,0.25-1.61,0.46-2.49c0.33,0.58,0.39,2.11,0.17,2.48C69.24,28.33,69.24,28.33,68.68,28.22z"/>
		</g>
	</g>
	<g>
	</g>
	<g>
	</g>
	<g>
	</g>
	<g>
	</g>
	<g>
	</g>
	<g>
	</g>
	<g>
	</g>
	<g>
	</g>
	<g>
	</g>
	<g>
	</g>
	<g>
	</g>
	<g>
	</g>
	<g>
	</g>
	<g>
	</g>
	<g>
	</g>
</g>
</svg>
