<?xml version="1.0" encoding="utf-8"?>
<!-- Generator: Adobe Illustrator 26.2.1, SVG Export Plug-In . SVG Version: 6.00 Build 0)  -->
<svg version="1.1" xmlns="http://www.w3.org/2000/svg" xmlns:xlink="http://www.w3.org/1999/xlink" x="0px" y="0px"
	 viewBox="0 0 60 100" enable-background="new 0 0 60 100" xml:space="preserve">
<g id="Layer_1">
</g>
<g id="BG">
	<rect id="BG_00000082354266892434819460000014407544633745974707_" x="0.02" y="0" fill="#F0EDDA" width="60" height="100"/>
	<rect id="BG_00000037693340041972082810000009059657678697518014_" x="0.02" fill="#F0EDDA" width="60" height="100"/>
</g>
<g id="THINGS">
	<path d="M0.02,0v1.6v96.8v1.6h60v-1.6V1.6V0H0.02z M59.02,98.4h-58V1.6h58V98.4z"/>
	<g>
		<g id="_x39__00000108273919410854049060000012387922654005657222_">
			<g>
				<rect x="0.51" y="0.5" fill="#00A0E3" width="59.02" height="27.6"/>
				<path fill="#222317" d="M59.02,1v26.6H1.01V1H59.02 M60.02,0H0.01v28.6h60.01V0L60.02,0z"/>
			</g>
			<g>
				<rect x="0.51" y="0.5" fill="#00A0E3" width="59.02" height="27.6"/>
				<path fill="#222317" d="M59.02,1v26.6H1.01V1H59.02 M60.02,0H0.01v28.6h60.01V0L60.02,0z"/>
			</g>
			<g>
				<rect x="0.51" y="0.5" fill="#00A0E3" width="59.02" height="27.6"/>
				<path fill="#222317" d="M59.02,1v26.6H1.01V1H59.02 M60.02,0H0.01v28.6h60.01V0L60.02,0z"/>
			</g>
			<g>
				<g>
					<path fill="#231F20" d="M18.95,38.89c-0.29,0-0.58-0.01-0.88-0.04c-0.29-0.02-0.52-0.05-0.66-0.08l-0.22-0.03v-5.47
						c0.52-0.1,1.11-0.15,1.76-0.15c0.94,0,1.65,0.25,2.11,0.74c0.46,0.5,0.69,1.21,0.69,2.14c0,0.93-0.23,1.64-0.69,2.14
						C20.6,38.64,19.9,38.89,18.95,38.89z M18.94,33.99c-0.29,0-0.6,0.02-0.96,0.07v3.9c0.31,0.04,0.63,0.06,0.96,0.06
						c1.34,0,2.01-0.67,2.01-2.02C20.95,34.66,20.28,33.99,18.94,33.99z"/>
					<path fill="#231F20" d="M26.9,38.81l-0.88,0.08l-1.29-2.21h-0.94v2.13l-0.8,0.08v-5.62c0.44-0.1,0.99-0.15,1.65-0.15
						c0.68,0,1.18,0.15,1.49,0.44c0.31,0.29,0.46,0.74,0.46,1.34c0,0.87-0.34,1.42-1.02,1.63L26.9,38.81z M25.8,34.91
						c0-0.3-0.08-0.52-0.25-0.68c-0.17-0.16-0.46-0.24-0.89-0.24c-0.22,0-0.51,0.02-0.88,0.06v1.77h0.98
						C25.46,35.82,25.8,35.52,25.8,34.91z"/>
					<path fill="#231F20" d="M31.47,37.95l-0.16,0.86h-3.44v-5.6h3.44l0.16,0.86h-2.8v1.42h2.29v0.86h-2.29v1.6H31.47z"/>
					<path fill="#231F20" d="M33.07,38.89l-0.84-0.08l2.49-5.68h0.12l2.56,5.68l-0.77,0.08l-0.58-1.29h-2.42L33.07,38.89z
						 M34.82,34.87l-0.88,2.02h1.79L34.82,34.87z"/>
					<path fill="#231F20" d="M40.06,38.89c-0.29,0-0.58-0.01-0.88-0.04c-0.29-0.02-0.52-0.05-0.66-0.08l-0.22-0.03v-5.47
						c0.52-0.1,1.11-0.15,1.76-0.15c0.94,0,1.65,0.25,2.11,0.74c0.46,0.5,0.69,1.21,0.69,2.14c0,0.93-0.23,1.64-0.69,2.14
						C41.7,38.64,41,38.89,40.06,38.89z M40.05,33.99c-0.29,0-0.6,0.02-0.96,0.07v3.9c0.32,0.04,0.63,0.06,0.96,0.06
						c1.34,0,2.01-0.67,2.01-2.02C42.06,34.66,41.39,33.99,40.05,33.99z"/>
					<path fill="#231F20" d="M20.63,46.27c-0.29,0-0.58-0.01-0.88-0.04c-0.29-0.02-0.52-0.05-0.66-0.08l-0.22-0.03v-5.47
						c0.52-0.1,1.11-0.15,1.76-0.15c0.94,0,1.65,0.25,2.11,0.74c0.46,0.5,0.69,1.21,0.69,2.14c0,0.93-0.23,1.64-0.69,2.14
						C22.27,46.02,21.57,46.27,20.63,46.27z M20.62,41.37c-0.29,0-0.6,0.02-0.96,0.07v3.9c0.31,0.04,0.63,0.06,0.96,0.06
						c1.34,0,2.01-0.67,2.01-2.02C22.63,42.04,21.96,41.37,20.62,41.37z"/>
					<path fill="#231F20" d="M28.58,46.19l-0.88,0.08l-1.29-2.21h-0.94v2.13l-0.8,0.08v-5.62c0.44-0.1,0.99-0.15,1.65-0.15
						c0.68,0,1.18,0.15,1.49,0.44c0.31,0.29,0.46,0.74,0.46,1.34c0,0.87-0.34,1.42-1.02,1.63L28.58,46.19z M27.48,42.28
						c0-0.3-0.08-0.52-0.25-0.68c-0.17-0.16-0.46-0.24-0.89-0.24c-0.22,0-0.51,0.02-0.88,0.06v1.77h0.98
						C27.13,43.2,27.48,42.89,27.48,42.28z"/>
					<path fill="#231F20" d="M29.57,40.59l0.8-0.08v5.68l-0.8,0.08V40.59z"/>
					<path fill="#231F20" d="M31.28,40.59l0.84-0.08l1.82,4.03l1.83-4.03l0.83,0.08l-2.63,5.68H33.9L31.28,40.59z"/>
					<path fill="#231F20" d="M41.11,45.33l-0.16,0.86h-3.44v-5.6h3.44l0.16,0.86h-2.8v1.42h2.29v0.86h-2.29v1.6H41.11z"/>
				</g>
			</g>
			<g>
				<g>
					<path fill="#231F20" d="M16.02,89.45c0,0.38-0.11,0.66-0.33,0.85c-0.22,0.19-0.56,0.28-1.03,0.28h-0.61v1.35l-0.56,0.05v-3.57
						c0.31-0.06,0.7-0.09,1.16-0.09c0.48,0,0.83,0.09,1.04,0.28C15.91,88.79,16.02,89.07,16.02,89.45z M15.29,89.89
						c0.12-0.1,0.18-0.25,0.18-0.43c0-0.19-0.06-0.33-0.18-0.43c-0.12-0.1-0.32-0.15-0.62-0.15c-0.15,0-0.36,0.01-0.61,0.04v1.13
						h0.61C14.96,90.04,15.17,89.99,15.29,89.89z"/>
					<path fill="#231F20" d="M19.51,91.94l-0.62,0.05l-0.9-1.4h-0.66v1.35l-0.56,0.05v-3.57c0.31-0.06,0.7-0.09,1.16-0.09
						c0.48,0,0.83,0.09,1.04,0.28c0.22,0.19,0.33,0.47,0.33,0.85c0,0.56-0.24,0.9-0.71,1.04L19.51,91.94z M18.74,89.45
						c0-0.19-0.06-0.33-0.18-0.43c-0.12-0.1-0.32-0.15-0.62-0.15c-0.15,0-0.36,0.01-0.61,0.04v1.13h0.69
						C18.5,90.04,18.74,89.84,18.74,89.45z"/>
					<path fill="#231F20" d="M20.25,88.37l0.56-0.05v3.62l-0.56,0.05V88.37z"/>
					<path fill="#231F20" d="M22.18,91.51c-0.3-0.32-0.45-0.77-0.45-1.35c0-0.58,0.15-1.03,0.45-1.35s0.73-0.48,1.3-0.48
						c0.2,0,0.39,0.02,0.58,0.04c0.19,0.03,0.32,0.06,0.41,0.09l0.13,0.04l-0.13,0.52c-0.32-0.1-0.63-0.14-0.92-0.14
						c-0.43,0-0.75,0.11-0.95,0.33c-0.2,0.22-0.3,0.54-0.3,0.96c0,0.42,0.1,0.74,0.3,0.96c0.2,0.22,0.52,0.33,0.95,0.33
						c0.14,0,0.29-0.01,0.45-0.04c0.16-0.02,0.29-0.05,0.37-0.07l0.13-0.04l0.13,0.52c-0.29,0.12-0.68,0.18-1.16,0.18
						C22.92,91.99,22.48,91.83,22.18,91.51z"/>
					<path fill="#231F20" d="M27.92,91.39l-0.11,0.55H25.4v-3.56h2.41l0.11,0.55h-1.96v0.9h1.61v0.55h-1.61v1.02H27.92z"/>
					<path fill="#231F20" d="M30.74,91.61l0.28-0.73c0.32,0.19,0.75,0.31,1.3,0.35v-1.43c-0.23-0.07-0.42-0.14-0.57-0.2
						s-0.31-0.16-0.47-0.27s-0.29-0.25-0.37-0.41c-0.08-0.16-0.13-0.35-0.13-0.56c0-0.45,0.14-0.81,0.42-1.08s0.65-0.43,1.12-0.49
						v-0.66l0.6-0.07v0.72c0.2,0.01,0.39,0.05,0.59,0.09c0.2,0.05,0.35,0.09,0.44,0.13l0.15,0.06l-0.25,0.73
						c-0.26-0.12-0.57-0.19-0.93-0.23v1.49c0.23,0.07,0.42,0.14,0.57,0.21s0.31,0.15,0.48,0.26c0.16,0.11,0.29,0.24,0.37,0.39
						c0.08,0.16,0.13,0.33,0.13,0.53c0,0.94-0.52,1.45-1.54,1.54v0.65l-0.6,0.07V92c-0.25-0.02-0.5-0.06-0.77-0.12
						c-0.26-0.06-0.47-0.12-0.6-0.18L30.74,91.61z M31.59,88.25c0,0.14,0.06,0.25,0.19,0.35s0.31,0.19,0.55,0.27v-1.29
						C31.84,87.65,31.59,87.87,31.59,88.25z M33.67,90.56c0-0.13-0.06-0.24-0.19-0.33c-0.13-0.09-0.31-0.17-0.55-0.25v1.24
						C33.42,91.14,33.67,90.92,33.67,90.56z"/>
					<path fill="#231F20" d="M37.11,86.85v5.09l-0.77,0.07v-4.23l-1.09,0.26l-0.12-0.76l1.9-0.43H37.11z"/>
					<path fill="#231F20" d="M41.51,91.18l-0.07,0.76h-3.23v-0.07c0.96-1.07,1.59-1.78,1.87-2.13c0.23-0.29,0.4-0.54,0.49-0.75
						c0.1-0.2,0.15-0.41,0.15-0.61c0-0.26-0.08-0.47-0.25-0.62c-0.16-0.15-0.38-0.23-0.66-0.23c-0.2,0-0.38,0.03-0.56,0.09
						c-0.18,0.06-0.3,0.12-0.38,0.19l-0.12,0.1l-0.3-0.66c0.04-0.04,0.1-0.08,0.17-0.13s0.24-0.12,0.48-0.21
						c0.25-0.09,0.5-0.13,0.77-0.13c0.47,0,0.85,0.13,1.16,0.39c0.3,0.26,0.46,0.62,0.46,1.08c0,0.51-0.21,1.03-0.62,1.57
						l-1.11,1.37H41.51z"/>
					<path fill="#231F20" d="M42.97,91.25c-0.37-0.51-0.55-1.13-0.55-1.86c0-0.73,0.18-1.35,0.55-1.86c0.37-0.5,0.86-0.76,1.48-0.76
						c0.62,0,1.11,0.25,1.48,0.76c0.37,0.5,0.55,1.12,0.55,1.86c0,0.74-0.18,1.36-0.55,1.87c-0.37,0.51-0.86,0.76-1.48,0.76
						C43.83,92.01,43.34,91.76,42.97,91.25z M45.71,89.38c0-0.54-0.11-0.99-0.33-1.33s-0.53-0.52-0.93-0.52s-0.71,0.17-0.93,0.52
						c-0.22,0.35-0.33,0.79-0.33,1.33c0,0.55,0.11,0.99,0.33,1.34c0.22,0.35,0.53,0.52,0.93,0.52s0.71-0.17,0.93-0.52
						C45.6,90.38,45.71,89.93,45.71,89.38z"/>
				</g>
			</g>
		</g>
	</g>
	<path d="M0.02,0v1.6v96.8v1.6h60v-1.6V1.6V0H0.02z M59.02,98.4h-58V1.6h58V98.4z"/>
	<g>
	</g>
	<g>
	</g>
	<g>
	</g>
	<g>
	</g>
	<g>
	</g>
	<g>
	</g>
	<g>
	</g>
	<g>
	</g>
	<g>
	</g>
	<g>
	</g>
	<g>
	</g>
	<g>
	</g>
	<g>
	</g>
	<g>
	</g>
	<g>
	</g>
	<g>
	</g>
	<g>
	</g>
</g>
</svg>
