<?xml version="1.0" encoding="utf-8"?>
<!-- Generator: Adobe Illustrator 26.2.1, SVG Export Plug-In . SVG Version: 6.00 Build 0)  -->
<svg version="1.1" xmlns="http://www.w3.org/2000/svg" xmlns:xlink="http://www.w3.org/1999/xlink" x="0px" y="0px"
	 viewBox="0 0 60 100" enable-background="new 0 0 60 100" xml:space="preserve">
<g id="Layer_1">
</g>
<g id="BG">
	<rect id="BG_00000082354266892434819460000014407544633745974707_" x="0.02" y="0" fill="#F0EDDA" width="60" height="100"/>
	<rect id="BG_00000037693340041972082810000009059657678697518014_" x="0.02" fill="#F0EDDA" width="60" height="100"/>
</g>
<g id="THINGS">
	<path d="M0.02,0v1.6v96.8v1.6h60v-1.6V1.6V0H0.02z M59.02,98.4h-58V1.6h58V98.4z"/>
	<g>
		<g id="_x37__00000109026641213265705010000002514592272779879592_">
			<g>
				<g>
					<path fill="#231F20" d="M15.22,10.14c-0.43-0.51-0.64-1.21-0.64-2.12c0-0.91,0.21-1.62,0.64-2.12
						c0.43-0.51,1.04-0.76,1.85-0.76c0.29,0,0.56,0.02,0.83,0.07s0.46,0.09,0.58,0.14l0.19,0.06l-0.19,0.81
						C18.02,6.08,17.58,6,17.17,6c-0.62,0-1.07,0.17-1.36,0.51c-0.29,0.34-0.43,0.84-0.43,1.51c0,0.67,0.14,1.17,0.43,1.51
						c0.29,0.34,0.74,0.51,1.36,0.51c0.2,0,0.42-0.02,0.65-0.06c0.23-0.04,0.41-0.08,0.53-0.11l0.19-0.06l0.19,0.81
						c-0.42,0.18-0.97,0.28-1.66,0.28C16.27,10.9,15.65,10.65,15.22,10.14z"/>
					<path fill="#231F20" d="M22.9,5.22l0.8-0.08v5.68l-0.8,0.08V8.33h-2.33v2.49l-0.8,0.08V5.22l0.8-0.08v2.33h2.33V5.22z"/>
					<path fill="#231F20" d="M25.44,10.9l-0.84-0.08l2.49-5.68h0.12l2.56,5.68L29,10.9l-0.58-1.29H26L25.44,10.9z M27.18,6.88
						L26.31,8.9h1.79L27.18,6.88z"/>
					<path fill="#231F20" d="M34.95,10.9l-3.5-3.85v3.77l-0.8,0.08V5.14h0.05l3.52,3.84V5.22l0.79-0.08v5.76H34.95z"/>
					<path fill="#231F20" d="M36.91,10.14c-0.43-0.51-0.64-1.21-0.64-2.12c0-0.91,0.21-1.62,0.64-2.12s1.04-0.76,1.85-0.76
						c0.29,0,0.56,0.02,0.83,0.07s0.46,0.09,0.58,0.14l0.19,0.06l-0.19,0.81C39.71,6.08,39.27,6,38.86,6
						c-0.62,0-1.07,0.17-1.36,0.51c-0.29,0.34-0.43,0.84-0.43,1.51c0,0.67,0.14,1.17,0.43,1.51c0.29,0.34,0.74,0.51,1.36,0.51
						c0.2,0,0.42-0.02,0.65-0.06c0.23-0.04,0.41-0.08,0.54-0.11l0.19-0.06l0.19,0.81c-0.42,0.18-0.97,0.28-1.66,0.28
						C37.95,10.9,37.34,10.65,36.91,10.14z"/>
					<path fill="#231F20" d="M45.04,9.96l-0.16,0.86h-3.44v-5.6h3.44l0.16,0.86h-2.8V7.5h2.29v0.86h-2.29v1.6H45.04z"/>
				</g>
			</g>
			<g>
				<g>
					<path fill="#9A1C1F" d="M40.42,22.32c-5.57-5.98-14.84-7.2-20.56-1.26c-5.55,4.96-6.39,14.81,0.08,19.36
						c2.61,1.97,6.21,3.3,9.34,1.86c-4.15-1.66-5.56-6.85-3.86-10.81c0.02-0.28,0.17-0.56,0.29-0.81c0.2-0.41,0.46-0.78,0.75-1.13
						c0.97-1.17,2.4-1.89,3.82-2.37c0.6-0.21,1.28-0.43,1.93-0.36c0.43,0.04,0.8,0.13,1.19,0.31c0.22,0.1,0.37,0.25,0.48,0.44
						c0.02,0.01,0.03,0.02,0.05,0.03c0.06,0.04,0.11,0.09,0.17,0.13c0,0,0,0,0,0c0.01,0.01,0.01,0.01,0.02,0.02
						c0.41,0.32,0.79,0.67,1.16,1.03c0.48-0.11,1.03,0.12,1.27,0.55c0.12,0.21,0.22,0.43,0.32,0.65c0.01,0.02,0.01,0.03,0.02,0.05
						c0.31,0.68,0.57,1.38,0.75,2.1c0.18,0.52,0.29,1.08,0.31,1.67c0.89,6.79-5.42,11.22-10.04,14.9c-0.9,0.73-1.86,1.48-2.77,2.27
						c-0.29,0.31-0.58,0.62-0.86,0.93c-0.54,0.61-1.06,1.24-1.56,1.88c-0.16,0.29-0.32,0.59-0.47,0.89
						c-0.08,0.16-0.15,0.32-0.23,0.48c-0.03,0.07-0.06,0.14-0.09,0.21c-0.01,0.03-0.06,0.15-0.08,0.18
						c-0.01,0.02-0.02,0.04-0.02,0.04c-0.01,0.03-0.03,0.07-0.04,0.11c-0.03,0.08-0.06,0.16-0.1,0.25c-0.06,0.15-0.12,0.3-0.18,0.46
						c-0.23,0.63-0.43,1.28-0.57,1.94c-0.07,0.33-0.13,0.66-0.18,0.99c0,0.04-0.01,0.07-0.01,0.11c-0.01,0.09-0.02,0.18-0.03,0.26
						c-0.02,0.16-0.03,0.33-0.04,0.49c-0.02,0.43-0.02,0.85,0,1.28c0.75,3.12,3.26,5.68,6.31,6.37c0.1-0.01,0.21-0.01,0.31-0.02
						c0.1-0.01,0.23,0,0.33-0.04l-0.15,0.02c0.04-0.01,0.08-0.01,0.12-0.02c0.04-0.01,0.08-0.01,0.12-0.02
						c0.86-0.13,1.71-0.39,2.58-0.5c0.19-0.03,0.37,0,0.55,0.05c0.02-0.01,0.05-0.01,0.07-0.02c0.49-0.15,0.99-0.26,1.49-0.38
						c0.19-0.12,0.39-0.24,0.58-0.36c0.34-0.22,0.67-0.44,1-0.66c0.18-0.12,0.36-0.24,0.54-0.37c0.08-0.06,0.16-0.11,0.24-0.17
						c0.11-0.09,0.05-0.04,0.16-0.12c0.3-0.24,0.6-0.5,0.87-0.78c0.15-0.16,0.29-0.32,0.43-0.49c0.02-0.02,0.03-0.04,0.05-0.06
						c0.01-0.01,0.04-0.06,0.05-0.07c0.05-0.07,0.11-0.15,0.16-0.22c0.55-0.81,0.77-1.47,1.01-2.43c-0.33,0.11-0.68,0.17-1.01,0.17
						c-0.27,0-0.54-0.03-0.81-0.1c-0.74,0.07-1.54-0.08-2.23-0.35c-0.36-0.14-0.6-0.25-0.89-0.5c-0.11-0.1-0.22-0.2-0.33-0.31
						c-0.24-0.26-0.49-0.54-0.66-0.86c-0.06-0.11-0.08-0.21-0.1-0.32c-2-3.99,6.71-11.69,9-15.02c0.49-0.63,0.87-1.59,1.32-2.33
						C45.71,35.03,45.56,27.84,40.42,22.32z"/>
					<path d="M28.93,16.87c12.57-0.46,20.76,12.24,13.62,24.25c-4.02,6.76-9.82,11.41-10.78,15.37c-0.99,3.49,4.5,5.81,6.49,3.49
						c-0.43,4.2-4.18,6.5-6.78,7.45c-6.17,2.27-12.81-2.76-10.84-9.74c1.11-3.93,2.92-5.98,7.1-9.23
						c4.4-3.43,13.93-11.13,8.06-19.05c-9.29-7.45-15.63,8.26-6.52,12.87c-4.19,2.01-9.71-1.14-12.11-4.78
						C11.65,28.86,19.37,17.57,28.93,16.87z M37.05,61.72c-4.86,2.75-11.01-1.62-9.31-7.22c0.85-2.47,2.39-5.16,4.71-6.5
						c0.03,0.04,0.07,0.08,0.1,0.12c-1.24,1.61-2.67,3.09-3.48,5.02c0.79,0.48,1.57,0.95,2.38,1.44c0.09-0.15,0.18-0.3,0.26-0.43
						c-0.47-0.51-2.33-1.06-1.95-1.79c0.81,0.31,1.36,1.08,2.23,1.35c0.19-0.24,0.35-0.44,0.51-0.65c-0.62-0.45-1.21-0.82-1.75-1.45
						c0.8-0.07,1.4,0.61,1.9,1.18c4.02-4.49,12.1-13.76,11.52-20.87c-0.05-8.07-8.64-15.97-17.14-13.67
						C13.7,20.92,12.6,40.53,27.07,41.91c-3.91-4.39-4.31-11.99,0.09-16.31c3.88-4.55,13.19-3.58,13.69,3.15
						c-0.05,0.02-0.1,0.04-0.15,0.05c-0.69-1.85-1.59-3.53-3.44-4.47c-0.68,1.31-0.93,2.07-0.9,2.7c0.42-0.66,0.84-1.31,1.25-1.96
						c0.05,0.03,0.11,0.06,0.16,0.1c-0.33,1.01-0.79,1.96-1.42,2.81c-0.44-0.3-0.8-0.53-1.1-0.74c0.11-1.2,0.22-2.39,0.34-3.63
						c-0.28-0.03-0.47-0.05-0.68-0.08c-0.05,1.26,0.28,2.29-0.66,3.36c0.12-1.24,0.32-2.33,0.05-3.4c-0.18,0.01-0.32,0.02-0.5,0.04
						c0.03,1.07,0.12,2.11-0.25,3.14c1.22,0.48,2.09,1.36,3.01,2.24c0.47-1,0.74-1.99,1.36-2.81c-0.11,1.12-0.65,2.11-0.99,3.19
						c0.33,0.48,0.66,0.97,1.05,1.54c0.61-0.93,0.93-1.92,1.73-2.58c-0.44,1.1-0.78,2.23-1.55,3.17
						c3.42,12.27-14.28,17.45-16.86,26.12C19.11,68.34,32.76,70.39,37.05,61.72z M28.43,54.43c0.92,0.27,1.56,0.96,2.49,1.16
						c0.1-0.24,0.19-0.44,0.28-0.66c-0.8-0.48-1.57-0.95-2.38-1.44C28.7,53.8,28.59,54.07,28.43,54.43z M33.27,26.55
						c0.1-1.04,0.21-2-0.08-3.02c-0.76,0.08-1.48,0.12-2.13,0.54c0.15,0.38,0.29,0.73,0.44,1.11c0.24-0.4-0.24-0.84,0.17-1.21
						c0.71,0.63,0.35,1.57,0.71,2.29c0.55-0.79-0.64-1.94,0.19-2.53c0.31,0.64,0.34,1.3,0.43,1.97
						C33.09,25.96,32.71,26.34,33.27,26.55z M28.2,55.68c0.83,0.35,1.6,0.68,2.43,1.03c0.06-0.28,0.09-0.45,0.13-0.65
						c-0.88-0.25-1.54-0.91-2.46-1.09C28.27,55.2,28.24,55.4,28.2,55.68z M28.16,56.7c0.92,0.19,1.55,0.94,2.44,0.63
						c-0.05-0.09-0.06-0.18-0.1-0.2c-0.76-0.21-1.56-0.81-2.32-0.79C28.17,56.47,28.17,56.62,28.16,56.7z M30.49,58.45
						c0.04-0.05,0.09-0.1,0.13-0.15c-0.5-0.62-1.66-0.84-2.43-0.96c0.05,0.2,0.1,0.38,0.12,0.47C29.11,58.04,29.8,58.25,30.49,58.45
						z M35.94,25.85c0.05,0,0.09,0.01,0.14,0.01c0.3-0.56,0.61-1.13,0.93-1.74c-0.36-0.14-0.66-0.25-1.01-0.38
						C35.98,24.52,35.96,25.19,35.94,25.85z M30.83,26.13c0.27-0.46-0.01-2.35-0.63-1.69C30.42,25.02,30.62,25.57,30.83,26.13z
						 M29.47,26.28c0.04-0.44,0.03-0.86-0.37-1.15C29.22,25.52,29.35,25.9,29.47,26.28z M27.58,26.36
						c-0.01,0.44-0.01,0.44,0.26,0.68C27.81,26.63,27.81,26.63,27.58,26.36z"/>
					<path d="M33.05,64.74c-0.96,0.74-2.04,1.27-3.24,1.51c-1.5,0.3-3,0.4-4.47-0.23c-1.94-0.83-3.39-3.26-3.13-5.36
						c0.03-0.22,0.1-0.43,0.16-0.65C22.41,60,22.46,60,22.5,60c0.03,0.15,0.08,0.31,0.09,0.46c0.06,1.02,0.28,2,0.78,2.9
						c0.92,1.66,2.34,2.48,4.22,2.47c0.69,0,1.38-0.1,2.06-0.19c0.86-0.11,1.6-0.54,2.37-0.9c0.21-0.1,0.41-0.22,0.62-0.3
						C32.85,64.38,33.01,64.45,33.05,64.74z"/>
					<path d="M21.29,25.62c-0.23,0.45-0.44,0.91-0.69,1.35c-2.01,3.47-1.52,7.23,0.74,10.27c0.3,0.4,0.75,0.69,1.13,1.02
						c0.16,0.13,0.36,0.21,0.49,0.36c0.08,0.09,0.08,0.26,0.12,0.39c-0.16,0.03-0.36,0.13-0.46,0.06c-0.47-0.3-0.98-0.59-1.36-0.99
						c-0.49-0.51-0.94-1.09-1.28-1.71c-0.57-1.03-0.98-2.14-1.21-3.3c-0.37-1.87-0.05-3.68,0.64-5.41c0.34-0.87,1.02-1.56,1.73-2.18
						C21.2,25.54,21.24,25.58,21.29,25.62z"/>
					<path d="M32.99,21.74c-0.58-0.19-1.15-0.39-1.73-0.56c-0.8-0.23-1.61-0.22-2.42-0.03c-0.15,0.04-0.3,0.1-0.44,0.08
						c-0.1-0.01-0.25-0.11-0.28-0.2c-0.03-0.09,0.05-0.26,0.13-0.31c0.14-0.1,0.32-0.16,0.49-0.19c1.47-0.3,2.84-0.07,4.08,0.8
						c0.11,0.08,0.18,0.22,0.27,0.33C33.06,21.68,33.02,21.71,32.99,21.74z"/>
					<path d="M39.14,26.53c-0.42,1.13-0.84,2.15-1.7,3.16c-0.08-0.3-0.2-0.48-0.15-0.57c0.51-0.84,1.05-1.67,1.59-2.49
						C38.91,26.59,38.97,26.59,39.14,26.53z"/>
					<path d="M31.75,50.51c0.53,0.28,0.96,0.49,1.36,0.73c0.07,0.04,0.14,0.2,0.11,0.29c-0.02,0.08-0.16,0.17-0.24,0.18
						C32.62,51.72,31.93,51.1,31.75,50.51z"/>
					<path d="M27.14,52.75c0.01,0.14,0.04,0.23,0.01,0.27c-0.28,0.35-0.58,0.7-0.87,1.04c-0.12,0.14-0.27,0.29-0.46,0.11
						c-0.18-0.18-0.03-0.32,0.1-0.46C26.33,53.24,26.65,52.98,27.14,52.75z"/>
					<path d="M38.71,32.2c0.43-0.59,0.8-1.1,1.23-1.7c0.05,0.63-0.39,1.6-0.77,1.79C39.08,32.33,38.92,32.24,38.71,32.2z"/>
					<path d="M23.02,23.43c-0.21,0.3-0.37,0.58-0.58,0.81c-0.08,0.09-0.3,0.04-0.45,0.06c0-0.15-0.07-0.37,0-0.45
						C22.24,23.59,22.49,23.27,23.02,23.43z"/>
					<path d="M33.22,50.09c0.27,0.2,0.53,0.41,0.84,0.64C33.51,50.96,33.28,50.8,33.22,50.09z"/>
					<path d="M40.12,32.88c-0.21,0.35-0.27,0.74-0.76,0.64C39.47,32.9,39.53,32.84,40.12,32.88z"/>
					<path d="M23.09,58.41c0.12,0.2,0.22,0.41-0.02,0.57c-0.07,0.04-0.34-0.06-0.36-0.14C22.65,58.58,22.78,58.42,23.09,58.41z"/>
					<path d="M24.38,22.52c-0.15,0.12-0.29,0.25-0.44,0.37c-0.07-0.09-0.22-0.2-0.2-0.27c0.06-0.28,0.29-0.29,0.5-0.28
						C24.28,22.4,24.33,22.46,24.38,22.52z"/>
					<path d="M25.99,21.24c0.1,0.13,0.23,0.24,0.21,0.31c-0.03,0.12-0.16,0.21-0.25,0.31c-0.09-0.09-0.27-0.19-0.26-0.28
						C25.7,21.47,25.86,21.38,25.99,21.24z"/>
					<path d="M40.24,35.98c-0.13,0.11-0.22,0.23-0.31,0.23c-0.1,0-0.19-0.12-0.29-0.18c0.09-0.1,0.17-0.23,0.28-0.29
						C39.96,35.72,40.09,35.87,40.24,35.98z"/>
					<path d="M24.73,54.93c0.12,0.17,0.23,0.26,0.25,0.36c0.01,0.08-0.09,0.17-0.15,0.26c-0.1-0.07-0.25-0.13-0.28-0.22
						C24.53,55.24,24.64,55.12,24.73,54.93z"/>
					<path d="M39.38,34.59c0.11-0.12,0.18-0.25,0.26-0.26c0.09-0.01,0.19,0.09,0.29,0.15c-0.07,0.11-0.14,0.24-0.23,0.32
						C39.68,34.81,39.53,34.69,39.38,34.59z"/>
					<path d="M24.2,56.88c-0.3,0.18-0.4,0.24-0.5,0.3c-0.05-0.09-0.15-0.18-0.14-0.26c0.01-0.08,0.13-0.18,0.22-0.19
						C23.87,56.72,23.98,56.8,24.2,56.88z"/>
				</g>
				<g>
					<path fill="#9A1C1F" d="M34.49,77.23c-0.08-0.57-0.19-1.23-0.51-1.8c-1.59-2.76-4.36-3.28-7.18-2.58
						c-0.95,0.24-1.66,0.84-2.29,1.57c-1.13,1.32-1.72,2.76-1.09,4.49c0.15,0.4,0.11,0.73-0.11,1.09c-0.2,0.32-0.4,0.67-0.48,1.04
						c-0.2,0.9-0.21,1.77,0.54,2.48c0.19,0.18,0.35,0.45,0.4,0.7c0.1,0.5,0.21,1.02,0.14,1.51c-0.14,1,0.29,1.67,1.06,2.19
						c0.13,0.09,0.26,0.17,0.39,0.25c0.91,0.58,1.61,1.32,1.95,2.38c0.18,0.57,0.4,0.69,0.98,0.63c0.69-0.07,1.37-0.17,2.05-0.24
						c0.52-0.06,0.86-0.35,1.01-0.82c0.34-1.13,1.01-1.99,1.93-2.69c0.41-0.31,0.64-0.72,0.6-1.25c-0.04-0.66-0.04-1.33-0.09-1.99
						c-0.02-0.31,0.05-0.55,0.33-0.71c0.53-0.3,0.7-0.82,0.67-1.37c-0.03-0.58-0.12-1.17-0.29-1.72c-0.19-0.61-0.25-1.18-0.06-1.8
						C34.56,78.19,34.5,77.72,34.49,77.23z"/>
					<path d="M34.78,82.12c-0.03-0.58-0.12-1.17-0.29-1.72c-0.19-0.61-0.25-1.18-0.06-1.8c0.4-1.44-0.13-2.6-0.45-3.16
						c-1.59-2.76-4.36-3.28-7.18-2.58c-0.95,0.24-1.66,0.84-2.29,1.57c-1.13,1.32-1.72,2.76-1.09,4.49c0.15,0.4,0.11,0.73-0.11,1.09
						c-0.2,0.32-0.4,0.67-0.48,1.04c-0.2,0.9-0.21,1.77,0.54,2.48c0.19,0.18,0.35,0.45,0.4,0.7c0.1,0.5,0.21,1.02,0.14,1.51
						c-0.14,1,0.29,1.67,1.06,2.19c0.13,0.09,0.26,0.17,0.39,0.25c0.91,0.58,1.61,1.32,1.95,2.38c0.18,0.57,0.4,0.69,0.98,0.63
						c0.69-0.07,1.37-0.17,2.05-0.24c0.52-0.06,0.86-0.35,1.01-0.82c0.34-1.13,1.01-1.99,1.93-2.69c0.41-0.31,0.64-0.72,0.6-1.25
						c-0.04-0.66-0.04-1.33-0.09-1.99c-0.02-0.31,0.05-0.55,0.33-0.71C34.65,83.18,34.81,82.67,34.78,82.12z M33.27,86.4
						c-0.01,0.23-0.25,0.5-0.46,0.66c-0.93,0.72-1.64,1.6-1.99,2.74c-0.12,0.38-0.35,0.53-0.72,0.57c-0.58,0.05-1.17,0.13-1.75,0.19
						c-0.24,0.02-0.43-0.02-0.54-0.3c-0.42-1.12-1.23-1.92-2.21-2.57c-0.09-0.06-0.16-0.14-0.25-0.18
						c-0.78-0.37-0.99-1.03-0.95-1.84c0.03-0.48,0.01-0.96,0.02-1.52c0.26,0.06,0.46,0.11,0.66,0.16c0.07,0.3,0.14,0.57,0.19,0.84
						c0.12,0.69,0.46,1.23,1.01,1.66c0.14,0.1,0.32,0.21,0.36,0.36c0.19,0.57,0.37,0.92,0.88,1.28c0.12,0.08,0.33,0.07,0.38,0.24
						c0.07,0.2,0.1,0.39,0.18,0.64c0.3-0.32,0.16-0.36,0.38-0.79c0.28,0.25,0.06,0.64,0.44,0.81c0.17-0.31,0.06-0.57,0.28-0.84
						c0.22,0.13,0.25,0.79,0.33,0.8c0.13,0,0.1-0.88,0.25-0.79c0.23,0.13,0.16,0.59,0.38,0.74c0.12-0.26-0.02-0.57,0.19-0.98
						c0.49-0.1,0.65-0.54,0.7-1.07c0.01-0.1,0.11-0.24,0.2-0.29c0.95-0.51,1.26-1.34,1.24-2.36c0-0.1,0.01-0.2,0.03-0.37
						c0.19-0.06,0.4-0.12,0.73-0.23C33.27,84.83,33.32,85.62,33.27,86.4z M27.92,88.03c-0.15-0.18-0.28-0.59-0.43-0.78
						C28.16,87.2,28.18,87.47,27.92,88.03z M28.69,88.02c-0.15-0.18-0.16-0.5-0.31-0.69C29.04,87.29,28.95,87.47,28.69,88.02z
						 M29.45,88.01c-0.06-0.21-0.21-0.38-0.08-0.76C29.84,87.49,29.64,87.74,29.45,88.01z M29.96,87.9c0.04-0.21,0-0.56,0.27-0.78
						C30.63,87.16,30.25,87.73,29.96,87.9z M27.22,85.85c0.43,0.2,0.28,0.59,0.43,0.78C26.98,86.67,26.96,86.4,27.22,85.85z
						 M28.16,86.75c-0.09-0.22-0.18-0.62,0.13-0.74C28.55,86.56,28.55,86.69,28.16,86.75z M29.31,85.94
						c0.31,0.12,0.2,0.58,0.12,0.81C29.12,86.63,29.05,86.49,29.31,85.94z M29.99,86.61c-0.13-0.38,0.02-0.55,0.08-0.76
						C30.25,86.13,30.45,86.37,29.99,86.61z M30.63,86.46c-0.06-0.35,0.2-0.58,0.31-0.77C31.05,86.01,30.96,86.7,30.63,86.46z
						 M33.05,83.21l0.02-0.02c-0.34,0.1-0.67,0.21-1.01,0.29c-0.55,0.12-0.62,0.18-0.66,0.75c-0.02,0.35,0.02,0.72-0.3,1.01
						c-0.42-0.18-0.23-0.64-0.57-0.96c-0.16,0.49-0.09,0.92-0.7,1.07c0.11-0.32-0.18-0.91-0.29-0.84c0,0-0.01,0-0.01,0
						c0.05,0.35,0.07,0.68-0.03,0.95c-0.17,0.08-0.34,0.17-0.54,0.26c-0.08-0.28,0.01-0.95-0.18-1.31
						c-0.36,0.47-0.14,0.92-0.41,1.35c-0.21-0.06-0.29-0.09-0.51-0.15c-0.16-0.37-0.11-0.97-0.27-1.13
						c-0.34,0.32-0.39,0.63-0.56,0.97c-0.47-0.36-0.51-0.85-0.66-1.26c-0.26-0.74-0.24-0.74-0.99-0.62
						c-1.31,0.21-2.32-0.96-1.95-2.27c0.08-0.29,0.2-0.59,0.38-0.83c0.42-0.55,0.44-1.13,0.23-1.74c-0.5-1.46-0.08-2.72,0.87-3.81
						c1.01-1.16,2.07-1.68,3.68-1.52c0.03,0.36,0.05,0.73,0.08,1.09c-0.21,0.18-0.52,0.31-0.59,0.53c-0.08,0.26,0.04,0.59,0.1,0.88
						c0.06,0.32,0.13,1.03,0.2,1.38c0.43-0.05,0.46-0.87,0.41-1.19c-0.04-0.3-0.11-0.44-0.19-0.76c0.15-0.05,0.27-0.08,0.39-0.12
						c0.54-0.17,0.63-0.33,0.36-0.82c-0.19-0.35-0.19-0.67-0.05-1.04c0.61-0.13,1.17,0.09,1.71,0.28c0.95,0.34,1.78,0.94,2.3,1.82
						c0.62,1.06,0.91,2.21,0.47,3.42c-0.21,0.57-0.11,1.09,0.08,1.64c0.16,0.45,0.31,0.92,0.36,1.4
						C34.26,82.62,33.84,83.06,33.05,83.21z"/>
					<path d="M29.34,82.77c-0.07,0.4,0.04,0.9,0.13,1.39c0.02-0.02,0.05-0.03,0.07-0.05C29.73,83.92,29.79,83.05,29.34,82.77z"/>
					<path d="M30.2,81.75c-0.17-1.84,0.84-3.36,2.35-3.56c-0.06,0.35-0.06,0.35-0.57,0.86c1.28-0.03,1.32,0.02,1.3,1.29
						c-0.03,1.5-0.15,1.59-1.66,1.72C31.1,82.11,30.66,82.04,30.2,81.75z"/>
					<path d="M24.44,78.44c0.28,0,0.39-0.03,0.47,0.01c0.76,0.37,1.52,0.73,2.26,1.12c0.75,0.4,0.8,1.13,0.8,1.86
						c0,0.29-0.24,0.42-0.47,0.41c-0.81-0.01-1.62-0.05-2.43-0.13c-0.15-0.01-0.33-0.25-0.4-0.42c-0.3-0.74-0.27-1.48,0.12-2.23
						C24.71,78.93,24.61,78.75,24.44,78.44z"/>
					<path d="M27.34,74.78c-0.12,0.07-0.23,0.18-0.36,0.21c-0.69,0.18-1.16,0.61-1.47,1.24c-0.06,0.11-0.1,0.25-0.19,0.33
						c-0.08,0.07-0.25,0.13-0.32,0.1c-0.08-0.04-0.16-0.23-0.12-0.31c0.15-0.32,0.29-0.66,0.52-0.92c0.49-0.56,1.17-0.73,1.87-0.81
						C27.3,74.67,27.32,74.73,27.34,74.78z"/>
					<path d="M30.14,78.8c0.2-0.7,1.36-1.56,2.51-1.87c-0.51,0.41-0.88,0.72-1.27,1.02C31.01,78.25,30.71,78.66,30.14,78.8z"/>
					<path d="M25.88,77.42c0.68-0.14,0.96,0.34,1.33,0.59c0.36,0.24,0.63,0.57,0.6,1.16C27.16,78.57,26.57,78.04,25.88,77.42z"/>
					<path d="M33.07,83.19c-0.38-0.03-0.76-0.02-1.13-0.1c-0.32-0.07-0.73-0.07-0.8-0.66c0.66,0,1.21,0.39,1.88,0.34
						c0.01,0.17,0.02,0.3,0.03,0.44C33.05,83.21,33.07,83.19,33.07,83.19z"/>
					<path d="M30.02,81.86c0.32,0.59,0.57,1.07,0.85,1.57C30.21,83.47,29.71,82.57,30.02,81.86z"/>
					<path d="M26.96,83.33c0.43-0.43,0.77-0.78,1.15-1.17C28.14,83.08,27.76,83.5,26.96,83.33z"/>
					<path d="M29.1,80.31c0.14,0.56,0.23,1.11-0.21,1.68C28.65,81.32,28.89,80.81,29.1,80.31z"/>
					<path d="M24.99,82.36c0.5-0.11,0.83-0.2,1.17-0.25c0.08-0.01,0.25,0.11,0.26,0.19c0.01,0.09-0.09,0.26-0.17,0.28
						C25.87,82.66,25.49,82.71,24.99,82.36z"/>
					<path d="M28.52,82.93c0.25,0.51,0.14,0.91-0.32,1.29C27.93,83.62,28.24,83.28,28.52,82.93z"/>
					<path d="M30.45,74.19c0.05,0.43,0.09,0.71,0.13,1.08C30.07,74.89,30.07,74.89,30.45,74.19z"/>
					<path d="M31.79,74.76c0.04,0.28,0.06,0.44,0.09,0.59c-0.11,0-0.27,0.04-0.33-0.02C31.31,75.12,31.53,75.01,31.79,74.76z"/>
					<path d="M32.4,75.53c0.1,0.29,0.18,0.49,0.27,0.76c-0.19-0.01-0.38,0.04-0.44-0.03C32.01,76,32.22,75.81,32.4,75.53z"/>
					<path d="M31.04,74.53c0.08,0.21,0.16,0.33,0.17,0.46c0.01,0.05-0.12,0.12-0.19,0.17c-0.08-0.1-0.21-0.18-0.24-0.29
						C30.77,74.8,30.91,74.7,31.04,74.53z"/>
				</g>
			</g>
		</g>
	</g>
	<path d="M0.02,0v1.6v96.8v1.6h60v-1.6V1.6V0H0.02z M59.02,98.4h-58V1.6h58V98.4z"/>
	<g>
	</g>
	<g>
	</g>
	<g>
	</g>
	<g>
	</g>
	<g>
	</g>
	<g>
	</g>
	<g>
	</g>
	<g>
	</g>
	<g>
	</g>
	<g>
	</g>
	<g>
	</g>
	<g>
	</g>
	<g>
	</g>
	<g>
	</g>
	<g>
	</g>
	<g>
	</g>
	<g>
	</g>
</g>
</svg>
