<?xml version="1.0" encoding="utf-8"?>
<!-- Generator: Adobe Illustrator 26.3.1, SVG Export Plug-In . SVG Version: 6.00 Build 0)  -->
<svg version="1.1" xmlns="http://www.w3.org/2000/svg" xmlns:xlink="http://www.w3.org/1999/xlink" x="0px" y="0px"
	 viewBox="0 0 60 100" enable-background="new 0 0 60 100" xml:space="preserve">
<g id="Layer_1">
</g>
<g id="THINGS">
	<g id="_x31_2_00000084495875993227350310000002473984436201506709_">
		
			<radialGradient id="SVGID_1_" cx="-13.3529" cy="148.593" r="17.0938" gradientTransform="matrix(7.495400e-11 -1.1672 1 6.422000e-11 -121.319 26.6929)" gradientUnits="userSpaceOnUse">
			<stop  offset="0.0912" style="stop-color:#FFE62F"/>
			<stop  offset="0.3214" style="stop-color:#FFED6A;stop-opacity:0.7493"/>
			<stop  offset="0.5458" style="stop-color:#FFF39C;stop-opacity:0.5048"/>
			<stop  offset="0.7407" style="stop-color:#FFF8C0;stop-opacity:0.2924"/>
			<stop  offset="0.8987" style="stop-color:#FFFBD6;stop-opacity:0.1203"/>
			<stop  offset="1" style="stop-color:#FFFCDF;stop-opacity:0.01"/>
		</radialGradient>
		<ellipse fill="url(#SVGID_1_)" cx="27.27" cy="42.28" rx="17.09" ry="19.95"/>
		<path fill="#231F20" d="M27.87,60.71v6.51c0,0.31-0.25,0.57-0.57,0.57h0c-0.31,0-0.57-0.25-0.57-0.57v-6.51
			c0-0.31,0.25-0.57,0.57-0.57h0C27.61,60.14,27.87,60.4,27.87,60.71z"/>
		<g>
			<path fill="#231F20" d="M27.87,17.34v6.51c0,0.31-0.25,0.57-0.57,0.57h0c-0.31,0-0.57-0.25-0.57-0.57v-6.51
				c0-0.31,0.25-0.57,0.57-0.57h0C27.61,16.77,27.87,17.02,27.87,17.34z"/>
			<path fill="#231F20" d="M4.66,41.71h6.51c0.31,0,0.57,0.25,0.57,0.57l0,0c0,0.31-0.25,0.57-0.57,0.57H4.66
				c-0.31,0-0.57-0.25-0.57-0.57l0,0C4.09,41.96,4.34,41.71,4.66,41.71z"/>
			<path fill="#231F20" d="M10.31,26.05l4.6,4.6c0.22,0.22,0.22,0.58,0,0.8v0c-0.22,0.22-0.58,0.22-0.8,0l-4.6-4.6
				c-0.22-0.22-0.22-0.58,0-0.8h0C9.73,25.83,10.09,25.83,10.31,26.05z"/>
			<path fill="#231F20" d="M7.75,37.13l3.85,0.64c0.19,0.03,0.31,0.21,0.28,0.39l0,0c-0.03,0.19-0.21,0.31-0.39,0.28L7.64,37.8
				c-0.19-0.03-0.31-0.21-0.28-0.39h0C7.39,37.22,7.56,37.09,7.75,37.13z"/>
			<path fill="#231F20" d="M9.54,31.98l3.38,1.95c0.16,0.09,0.22,0.3,0.12,0.47h0c-0.09,0.16-0.3,0.22-0.47,0.12L9.2,32.57
				c-0.16-0.09-0.22-0.3-0.12-0.47l0,0C9.17,31.94,9.38,31.88,9.54,31.98z"/>
			<path fill="#231F20" d="M21.24,20.72l1.15,3.73c0.06,0.18-0.05,0.37-0.23,0.43l0,0c-0.18,0.06-0.37-0.05-0.43-0.23l-1.15-3.73
				c-0.06-0.18,0.05-0.37,0.23-0.43l0,0C20.99,20.44,21.18,20.54,21.24,20.72z"/>
			<path fill="#231F20" d="M15.67,23.56l2.23,3.21c0.11,0.15,0.07,0.37-0.09,0.47l0,0c-0.15,0.11-0.37,0.07-0.47-0.09l-2.23-3.21
				c-0.11-0.15-0.07-0.37,0.09-0.47h0C15.35,23.37,15.56,23.41,15.67,23.56z"/>
		</g>
		<g>
			<path fill="#231F20" d="M49.95,41.71h-6.51c-0.31,0-0.57,0.25-0.57,0.57l0,0c0,0.31,0.25,0.57,0.57,0.57h6.51
				c0.31,0,0.57-0.25,0.57-0.57l0,0C50.51,41.96,50.26,41.71,49.95,41.71z"/>
			<path fill="#231F20" d="M44.29,26.05l-4.6,4.6c-0.22,0.22-0.22,0.58,0,0.8v0c0.22,0.22,0.58,0.22,0.8,0l4.6-4.6
				c0.22-0.22,0.22-0.58,0-0.8l0,0C44.88,25.83,44.52,25.83,44.29,26.05z"/>
			<path fill="#231F20" d="M46.85,37.13L43,37.77c-0.19,0.03-0.31,0.21-0.28,0.39l0,0c0.03,0.19,0.21,0.31,0.39,0.28l3.85-0.64
				c0.19-0.03,0.31-0.21,0.28-0.39l0,0C47.21,37.22,47.04,37.09,46.85,37.13z"/>
			<path fill="#231F20" d="M45.06,31.98l-3.38,1.95c-0.16,0.09-0.22,0.3-0.12,0.47l0,0c0.09,0.16,0.3,0.22,0.47,0.12l3.38-1.95
				c0.16-0.09,0.22-0.3,0.12-0.47l0,0C45.43,31.94,45.22,31.88,45.06,31.98z"/>
			<path fill="#231F20" d="M33.36,20.72l-1.15,3.73c-0.06,0.18,0.05,0.37,0.23,0.43l0,0c0.18,0.06,0.37-0.05,0.43-0.23l1.15-3.73
				c0.06-0.18-0.05-0.37-0.23-0.43l0,0C33.61,20.44,33.42,20.54,33.36,20.72z"/>
			<path fill="#231F20" d="M38.93,23.56l-2.23,3.21c-0.11,0.15-0.07,0.37,0.09,0.47l0,0c0.15,0.11,0.37,0.07,0.47-0.09l2.23-3.21
				c0.11-0.15,0.07-0.37-0.09-0.47l0,0C39.25,23.37,39.04,23.41,38.93,23.56z"/>
		</g>
		<g>
			<path fill="#231F20" d="M27.87,67.22v-6.51c0-0.31-0.25-0.57-0.57-0.57h0c-0.31,0-0.57,0.25-0.57,0.57v6.51
				c0,0.31,0.25,0.57,0.57,0.57h0C27.61,67.79,27.87,67.53,27.87,67.22z"/>
			<path fill="#231F20" d="M10.31,58.5l4.6-4.6c0.22-0.22,0.22-0.58,0-0.8l0,0c-0.22-0.22-0.58-0.22-0.8,0l-4.6,4.6
				c-0.22,0.22-0.22,0.58,0,0.8h0C9.73,58.73,10.09,58.73,10.31,58.5z"/>
			<path fill="#231F20" d="M7.75,47.43l3.85-0.64c0.19-0.03,0.31-0.21,0.28-0.39h0c-0.03-0.19-0.21-0.31-0.39-0.28l-3.85,0.64
				c-0.19,0.03-0.31,0.21-0.28,0.39l0,0C7.39,47.33,7.56,47.46,7.75,47.43z"/>
			<path fill="#231F20" d="M9.54,52.58l3.38-1.95c0.16-0.09,0.22-0.3,0.12-0.47v0c-0.09-0.16-0.3-0.22-0.47-0.12L9.2,51.98
				c-0.16,0.09-0.22,0.3-0.12,0.47v0C9.17,52.61,9.38,52.67,9.54,52.58z"/>
			<path fill="#231F20" d="M21.24,63.83l1.15-3.73c0.06-0.18-0.05-0.37-0.23-0.43l0,0c-0.18-0.06-0.37,0.05-0.43,0.23l-1.15,3.73
				c-0.06,0.18,0.05,0.37,0.23,0.43v0C20.99,64.11,21.18,64.01,21.24,63.83z"/>
			<path fill="#231F20" d="M15.67,60.99l2.23-3.21c0.11-0.15,0.07-0.37-0.09-0.47l0,0c-0.15-0.11-0.37-0.07-0.47,0.09l-2.23,3.21
				c-0.11,0.15-0.07,0.37,0.09,0.47h0C15.35,61.19,15.56,61.15,15.67,60.99z"/>
		</g>
		<g>
			<path fill="#231F20" d="M49.95,42.85h-6.51c-0.31,0-0.57-0.25-0.57-0.57l0,0c0-0.31,0.25-0.57,0.57-0.57h6.51
				c0.31,0,0.57,0.25,0.57,0.57l0,0C50.51,42.59,50.26,42.85,49.95,42.85z"/>
			<path fill="#231F20" d="M44.29,58.5l-4.6-4.6c-0.22-0.22-0.22-0.58,0-0.8l0,0c0.22-0.22,0.58-0.22,0.8,0l4.6,4.6
				c0.22,0.22,0.22,0.58,0,0.8l0,0C44.88,58.73,44.52,58.73,44.29,58.5z"/>
			<path fill="#231F20" d="M46.85,47.43L43,46.79c-0.19-0.03-0.31-0.21-0.28-0.39v0c0.03-0.19,0.21-0.31,0.39-0.28l3.85,0.64
				c0.19,0.03,0.31,0.21,0.28,0.39v0C47.21,47.33,47.04,47.46,46.85,47.43z"/>
			<path fill="#231F20" d="M45.06,52.58l-3.38-1.95c-0.16-0.09-0.22-0.3-0.12-0.47l0,0c0.09-0.16,0.3-0.22,0.47-0.12l3.38,1.95
				c0.16,0.09,0.22,0.3,0.12,0.47v0C45.43,52.61,45.22,52.67,45.06,52.58z"/>
			<path fill="#231F20" d="M33.36,63.83l-1.15-3.73c-0.06-0.18,0.05-0.37,0.23-0.43l0,0c0.18-0.06,0.37,0.05,0.43,0.23l1.15,3.73
				c0.06,0.18-0.05,0.37-0.23,0.43v0C33.61,64.11,33.42,64.01,33.36,63.83z"/>
			<path fill="#231F20" d="M38.93,60.99l-2.23-3.21c-0.11-0.15-0.07-0.37,0.09-0.47l0,0c0.15-0.11,0.37-0.07,0.47,0.09l2.23,3.21
				c0.11,0.15,0.07,0.37-0.09,0.47l0,0C39.25,61.19,39.04,61.15,38.93,60.99z"/>
		</g>
		<g id="candle_00000047751877426702431740000009004882247084571031_">
			<path fill="#FFE62F" d="M30.37,38.46c-0.03-0.07-0.91-1.83-0.93-1.87c-1.21-2.11-1.38-4.35-1.86-7.02
				c-0.03-0.25-0.41-0.77-0.43-1.02c-0.1,0.39-0.23,0.77-0.35,1.14c0.04,0.05,0.07,0.11,0.06,0.18c0,0.03-0.01,0.06-0.01,0.09
				c0,0,0,0,0,0c0,0.01,0,0.01,0,0.02c-0.05,0.48-0.11,0.96-0.19,1.43c-0.03,0.54-0.07,1.07-0.13,1.61c0,0,0,0,0,0c0,0,0,0,0,0
				c0,0.03,0,0.06-0.01,0.09c-0.01,0.08-0.05,0.13-0.1,0.17c-0.14,1.07-0.36,2.1-0.74,3.12c-0.04,0.1-0.94,2.66-0.95,2.68
				c-0.06,1.36-0.14,3.3-0.14,3.3c-1.36,2.59-1.15,3.33-0.23,4.72c2.31,3.47,5.27,4.16,6.58,0.21
				C31.96,44.23,30.47,38.7,30.37,38.46z"/>
			<path fill="#231F20" d="M51.14,77.11c-1.42-0.4-4.31,0.09-4.8,0.17c-1.71,0.56-3.39,1.26-5.11,1.81
				c-0.28,0.4-0.79,0.67-1.37,0.81c-0.34,0.17-0.77,0.25-1.08,0.31c-0.17,0.03-0.87-0.26-1.07-0.33c-0.8-0.23-2.58,0.38-3.04,0.36
				c-0.01,0-0.02-0.01-0.03-0.01c-0.02,0.09-6.83,0.59-7.62,0.48c0,0-3.14-0.21-4.47-0.35c-0.78-0.08-10.21-0.4-10.3-0.28
				c-0.11,0.15,0.64,1.86,2.39,2.19c2.21,0.41,4.26,0.76,6.45,0.99c0.34,0.02,7.67,0.43,11.02,0.65c0.6,0,5.98-0.4,7.84-0.54
				c0.11-0.01,1.6,1.1,2.36,1.61c1.3,0.56,2.35,0.88,3.6,0.76c0.93-0.09,2.81-0.55,3.71-0.85c0.32-0.18,1.14-0.72,1.56-1.12
				c0.75-1.18,1.34-2.55,1.6-3.81C52.48,78.25,51.23,77.19,51.14,77.11z M49.72,82.19c-0.18,0.14-0.36,0.28-0.54,0.42
				c-0.15,0.16-0.37,0.1-0.49-0.03c-0.06,0.01-0.12,0.02-0.19,0.02c-0.37,0.32-0.84,0.56-1.43,0.69c-0.14,0.03-0.26-0.02-0.33-0.1
				c-0.51,0.13-1.03,0.19-1.56,0.14c-0.5-0.05-0.99-0.2-1.47-0.34c-0.04,0.02-0.08,0.03-0.13,0.04c-0.6,0.03-1.1-0.03-1.54-0.38
				c-0.02-0.01-0.03-0.01-0.05-0.02c-0.08-0.03-0.12-0.09-0.15-0.16c-0.01-0.01-0.02-0.02-0.03-0.03c-0.22-0.24-0.04-0.57,0.27-0.55
				c0.02-0.02,0.04-0.04,0.07-0.05c0.02-0.01,0.03-0.02,0.05-0.03c0.02-0.05,0.06-0.09,0.11-0.12c0.12-0.07,0.19-0.11,0.26-0.14
				c0.58-0.39,1.41-0.6,2-0.81c0.08-0.03,0.16-0.05,0.23-0.08c1.11-0.54,3.02-1.73,4.23-1.26c0.01,0,0.01,0.01,0.02,0.02
				c0.26,0.01,0.41,0.15,0.48,0.37c0.03,0.03,0.06,0.08,0.08,0.14c0.01,0.03,0.01,0.06,0.01,0.09c0,0,0,0,0,0c0,0,0,0,0,0.01
				c0.05,0.2,0.05,0.38,0.03,0.55c0.15,0.32,0.12,0.71,0,1.09C49.87,81.72,49.98,82.03,49.72,82.19z"/>
			<path fill="#F08022" d="M31.42,47.78c-0.6-0.09-1.65,2.15-3.25,2.2c-1.74-0.15-2.72-2.34-3.77-0.07c-0.42,0.89-1.76,3.1-1.6,3.92
				c-0.23,2.28,1.22,2.65,1.37,2.71c1.15,0.5,1.28,2.08,1.36,2.29c0.1,0.19,0.2,0.39,0.28,0.6c0.12,0.09,0.23,0.18,0.33,0.29
				c0.01,0,0.01,0.01,0.02,0.01c0.7,0.65,1.15,1.11,1.45,1.95c0.13,0.25,0.02,0.88,0.12,1.15c0.28,0.83,0.59,2.59,1.2,2.44
				c0.56-0.22,0.73-2.67,0.75-2.74c-0.07-0.48,0.17-2.06,0.34-2.34c0.11-0.37,0.25-0.73,0.41-1.05c0.07-0.14,0.97-0.99,1.19-1.21
				c0.16-1.11,0.57-1.35,0.82-1.44c1.32-0.47,1.23-3.63,1.35-4.43C33.23,50.88,31.95,48.96,31.42,47.78z"/>
			<path fill="#D65327" d="M35.44,77.76c-0.64-0.62-1.74-4.61-1.81-4.82c-0.35-1.01-0.51-3.21-0.52-3.27
				c-0.12-1.64-0.33-9.19-0.3-10.2c0.01-0.11-0.01-2.8,0.02-2.85c-1.12-0.75-0.91,1.27-2.9,2.99c-0.63,0.54-0.12,5.14-0.76,5.47
				c-1.23,0.21-1.64-4.51-2.73-5.02c-1.39-0.87-1.67-4.9-2.79-3.37c0.01,0.18-0.68,4.84-0.68,5.02c0.03,0.05-0.34,1.71-0.35,1.76
				c0.04,1.66-0.34,2.55-0.51,4.21c-0.03,0.66-0.38,2.46-0.53,2.83c-0.55,1.33-1.17,2.61-1.9,3.85c-0.08,0.14-2.43,2.32-2.53,2.4
				c-0.46,0.37-2.68,1.97-3.19,2.21c-0.21,2.04,1.99,1.22,5.7,1.51c2.64,0.2,8.18,0.41,8.18,0.41s3.66-0.14,5.95-0.47
				c1.63-0.24,3.36-0.25,3.63-0.93C37.39,79.48,35.57,78.03,35.44,77.76z"/>
			<path d="M31.62,44.46c0.05,0.78-0.16,1.56-0.12,2.3c0.05,0.72,0.9,1.21,1.16,1.95c0.23,0.65,0.48,1.21,1.13,1.65
				c0.6,0.41,0.45,1.3,0.48,1.97c0.06,1.43-0.06,2.86-0.79,4.17c-0.13,0.23-0.23,0.48-0.24,0.77c-0.03,3.17-0.18,6.35-0.08,9.52
				c0.1,3.42,0.81,6.76,2.2,9.92c0.33,0.74,0.87,1.3,1.57,1.65c0.49,0.24,0.96,0.5,1.33,0.88c0.58,0.6,1.13,0.5,1.77,0.15
				c2.01-1.11,4.19-1.8,6.38-2.43c0.93-0.27,1.86-0.5,2.83-0.64c2.71-0.41,4.2,1.72,3.66,3.93c-0.38,1.55-0.74,3.25-2.26,4.18
				c-2.44,1.5-5.02,2.23-7.81,0.91c-0.63-0.3-1.26-0.59-1.82-1.02c-0.62-0.47-1.26-0.6-2.06-0.42c-2.01,0.45-4.07,0.43-6.12,0.35
				c-1.51-0.06-3.02,0.01-4.53-0.11c-3.04-0.24-6.1-0.34-9.1-0.96c-1.78-0.37-3.59-0.57-5.38-0.83c-0.58-0.08-1.14-0.26-1.67-0.48
				c-0.47-0.2-0.91-0.49-0.87-1.1c0.04-0.56,0.37-1.04,0.86-1.13c0.93-0.17,1.45-0.8,1.99-1.45c0.52-0.63,1.33-0.74,1.98-1.15
				c1.34-0.85,2.66-1.66,3.48-3.12c0.7-1.24,1.31-2.47,1.43-3.92c0.07-0.87,0.44-1.71,0.66-2.56c0.49-1.93,0.54-3.9,0.77-5.85
				c0.17-1.45,0.29-2.91,0.46-4.37c0.05-0.45,0.1-0.82-0.35-1.12c-0.48-0.32-0.53-0.84-0.46-1.35c0.2-1.51,0.73-2.92,1.24-4.34
				c0.18-0.48,0.57-0.85,0.96-1.15c0.54-0.42,0.49-0.75,0.09-1.22c-0.86-1.05-1.27-2.26-1.2-3.65c0.03-0.58,0.16-1.09,0.55-1.48
				c0.58-0.58,0.67-1.24,0.61-2.01c-0.1-1.28,0.12-2.47,0.67-3.7c0.81-1.82,1.49-3.74,1.22-5.83c-0.11-0.85,0.17-1.69,0.32-2.52
				c0.07-0.37,0.18-0.83,0.65-0.8c0.38,0.03,0.5,0.42,0.57,0.79c0.14,0.84,0.32,1.67,0.44,2.51c0.29,2.05,0.77,4.03,2.01,5.75
				c0.44,0.61,0.61,1.33,0.66,2.08c0.08,1.2,0.16,2.39,0.53,3.55C31.61,43.27,31.56,43.88,31.62,44.46z M26.09,54.26
				c0.54,0.42,1.09,0.59,1.64,0.01c0.22-0.23,0.44-0.18,0.73-0.12c0.97,0.2,1.28,0.09,1.65-0.8c0.34-0.84,0.84-1.31,1.74-1.47
				c0.55-0.09,0.95-0.75,0.7-1.12c-0.55-0.8-0.72-1.86-1.61-2.46c-0.48,0.29-0.47,1.01-1.08,1.17c-0.22,0.06-0.46,0.22-0.63-0.02
				c-0.18-0.24,0.03-0.41,0.19-0.58c0.84-0.89,1.47-1.9,1.51-3.16c0.03-0.97,0.06-1.94-0.24-2.87c-0.27-0.82-0.38-1.66-0.34-2.51
				c0.05-1.2-0.33-2.27-0.99-3.27c-0.63-0.94-0.98-1.97-1.15-3.11c-0.17-1.16-0.57-2.29-0.91-3.61c-0.32,0.66-0.38,1.2-0.31,1.71
				c0.26,1.92-0.43,3.7-1.06,5.41c-0.47,1.27-0.8,2.47-0.74,3.8c0.03,0.75-0.14,1.44-0.65,2.04c-0.42,0.49-0.51,1.11-0.48,1.75
				c0.07,1.36,0.67,2.43,1.72,3.28c0.27,0.22,0.6,0.37,0.77,0.69c0.05,0.09,0.1,0.24,0.06,0.32c-0.06,0.16-0.25,0.21-0.39,0.13
				c-0.74-0.38-1.17-0.32-1.04,0.66c0.01,0.08-0.11,0.21-0.2,0.27c-0.93,0.69-0.45,1.71-0.6,2.57c-0.05,0.29,0.13,0.57,0.53,0.63
				c0.46,0.08,0.89,0.27,1.18,0.66c-0.81-0.13-1.62-0.28-2.27-0.89c-0.31,0.58-0.28,1.13-0.21,1.66c0.06,0.54,0.17,1.05,0.92,1.09
				c0.54,0.03,0.86,0.49,1.03,0.99c0.2,0.59,0.37,1.18,0.55,1.77c0.09,0.3,0.17,0.63,0.51,0.73c0.93,0.28,1.17,1.07,1.39,1.85
				c0.16,0.55,0.19,1.15,0.34,1.7c0.15,0.52,0.06,1.16,0.54,1.56c0.36-0.15,0.36-0.44,0.41-0.7c0.22-1.07,0.2-2.16,0.12-3.23
				c-0.07-0.86,0.18-1.53,0.82-2.05c0.51-0.41,0.79-0.91,0.89-1.56c0.12-0.85,0.55-1.52,1.39-1.84c0.26-0.1,0.52-0.19,0.6-0.48
				c0.29-1.03,0.32-2.06,0.08-3.29c-0.65,0.7-1.26,1.12-2.04,1.26c-0.23,0.04-0.33,0.3-0.46,0.5c-0.21,0.32-0.47,0.61-0.7,0.92
				c-0.31,0.41-0.74,0.61-1.22,0.48c-0.49-0.13-0.85,0.05-1.29,0.22C26.66,55.3,26.25,55.22,26.09,54.26z M32.25,57.04
				c-0.26,0.04-0.27,0.22-0.3,0.36c-0.17,0.91-0.55,1.68-1.37,2.19c-0.4,0.25-0.47,0.69-0.49,1.13c-0.04,0.73-0.09,1.47-0.07,2.2
				c0.02,0.63-0.15,1.23-0.2,1.84c-0.04,0.5-0.42,0.7-0.87,0.8c-0.5,0.11-0.74-0.25-0.88-0.58c-0.2-0.46-0.29-0.96-0.42-1.45
				c-0.19-0.71-0.18-1.46-0.5-2.14c-0.13-0.28-0.22-0.67-0.54-0.7c-0.99-0.09-1.06-0.88-1.26-1.56c-0.17-0.59-0.26-1.21-0.57-1.76
				c-0.1-0.18-0.25-0.31-0.46-0.28c-0.24,0.04-0.28,0.23-0.24,0.44c0.05,0.31-0.01,0.61-0.05,0.92c-0.43,2.86-0.64,5.75-1.31,8.58
				c-0.39,1.65-0.46,3.36-1.03,4.97c-0.23,0.65-0.58,1.29-0.7,1.96c-0.17,0.89-0.64,1.47-1.42,1.84c-0.43,0.21-0.83,0.43-1.03,0.88
				c-0.25,0.56-0.69,0.79-1.26,0.91c-0.65,0.14-1.25,0.42-1.8,0.79c-0.16,0.11-0.33,0.21-0.27,0.45c0.05,0.18,0.21,0.22,0.36,0.25
				c0.26,0.05,0.53,0.09,0.8,0.12c0.5,0.06,1.09,0.06,1.41,0.4c0.48,0.5,1.01,0.46,1.59,0.48c2.78,0.1,5.57,0.21,8.35,0.36
				c2.63,0.14,5.24-0.15,7.84-0.44c0.38-0.04,0.8-0.15,1.08-0.52c-1.28-0.83-1.59-1.14-1.88-1.75C33,74,32.43,70.03,32.18,66
				c-0.14-2.28,0.09-4.56,0.14-6.84C32.33,58.46,32.27,57.75,32.25,57.04z M13.13,80.98c0.4,0.36,0.72,0.35,1,0.44
				c0.71,0.23,1.47,0.12,2.18,0.29c2.91,0.69,5.89,0.81,8.85,1.16c0.85,0.1,1.7,0.22,2.55,0.21c2.32-0.02,4.64,0.09,6.97,0.01
				c1.55-0.05,3.08-0.23,4.61-0.5c0.66-0.12,0.82-0.6,0.32-1.07c-0.97-0.9-2.01-1.57-3.48-1.16c-2.13,0.61-4.36,0.75-6.56,0.77
				c-3.56,0.04-7.12-0.13-10.67-0.27C17.03,80.79,15.18,80.87,13.13,80.98z M41.48,83.05c-0.02,0.08-0.03,0.17-0.05,0.25
				c1.78,1.15,3.78,1.39,5.85,1.39c0.98,0,1.83-0.32,2.53-0.98c1.13-1.07,1.94-2.31,1.77-3.97c-0.11-1.03-0.68-1.82-1.51-1.98
				c-0.87-0.16-1.76-0.3-2.65-0.08c-2.56,0.62-5.02,1.47-7.22,3.07c0.08,0.14,0.15,0.27,0.23,0.4c0.44,0.73,0.44,0.72,1.22,0.34
				c0.98-0.46,1.95-0.95,2.95-1.34c1.26-0.5,2.52-0.98,3.85-1.24c0.99-0.19,1.85,0.39,1.88,1.37c0.04,1.47-0.4,2.55-1.73,3.12
				c-1.37,0.59-2.77,0.91-4.27,0.43C43.41,83.52,42.44,83.3,41.48,83.05z M41.84,82.32c1.4,0.38,2.61,0.65,3.86,0.8
				c0.87,0.1,1.68-0.15,2.47-0.44c0.75-0.28,1.14-0.88,1.25-1.67c0.13-0.92-0.17-1.27-1.08-1.09c-1.09,0.22-2.19,0.48-3.23,0.88
				C44.05,81.2,42.99,81.63,41.84,82.32z"/>
			<path d="M31.03,62.75c0.16,0.73,0.2,1.38,0.14,2.03c-0.05,0.63-0.03,1.26,0.14,1.83c0.27,0.89,0.24,1.72,0.06,2.61
				c-0.13,0.63-0.26,1.28-0.1,1.95c0.05,0.21-0.01,0.46-0.07,0.68c-0.13,0.45-0.28,0.92-0.88,0.91c-0.57-0.01-1.19-0.62-1.2-1.18
				c-0.01-0.39,0.02-0.77,0.03-1.16c0.01-0.23-0.02-0.52,0.3-0.51c0.28,0.01,0.33,0.3,0.35,0.53c0.03,0.31,0.01,0.62,0,0.92
				c0,0.25,0.07,0.5,0.35,0.51c0.28,0.02,0.37-0.23,0.38-0.47c0-0.19-0.02-0.39-0.04-0.58c-0.01-0.15-0.09-0.32-0.05-0.46
				c0.67-2.16-0.13-4.34,0.12-6.49C30.6,63.52,30.46,63.09,31.03,62.75z"/>
			<path d="M26.71,71.35c0.06,1.27,0.53,2.54-0.16,3.77c-0.27,0.49-0.28,1.04-0.3,1.58c-0.02,0.68-0.22,1.3-0.71,1.79
				c-0.28,0.28-0.61,0.34-0.85-0.09c-0.81-1.46-0.91-3-0.54-4.6c0.04-0.16,0.16-0.15,0.26-0.14c0.14,0.01,0.22,0.12,0.22,0.23
				c0,0.31-0.02,0.61-0.05,0.92c-0.07,0.85-0.01,1.67,0.55,2.63c0.5-1.13,0.21-2.24,0.83-3.16C26.53,73.43,26.16,72.27,26.71,71.35z
				"/>
			<path d="M23.95,67.6c0.22,0.07,0.24,0.28,0.31,0.45c0.11,0.27,0.14,0.7,0.55,0.58c0.34-0.1,0.72-0.24,0.74-0.76
				c0.04-0.73,0.17-1.45,0.24-2.18c0.03-0.3,0.01-0.61,0.25-0.84c0.35,0.08,0.28,0.37,0.28,0.55c0.01,0.97,0.02,1.93-0.02,2.9
				c-0.04,0.81-0.7,1.52-1.46,1.69c-0.26,0.06-0.46-0.06-0.64-0.21C23.71,69.36,23.6,68.39,23.95,67.6z"/>
			<path d="M28.31,45.34c0.17,0.15,0.16,0.31,0.09,0.45c-0.48,0.94-0.43,0.93-0.32,1.93c0.14,1.29,0.55,2.57,0.3,3.9
				c-0.04,0.22-0.02,0.46-0.16,0.66c-0.14,0.2-0.31,0.36-0.57,0.28c-0.23-0.07-0.25-0.29-0.22-0.48c0.2-1.09-0.07-2.14-0.21-3.21
				c-0.05-0.41-0.11-0.83,0.02-1.26c0.06-0.19,0.1-0.42-0.07-0.65c-0.51-0.67-0.51-0.71,0.17-1.09
				C27.67,45.68,27.93,45.36,28.31,45.34z"/>
			<path d="M28.27,43.66c0.4,0.38,0.19,0.67-0.03,0.95c-0.23,0.3-0.46,0.63-0.88,0.69c-0.16,0.02-0.29-0.07-0.36-0.23
				c-0.07-0.16-0.05-0.33,0.06-0.43C27.45,44.3,27.87,43.99,28.27,43.66z"/>
			<path d="M27.64,42.53c0.05,0.01,0.1,0,0.13,0.02c0.05,0.05,0.13,0.11,0.14,0.17c0.04,0.5-0.4,0.61-0.7,0.82
				c-0.14,0.1-0.32,0.03-0.4-0.1c-0.05-0.07-0.04-0.24,0.01-0.32C27.01,42.82,27.35,42.71,27.64,42.53z"/>
		</g>
	</g>
	<g>
	</g>
	<g>
	</g>
	<g>
	</g>
	<g>
	</g>
	<g>
	</g>
	<g>
	</g>
	<g>
	</g>
	<g>
	</g>
	<g>
	</g>
	<g>
	</g>
	<g>
	</g>
	<g>
	</g>
	<g>
	</g>
	<g>
	</g>
	<g>
	</g>
	<g>
	</g>
	<g>
	</g>
</g>
</svg>
