<?xml version="1.0" encoding="utf-8"?>
<!-- Generator: Adobe Illustrator 26.3.1, SVG Export Plug-In . SVG Version: 6.00 Build 0)  -->
<svg version="1.1" xmlns="http://www.w3.org/2000/svg" xmlns:xlink="http://www.w3.org/1999/xlink" x="0px" y="0px"
	 viewBox="0 0 60 100" enable-background="new 0 0 60 100" xml:space="preserve">
<g id="Layer_1">
</g>
<g id="THINGS">
	<g id="_x32_9_00000044859339782041096290000000709114049393535122_">
		<g id="WATER_00000169546856577489904910000013867122653861332415_">
			<path fill="#9A1C1F" d="M22.95,55.48c1.38-0.03,2.75-0.05,4.13-0.08c0.23,0,0.41-0.08,0.54-0.2c2.64-0.14,5.28-0.29,7.93-0.35
				c0.68-0.02,1.04-0.85,0.56-1.35c-0.92-0.94-1.96-1.76-3.06-2.48c-0.96-0.63-2.15-1.44-3.34-1.09c-0.11,0.03-0.15,0.15-0.1,0.25
				c0.04,0.08,0.09,0.15,0.13,0.22c-0.73-0.2-1.5-0.26-2.36-0.1c-2.24,0.41-3.95,2.05-5.16,3.89
				C21.85,54.73,22.32,55.49,22.95,55.48z"/>
			<path fill="#9A1C1F" d="M50.18,77.6c-1.72-0.49-3.53-0.43-5.31-0.43c-0.11,0-0.19,0.03-0.27,0.07c-0.09-0.1-0.26-0.11-0.36-0.04
				l-0.02,0.01c-0.04,0.02-0.06,0.05-0.08,0.09c0,0,0,0,0-0.01c-0.5,0.9,0.73,2.23,1.5,2.48c1.82,0.61,3.92-1.49,5.58-1.86
				C51.92,77.75,51.29,77.92,50.18,77.6z"/>
			<path fill="#FFFCDF" d="M4.21,69.92c1.31,1.99,5.06,1.73,5.73-0.72c0.09-0.33,0.17-0.72,0.26-1.11
				c2.83-0.51,9.91-0.26,10.41-0.27c0.31,0.63,0.79,1.18,1.44,1.59c1.25,0.76,2.72,0.77,4.2,0.73c0.12,0.1,5.13,0.42,7.5,0.45
				c0.9-0.28,1.61-1.11,1.9-1.98c0.06-0.17,0.14-0.32,0.23-0.45c0.32,0.14,0.67,0.22,1.04,0.2c1.68-0.06,3.52-0.2,5.14,0.35
				c1.72,0.58,2,1.67,2.49,3.21c0.2,0.59-0.28,1.16-0.59,1.62c-0.74,1.09-1.01,3.13,0.53,3.52c0,0,0,0,0.01,0
				c1.85,0.1,3.72,0.02,5.54,0.45c0.07,0.02,0.11,0.05,0.14,0.09c1.41-0.04,3.66-0.16,5.04-0.44c2.32-0.48,2.02-0.99,1.91-2.5
				c-0.33-1.46-1.25-1.25-1.25-2.22c0-0.4,0.1-2.31,0.43-3.31c0.01-0.59,0.02-1.19-0.02-1.78c-0.66-2.16-2.02-4.27-3.64-5.85
				c-3.45-3.38-8.09-3.67-12.71-3.77c-0.45-0.02-1.02-0.81-1.19-1.42c-0.18-0.64-0.22-0.95-0.82-1.11
				c-0.22-0.04-0.43-0.14-0.63-0.27c-0.65,0.13-1.32,0.17-1.95,0.22c-1.65,0.11-3.31,0.17-4.97,0.15c-2.97-0.04-9.09,0.18-9.16,0.34
				c-2.64,0.13-5.3,0.32-7.94,0.3c-1.16-0.01-2.69,0.16-3.46-0.56c-0.7-0.65-1.07-1.84-1.79-2.57c-0.75-0.77-1.71-0.95-2.58-0.73
				c-1.41,1.24-2.26,5.34-2.43,5.37C2.71,61.68,1.83,66.31,4.21,69.92z"/>
			<path fill="#9A1C1F" d="M41.95,45.75c0.35-0.93,0.44-1.88,0.2-2.91c-0.03-0.06-0.06-0.13-0.09-0.19c-0.2-0.15-0.4-0.31-0.6-0.46
				c-0.46-0.2-0.91-0.42-1.34-0.68c-0.34-0.15-0.69-0.31-1.03-0.46c-1.36-0.09-2.62-0.71-3.98-0.82c-0.93,0.18-1.74,0.53-2.73,0.41
				c-0.16-0.02-0.24-0.14-0.26-0.26c-0.69-0.14-1.37-0.35-2.03-0.5c-0.9-0.2-1.77-0.33-2.62-0.39c-0.18,0.09-0.35,0.18-0.53,0.26
				c-0.03,0.07-0.08,0.13-0.18,0.15c-0.03,0-0.05,0.01-0.08,0.01c0,0,0,0,0,0c-0.01,0-0.01,0-0.02,0c-0.09,0.01-0.19,0.02-0.28,0.03
				c-0.35,0.1-0.72,0.15-1.12,0.14c-0.07,0-0.12-0.03-0.17-0.06c-0.27,0.02-0.54,0.04-0.81,0.06c-0.02,0.01-0.04,0.02-0.07,0.03
				c0,0,0,0,0,0c0,0,0,0,0,0c-0.03,0.01-0.06,0.02-0.09,0.04c-0.04,0.01-0.07,0.03-0.11,0.05c-0.97,0.39-1.99,0.61-3,0.87
				c-0.87,0.44-1.62,1.04-2.13,1.87c-0.19,0.71-0.13,1.47,0.31,2.06c0.87,1.15,2.01,1.63,3.27,1.84c0.71-0.35,1.41-0.73,2.18-0.25
				c0.1,0.06,0.14,0.17,0.13,0.26c0.06,0.04,0.11,0.09,0.17,0.14c0.56,0,1.13-0.01,1.69,0c0.4,0.01,0.8,0,1.19,0
				c0.15-0.19,0.48-0.08,0.5,0.18c0.07,0.6,0.01,1.21,0.03,1.82c0.12,0.53,0.52,0.95,1.1,0.95c0.42,0,0.81-0.25,1-0.61
				c-0.06-0.59,0.03-1.21,0.14-1.8c-0.02-0.05-0.03-0.11-0.02-0.17c0.02-0.11,0.06-0.2,0.1-0.28c0.01-0.05,0.02-0.1,0.03-0.15
				c0.03-0.17,0.17-0.22,0.3-0.19c0.41-0.25,1.01-0.21,1.52-0.14c0.8,0.11,1.56,0.13,2.33,0.12c0.61-0.05,1.23-0.1,1.84-0.16
				c0.46-0.15,0.92-0.21,1.39-0.21c0.02-0.01,0.05-0.01,0.07-0.02c0.02,0.01,0.03,0.02,0.05,0.02c0.71,0.02,1.42,0.19,2.13,0.4
				C40.96,46.61,41.52,46.24,41.95,45.75z"/>
			<path fill="#D65327" d="M56.57,53.77c-0.24-0.78-1.02-1.21-1.71-1.51c-0.73-0.32-1.41-0.63-2.09-0.98
				c-1.16-0.46-2.31-0.95-3.39-1.6c-0.47-0.12-0.91-0.31-1.34-0.52c-0.86-0.24-1.69-0.56-2.54-0.82c-0.26-0.08-0.52-0.13-0.79-0.18
				c-1.42,0.16-2.76,0.81-3.68,1.92c-0.14,0.29-0.27,0.58-0.37,0.88c0.04,0.06,0.06,0.14,0.03,0.23c-0.45,1.35-0.52,2.99,0.04,4.33
				c0.28,0.4,0.62,0.77,1.01,1.11c0.66,0.29,1.31,0.59,1.98,0.84c1.15,0.43,2.33,0.44,3.5,0.71c0.11,0.03,0.18,0.12,0.19,0.22
				c0.47,0.13,0.91,0.32,1.28,0.61c1.23,0.58,2.51,1.51,3.3,1.93c0.7,0.37,1.4,0.02,1.67-0.68C54.37,58.4,57.27,56.01,56.57,53.77z
				 M45.96,55.92c-0.01,0.03-0.02,0.06-0.02,0.09c-0.02,0.1-0.13,0.19-0.23,0.2c-0.02,0.02-0.04,0.04-0.05,0.06
				c-0.1-0.03-0.21-0.07-0.32-0.1c-1.44,0.38-4.02-1.24-3.43-3.11c-0.04-0.81,0.35-1.69,1.09-1.84c1.21-1.1,3.44-1.17,4.64-0.1
				c0.19,0.17,0.4,0.26,0.61,0.29C47.84,53.09,47.08,54.59,45.96,55.92z"/>
			<path d="M50.62,77.94c-1.93-0.04-4.14-0.04-6.32-0.43c-1.45-0.26-2.09-1.71-1.31-2.98c0.09-0.14,0.18-0.29,0.29-0.42
				c0.34-0.41,0.82-0.72,0.8-1.36c-0.03-0.91-0.2-1.78-0.81-2.46c-0.69-0.76-1.5-1.35-2.57-1.54c-1.28-0.23-2.54-0.37-3.84-0.19
				c-0.4,0.06-0.72,0.16-0.84,0.6c-0.02,0.09-0.11,0.17-0.15,0.26c-0.41,1.11-1.17,1.46-2.36,1.42c-1.49-0.06-2.99-0.15-4.46-0.12
				c-2.43,0.04-4.78-0.5-7.19-0.57c-0.43-0.01-0.74-0.23-1-0.6c-1.02-1.49-1.03-1.48-2.79-1.3c-0.24,0.02-0.48,0.09-0.71,0.07
				c-1.73-0.16-3.46,0-5.18,0.01c-0.27,0-0.54,0.04-0.81,0.03c-0.52-0.02-0.77,0.21-0.94,0.71c-0.31,0.93-0.94,1.62-1.77,2.16
				c-1.98,1.28-3.71,0.45-4.84-1.15c-1.82-2.6-2.12-5.53-1.79-8.57c0.19-1.75,0.29-3.52,0.8-5.22c0.37-1.24,0.69-2.5,1.45-3.57
				c0.62-0.87,1.42-1.44,2.57-1.32c0.43,0.04,0.8,0.21,1.08,0.51c0.75,0.82,1.63,1.56,1.88,2.73c0.07,0.32,0.3,0.31,0.54,0.35
				c1.24,0.24,2.5,0.27,3.75,0.28c2.17,0.02,4.34-0.07,6.51-0.09c0.35,0,0.56-0.12,0.72-0.43c0.28-0.54,0.59-1.07,0.89-1.6
				c0.55-0.96,1.3-1.74,2.2-2.37c0.33-0.23,0.47-0.41,0.23-0.81c-0.19-0.32-0.24-0.74-0.1-1.09c0.27-0.66-0.07-1.26-0.12-1.89
				c-0.03-0.44-0.31-0.48-0.65-0.41c-0.33,0.07-0.66,0.15-0.99,0.24c-1.11,0.32-2.16,0.12-3.16-0.36c-0.9-0.44-1.36-1.18-1.37-2.21
				c-0.01-2.26,1.49-3.76,3.77-3.72c0.37,0.01,0.65-0.14,0.96-0.28c0.86-0.4,1.74-0.61,2.66-0.28c0.27,0.1,0.44,0,0.65-0.13
				c1.24-0.74,2.49-0.84,3.72,0.02c0.22,0.15,0.41,0.18,0.66,0.12c0.88-0.2,1.76-0.16,2.62,0.1c0.67,0.2,1.32,0.19,2.01,0.07
				c1.61-0.28,3.1,0.02,4.42,1.04c0.29,0.23,0.64,0.37,1.01,0.47c1.98,0.51,2.74,3.11,1.34,4.61c-0.12,0.12-0.24,0.3-0.38,0.33
				c-0.88,0.18-0.96,0.76-0.81,1.49c0.09,0.44-0.47,1.04,0.01,1.28c0.43,0.22,0.75-0.45,1.12-0.72c1.76-1.26,3.54-0.84,5.32-0.09
				c0.47,0.19,0.9,0.46,1.35,0.7c0.12,0.06,0.24,0.17,0.36,0.17c1.96,0.06,3.48,1.24,5.17,1.99c0.7,0.31,1.46,0.56,2.07,1.07
				c0.16,0.13,0.33,0.23,0.48,0.37c0.6,0.56,0.79,1.16,0.44,2c-0.91,2.17-1.98,4.24-3.65,5.95c-0.25,0.25-0.26,0.43-0.04,0.68
				c0.33,0.39,0.6,0.84,0.96,1.19c1.31,1.28,1.79,2.93,2.06,4.65c0.27,1.66,0.06,2.92-0.29,4.55c-0.08,0.36-0.13,0.62,0.24,0.79
				c1.17,0.78,1.31,1.79,1.44,2.83c0.1,0.83-0.3,1.42-1.11,1.71c-0.93,0.34-1.91,0.49-2.89,0.57C52.92,77.85,51.9,77.88,50.62,77.94
				z M44.67,56.19c0.24,0.05,0.43,0.05,0.6-0.21c0.87-1.29,1.57-2.68,2.32-4.04c0.16-0.3,0.09-0.48-0.16-0.69
				c-0.97-0.84-2.8-0.97-3.89-0.25c-0.32,0.21-0.76,0.36-0.68,0.89c0.02,0.16-0.1,0.28-0.21,0.31c-0.33,0.08-0.52,0.24-0.57,0.6
				c-0.04,0.35-0.07,0.69,0.11,0.99c0.31,0.52,0.58,1.07,1.12,1.42c0.47,0.31,0.91,0.66,1.37,0.99c0.02,0.15-0.02,0.26-0.18,0.3
				c-0.73,0.21-1.31-0.09-1.87-0.51c-0.52-0.4-0.91-0.93-1.36-1.4c0.53,1.6,1.92,2.16,3.3,2.73C44.82,56.97,44.9,56.59,44.67,56.19z
				 M44.46,64.64c-0.17,1.26-0.44,2.5-0.59,3.76c-0.07,0.61,0.01,0.94,0.34,1.38c1.14,1.54,1.07,3.21-0.12,4.76
				c-0.21,0.27-0.44,0.54-0.41,0.91c0.03,0.4-0.01,0.88,0.56,0.93c1.18,0.11,2.33,0.46,3.53,0.48c1.42,0.02,2.84,0.14,4.27,0.03
				c1.35-0.1,2.71-0.16,4.04-0.5c0.88-0.22,0.98-0.57,0.97-1.27c0-0.78-0.57-1.61-1.6-2.24c-0.19-0.1-0.14-0.27-0.13-0.44
				c0.09-0.95,0.15-1.9,0.27-2.84c0.27-2.13-0.31-4.04-1.51-5.77c-0.48-0.69-1.05-1.34-1.63-1.95c-1.3-1.34-2.87-2.31-4.64-2.83
				c-2.42-0.7-4.93-0.89-7.44-1.01c-0.51-0.03-0.88,0.16-1.26,0.52c-1.03,0.98-1.79,2.12-2.43,3.37c-0.58,1.13-1.04,2.31-0.96,3.6
				c0.05,0.78,0.3,1.55-0.56,2.07c-0.11,0.07-0.17,0.24-0.05,0.35c0.09,0.08,0.25,0.15,0.37,0.14c0.47-0.04,0.91-0.5,0.98-1
				c0.08-0.57,0.11-1.15,0.22-1.72c0.12-0.6,0.13-1.23,0.58-1.99c-0.15,1.14-0.28,2.04-0.37,2.95c-0.13,1.23-0.04,1.32,1.15,1.15
				c0.22-0.03,0.48,0.07,0.68-0.2c-0.1-1.52,0.03-3.03,0.67-4.47c-0.07,1.15-0.37,2.29-0.27,3.44c0.13,1.54-0.21,1.21,1.45,1.38
				c0.03,0,0.07,0,0.1,0.01c0.31,0.05,0.43-0.12,0.46-0.4c0.02-0.27,0.04-0.54,0.07-0.81c0.12-0.87,0.15-1.77,0.59-2.56
				c0.09-0.16,0.12-0.42,0.51-0.27c-0.57,0.92-0.52,1.99-0.71,3c-0.06,0.33-0.06,0.68-0.03,1.01c0.03,0.28,0.29,0.36,0.54,0.34
				c0.23-0.03,0.21-0.23,0.19-0.4c-0.05-0.45,0-0.89,0.11-1.32c0.18-0.77,0.33-1.58,0.97-2.16c-0.13,0.61-0.42,1.19-0.53,1.79
				c-0.12,0.63,0.01,1.29-0.11,1.92c-0.11,0.58,0.1,0.8,0.65,0.89C43.72,67.33,43.62,65.86,44.46,64.64z M20.26,56.22
				c-0.39-0.03-0.56-0.04-0.73-0.05c-2.85-0.1-5.7,0.12-8.55-0.15c-0.33-0.03-0.69-0.19-1-0.03c-0.46,0.23-0.66,0.01-0.7-0.38
				c-0.11-1.05-0.72-1.8-1.37-2.55c-0.9-1.02-1.9-1.02-2.73,0.04c-0.52,0.67-0.9,1.43-1.18,2.24c-0.64,1.88-0.83,3.84-1.03,5.8
				C2.8,62.61,2.75,64.05,3,65.51c0.26,1.53,0.76,2.96,1.72,4.19c1.39,1.78,3.34,1.32,4.37-0.11c0.33-0.47,0.66-0.96,0.86-1.49
				c0.19-0.5,0.45-0.67,0.97-0.68c2.1-0.03,4.2-0.17,6.3-0.08c0.74,0.03,1.54,0.06,2.37-0.22c-1.28-1.67-1.29-3.54-1.22-5.47
				C18.44,59.69,19.17,57.99,20.26,56.22z M36.65,55.46c-0.23-0.02-0.33-0.05-0.42-0.04c-2.56,0.31-5.14,0.24-7.71,0.5
				c-2.19,0.22-4.4,0.28-6.61,0.24c-0.32-0.01-0.58,0.01-0.78,0.33c-0.98,1.53-1.75,3.13-1.84,5c-0.03,0.7,0.27,1.31,0.38,1.96
				c0.32,1.86,0.93,3.53,2.44,4.76c0.05,0.04,0.11,0.09,0.15,0.14c0.1,0.12,0.12,0.24,0.01,0.36c-0.12,0.12-0.24,0.09-0.35-0.02
				c-0.29-0.28-0.54-0.63-1.03-0.91c0.41,0.91,0.89,1.45,1.82,1.31c0.03,0,0.07,0,0.1,0.01c2.84,0.56,5.72,0.72,8.6,0.81
				c0.91,0.03,1.83-0.06,2.75-0.11c0.57-0.03,0.81-0.47,0.98-0.92c0.17-0.46-0.31-0.53-0.54-0.74c-0.13-0.12-0.24-0.35-0.5-0.22
				c-0.1,0.41,0.28,0.84-0.06,1.28c-0.5-0.18-0.78-0.57-0.95-1.01c-0.32-0.82-0.63-1.65-0.7-2.54c-0.29-3.26,0.66-6.08,2.88-8.5
				C35.73,56.65,36.35,56.25,36.65,55.46z M52.51,60.56c1.07-0.91,1.85-2.06,2.59-3.21c0.55-0.84,0.86-1.83,1.29-2.75
				c0.17-0.37,0.1-0.65-0.21-0.89c-0.19-0.14-0.38-0.3-0.58-0.41c-1.78-0.97-3.58-1.91-5.47-2.67c-0.78-0.31-0.82-0.31-1.17,0.48
				c-0.66,1.49-1.47,2.9-2.35,4.27c-0.43,0.68-0.95,1.29-1.37,2.14C48.01,57.85,50.43,58.76,52.51,60.56z M25.58,51.36
				c-0.2-0.11-0.3-0.02-0.42,0.05c-1.31,0.77-2.1,2-2.86,3.25c-0.23,0.39-0.16,0.53,0.37,0.52c1.26-0.02,2.51-0.13,3.77-0.13
				c2.14-0.01,4.25-0.45,6.4-0.36c1.03,0.04,2.08-0.1,3.12-0.17c-0.46-2.54-5.78-5.04-8.11-4.04c0.26,0.03,1.01,0.07,1.33,0.2
				c0.3,0.12,0.63,0.39,0.63,0.39s-0.54,0.2-0.81,0.35c-0.89,0.49-2.42,1.24-3.11,2.06c0.52-0.33,1.46-0.78,1.92-0.97
				c0.78-0.33,0.91-0.34,1.64-0.19c-1.53,0.57-2.86,1.21-3.93,2.28c-0.26,0.26-1.09-0.22-0.94-0.51c0.53-1.01-0.53,0.15-0.33-0.42
				C24.2,52.87,24.84,52.15,25.58,51.36z M21.18,42.85c-0.53-0.09-0.94,0.35-1.45,0.53c-0.59,0.2-0.73,0.48-0.58,1.05
				c0.13,0.48,0.44,0.83,0.87,1.08c1.01,0.58,2.09,0.67,3.13,0.23c0.88-0.37,1.64-0.2,2.42,0.17c0.21,0.1,0.41,0.22,0.64,0.29
				c1.64,0.47,3.26,0.53,4.88-0.08c0.48-0.18,0.92-0.17,1.37,0.04c1.26,0.57,2.52,0.27,3.78,0.01c0.23-0.05,0.61-0.1,0.42-0.51
				c-0.13-0.28-0.35-0.2-0.6-0.1c-1.36,0.55-2.51,0.24-3.42-0.89c-0.57-0.71-0.75-0.83-1.51-0.48c-0.68,0.31-1.21,0.13-1.81-0.16
				c-1.27-0.62-2.55-0.63-3.76,0.17c-0.9,0.59-1.13,0.61-1.95-0.12c-0.43-0.39-0.88-0.74-1.4-1C21.91,42.91,21.59,42.84,21.18,42.85
				z M35.07,60.48c0.34-0.03,0.4,0.28,0.6,0.38c0.28,0.13,0.49,0.15,0.68-0.17c0.63-1.05,1.3-2.06,2.26-2.85
				c0.18-0.15,0.35-0.34,0.24-0.62c-0.17-0.41-0.31-0.83-0.52-1.22c-0.21-0.41-0.65-0.44-0.94-0.08c-1.13,1.39-2.37,2.69-3.19,4.32
				c-0.53,1.07-0.56,1.26,0.17,2.17c0.11,0.13,0.21,0.27,0.32,0.4c0.13,0.15,0.28,0.35,0.49,0.15c0.16-0.16,0.16-0.36-0.03-0.53
				c-0.32-0.29-0.54-0.65-0.76-1.27c0.43,0.46,0.71,0.77,0.99,1.08c0.36-0.31,0.43-0.53,0.15-0.83
				C35.29,61.16,34.99,60.9,35.07,60.48z M36.29,47.16c-1.62,0.31-3.1,0.51-4.59-0.06c-0.51-0.2-0.71,0.03-0.74,0.62
				c-0.02,0.37,0,0.75-0.04,1.11c-0.03,0.33,0.1,0.49,0.42,0.58c0.72,0.19,1.44,0.4,2.08,0.77c0.55,0.32,0.92,0.27,1.27-0.27
				c0.14-0.21,0.4-0.46,0.62-0.49c0.85-0.1,0.84-0.68,0.85-1.3C36.16,47.86,36.23,47.6,36.29,47.16z M41.76,44.31
				c-0.03-0.15-0.06-0.49-0.17-0.8c-0.26-0.77-1.02-1.04-1.7-0.6c-0.55,0.36-1.13,0.59-1.77,0.7c-0.25,0.04-0.53,0.02-0.7,0.32
				c-0.34,0.6,0.27,1.86,0.96,1.85c0.53-0.01,0.99,0.05,1.42,0.38c0.1,0.08,0.25,0.14,0.37,0.14C41,46.29,41.77,45.4,41.76,44.31z
				 M41.36,56.95c0.06-0.36-0.2-0.47-0.34-0.64c-0.48-0.58-0.81-1.22-0.94-1.98c-0.07-0.44-0.13-0.87-0.09-1.31
				c0.04-0.45-0.18-0.5-0.56-0.63c-1.04-0.34-1.68,0.52-2.52,0.74c-0.07,0.02-0.16,0.17-0.14,0.24c0.07,0.33,0.16,0.65,0.27,0.97
				c0.1,0.3,0.4,0.23,0.61,0.23c1.12,0.01,1.64,0.65,1.8,1.68c0.03,0.17,0.07,0.33,0.1,0.5c0.04,0.2,0.18,0.29,0.36,0.29
				C40.4,57.03,40.91,57.17,41.36,56.95z M33.62,42.39c-0.53-0.06-0.67,0.07-0.64,0.56c0.07,1.01,0.88,1.77,2.05,1.92
				c0.41,0.05,0.65,0.04,0.48-0.53c-0.16-0.54-0.01-0.65,0.54-0.66c0.5-0.01,0.7-0.2,0.55-0.6c-0.24-0.62-0.75-0.93-1.38-1.1
				c-0.44-0.12-0.84-0.31-1.06,0.32C34.09,42.53,33.82,42.45,33.62,42.39z M37.09,48.13c-0.02,0.82,0.55,1.71,1.13,1.87
				c0.48,0.13,0.7-0.01,0.78-0.54c0.04-0.24,0.06-0.55,0.3-0.57c0.46-0.04,0.66-0.25,0.71-0.68c0.05-0.41,0.02-0.81-0.2-1.17
				c-0.22-0.36-0.55-0.44-0.97-0.36c-0.44,0.08-0.38,0.4-0.38,0.7c0,0.1,0.02,0.2,0.01,0.3c-0.04,0.37-0.24,0.36-0.49,0.19
				c-0.08-0.05-0.13-0.15-0.19-0.23c-0.27-0.35-0.45-0.19-0.58,0.11C37.15,47.9,37.11,48.07,37.09,48.13z M27.69,42.53
				c0.1,0,0.2,0.01,0.3,0c0.87-0.06,0.88-0.06,0.96-0.96c0.02-0.22,0.13-0.38,0.25-0.54c0.18-0.26,0.1-0.43-0.17-0.55
				c-0.95-0.43-2.45,0.06-2.94,0.95c-0.21,0.38-0.13,0.63,0.23,0.83C26.74,42.49,27.21,42.55,27.69,42.53z M20.99,41.69
				c1.22,0.04,2.18,0.62,3.07,1.39c0.13,0.11,0.27,0.2,0.4,0.31c0.19,0.17,0.36,0.09,0.55-0.01c0.25-0.14,0.22-0.31,0.05-0.48
				c-0.16-0.18-0.1-0.36-0.04-0.56c0.09-0.29,0.14-0.59,0.2-0.89c0.07-0.37-0.05-0.6-0.46-0.59c-0.24,0.01-0.5-0.04-0.7,0.06
				c-0.95,0.45-1.94,0.73-2.99,0.73C21.04,41.63,21.01,41.67,20.99,41.69z M48.48,50.35c-0.03-0.19-0.15-0.3-0.31-0.38
				c-1.09-0.55-2.16-1.11-3.43-1.1c-0.88,0-1.68,0.23-2.33,0.81c-0.23,0.2-0.85,0.31-0.5,0.78c0.3,0.4,0.59-0.09,0.84-0.24
				c1.51-0.95,3.28-0.93,4.76,0.08c0.17,0.11,0.32,0.27,0.5,0.33C48.22,50.68,48.4,50.56,48.48,50.35z M27.95,48.57
				c0.03-0.4,0.14-0.72-0.1-0.9c-0.32-0.25-0.44,0.19-0.67,0.27c-0.25,0.1-0.51,0.19-0.76,0.28c-0.37,0.12-0.6,0.26-0.32,0.71
				c0.21,0.33,0.14,0.61-0.34,0.56c-0.21-0.02-0.34,0-0.31,0.24c0.03,0.26,0.2,0.32,0.44,0.23c0.38-0.14,0.74-0.33,1.14-0.42
				C27.92,49.33,27.92,49.32,27.95,48.57z M37.37,50.96c-0.9-1.17-1.07-1.07-1.74-0.69c-0.48,0.28-0.61,0.78-0.39,1.21
				c0.34,0.65,0.83,0.84,1.58,0.56c-0.25-0.26-0.69-0.46-0.46-0.88C36.59,50.73,37.06,51.21,37.37,50.96z M36.27,41.19
				c0.41,0.39,0.79,0.76,1.03,1.25c0.09,0.19,0.24,0.33,0.48,0.28c0.36-0.08,0.74-0.13,1.09-0.24c0.32-0.1,0.32-0.32,0.07-0.52
				C38.18,41.35,37.31,41.05,36.27,41.19z M31.18,41.68c-0.32-0.04-0.59-0.02-0.72,0.37c-0.07,0.22-0.25,0.4-0.4,0.58
				c-0.11,0.14-0.22,0.27-0.09,0.44c0.13,0.17,0.32,0.31,0.52,0.22c0.38-0.16,0.77-0.22,1.18-0.27c0.53-0.07,0.43-0.55,0.49-0.88
				c0.06-0.32-0.28-0.33-0.49-0.39C31.52,41.7,31.35,41.7,31.18,41.68z M28.8,49.19c0.46-0.04,0.86-0.07,1.23-0.11
				c0.17-0.29,0.05-0.57,0.09-0.83c0.02-0.1,0-0.2,0-0.3c-0.01-0.21-0.06-0.39-0.31-0.45c-0.54-0.13-0.94,0.13-1.01,0.68
				C28.77,48.47,28.8,48.78,28.8,49.19z M28.46,51.21c-1.66-0.28-2.91,0.65-3.44,2.29C26.16,52.17,27.44,51.75,28.46,51.21z
				 M38.76,51.17c0.25,0.23,0.51,0.22,0.73,0.25c0.53,0.08,0.73-0.11,0.73-0.66c0-0.34-0.23-0.48-0.52-0.29
				C39.39,50.67,39.11,50.91,38.76,51.17z M33.49,63.33c0.32,0.51,0.54,1.1,1.29,1.42C34.5,64,34,63.66,33.49,63.33z M20.05,66.38
				c-0.03,0.05-0.1,0.11-0.09,0.16c0.06,0.23-0.16,0.57,0.24,0.67c0.09,0.02,0.25,0.01,0.28-0.05c0.13-0.25-0.11-0.43-0.18-0.64
				C20.26,66.43,20.17,66.37,20.05,66.38z M34.4,63.33c-0.18-0.37-0.31-0.77-0.82-1.1C33.73,62.83,34.03,63.11,34.4,63.33z
				 M41.07,52.44c0.15-0.07,0.22-0.19,0.22-0.33c0-0.13,0.14-0.31-0.1-0.39C41.02,51.95,40.9,52.16,41.07,52.44z M25.82,47.51
				c0.06-0.04,0.2-0.06,0.22-0.13c0.07-0.2-0.12-0.19-0.23-0.2c-0.09-0.01-0.25,0.04-0.26,0.08C25.53,47.41,25.65,47.48,25.82,47.51
				z"/>
			<g>
				<g>
					<path d="M54.77,77.01c-1.09,0.09-2.2,0.04-3.24,0.44c-0.93,0.36-1.76,0.99-2.63,1.47c-1.08,0.61-2.82,1.47-3.9,0.36
						c-0.67-0.68-1.08-1.91-1.08-2.86c0-0.38-0.59-0.38-0.59,0c0,1.05,0.35,2.21,1,3.05c0.8,1.02,2.24,1.15,3.4,0.71
						c1.2-0.46,2.22-1.25,3.34-1.86c0.71-0.39,1.46-0.59,2.27-0.62c0.55-0.02,0.96-0.22,1.47-0.39C54.95,77.25,54.94,77,54.77,77.01
						L54.77,77.01z"/>
				</g>
			</g>
			<path d="M51.74,70.9c-0.44-0.63-0.66-1.35-0.85-2.09c-0.4-1.57-1.12-2.96-2.34-4.08c-0.94-0.86-2.06-1.31-3.24-1.6
				c-1.58-0.4-3.17-0.72-4.76-1.07c-0.16-0.04-0.34-0.02-0.48-0.14c-0.11-0.1-0.16-0.22-0.14-0.36c0.03-0.14,0.12-0.26,0.27-0.26
				c0.34,0,0.68-0.02,1.01,0.04c1.73,0.3,3.47,0.63,5.16,1.1c2.48,0.69,4.11,2.33,5.12,4.66c0.48,1.1,0.48,2.24,0.48,3.39
				C51.99,70.65,51.99,70.83,51.74,70.9z"/>
			<path d="M49.61,75.36c-1.19,0-2.37-0.09-3.5-0.5c-0.19-0.07-0.39-0.14-0.54-0.27c-0.17-0.14-0.18-0.36-0.1-0.56
				c0.08-0.21,0.26-0.17,0.43-0.14c0.23,0.04,0.47,0.06,0.7,0.12c2.07,0.56,4.16,0.48,6.25,0.12c0.36-0.06,0.71-0.22,1.05-0.37
				c0.28-0.12,0.56-0.24,0.87-0.24c0.18,0,0.34,0.05,0.39,0.25c0.04,0.14,0,0.27-0.11,0.37c-0.3,0.28-0.65,0.48-1.04,0.62
				C52.59,75.26,51.1,75.34,49.61,75.36z"/>
			<path d="M47.55,67.19c-0.14,1.01-0.66,1.92-0.74,2.95c0.45-0.61,0.65-1.37,1.25-1.89c-0.4,1.02-0.62,2.07-0.87,3.13
				c-0.09,0.4-0.29,0.24-0.71,0.1c-0.8-0.27-0.5-0.69-0.32-1.14c0.39-0.97,0.6-2.01,1.11-2.93C47.33,67.3,47.36,67.16,47.55,67.19z"
				/>
			<path d="M47.01,65.48c-0.73,1.44-1.22,2.74-1.41,4.15c-0.02,0.16-0.08,0.35-0.3,0.31c-0.22-0.05-0.19-0.25-0.17-0.41
				c0.04-0.27,0.08-0.54,0.16-0.79c0.25-0.77,0.49-1.54,0.8-2.28C46.22,66.1,46.35,65.68,47.01,65.48z"/>
			<path d="M38.39,62.31c-0.07,0.35-0.15,0.69-0.2,1.05c-0.16,1.07-0.48,2.12-0.18,3.21c0.05,0.17,0.01,0.36-0.22,0.36
				c-0.15,0-0.22-0.14-0.24-0.28c-0.11-0.61-0.12-1.22-0.02-1.82C37.67,63.96,37.81,63.07,38.39,62.31z"/>
			<path d="M40.1,67.12c-0.58-1.19-0.36-2.86,0.48-3.97C40.25,64.45,40.02,65.77,40.1,67.12z"/>
			<path d="M45.62,64.9c-0.41,1.47-0.85,2.93-0.87,4.48C44.26,68.62,44.75,66.18,45.62,64.9z"/>
			<path d="M48.82,70.18c-0.31,0.75-0.43,1.54-0.64,2.31c-0.03,0.13-0.08,0.26-0.15,0.37c-0.07,0.11-0.17,0.22-0.33,0.16
				c-0.15-0.06-0.19-0.19-0.14-0.33c0.16-0.48,0.32-0.96,0.51-1.43c0.16-0.4,0.34-0.78,0.52-1.17
				C48.67,70.13,48.75,70.16,48.82,70.18z"/>
			<path d="M49.66,72.08c0.06,0.37,0.11,0.74-0.1,1.06c-0.04,0.07-0.17,0.12-0.25,0.11c-0.1-0.01-0.17-0.11-0.13-0.22
				C49.3,72.7,49.29,72.32,49.66,72.08z"/>
			<path d="M9.59,65.91c-0.57-1.45-1.15-2.81-1.55-4.35c0.82,0.58,0.5,1.61,1.26,2.22c-0.14-0.84-0.26-1.56-0.38-2.28
				c0.04-0.02,0.08-0.03,0.12-0.05c0.16,0.43,0.34,0.85,0.46,1.3c0.3,1.12,0.67,2.2,1.23,3.22c0.13,0.25,0.23,0.57-0.3,0.38
				c-0.28-0.1-0.48,0.07-0.72,0.23c-0.77,0.52-1.39,0.42-2.04-0.26C6.71,65.27,6.27,64,6.15,62.62c-0.1-1.16,0.02-2.29,0.46-3.39
				c0.31-0.79,0.53-1.61,0.8-2.42c0.06-0.19,0.16-0.42,0.41-0.39c0.34,0.04,0.28,0.33,0.26,0.56c-0.05,0.68-0.2,1.35-0.46,1.98
				c-0.54,1.34-0.41,2.62,0.12,3.94c0.34,0.85,0.68,1.69,1.15,2.47C9.03,65.58,9.15,65.84,9.59,65.91z"/>
			<path d="M14.45,60.65c-1.6-0.09-2.99-0.15-4.38-0.25c-0.41-0.03-0.95,0.06-1.12-0.48c-0.1-0.31,0.41-0.49,1.18-0.43
				c1.42,0.12,2.84,0.23,4.27,0.19c0.71-0.02,1.42,0.08,2.09,0.35c0.17,0.07,0.27,0.2,0.22,0.4c-0.05,0.16-0.19,0.18-0.33,0.17
				C15.66,60.56,14.95,60.61,14.45,60.65z"/>
			<path d="M5.94,67.54c0.35,0.24,0.64,0.42,0.91,0.61c0.08,0.05,0.14,0.15,0.07,0.26c-0.08,0.13-0.2,0.19-0.34,0.12
				c-1.15-0.59-2.11-1.39-2.5-2.66c-0.13-0.42,0.03-0.93-0.24-1.38c0.49,0.41,0.75,0.98,1.21,1.39c0.38,0.33,0.67,0.75,1.11,1.03
				C6.73,67.26,6.17,67.33,5.94,67.54z"/>
			<path d="M5.57,65.4c-0.91-0.48-1.35-1.33-1.77-2.21c-0.04-0.08-0.05-0.25-0.01-0.28c0.52-0.38,0.19-0.82,0.08-1.26
				c0.68,0.53,0.84,1.37,1.45,1.96c-0.54-0.06-0.54-0.06-0.97-0.56c0.02,0.49,0.04,0.47,0.48,1.16C5.08,64.61,5.55,64.84,5.57,65.4z
				"/>
			<path d="M12.19,62.27c0.45,1.36,0.72,2.59,1.28,3.71C12.68,65.42,12,63.51,12.19,62.27z"/>
			<path d="M7.57,68.95c-0.91,0.6-1.66,0.35-2.39,0.03c-0.46-0.2-0.68-0.53-0.48-1.1c0.51,0.12,0.69,0.68,1.2,0.82
				C6.4,68.83,6.91,68.69,7.57,68.95z"/>
			<path d="M11.32,65.56c-0.73-1.09-1.22-2.27-1.14-3.62C10.64,63.12,10.92,64.36,11.32,65.56z"/>
			<path d="M13.37,62.64c0.43,0.94,0.9,1.86,0.97,2.9C13.73,64.68,13.34,63.73,13.37,62.64z"/>
			<path d="M12.03,65.28c-0.56-1.05-0.98-2.15-0.95-3.39c0.38,1.1,0.76,2.2,1.14,3.3C12.16,65.22,12.09,65.25,12.03,65.28z"/>
			<path d="M14.97,63.19c0.22,0.67,0.43,1.34,0.72,2.23C15.09,64.65,14.67,64.05,14.97,63.19z"/>
			<path d="M16.38,63.53c0.14,0.41,0.28,0.82,0.41,1.23c-0.44-0.3-0.6-0.71-0.65-1.17C16.23,63.58,16.3,63.55,16.38,63.53z"/>
			<path d="M4.09,60.13c0.28,0.02,0.34,0.14,0.38,0.27c0.05,0.21,0.24,0.49-0.13,0.55c-0.26,0.05-0.28-0.22-0.3-0.41
				C4.02,60.4,4.07,60.27,4.09,60.13z"/>
			<path d="M4.66,58.52c-0.11-0.03-0.18-0.11-0.16-0.21c0.04-0.17,0.15-0.29,0.34-0.29c0.11,0,0.16,0.1,0.13,0.2
				C4.94,58.39,4.83,58.49,4.66,58.52z"/>
			<path d="M26.44,60.17c-1.19,0-2.37,0-3.56,0c-0.13,0-0.28,0.01-0.4-0.03c-0.12-0.05-0.23-0.14-0.23-0.3
				c0-0.15,0.05-0.29,0.18-0.33c0.32-0.09,0.66-0.2,0.99-0.2c2.23-0.02,4.47-0.13,6.69,0.21c0.23,0.04,0.47,0.07,0.7,0.11
				c0.2,0.04,0.43,0.1,0.39,0.36c-0.03,0.18-0.24,0.2-0.41,0.22c-1.11,0.08-2.23,0.11-3.35,0.06c-0.34-0.02-0.68,0-1.02,0
				C26.44,60.21,26.44,60.19,26.44,60.17z"/>
			<path d="M22.46,65.72c0.1,0,0.26-0.03,0.28,0.01c0.37,0.72,0.73,1.44,1.08,2.17c0.04,0.08-0.02,0.2-0.03,0.3l0.03-0.03
				c-0.62,0.03-0.97-0.3-1.26-0.83c-0.72-1.3-1.33-2.64-1.73-4.07l0,0.01c0.25,0.03,0.34,0.21,0.37,0.42
				c0.12,0.86,0.74,1.52,0.93,2.35c0.07,0.3,0.22,0.56,0.64,0.6c0.07-0.38-0.11-0.66-0.3-0.93L22.46,65.72z"/>
			<path d="M23.72,63.43c0.38,1.76,1.01,3.4,2.14,4.84C24.31,67.02,23.88,65.29,23.72,63.43z"/>
			<path d="M28.79,66.7c-0.26,0.03-0.35-0.14-0.43-0.34c-0.33-0.84-0.54-1.7-0.76-2.57c0.07-0.02,0.13-0.04,0.2-0.06
				c0.32,1,0.64,2,0.97,2.99L28.79,66.7z"/>
			<path d="M27.8,67.66c-0.79-0.75-1.15-1.7-1.33-2.74C26.91,65.83,27.35,66.75,27.8,67.66z"/>
			<path d="M22.47,65.71c-0.12-0.59-0.24-1.18-0.38-1.77c-0.1-0.43-0.1-0.86,0.01-1.31C22.21,63.66,22.78,64.63,22.47,65.71
				C22.46,65.72,22.47,65.71,22.47,65.71z"/>
			<path d="M24.72,64.71c0.17-0.03,0.33-0.04,0.41,0.16c0.13,0.33,0.25,0.66,0.42,1.13C24.92,65.67,25.02,65.06,24.72,64.71
				L24.72,64.71z"/>
			<path d="M29.69,65.82c0.63,0.28,0.55,0.93,0.8,1.41c-0.45-0.38-0.66-0.88-0.78-1.43L29.69,65.82z"/>
			<path d="M28.77,66.72c0.12,0.33,0.44,0.57,0.46,0.97c-0.47-0.35-0.47-0.35-0.44-0.99C28.79,66.7,28.77,66.72,28.77,66.72z"/>
			<path d="M20.83,63.27c0.04-0.45-0.15-0.91,0.05-1.4C20.88,62.36,21.06,62.82,20.83,63.27C20.83,63.28,20.83,63.27,20.83,63.27z"
				/>
			<path d="M23.8,68.2c0.28,0.18,0.75,0.2,0.58,0.79c-0.34-0.19-0.46-0.49-0.55-0.81C23.82,68.17,23.8,68.2,23.8,68.2z"/>
			<path d="M26.07,63.58c0.03,0.01,0.07,0.02,0.08,0.05c0.1,0.15,0.07,0.32,0.05,0.49c-0.01,0.11-0.07,0.12-0.09,0.03
				c-0.04-0.16-0.07-0.33-0.1-0.49C26.02,63.63,26.06,63.61,26.07,63.58z"/>
			<path d="M29.71,65.8c-0.14-0.23-0.24-0.47-0.28-0.95c0.35,0.41,0.28,0.7,0.26,0.97C29.69,65.82,29.71,65.8,29.71,65.8z"/>
			<path d="M26.19,67.31c-0.05,0.06-0.11,0.07-0.16,0c-0.04-0.05-0.09-0.12-0.08-0.16c0.04-0.13,0.14-0.1,0.21-0.02
				C26.19,67.17,26.18,67.25,26.19,67.31z"/>
			<path d="M24.72,64.7c-0.01-0.26-0.03-0.53-0.05-0.84C24.88,64.17,24.77,64.44,24.72,64.7C24.72,64.71,24.72,64.7,24.72,64.7z"/>
			<path d="M52.63,57.42c-0.62-0.01-1.15-0.23-1.64-0.55c-0.34-0.22-0.65-0.32-1.03-0.08c-0.37,0.23-0.77,0.33-1.1-0.07
				c-0.37-0.46-0.67-0.95-0.44-1.58c0.11-0.3,0.37-0.49,0.61-0.67c0.51-0.39,0.8-0.38,1.14,0.2c0.57,0.97,1.48,1.41,2.44,1.82
				c0.06,0.03,0.13,0.05,0.19,0.08c0.28,0.13,0.62,0.25,0.5,0.64C53.21,57.54,52.85,57.38,52.63,57.42z"/>
			<path d="M29.99,52.78c-0.69,0.58-1.55,0.89-2.24,1.48c-0.1,0.09-0.26,0.11-0.37-0.01c-0.15-0.18-0.02-0.32,0.11-0.42
				C28.23,53.28,29.03,52.88,29.99,52.78z"/>
			<path d="M30.79,53.48c-0.47,0.25-0.47,0.29-0.98,0.58c-0.13,0.07-0.27,0.01-0.35-0.12c-0.08-0.14,0.01-0.29,0.13-0.33
				c0.53-0.31,1.38-0.59,2.19-0.74C31.62,53.01,30.97,53.41,30.79,53.48z"/>
			<path d="M36.11,59.28c0.16,0.01,0.26,0.13,0.28,0.31c0.01,0.11-0.07,0.2-0.17,0.21c-0.23,0.03-0.25-0.16-0.29-0.31
				C35.91,59.38,35.96,59.3,36.11,59.28z"/>
			<path d="M36.55,57.98c0.16,0.04,0.25,0.12,0.27,0.26c0.01,0.05-0.03,0.14-0.06,0.15c-0.14,0.05-0.25-0.01-0.26-0.16
				C36.49,58.14,36.53,58.06,36.55,57.98z"/>
		</g>
	</g>
	<g>
	</g>
	<g>
	</g>
	<g>
	</g>
	<g>
	</g>
	<g>
	</g>
	<g>
	</g>
	<g>
	</g>
	<g>
	</g>
	<g>
	</g>
	<g>
	</g>
	<g>
	</g>
	<g>
	</g>
	<g>
	</g>
	<g>
	</g>
	<g>
	</g>
	<g>
	</g>
	<g>
	</g>
</g>
</svg>
